<svg width="248" height="174" viewBox="0 0 248 174" fill="none" xmlns="http://www.w3.org/2000/svg">
<g id="change_x_by">
<g id="block_shape">
<rect id="next_block_arrowbody" x="111" y="103" width="22" height="22" fill="#42A5F5"/>
<path id="next_block_arrowhead" d="M121.5 159L147.048 124.5H95.9523L121.5 159Z" fill="#42A5F5"/>
<g id="prev_block_connector">
<path d="M121.5 44H96V10H96.3223L121.5 44Z" fill="#42A5F5"/>
<path d="M147 44H121.5L146.678 10H147V44Z" fill="#42A5F5"/>
</g>
<path id="block_body" d="M8 60.5421C8 51.4061 21.0314 44 37.1064 44H206.894C222.969 44 236 51.4061 236 60.5421V86.4579C236 95.5939 222.969 103 206.894 103H37.1064C21.0314 103 8 95.5939 8 86.4579V60.5421Z" fill="#42A5F5"/>
</g>
<g id="block_input">
<path id="input_constant" d="M122 72C122 66.4772 126.477 62 132 62H189C194.523 62 199 66.4772 199 72V76C199 81.5228 194.523 86 189 86H132C126.477 86 122 81.5228 122 76V72Z" fill="white"/>
<path id="change_x_by_text" d="M50.6818 79.1278C50.0114 79.1278 49.4347 78.9858 48.9517 78.7017C48.4716 78.4148 48.1023 78.017 47.8438 77.5085C47.5881 77 47.4602 76.4148 47.4602 75.7528C47.4602 75.0824 47.5895 74.4943 47.848 73.9886C48.1094 73.4801 48.4801 73.0838 48.9602 72.7997C49.4403 72.5128 50.0114 72.3693 50.6733 72.3693C51.2443 72.3693 51.7443 72.473 52.1733 72.6804C52.6023 72.8878 52.9418 73.179 53.1918 73.554C53.4418 73.929 53.5795 74.3693 53.6051 74.875H51.892C51.8438 74.5483 51.7159 74.2855 51.5085 74.0866C51.304 73.8849 51.0355 73.7841 50.7031 73.7841C50.4219 73.7841 50.1761 73.8608 49.9659 74.0142C49.7585 74.1648 49.5966 74.3849 49.4801 74.6747C49.3636 74.9645 49.3054 75.3153 49.3054 75.7273C49.3054 76.1449 49.3622 76.5 49.4759 76.7926C49.5923 77.0852 49.7557 77.3082 49.9659 77.4616C50.1761 77.6151 50.4219 77.6918 50.7031 77.6918C50.9105 77.6918 51.0966 77.6491 51.2614 77.5639C51.429 77.4787 51.5668 77.3551 51.6747 77.1932C51.7855 77.0284 51.858 76.831 51.892 76.6009H53.6051C53.5767 77.1009 53.4403 77.5412 53.196 77.9219C52.9545 78.2997 52.6207 78.5952 52.1946 78.8082C51.7685 79.0213 51.2642 79.1278 50.6818 79.1278ZM56.5827 75.2159V79H54.7674V70.2727H56.5316V73.6094H56.6083C56.756 73.223 56.9947 72.9205 57.3242 72.7017C57.6538 72.4801 58.0671 72.3693 58.5643 72.3693C59.0188 72.3693 59.4151 72.4688 59.7532 72.6676C60.0941 72.8636 60.3583 73.1463 60.5458 73.5156C60.7362 73.8821 60.8299 74.321 60.8271 74.8324V79H59.0117V75.1562C59.0146 74.7528 58.9123 74.4389 58.7049 74.2145C58.5004 73.9901 58.2134 73.8778 57.8441 73.8778C57.5969 73.8778 57.3782 73.9304 57.1879 74.0355C57.0004 74.1406 56.8526 74.294 56.7447 74.4957C56.6396 74.6946 56.5856 74.9347 56.5827 75.2159ZM64.1222 79.1236C63.7045 79.1236 63.3324 79.0511 63.0057 78.9062C62.679 78.7585 62.4205 78.5412 62.2301 78.2543C62.0426 77.9645 61.9489 77.6037 61.9489 77.1719C61.9489 76.8082 62.0156 76.5028 62.1491 76.2557C62.2827 76.0085 62.4645 75.8097 62.6946 75.6591C62.9247 75.5085 63.1861 75.3949 63.4787 75.3182C63.7741 75.2415 64.0838 75.1875 64.4077 75.1562C64.7884 75.1165 65.0952 75.0795 65.3281 75.0455C65.5611 75.0085 65.7301 74.9545 65.8352 74.8835C65.9403 74.8125 65.9929 74.7074 65.9929 74.5682V74.5426C65.9929 74.2727 65.9077 74.0639 65.7372 73.9162C65.5696 73.7685 65.331 73.6946 65.0213 73.6946C64.6946 73.6946 64.4347 73.767 64.2415 73.9119C64.0483 74.054 63.9205 74.233 63.858 74.4489L62.179 74.3125C62.2642 73.9148 62.4318 73.571 62.6818 73.2812C62.9318 72.9886 63.2543 72.7642 63.6491 72.608C64.0469 72.4489 64.5071 72.3693 65.0298 72.3693C65.3935 72.3693 65.7415 72.4119 66.0739 72.4972C66.4091 72.5824 66.706 72.7145 66.9645 72.8935C67.2259 73.0724 67.4318 73.3026 67.5824 73.5838C67.733 73.8622 67.8082 74.196 67.8082 74.5852V79H66.0866V78.0923H66.0355C65.9304 78.2969 65.7898 78.4773 65.6136 78.6335C65.4375 78.7869 65.2259 78.9077 64.9787 78.9957C64.7315 79.081 64.446 79.1236 64.1222 79.1236ZM64.642 77.8707C64.9091 77.8707 65.1449 77.8182 65.3494 77.7131C65.554 77.6051 65.7145 77.4602 65.831 77.2784C65.9474 77.0966 66.0057 76.8906 66.0057 76.6605V75.9659C65.9489 76.0028 65.8707 76.0369 65.7713 76.0682C65.6747 76.0966 65.5653 76.1236 65.4432 76.1491C65.321 76.1719 65.1989 76.1932 65.0767 76.2131C64.9545 76.2301 64.8438 76.2457 64.7443 76.2599C64.5313 76.2912 64.3452 76.3409 64.1861 76.4091C64.027 76.4773 63.9034 76.5696 63.8153 76.6861C63.7273 76.7997 63.6832 76.9418 63.6832 77.1122C63.6832 77.3594 63.7727 77.5483 63.9517 77.679C64.1335 77.8068 64.3636 77.8707 64.642 77.8707ZM71.032 75.2159V79H69.2166V72.4545H70.9467V73.6094H71.0234C71.1683 73.2287 71.4112 72.9276 71.7521 72.706C72.093 72.4815 72.5064 72.3693 72.9922 72.3693C73.4467 72.3693 73.843 72.4688 74.1811 72.6676C74.5192 72.8665 74.782 73.1506 74.9695 73.5199C75.157 73.8864 75.2507 74.3239 75.2507 74.8324V79H73.4354V75.1562C73.4382 74.7557 73.3359 74.4432 73.1286 74.2188C72.9212 73.9915 72.6357 73.8778 72.272 73.8778C72.0277 73.8778 71.8118 73.9304 71.6243 74.0355C71.4396 74.1406 71.2947 74.294 71.1896 74.4957C71.0874 74.6946 71.0348 74.9347 71.032 75.2159ZM79.6303 81.5909C79.0423 81.5909 78.538 81.5099 78.1175 81.348C77.6999 81.1889 77.3675 80.9716 77.1204 80.696C76.8732 80.4205 76.7127 80.1108 76.6388 79.767L78.3178 79.5412C78.369 79.6719 78.4499 79.794 78.5607 79.9077C78.6715 80.0213 78.8178 80.1122 78.9996 80.1804C79.1843 80.2514 79.4087 80.2869 79.6729 80.2869C80.0678 80.2869 80.3931 80.1903 80.6488 79.9972C80.9073 79.8068 81.0366 79.4872 81.0366 79.0384V77.8409H80.9599C80.8803 78.0227 80.761 78.1946 80.6019 78.3565C80.4428 78.5185 80.2383 78.6506 79.9883 78.7528C79.7383 78.8551 79.44 78.9062 79.0934 78.9062C78.6019 78.9062 78.1545 78.7926 77.7511 78.5653C77.3505 78.3352 77.0309 77.9844 76.7923 77.5128C76.5565 77.0384 76.4386 76.4389 76.4386 75.7145C76.4386 74.973 76.5593 74.3537 76.8008 73.8565C77.0423 73.3594 77.3633 72.9872 77.7638 72.7401C78.1673 72.4929 78.609 72.3693 79.0891 72.3693C79.4556 72.3693 79.7624 72.4318 80.0096 72.5568C80.2567 72.679 80.4556 72.8324 80.6062 73.017C80.7596 73.1989 80.8775 73.3778 80.9599 73.554H81.0281V72.4545H82.8306V79.0639C82.8306 79.6207 82.6942 80.0866 82.4215 80.4616C82.1488 80.8366 81.771 81.1179 81.288 81.3054C80.8079 81.4957 80.2553 81.5909 79.6303 81.5909ZM79.6687 77.5426C79.9613 77.5426 80.2085 77.4702 80.4102 77.3253C80.6147 77.1776 80.771 76.9673 80.8789 76.6946C80.9897 76.419 81.0451 76.0895 81.0451 75.706C81.0451 75.3224 80.9911 74.9901 80.8832 74.7088C80.7752 74.4247 80.619 74.2045 80.4144 74.0483C80.2099 73.892 79.9613 73.8139 79.6687 73.8139C79.3704 73.8139 79.119 73.8949 78.9144 74.0568C78.7099 74.2159 78.555 74.4375 78.4499 74.7216C78.3448 75.0057 78.2923 75.3338 78.2923 75.706C78.2923 76.0838 78.3448 76.4105 78.4499 76.6861C78.5579 76.9588 78.7127 77.1705 78.9144 77.321C79.119 77.4687 79.3704 77.5426 79.6687 77.5426ZM87.2582 79.1278C86.5849 79.1278 86.0053 78.9915 85.5195 78.7188C85.0366 78.4432 84.6644 78.054 84.4031 77.5511C84.1417 77.0455 84.011 76.4474 84.011 75.7571C84.011 75.0838 84.1417 74.4929 84.4031 73.9844C84.6644 73.4759 85.0323 73.0795 85.5067 72.7955C85.984 72.5114 86.5437 72.3693 87.1857 72.3693C87.6175 72.3693 88.0195 72.4389 88.3917 72.5781C88.7667 72.7145 89.0934 72.9205 89.3718 73.196C89.6531 73.4716 89.8718 73.8182 90.0281 74.2358C90.1843 74.6506 90.2624 75.1364 90.2624 75.6932V76.1918H84.7354V75.0668H88.5536C88.5536 74.8054 88.4968 74.5739 88.3832 74.3722C88.2695 74.1705 88.1119 74.0128 87.9102 73.8991C87.7113 73.7827 87.4798 73.7244 87.2156 73.7244C86.94 73.7244 86.6957 73.7884 86.4826 73.9162C86.2724 74.0412 86.1076 74.2102 85.9883 74.4233C85.869 74.6335 85.8079 74.8679 85.805 75.1264V76.196C85.805 76.5199 85.8647 76.7997 85.984 77.0355C86.1062 77.2713 86.2781 77.4531 86.4996 77.581C86.7212 77.7088 86.984 77.7727 87.288 77.7727C87.4897 77.7727 87.6744 77.7443 87.842 77.6875C88.0096 77.6307 88.1531 77.5455 88.2724 77.4318C88.3917 77.3182 88.4826 77.179 88.5451 77.0142L90.2241 77.125C90.1388 77.5284 89.9641 77.8807 89.6999 78.1818C89.4386 78.4801 89.1005 78.7131 88.6857 78.8807C88.2738 79.0455 87.7979 79.1278 87.2582 79.1278ZM95.7415 72.4545L96.9432 74.7429L98.1747 72.4545H100.037L98.1406 75.7273L100.088 79H98.2344L96.9432 76.7372L95.6733 79H93.7983L95.7415 75.7273L93.8665 72.4545H95.7415ZM103.926 79V70.2727H105.742V73.554H105.797C105.877 73.3778 105.992 73.1989 106.142 73.017C106.296 72.8324 106.495 72.679 106.739 72.5568C106.986 72.4318 107.293 72.3693 107.659 72.3693C108.137 72.3693 108.577 72.4943 108.98 72.7443C109.384 72.9915 109.706 73.3651 109.948 73.8651C110.189 74.3622 110.31 74.9858 110.31 75.7358C110.31 76.4659 110.192 77.0824 109.956 77.5852C109.723 78.0852 109.405 78.4645 109.002 78.723C108.601 78.9787 108.152 79.1065 107.655 79.1065C107.303 79.1065 107.003 79.0483 106.756 78.9318C106.512 78.8153 106.311 78.669 106.155 78.4929C105.999 78.3139 105.88 78.1335 105.797 77.9517H105.716V79H103.926ZM105.703 75.7273C105.703 76.1165 105.757 76.456 105.865 76.7457C105.973 77.0355 106.13 77.2614 106.334 77.4233C106.539 77.5824 106.787 77.6619 107.08 77.6619C107.375 77.6619 107.625 77.581 107.83 77.419C108.034 77.2543 108.189 77.027 108.294 76.7372C108.402 76.4446 108.456 76.108 108.456 75.7273C108.456 75.3494 108.404 75.017 108.299 74.7301C108.194 74.4432 108.039 74.2187 107.834 74.0568C107.63 73.8949 107.378 73.8139 107.08 73.8139C106.784 73.8139 106.534 73.892 106.33 74.0483C106.128 74.2045 105.973 74.4261 105.865 74.7131C105.757 75 105.703 75.3381 105.703 75.7273ZM112.431 81.4545C112.201 81.4545 111.985 81.4361 111.783 81.3991C111.585 81.3651 111.42 81.321 111.289 81.267L111.698 79.9119C111.911 79.9773 112.103 80.0128 112.273 80.0185C112.447 80.0241 112.596 79.9844 112.721 79.8991C112.849 79.8139 112.952 79.669 113.032 79.4645L113.138 79.1875L110.79 72.4545H112.7L114.055 77.2614H114.123L115.491 72.4545H117.413L114.869 79.7074C114.746 80.0597 114.58 80.3665 114.37 80.6278C114.163 80.892 113.9 81.0952 113.582 81.2372C113.263 81.3821 112.88 81.4545 112.431 81.4545Z" fill="white"/>
</g>
</g>
</svg>
