<svg width="271" height="171" viewBox="0 0 271 171" fill="none" xmlns="http://www.w3.org/2000/svg">
<g id="go_to">
<g id="block_shape">
<rect id="next_block_arrowbody" x="123" y="103" width="22" height="22" fill="#42A5F5"/>
<path id="next_block_arrowhead" d="M133.5 159L159.048 124.5H107.952L133.5 159Z" fill="#42A5F5"/>
<g id="prev_block_connector">
<path d="M133.5 44H108V10H108.322L133.5 44Z" fill="#42A5F5"/>
<path d="M159 44H133.5L158.678 10H159V44Z" fill="#42A5F5"/>
</g>
<path id="block_body" d="M20 60.5421C20 51.4061 33.0314 44 49.1064 44H218.894C234.969 44 248 51.4061 248 60.5421V86.4579C248 95.5939 234.969 103 218.894 103H49.1064C33.0314 103 20 95.5939 20 86.4579V60.5421Z" fill="#42A5F5"/>
</g>
<g id="block_input">
<rect id="input_y_constant" x="180" y="62" width="29" height="24" rx="10" fill="white"/>
<path id="y_text" d="M162.845 81.4545C162.615 81.4545 162.399 81.4361 162.197 81.3991C161.999 81.3651 161.834 81.321 161.703 81.267L162.112 79.9119C162.325 79.9773 162.517 80.0128 162.688 80.0185C162.861 80.0241 163.01 79.9844 163.135 79.8991C163.263 79.8139 163.366 79.669 163.446 79.4645L163.553 79.1875L161.205 72.4545H163.114L164.469 77.2614H164.537L165.905 72.4545H167.827L165.283 79.7074C165.161 80.0597 164.994 80.3665 164.784 80.6278C164.577 80.892 164.314 81.0952 163.996 81.2372C163.678 81.3821 163.294 81.4545 162.845 81.4545ZM169.817 79.1108C169.536 79.1108 169.294 79.0114 169.092 78.8125C168.893 78.6108 168.794 78.3693 168.794 78.0881C168.794 77.8097 168.893 77.571 169.092 77.3722C169.294 77.1733 169.536 77.0739 169.817 77.0739C170.089 77.0739 170.328 77.1733 170.533 77.3722C170.737 77.571 170.839 77.8097 170.839 78.0881C170.839 78.2756 170.791 78.4474 170.695 78.6037C170.601 78.7571 170.477 78.8807 170.324 78.9744C170.17 79.0653 170.001 79.1108 169.817 79.1108ZM169.817 74.5256C169.536 74.5256 169.294 74.4261 169.092 74.2273C168.893 74.0284 168.794 73.7869 168.794 73.5028C168.794 73.2244 168.893 72.9872 169.092 72.7912C169.294 72.5923 169.536 72.4929 169.817 72.4929C170.089 72.4929 170.328 72.5923 170.533 72.7912C170.737 72.9872 170.839 73.2244 170.839 73.5028C170.839 73.6932 170.791 73.8665 170.695 74.0227C170.601 74.1761 170.477 74.2983 170.324 74.3892C170.17 74.4801 170.001 74.5256 169.817 74.5256Z" fill="white"/>
<rect id="input_x_constant" x="121" y="62" width="29" height="24" rx="10" fill="white"/>
<path id="x_text" d="M106.241 72.4545L107.443 74.7429L108.675 72.4545H110.537L108.641 75.7273L110.588 79H108.734L107.443 76.7372L106.173 79H104.298L106.241 75.7273L104.366 72.4545H106.241ZM112.676 79.1108C112.395 79.1108 112.153 79.0114 111.952 78.8125C111.753 78.6108 111.653 78.3693 111.653 78.0881C111.653 77.8097 111.753 77.571 111.952 77.3722C112.153 77.1733 112.395 77.0739 112.676 77.0739C112.949 77.0739 113.188 77.1733 113.392 77.3722C113.597 77.571 113.699 77.8097 113.699 78.0881C113.699 78.2756 113.651 78.4474 113.554 78.6037C113.46 78.7571 113.337 78.8807 113.183 78.9744C113.03 79.0653 112.861 79.1108 112.676 79.1108ZM112.676 74.5256C112.395 74.5256 112.153 74.4261 111.952 74.2273C111.753 74.0284 111.653 73.7869 111.653 73.5028C111.653 73.2244 111.753 72.9872 111.952 72.7912C112.153 72.5923 112.395 72.4929 112.676 72.4929C112.949 72.4929 113.188 72.5923 113.392 72.7912C113.597 72.9872 113.699 73.2244 113.699 73.5028C113.699 73.6932 113.651 73.8665 113.554 74.0227C113.46 74.1761 113.337 74.2983 113.183 74.3892C113.03 74.4801 112.861 74.5256 112.676 74.5256Z" fill="white"/>
<path id="go_to_text" d="M61.6733 81.5909C61.0852 81.5909 60.581 81.5099 60.1605 81.348C59.7429 81.1889 59.4105 80.9716 59.1634 80.696C58.9162 80.4205 58.7557 80.1108 58.6818 79.767L60.3608 79.5412C60.4119 79.6719 60.4929 79.794 60.6037 79.9077C60.7145 80.0213 60.8608 80.1122 61.0426 80.1804C61.2273 80.2514 61.4517 80.2869 61.7159 80.2869C62.1108 80.2869 62.4361 80.1903 62.6918 79.9972C62.9503 79.8068 63.0795 79.4872 63.0795 79.0384V77.8409H63.0028C62.9233 78.0227 62.804 78.1946 62.6449 78.3565C62.4858 78.5185 62.2812 78.6506 62.0312 78.7528C61.7812 78.8551 61.483 78.9062 61.1364 78.9062C60.6449 78.9062 60.1974 78.7926 59.794 78.5653C59.3935 78.3352 59.0739 77.9844 58.8352 77.5128C58.5994 77.0384 58.4815 76.4389 58.4815 75.7145C58.4815 74.973 58.6023 74.3537 58.8438 73.8565C59.0852 73.3594 59.4063 72.9872 59.8068 72.7401C60.2102 72.4929 60.652 72.3693 61.1321 72.3693C61.4986 72.3693 61.8054 72.4318 62.0526 72.5568C62.2997 72.679 62.4986 72.8324 62.6491 73.017C62.8026 73.1989 62.9205 73.3778 63.0028 73.554H63.071V72.4545H64.8736V79.0639C64.8736 79.6207 64.7372 80.0866 64.4645 80.4616C64.1918 80.8366 63.8139 81.1179 63.331 81.3054C62.8509 81.4957 62.2983 81.5909 61.6733 81.5909ZM61.7116 77.5426C62.0043 77.5426 62.2514 77.4702 62.4531 77.3253C62.6577 77.1776 62.8139 76.9673 62.9219 76.6946C63.0327 76.419 63.0881 76.0895 63.0881 75.706C63.0881 75.3224 63.0341 74.9901 62.9261 74.7088C62.8182 74.4247 62.6619 74.2045 62.4574 74.0483C62.2528 73.892 62.0043 73.8139 61.7116 73.8139C61.4134 73.8139 61.1619 73.8949 60.9574 74.0568C60.7528 74.2159 60.598 74.4375 60.4929 74.7216C60.3878 75.0057 60.3352 75.3338 60.3352 75.706C60.3352 76.0838 60.3878 76.4105 60.4929 76.6861C60.6009 76.9588 60.7557 77.1705 60.9574 77.321C61.1619 77.4687 61.4134 77.5426 61.7116 77.5426ZM69.2756 79.1278C68.6136 79.1278 68.0412 78.9872 67.5582 78.706C67.0781 78.4219 66.7074 78.027 66.446 77.5213C66.1847 77.0128 66.054 76.4233 66.054 75.7528C66.054 75.0767 66.1847 74.4858 66.446 73.9801C66.7074 73.4716 67.0781 73.0767 67.5582 72.7955C68.0412 72.5114 68.6136 72.3693 69.2756 72.3693C69.9375 72.3693 70.5085 72.5114 70.9886 72.7955C71.4716 73.0767 71.8438 73.4716 72.1051 73.9801C72.3665 74.4858 72.4972 75.0767 72.4972 75.7528C72.4972 76.4233 72.3665 77.0128 72.1051 77.5213C71.8438 78.027 71.4716 78.4219 70.9886 78.706C70.5085 78.9872 69.9375 79.1278 69.2756 79.1278ZM69.2841 77.7216C69.5852 77.7216 69.8366 77.6364 70.0384 77.4659C70.2401 77.2926 70.392 77.0568 70.4943 76.7585C70.5994 76.4602 70.652 76.1207 70.652 75.7401C70.652 75.3594 70.5994 75.0199 70.4943 74.7216C70.392 74.4233 70.2401 74.1875 70.0384 74.0142C69.8366 73.8409 69.5852 73.7543 69.2841 73.7543C68.9801 73.7543 68.7244 73.8409 68.517 74.0142C68.3125 74.1875 68.1577 74.4233 68.0526 74.7216C67.9503 75.0199 67.8991 75.3594 67.8991 75.7401C67.8991 76.1207 67.9503 76.4602 68.0526 76.7585C68.1577 77.0568 68.3125 77.2926 68.517 77.4659C68.7244 77.6364 68.9801 77.7216 69.2841 77.7216ZM79.9364 72.4545V73.8182H75.9947V72.4545H79.9364ZM76.8896 70.8864H78.7049V76.9886C78.7049 77.1562 78.7305 77.2869 78.7816 77.3807C78.8327 77.4716 78.9038 77.5355 78.9947 77.5724C79.0884 77.6094 79.1964 77.6278 79.3185 77.6278C79.4038 77.6278 79.489 77.6207 79.5742 77.6065C79.6594 77.5895 79.7248 77.5767 79.7702 77.5682L80.0558 78.919C79.9648 78.9474 79.837 78.9801 79.6722 79.017C79.5075 79.0568 79.3072 79.081 79.0714 79.0895C78.6339 79.1065 78.2504 79.0483 77.9208 78.9148C77.5941 78.7812 77.3398 78.5739 77.158 78.2926C76.9762 78.0114 76.8867 77.6562 76.8896 77.2273V70.8864ZM84.006 79.1278C83.3441 79.1278 82.7717 78.9872 82.2887 78.706C81.8086 78.4219 81.4379 78.027 81.1765 77.5213C80.9151 77.0128 80.7844 76.4233 80.7844 75.7528C80.7844 75.0767 80.9151 74.4858 81.1765 73.9801C81.4379 73.4716 81.8086 73.0767 82.2887 72.7955C82.7717 72.5114 83.3441 72.3693 84.006 72.3693C84.668 72.3693 85.239 72.5114 85.7191 72.7955C86.2021 73.0767 86.5742 73.4716 86.8356 73.9801C87.0969 74.4858 87.2276 75.0767 87.2276 75.7528C87.2276 76.4233 87.0969 77.0128 86.8356 77.5213C86.5742 78.027 86.2021 78.4219 85.7191 78.706C85.239 78.9872 84.668 79.1278 84.006 79.1278ZM84.0146 77.7216C84.3157 77.7216 84.5671 77.6364 84.7688 77.4659C84.9705 77.2926 85.1225 77.0568 85.2248 76.7585C85.3299 76.4602 85.3825 76.1207 85.3825 75.7401C85.3825 75.3594 85.3299 75.0199 85.2248 74.7216C85.1225 74.4233 84.9705 74.1875 84.7688 74.0142C84.5671 73.8409 84.3157 73.7543 84.0146 73.7543C83.7106 73.7543 83.4549 73.8409 83.2475 74.0142C83.043 74.1875 82.8881 74.4233 82.783 74.7216C82.6808 75.0199 82.6296 75.3594 82.6296 75.7401C82.6296 76.1207 82.6808 76.4602 82.783 76.7585C82.8881 77.0568 83.043 77.2926 83.2475 77.4659C83.4549 77.6364 83.7106 77.7216 84.0146 77.7216Z" fill="white"/>
</g>
</g>
</svg>
