<svg width="257" height="162" viewBox="0 0 257 162" fill="none" xmlns="http://www.w3.org/2000/svg">
<g id="point_in">
<g id="block_shape">
<rect id="next_block_arrowbody" x="116" y="98" width="22" height="22" fill="#42A5F5"/>
<path id="next_block_arrowhead" d="M126.5 154L152.048 119.5H100.952L126.5 154Z" fill="#42A5F5"/>
<g id="prev_block_connector">
<path d="M126.5 39H101V5H101.322L126.5 39Z" fill="#42A5F5"/>
<path d="M152 39H126.5L151.678 5H152V39Z" fill="#42A5F5"/>
</g>
<path id="block_body" d="M13 55.5421C13 46.4061 26.0314 39 42.1064 39H211.894C227.969 39 241 46.4061 241 55.5421V81.4579C241 90.5939 227.969 98 211.894 98H42.1064C26.0314 98 13 90.5939 13 81.4579V55.5421Z" fill="#42A5F5"/>
</g>
<g id="block_input">
<rect id="input_constant" x="147" y="57" width="77" height="24" rx="10" fill="white"/>
<path id="point_in_text" d="M40.7244 76.4545V67.4545H42.5142V68.554H42.5952C42.6747 68.3778 42.7898 68.1989 42.9403 68.017C43.0938 67.8324 43.2926 67.679 43.5369 67.5568C43.7841 67.4318 44.0909 67.3693 44.4574 67.3693C44.9347 67.3693 45.375 67.4943 45.7784 67.7443C46.1818 67.9915 46.5043 68.3651 46.7457 68.8651C46.9872 69.3622 47.108 69.9858 47.108 70.7358C47.108 71.4659 46.9901 72.0824 46.7543 72.5852C46.5213 73.0852 46.2031 73.4645 45.7997 73.723C45.3991 73.9787 44.9503 74.1065 44.4531 74.1065C44.1009 74.1065 43.8011 74.0483 43.554 73.9318C43.3097 73.8153 43.1094 73.669 42.9531 73.4929C42.7969 73.3139 42.6776 73.1335 42.5952 72.9517H42.5398V76.4545H40.7244ZM42.5014 70.7273C42.5014 71.1165 42.5554 71.456 42.6634 71.7457C42.7713 72.0355 42.9276 72.2614 43.1321 72.4233C43.3366 72.5824 43.5852 72.6619 43.8778 72.6619C44.1733 72.6619 44.4233 72.581 44.6278 72.419C44.8324 72.2543 44.9872 72.027 45.0923 71.7372C45.2003 71.4446 45.2543 71.108 45.2543 70.7273C45.2543 70.3494 45.2017 70.017 45.0966 69.7301C44.9915 69.4432 44.8366 69.2187 44.6321 69.0568C44.4276 68.8949 44.1761 68.8139 43.8778 68.8139C43.5824 68.8139 43.3324 68.892 43.1278 69.0483C42.9261 69.2045 42.7713 69.4261 42.6634 69.7131C42.5554 70 42.5014 70.3381 42.5014 70.7273ZM51.2756 74.1278C50.6136 74.1278 50.0412 73.9872 49.5582 73.706C49.0781 73.4219 48.7074 73.027 48.446 72.5213C48.1847 72.0128 48.054 71.4233 48.054 70.7528C48.054 70.0767 48.1847 69.4858 48.446 68.9801C48.7074 68.4716 49.0781 68.0767 49.5582 67.7955C50.0412 67.5114 50.6136 67.3693 51.2756 67.3693C51.9375 67.3693 52.5085 67.5114 52.9886 67.7955C53.4716 68.0767 53.8438 68.4716 54.1051 68.9801C54.3665 69.4858 54.4972 70.0767 54.4972 70.7528C54.4972 71.4233 54.3665 72.0128 54.1051 72.5213C53.8438 73.027 53.4716 73.4219 52.9886 73.706C52.5085 73.9872 51.9375 74.1278 51.2756 74.1278ZM51.2841 72.7216C51.5852 72.7216 51.8366 72.6364 52.0384 72.4659C52.2401 72.2926 52.392 72.0568 52.4943 71.7585C52.5994 71.4602 52.652 71.1207 52.652 70.7401C52.652 70.3594 52.5994 70.0199 52.4943 69.7216C52.392 69.4233 52.2401 69.1875 52.0384 69.0142C51.8366 68.8409 51.5852 68.7543 51.2841 68.7543C50.9801 68.7543 50.7244 68.8409 50.517 69.0142C50.3125 69.1875 50.1577 69.4233 50.0526 69.7216C49.9503 70.0199 49.8991 70.3594 49.8991 70.7401C49.8991 71.1207 49.9503 71.4602 50.0526 71.7585C50.1577 72.0568 50.3125 72.2926 50.517 72.4659C50.7244 72.6364 50.9801 72.7216 51.2841 72.7216ZM55.6776 74V67.4545H57.4929V74H55.6776ZM56.5895 66.6108C56.3196 66.6108 56.0881 66.5213 55.8949 66.3423C55.7045 66.1605 55.6094 65.9432 55.6094 65.6903C55.6094 65.4403 55.7045 65.2259 55.8949 65.0469C56.0881 64.8651 56.3196 64.7741 56.5895 64.7741C56.8594 64.7741 57.0895 64.8651 57.2798 65.0469C57.473 65.2259 57.5696 65.4403 57.5696 65.6903C57.5696 65.9432 57.473 66.1605 57.2798 66.3423C57.0895 66.5213 56.8594 66.6108 56.5895 66.6108ZM60.7624 70.2159V74H58.9471V67.4545H60.6772V68.6094H60.7539C60.8988 68.2287 61.1417 67.9276 61.4826 67.706C61.8235 67.4815 62.2369 67.3693 62.7227 67.3693C63.1772 67.3693 63.5735 67.4688 63.9116 67.6676C64.2496 67.8665 64.5124 68.1506 64.6999 68.5199C64.8874 68.8864 64.9812 69.3239 64.9812 69.8324V74H63.1658V70.1562C63.1687 69.7557 63.0664 69.4432 62.859 69.2188C62.6516 68.9915 62.3661 68.8778 62.0025 68.8778C61.7582 68.8778 61.5423 68.9304 61.3548 69.0355C61.1701 69.1406 61.0252 69.294 60.9201 69.4957C60.8178 69.6946 60.7653 69.9347 60.7624 70.2159ZM69.8935 67.4545V68.8182H65.9517V67.4545H69.8935ZM66.8466 65.8864H68.6619V71.9886C68.6619 72.1562 68.6875 72.2869 68.7386 72.3807C68.7898 72.4716 68.8608 72.5355 68.9517 72.5724C69.0455 72.6094 69.1534 72.6278 69.2756 72.6278C69.3608 72.6278 69.446 72.6207 69.5312 72.6065C69.6165 72.5895 69.6818 72.5767 69.7273 72.5682L70.0128 73.919C69.9219 73.9474 69.794 73.9801 69.6293 74.017C69.4645 74.0568 69.2642 74.081 69.0284 74.0895C68.5909 74.1065 68.2074 74.0483 67.8778 73.9148C67.5511 73.7812 67.2969 73.5739 67.1151 73.2926C66.9332 73.0114 66.8438 72.6562 66.8466 72.2273V65.8864ZM73.8533 74V67.4545H75.6687V74H73.8533ZM74.7653 66.6108C74.4954 66.6108 74.2638 66.5213 74.0707 66.3423C73.8803 66.1605 73.7852 65.9432 73.7852 65.6903C73.7852 65.4403 73.8803 65.2259 74.0707 65.0469C74.2638 64.8651 74.4954 64.7741 74.7653 64.7741C75.0352 64.7741 75.2653 64.8651 75.4556 65.0469C75.6488 65.2259 75.7454 65.4403 75.7454 65.6903C75.7454 65.9432 75.6488 66.1605 75.4556 66.3423C75.2653 66.5213 75.0352 66.6108 74.7653 66.6108ZM78.9382 70.2159V74H77.1229V67.4545H78.853V68.6094H78.9297C79.0746 68.2287 79.3175 67.9276 79.6584 67.706C79.9993 67.4815 80.4126 67.3693 80.8984 67.3693C81.353 67.3693 81.7493 67.4688 82.0874 67.6676C82.4254 67.8665 82.6882 68.1506 82.8757 68.5199C83.0632 68.8864 83.157 69.3239 83.157 69.8324V74H81.3416V70.1562C81.3445 69.7557 81.2422 69.4432 81.0348 69.2188C80.8274 68.9915 80.5419 68.8778 80.1783 68.8778C79.9339 68.8778 79.718 68.9304 79.5305 69.0355C79.3459 69.1406 79.201 69.294 79.0959 69.4957C78.9936 69.6946 78.9411 69.9347 78.9382 70.2159ZM89.777 74.1065C89.2798 74.1065 88.8295 73.9787 88.4261 73.723C88.0256 73.4645 87.7074 73.0852 87.4716 72.5852C87.2386 72.0824 87.1222 71.4659 87.1222 70.7358C87.1222 69.9858 87.2429 69.3622 87.4844 68.8651C87.7259 68.3651 88.0469 67.9915 88.4474 67.7443C88.8509 67.4943 89.2926 67.3693 89.7727 67.3693C90.1392 67.3693 90.4446 67.4318 90.6889 67.5568C90.9361 67.679 91.1349 67.8324 91.2855 68.017C91.4389 68.1989 91.5554 68.3778 91.6349 68.554H91.6903V65.2727H93.5014V74H91.7116V72.9517H91.6349C91.5497 73.1335 91.429 73.3139 91.2727 73.4929C91.1193 73.669 90.919 73.8153 90.6719 73.9318C90.4276 74.0483 90.1293 74.1065 89.777 74.1065ZM90.3523 72.6619C90.6449 72.6619 90.892 72.5824 91.0938 72.4233C91.2983 72.2614 91.4545 72.0355 91.5625 71.7457C91.6733 71.456 91.7287 71.1165 91.7287 70.7273C91.7287 70.3381 91.6747 70 91.5668 69.7131C91.4588 69.4261 91.3026 69.2045 91.098 69.0483C90.8935 68.892 90.6449 68.8139 90.3523 68.8139C90.054 68.8139 89.8026 68.8949 89.598 69.0568C89.3935 69.2187 89.2386 69.4432 89.1335 69.7301C89.0284 70.017 88.9759 70.3494 88.9759 70.7273C88.9759 71.108 89.0284 71.4446 89.1335 71.7372C89.2415 72.027 89.3963 72.2543 89.598 72.419C89.8026 72.581 90.054 72.6619 90.3523 72.6619ZM94.994 74V67.4545H96.8093V74H94.994ZM95.9059 66.6108C95.636 66.6108 95.4045 66.5213 95.2113 66.3423C95.021 66.1605 94.9258 65.9432 94.9258 65.6903C94.9258 65.4403 95.021 65.2259 95.2113 65.0469C95.4045 64.8651 95.636 64.7741 95.9059 64.7741C96.1758 64.7741 96.4059 64.8651 96.5962 65.0469C96.7894 65.2259 96.886 65.4403 96.886 65.6903C96.886 65.9432 96.7894 66.1605 96.5962 66.3423C96.4059 66.5213 96.1758 66.6108 95.9059 66.6108ZM98.2635 74V67.4545H100.023V68.5966H100.092C100.211 68.1903 100.411 67.8835 100.692 67.6761C100.974 67.4659 101.298 67.3608 101.664 67.3608C101.755 67.3608 101.853 67.3665 101.958 67.3778C102.063 67.3892 102.156 67.4048 102.235 67.4247V69.0355C102.15 69.0099 102.032 68.9872 101.881 68.9673C101.731 68.9474 101.593 68.9375 101.468 68.9375C101.201 68.9375 100.962 68.9957 100.752 69.1122C100.545 69.2259 100.38 69.3849 100.258 69.5895C100.138 69.794 100.079 70.0298 100.079 70.2969V74H98.2635ZM105.852 74.1278C105.179 74.1278 104.599 73.9915 104.113 73.7188C103.63 73.4432 103.258 73.054 102.997 72.5511C102.735 72.0455 102.605 71.4474 102.605 70.7571C102.605 70.0838 102.735 69.4929 102.997 68.9844C103.258 68.4759 103.626 68.0795 104.1 67.7955C104.578 67.5114 105.137 67.3693 105.779 67.3693C106.211 67.3693 106.613 67.4389 106.985 67.5781C107.36 67.7145 107.687 67.9205 107.966 68.196C108.247 68.4716 108.466 68.8182 108.622 69.2358C108.778 69.6506 108.856 70.1364 108.856 70.6932V71.1918H103.329V70.0668H107.147C107.147 69.8054 107.091 69.5739 106.977 69.3722C106.863 69.1705 106.706 69.0128 106.504 68.8991C106.305 68.7827 106.074 68.7244 105.809 68.7244C105.534 68.7244 105.289 68.7884 105.076 68.9162C104.866 69.0412 104.701 69.2102 104.582 69.4233C104.463 69.6335 104.402 69.8679 104.399 70.1264V71.196C104.399 71.5199 104.458 71.7997 104.578 72.0355C104.7 72.2713 104.872 72.4531 105.093 72.581C105.315 72.7088 105.578 72.7727 105.882 72.7727C106.083 72.7727 106.268 72.7443 106.436 72.6875C106.603 72.6307 106.747 72.5455 106.866 72.4318C106.985 72.3182 107.076 72.179 107.139 72.0142L108.818 72.125C108.733 72.5284 108.558 72.8807 108.294 73.1818C108.032 73.4801 107.694 73.7131 107.279 73.8807C106.868 74.0455 106.392 74.1278 105.852 74.1278ZM112.998 74.1278C112.328 74.1278 111.751 73.9858 111.268 73.7017C110.788 73.4148 110.419 73.017 110.16 72.5085C109.904 72 109.777 71.4148 109.777 70.7528C109.777 70.0824 109.906 69.4943 110.164 68.9886C110.426 68.4801 110.797 68.0838 111.277 67.7997C111.757 67.5128 112.328 67.3693 112.99 67.3693C113.561 67.3693 114.061 67.473 114.49 67.6804C114.919 67.8878 115.258 68.179 115.508 68.554C115.758 68.929 115.896 69.3693 115.922 69.875H114.208C114.16 69.5483 114.032 69.2855 113.825 69.0866C113.62 68.8849 113.352 68.7841 113.02 68.7841C112.738 68.7841 112.493 68.8608 112.282 69.0142C112.075 69.1648 111.913 69.3849 111.797 69.6747C111.68 69.9645 111.622 70.3153 111.622 70.7273C111.622 71.1449 111.679 71.5 111.792 71.7926C111.909 72.0852 112.072 72.3082 112.282 72.4616C112.493 72.6151 112.738 72.6918 113.02 72.6918C113.227 72.6918 113.413 72.6491 113.578 72.5639C113.745 72.4787 113.883 72.3551 113.991 72.1932C114.102 72.0284 114.174 71.831 114.208 71.6009H115.922C115.893 72.1009 115.757 72.5412 115.512 72.9219C115.271 73.2997 114.937 73.5952 114.511 73.8082C114.085 74.0213 113.581 74.1278 112.998 74.1278ZM120.565 67.4545V68.8182H116.624V67.4545H120.565ZM117.518 65.8864H119.334V71.9886C119.334 72.1562 119.359 72.2869 119.411 72.3807C119.462 72.4716 119.533 72.5355 119.624 72.5724C119.717 72.6094 119.825 72.6278 119.947 72.6278C120.033 72.6278 120.118 72.6207 120.203 72.6065C120.288 72.5895 120.354 72.5767 120.399 72.5682L120.685 73.919C120.594 73.9474 120.466 73.9801 120.301 74.017C120.136 74.0568 119.936 74.081 119.7 74.0895C119.263 74.1065 118.879 74.0483 118.55 73.9148C118.223 73.7812 117.969 73.5739 117.787 73.2926C117.605 73.0114 117.516 72.6562 117.518 72.2273V65.8864ZM121.748 74V67.4545H123.563V74H121.748ZM122.66 66.6108C122.39 66.6108 122.158 66.5213 121.965 66.3423C121.775 66.1605 121.68 65.9432 121.68 65.6903C121.68 65.4403 121.775 65.2259 121.965 65.0469C122.158 64.8651 122.39 64.7741 122.66 64.7741C122.93 64.7741 123.16 64.8651 123.35 65.0469C123.543 65.2259 123.64 65.4403 123.64 65.6903C123.64 65.9432 123.543 66.1605 123.35 66.3423C123.16 66.5213 122.93 66.6108 122.66 66.6108ZM127.975 74.1278C127.313 74.1278 126.74 73.9872 126.257 73.706C125.777 73.4219 125.407 73.027 125.145 72.5213C124.884 72.0128 124.753 71.4233 124.753 70.7528C124.753 70.0767 124.884 69.4858 125.145 68.9801C125.407 68.4716 125.777 68.0767 126.257 67.7955C126.74 67.5114 127.313 67.3693 127.975 67.3693C128.637 67.3693 129.208 67.5114 129.688 67.7955C130.171 68.0767 130.543 68.4716 130.804 68.9801C131.066 69.4858 131.196 70.0767 131.196 70.7528C131.196 71.4233 131.066 72.0128 130.804 72.5213C130.543 73.027 130.171 73.4219 129.688 73.706C129.208 73.9872 128.637 74.1278 127.975 74.1278ZM127.983 72.7216C128.284 72.7216 128.536 72.6364 128.738 72.4659C128.939 72.2926 129.091 72.0568 129.194 71.7585C129.299 71.4602 129.351 71.1207 129.351 70.7401C129.351 70.3594 129.299 70.0199 129.194 69.7216C129.091 69.4233 128.939 69.1875 128.738 69.0142C128.536 68.8409 128.284 68.7543 127.983 68.7543C127.679 68.7543 127.424 68.8409 127.216 69.0142C127.012 69.1875 126.857 69.4233 126.752 69.7216C126.65 70.0199 126.598 70.3594 126.598 70.7401C126.598 71.1207 126.65 71.4602 126.752 71.7585C126.857 72.0568 127.012 72.2926 127.216 72.4659C127.424 72.6364 127.679 72.7216 127.983 72.7216ZM134.192 70.2159V74H132.377V67.4545H134.107V68.6094H134.184C134.328 68.2287 134.571 67.9276 134.912 67.706C135.253 67.4815 135.667 67.3693 136.152 67.3693C136.607 67.3693 137.003 67.4688 137.341 67.6676C137.679 67.8665 137.942 68.1506 138.13 68.5199C138.317 68.8864 138.411 69.3239 138.411 69.8324V74H136.596V70.1562C136.598 69.7557 136.496 69.4432 136.289 69.2188C136.081 68.9915 135.796 68.8778 135.432 68.8778C135.188 68.8778 134.972 68.9304 134.784 69.0355C134.6 69.1406 134.455 69.294 134.35 69.4957C134.248 69.6946 134.195 69.9347 134.192 70.2159Z" fill="white"/>
</g>
</g>
</svg>
