<svg width="253" height="186" viewBox="0 0 253 186" fill="none" xmlns="http://www.w3.org/2000/svg">
<g id="turn_clockwise">
<g id="block_shape">
<rect id="next_block_arrowbody" x="116" y="109" width="22" height="22" fill="#42A5F5"/>
<path id="next_block_arrowhead" d="M126.5 165L152.048 130.5H100.952L126.5 165Z" fill="#42A5F5"/>
<g id="prev_block_connector">
<path d="M126.5 50H101V16H101.322L126.5 50Z" fill="#42A5F5"/>
<path d="M152 50H126.5L151.678 16H152V50Z" fill="#42A5F5"/>
</g>
<path id="block_body" d="M13 66.5421C13 57.4061 26.0314 50 42.1064 50H211.894C227.969 50 241 57.4061 241 66.5421V92.4579C241 101.594 227.969 109 211.894 109H42.1064C26.0314 109 13 101.594 13 92.4579V66.5421Z" fill="#42A5F5"/>
</g>
<g id="block_input">
<rect id="input_constant" x="87" y="68" width="77" height="24" rx="10" fill="white"/>
<path id="turn_text" d="M44.206 78.4545V79.8182H40.2642V78.4545H44.206ZM41.1591 76.8864H42.9744V82.9886C42.9744 83.1562 43 83.2869 43.0511 83.3807C43.1023 83.4716 43.1733 83.5355 43.2642 83.5724C43.358 83.6094 43.4659 83.6278 43.5881 83.6278C43.6733 83.6278 43.7585 83.6207 43.8438 83.6065C43.929 83.5895 43.9943 83.5767 44.0398 83.5682L44.3253 84.919C44.2344 84.9474 44.1065 84.9801 43.9418 85.017C43.777 85.0568 43.5767 85.081 43.3409 85.0895C42.9034 85.1065 42.5199 85.0483 42.1903 84.9148C41.8636 84.7812 41.6094 84.5739 41.4276 84.2926C41.2457 84.0114 41.1563 83.6562 41.1591 83.2273V76.8864ZM49.5859 82.2131V78.4545H51.4013V85H49.6584V83.8111H49.5902C49.4425 84.1946 49.1967 84.5028 48.853 84.7358C48.5121 84.9687 48.0959 85.0852 47.6044 85.0852C47.1669 85.0852 46.782 84.9858 46.4496 84.7869C46.1172 84.5881 45.8572 84.3054 45.6697 83.9389C45.4851 83.5724 45.3913 83.1335 45.3885 82.6222V78.4545H47.2038V82.2983C47.2067 82.6847 47.3104 82.9901 47.5149 83.2145C47.7195 83.4389 47.9936 83.5511 48.3374 83.5511C48.5561 83.5511 48.7607 83.5014 48.951 83.402C49.1413 83.2997 49.2947 83.1491 49.4112 82.9503C49.5305 82.7514 49.5888 82.5057 49.5859 82.2131ZM52.8533 85V78.4545H54.6133V79.5966H54.6815C54.8008 79.1903 55.0011 78.8835 55.2823 78.6761C55.5636 78.4659 55.8874 78.3608 56.2539 78.3608C56.3448 78.3608 56.4428 78.3665 56.5479 78.3778C56.6531 78.3892 56.7454 78.4048 56.8249 78.4247V80.0355C56.7397 80.0099 56.6218 79.9872 56.4712 79.9673C56.3207 79.9474 56.1829 79.9375 56.0579 79.9375C55.7908 79.9375 55.5522 79.9957 55.342 80.1122C55.1346 80.2259 54.9698 80.3849 54.8477 80.5895C54.7283 80.794 54.6687 81.0298 54.6687 81.2969V85H52.8533ZM59.5788 81.2159V85H57.7635V78.4545H59.4936V79.6094H59.5703C59.7152 79.2287 59.9581 78.9276 60.299 78.706C60.6399 78.4815 61.0533 78.3693 61.5391 78.3693C61.9936 78.3693 62.3899 78.4688 62.728 78.6676C63.0661 78.8665 63.3288 79.1506 63.5163 79.5199C63.7038 79.8864 63.7976 80.3239 63.7976 80.8324V85H61.9822V81.1562C61.9851 80.7557 61.8828 80.4432 61.6754 80.2188C61.468 79.9915 61.1825 79.8778 60.8189 79.8778C60.5746 79.8778 60.3587 79.9304 60.1712 80.0355C59.9865 80.1406 59.8416 80.294 59.7365 80.4957C59.6342 80.6946 59.5817 80.9347 59.5788 81.2159ZM73.0085 85C72.4034 85 71.8366 84.8878 71.3082 84.6634C70.7827 84.4361 70.3196 84.1222 69.919 83.7216C69.5185 83.321 69.206 82.858 68.9815 82.3324C68.7571 81.804 68.6449 81.2386 68.6449 80.6364C68.6449 80.0341 68.7571 79.4702 68.9815 78.9446C69.2088 78.4162 69.5213 77.9517 69.919 77.5511C70.3196 77.1506 70.7827 76.8381 71.3082 76.6136C71.8366 76.3864 72.4034 76.2727 73.0085 76.2727V77.7131C72.6051 77.7131 72.2259 77.7884 71.8707 77.9389C71.5185 78.0895 71.2088 78.2997 70.9418 78.5696C70.6747 78.8366 70.4645 79.1477 70.3111 79.5028C70.1605 79.8551 70.0852 80.233 70.0852 80.6364C70.0852 81.0426 70.1591 81.4219 70.3068 81.7741C70.4574 82.1264 70.6662 82.4375 70.9332 82.7074C71.2031 82.9744 71.5142 83.1832 71.8665 83.3338C72.2216 83.4844 72.6023 83.5597 73.0085 83.5597C73.4119 83.5597 73.7898 83.4844 74.142 83.3338C74.4972 83.1832 74.8082 82.9744 75.0753 82.7074C75.3452 82.4375 75.5554 82.1264 75.706 81.7741C75.8565 81.419 75.9318 81.0398 75.9318 80.6364H77.3722C77.3722 81.2386 77.2585 81.804 77.0312 82.3324C76.8068 82.858 76.4943 83.321 76.0938 83.7216C75.6932 84.1222 75.2287 84.4361 74.7003 84.6634C74.1747 84.8878 73.6108 85 73.0085 85ZM72.8168 79.946V74.1676L75.7571 77.0568L72.8168 79.946Z" fill="white"/>
<path id="degrees_text" d="M172.136 85.1065C171.639 85.1065 171.189 84.9787 170.786 84.723C170.385 84.4645 170.067 84.0852 169.831 83.5852C169.598 83.0824 169.482 82.4659 169.482 81.7358C169.482 80.9858 169.602 80.3622 169.844 79.8651C170.085 79.3651 170.406 78.9915 170.807 78.7443C171.21 78.4943 171.652 78.3693 172.132 78.3693C172.499 78.3693 172.804 78.4318 173.048 78.5568C173.295 78.679 173.494 78.8324 173.645 79.017C173.798 79.1989 173.915 79.3778 173.994 79.554H174.05V76.2727H175.861V85H174.071V83.9517H173.994C173.909 84.1335 173.788 84.3139 173.632 84.4929C173.479 84.669 173.278 84.8153 173.031 84.9318C172.787 85.0483 172.489 85.1065 172.136 85.1065ZM172.712 83.6619C173.004 83.6619 173.251 83.5824 173.453 83.4233C173.658 83.2614 173.814 83.0355 173.922 82.7457C174.033 82.456 174.088 82.1165 174.088 81.7273C174.088 81.3381 174.034 81 173.926 80.7131C173.818 80.4261 173.662 80.2045 173.457 80.0483C173.253 79.892 173.004 79.8139 172.712 79.8139C172.413 79.8139 172.162 79.8949 171.957 80.0568C171.753 80.2187 171.598 80.4432 171.493 80.7301C171.388 81.017 171.335 81.3494 171.335 81.7273C171.335 82.108 171.388 82.4446 171.493 82.7372C171.601 83.027 171.756 83.2543 171.957 83.419C172.162 83.581 172.413 83.6619 172.712 83.6619ZM180.336 85.1278C179.663 85.1278 179.083 84.9915 178.598 84.7188C178.115 84.4432 177.743 84.054 177.481 83.5511C177.22 83.0455 177.089 82.4474 177.089 81.7571C177.089 81.0838 177.22 80.4929 177.481 79.9844C177.743 79.4759 178.11 79.0795 178.585 78.7955C179.062 78.5114 179.622 78.3693 180.264 78.3693C180.696 78.3693 181.098 78.4389 181.47 78.5781C181.845 78.7145 182.172 78.9205 182.45 79.196C182.731 79.4716 182.95 79.8182 183.106 80.2358C183.262 80.6506 183.341 81.1364 183.341 81.6932V82.1918H177.814V81.0668H181.632C181.632 80.8054 181.575 80.5739 181.461 80.3722C181.348 80.1705 181.19 80.0128 180.988 79.8991C180.789 79.7827 180.558 79.7244 180.294 79.7244C180.018 79.7244 179.774 79.7884 179.561 79.9162C179.35 80.0412 179.186 80.2102 179.066 80.4233C178.947 80.6335 178.886 80.8679 178.883 81.1264V82.196C178.883 82.5199 178.943 82.7997 179.062 83.0355C179.184 83.2713 179.356 83.4531 179.578 83.581C179.799 83.7088 180.062 83.7727 180.366 83.7727C180.568 83.7727 180.752 83.7443 180.92 83.6875C181.088 83.6307 181.231 83.5455 181.35 83.4318C181.47 83.3182 181.561 83.179 181.623 83.0142L183.302 83.125C183.217 83.5284 183.042 83.8807 182.778 84.1818C182.517 84.4801 182.179 84.7131 181.764 84.8807C181.352 85.0455 180.876 85.1278 180.336 85.1278ZM187.474 87.5909C186.886 87.5909 186.382 87.5099 185.961 87.348C185.544 87.1889 185.211 86.9716 184.964 86.696C184.717 86.4205 184.556 86.1108 184.483 85.767L186.162 85.5412C186.213 85.6719 186.294 85.794 186.404 85.9077C186.515 86.0213 186.662 86.1122 186.843 86.1804C187.028 86.2514 187.252 86.2869 187.517 86.2869C187.912 86.2869 188.237 86.1903 188.493 85.9972C188.751 85.8068 188.88 85.4872 188.88 85.0384V83.8409H188.804C188.724 84.0227 188.605 84.1946 188.446 84.3565C188.287 84.5185 188.082 84.6506 187.832 84.7528C187.582 84.8551 187.284 84.9062 186.937 84.9062C186.446 84.9062 185.998 84.7926 185.595 84.5653C185.194 84.3352 184.875 83.9844 184.636 83.5128C184.4 83.0384 184.282 82.4389 184.282 81.7145C184.282 80.973 184.403 80.3537 184.645 79.8565C184.886 79.3594 185.207 78.9872 185.608 78.7401C186.011 78.4929 186.453 78.3693 186.933 78.3693C187.299 78.3693 187.606 78.4318 187.853 78.5568C188.1 78.679 188.299 78.8324 188.45 79.017C188.603 79.1989 188.721 79.3778 188.804 79.554H188.872V78.4545H190.674V85.0639C190.674 85.6207 190.538 86.0866 190.265 86.4616C189.993 86.8366 189.615 87.1179 189.132 87.3054C188.652 87.4957 188.099 87.5909 187.474 87.5909ZM187.512 83.5426C187.805 83.5426 188.052 83.4702 188.254 83.3253C188.458 83.1776 188.615 82.9673 188.723 82.6946C188.833 82.419 188.889 82.0895 188.889 81.706C188.889 81.3224 188.835 80.9901 188.727 80.7088C188.619 80.4247 188.463 80.2045 188.258 80.0483C188.054 79.892 187.805 79.8139 187.512 79.8139C187.214 79.8139 186.963 79.8949 186.758 80.0568C186.554 80.2159 186.399 80.4375 186.294 80.7216C186.189 81.0057 186.136 81.3338 186.136 81.706C186.136 82.0838 186.189 82.4105 186.294 82.6861C186.402 82.9588 186.556 83.1705 186.758 83.321C186.963 83.4687 187.214 83.5426 187.512 83.5426ZM192.119 85V78.4545H193.879V79.5966H193.947C194.066 79.1903 194.267 78.8835 194.548 78.6761C194.829 78.4659 195.153 78.3608 195.52 78.3608C195.61 78.3608 195.708 78.3665 195.814 78.3778C195.919 78.3892 196.011 78.4048 196.091 78.4247V80.0355C196.005 80.0099 195.887 79.9872 195.737 79.9673C195.586 79.9474 195.449 79.9375 195.324 79.9375C195.056 79.9375 194.818 79.9957 194.608 80.1122C194.4 80.2259 194.235 80.3849 194.113 80.5895C193.994 80.794 193.934 81.0298 193.934 81.2969V85H192.119ZM199.707 85.1278C199.034 85.1278 198.455 84.9915 197.969 84.7188C197.486 84.4432 197.114 84.054 196.852 83.5511C196.591 83.0455 196.46 82.4474 196.46 81.7571C196.46 81.0838 196.591 80.4929 196.852 79.9844C197.114 79.4759 197.482 79.0795 197.956 78.7955C198.433 78.5114 198.993 78.3693 199.635 78.3693C200.067 78.3693 200.469 78.4389 200.841 78.5781C201.216 78.7145 201.543 78.9205 201.821 79.196C202.102 79.4716 202.321 79.8182 202.477 80.2358C202.634 80.6506 202.712 81.1364 202.712 81.6932V82.1918H197.185V81.0668H201.003C201.003 80.8054 200.946 80.5739 200.832 80.3722C200.719 80.1705 200.561 80.0128 200.359 79.8991C200.161 79.7827 199.929 79.7244 199.665 79.7244C199.389 79.7244 199.145 79.7884 198.932 79.9162C198.722 80.0412 198.557 80.2102 198.438 80.4233C198.318 80.6335 198.257 80.8679 198.254 81.1264V82.196C198.254 82.5199 198.314 82.7997 198.433 83.0355C198.555 83.2713 198.727 83.4531 198.949 83.581C199.17 83.7088 199.433 83.7727 199.737 83.7727C199.939 83.7727 200.124 83.7443 200.291 83.6875C200.459 83.6307 200.602 83.5455 200.722 83.4318C200.841 83.3182 200.932 83.179 200.994 83.0142L202.673 83.125C202.588 83.5284 202.413 83.8807 202.149 84.1818C201.888 84.4801 201.55 84.7131 201.135 84.8807C200.723 85.0455 200.247 85.1278 199.707 85.1278ZM206.879 85.1278C206.206 85.1278 205.626 84.9915 205.141 84.7188C204.658 84.4432 204.286 84.054 204.024 83.5511C203.763 83.0455 203.632 82.4474 203.632 81.7571C203.632 81.0838 203.763 80.4929 204.024 79.9844C204.286 79.4759 204.653 79.0795 205.128 78.7955C205.605 78.5114 206.165 78.3693 206.807 78.3693C207.239 78.3693 207.641 78.4389 208.013 78.5781C208.388 78.7145 208.714 78.9205 208.993 79.196C209.274 79.4716 209.493 79.8182 209.649 80.2358C209.805 80.6506 209.884 81.1364 209.884 81.6932V82.1918H204.357V81.0668H208.175C208.175 80.8054 208.118 80.5739 208.004 80.3722C207.891 80.1705 207.733 80.0128 207.531 79.8991C207.332 79.7827 207.101 79.7244 206.837 79.7244C206.561 79.7244 206.317 79.7884 206.104 79.9162C205.893 80.0412 205.729 80.2102 205.609 80.4233C205.49 80.6335 205.429 80.8679 205.426 81.1264V82.196C205.426 82.5199 205.486 82.7997 205.605 83.0355C205.727 83.2713 205.899 83.4531 206.121 83.581C206.342 83.7088 206.605 83.7727 206.909 83.7727C207.111 83.7727 207.295 83.7443 207.463 83.6875C207.631 83.6307 207.774 83.5455 207.893 83.4318C208.013 83.3182 208.104 83.179 208.166 83.0142L209.845 83.125C209.76 83.5284 209.585 83.8807 209.321 84.1818C209.06 84.4801 208.722 84.7131 208.307 84.8807C207.895 85.0455 207.419 85.1278 206.879 85.1278ZM216.514 80.321L214.852 80.4233C214.824 80.2812 214.763 80.1534 214.669 80.0398C214.575 79.9233 214.452 79.831 214.298 79.7628C214.148 79.6918 213.967 79.6562 213.757 79.6562C213.476 79.6562 213.239 79.7159 213.045 79.8352C212.852 79.9517 212.756 80.108 212.756 80.304C212.756 80.4602 212.818 80.5923 212.943 80.7003C213.068 80.8082 213.283 80.8949 213.587 80.9602L214.771 81.1989C215.408 81.3295 215.882 81.5398 216.195 81.8295C216.507 82.1193 216.663 82.5 216.663 82.9716C216.663 83.4006 216.537 83.777 216.284 84.1009C216.034 84.4247 215.69 84.6776 215.253 84.8594C214.818 85.0384 214.317 85.1278 213.749 85.1278C212.882 85.1278 212.192 84.9474 211.678 84.5866C211.166 84.223 210.866 83.7287 210.778 83.1037L212.564 83.0099C212.618 83.2741 212.749 83.4759 212.956 83.6151C213.163 83.7514 213.429 83.8196 213.753 83.8196C214.071 83.8196 214.327 83.7585 214.52 83.6364C214.716 83.5114 214.815 83.3509 214.818 83.1548C214.815 82.9901 214.746 82.8551 214.609 82.75C214.473 82.642 214.263 82.5597 213.979 82.5028L212.845 82.277C212.206 82.1491 211.73 81.9276 211.418 81.6122C211.108 81.2969 210.953 80.8949 210.953 80.4062C210.953 79.9858 211.067 79.6236 211.294 79.3196C211.524 79.0156 211.847 78.7812 212.261 78.6165C212.679 78.4517 213.168 78.3693 213.727 78.3693C214.554 78.3693 215.205 78.544 215.679 78.8935C216.156 79.2429 216.435 79.7187 216.514 80.321Z" fill="white"/>
</g>
</g>
</svg>
