<svg width="704" height="492" viewBox="0 0 704 492" fill="none" xmlns="http://www.w3.org/2000/svg">
<g id="if_else">
<g id="block_shape">
<g id="false_block_arrow">
<path id="false_block_arrowbody" d="M264 131H242V158H264V131Z" fill="#F0B43B"/>
<path id="false_block_arrowhead" d="M252.548 192.5L278.096 158H227L252.548 192.5Z" fill="#F0B43B"/>
<g id="false_text">
<mask id="path-3-outside-1_3_98" maskUnits="userSpaceOnUse" x="238" y="160" width="31" height="13" fill="black">
<rect fill="white" x="238" y="160" width="31" height="13"/>
<path d="M243.244 164.455V165.818H239.205V164.455H243.244ZM240.129 171V163.982C240.129 163.507 240.222 163.114 240.406 162.801C240.594 162.489 240.849 162.254 241.173 162.098C241.497 161.942 241.865 161.864 242.277 161.864C242.555 161.864 242.81 161.885 243.04 161.928C243.273 161.97 243.446 162.009 243.56 162.043L243.236 163.406C243.165 163.384 243.077 163.362 242.972 163.342C242.869 163.322 242.764 163.312 242.656 163.312C242.389 163.312 242.203 163.375 242.098 163.5C241.993 163.622 241.94 163.794 241.94 164.016V171H240.129ZM245.985 171.124C245.568 171.124 245.196 171.051 244.869 170.906C244.542 170.759 244.284 170.541 244.093 170.254C243.906 169.964 243.812 169.604 243.812 169.172C243.812 168.808 243.879 168.503 244.012 168.256C244.146 168.009 244.328 167.81 244.558 167.659C244.788 167.509 245.049 167.395 245.342 167.318C245.637 167.241 245.947 167.188 246.271 167.156C246.652 167.116 246.958 167.08 247.191 167.045C247.424 167.009 247.593 166.955 247.699 166.884C247.804 166.812 247.856 166.707 247.856 166.568V166.543C247.856 166.273 247.771 166.064 247.6 165.916C247.433 165.768 247.194 165.695 246.885 165.695C246.558 165.695 246.298 165.767 246.105 165.912C245.912 166.054 245.784 166.233 245.721 166.449L244.042 166.312C244.127 165.915 244.295 165.571 244.545 165.281C244.795 164.989 245.118 164.764 245.512 164.608C245.91 164.449 246.37 164.369 246.893 164.369C247.257 164.369 247.605 164.412 247.937 164.497C248.272 164.582 248.569 164.714 248.828 164.893C249.089 165.072 249.295 165.303 249.446 165.584C249.596 165.862 249.672 166.196 249.672 166.585V171H247.95V170.092H247.899C247.794 170.297 247.653 170.477 247.477 170.634C247.301 170.787 247.089 170.908 246.842 170.996C246.595 171.081 246.309 171.124 245.985 171.124ZM246.505 169.871C246.772 169.871 247.008 169.818 247.213 169.713C247.417 169.605 247.578 169.46 247.694 169.278C247.811 169.097 247.869 168.891 247.869 168.661V167.966C247.812 168.003 247.734 168.037 247.635 168.068C247.538 168.097 247.429 168.124 247.306 168.149C247.184 168.172 247.062 168.193 246.94 168.213C246.818 168.23 246.707 168.246 246.608 168.26C246.395 168.291 246.208 168.341 246.049 168.409C245.89 168.477 245.767 168.57 245.679 168.686C245.591 168.8 245.547 168.942 245.547 169.112C245.547 169.359 245.636 169.548 245.815 169.679C245.997 169.807 246.227 169.871 246.505 169.871ZM252.895 162.273V171H251.08V162.273H252.895ZM259.795 166.321L258.134 166.423C258.105 166.281 258.044 166.153 257.95 166.04C257.857 165.923 257.733 165.831 257.58 165.763C257.429 165.692 257.249 165.656 257.038 165.656C256.757 165.656 256.52 165.716 256.327 165.835C256.134 165.952 256.037 166.108 256.037 166.304C256.037 166.46 256.099 166.592 256.224 166.7C256.349 166.808 256.564 166.895 256.868 166.96L258.053 167.199C258.689 167.33 259.163 167.54 259.476 167.83C259.788 168.119 259.945 168.5 259.945 168.972C259.945 169.401 259.818 169.777 259.565 170.101C259.315 170.425 258.972 170.678 258.534 170.859C258.099 171.038 257.598 171.128 257.03 171.128C256.163 171.128 255.473 170.947 254.959 170.587C254.447 170.223 254.148 169.729 254.06 169.104L255.845 169.01C255.899 169.274 256.03 169.476 256.237 169.615C256.445 169.751 256.71 169.82 257.034 169.82C257.352 169.82 257.608 169.759 257.801 169.636C257.997 169.511 258.097 169.351 258.099 169.155C258.097 168.99 258.027 168.855 257.891 168.75C257.754 168.642 257.544 168.56 257.26 168.503L256.126 168.277C255.487 168.149 255.011 167.928 254.699 167.612C254.389 167.297 254.234 166.895 254.234 166.406C254.234 165.986 254.348 165.624 254.575 165.32C254.805 165.016 255.128 164.781 255.543 164.616C255.96 164.452 256.449 164.369 257.009 164.369C257.835 164.369 258.486 164.544 258.96 164.893C259.438 165.243 259.716 165.719 259.795 166.321ZM264.071 171.128C263.397 171.128 262.818 170.991 262.332 170.719C261.849 170.443 261.477 170.054 261.216 169.551C260.954 169.045 260.824 168.447 260.824 167.757C260.824 167.084 260.954 166.493 261.216 165.984C261.477 165.476 261.845 165.08 262.319 164.795C262.797 164.511 263.356 164.369 263.998 164.369C264.43 164.369 264.832 164.439 265.204 164.578C265.579 164.714 265.906 164.92 266.184 165.196C266.466 165.472 266.684 165.818 266.841 166.236C266.997 166.651 267.075 167.136 267.075 167.693V168.192H261.548V167.067H265.366C265.366 166.805 265.309 166.574 265.196 166.372C265.082 166.17 264.924 166.013 264.723 165.899C264.524 165.783 264.292 165.724 264.028 165.724C263.752 165.724 263.508 165.788 263.295 165.916C263.085 166.041 262.92 166.21 262.801 166.423C262.681 166.634 262.62 166.868 262.618 167.126V168.196C262.618 168.52 262.677 168.8 262.797 169.036C262.919 169.271 263.091 169.453 263.312 169.581C263.534 169.709 263.797 169.773 264.1 169.773C264.302 169.773 264.487 169.744 264.654 169.688C264.822 169.631 264.966 169.545 265.085 169.432C265.204 169.318 265.295 169.179 265.358 169.014L267.037 169.125C266.951 169.528 266.777 169.881 266.512 170.182C266.251 170.48 265.913 170.713 265.498 170.881C265.086 171.045 264.61 171.128 264.071 171.128Z"/>
</mask>
<path d="M243.244 164.455V165.818H239.205V164.455H243.244ZM240.129 171V163.982C240.129 163.507 240.222 163.114 240.406 162.801C240.594 162.489 240.849 162.254 241.173 162.098C241.497 161.942 241.865 161.864 242.277 161.864C242.555 161.864 242.81 161.885 243.04 161.928C243.273 161.97 243.446 162.009 243.56 162.043L243.236 163.406C243.165 163.384 243.077 163.362 242.972 163.342C242.869 163.322 242.764 163.312 242.656 163.312C242.389 163.312 242.203 163.375 242.098 163.5C241.993 163.622 241.94 163.794 241.94 164.016V171H240.129ZM245.985 171.124C245.568 171.124 245.196 171.051 244.869 170.906C244.542 170.759 244.284 170.541 244.093 170.254C243.906 169.964 243.812 169.604 243.812 169.172C243.812 168.808 243.879 168.503 244.012 168.256C244.146 168.009 244.328 167.81 244.558 167.659C244.788 167.509 245.049 167.395 245.342 167.318C245.637 167.241 245.947 167.188 246.271 167.156C246.652 167.116 246.958 167.08 247.191 167.045C247.424 167.009 247.593 166.955 247.699 166.884C247.804 166.812 247.856 166.707 247.856 166.568V166.543C247.856 166.273 247.771 166.064 247.6 165.916C247.433 165.768 247.194 165.695 246.885 165.695C246.558 165.695 246.298 165.767 246.105 165.912C245.912 166.054 245.784 166.233 245.721 166.449L244.042 166.312C244.127 165.915 244.295 165.571 244.545 165.281C244.795 164.989 245.118 164.764 245.512 164.608C245.91 164.449 246.37 164.369 246.893 164.369C247.257 164.369 247.605 164.412 247.937 164.497C248.272 164.582 248.569 164.714 248.828 164.893C249.089 165.072 249.295 165.303 249.446 165.584C249.596 165.862 249.672 166.196 249.672 166.585V171H247.95V170.092H247.899C247.794 170.297 247.653 170.477 247.477 170.634C247.301 170.787 247.089 170.908 246.842 170.996C246.595 171.081 246.309 171.124 245.985 171.124ZM246.505 169.871C246.772 169.871 247.008 169.818 247.213 169.713C247.417 169.605 247.578 169.46 247.694 169.278C247.811 169.097 247.869 168.891 247.869 168.661V167.966C247.812 168.003 247.734 168.037 247.635 168.068C247.538 168.097 247.429 168.124 247.306 168.149C247.184 168.172 247.062 168.193 246.94 168.213C246.818 168.23 246.707 168.246 246.608 168.26C246.395 168.291 246.208 168.341 246.049 168.409C245.89 168.477 245.767 168.57 245.679 168.686C245.591 168.8 245.547 168.942 245.547 169.112C245.547 169.359 245.636 169.548 245.815 169.679C245.997 169.807 246.227 169.871 246.505 169.871ZM252.895 162.273V171H251.08V162.273H252.895ZM259.795 166.321L258.134 166.423C258.105 166.281 258.044 166.153 257.95 166.04C257.857 165.923 257.733 165.831 257.58 165.763C257.429 165.692 257.249 165.656 257.038 165.656C256.757 165.656 256.52 165.716 256.327 165.835C256.134 165.952 256.037 166.108 256.037 166.304C256.037 166.46 256.099 166.592 256.224 166.7C256.349 166.808 256.564 166.895 256.868 166.96L258.053 167.199C258.689 167.33 259.163 167.54 259.476 167.83C259.788 168.119 259.945 168.5 259.945 168.972C259.945 169.401 259.818 169.777 259.565 170.101C259.315 170.425 258.972 170.678 258.534 170.859C258.099 171.038 257.598 171.128 257.03 171.128C256.163 171.128 255.473 170.947 254.959 170.587C254.447 170.223 254.148 169.729 254.06 169.104L255.845 169.01C255.899 169.274 256.03 169.476 256.237 169.615C256.445 169.751 256.71 169.82 257.034 169.82C257.352 169.82 257.608 169.759 257.801 169.636C257.997 169.511 258.097 169.351 258.099 169.155C258.097 168.99 258.027 168.855 257.891 168.75C257.754 168.642 257.544 168.56 257.26 168.503L256.126 168.277C255.487 168.149 255.011 167.928 254.699 167.612C254.389 167.297 254.234 166.895 254.234 166.406C254.234 165.986 254.348 165.624 254.575 165.32C254.805 165.016 255.128 164.781 255.543 164.616C255.96 164.452 256.449 164.369 257.009 164.369C257.835 164.369 258.486 164.544 258.96 164.893C259.438 165.243 259.716 165.719 259.795 166.321ZM264.071 171.128C263.397 171.128 262.818 170.991 262.332 170.719C261.849 170.443 261.477 170.054 261.216 169.551C260.954 169.045 260.824 168.447 260.824 167.757C260.824 167.084 260.954 166.493 261.216 165.984C261.477 165.476 261.845 165.08 262.319 164.795C262.797 164.511 263.356 164.369 263.998 164.369C264.43 164.369 264.832 164.439 265.204 164.578C265.579 164.714 265.906 164.92 266.184 165.196C266.466 165.472 266.684 165.818 266.841 166.236C266.997 166.651 267.075 167.136 267.075 167.693V168.192H261.548V167.067H265.366C265.366 166.805 265.309 166.574 265.196 166.372C265.082 166.17 264.924 166.013 264.723 165.899C264.524 165.783 264.292 165.724 264.028 165.724C263.752 165.724 263.508 165.788 263.295 165.916C263.085 166.041 262.92 166.21 262.801 166.423C262.681 166.634 262.62 166.868 262.618 167.126V168.196C262.618 168.52 262.677 168.8 262.797 169.036C262.919 169.271 263.091 169.453 263.312 169.581C263.534 169.709 263.797 169.773 264.1 169.773C264.302 169.773 264.487 169.744 264.654 169.688C264.822 169.631 264.966 169.545 265.085 169.432C265.204 169.318 265.295 169.179 265.358 169.014L267.037 169.125C266.951 169.528 266.777 169.881 266.512 170.182C266.251 170.48 265.913 170.713 265.498 170.881C265.086 171.045 264.61 171.128 264.071 171.128Z" fill="white"/>
<path d="M243.244 164.455H244.244V163.455H243.244V164.455ZM243.244 165.818V166.818H244.244V165.818H243.244ZM239.205 165.818H238.205V166.818H239.205V165.818ZM239.205 164.455V163.455H238.205V164.455H239.205ZM240.129 171H239.129V172H240.129V171ZM240.406 162.801L239.549 162.287L239.545 162.292L240.406 162.801ZM241.173 162.098L240.739 161.197H240.739L241.173 162.098ZM243.04 161.928L242.858 162.911L242.86 162.911L243.04 161.928ZM243.56 162.043L244.533 162.274L244.751 161.356L243.847 161.085L243.56 162.043ZM243.236 163.406L242.931 164.359L243.959 164.688L244.209 163.637L243.236 163.406ZM242.972 163.342L242.781 164.324L242.786 164.325L242.972 163.342ZM242.098 163.5L242.856 164.152L242.863 164.144L242.098 163.5ZM241.94 171V172H242.94V171H241.94ZM243.244 164.455H242.244V165.818H243.244H244.244V164.455H243.244ZM243.244 165.818V164.818H239.205V165.818V166.818H243.244V165.818ZM239.205 165.818H240.205V164.455H239.205H238.205V165.818H239.205ZM239.205 164.455V165.455H243.244V164.455V163.455H239.205V164.455ZM240.129 171H241.129V163.982H240.129H239.129V171H240.129ZM240.129 163.982H241.129C241.129 163.632 241.197 163.428 241.267 163.31L240.406 162.801L239.545 162.292C239.246 162.799 239.129 163.382 239.129 163.982H240.129ZM240.406 162.801L241.264 163.316C241.352 163.168 241.462 163.069 241.608 162.999L241.173 162.098L240.739 161.197C240.237 161.44 239.835 161.809 239.549 162.287L240.406 162.801ZM241.173 162.098L241.608 162.999C241.778 162.917 241.994 162.864 242.277 162.864V161.864V160.864C241.737 160.864 241.217 160.967 240.739 161.197L241.173 162.098ZM242.277 161.864V162.864C242.505 162.864 242.698 162.881 242.858 162.911L243.04 161.928L243.222 160.944C242.922 160.889 242.605 160.864 242.277 160.864V161.864ZM243.04 161.928L242.86 162.911C243.085 162.952 243.214 162.983 243.272 163L243.56 162.043L243.847 161.085C243.678 161.034 243.461 160.988 243.22 160.944L243.04 161.928ZM243.56 162.043L242.587 161.812L242.263 163.175L243.236 163.406L244.209 163.637L244.533 162.274L243.56 162.043ZM243.236 163.406L243.541 162.454C243.418 162.415 243.287 162.384 243.157 162.36L242.972 163.342L242.786 164.325C242.866 164.34 242.912 164.352 242.931 164.359L243.236 163.406ZM242.972 163.342L243.162 162.361C242.995 162.328 242.826 162.312 242.656 162.312V163.312V164.312C242.702 164.312 242.744 164.317 242.781 164.324L242.972 163.342ZM242.656 163.312V162.312C242.278 162.312 241.721 162.395 241.333 162.856L242.098 163.5L242.863 164.144C242.776 164.248 242.681 164.292 242.635 164.307C242.596 164.32 242.595 164.312 242.656 164.312V163.312ZM242.098 163.5L241.34 162.848C241.029 163.209 240.94 163.644 240.94 164.016H241.94H242.94C242.94 163.982 242.945 163.985 242.936 164.013C242.927 164.044 242.904 164.097 242.856 164.152L242.098 163.5ZM241.94 164.016H240.94V171H241.94H242.94V164.016H241.94ZM241.94 171V170H240.129V171V172H241.94V171ZM244.869 170.906L244.457 171.817L244.464 171.82L244.869 170.906ZM244.093 170.254L243.254 170.798L243.26 170.807L244.093 170.254ZM244.012 168.256L243.133 167.78L244.012 168.256ZM244.558 167.659L244.01 166.822H244.01L244.558 167.659ZM245.342 167.318L245.091 166.35L245.088 166.351L245.342 167.318ZM246.271 167.156L246.367 168.152L246.375 168.151L246.271 167.156ZM247.191 167.045L247.336 168.035L247.348 168.033L247.191 167.045ZM247.699 166.884L247.139 166.055L247.139 166.055L247.699 166.884ZM247.6 165.916L246.939 166.666L246.946 166.672L247.6 165.916ZM246.105 165.912L246.697 166.718L246.705 166.712L246.105 165.912ZM245.721 166.449L245.64 167.446L246.455 167.512L246.682 166.727L245.721 166.449ZM244.042 166.312L243.064 166.103L242.826 167.217L243.961 167.309L244.042 166.312ZM244.545 165.281L245.302 165.934L245.305 165.931L244.545 165.281ZM245.512 164.608L245.88 165.538L245.884 165.536L245.512 164.608ZM247.937 164.497L247.689 165.466L247.691 165.466L247.937 164.497ZM248.828 164.893L248.259 165.716L248.263 165.719L248.828 164.893ZM249.446 165.584L248.564 166.056L248.566 166.06L249.446 165.584ZM249.672 171V172H250.672V171H249.672ZM247.95 171H246.95V172H247.95V171ZM247.95 170.092H248.95V169.092H247.95V170.092ZM247.899 170.092V169.092H247.288L247.009 169.635L247.899 170.092ZM247.477 170.634L248.134 171.388L248.141 171.382L247.477 170.634ZM246.842 170.996L247.168 171.941L247.178 171.938L246.842 170.996ZM247.213 169.713L247.67 170.603L247.679 170.597L247.213 169.713ZM247.694 169.278L246.852 168.739L246.852 168.739L247.694 169.278ZM247.869 167.966H248.869V166.123L247.324 167.127L247.869 167.966ZM247.635 168.068L247.917 169.028L247.926 169.025L247.934 169.022L247.635 168.068ZM247.306 168.149L247.489 169.132L247.5 169.13L247.511 169.128L247.306 168.149ZM246.94 168.213L247.078 169.203L247.089 169.202L247.101 169.2L246.94 168.213ZM246.608 168.26L246.466 167.27L246.462 167.271L246.608 168.26ZM246.049 168.409L246.443 169.328H246.443L246.049 168.409ZM245.679 168.686L246.469 169.299L246.476 169.289L245.679 168.686ZM245.815 169.679L245.225 170.487L245.233 170.492L245.24 170.497L245.815 169.679ZM245.985 171.124V170.124C245.684 170.124 245.454 170.072 245.274 169.992L244.869 170.906L244.464 171.82C244.938 172.031 245.451 172.124 245.985 172.124V171.124ZM244.869 170.906L245.281 169.995C245.118 169.921 245.009 169.825 244.927 169.701L244.093 170.254L243.26 170.807C243.559 171.257 243.966 171.596 244.457 171.817L244.869 170.906ZM244.093 170.254L244.933 169.711C244.874 169.619 244.812 169.459 244.812 169.172H243.812H242.812C242.812 169.748 242.938 170.31 243.254 170.798L244.093 170.254ZM243.812 169.172H244.812C244.812 168.927 244.857 168.795 244.892 168.731L244.012 168.256L243.133 167.78C242.9 168.21 242.812 168.69 242.812 169.172H243.812ZM244.012 168.256L244.892 168.731C244.949 168.627 245.017 168.553 245.105 168.496L244.558 167.659L244.01 166.822C243.638 167.066 243.343 167.39 243.133 167.78L244.012 168.256ZM244.558 167.659L245.105 168.496C245.237 168.41 245.397 168.338 245.596 168.285L245.342 167.318L245.088 166.351C244.702 166.452 244.339 166.607 244.01 166.822L244.558 167.659ZM245.342 167.318L245.593 168.286C245.835 168.223 246.092 168.178 246.367 168.152L246.271 167.156L246.175 166.161C245.802 166.197 245.44 166.26 245.091 166.35L245.342 167.318ZM246.271 167.156L246.375 168.151C246.762 168.11 247.084 168.072 247.336 168.035L247.191 167.045L247.047 166.056C246.833 166.087 246.541 166.123 246.167 166.162L246.271 167.156ZM247.191 167.045L247.348 168.033C247.622 167.99 247.968 167.908 248.258 167.712L247.699 166.884L247.139 166.055C247.166 166.036 247.186 166.027 247.193 166.024C247.2 166.02 247.2 166.021 247.189 166.025C247.165 166.032 247.116 166.045 247.035 166.058L247.191 167.045ZM247.699 166.884L248.258 167.712C248.669 167.435 248.856 167.001 248.856 166.568H247.856H246.856C246.856 166.511 246.867 166.414 246.922 166.304C246.979 166.191 247.06 166.108 247.139 166.055L247.699 166.884ZM247.856 166.568H248.856V166.543H247.856H246.856V166.568H247.856ZM247.856 166.543H248.856C248.856 166.045 248.688 165.536 248.255 165.161L247.6 165.916L246.946 166.672C246.931 166.659 246.915 166.642 246.9 166.621C246.885 166.6 246.874 166.58 246.866 166.561C246.851 166.525 246.856 166.512 246.856 166.543H247.856ZM247.6 165.916L248.262 165.166C247.851 164.804 247.344 164.695 246.885 164.695V165.695V166.695C246.962 166.695 246.996 166.704 247 166.705C247.001 166.706 246.995 166.704 246.983 166.697C246.97 166.69 246.955 166.68 246.939 166.666L247.6 165.916ZM246.885 165.695V164.695C246.417 164.695 245.923 164.798 245.505 165.112L246.105 165.912L246.705 166.712C246.673 166.736 246.699 166.695 246.885 166.695V165.695ZM246.105 165.912L245.512 165.106C245.154 165.37 244.889 165.729 244.761 166.171L245.721 166.449L246.682 166.727C246.682 166.725 246.682 166.726 246.681 166.728C246.68 166.73 246.679 166.732 246.678 166.734C246.677 166.735 246.677 166.735 246.679 166.732C246.682 166.73 246.687 166.725 246.697 166.718L246.105 165.912ZM245.721 166.449L245.802 165.452L244.123 165.316L244.042 166.312L243.961 167.309L245.64 167.446L245.721 166.449ZM244.042 166.312L245.02 166.522C245.072 166.278 245.169 166.089 245.302 165.934L244.545 165.281L243.788 164.628C243.421 165.053 243.183 165.552 243.064 166.103L244.042 166.312ZM244.545 165.281L245.305 165.931C245.439 165.775 245.621 165.64 245.88 165.538L245.512 164.608L245.145 163.678C244.614 163.888 244.151 164.203 243.785 164.632L244.545 165.281ZM245.512 164.608L245.884 165.536C246.141 165.434 246.47 165.369 246.893 165.369V164.369V163.369C246.27 163.369 245.68 163.464 245.141 163.679L245.512 164.608ZM246.893 164.369V165.369C247.178 165.369 247.442 165.403 247.689 165.466L247.937 164.497L248.186 163.528C247.767 163.421 247.336 163.369 246.893 163.369V164.369ZM247.937 164.497L247.691 165.466C247.922 165.525 248.107 165.611 248.259 165.716L248.828 164.893L249.397 164.071C249.031 163.818 248.623 163.64 248.184 163.528L247.937 164.497ZM248.828 164.893L248.263 165.719C248.391 165.806 248.489 165.915 248.564 166.056L249.446 165.584L250.327 165.112C250.102 164.69 249.787 164.339 249.393 164.068L248.828 164.893ZM249.446 165.584L248.566 166.06C248.621 166.162 248.672 166.324 248.672 166.585H249.672H250.672C250.672 166.068 250.571 165.563 250.325 165.108L249.446 165.584ZM249.672 166.585H248.672V171H249.672H250.672V166.585H249.672ZM249.672 171V170H247.95V171V172H249.672V171ZM247.95 171H248.95V170.092H247.95H246.95V171H247.95ZM247.95 170.092V169.092H247.899V170.092V171.092H247.95V170.092ZM247.899 170.092L247.009 169.635C246.962 169.727 246.899 169.809 246.813 169.885L247.477 170.634L248.141 171.382C248.407 171.145 248.625 170.867 248.788 170.549L247.899 170.092ZM247.477 170.634L246.82 169.879C246.749 169.941 246.65 170.003 246.506 170.054L246.842 170.996L247.178 171.938C247.528 171.813 247.852 171.633 248.134 171.388L247.477 170.634ZM246.842 170.996L246.516 170.05C246.395 170.092 246.224 170.124 245.985 170.124V171.124V172.124C246.395 172.124 246.794 172.07 247.168 171.941L246.842 170.996ZM246.505 169.871V170.871C246.906 170.871 247.303 170.791 247.67 170.602L247.213 169.713L246.756 168.824C246.714 168.845 246.639 168.871 246.505 168.871V169.871ZM247.213 169.713L247.679 170.597C248.026 170.415 248.32 170.155 248.536 169.818L247.694 169.278L246.852 168.739C246.836 168.765 246.809 168.795 246.746 168.829L247.213 169.713ZM247.694 169.278L248.536 169.818C248.763 169.464 248.869 169.069 248.869 168.661H247.869H246.869C246.869 168.713 246.859 168.729 246.852 168.739L247.694 169.278ZM247.869 168.661H248.869V167.966H247.869H246.869V168.661H247.869ZM247.869 167.966L247.324 167.127C247.338 167.118 247.35 167.112 247.357 167.108C247.364 167.104 247.368 167.103 247.368 167.103C247.368 167.103 247.366 167.104 247.36 167.106C247.354 167.108 247.346 167.111 247.335 167.114L247.635 168.068L247.934 169.022C248.079 168.977 248.252 168.91 248.414 168.804L247.869 167.966ZM247.635 168.068L247.352 167.109C247.287 167.128 247.204 167.149 247.102 167.17L247.306 168.149L247.511 169.128C247.654 169.098 247.789 169.065 247.917 169.028L247.635 168.068ZM247.306 168.149L247.124 167.166C247.009 167.187 246.894 167.207 246.779 167.226L246.94 168.213L247.101 169.2C247.23 169.179 247.36 169.156 247.489 169.132L247.306 168.149ZM246.94 168.213L246.802 167.223C246.679 167.24 246.567 167.256 246.466 167.27L246.608 168.26L246.749 169.25C246.847 169.236 246.957 169.22 247.078 169.203L246.94 168.213ZM246.608 168.26L246.462 167.271C246.184 167.311 245.911 167.381 245.655 167.49L246.049 168.409L246.443 169.328C246.506 169.301 246.605 169.271 246.753 169.249L246.608 168.26ZM246.049 168.409L245.655 167.49C245.366 167.614 245.092 167.804 244.881 168.083L245.679 168.686L246.476 169.289C246.46 169.31 246.445 169.324 246.436 169.331C246.427 169.337 246.428 169.335 246.443 169.328L246.049 168.409ZM245.679 168.686L244.888 168.074C244.64 168.393 244.547 168.763 244.547 169.112H245.547H246.547C246.547 169.113 246.546 169.136 246.535 169.174C246.522 169.213 246.501 169.257 246.469 169.299L245.679 168.686ZM245.547 169.112H244.547C244.547 169.636 244.756 170.144 245.225 170.487L245.815 169.679L246.405 168.871C246.442 168.898 246.486 168.946 246.517 169.011C246.547 169.073 246.547 169.114 246.547 169.112H245.547ZM245.815 169.679L245.24 170.497C245.628 170.77 246.073 170.871 246.505 170.871V169.871V168.871C246.442 168.871 246.406 168.863 246.392 168.859C246.378 168.856 246.381 168.854 246.39 168.861L245.815 169.679ZM252.895 162.273H253.895V161.273H252.895V162.273ZM252.895 171V172H253.895V171H252.895ZM251.08 171H250.08V172H251.08V171ZM251.08 162.273V161.273H250.08V162.273H251.08ZM252.895 162.273H251.895V171H252.895H253.895V162.273H252.895ZM252.895 171V170H251.08V171V172H252.895V171ZM251.08 171H252.08V162.273H251.08H250.08V171H251.08ZM251.08 162.273V163.273H252.895V162.273V161.273H251.08V162.273ZM259.795 166.321L259.857 167.319L260.927 167.253L260.787 166.19L259.795 166.321ZM258.134 166.423L257.153 166.619L257.324 167.475L258.195 167.421L258.134 166.423ZM257.95 166.04L257.171 166.667L257.179 166.676L257.95 166.04ZM257.58 165.763L257.153 166.667L257.163 166.672L257.173 166.677L257.58 165.763ZM256.327 165.835L256.843 166.692L256.852 166.686L256.327 165.835ZM256.224 166.7L255.571 167.457V167.457L256.224 166.7ZM256.868 166.96L256.658 167.938L256.67 167.941L256.868 166.96ZM258.053 167.199L258.254 166.219L258.25 166.219L258.053 167.199ZM259.476 167.83L258.796 168.563L259.476 167.83ZM259.565 170.101L258.777 169.485L258.774 169.49L259.565 170.101ZM258.534 170.859L258.915 171.784L258.918 171.783L258.534 170.859ZM254.959 170.587L254.379 171.402L254.384 171.405L254.959 170.587ZM254.06 169.104L254.007 168.105L252.917 168.162L253.069 169.243L254.06 169.104ZM255.845 169.01L256.825 168.81L256.653 167.966L255.793 168.011L255.845 169.01ZM256.237 169.615L255.68 170.445L255.688 170.451L256.237 169.615ZM257.801 169.636L258.336 170.482L258.339 170.48L257.801 169.636ZM258.099 169.155L259.099 169.169L259.1 169.153L259.099 169.138L258.099 169.155ZM257.891 168.75L257.27 169.534L257.28 169.542L257.891 168.75ZM257.26 168.503L257.456 167.522L257.455 167.522L257.26 168.503ZM256.126 168.277L255.93 169.258L255.931 169.258L256.126 168.277ZM254.699 167.612L253.985 168.313L253.989 168.316L254.699 167.612ZM254.575 165.32L253.778 164.716L253.774 164.721L254.575 165.32ZM255.543 164.616L255.176 163.686L255.173 163.687L255.543 164.616ZM258.96 164.893L258.367 165.699L258.369 165.7L258.96 164.893ZM259.795 166.321L259.734 165.323L258.072 165.425L258.134 166.423L258.195 167.421L259.857 167.319L259.795 166.321ZM258.134 166.423L259.114 166.227C259.053 165.921 258.919 165.642 258.722 165.403L257.95 166.04L257.179 166.676C257.176 166.673 257.17 166.664 257.164 166.652C257.158 166.639 257.155 166.628 257.153 166.619L258.134 166.423ZM257.95 166.04L258.729 165.413C258.524 165.158 258.266 164.974 257.986 164.849L257.58 165.763L257.173 166.677C257.188 166.683 257.192 166.686 257.189 166.684C257.187 166.683 257.185 166.681 257.182 166.678C257.178 166.675 257.175 166.671 257.171 166.667L257.95 166.04ZM257.58 165.763L258.006 164.858C257.692 164.71 257.358 164.656 257.038 164.656V165.656V166.656C257.139 166.656 257.166 166.673 257.153 166.667L257.58 165.763ZM257.038 165.656V164.656C256.616 164.656 256.186 164.747 255.801 164.984L256.327 165.835L256.852 166.686C256.854 166.685 256.899 166.656 257.038 166.656V165.656ZM256.327 165.835L255.81 164.979C255.371 165.244 255.037 165.699 255.037 166.304H256.037H257.037C257.037 166.379 257.016 166.475 256.96 166.566C256.908 166.65 256.852 166.686 256.843 166.692L256.327 165.835ZM256.037 166.304H255.037C255.037 166.769 255.24 167.172 255.571 167.457L256.224 166.7L256.878 165.943C256.907 165.969 256.952 166.017 256.988 166.093C257.024 166.169 257.037 166.245 257.037 166.304H256.037ZM256.224 166.7L255.571 167.457C255.892 167.734 256.311 167.863 256.658 167.938L256.868 166.96L257.078 165.983C256.964 165.958 256.893 165.935 256.854 165.919C256.811 165.902 256.832 165.903 256.878 165.943L256.224 166.7ZM256.868 166.96L256.67 167.941L257.855 168.179L258.053 167.199L258.25 166.219L257.065 165.98L256.868 166.96ZM258.053 167.199L257.851 168.178C258.395 168.29 258.67 168.446 258.796 168.563L259.476 167.83L260.156 167.096C259.656 166.633 258.982 166.369 258.254 166.219L258.053 167.199ZM259.476 167.83L258.796 168.563C258.881 168.642 258.945 168.745 258.945 168.972H259.945H260.945C260.945 168.255 260.695 167.597 260.156 167.096L259.476 167.83ZM259.945 168.972H258.945C258.945 169.188 258.886 169.346 258.777 169.485L259.565 170.101L260.354 170.716C260.75 170.208 260.945 169.613 260.945 168.972H259.945ZM259.565 170.101L258.774 169.49C258.646 169.655 258.453 169.81 258.15 169.936L258.534 170.859L258.918 171.783C259.49 171.545 259.985 171.194 260.357 170.712L259.565 170.101ZM258.534 170.859L258.153 169.935C257.862 170.055 257.494 170.128 257.03 170.128V171.128V172.128C257.702 172.128 258.337 172.022 258.915 171.784L258.534 170.859ZM257.03 171.128V170.128C256.293 170.128 255.826 169.974 255.533 169.768L254.959 170.587L254.384 171.405C255.12 171.921 256.034 172.128 257.03 172.128V171.128ZM254.959 170.587L255.538 169.772C255.252 169.568 255.1 169.319 255.05 168.964L254.06 169.104L253.069 169.243C253.196 170.138 253.643 170.878 254.379 171.402L254.959 170.587ZM254.06 169.104L254.112 170.102L255.898 170.009L255.845 169.01L255.793 168.011L254.007 168.105L254.06 169.104ZM255.845 169.01L254.865 169.21C254.967 169.709 255.236 170.147 255.68 170.445L256.237 169.615L256.795 168.785C256.795 168.785 256.8 168.789 256.806 168.795C256.812 168.801 256.818 168.808 256.823 168.816C256.828 168.823 256.83 168.827 256.83 168.828C256.83 168.828 256.828 168.823 256.825 168.81L255.845 169.01ZM256.237 169.615L255.688 170.451C256.101 170.723 256.574 170.82 257.034 170.82V169.82V168.82C256.847 168.82 256.788 168.78 256.787 168.78L256.237 169.615ZM257.034 169.82V170.82C257.47 170.82 257.931 170.737 258.336 170.482L257.801 169.636L257.267 168.791C257.284 168.78 257.234 168.82 257.034 168.82V169.82ZM257.801 169.636L258.339 170.48C258.758 170.213 259.091 169.768 259.099 169.169L258.099 169.155L257.1 169.14C257.101 169.064 257.123 168.975 257.173 168.896C257.195 168.86 257.218 168.834 257.235 168.817C257.252 168.8 257.263 168.793 257.263 168.793L257.801 169.636ZM258.099 169.155L259.099 169.138C259.091 168.653 258.866 168.239 258.501 167.958L257.891 168.75L257.28 169.542C257.248 169.517 257.197 169.468 257.156 169.388C257.115 169.308 257.101 169.23 257.1 169.172L258.099 169.155ZM257.891 168.75L258.511 167.966C258.195 167.715 257.805 167.592 257.456 167.522L257.26 168.503L257.064 169.483C257.164 169.503 257.228 169.524 257.266 169.538C257.305 169.554 257.298 169.557 257.27 169.534L257.891 168.75ZM257.26 168.503L257.455 167.522L256.322 167.296L256.126 168.277L255.931 169.258L257.065 169.484L257.26 168.503ZM256.126 168.277L256.323 167.296C255.792 167.19 255.53 167.031 255.409 166.908L254.699 167.612L253.989 168.316C254.492 168.825 255.183 169.108 255.93 169.258L256.126 168.277ZM254.699 167.612L255.412 166.912C255.307 166.804 255.234 166.663 255.234 166.406H254.234H253.234C253.234 167.127 253.472 167.79 253.985 168.313L254.699 167.612ZM254.234 166.406H255.234C255.234 166.177 255.292 166.031 255.376 165.918L254.575 165.32L253.774 164.721C253.404 165.216 253.234 165.794 253.234 166.406H254.234ZM254.575 165.32L255.373 165.923C255.475 165.788 255.637 165.655 255.912 165.546L255.543 164.616L255.173 163.687C254.618 163.908 254.136 164.243 253.778 164.716L254.575 165.32ZM255.543 164.616L255.91 165.547C256.185 165.438 256.545 165.369 257.009 165.369V164.369V163.369C256.353 163.369 255.735 163.466 255.176 163.686L255.543 164.616ZM257.009 164.369V165.369C257.706 165.369 258.122 165.518 258.367 165.699L258.96 164.893L259.553 164.088C258.85 163.57 257.965 163.369 257.009 163.369V164.369ZM258.96 164.893L258.369 165.7C258.62 165.884 258.759 166.112 258.804 166.452L259.795 166.321L260.787 166.19C260.673 165.326 260.255 164.602 259.551 164.087L258.96 164.893ZM262.332 170.719L261.836 171.587L261.842 171.591L262.332 170.719ZM261.216 169.551L260.327 170.01L260.328 170.012L261.216 169.551ZM261.216 165.984L260.326 165.527L261.216 165.984ZM262.319 164.795L261.808 163.936L261.806 163.938L262.319 164.795ZM265.204 164.578L264.854 165.515L264.862 165.518L265.204 164.578ZM266.184 165.196L265.481 165.907L265.484 165.91L266.184 165.196ZM266.841 166.236L265.904 166.586L265.905 166.588L266.841 166.236ZM267.075 168.192V169.192H268.075V168.192H267.075ZM261.548 168.192H260.548V169.192H261.548V168.192ZM261.548 167.067V166.067H260.548V167.067H261.548ZM265.366 167.067V168.067H266.366V167.067H265.366ZM265.196 166.372L264.324 166.863L264.324 166.863L265.196 166.372ZM264.723 165.899L264.217 166.762L264.224 166.766L264.232 166.77L264.723 165.899ZM263.295 165.916L263.806 166.776L263.81 166.774L263.295 165.916ZM262.801 166.423L263.67 166.917L263.673 166.912L262.801 166.423ZM262.618 167.126L261.618 167.115V167.126H262.618ZM262.797 169.036L261.904 169.487L261.909 169.496L262.797 169.036ZM264.654 169.688L264.333 168.74L264.654 169.688ZM265.085 169.432L264.395 168.708L264.395 168.708L265.085 169.432ZM265.358 169.014L265.423 168.016L264.685 167.968L264.423 168.66L265.358 169.014ZM267.037 169.125L268.015 169.332L268.253 168.203L267.102 168.127L267.037 169.125ZM266.512 170.182L265.761 169.522L265.76 169.523L266.512 170.182ZM265.498 170.881L265.87 171.809L265.873 171.808L265.498 170.881ZM264.071 171.128V170.128C263.533 170.128 263.13 170.02 262.822 169.847L262.332 170.719L261.842 171.591C262.506 171.963 263.262 172.128 264.071 172.128V171.128ZM262.332 170.719L262.828 169.85C262.515 169.672 262.277 169.426 262.103 169.09L261.216 169.551L260.328 170.012C260.677 170.682 261.183 171.215 261.836 171.587L262.332 170.719ZM261.216 169.551L262.104 169.092C261.93 168.755 261.824 168.321 261.824 167.757H260.824H259.824C259.824 168.574 259.978 169.336 260.327 170.01L261.216 169.551ZM260.824 167.757H261.824C261.824 167.215 261.928 166.786 262.105 166.441L261.216 165.984L260.326 165.527C259.98 166.2 259.824 166.953 259.824 167.757H260.824ZM261.216 165.984L262.105 166.441C262.284 166.093 262.524 165.838 262.833 165.653L262.319 164.795L261.806 163.938C261.165 164.321 260.67 164.859 260.326 165.527L261.216 165.984ZM262.319 164.795L262.831 165.655C263.13 165.476 263.508 165.369 263.998 165.369V164.369V163.369C263.205 163.369 262.463 163.546 261.808 163.936L262.319 164.795ZM263.998 164.369V165.369C264.321 165.369 264.603 165.421 264.854 165.515L265.204 164.578L265.555 163.642C265.061 163.457 264.539 163.369 263.998 163.369V164.369ZM265.204 164.578L264.862 165.518C265.104 165.606 265.307 165.735 265.481 165.907L266.184 165.196L266.888 164.485C266.505 164.106 266.054 163.823 265.546 163.638L265.204 164.578ZM266.184 165.196L265.484 165.91C265.648 166.071 265.792 166.288 265.904 166.586L266.841 166.236L267.777 165.885C267.576 165.349 267.283 164.873 266.884 164.482L266.184 165.196ZM266.841 166.236L265.905 166.588C266.009 166.866 266.075 167.227 266.075 167.693H267.075H268.075C268.075 167.046 267.984 166.435 267.776 165.883L266.841 166.236ZM267.075 167.693H266.075V168.192H267.075H268.075V167.693H267.075ZM267.075 168.192V167.192H261.548V168.192V169.192H267.075V168.192ZM261.548 168.192H262.548V167.067H261.548H260.548V168.192H261.548ZM261.548 167.067V168.067H265.366V167.067V166.067H261.548V167.067ZM265.366 167.067H266.366C266.366 166.656 266.275 166.251 266.067 165.881L265.196 166.372L264.324 166.863C264.343 166.896 264.366 166.955 264.366 167.067H265.366ZM265.196 166.372L266.067 165.881C265.864 165.52 265.574 165.231 265.213 165.028L264.723 165.899L264.232 166.77C264.274 166.794 264.3 166.82 264.324 166.863L265.196 166.372ZM264.723 165.899L265.228 165.036C264.855 164.818 264.443 164.724 264.028 164.724V165.724V166.724C264.141 166.724 264.193 166.748 264.217 166.762L264.723 165.899ZM264.028 165.724V164.724C263.592 164.724 263.166 164.828 262.781 165.059L263.295 165.916L263.81 166.774C263.851 166.749 263.913 166.724 264.028 166.724V165.724ZM263.295 165.916L262.784 165.057C262.423 165.271 262.134 165.568 261.928 165.935L262.801 166.423L263.673 166.912C263.707 166.852 263.747 166.811 263.806 166.776L263.295 165.916ZM262.801 166.423L261.931 165.93C261.722 166.297 261.622 166.7 261.618 167.115L262.618 167.126L263.617 167.137C263.619 167.036 263.641 166.97 263.67 166.917L262.801 166.423ZM262.618 167.126H261.618V168.196H262.618H263.618V167.126H262.618ZM262.618 168.196H261.618C261.618 168.642 261.7 169.083 261.904 169.487L262.797 169.036L263.689 168.584C263.654 168.516 263.618 168.398 263.618 168.196H262.618ZM262.797 169.036L261.909 169.496C262.115 169.894 262.419 170.22 262.812 170.447L263.312 169.581L263.812 168.715C263.762 168.686 263.722 168.648 263.684 168.576L262.797 169.036ZM263.312 169.581L262.812 170.447C263.212 170.678 263.654 170.773 264.1 170.773V169.773V168.773C263.939 168.773 263.855 168.74 263.812 168.715L263.312 169.581ZM264.1 169.773V170.773C264.396 170.773 264.691 170.731 264.976 170.635L264.654 169.688L264.333 168.74C264.283 168.758 264.208 168.773 264.1 168.773V169.773ZM264.654 169.688L264.976 170.635C265.27 170.535 265.542 170.377 265.775 170.156L265.085 169.432L264.395 168.708C264.389 168.714 264.374 168.727 264.333 168.74L264.654 169.688ZM265.085 169.432L265.775 170.156C266.01 169.932 266.181 169.664 266.293 169.369L265.358 169.014L264.423 168.66C264.409 168.694 264.399 168.704 264.395 168.708L265.085 169.432ZM265.358 169.014L265.292 170.012L266.971 170.123L267.037 169.125L267.102 168.127L265.423 168.016L265.358 169.014ZM267.037 169.125L266.058 168.918C266.007 169.159 265.908 169.354 265.761 169.522L266.512 170.182L267.264 170.841C267.645 170.407 267.895 169.898 268.015 169.332L267.037 169.125ZM266.512 170.182L265.76 169.523C265.615 169.689 265.412 169.837 265.124 169.954L265.498 170.881L265.873 171.808C266.414 171.589 266.888 171.271 267.265 170.841L266.512 170.182ZM265.498 170.881L265.127 169.952C264.856 170.061 264.51 170.128 264.071 170.128V171.128V172.128C264.711 172.128 265.317 172.03 265.87 171.809L265.498 170.881Z" fill="#C50000" mask="url(#path-3-outside-1_3_98)"/>
</g>
</g>
<g id="true_block_arrow">
<path id="true_block_arrowhead" d="M535.548 192.5L561.096 158H510L535.548 192.5Z" fill="#F0B43B"/>
<path id="true_block_arrowbody_vert" d="M547 91H525V158H547V91Z" fill="#F0B43B"/>
<path id="true_block_arrowbody_hor" d="M367 91V113L545 113V91L367 91Z" fill="#F0B43B"/>
<g id="true_text">
<path id="Vector" d="M456.674 98.8693C457.16 98.8693 457.622 98.9477 458.055 99.1096L458.054 99.1105C458.493 99.2709 458.881 99.5134 459.21 99.8391L459.333 99.968C459.612 100.276 459.828 100.643 459.985 101.06L460.048 101.244C460.186 101.681 460.25 102.167 460.25 102.694V103.659L460.321 103.664L460.201 104.229C460.099 104.713 459.886 105.143 459.564 105.51L459.565 105.511C459.246 105.875 458.839 106.151 458.362 106.344L458.36 106.345C457.877 106.538 457.336 106.628 456.746 106.628C456.005 106.628 455.338 106.477 454.763 106.154L454.76 106.154C454.192 105.829 453.752 105.368 453.448 104.781V104.78C453.143 104.19 452.999 103.51 452.999 102.757C452.999 102.018 453.143 101.347 453.447 100.756C453.749 100.167 454.181 99.7001 454.739 99.3664L454.74 99.3654C455.305 99.0286 455.956 98.8693 456.674 98.8693ZM455.916 103.806L455.981 103.913C456.051 104.013 456.136 104.089 456.238 104.148C456.37 104.224 456.544 104.273 456.777 104.273C456.931 104.273 457.061 104.251 457.17 104.214C457.274 104.179 457.353 104.129 457.416 104.07C457.477 104.011 457.528 103.937 457.566 103.837L457.621 103.692H455.868C455.883 103.732 455.899 103.77 455.916 103.806ZM456.703 101.225C456.509 101.225 456.355 101.269 456.228 101.345L456.227 101.346C456.127 101.405 456.045 101.478 455.979 101.567H457.403C457.338 101.47 457.257 101.394 457.153 101.335L457.146 101.33C457.034 101.265 456.892 101.225 456.703 101.225Z" fill="white" stroke="#0B9F00"/>
<path id="Vector_2" d="M448.614 98.9545V103.294L448.629 103.496C448.656 103.676 448.719 103.794 448.795 103.877C448.892 103.984 449.024 104.051 449.248 104.051C449.387 104.051 449.512 104.02 449.63 103.958C449.731 103.903 449.817 103.82 449.889 103.698L449.892 103.693C449.953 103.591 449.998 103.442 449.996 103.218V98.9545H452.811V106.5H450.068V106.131C450.06 106.137 450.053 106.143 450.045 106.148C449.606 106.448 449.087 106.585 448.514 106.585C447.999 106.585 447.523 106.467 447.103 106.216C446.685 105.966 446.362 105.611 446.135 105.166L446.134 105.164C445.907 104.713 445.802 104.194 445.799 103.624V98.9545H448.614Z" fill="white" stroke="#0B9F00"/>
<path id="Vector_3" d="M445.86 101.707L445.217 101.514C445.169 101.5 445.081 101.482 444.941 101.463C444.808 101.446 444.692 101.438 444.593 101.438C444.401 101.438 444.247 101.478 444.119 101.549L444.117 101.55C443.988 101.621 443.889 101.717 443.812 101.846C443.745 101.964 443.704 102.11 443.704 102.297V106.5H440.888V98.9545H443.648V99.187C443.989 98.9693 444.373 98.8608 444.789 98.8608C444.9 98.8608 445.016 98.8673 445.137 98.8803C445.258 98.8935 445.374 98.9131 445.481 98.9399L445.86 99.0346V101.707Z" fill="white" stroke="#0B9F00"/>
<path id="Vector_4" d="M439.474 97.3864V98.9547H440.706V101.318H439.474V103.989C439.474 104.048 439.478 104.089 439.483 104.116C439.508 104.122 439.543 104.128 439.588 104.128C439.646 104.128 439.703 104.123 439.761 104.113C439.84 104.097 439.902 104.085 439.948 104.077L440.428 103.987L440.529 104.464L440.814 105.816L440.909 106.26L440.474 106.396C440.365 106.43 440.225 106.465 440.058 106.503C439.851 106.552 439.616 106.579 439.359 106.589L439.36 106.589C438.868 106.609 438.411 106.544 438.002 106.379L438.002 106.378C437.586 106.208 437.248 105.936 437.007 105.564C436.76 105.181 436.655 104.723 436.659 104.224V101.318H435.764V98.9547H436.659V97.3864H439.474Z" fill="white" stroke="#0B9F00"/>
</g>
</g>
<g id="branch_ender">
<g id="next_block_connector">
<path id="true_block_arrowhead_2" d="M393.548 474.5L419.096 440H368L393.548 474.5Z" fill="#F0B43B"/>
<path id="true_block_arrowbody_vert_2" d="M405 413H383V440H405V413Z" fill="#F0B43B"/>
<rect id="connector_block" x="242" y="391" width="305" height="22" fill="#F0B43B"/>
</g>
<g id="false_branch_ender">
<rect id="Rectangle 2" x="197" y="341" width="110" height="24" fill="#F0B43B"/>
<g id="prev_block_connector">
<path id="Vector_5" d="M252.5 341H227V307H227.322L252.5 341Z" fill="#F0B43B"/>
<path id="Vector_6" d="M278 341H252.5L277.678 307H278V341Z" fill="#F0B43B"/>
</g>
<path id="false_connector_vert" d="M264 365H242V391H264V365Z" fill="#F0B43B"/>
</g>
<g id="true_branch_ender">
<rect id="Rectangle 2_2" x="481" y="341" width="110" height="24" fill="#F0B43B"/>
<g id="prev_block_connector_2">
<path id="Vector_7" d="M536.5 341H511V307H511.322L536.5 341Z" fill="#F0B43B"/>
<path id="Vector_8" d="M562 341H536.5L561.678 307H562V341Z" fill="#F0B43B"/>
</g>
<path id="true_connector_vert" d="M547 365H525V391H547V365Z" fill="#F0B43B"/>
</g>
</g>
<g id="main_block">
<g id="prev_block_connector_3">
<path id="Vector_9" d="M252.5 72H227V38H227.322L252.5 72Z" fill="#F0B43B"/>
<path id="Vector_10" d="M278 72H252.5L277.678 38H278V72Z" fill="#F0B43B"/>
</g>
<rect id="block_body" x="139" y="72" width="228" height="59" fill="#F0B43B"/>
</g>
</g>
<g id="block_input">
<path id="if_text" d="M173.724 108V101.455H175.54V108H173.724ZM174.636 100.611C174.366 100.611 174.135 100.521 173.942 100.342C173.751 100.161 173.656 99.9432 173.656 99.6903C173.656 99.4403 173.751 99.2259 173.942 99.0469C174.135 98.8651 174.366 98.7741 174.636 98.7741C174.906 98.7741 175.136 98.8651 175.327 99.0469C175.52 99.2259 175.616 99.4403 175.616 99.6903C175.616 99.9432 175.52 100.161 175.327 100.342C175.136 100.521 174.906 100.611 174.636 100.611ZM180.514 101.455V102.818H176.474V101.455H180.514ZM177.399 108V100.982C177.399 100.507 177.491 100.114 177.676 99.8011C177.863 99.4886 178.119 99.2543 178.443 99.098C178.767 98.9418 179.135 98.8636 179.547 98.8636C179.825 98.8636 180.079 98.8849 180.309 98.9276C180.542 98.9702 180.716 99.0085 180.829 99.0426L180.505 100.406C180.434 100.384 180.346 100.362 180.241 100.342C180.139 100.322 180.034 100.312 179.926 100.312C179.659 100.312 179.473 100.375 179.368 100.5C179.262 100.622 179.21 100.794 179.21 101.016V108H177.399Z" fill="white"/>
<g id="input_boolean">
<path d="M200 91.3253H318V112.325H200V91.3253Z" fill="white"/>
<path d="M185 101.825L200 91V112.651L185 101.825Z" fill="white"/>
<path d="M333 101.825L318 112.651V91L333 101.825Z" fill="white"/>
</g>
</g>
</g>
</svg>
