<svg width="1155" height="699" viewBox="0 0 1155 699" fill="none" xmlns="http://www.w3.org/2000/svg">
<g id="repeat_times">
<g id="block_shape">
<g id="loop_ender">
<g id="loop_back_bottom">
<path d="M528.5 421H503V387H503.322L528.5 421Z" fill="#F0B43B"/>
<path d="M554 421H528.5L553.678 387H554V421Z" fill="#F0B43B"/>
<path d="M469 421H589V446H469V421Z" fill="#F0B43B"/>
<path d="M541 443H519V483H541V443Z" fill="#F0B43B"/>
<path d="M312 476V498H541V476H312Z" fill="#F0B43B"/>
</g>
<g id="loop_back_arrow">
<path id="loop_back_arrowbody" d="M334 498H312V254.149H334V498Z" fill="#F0B43B"/>
<path id="loop_back_arrowhead" d="M323.548 227L349.096 261.06H298L323.548 227Z" fill="#F0B43B"/>
</g>
</g>
<g id="true_block_arrow">
<path id="true_block_arrowhead" d="M528.548 287.5L554.096 253H503L528.548 287.5Z" fill="#F0B43B"/>
<path id="true_block_arrowbody_vert" d="M540 186H518V253H540V186Z" fill="#F0B43B"/>
<path id="true_block_arrowbody_hor" d="M360 186V208H538V186H360Z" fill="#F0B43B"/>
<g id="true_text">
<path id="Vector" d="M449.674 193.869C450.16 193.869 450.622 193.948 451.055 194.11L451.054 194.111C451.493 194.271 451.881 194.513 452.21 194.839L452.333 194.968C452.612 195.276 452.828 195.643 452.985 196.06L453.048 196.244C453.186 196.681 453.25 197.167 453.25 197.694V198.659L453.321 198.664L453.201 199.229C453.099 199.713 452.886 200.143 452.564 200.51L452.565 200.511C452.246 200.875 451.839 201.151 451.362 201.344L451.36 201.345C450.877 201.538 450.336 201.628 449.746 201.628C449.005 201.628 448.338 201.477 447.763 201.154L447.76 201.154C447.192 200.829 446.752 200.368 446.448 199.781V199.78C446.142 199.19 445.999 198.51 445.999 197.757C445.999 197.018 446.143 196.347 446.447 195.756C446.749 195.167 447.181 194.7 447.739 194.366L447.74 194.365C448.305 194.029 448.956 193.869 449.674 193.869ZM448.916 198.806L448.981 198.913C449.051 199.013 449.136 199.089 449.238 199.148C449.37 199.224 449.544 199.273 449.777 199.273C449.931 199.273 450.061 199.251 450.17 199.214C450.274 199.179 450.353 199.129 450.416 199.07C450.477 199.011 450.528 198.937 450.566 198.837L450.621 198.692H448.868C448.883 198.732 448.899 198.77 448.916 198.806ZM449.703 196.225C449.508 196.225 449.355 196.269 449.228 196.345L449.227 196.346C449.127 196.405 449.045 196.478 448.979 196.567H450.403C450.338 196.47 450.257 196.394 450.153 196.335L450.146 196.33C450.034 196.265 449.892 196.225 449.703 196.225Z" fill="white" stroke="#0B9F00"/>
<path id="Vector_2" d="M441.614 193.955V198.294L441.629 198.496C441.656 198.676 441.719 198.794 441.795 198.877C441.891 198.984 442.024 199.051 442.248 199.051C442.387 199.051 442.512 199.02 442.63 198.958C442.731 198.903 442.817 198.82 442.889 198.698L442.892 198.693C442.953 198.591 442.998 198.442 442.996 198.218V193.955H445.811V201.5H443.068V201.131C443.06 201.137 443.053 201.143 443.045 201.148C442.606 201.448 442.087 201.585 441.514 201.585C440.999 201.585 440.523 201.467 440.103 201.216C439.685 200.966 439.362 200.611 439.135 200.166L439.134 200.164C438.907 199.713 438.802 199.194 438.799 198.624V193.955H441.614Z" fill="white" stroke="#0B9F00"/>
<path id="Vector_3" d="M438.86 196.707L438.217 196.514C438.169 196.5 438.081 196.482 437.941 196.463C437.808 196.446 437.692 196.438 437.593 196.438C437.401 196.438 437.247 196.478 437.119 196.549L437.117 196.55C436.988 196.621 436.889 196.717 436.812 196.846C436.745 196.964 436.704 197.11 436.704 197.297V201.5H433.888V193.955H436.648V194.187C436.989 193.969 437.373 193.861 437.789 193.861C437.9 193.861 438.016 193.867 438.136 193.88C438.258 193.893 438.374 193.913 438.481 193.94L438.86 194.035V196.707Z" fill="white" stroke="#0B9F00"/>
<path id="Vector_4" d="M432.474 192.386V193.955H433.706V196.318H432.474V198.989C432.474 199.048 432.478 199.089 432.483 199.116C432.508 199.122 432.542 199.128 432.588 199.128C432.646 199.128 432.703 199.123 432.761 199.113C432.84 199.097 432.902 199.085 432.948 199.077L433.428 198.987L433.529 199.464L433.814 200.816L433.909 201.26L433.474 201.396C433.365 201.43 433.225 201.465 433.058 201.503C432.851 201.552 432.616 201.579 432.359 201.589L432.36 201.589C431.868 201.609 431.411 201.544 431.002 201.379L431.001 201.378C430.585 201.208 430.248 200.936 430.007 200.564C429.76 200.181 429.655 199.723 429.659 199.224V196.318H428.764V193.955H429.659V192.386H432.474Z" fill="white" stroke="#0B9F00"/>
</g>
</g>
<g id="false_block_arrow">
<path id="false_block_arrowbody" d="M258 227H236V504H258V227Z" fill="#F0B43B"/>
<path id="false_block_arrowhead" d="M247.548 538.5L273.096 504H222L247.548 538.5Z" fill="#F0B43B"/>
<g id="false_text">
<path id="Vector_5" d="M258.794 509.006C259.28 509.006 259.742 509.084 260.175 509.246L260.174 509.247C260.613 509.407 261 509.65 261.33 509.975L261.453 510.104C261.732 510.413 261.948 510.779 262.104 511.196L262.168 511.381C262.306 511.818 262.37 512.303 262.37 512.83V513.796L262.44 513.801L262.321 514.365C262.219 514.849 262.006 515.279 261.683 515.646L261.684 515.647C261.365 516.011 260.959 516.287 260.481 516.48L260.479 516.481C259.997 516.674 259.456 516.764 258.866 516.764C258.125 516.764 257.457 516.613 256.883 516.291L256.88 516.29C256.312 515.966 255.872 515.504 255.567 514.918V514.917C255.262 514.327 255.119 513.647 255.119 512.893C255.119 512.155 255.263 511.483 255.566 510.892C255.869 510.304 256.301 509.836 256.858 509.503L256.859 509.502C257.425 509.165 258.076 509.006 258.794 509.006ZM258.036 513.942L258.1 514.05C258.17 514.149 258.256 514.225 258.357 514.284C258.49 514.36 258.664 514.409 258.896 514.409C259.051 514.409 259.181 514.387 259.29 514.35C259.394 514.315 259.473 514.266 259.536 514.206C259.597 514.147 259.648 514.073 259.685 513.973L259.741 513.828H257.988C258.003 513.869 258.018 513.907 258.036 513.942ZM258.823 511.361C258.628 511.361 258.475 511.405 258.348 511.481L258.347 511.482C258.247 511.541 258.165 511.614 258.099 511.703H259.522C259.458 511.606 259.377 511.53 259.272 511.471L259.266 511.467C259.154 511.401 259.012 511.361 258.823 511.361Z" fill="white" stroke="#C50000"/>
<path id="Vector_6" d="M251.804 509.006C252.696 509.006 253.464 509.193 254.052 509.627H254.051C254.642 510.059 254.99 510.659 255.087 511.392L255.157 511.924L254.622 511.957L253.588 512.019C253.992 512.159 254.339 512.348 254.611 512.599C255.037 512.994 255.24 513.514 255.24 514.108C255.24 514.642 255.079 515.127 254.755 515.542L254.756 515.543C254.445 515.946 254.026 516.248 253.521 516.458H253.52C253.014 516.666 252.445 516.764 251.825 516.764C250.894 516.764 250.092 516.571 249.467 516.133L249.464 516.131C248.84 515.687 248.467 515.069 248.36 514.309L248.284 513.769L248.829 513.741L250.046 513.677C249.69 513.535 249.383 513.347 249.139 513.1L249.137 513.098C248.726 512.679 248.53 512.147 248.53 511.543C248.53 511.027 248.672 510.557 248.97 510.157L248.972 510.154C249.266 509.766 249.669 509.481 250.154 509.288H250.155C250.643 509.095 251.197 509.006 251.804 509.006ZM251.13 514.047C251.16 514.191 251.22 514.274 251.307 514.334L251.397 514.382C251.499 514.426 251.638 514.456 251.83 514.456C252.086 514.456 252.239 514.406 252.327 514.351C252.375 514.321 252.391 514.3 252.393 514.296V514.294C252.391 514.291 252.387 514.287 252.38 514.282L252.376 514.278C252.341 514.251 252.265 514.209 252.123 514.169L251.958 514.13L251.113 513.961L251.13 514.047ZM251.834 511.293C251.623 511.293 251.483 511.337 251.385 511.397L251.38 511.4C251.351 511.418 251.338 511.431 251.333 511.436V511.444C251.335 511.447 251.339 511.451 251.346 511.458C251.373 511.481 251.484 511.546 251.761 511.606L252.456 511.746L252.439 511.658C252.427 511.598 252.402 511.545 252.36 511.494L252.356 511.49C252.318 511.443 252.261 511.396 252.172 511.356L252.162 511.351C252.093 511.319 251.989 511.293 251.834 511.293Z" fill="white" stroke="#C50000"/>
<path id="Vector_7" d="M248.191 506.909V516.637H245.375V506.909H248.191Z" fill="white" stroke="#C50000"/>
<path id="Vector_8" d="M241.689 509.006C242.092 509.006 242.481 509.053 242.857 509.149L242.856 509.15C243.242 509.248 243.593 509.402 243.905 509.617H243.906C244.233 509.841 244.493 510.132 244.681 510.482C244.879 510.849 244.967 511.268 244.967 511.721V516.637H242.245V516.399C242.108 516.479 241.961 516.548 241.805 516.603L241.8 516.605V516.604C241.49 516.711 241.147 516.76 240.781 516.76C240.305 516.76 239.862 516.677 239.462 516.5L239.458 516.498C239.05 516.313 238.716 516.035 238.472 515.667L238.469 515.662C238.218 515.273 238.108 514.812 238.108 514.308C238.108 513.886 238.186 513.493 238.368 513.154C238.541 512.836 238.778 512.574 239.079 512.377C239.304 512.23 239.549 512.115 239.813 512.029L238.797 511.947L238.23 511.901L238.349 511.345C238.451 510.87 238.654 510.448 238.962 510.091C239.27 509.731 239.662 509.462 240.124 509.279V509.28C240.592 509.093 241.117 509.006 241.689 509.006ZM241.816 513.843L241.805 513.845C241.684 513.861 241.573 513.876 241.475 513.89C241.295 513.917 241.153 513.957 241.042 514.005C240.948 514.045 240.9 514.089 240.873 514.124L240.869 514.129C240.861 514.139 240.842 514.168 240.842 514.249C240.842 514.351 240.868 514.383 240.9 514.407C240.978 514.462 241.101 514.507 241.301 514.507C241.498 514.507 241.651 514.469 241.774 514.407C241.907 514.337 242.002 514.249 242.069 514.145C242.13 514.049 242.164 513.938 242.164 513.797V513.782C242.048 513.803 241.932 513.824 241.816 513.843ZM241.68 511.331C241.424 511.331 241.281 511.388 241.2 511.448L241.197 511.451C241.086 511.532 241.027 511.622 240.997 511.724L240.975 511.8L241.019 511.795C241.393 511.756 241.689 511.72 241.911 511.687C242.009 511.672 242.082 511.655 242.136 511.638C242.14 511.636 242.144 511.634 242.148 511.633C242.14 511.511 242.104 511.461 242.069 511.43L242.066 511.428C242.019 511.387 241.915 511.331 241.68 511.331Z" fill="white" stroke="#C50000"/>
<path id="Vector_9" d="M237.072 506.5C237.376 506.5 237.662 506.523 237.927 506.572L237.926 506.573C238.162 506.617 238.358 506.658 238.499 506.7L238.95 506.836L238.842 507.295L238.518 508.658L238.415 509.091H238.54V511.454H237.235V516.637H234.425V511.454H233.5V509.091H234.426C234.429 508.564 234.534 508.086 234.771 507.684L234.772 507.681H234.773C235.01 507.286 235.339 506.983 235.752 506.784C236.153 506.591 236.596 506.5 237.072 506.5ZM237.452 508.949C237.355 508.949 237.299 508.961 237.271 508.97L237.269 508.971C237.26 508.984 237.245 509.018 237.239 509.091H238.104L237.879 509.019C237.834 509.004 237.767 508.987 237.674 508.97H237.672C237.602 508.956 237.529 508.949 237.452 508.949Z" fill="white" stroke="#C50000"/>
</g>
</g>
<g id="main_body">
<g id="prev_block_connector">
<path id="Vector_10" d="M246.5 168H221V134H221.322L246.5 168Z" fill="#F0B43B"/>
<path id="Vector_11" d="M272 168H246.5L271.678 134H272V168Z" fill="#F0B43B"/>
</g>
<path id="block_body" d="M133 168H361V227H133V168Z" fill="#F0B43B"/>
</g>
</g>
<g id="block_input">
<path id="times" d="M275.206 193.455V194.818H271.264V193.455H275.206ZM272.159 191.886H273.974V197.989C273.974 198.156 274 198.287 274.051 198.381C274.102 198.472 274.173 198.536 274.264 198.572C274.358 198.609 274.466 198.628 274.588 198.628C274.673 198.628 274.759 198.621 274.844 198.607C274.929 198.589 274.994 198.577 275.04 198.568L275.325 199.919C275.234 199.947 275.107 199.98 274.942 200.017C274.777 200.057 274.577 200.081 274.341 200.089C273.903 200.107 273.52 200.048 273.19 199.915C272.864 199.781 272.609 199.574 272.428 199.293C272.246 199.011 272.156 198.656 272.159 198.227V191.886ZM276.388 200V193.455H278.204V200H276.388ZM277.3 192.611C277.031 192.611 276.799 192.521 276.606 192.342C276.415 192.161 276.32 191.943 276.32 191.69C276.32 191.44 276.415 191.226 276.606 191.047C276.799 190.865 277.031 190.774 277.3 190.774C277.57 190.774 277.8 190.865 277.991 191.047C278.184 191.226 278.281 191.44 278.281 191.69C278.281 191.943 278.184 192.161 277.991 192.342C277.8 192.521 277.57 192.611 277.3 192.611ZM279.658 200V193.455H281.388V194.609H281.465C281.601 194.226 281.828 193.923 282.147 193.702C282.465 193.48 282.846 193.369 283.289 193.369C283.738 193.369 284.12 193.482 284.435 193.706C284.75 193.928 284.961 194.229 285.066 194.609H285.134C285.267 194.234 285.509 193.935 285.858 193.71C286.211 193.483 286.627 193.369 287.107 193.369C287.718 193.369 288.213 193.564 288.594 193.953C288.978 194.339 289.169 194.888 289.169 195.598V200H287.358V195.956C287.358 195.592 287.262 195.32 287.069 195.138C286.875 194.956 286.634 194.865 286.344 194.865C286.015 194.865 285.757 194.97 285.573 195.18C285.388 195.388 285.296 195.662 285.296 196.003V200H283.536V195.918C283.536 195.597 283.444 195.341 283.259 195.151C283.077 194.96 282.837 194.865 282.539 194.865C282.337 194.865 282.155 194.916 281.993 195.018C281.834 195.118 281.708 195.259 281.614 195.44C281.52 195.619 281.473 195.83 281.473 196.071V200H279.658ZM293.586 200.128C292.913 200.128 292.333 199.991 291.848 199.719C291.365 199.443 290.993 199.054 290.731 198.551C290.47 198.045 290.339 197.447 290.339 196.757C290.339 196.084 290.47 195.493 290.731 194.984C290.993 194.476 291.36 194.08 291.835 193.795C292.312 193.511 292.872 193.369 293.514 193.369C293.946 193.369 294.348 193.439 294.72 193.578C295.095 193.714 295.422 193.92 295.7 194.196C295.981 194.472 296.2 194.818 296.356 195.236C296.512 195.651 296.591 196.136 296.591 196.693V197.192H291.064V196.067H294.882C294.882 195.805 294.825 195.574 294.711 195.372C294.598 195.17 294.44 195.013 294.238 194.899C294.039 194.783 293.808 194.724 293.544 194.724C293.268 194.724 293.024 194.788 292.811 194.916C292.6 195.041 292.436 195.21 292.316 195.423C292.197 195.634 292.136 195.868 292.133 196.126V197.196C292.133 197.52 292.193 197.8 292.312 198.036C292.434 198.271 292.606 198.453 292.828 198.581C293.049 198.709 293.312 198.773 293.616 198.773C293.818 198.773 294.002 198.744 294.17 198.688C294.338 198.631 294.481 198.545 294.6 198.432C294.72 198.318 294.811 198.179 294.873 198.014L296.552 198.125C296.467 198.528 296.292 198.881 296.028 199.182C295.767 199.48 295.429 199.713 295.014 199.881C294.602 200.045 294.126 200.128 293.586 200.128ZM303.221 195.321L301.559 195.423C301.531 195.281 301.47 195.153 301.376 195.04C301.282 194.923 301.159 194.831 301.005 194.763C300.855 194.692 300.674 194.656 300.464 194.656C300.183 194.656 299.946 194.716 299.752 194.835C299.559 194.952 299.463 195.108 299.463 195.304C299.463 195.46 299.525 195.592 299.65 195.7C299.775 195.808 299.99 195.895 300.294 195.96L301.478 196.199C302.115 196.33 302.589 196.54 302.902 196.83C303.214 197.119 303.37 197.5 303.37 197.972C303.37 198.401 303.244 198.777 302.991 199.101C302.741 199.425 302.397 199.678 301.96 199.859C301.525 200.038 301.024 200.128 300.456 200.128C299.589 200.128 298.899 199.947 298.385 199.587C297.873 199.223 297.574 198.729 297.485 198.104L299.271 198.01C299.325 198.274 299.456 198.476 299.663 198.615C299.87 198.751 300.136 198.82 300.46 198.82C300.778 198.82 301.034 198.759 301.227 198.636C301.423 198.511 301.522 198.351 301.525 198.155C301.522 197.99 301.453 197.855 301.316 197.75C301.18 197.642 300.97 197.56 300.686 197.503L299.552 197.277C298.913 197.149 298.437 196.928 298.125 196.612C297.815 196.297 297.66 195.895 297.66 195.406C297.66 194.986 297.774 194.624 298.001 194.32C298.231 194.016 298.554 193.781 298.968 193.616C299.386 193.452 299.875 193.369 300.434 193.369C301.261 193.369 301.912 193.544 302.386 193.893C302.863 194.243 303.142 194.719 303.221 195.321Z" fill="#FFFEFE"/>
<rect id="input_constant" x="234" y="184" width="29" height="24" rx="10" fill="white"/>
<path id="repeat" d="M185.724 200V193.455H187.484V194.597H187.553C187.672 194.19 187.872 193.884 188.153 193.676C188.435 193.466 188.759 193.361 189.125 193.361C189.216 193.361 189.314 193.366 189.419 193.378C189.524 193.389 189.616 193.405 189.696 193.425V195.036C189.611 195.01 189.493 194.987 189.342 194.967C189.192 194.947 189.054 194.938 188.929 194.938C188.662 194.938 188.423 194.996 188.213 195.112C188.006 195.226 187.841 195.385 187.719 195.589C187.599 195.794 187.54 196.03 187.54 196.297V200H185.724ZM193.313 200.128C192.64 200.128 192.06 199.991 191.574 199.719C191.091 199.443 190.719 199.054 190.458 198.551C190.196 198.045 190.066 197.447 190.066 196.757C190.066 196.084 190.196 195.493 190.458 194.984C190.719 194.476 191.087 194.08 191.561 193.795C192.039 193.511 192.598 193.369 193.24 193.369C193.672 193.369 194.074 193.439 194.446 193.578C194.821 193.714 195.148 193.92 195.426 194.196C195.708 194.472 195.926 194.818 196.083 195.236C196.239 195.651 196.317 196.136 196.317 196.693V197.192H190.79V196.067H194.608C194.608 195.805 194.551 195.574 194.438 195.372C194.324 195.17 194.167 195.013 193.965 194.899C193.766 194.783 193.534 194.724 193.27 194.724C192.995 194.724 192.75 194.788 192.537 194.916C192.327 195.041 192.162 195.21 192.043 195.423C191.924 195.634 191.863 195.868 191.86 196.126V197.196C191.86 197.52 191.919 197.8 192.039 198.036C192.161 198.271 192.333 198.453 192.554 198.581C192.776 198.709 193.039 198.773 193.343 198.773C193.544 198.773 193.729 198.744 193.897 198.688C194.064 198.631 194.208 198.545 194.327 198.432C194.446 198.318 194.537 198.179 194.6 198.014L196.279 198.125C196.194 198.528 196.019 198.881 195.755 199.182C195.493 199.48 195.155 199.713 194.74 199.881C194.328 200.045 193.853 200.128 193.313 200.128ZM197.502 202.455V193.455H199.292V194.554H199.373C199.452 194.378 199.567 194.199 199.718 194.017C199.871 193.832 200.07 193.679 200.314 193.557C200.561 193.432 200.868 193.369 201.235 193.369C201.712 193.369 202.152 193.494 202.556 193.744C202.959 193.991 203.282 194.365 203.523 194.865C203.765 195.362 203.885 195.986 203.885 196.736C203.885 197.466 203.767 198.082 203.532 198.585C203.299 199.085 202.98 199.464 202.577 199.723C202.176 199.979 201.728 200.107 201.23 200.107C200.878 200.107 200.578 200.048 200.331 199.932C200.087 199.815 199.887 199.669 199.73 199.493C199.574 199.314 199.455 199.134 199.373 198.952H199.317V202.455H197.502ZM199.279 196.727C199.279 197.116 199.333 197.456 199.441 197.746C199.549 198.036 199.705 198.261 199.909 198.423C200.114 198.582 200.363 198.662 200.655 198.662C200.951 198.662 201.201 198.581 201.405 198.419C201.61 198.254 201.765 198.027 201.87 197.737C201.978 197.445 202.032 197.108 202.032 196.727C202.032 196.349 201.979 196.017 201.874 195.73C201.769 195.443 201.614 195.219 201.409 195.057C201.205 194.895 200.953 194.814 200.655 194.814C200.36 194.814 200.11 194.892 199.905 195.048C199.703 195.205 199.549 195.426 199.441 195.713C199.333 196 199.279 196.338 199.279 196.727ZM208.078 200.128C207.405 200.128 206.826 199.991 206.34 199.719C205.857 199.443 205.485 199.054 205.223 198.551C204.962 198.045 204.831 197.447 204.831 196.757C204.831 196.084 204.962 195.493 205.223 194.984C205.485 194.476 205.853 194.08 206.327 193.795C206.804 193.511 207.364 193.369 208.006 193.369C208.438 193.369 208.84 193.439 209.212 193.578C209.587 193.714 209.914 193.92 210.192 194.196C210.473 194.472 210.692 194.818 210.848 195.236C211.005 195.651 211.083 196.136 211.083 196.693V197.192H205.556V196.067H209.374C209.374 195.805 209.317 195.574 209.203 195.372C209.09 195.17 208.932 195.013 208.73 194.899C208.532 194.783 208.3 194.724 208.036 194.724C207.76 194.724 207.516 194.788 207.303 194.916C207.093 195.041 206.928 195.21 206.809 195.423C206.689 195.634 206.628 195.868 206.625 196.126V197.196C206.625 197.52 206.685 197.8 206.804 198.036C206.926 198.271 207.098 198.453 207.32 198.581C207.542 198.709 207.804 198.773 208.108 198.773C208.31 198.773 208.495 198.744 208.662 198.688C208.83 198.631 208.973 198.545 209.093 198.432C209.212 198.318 209.303 198.179 209.365 198.014L211.044 198.125C210.959 198.528 210.784 198.881 210.52 199.182C210.259 199.48 209.921 199.713 209.506 199.881C209.094 200.045 208.618 200.128 208.078 200.128ZM214.134 200.124C213.716 200.124 213.344 200.051 213.017 199.906C212.691 199.759 212.432 199.541 212.242 199.254C212.054 198.964 211.961 198.604 211.961 198.172C211.961 197.808 212.027 197.503 212.161 197.256C212.294 197.009 212.476 196.81 212.706 196.659C212.936 196.509 213.198 196.395 213.49 196.318C213.786 196.241 214.096 196.188 214.419 196.156C214.8 196.116 215.107 196.08 215.34 196.045C215.573 196.009 215.742 195.955 215.847 195.884C215.952 195.812 216.005 195.707 216.005 195.568V195.543C216.005 195.273 215.919 195.064 215.749 194.916C215.581 194.768 215.343 194.695 215.033 194.695C214.706 194.695 214.446 194.767 214.253 194.912C214.06 195.054 213.932 195.233 213.87 195.449L212.191 195.312C212.276 194.915 212.444 194.571 212.694 194.281C212.944 193.989 213.266 193.764 213.661 193.608C214.059 193.449 214.519 193.369 215.042 193.369C215.405 193.369 215.753 193.412 216.086 193.497C216.421 193.582 216.718 193.714 216.976 193.893C217.238 194.072 217.444 194.303 217.594 194.584C217.745 194.862 217.82 195.196 217.82 195.585V200H216.098V199.092H216.047C215.942 199.297 215.801 199.477 215.625 199.634C215.449 199.787 215.238 199.908 214.99 199.996C214.743 200.081 214.458 200.124 214.134 200.124ZM214.654 198.871C214.921 198.871 215.157 198.818 215.361 198.713C215.566 198.605 215.726 198.46 215.843 198.278C215.959 198.097 216.017 197.891 216.017 197.661V196.966C215.961 197.003 215.882 197.037 215.783 197.068C215.686 197.097 215.577 197.124 215.455 197.149C215.333 197.172 215.211 197.193 215.088 197.213C214.966 197.23 214.855 197.246 214.756 197.26C214.543 197.291 214.357 197.341 214.198 197.409C214.039 197.477 213.915 197.57 213.827 197.686C213.739 197.8 213.695 197.942 213.695 198.112C213.695 198.359 213.784 198.548 213.963 198.679C214.145 198.807 214.375 198.871 214.654 198.871ZM222.71 193.455V194.818H218.768V193.455H222.71ZM219.663 191.886H221.478V197.989C221.478 198.156 221.504 198.287 221.555 198.381C221.606 198.472 221.677 198.536 221.768 198.572C221.862 198.609 221.97 198.628 222.092 198.628C222.177 198.628 222.262 198.621 222.348 198.607C222.433 198.589 222.498 198.577 222.544 198.568L222.829 199.919C222.738 199.947 222.61 199.98 222.446 200.017C222.281 200.057 222.081 200.081 221.845 200.089C221.407 200.107 221.024 200.048 220.694 199.915C220.368 199.781 220.113 199.574 219.931 199.293C219.75 199.011 219.66 198.656 219.663 198.227V191.886Z" fill="white"/>
</g>
</g>
</svg>
