<svg width="1155" height="699" viewBox="0 0 1155 699" fill="none" xmlns="http://www.w3.org/2000/svg">
<g id="repeat_until">
<g id="block_shape">
<g id="loop_ender">
<g id="loop_back_bottom">
<path d="M528.5 421H503V387H503.322L528.5 421Z" fill="#F0B43B"/>
<path d="M554 421H528.5L553.678 387H554V421Z" fill="#F0B43B"/>
<path d="M469 421H589V446H469V421Z" fill="#F0B43B"/>
<path d="M541 443H519V483H541V443Z" fill="#F0B43B"/>
<path d="M312 476V498H541V476H312Z" fill="#F0B43B"/>
</g>
<g id="loop_back_arrow">
<path id="loop_back_arrowbody" d="M334 498H312V254.149H334V498Z" fill="#F0B43B"/>
<path id="loop_back_arrowhead" d="M323.548 227L349.096 261.06H298L323.548 227Z" fill="#F0B43B"/>
</g>
</g>
<g id="true_block_arrow">
<path id="true_block_arrowhead" d="M528.548 287.5L554.096 253H503L528.548 287.5Z" fill="#F0B43B"/>
<path id="true_block_arrowbody_vert" d="M540 186H518V253H540V186Z" fill="#F0B43B"/>
<path id="true_block_arrowbody_hor" d="M360 186V208H538V186H360Z" fill="#F0B43B"/>
<g id="true_text">
<path id="Vector" d="M449.674 193.869C450.16 193.869 450.622 193.948 451.055 194.11L451.054 194.111C451.493 194.271 451.881 194.513 452.21 194.839L452.333 194.968C452.612 195.276 452.828 195.643 452.985 196.06L453.048 196.244C453.186 196.681 453.25 197.167 453.25 197.694V198.659L453.321 198.664L453.201 199.229C453.099 199.713 452.886 200.143 452.564 200.51L452.565 200.511C452.246 200.875 451.839 201.151 451.362 201.344L451.36 201.345C450.877 201.538 450.336 201.628 449.746 201.628C449.005 201.628 448.338 201.477 447.763 201.154L447.76 201.154C447.192 200.829 446.752 200.368 446.448 199.781V199.78C446.142 199.19 445.999 198.51 445.999 197.757C445.999 197.018 446.143 196.347 446.447 195.756C446.749 195.167 447.181 194.7 447.739 194.366L447.74 194.365C448.305 194.029 448.956 193.869 449.674 193.869ZM448.916 198.806L448.981 198.913C449.051 199.013 449.136 199.089 449.238 199.148C449.37 199.224 449.544 199.273 449.777 199.273C449.931 199.273 450.061 199.251 450.17 199.214C450.274 199.179 450.353 199.129 450.416 199.07C450.477 199.011 450.528 198.937 450.566 198.837L450.621 198.692H448.868C448.883 198.732 448.899 198.77 448.916 198.806ZM449.703 196.225C449.508 196.225 449.355 196.269 449.228 196.345L449.227 196.346C449.127 196.405 449.045 196.478 448.979 196.567H450.403C450.338 196.47 450.257 196.394 450.153 196.335L450.146 196.33C450.034 196.265 449.892 196.225 449.703 196.225Z" fill="white" stroke="#0B9F00"/>
<path id="Vector_2" d="M441.614 193.955V198.294L441.629 198.496C441.656 198.676 441.719 198.794 441.795 198.877C441.892 198.984 442.024 199.051 442.248 199.051C442.387 199.051 442.512 199.02 442.63 198.958C442.731 198.903 442.817 198.82 442.889 198.698L442.892 198.693C442.953 198.591 442.998 198.442 442.996 198.218V193.955H445.811V201.5H443.068V201.131C443.06 201.137 443.053 201.143 443.045 201.148C442.606 201.448 442.087 201.585 441.514 201.585C440.999 201.585 440.523 201.467 440.103 201.216C439.685 200.966 439.362 200.611 439.135 200.166L439.134 200.164C438.907 199.713 438.802 199.194 438.799 198.624V193.955H441.614Z" fill="white" stroke="#0B9F00"/>
<path id="Vector_3" d="M438.86 196.707L438.217 196.514C438.169 196.5 438.081 196.482 437.941 196.463C437.808 196.446 437.692 196.438 437.593 196.438C437.401 196.438 437.247 196.478 437.119 196.549L437.117 196.55C436.988 196.621 436.889 196.717 436.812 196.846C436.745 196.964 436.704 197.11 436.704 197.297V201.5H433.888V193.955H436.648V194.187C436.989 193.969 437.373 193.861 437.789 193.861C437.9 193.861 438.016 193.867 438.137 193.88C438.258 193.893 438.374 193.913 438.481 193.94L438.86 194.035V196.707Z" fill="white" stroke="#0B9F00"/>
<path id="Vector_4" d="M432.474 192.386V193.955H433.706V196.318H432.474V198.989C432.474 199.048 432.478 199.089 432.483 199.116C432.508 199.122 432.543 199.128 432.588 199.128C432.646 199.128 432.703 199.123 432.761 199.113C432.84 199.097 432.902 199.085 432.948 199.077L433.428 198.987L433.529 199.464L433.814 200.816L433.909 201.26L433.474 201.396C433.365 201.43 433.225 201.465 433.058 201.503C432.851 201.552 432.616 201.579 432.359 201.589L432.36 201.589C431.868 201.609 431.411 201.544 431.003 201.379L431.002 201.378C430.586 201.208 430.248 200.936 430.007 200.564C429.76 200.181 429.655 199.723 429.659 199.224V196.318H428.764V193.955H429.659V192.386H432.474Z" fill="white" stroke="#0B9F00"/>
</g>
</g>
<g id="false_block_arrow">
<path id="false_block_arrowbody" d="M258 227H236V504H258V227Z" fill="#F0B43B"/>
<path id="false_block_arrowhead" d="M247.548 538.5L273.096 504H222L247.548 538.5Z" fill="#F0B43B"/>
<g id="false_text">
<path id="Vector_5" d="M258.794 509.006C259.28 509.006 259.742 509.084 260.175 509.246L260.174 509.247C260.613 509.407 261 509.65 261.33 509.975L261.453 510.104C261.732 510.413 261.948 510.779 262.104 511.196L262.168 511.381C262.306 511.818 262.37 512.303 262.37 512.83V513.796L262.44 513.801L262.321 514.365C262.219 514.849 262.005 515.279 261.683 515.646L261.684 515.647C261.365 516.011 260.959 516.287 260.481 516.48L260.479 516.481C259.997 516.674 259.456 516.764 258.866 516.764C258.125 516.764 257.457 516.613 256.883 516.291L256.88 516.29C256.312 515.966 255.872 515.504 255.567 514.918V514.917C255.262 514.327 255.119 513.647 255.119 512.893C255.119 512.155 255.263 511.483 255.566 510.892C255.869 510.304 256.301 509.836 256.858 509.503L256.859 509.502C257.425 509.165 258.076 509.006 258.794 509.006ZM258.036 513.942L258.1 514.05C258.17 514.149 258.256 514.225 258.357 514.284C258.49 514.36 258.663 514.409 258.896 514.409C259.051 514.409 259.181 514.387 259.29 514.35C259.394 514.315 259.473 514.266 259.536 514.206C259.597 514.147 259.648 514.073 259.685 513.973L259.741 513.828H257.988C258.002 513.869 258.018 513.907 258.036 513.942ZM258.823 511.361C258.628 511.361 258.474 511.405 258.347 511.481L258.346 511.482C258.247 511.541 258.165 511.614 258.098 511.703H259.522C259.458 511.606 259.376 511.53 259.272 511.471L259.265 511.467C259.154 511.401 259.012 511.361 258.823 511.361Z" fill="white" stroke="#C50000"/>
<path id="Vector_6" d="M251.804 509.006C252.696 509.006 253.464 509.193 254.052 509.627H254.051C254.642 510.059 254.99 510.659 255.087 511.392L255.157 511.924L254.622 511.957L253.588 512.019C253.992 512.159 254.339 512.348 254.611 512.599C255.037 512.994 255.24 513.514 255.24 514.108C255.24 514.642 255.079 515.127 254.755 515.542L254.756 515.543C254.445 515.946 254.026 516.248 253.521 516.458H253.52C253.014 516.666 252.445 516.764 251.825 516.764C250.894 516.764 250.092 516.571 249.467 516.133L249.464 516.131C248.84 515.687 248.467 515.069 248.36 514.309L248.284 513.769L248.829 513.741L250.046 513.677C249.69 513.535 249.383 513.347 249.139 513.1L249.137 513.098C248.726 512.679 248.53 512.147 248.53 511.543C248.53 511.027 248.672 510.557 248.97 510.157L248.972 510.154C249.266 509.766 249.669 509.481 250.154 509.288H250.155C250.643 509.095 251.197 509.006 251.804 509.006ZM251.13 514.047C251.16 514.191 251.22 514.274 251.307 514.334L251.397 514.382C251.499 514.426 251.638 514.456 251.83 514.456C252.086 514.456 252.239 514.406 252.327 514.351C252.375 514.321 252.391 514.3 252.393 514.296V514.294C252.391 514.291 252.387 514.287 252.38 514.282L252.376 514.278C252.341 514.251 252.265 514.209 252.123 514.169L251.958 514.13L251.113 513.961L251.13 514.047ZM251.834 511.293C251.623 511.293 251.483 511.337 251.385 511.397L251.38 511.4C251.351 511.418 251.338 511.431 251.333 511.436V511.444C251.335 511.447 251.339 511.451 251.346 511.458C251.373 511.481 251.484 511.546 251.761 511.606L252.456 511.746L252.439 511.658C252.427 511.598 252.402 511.545 252.36 511.494L252.356 511.49C252.318 511.443 252.261 511.396 252.172 511.356L252.162 511.351C252.093 511.319 251.989 511.293 251.834 511.293Z" fill="white" stroke="#C50000"/>
<path id="Vector_7" d="M248.191 506.909V516.637H245.375V506.909H248.191Z" fill="white" stroke="#C50000"/>
<path id="Vector_8" d="M241.689 509.006C242.092 509.006 242.481 509.053 242.857 509.149L242.856 509.15C243.242 509.248 243.593 509.402 243.904 509.617H243.905C244.233 509.841 244.493 510.132 244.681 510.482C244.879 510.849 244.967 511.268 244.967 511.721V516.637H242.245V516.399C242.108 516.479 241.961 516.548 241.805 516.603L241.8 516.605V516.604C241.49 516.711 241.147 516.76 240.78 516.76C240.305 516.76 239.862 516.677 239.462 516.5L239.458 516.498C239.05 516.313 238.716 516.035 238.472 515.667L238.469 515.662C238.217 515.273 238.108 514.812 238.108 514.308C238.108 513.886 238.185 513.493 238.368 513.154C238.54 512.836 238.778 512.574 239.079 512.377C239.304 512.23 239.549 512.115 239.813 512.029L238.797 511.947L238.23 511.901L238.349 511.345C238.45 510.87 238.654 510.448 238.962 510.091C239.27 509.731 239.662 509.462 240.124 509.279V509.28C240.592 509.093 241.117 509.006 241.689 509.006ZM241.816 513.843L241.805 513.845C241.684 513.861 241.573 513.876 241.475 513.89C241.295 513.917 241.153 513.957 241.042 514.005C240.948 514.045 240.9 514.089 240.873 514.124L240.869 514.129C240.861 514.139 240.842 514.168 240.842 514.249C240.842 514.351 240.868 514.383 240.9 514.407C240.978 514.462 241.101 514.507 241.301 514.507C241.498 514.507 241.651 514.469 241.774 514.407C241.907 514.337 242.002 514.249 242.069 514.145C242.13 514.049 242.164 513.938 242.164 513.797V513.782C242.048 513.803 241.932 513.824 241.816 513.843ZM241.68 511.331C241.424 511.331 241.281 511.388 241.2 511.448L241.196 511.451C241.086 511.532 241.027 511.622 240.997 511.724L240.975 511.8L241.019 511.795C241.392 511.756 241.689 511.72 241.911 511.687C242.009 511.672 242.082 511.655 242.136 511.638C242.14 511.636 242.144 511.634 242.148 511.633C242.14 511.511 242.104 511.461 242.069 511.43L242.066 511.428C242.019 511.387 241.915 511.331 241.68 511.331Z" fill="white" stroke="#C50000"/>
<path id="Vector_9" d="M237.072 506.5C237.376 506.5 237.662 506.523 237.927 506.572L237.926 506.573C238.162 506.617 238.358 506.658 238.499 506.7L238.95 506.836L238.842 507.295L238.518 508.658L238.415 509.091H238.54V511.454H237.235V516.637H234.425V511.454H233.5V509.091H234.426C234.429 508.564 234.534 508.086 234.771 507.684L234.772 507.681H234.773C235.01 507.286 235.339 506.983 235.752 506.784C236.153 506.591 236.596 506.5 237.072 506.5ZM237.452 508.949C237.355 508.949 237.299 508.961 237.271 508.97L237.269 508.971C237.26 508.984 237.245 509.018 237.239 509.091H238.104L237.879 509.019C237.834 509.004 237.767 508.987 237.674 508.97H237.672C237.602 508.956 237.529 508.949 237.452 508.949Z" fill="white" stroke="#C50000"/>
</g>
</g>
<g id="main_body">
<g id="prev_block_connector">
<path id="Vector_10" d="M246.5 168H221V134H221.322L246.5 168Z" fill="#F0B43B"/>
<path id="Vector_11" d="M272 168H246.5L271.678 134H272V168Z" fill="#F0B43B"/>
</g>
<path id="block_body" d="M133 168H361V227H133V168Z" fill="#F0B43B"/>
</g>
</g>
<g id="block_input">
<g id="repeat_until_text">
<path id="Vector_12" d="M211.624 191.273V200H209.809V191.273H211.624Z" fill="white"/>
<path id="Vector_13" d="M206.539 200V193.455H208.354V200H206.539ZM207.451 192.611C207.181 192.611 206.95 192.521 206.756 192.342C206.566 192.161 206.471 191.943 206.471 191.69C206.471 191.44 206.566 191.226 206.756 191.047C206.95 190.865 207.181 190.774 207.451 190.774C207.721 190.774 207.951 190.865 208.141 191.047C208.335 191.226 208.431 191.44 208.431 191.69C208.431 191.943 208.335 192.161 208.141 192.342C207.951 192.521 207.721 192.611 207.451 192.611Z" fill="white"/>
<path id="Vector_14" d="M205.357 193.455V194.818H201.415V193.455H205.357ZM202.31 191.886H204.125V197.989C204.125 198.156 204.151 198.287 204.202 198.381C204.253 198.472 204.324 198.536 204.415 198.572C204.509 198.609 204.616 198.628 204.739 198.628C204.824 198.628 204.909 198.621 204.994 198.607C205.08 198.589 205.145 198.577 205.19 198.568L205.476 199.919C205.385 199.947 205.257 199.98 205.092 200.017C204.928 200.057 204.727 200.081 204.491 200.089C204.054 200.107 203.67 200.048 203.341 199.915C203.014 199.781 202.76 199.574 202.578 199.293C202.396 199.011 202.307 198.656 202.31 198.227V191.886Z" fill="white"/>
<path id="Vector_15" d="M196.225 196.216V200H194.41V193.455H196.14V194.609H196.217C196.362 194.229 196.605 193.928 196.946 193.706C197.287 193.482 197.7 193.369 198.186 193.369C198.64 193.369 199.037 193.469 199.375 193.668C199.713 193.866 199.975 194.151 200.163 194.52C200.35 194.886 200.444 195.324 200.444 195.832V200H198.629V196.156C198.632 195.756 198.529 195.443 198.322 195.219C198.115 194.991 197.829 194.878 197.466 194.878C197.221 194.878 197.005 194.93 196.818 195.036C196.633 195.141 196.488 195.294 196.383 195.496C196.281 195.695 196.228 195.935 196.225 196.216Z" fill="white"/>
<path id="Vector_16" d="M191.143 197.213V193.455H192.958V200H191.215V198.811H191.147C190.999 199.195 190.754 199.503 190.41 199.736C190.069 199.969 189.653 200.085 189.161 200.085C188.724 200.085 188.339 199.986 188.006 199.787C187.674 199.588 187.414 199.305 187.227 198.939C187.042 198.572 186.948 198.134 186.945 197.622V193.455H188.761V197.298C188.763 197.685 188.867 197.99 189.072 198.215C189.276 198.439 189.55 198.551 189.894 198.551C190.113 198.551 190.317 198.501 190.508 198.402C190.698 198.3 190.852 198.149 190.968 197.95C191.087 197.751 191.146 197.506 191.143 197.213Z" fill="white"/>
<path id="Vector_17" d="M182.985 193.455V194.818H179.044V193.455H182.985ZM179.939 191.886H181.754V197.989C181.754 198.156 181.779 198.287 181.831 198.381C181.882 198.472 181.953 198.536 182.044 198.572C182.137 198.609 182.245 198.628 182.368 198.628C182.453 198.628 182.538 198.621 182.623 198.607C182.708 198.589 182.774 198.577 182.819 198.568L183.105 199.919C183.014 199.947 182.886 199.98 182.721 200.017C182.556 200.057 182.356 200.081 182.12 200.089C181.683 200.107 181.299 200.048 180.97 199.915C180.643 199.781 180.389 199.574 180.207 199.293C180.025 199.011 179.936 198.656 179.939 198.227V191.886Z" fill="white"/>
<path id="Vector_18" d="M174.409 200.124C173.992 200.124 173.62 200.051 173.293 199.906C172.966 199.759 172.708 199.541 172.517 199.254C172.33 198.964 172.236 198.604 172.236 198.172C172.236 197.808 172.303 197.503 172.436 197.256C172.57 197.009 172.752 196.81 172.982 196.659C173.212 196.509 173.473 196.395 173.766 196.318C174.061 196.241 174.371 196.188 174.695 196.156C175.076 196.116 175.382 196.08 175.615 196.045C175.848 196.009 176.017 195.955 176.123 195.884C176.228 195.813 176.28 195.707 176.28 195.568V195.543C176.28 195.273 176.195 195.064 176.024 194.916C175.857 194.768 175.618 194.695 175.309 194.695C174.982 194.695 174.722 194.767 174.529 194.912C174.336 195.054 174.208 195.233 174.145 195.449L172.466 195.313C172.551 194.915 172.719 194.571 172.969 194.281C173.219 193.989 173.542 193.764 173.936 193.608C174.334 193.449 174.794 193.369 175.317 193.369C175.681 193.369 176.029 193.412 176.361 193.497C176.696 193.582 176.993 193.714 177.252 193.893C177.513 194.072 177.719 194.303 177.87 194.584C178.02 194.862 178.096 195.196 178.096 195.585V200H176.374V199.092H176.323C176.218 199.297 176.077 199.477 175.901 199.634C175.725 199.787 175.513 199.908 175.266 199.996C175.019 200.081 174.733 200.124 174.409 200.124ZM174.929 198.871C175.196 198.871 175.432 198.818 175.637 198.713C175.841 198.605 176.002 198.46 176.118 198.278C176.235 198.097 176.293 197.891 176.293 197.661V196.966C176.236 197.003 176.158 197.037 176.059 197.068C175.962 197.097 175.853 197.124 175.73 197.149C175.608 197.172 175.486 197.193 175.364 197.213C175.242 197.23 175.131 197.246 175.032 197.26C174.819 197.291 174.632 197.341 174.473 197.409C174.314 197.477 174.191 197.57 174.103 197.686C174.015 197.8 173.971 197.942 173.971 198.112C173.971 198.359 174.06 198.548 174.239 198.679C174.421 198.807 174.651 198.871 174.929 198.871Z" fill="white"/>
<path id="Vector_19" d="M168.354 200.128C167.681 200.128 167.101 199.991 166.615 199.719C166.132 199.443 165.76 199.054 165.499 198.551C165.238 198.045 165.107 197.447 165.107 196.757C165.107 196.084 165.238 195.493 165.499 194.984C165.76 194.476 166.128 194.08 166.603 193.795C167.08 193.511 167.64 193.369 168.282 193.369C168.713 193.369 169.115 193.439 169.488 193.578C169.863 193.714 170.189 193.92 170.468 194.196C170.749 194.472 170.968 194.818 171.124 195.236C171.28 195.651 171.358 196.136 171.358 196.693V197.192H165.831V196.067H169.65C169.65 195.805 169.593 195.574 169.479 195.372C169.365 195.17 169.208 195.013 169.006 194.899C168.807 194.783 168.576 194.724 168.311 194.724C168.036 194.724 167.792 194.788 167.578 194.916C167.368 195.041 167.203 195.21 167.084 195.423C166.965 195.634 166.904 195.868 166.901 196.126V197.196C166.901 197.52 166.961 197.8 167.08 198.036C167.202 198.271 167.374 198.453 167.596 198.581C167.817 198.709 168.08 198.773 168.384 198.773C168.586 198.773 168.77 198.744 168.938 198.688C169.105 198.631 169.249 198.545 169.368 198.432C169.488 198.318 169.578 198.179 169.641 198.014L171.32 198.125C171.235 198.528 171.06 198.881 170.796 199.182C170.534 199.48 170.196 199.713 169.782 199.881C169.37 200.045 168.894 200.128 168.354 200.128Z" fill="white"/>
<path id="Vector_20" d="M157.777 202.455V193.455H159.567V194.554H159.648C159.728 194.378 159.843 194.199 159.993 194.017C160.147 193.832 160.346 193.679 160.59 193.557C160.837 193.432 161.144 193.369 161.51 193.369C161.988 193.369 162.428 193.494 162.831 193.744C163.235 193.991 163.557 194.365 163.799 194.865C164.04 195.362 164.161 195.986 164.161 196.736C164.161 197.466 164.043 198.082 163.807 198.585C163.574 199.085 163.256 199.464 162.853 199.723C162.452 199.979 162.003 200.107 161.506 200.107C161.154 200.107 160.854 200.048 160.607 199.932C160.363 199.815 160.162 199.669 160.006 199.493C159.85 199.314 159.73 199.134 159.648 198.952H159.593V202.455H157.777ZM159.554 196.727C159.554 197.116 159.608 197.456 159.716 197.746C159.824 198.036 159.98 198.261 160.185 198.423C160.39 198.582 160.638 198.662 160.931 198.662C161.226 198.662 161.476 198.581 161.681 198.419C161.885 198.254 162.04 198.027 162.145 197.737C162.253 197.445 162.307 197.108 162.307 196.727C162.307 196.349 162.255 196.017 162.15 195.73C162.044 195.443 161.89 195.219 161.685 195.057C161.48 194.895 161.229 194.814 160.931 194.814C160.635 194.814 160.385 194.892 160.181 195.048C159.979 195.205 159.824 195.426 159.716 195.713C159.608 196 159.554 196.338 159.554 196.727Z" fill="white"/>
<path id="Vector_21" d="M153.588 200.128C152.915 200.128 152.336 199.991 151.85 199.719C151.367 199.443 150.995 199.054 150.733 198.551C150.472 198.045 150.341 197.447 150.341 196.757C150.341 196.084 150.472 195.493 150.733 194.984C150.995 194.476 151.363 194.08 151.837 193.795C152.314 193.511 152.874 193.369 153.516 193.369C153.948 193.369 154.35 193.439 154.722 193.578C155.097 193.714 155.424 193.92 155.702 194.196C155.983 194.472 156.202 194.818 156.358 195.236C156.515 195.651 156.593 196.136 156.593 196.693V197.192H151.066V196.067H154.884C154.884 195.805 154.827 195.574 154.713 195.372C154.6 195.17 154.442 195.013 154.24 194.899C154.042 194.783 153.81 194.724 153.546 194.724C153.27 194.724 153.026 194.788 152.813 194.916C152.603 195.041 152.438 195.21 152.319 195.423C152.199 195.634 152.138 195.868 152.135 196.126V197.196C152.135 197.52 152.195 197.8 152.314 198.036C152.436 198.271 152.608 198.453 152.83 198.581C153.052 198.709 153.314 198.773 153.618 198.773C153.82 198.773 154.005 198.744 154.172 198.688C154.34 198.631 154.483 198.545 154.603 198.432C154.722 198.318 154.813 198.179 154.875 198.014L156.554 198.125C156.469 198.528 156.294 198.881 156.03 199.182C155.769 199.48 155.431 199.713 155.016 199.881C154.604 200.045 154.128 200.128 153.588 200.128Z" fill="white"/>
<path id="Vector_22" d="M146 200V193.455H147.76V194.597H147.828C147.947 194.19 148.148 193.884 148.429 193.676C148.71 193.466 149.034 193.361 149.401 193.361C149.491 193.361 149.589 193.366 149.695 193.378C149.8 193.389 149.892 193.405 149.972 193.425V195.036C149.886 195.01 149.768 194.987 149.618 194.967C149.467 194.947 149.33 194.938 149.205 194.938C148.938 194.938 148.699 194.996 148.489 195.112C148.281 195.226 148.116 195.385 147.994 195.59C147.875 195.794 147.815 196.03 147.815 196.297V200H146Z" fill="white"/>
</g>
<g id="input_boolean">
<path d="M231.451 186.331H335.1V207.669H231.451V186.331Z" fill="white"/>
<path d="M218.276 197L231.451 186V208L218.276 197Z" fill="white"/>
<path d="M348.276 197L335.1 208V186L348.276 197Z" fill="white"/>
</g>
</g>
</g>
</svg>
