<svg width="85" height="21" viewBox="0 0 85 21" fill="none" xmlns="http://www.w3.org/2000/svg">
<g id="and_operator" clip-path="url(#clip0_56_185)">
<path id="bbox" opacity="0.01" d="M85 0H0V21H85V0Z" fill="black"/>
<path id="capLeft" d="M0 10.5L6.375 0V21L0 10.5Z" fill="#66C56E"/>
<path id="bodyStretch" d="M78.625 0H6.375V21H78.625V0Z" fill="#66C56E"/>
<path id="capRight" d="M85 10.5L78.625 21V0L85 10.5Z" fill="#66C56E"/>
<g id="input:a">
<path id="anchor-input:a-left" opacity="0.01" d="M7.375 11.025C7.6684 11.025 7.90625 10.79 7.90625 10.5C7.90625 10.2101 7.6684 9.97501 7.375 9.97501C7.0816 9.97501 6.84375 10.2101 6.84375 10.5C6.84375 10.79 7.0816 11.025 7.375 11.025Z" fill="#D9D9D9"/>
<path id="anchor-input:a-right" opacity="0.01" d="M35 11.025C35.2934 11.025 35.5312 10.79 35.5312 10.5C35.5312 10.2101 35.2934 9.97501 35 9.97501C34.7066 9.97501 34.4688 10.2101 34.4688 10.5C34.4688 10.79 34.7066 11.025 35 11.025Z" fill="#D9D9D9"/>
<path id="box" opacity="0.01" d="M35 4.20001H7.375V16.8H35V4.20001Z" fill="#D9D9D9"/>
<path id="slotVisual" d="M7.375 10.5L11.625 4.20001H30.75L35 10.5L30.75 16.8H11.625L7.375 10.5Z" fill="white"/>
</g>
<g id="input:b">
<path id="anchor-input:b-left" opacity="0.01" d="M50 11.025C50.2934 11.025 50.5312 10.79 50.5312 10.5C50.5312 10.2101 50.2934 9.97501 50 9.97501C49.7066 9.97501 49.4688 10.2101 49.4688 10.5C49.4688 10.79 49.7066 11.025 50 11.025Z" fill="#D9D9D9"/>
<path id="anchor-input:b-right" opacity="0.01" d="M77.625 11.025C77.9184 11.025 78.1562 10.79 78.1562 10.5C78.1562 10.2101 77.9184 9.97501 77.625 9.97501C77.3316 9.97501 77.0938 10.2101 77.0938 10.5C77.0938 10.79 77.3316 11.025 77.625 11.025Z" fill="#D9D9D9"/>
<path id="box_2" opacity="0.01" d="M77.625 4.20001H50V16.8H77.625V4.20001Z" fill="#D9D9D9"/>
<path id="slotVisual_2" d="M50 10.5L54.25 4.20001H73.375L77.625 10.5L73.375 16.8H54.25L50 10.5Z" fill="white"/>
</g>
<path id="anchor:input-left" opacity="0.01" d="M0 11.025C0.293401 11.025 0.53125 10.79 0.53125 10.5C0.53125 10.2101 0.293401 9.97501 0 9.97501C-0.293401 9.97501 -0.53125 10.2101 -0.53125 10.5C-0.53125 10.79 -0.293401 11.025 0 11.025Z" fill="#D9D9D9"/>
<path id="anchor:input-right" opacity="0.01" d="M85 11.025C85.2934 11.025 85.5312 10.79 85.5312 10.5C85.5312 10.2101 85.2934 9.97501 85 9.97501C84.7066 9.97501 84.4688 10.2101 84.4688 10.5C84.4688 10.79 84.7066 11.025 85 11.025Z" fill="#D9D9D9"/>
<path id="text" d="M38.2955 13.0618C38.0866 13.0618 37.9006 13.0256 37.7372 12.9531C37.5739 12.8793 37.4446 12.7706 37.3494 12.6271C37.2557 12.4822 37.2088 12.3018 37.2088 12.0859C37.2088 11.9041 37.2422 11.7514 37.3089 11.6278C37.3757 11.5043 37.4666 11.4048 37.5817 11.3295C37.6967 11.2543 37.8274 11.1974 37.9737 11.1591C38.1214 11.1207 38.2763 11.0938 38.4382 11.0781C38.6286 11.0582 38.782 11.0398 38.8984 11.0227C39.0149 11.0043 39.0994 10.9773 39.152 10.9418C39.2045 10.9062 39.2308 10.8537 39.2308 10.7841V10.7713C39.2308 10.6364 39.1882 10.532 39.103 10.4581C39.0192 10.3842 38.8999 10.3473 38.745 10.3473C38.5817 10.3473 38.4517 10.3835 38.3551 10.456C38.2585 10.527 38.1946 10.6165 38.1634 10.7244L37.3239 10.6562C37.3665 10.4574 37.4503 10.2855 37.5753 10.1406C37.7003 9.99432 37.8615 9.8821 38.0589 9.80398C38.2578 9.72443 38.4879 9.68466 38.7493 9.68466C38.9311 9.68466 39.1051 9.70597 39.2713 9.74858C39.4389 9.79119 39.5874 9.85724 39.7166 9.94673C39.8473 10.0362 39.9503 10.1513 40.0256 10.2919C40.1009 10.4311 40.1385 10.598 40.1385 10.7926V13H39.2777V12.5462H39.2521C39.1996 12.6484 39.1293 12.7386 39.0412 12.8168C38.9531 12.8935 38.8473 12.9538 38.7237 12.9979C38.6001 13.0405 38.4574 13.0618 38.2955 13.0618ZM38.5554 12.4354C38.6889 12.4354 38.8068 12.4091 38.9091 12.3565C39.0114 12.3026 39.0916 12.2301 39.1499 12.1392C39.2081 12.0483 39.2372 11.9453 39.2372 11.8303V11.483C39.2088 11.5014 39.1697 11.5185 39.12 11.5341C39.0717 11.5483 39.017 11.5618 38.956 11.5746C38.8949 11.5859 38.8338 11.5966 38.7727 11.6065C38.7116 11.6151 38.6562 11.6229 38.6065 11.63C38.5 11.6456 38.407 11.6705 38.3274 11.7045C38.2479 11.7386 38.1861 11.7848 38.142 11.843C38.098 11.8999 38.076 11.9709 38.076 12.0561C38.076 12.1797 38.1207 12.2741 38.2102 12.3395C38.3011 12.4034 38.4162 12.4354 38.5554 12.4354ZM41.7504 11.108V13H40.8427V9.72727H41.7077V10.3047H41.7461C41.8185 10.1143 41.94 9.96378 42.1104 9.85298C42.2809 9.74077 42.4876 9.68466 42.7305 9.68466C42.9577 9.68466 43.1559 9.73438 43.3249 9.83381C43.494 9.93324 43.6254 10.0753 43.7191 10.2599C43.8129 10.4432 43.8597 10.6619 43.8597 10.9162V13H42.9521V11.0781C42.9535 10.8778 42.9023 10.7216 42.7987 10.6094C42.695 10.4957 42.5522 10.4389 42.3704 10.4389C42.2482 10.4389 42.1403 10.4652 42.0465 10.5178C41.9542 10.5703 41.8817 10.647 41.8292 10.7479C41.7781 10.8473 41.7518 10.9673 41.7504 11.108ZM45.7811 13.0533C45.5325 13.0533 45.3074 12.9893 45.1056 12.8615C44.9054 12.7322 44.7463 12.5426 44.6284 12.2926C44.5119 12.0412 44.4537 11.733 44.4537 11.3679C44.4537 10.9929 44.514 10.6811 44.6348 10.4325C44.7555 10.1825 44.916 9.99574 45.1163 9.87216C45.318 9.74716 45.5389 9.68466 45.7789 9.68466C45.9622 9.68466 46.1149 9.71591 46.237 9.77841C46.3606 9.83949 46.46 9.91619 46.5353 10.0085C46.612 10.0994 46.6703 10.1889 46.71 10.277H46.7377V8.63636H47.6433V13H46.7484V12.4759H46.71C46.6674 12.5668 46.6071 12.657 46.5289 12.7464C46.4522 12.8345 46.3521 12.9077 46.2285 12.9659C46.1064 13.0241 45.9572 13.0533 45.7811 13.0533ZM46.0687 12.331C46.215 12.331 46.3386 12.2912 46.4395 12.2116C46.5417 12.1307 46.6199 12.0178 46.6738 11.8729C46.7292 11.728 46.7569 11.5582 46.7569 11.3636C46.7569 11.169 46.7299 11 46.676 10.8565C46.622 10.7131 46.5439 10.6023 46.4416 10.5241C46.3393 10.446 46.215 10.407 46.0687 10.407C45.9196 10.407 45.7939 10.4474 45.6916 10.5284C45.5893 10.6094 45.5119 10.7216 45.4593 10.8651C45.4068 11.0085 45.3805 11.1747 45.3805 11.3636C45.3805 11.554 45.4068 11.7223 45.4593 11.8686C45.5133 12.0135 45.5907 12.1271 45.6916 12.2095C45.7939 12.2905 45.9196 12.331 46.0687 12.331Z" fill="white"/>
</g>
<defs>
<clipPath id="clip0_56_185">
<rect width="85" height="21" fill="white"/>
</clipPath>
</defs>
</svg>
