<svg width="86" height="32" viewBox="0 0 86 32" fill="none" xmlns="http://www.w3.org/2000/svg">
<path d="M0 16L7 0V32L0 16Z" fill="white"/>
<path d="M86 16L79 32V0L86 16Z" fill="white"/>
<path d="M79 0H7V32H79V0Z" fill="white"/>
<path d="M2 16L9 2V30L2 16Z" fill="#6BC161"/>
<path d="M84 16L77 30V2L84 16Z" fill="#6BC161"/>
<path d="M77 2H9V30H77V2Z" fill="#6BC161"/>
<path opacity="0.01" d="M7.53125 16.825C7.82465 16.825 8.0625 16.59 8.0625 16.3C8.0625 16.0101 7.82465 15.775 7.53125 15.775C7.23785 15.775 7 16.0101 7 16.3C7 16.59 7.23785 16.825 7.53125 16.825Z" fill="#D9D9D9"/>
<path opacity="0.01" d="M35.1562 16.825C35.4497 16.825 35.6875 16.59 35.6875 16.3C35.6875 16.0101 35.4497 15.775 35.1562 15.775C34.8628 15.775 34.625 16.0101 34.625 16.3C34.625 16.59 34.8628 16.825 35.1562 16.825Z" fill="#D9D9D9"/>
<path opacity="0.01" d="M35.1563 10H7.53125V22.6H35.1563V10Z" fill="#D9D9D9"/>
<path d="M7.53125 16.3L11.7813 10H30.9063L35.1563 16.3L30.9063 22.6H11.7813L7.53125 16.3Z" fill="white"/>
<path opacity="0.01" d="M50.1562 16.825C50.4497 16.825 50.6875 16.59 50.6875 16.3C50.6875 16.0101 50.4497 15.775 50.1562 15.775C49.8628 15.775 49.625 16.0101 49.625 16.3C49.625 16.59 49.8628 16.825 50.1562 16.825Z" fill="#D9D9D9"/>
<path opacity="0.01" d="M77.7812 16.825C78.0747 16.825 78.3125 16.59 78.3125 16.3C78.3125 16.0101 78.0747 15.775 77.7812 15.775C77.4878 15.775 77.25 16.0101 77.25 16.3C77.25 16.59 77.4878 16.825 77.7812 16.825Z" fill="#D9D9D9"/>
<path opacity="0.01" d="M77.7813 10H50.1562V22.6H77.7813V10Z" fill="#D9D9D9"/>
<path d="M50.1562 16.3L54.4063 10H73.5313L77.7813 16.3L73.5313 22.6H54.4063L50.1562 16.3Z" fill="white"/>
<path d="M38.4517 17.8618C38.2429 17.8618 38.0568 17.8256 37.8935 17.7531C37.7301 17.6792 37.6009 17.5706 37.5057 17.4271C37.4119 17.2822 37.3651 17.1018 37.3651 16.8859C37.3651 16.7041 37.3984 16.5514 37.4652 16.4278C37.532 16.3042 37.6229 16.2048 37.7379 16.1295C37.853 16.0542 37.9837 15.9974 38.13 15.9591C38.2777 15.9207 38.4325 15.8937 38.5945 15.8781C38.7848 15.8582 38.9382 15.8398 39.0547 15.8227C39.1712 15.8042 39.2557 15.7773 39.3082 15.7417C39.3608 15.7062 39.3871 15.6537 39.3871 15.5841V15.5713C39.3871 15.4364 39.3445 15.3319 39.2592 15.2581C39.1754 15.1842 39.0561 15.1473 38.9013 15.1473C38.7379 15.1473 38.608 15.1835 38.5114 15.256C38.4148 15.327 38.3509 15.4165 38.3196 15.5244L37.4801 15.4562C37.5227 15.2574 37.6065 15.0855 37.7315 14.9406C37.8565 14.7943 38.0178 14.6821 38.2152 14.604C38.4141 14.5244 38.6442 14.4846 38.9055 14.4846C39.0874 14.4846 39.2614 14.506 39.4276 14.5486C39.5952 14.5912 39.7436 14.6572 39.8729 14.7467C40.0036 14.8362 40.1065 14.9513 40.1818 15.0919C40.2571 15.2311 40.2947 15.398 40.2947 15.5926V17.8H39.4339V17.3462H39.4084C39.3558 17.4484 39.2855 17.5386 39.1974 17.6167C39.1094 17.6935 39.0036 17.7538 38.88 17.7979C38.7564 17.8405 38.6136 17.8618 38.4517 17.8618ZM38.7116 17.2354C38.8452 17.2354 38.9631 17.2091 39.0653 17.1565C39.1676 17.1025 39.2479 17.0301 39.3061 16.9392C39.3643 16.8483 39.3935 16.7453 39.3935 16.6302V16.2829C39.3651 16.3014 39.326 16.3185 39.2763 16.3341C39.228 16.3483 39.1733 16.3618 39.1122 16.3746C39.0511 16.3859 38.9901 16.3966 38.929 16.4065C38.8679 16.415 38.8125 16.4229 38.7628 16.43C38.6563 16.4456 38.5632 16.4704 38.4837 16.5045C38.4041 16.5386 38.3423 16.5848 38.2983 16.643C38.2543 16.6998 38.2322 16.7709 38.2322 16.8561C38.2322 16.9797 38.277 17.0741 38.3665 17.1395C38.4574 17.2034 38.5724 17.2354 38.7116 17.2354ZM41.9066 15.9079V17.8H40.9989V14.5273H41.864V15.1047H41.9023C41.9748 14.9143 42.0962 14.7638 42.2667 14.653C42.4371 14.5408 42.6438 14.4846 42.8867 14.4846C43.114 14.4846 43.3121 14.5344 43.4812 14.6338C43.6502 14.7332 43.7816 14.8753 43.8754 15.0599C43.9691 15.2432 44.016 15.4619 44.016 15.7162V17.8H43.1083V15.8781C43.1097 15.6778 43.0586 15.5216 42.9549 15.4094C42.8512 15.2957 42.7085 15.2389 42.5266 15.2389C42.4045 15.2389 42.2965 15.2652 42.2028 15.3177C42.1104 15.3703 42.038 15.447 41.9854 15.5479C41.9343 15.6473 41.908 15.7673 41.9066 15.9079ZM45.9373 17.8533C45.6887 17.8533 45.4636 17.7893 45.2619 17.6615C45.0616 17.5322 44.9025 17.3426 44.7846 17.0926C44.6681 16.8412 44.6099 16.5329 44.6099 16.1679C44.6099 15.7929 44.6703 15.4811 44.791 15.2325C44.9118 14.9825 45.0723 14.7957 45.2725 14.6721C45.4743 14.5471 45.6951 14.4846 45.9352 14.4846C46.1184 14.4846 46.2711 14.5159 46.3933 14.5784C46.5169 14.6395 46.6163 14.7162 46.6916 14.8085C46.7683 14.8994 46.8265 14.9889 46.8663 15.077H46.894V13.4364H47.7995V17.8H46.9047V17.2758H46.8663C46.8237 17.3667 46.7633 17.4569 46.6852 17.5464C46.6085 17.6345 46.5083 17.7077 46.3848 17.7659C46.2626 17.8241 46.1135 17.8533 45.9373 17.8533ZM46.225 17.131C46.3713 17.131 46.4949 17.0912 46.5957 17.0116C46.698 16.9307 46.7761 16.8177 46.8301 16.6729C46.8855 16.528 46.9132 16.3582 46.9132 16.1636C46.9132 15.969 46.8862 15.8 46.8322 15.6565C46.7782 15.5131 46.7001 15.4023 46.5978 15.3241C46.4956 15.246 46.3713 15.2069 46.225 15.2069C46.0758 15.2069 45.9501 15.2474 45.8478 15.3284C45.7456 15.4094 45.6681 15.5216 45.6156 15.665C45.563 15.8085 45.5368 15.9747 45.5368 16.1636C45.5368 16.354 45.563 16.5223 45.6156 16.6686C45.6696 16.8135 45.747 16.9271 45.8478 17.0095C45.9501 17.0905 46.0758 17.131 46.225 17.131Z" fill="white"/>
</svg>
