<svg width="248" height="149" viewBox="0 0 248 149" fill="none" xmlns="http://www.w3.org/2000/svg">
<g id="change_x_by_menu">
<path id="anchor:next" opacity="0.01" d="M123 141C123.552 141 124 140.552 124 140C124 139.448 123.552 139 123 139C122.448 139 122 139.448 122 140C122 140.552 122.448 141 123 141Z" fill="#D9D9D9"/>
<g id="arrowHead">
<g id="border">
<path id="Vector" d="M123 140L148 115H98L123 140Z" fill="white"/>
<path id="Vector_2" d="M123 135L143 115H103L123 135Z" fill="white"/>
</g>
<g id="tip">
<path id="Vector_3" d="M123 135L143 115H103L123 135Z" fill="#42A5F5"/>
<path id="Vector_4" d="M123 131L139 115H107L123 131Z" fill="#42A5F5"/>
</g>
<path id="shaft" d="M135.048 93H113.048V115H135.048V93Z" fill="#42A5F5"/>
</g>
<path id="bodyStretch" d="M0 50.5421C0 41.4061 14.1745 34 31.6596 34H216.341C233.826 34 248 41.4061 248 50.5421V76.4579C248 85.5939 233.826 93 216.341 93H31.6596C14.1745 93 0 85.5939 0 76.4579V50.5421Z" fill="#42A5F5"/>
<g id="input:value">
<g id="block_input">
<path id="input_constant" d="M133 62C133 56.4772 137.477 52 143 52H200C205.523 52 210 56.4772 210 62V66C210 71.5228 205.523 76 200 76H143C137.477 76 133 71.5228 133 66V62Z" fill="white"/>
<path id="change_x_by_text" d="M40.6023 69.1598C39.7642 69.1598 39.0433 68.9822 38.4396 68.6271C37.8395 68.2685 37.3778 67.7713 37.0547 67.1357C36.7351 66.5 36.5753 65.7685 36.5753 64.9411C36.5753 64.103 36.7369 63.3679 37.06 62.7358C37.3867 62.1001 37.8501 61.6048 38.4503 61.2496C39.0504 60.891 39.7642 60.7116 40.5916 60.7116C41.3054 60.7116 41.9304 60.8413 42.4666 61.1005C43.0028 61.3597 43.4272 61.7237 43.7397 62.1925C44.0522 62.6612 44.2244 63.2116 44.2564 63.8438H42.1151C42.0547 63.4354 41.8949 63.1069 41.6357 62.8583C41.38 62.6062 41.0444 62.4801 40.6289 62.4801C40.2773 62.4801 39.9702 62.576 39.7074 62.7678C39.4482 62.956 39.2457 63.2312 39.1001 63.5934C38.9545 63.9556 38.8817 64.3942 38.8817 64.9091C38.8817 65.4311 38.9528 65.875 39.0948 66.2408C39.2404 66.6065 39.4446 66.8853 39.7074 67.0771C39.9702 67.2688 40.2773 67.3647 40.6289 67.3647C40.8881 67.3647 41.1207 67.3114 41.3267 67.2049C41.5362 67.0984 41.7085 66.9439 41.8434 66.7415C41.9819 66.5355 42.0724 66.2887 42.1151 66.0011H44.2564C44.2209 66.6261 44.0504 67.1765 43.745 67.6523C43.4432 68.1246 43.0259 68.494 42.4933 68.7603C41.9606 69.0266 41.3303 69.1598 40.6023 69.1598ZM47.9784 64.2699V69H45.7093V58.0909H47.9145V62.2617H48.0104C48.195 61.7788 48.4933 61.4006 48.9053 61.1271C49.3172 60.8501 49.8339 60.7116 50.4553 60.7116C51.0235 60.7116 51.5189 60.8359 51.9415 61.0845C52.3676 61.3295 52.6979 61.6829 52.9323 62.1445C53.1702 62.6026 53.2874 63.1513 53.2838 63.7905V69H51.0146V64.1953C51.0182 63.6911 50.8904 63.2987 50.6311 63.0181C50.3754 62.7376 50.0168 62.5973 49.5551 62.5973C49.2462 62.5973 48.9727 62.663 48.7348 62.7944C48.5004 62.9258 48.3158 63.1175 48.1808 63.3697C48.0494 63.6183 47.982 63.9183 47.9784 64.2699ZM57.4027 69.1545C56.8807 69.1545 56.4155 69.0639 56.0071 68.8828C55.5987 68.6982 55.2756 68.4265 55.0376 68.0678C54.8033 67.7056 54.6861 67.2546 54.6861 66.7148C54.6861 66.2603 54.7695 65.8786 54.9364 65.5696C55.1033 65.2607 55.3306 65.0121 55.6183 64.8239C55.9059 64.6357 56.2326 64.4936 56.5984 64.3977C56.9677 64.3018 57.3548 64.2344 57.7596 64.1953C58.2354 64.1456 58.619 64.0994 58.9102 64.0568C59.2013 64.0107 59.4126 63.9432 59.544 63.8544C59.6754 63.7656 59.7411 63.6342 59.7411 63.4602V63.4283C59.7411 63.0909 59.6346 62.8299 59.4215 62.6452C59.212 62.4606 58.9137 62.3683 58.5266 62.3683C58.1183 62.3683 57.7933 62.4588 57.5518 62.6399C57.3104 62.8175 57.1506 63.0412 57.0724 63.3111L54.9737 63.1406C55.0803 62.6435 55.2898 62.2138 55.6023 61.8516C55.9148 61.4858 56.3178 61.2053 56.8114 61.0099C57.3086 60.8111 57.8839 60.7116 58.5373 60.7116C58.9918 60.7116 59.4268 60.7649 59.8423 60.8714C60.2614 60.978 60.6325 61.1431 60.9556 61.3668C61.2823 61.5906 61.5398 61.8782 61.728 62.2298C61.9162 62.5778 62.0103 62.995 62.0103 63.4815V69H59.8583V67.8654H59.7944C59.663 68.1211 59.4872 68.3466 59.267 68.5419C59.0469 68.7337 58.7823 68.8846 58.4734 68.9947C58.1644 69.1012 57.8075 69.1545 57.4027 69.1545ZM58.0526 67.5884C58.3864 67.5884 58.6811 67.5227 58.9368 67.3913C59.1925 67.2564 59.3931 67.0753 59.5387 66.848C59.6843 66.6207 59.7571 66.3633 59.7571 66.0756V65.2074C59.6861 65.2536 59.5884 65.2962 59.4641 65.3352C59.3434 65.3707 59.2067 65.4045 59.054 65.4364C58.9013 65.4648 58.7486 65.4915 58.5959 65.5163C58.4432 65.5376 58.3047 65.5572 58.1804 65.5749C57.9141 65.614 57.6815 65.6761 57.4826 65.7614C57.2837 65.8466 57.1293 65.962 57.0192 66.1076C56.9091 66.2496 56.854 66.4272 56.854 66.6403C56.854 66.9492 56.9659 67.1854 57.1896 67.3487C57.4169 67.5085 57.7045 67.5884 58.0526 67.5884ZM66.04 64.2699V69H63.7708V60.8182H65.9334V62.2617H66.0293C66.2104 61.7859 66.514 61.4094 66.9402 61.1325C67.3663 60.8519 67.883 60.7116 68.4902 60.7116C69.0584 60.7116 69.5538 60.8359 69.9764 61.0845C70.399 61.3331 70.7275 61.6882 70.9618 62.1499C71.1962 62.608 71.3134 63.1548 71.3134 63.7905V69H69.0442V64.1953C69.0478 63.6946 68.9199 63.304 68.6607 63.0234C68.4015 62.7393 68.0446 62.5973 67.59 62.5973C67.2846 62.5973 67.0147 62.663 66.7804 62.7944C66.5495 62.9258 66.3684 63.1175 66.237 63.3697C66.1092 63.6183 66.0435 63.9183 66.04 64.2699ZM76.7879 72.2386C76.0528 72.2386 75.4225 72.1374 74.8969 71.935C74.3749 71.7362 73.9594 71.4645 73.6505 71.12C73.3415 70.7756 73.1409 70.3885 73.0486 69.9588L75.1473 69.6765C75.2112 69.8398 75.3124 69.9925 75.4509 70.1346C75.5894 70.2766 75.7723 70.3903 75.9996 70.4755C76.2304 70.5643 76.5109 70.6087 76.8412 70.6087C77.3348 70.6087 77.7414 70.4879 78.061 70.2464C78.3841 70.0085 78.5457 69.609 78.5457 69.0479V67.5511H78.4498C78.3504 67.7784 78.2013 67.9933 78.0024 68.1957C77.8035 68.3981 77.5479 68.5632 77.2354 68.6911C76.9229 68.8189 76.55 68.8828 76.1167 68.8828C75.5024 68.8828 74.9431 68.7408 74.4388 68.4567C73.9381 68.169 73.5386 67.7305 73.2403 67.141C72.9456 66.5479 72.7982 65.7987 72.7982 64.8931C72.7982 63.9663 72.9491 63.1921 73.251 62.5707C73.5528 61.9492 73.9541 61.484 74.4548 61.1751C74.9591 60.8661 75.5113 60.7116 76.1114 60.7116C76.5695 60.7116 76.953 60.7898 77.262 60.946C77.5709 61.0987 77.8195 61.2905 78.0077 61.5213C78.1995 61.7486 78.3469 61.9723 78.4498 62.1925H78.5351V60.8182H80.7883V69.0799C80.7883 69.7759 80.6178 70.3583 80.2769 70.8271C79.936 71.2958 79.4637 71.6474 78.86 71.8817C78.2599 72.1197 77.5692 72.2386 76.7879 72.2386ZM76.8358 67.1783C77.2016 67.1783 77.5106 67.0877 77.7627 66.9066C78.0184 66.7219 78.2137 66.4592 78.3486 66.1183C78.4871 65.7738 78.5564 65.3619 78.5564 64.8825C78.5564 64.4031 78.4889 63.9876 78.354 63.636C78.219 63.2809 78.0237 63.0057 77.768 62.8104C77.5123 62.6151 77.2016 62.5174 76.8358 62.5174C76.463 62.5174 76.1487 62.6186 75.893 62.821C75.6373 63.0199 75.4438 63.2969 75.3124 63.652C75.181 64.0071 75.1153 64.4173 75.1153 64.8825C75.1153 65.3548 75.181 65.7631 75.3124 66.1076C75.4474 66.4485 75.6409 66.7131 75.893 66.9013C76.1487 67.0859 76.463 67.1783 76.8358 67.1783ZM86.3227 69.1598C85.4811 69.1598 84.7567 68.9893 84.1494 68.6484C83.5457 68.304 83.0805 67.8175 82.7538 67.1889C82.4271 66.5568 82.2638 65.8093 82.2638 64.9464C82.2638 64.1048 82.4271 63.3661 82.7538 62.7305C83.0805 62.0948 83.5404 61.5994 84.1334 61.2443C84.73 60.8892 85.4296 60.7116 86.2322 60.7116C86.7719 60.7116 87.2744 60.7987 87.7396 60.9727C88.2084 61.1431 88.6167 61.4006 88.9648 61.745C89.3163 62.0895 89.5898 62.5227 89.7851 63.0447C89.9804 63.5632 90.078 64.1705 90.078 64.8665V65.4897H83.1693V64.0835H87.942C87.942 63.7567 87.871 63.4673 87.729 63.2152C87.5869 62.9631 87.3898 62.766 87.1377 62.6239C86.8891 62.4783 86.5997 62.4055 86.2694 62.4055C85.925 62.4055 85.6196 62.4854 85.3532 62.6452C85.0905 62.8015 84.8845 63.0128 84.7354 63.2791C84.5862 63.5419 84.5099 63.8349 84.5063 64.158V65.495C84.5063 65.8999 84.5809 66.2496 84.73 66.5444C84.8827 66.8391 85.0976 67.0664 85.3746 67.2262C85.6515 67.386 85.98 67.4659 86.36 67.4659C86.6121 67.4659 86.843 67.4304 87.0525 67.3594C87.262 67.2884 87.4413 67.1818 87.5905 67.0398C87.7396 66.8977 87.8532 66.7237 87.9314 66.5178L90.0301 66.6562C89.9236 67.1605 89.7052 67.6009 89.3749 67.9773C89.0482 68.3501 88.6256 68.6413 88.1072 68.8509C87.5922 69.0568 86.9974 69.1598 86.3227 69.1598ZM96.9268 60.8182L98.429 63.6786L99.9684 60.8182H102.296L99.9258 64.9091L102.36 69H100.043L98.429 66.1715L96.8416 69H94.4979L96.9268 64.9091L94.5831 60.8182H96.9268ZM107.158 69V58.0909H109.427V62.1925H109.497C109.596 61.9723 109.74 61.7486 109.928 61.5213C110.12 61.2905 110.368 61.0987 110.674 60.946C110.983 60.7898 111.366 60.7116 111.824 60.7116C112.421 60.7116 112.971 60.8679 113.476 61.1804C113.98 61.4893 114.383 61.9563 114.685 62.5813C114.987 63.2028 115.138 63.9822 115.138 64.9197C115.138 65.8324 114.99 66.603 114.695 67.2315C114.404 67.8565 114.006 68.3306 113.502 68.6538C113.002 68.9734 112.44 69.1332 111.819 69.1332C111.379 69.1332 111.004 69.0604 110.695 68.9148C110.39 68.7692 110.139 68.5863 109.944 68.3661C109.749 68.1424 109.6 67.9169 109.497 67.6896H109.395V69H107.158ZM109.379 64.9091C109.379 65.3956 109.447 65.82 109.582 66.1822C109.717 66.5444 109.912 66.8267 110.168 67.0291C110.423 67.228 110.734 67.3274 111.1 67.3274C111.469 67.3274 111.782 67.2262 112.037 67.0238C112.293 66.8178 112.487 66.5337 112.618 66.1715C112.753 65.8058 112.82 65.3849 112.82 64.9091C112.82 64.4368 112.755 64.0213 112.623 63.6626C112.492 63.304 112.298 63.0234 112.043 62.821C111.787 62.6186 111.473 62.5174 111.1 62.5174C110.731 62.5174 110.418 62.6151 110.162 62.8104C109.91 63.0057 109.717 63.2827 109.582 63.6413C109.447 64 109.379 64.4226 109.379 64.9091ZM117.789 72.0682C117.501 72.0682 117.231 72.0451 116.979 71.9989C116.731 71.9563 116.525 71.9013 116.361 71.8338L116.873 70.1399C117.139 70.2216 117.379 70.266 117.592 70.2731C117.808 70.2802 117.995 70.2305 118.151 70.1239C118.311 70.0174 118.441 69.8363 118.54 69.5806L118.673 69.2344L115.738 60.8182H118.124L119.818 66.8267H119.904L121.613 60.8182H124.016L120.836 69.8842C120.683 70.3246 120.475 70.7081 120.213 71.0348C119.953 71.3651 119.625 71.619 119.227 71.7965C118.829 71.9776 118.35 72.0682 117.789 72.0682Z" fill="white"/>
</g>
</g>
<g id="capTop">
<path id="anchor:prev" opacity="0.01" d="M123 35C123.552 35 124 34.5523 124 34C124 33.4477 123.552 33 123 33C122.448 33 122 33.4477 122 34C122 34.5523 122.448 35 123 35Z" fill="#D9D9D9"/>
<path id="Vector_5" d="M123 34H98V9L123 34Z" fill="#42A5F5"/>
<path id="Vector_6" d="M148 34H123L148 9V34Z" fill="#42A5F5"/>
<path id="stripe" d="M148 14L123 39L98 14V9L123 34L148 9V14Z" fill="white"/>
</g>
</g>
</svg>
