<svg width="248" height="149" viewBox="0 0 248 149" fill="none" xmlns="http://www.w3.org/2000/svg">
<g id="change_variable_menu">
<circle id="anchor:next" opacity="0.01" cx="123" cy="140" r="1" fill="#D9D9D9"/>
<g id="arrowHead">
<g id="border">
<path d="M123 140L148 115H98L123 140Z" fill="white"/>
<path d="M123 135L143 115H103L123 135Z" fill="white"/>
</g>
<g id="tip">
<path d="M123 135L143 115H103L123 135Z" fill="#E57C4F"/>
<path d="M123 131L139 115H107L123 131Z" fill="#E57C4F"/>
</g>
<path id="shaft" d="M135.048 93H113.048V115H135.048V93Z" fill="#E57C4F"/>
</g>
<path id="bodyStretch" d="M0 50.5421C0 41.4061 14.1745 34 31.6596 34H216.341C233.826 34 248 41.4061 248 50.5421V76.4579C248 85.5939 233.826 93 216.341 93H31.6596C14.1745 93 0 85.5939 0 76.4579V50.5421Z" fill="#E57C4F"/>
<g id="input:value">
<rect id="box" x="167" y="50" width="75" height="25" rx="10" fill="white"/>
<circle id="anchor-input:value-right" opacity="0.01" cx="242" cy="63" r="1" fill="#D9D9D9"/>
<circle id="anchor-input:value-left" opacity="0.01" cx="167" cy="63" r="1" fill="white"/>
</g>
<path id="text" d="M146.948 68V57.0909H149.217V61.1925H149.287C149.386 60.9723 149.53 60.7486 149.718 60.5213C149.91 60.2905 150.158 60.0987 150.464 59.946C150.773 59.7898 151.156 59.7116 151.614 59.7116C152.211 59.7116 152.761 59.8679 153.266 60.1804C153.77 60.4893 154.173 60.9563 154.475 61.5813C154.777 62.2028 154.928 62.9822 154.928 63.9197C154.928 64.8324 154.78 65.603 154.485 66.2315C154.194 66.8565 153.797 67.3306 153.292 67.6538C152.792 67.9734 152.23 68.1332 151.609 68.1332C151.169 68.1332 150.794 68.0604 150.485 67.9148C150.18 67.7692 149.929 67.5863 149.734 67.3661C149.539 67.1424 149.39 66.9169 149.287 66.6896H149.185V68H146.948ZM149.169 63.9091C149.169 64.3956 149.237 64.82 149.372 65.1822C149.507 65.5444 149.702 65.8267 149.958 66.0291C150.213 66.228 150.524 66.3274 150.89 66.3274C151.259 66.3274 151.572 66.2262 151.827 66.0238C152.083 65.8178 152.277 65.5337 152.408 65.1715C152.543 64.8058 152.61 64.3849 152.61 63.9091C152.61 63.4368 152.545 63.0213 152.413 62.6626C152.282 62.304 152.088 62.0234 151.833 61.821C151.577 61.6186 151.263 61.5174 150.89 61.5174C150.521 61.5174 150.208 61.6151 149.952 61.8104C149.7 62.0057 149.507 62.2827 149.372 62.6413C149.237 63 149.169 63.4226 149.169 63.9091ZM157.579 71.0682C157.291 71.0682 157.021 71.0451 156.769 70.9989C156.521 70.9563 156.315 70.9013 156.151 70.8338L156.663 69.1399C156.929 69.2216 157.169 69.266 157.382 69.2731C157.598 69.2802 157.785 69.2305 157.941 69.1239C158.101 69.0174 158.231 68.8363 158.33 68.5806L158.463 68.2344L155.528 59.8182H157.915L159.608 65.8267H159.694L161.403 59.8182H163.806L160.626 68.8842C160.473 69.3246 160.265 69.7081 160.003 70.0348C159.743 70.3651 159.415 70.619 159.017 70.7965C158.619 70.9776 158.14 71.0682 157.579 71.0682Z" fill="white"/>
<g id="dropdown:name">
<rect id="box_2" x="63.5" y="50.5" width="80" height="24" fill="#E57C4F" stroke="black"/>
<path id="Polygon 2" d="M136.5 67L131.737 61.75H141.263L136.5 67Z" fill="#AD4B21"/>
<path id="text_2" d="M78.5334 59.8182L75.6729 68H73.1161L70.2557 59.8182H72.6527L74.3519 65.6722H74.4371L76.131 59.8182H78.5334ZM81.808 68.1545C81.286 68.1545 80.8208 68.0639 80.4124 67.8828C80.004 67.6982 79.6808 67.4265 79.4429 67.0678C79.2085 66.7056 79.0914 66.2546 79.0914 65.7148C79.0914 65.2603 79.1748 64.8786 79.3417 64.5696C79.5086 64.2607 79.7359 64.0121 80.0235 63.8239C80.3112 63.6357 80.6379 63.4936 81.0036 63.3977C81.373 63.3018 81.76 63.2344 82.1649 63.1953C82.6407 63.1456 83.0242 63.0994 83.3154 63.0568C83.6066 63.0107 83.8179 62.9432 83.9493 62.8544C84.0807 62.7656 84.1464 62.6342 84.1464 62.4602V62.4283C84.1464 62.0909 84.0399 61.8299 83.8268 61.6452C83.6173 61.4606 83.319 61.3683 82.9319 61.3683C82.5235 61.3683 82.1986 61.4588 81.9571 61.6399C81.7156 61.8175 81.5558 62.0412 81.4777 62.3111L79.379 62.1406C79.4855 61.6435 79.695 61.2138 80.0075 60.8516C80.32 60.4858 80.7231 60.2053 81.2167 60.0099C81.7139 59.8111 82.2892 59.7116 82.9426 59.7116C83.3971 59.7116 83.8321 59.7649 84.2476 59.8714C84.6666 59.978 85.0377 60.1431 85.3609 60.3668C85.6876 60.5906 85.945 60.8782 86.1333 61.2298C86.3215 61.5778 86.4156 61.995 86.4156 62.4815V68H84.2636V66.8654H84.1997C84.0683 67.1211 83.8925 67.3466 83.6723 67.5419C83.4521 67.7337 83.1876 67.8846 82.8786 67.9947C82.5697 68.1012 82.2128 68.1545 81.808 68.1545ZM82.4578 66.5884C82.7916 66.5884 83.0864 66.5227 83.3421 66.3913C83.5977 66.2564 83.7984 66.0753 83.944 65.848C84.0896 65.6207 84.1624 65.3633 84.1624 65.0756V64.2074C84.0914 64.2536 83.9937 64.2962 83.8694 64.3352C83.7487 64.3707 83.6119 64.4045 83.4593 64.4364C83.3066 64.4648 83.1539 64.4915 83.0012 64.5163C82.8485 64.5376 82.71 64.5572 82.5857 64.5749C82.3193 64.614 82.0867 64.6761 81.8879 64.7614C81.689 64.8466 81.5345 64.962 81.4244 65.1076C81.3144 65.2496 81.2593 65.4272 81.2593 65.6403C81.2593 65.9492 81.3712 66.1854 81.5949 66.3487C81.8222 66.5085 82.1098 66.5884 82.4578 66.5884ZM88.176 68V59.8182H90.376V61.2457H90.4612C90.6104 60.7379 90.8607 60.3544 91.2123 60.0952C91.5638 59.8324 91.9687 59.701 92.4268 59.701C92.5404 59.701 92.6629 59.7081 92.7943 59.7223C92.9257 59.7365 93.0411 59.756 93.1405 59.7809V61.7944C93.034 61.7624 92.8866 61.734 92.6984 61.7092C92.5102 61.6843 92.338 61.6719 92.1817 61.6719C91.8479 61.6719 91.5496 61.7447 91.2868 61.8903C91.0276 62.0323 90.8216 62.2312 90.6689 62.4869C90.5198 62.7425 90.4452 63.0373 90.4452 63.3711V68H88.176ZM94.3137 68V59.8182H96.5829V68H94.3137ZM95.4537 58.7635C95.1163 58.7635 94.8269 58.6516 94.5854 58.4279C94.3475 58.2006 94.2285 57.929 94.2285 57.6129C94.2285 57.3004 94.3475 57.0323 94.5854 56.8086C94.8269 56.5813 95.1163 56.4677 95.4537 56.4677C95.791 56.4677 96.0787 56.5813 96.3166 56.8086C96.5581 57.0323 96.6788 57.3004 96.6788 57.6129C96.6788 57.929 96.5581 58.2006 96.3166 58.4279C96.0787 58.6516 95.791 58.7635 95.4537 58.7635ZM100.734 68.1545C100.212 68.1545 99.7465 68.0639 99.3382 67.8828C98.9298 67.6982 98.6066 67.4265 98.3687 67.0678C98.1343 66.7056 98.0171 66.2546 98.0171 65.7148C98.0171 65.2603 98.1006 64.8786 98.2675 64.5696C98.4344 64.2607 98.6617 64.0121 98.9493 63.8239C99.2369 63.6357 99.5637 63.4936 99.9294 63.3977C100.299 63.3018 100.686 63.2344 101.091 63.1953C101.566 63.1456 101.95 63.0994 102.241 63.0568C102.532 63.0107 102.744 62.9432 102.875 62.8544C103.006 62.7656 103.072 62.6342 103.072 62.4602V62.4283C103.072 62.0909 102.966 61.8299 102.753 61.6452C102.543 61.4606 102.245 61.3683 101.858 61.3683C101.449 61.3683 101.124 61.4588 100.883 61.6399C100.641 61.8175 100.482 62.0412 100.403 62.3111L98.3048 62.1406C98.4113 61.6435 98.6208 61.2138 98.9333 60.8516C99.2458 60.4858 99.6489 60.2053 100.142 60.0099C100.64 59.8111 101.215 59.7116 101.868 59.7116C102.323 59.7116 102.758 59.7649 103.173 59.8714C103.592 59.978 103.964 60.1431 104.287 60.3668C104.613 60.5906 104.871 60.8782 105.059 61.2298C105.247 61.5778 105.341 61.995 105.341 62.4815V68H103.189V66.8654H103.125C102.994 67.1211 102.818 67.3466 102.598 67.5419C102.378 67.7337 102.113 67.8846 101.804 67.9947C101.495 68.1012 101.139 68.1545 100.734 68.1545ZM101.384 66.5884C101.717 66.5884 102.012 66.5227 102.268 66.3913C102.524 66.2564 102.724 66.0753 102.87 65.848C103.015 65.6207 103.088 65.3633 103.088 65.0756V64.2074C103.017 64.2536 102.919 64.2962 102.795 64.3352C102.674 64.3707 102.538 64.4045 102.385 64.4364C102.232 64.4648 102.08 64.4915 101.927 64.5163C101.774 64.5376 101.636 64.5572 101.511 64.5749C101.245 64.614 101.013 64.6761 100.814 64.7614C100.615 64.8466 100.46 64.962 100.35 65.1076C100.24 65.2496 100.185 65.4272 100.185 65.6403C100.185 65.9492 100.297 66.1854 100.521 66.3487C100.748 66.5085 101.036 66.5884 101.384 66.5884ZM107.144 68V57.0909H109.414V61.1925H109.483C109.582 60.9723 109.726 60.7486 109.914 60.5213C110.106 60.2905 110.355 60.0987 110.66 59.946C110.969 59.7898 111.353 59.7116 111.811 59.7116C112.407 59.7116 112.958 59.8679 113.462 60.1804C113.966 60.4893 114.369 60.9563 114.671 61.5813C114.973 62.2028 115.124 62.9822 115.124 63.9197C115.124 64.8324 114.976 65.603 114.682 66.2315C114.391 66.8565 113.993 67.3306 113.489 67.6538C112.988 67.9734 112.427 68.1332 111.805 68.1332C111.365 68.1332 110.99 68.0604 110.681 67.9148C110.376 67.7692 110.126 67.5863 109.93 67.3661C109.735 67.1424 109.586 66.9169 109.483 66.6896H109.382V68H107.144ZM109.366 63.9091C109.366 64.3956 109.433 64.82 109.568 65.1822C109.703 65.5444 109.898 65.8267 110.154 66.0291C110.41 66.228 110.72 66.3274 111.086 66.3274C111.456 66.3274 111.768 66.2262 112.024 66.0238C112.279 65.8178 112.473 65.5337 112.604 65.1715C112.739 64.8058 112.807 64.3849 112.807 63.9091C112.807 63.4368 112.741 63.0213 112.61 62.6626C112.478 62.304 112.285 62.0234 112.029 61.821C111.773 61.6186 111.459 61.5174 111.086 61.5174C110.717 61.5174 110.404 61.6151 110.149 61.8104C109.897 62.0057 109.703 62.2827 109.568 62.6413C109.433 63 109.366 63.4226 109.366 63.9091ZM118.907 57.0909V68H116.638V57.0909H118.907ZM124.454 68.1598C123.612 68.1598 122.888 67.9893 122.28 67.6484C121.677 67.304 121.211 66.8175 120.885 66.1889C120.558 65.5568 120.395 64.8093 120.395 63.9464C120.395 63.1048 120.558 62.3661 120.885 61.7305C121.211 61.0948 121.671 60.5994 122.264 60.2443C122.861 59.8892 123.56 59.7116 124.363 59.7116C124.903 59.7116 125.405 59.7987 125.87 59.9727C126.339 60.1431 126.748 60.4006 127.096 60.745C127.447 61.0895 127.721 61.5227 127.916 62.0447C128.111 62.5632 128.209 63.1705 128.209 63.8665V64.4897H121.3V63.0835H126.073C126.073 62.7567 126.002 62.4673 125.86 62.2152C125.718 61.9631 125.521 61.766 125.269 61.6239C125.02 61.4783 124.731 61.4055 124.4 61.4055C124.056 61.4055 123.75 61.4854 123.484 61.6452C123.221 61.8015 123.015 62.0128 122.866 62.2791C122.717 62.5419 122.641 62.8349 122.637 63.158V64.495C122.637 64.8999 122.712 65.2496 122.861 65.5444C123.014 65.8391 123.228 66.0664 123.505 66.2262C123.782 66.386 124.111 66.4659 124.491 66.4659C124.743 66.4659 124.974 66.4304 125.183 66.3594C125.393 66.2884 125.572 66.1818 125.721 66.0398C125.87 65.8977 125.984 65.7237 126.062 65.5178L128.161 65.6562C128.054 66.1605 127.836 66.6009 127.506 66.9773C127.179 67.3501 126.756 67.6413 126.238 67.8509C125.723 68.0568 125.128 68.1598 124.454 68.1598Z" fill="white"/>
</g>
<path id="text_3" d="M12.6023 69.1598C11.7642 69.1598 11.0433 68.9822 10.4396 68.6271C9.83949 68.2685 9.37784 67.7713 9.05469 67.1357C8.73509 66.5 8.57528 65.7685 8.57528 64.9411C8.57528 64.103 8.73686 63.3679 9.06001 62.7358C9.38672 62.1001 9.85014 61.6048 10.4503 61.2496C11.0504 60.891 11.7642 60.7116 12.5916 60.7116C13.3054 60.7116 13.9304 60.8413 14.4666 61.1005C15.0028 61.3597 15.4272 61.7237 15.7397 62.1925C16.0522 62.6612 16.2244 63.2116 16.2564 63.8438H14.1151C14.0547 63.4354 13.8949 63.1069 13.6357 62.8583C13.38 62.6062 13.0444 62.4801 12.6289 62.4801C12.2773 62.4801 11.9702 62.576 11.7074 62.7678C11.4482 62.956 11.2457 63.2312 11.1001 63.5934C10.9545 63.9556 10.8817 64.3942 10.8817 64.9091C10.8817 65.4311 10.9528 65.875 11.0948 66.2408C11.2404 66.6065 11.4446 66.8853 11.7074 67.0771C11.9702 67.2688 12.2773 67.3647 12.6289 67.3647C12.8881 67.3647 13.1207 67.3114 13.3267 67.2049C13.5362 67.0984 13.7085 66.9439 13.8434 66.7415C13.9819 66.5355 14.0724 66.2887 14.1151 66.0011H16.2564C16.2209 66.6261 16.0504 67.1765 15.745 67.6523C15.4432 68.1246 15.0259 68.494 14.4933 68.7603C13.9606 69.0266 13.3303 69.1598 12.6023 69.1598ZM19.9784 64.2699V69H17.7093V58.0909H19.9145V62.2617H20.0104C20.195 61.7788 20.4933 61.4006 20.9053 61.1271C21.3172 60.8501 21.8339 60.7116 22.4553 60.7116C23.0235 60.7116 23.5189 60.8359 23.9415 61.0845C24.3676 61.3295 24.6979 61.6829 24.9323 62.1445C25.1702 62.6026 25.2874 63.1513 25.2838 63.7905V69H23.0146V64.1953C23.0182 63.6911 22.8904 63.2987 22.6311 63.0181C22.3754 62.7376 22.0168 62.5973 21.5551 62.5973C21.2462 62.5973 20.9727 62.663 20.7348 62.7944C20.5004 62.9258 20.3158 63.1175 20.1808 63.3697C20.0494 63.6183 19.982 63.9183 19.9784 64.2699ZM29.4027 69.1545C28.8807 69.1545 28.4155 69.0639 28.0071 68.8828C27.5987 68.6982 27.2756 68.4265 27.0376 68.0678C26.8033 67.7056 26.6861 67.2546 26.6861 66.7148C26.6861 66.2603 26.7695 65.8786 26.9364 65.5696C27.1033 65.2607 27.3306 65.0121 27.6183 64.8239C27.9059 64.6357 28.2326 64.4936 28.5984 64.3977C28.9677 64.3018 29.3548 64.2344 29.7596 64.1953C30.2354 64.1456 30.619 64.0994 30.9102 64.0568C31.2013 64.0107 31.4126 63.9432 31.544 63.8544C31.6754 63.7656 31.7411 63.6342 31.7411 63.4602V63.4283C31.7411 63.0909 31.6346 62.8299 31.4215 62.6452C31.212 62.4606 30.9137 62.3683 30.5266 62.3683C30.1183 62.3683 29.7933 62.4588 29.5518 62.6399C29.3104 62.8175 29.1506 63.0412 29.0724 63.3111L26.9737 63.1406C27.0803 62.6435 27.2898 62.2138 27.6023 61.8516C27.9148 61.4858 28.3178 61.2053 28.8114 61.0099C29.3086 60.8111 29.8839 60.7116 30.5373 60.7116C30.9918 60.7116 31.4268 60.7649 31.8423 60.8714C32.2614 60.978 32.6325 61.1431 32.9556 61.3668C33.2823 61.5906 33.5398 61.8782 33.728 62.2298C33.9162 62.5778 34.0103 62.995 34.0103 63.4815V69H31.8583V67.8654H31.7944C31.663 68.1211 31.4872 68.3466 31.267 68.5419C31.0469 68.7337 30.7823 68.8846 30.4734 68.9947C30.1644 69.1012 29.8075 69.1545 29.4027 69.1545ZM30.0526 67.5884C30.3864 67.5884 30.6811 67.5227 30.9368 67.3913C31.1925 67.2564 31.3931 67.0753 31.5387 66.848C31.6843 66.6207 31.7571 66.3633 31.7571 66.0756V65.2074C31.6861 65.2536 31.5884 65.2962 31.4641 65.3352C31.3434 65.3707 31.2067 65.4045 31.054 65.4364C30.9013 65.4648 30.7486 65.4915 30.5959 65.5163C30.4432 65.5376 30.3047 65.5572 30.1804 65.5749C29.9141 65.614 29.6815 65.6761 29.4826 65.7614C29.2837 65.8466 29.1293 65.962 29.0192 66.1076C28.9091 66.2496 28.854 66.4272 28.854 66.6403C28.854 66.9492 28.9659 67.1854 29.1896 67.3487C29.4169 67.5085 29.7045 67.5884 30.0526 67.5884ZM38.04 64.2699V69H35.7708V60.8182H37.9334V62.2617H38.0293C38.2104 61.7859 38.514 61.4094 38.9402 61.1325C39.3663 60.8519 39.883 60.7116 40.4902 60.7116C41.0584 60.7116 41.5538 60.8359 41.9764 61.0845C42.399 61.3331 42.7275 61.6882 42.9618 62.1499C43.1962 62.608 43.3134 63.1548 43.3134 63.7905V69H41.0442V64.1953C41.0478 63.6946 40.9199 63.304 40.6607 63.0234C40.4015 62.7393 40.0446 62.5973 39.59 62.5973C39.2846 62.5973 39.0147 62.663 38.7804 62.7944C38.5495 62.9258 38.3684 63.1175 38.237 63.3697C38.1092 63.6183 38.0435 63.9183 38.04 64.2699ZM48.7879 72.2386C48.0528 72.2386 47.4225 72.1374 46.8969 71.935C46.3749 71.7362 45.9594 71.4645 45.6505 71.12C45.3415 70.7756 45.1409 70.3885 45.0486 69.9588L47.1473 69.6765C47.2112 69.8398 47.3124 69.9925 47.4509 70.1346C47.5894 70.2766 47.7723 70.3903 47.9996 70.4755C48.2304 70.5643 48.5109 70.6087 48.8412 70.6087C49.3348 70.6087 49.7414 70.4879 50.061 70.2464C50.3841 70.0085 50.5457 69.609 50.5457 69.0479V67.5511H50.4498C50.3504 67.7784 50.2013 67.9933 50.0024 68.1957C49.8035 68.3981 49.5479 68.5632 49.2354 68.6911C48.9229 68.8189 48.55 68.8828 48.1167 68.8828C47.5024 68.8828 46.9431 68.7408 46.4388 68.4567C45.9381 68.169 45.5386 67.7305 45.2403 67.141C44.9456 66.5479 44.7982 65.7987 44.7982 64.8931C44.7982 63.9663 44.9491 63.1921 45.251 62.5707C45.5528 61.9492 45.9541 61.484 46.4548 61.1751C46.9591 60.8661 47.5113 60.7116 48.1114 60.7116C48.5695 60.7116 48.953 60.7898 49.262 60.946C49.5709 61.0987 49.8195 61.2905 50.0077 61.5213C50.1995 61.7486 50.3469 61.9723 50.4498 62.1925H50.5351V60.8182H52.7883V69.0799C52.7883 69.7759 52.6178 70.3583 52.2769 70.8271C51.936 71.2958 51.4637 71.6474 50.86 71.8817C50.2599 72.1197 49.5692 72.2386 48.7879 72.2386ZM48.8358 67.1783C49.2016 67.1783 49.5106 67.0877 49.7627 66.9066C50.0184 66.7219 50.2137 66.4592 50.3486 66.1183C50.4871 65.7738 50.5564 65.3619 50.5564 64.8825C50.5564 64.4031 50.4889 63.9876 50.354 63.636C50.219 63.2809 50.0237 63.0057 49.768 62.8104C49.5123 62.6151 49.2016 62.5174 48.8358 62.5174C48.463 62.5174 48.1487 62.6186 47.893 62.821C47.6373 63.0199 47.4438 63.2969 47.3124 63.652C47.181 64.0071 47.1153 64.4173 47.1153 64.8825C47.1153 65.3548 47.181 65.7631 47.3124 66.1076C47.4474 66.4485 47.6409 66.7131 47.893 66.9013C48.1487 67.0859 48.463 67.1783 48.8358 67.1783ZM58.3227 69.1598C57.4811 69.1598 56.7567 68.9893 56.1494 68.6484C55.5457 68.304 55.0805 67.8175 54.7538 67.1889C54.4271 66.5568 54.2638 65.8093 54.2638 64.9464C54.2638 64.1048 54.4271 63.3661 54.7538 62.7305C55.0805 62.0948 55.5404 61.5994 56.1334 61.2443C56.73 60.8892 57.4296 60.7116 58.2322 60.7116C58.7719 60.7116 59.2744 60.7987 59.7396 60.9727C60.2084 61.1431 60.6167 61.4006 60.9648 61.745C61.3163 62.0895 61.5898 62.5227 61.7851 63.0447C61.9804 63.5632 62.078 64.1705 62.078 64.8665V65.4897H55.1693V64.0835H59.942C59.942 63.7567 59.871 63.4673 59.729 63.2152C59.5869 62.9631 59.3898 62.766 59.1377 62.6239C58.8891 62.4783 58.5997 62.4055 58.2694 62.4055C57.925 62.4055 57.6196 62.4854 57.3532 62.6452C57.0905 62.8015 56.8845 63.0128 56.7354 63.2791C56.5862 63.5419 56.5099 63.8349 56.5063 64.158V65.495C56.5063 65.8999 56.5809 66.2496 56.73 66.5444C56.8827 66.8391 57.0976 67.0664 57.3746 67.2262C57.6515 67.386 57.98 67.4659 58.36 67.4659C58.6121 67.4659 58.843 67.4304 59.0525 67.3594C59.262 67.2884 59.4413 67.1818 59.5905 67.0398C59.7396 66.8977 59.8532 66.7237 59.9314 66.5178L62.0301 66.6562C61.9236 67.1605 61.7052 67.6009 61.3749 67.9773C61.0482 68.3501 60.6256 68.6413 60.1072 68.8509C59.5922 69.0568 58.9974 69.1598 58.3227 69.1598Z" fill="white"/>
<g id="capTop">
<path d="M123 34H98V9L123 34Z" fill="#E57C4F"/>
<path d="M148 34H123L148 9V34Z" fill="#E57C4F"/>
</g>
<circle id="anchor:prev" opacity="0.01" cx="123" cy="34" r="1" fill="#D9D9D9"/>
<path id="stripe" d="M148 14L123 39L98 14V9L123 34L148 9V14Z" fill="white"/>
</g>
</svg>
