<svg width="248" height="149" viewBox="0 0 248 149" fill="none" xmlns="http://www.w3.org/2000/svg">
<g id="change_variable">
<circle id="anchor:next" opacity="0.01" cx="123" cy="140" r="1" fill="#D9D9D9"/>
<g id="arrowHead">
<g id="border">
<path d="M123 140L148 115H98L123 140Z" fill="white"/>
<path d="M123 135L143 115H103L123 135Z" fill="white"/>
</g>
<g id="tip">
<path d="M123 135L143 115H103L123 135Z" fill="#E57C4F"/>
<path d="M123 131L139 115H107L123 131Z" fill="#E57C4F"/>
</g>
<path id="shaft" d="M135.048 93H113.048V115H135.048V93Z" fill="#E57C4F"/>
</g>
<path id="bodyStretch" d="M0 50.5421C0 41.4061 14.1745 34 31.6596 34H216.341C233.826 34 248 41.4061 248 50.5421V76.4579C248 85.5939 233.826 93 216.341 93H31.6596C14.1745 93 0 85.5939 0 76.4579V50.5421Z" fill="#E57C4F"/>
<g id="input:value">
<rect id="box" opacity="0.01" x="165" y="50" width="75" height="25" rx="10" fill="#D9D9D9"/>
<circle id="anchor-input:value-right" opacity="0.01" cx="240" cy="63" r="1" fill="#D9D9D9"/>
<circle id="anchor-input:value-left" opacity="0.01" cx="165" cy="63" r="1" fill="white"/>
</g>
<path id="text" d="M136.759 66V57.2727H138.574V60.554H138.629C138.709 60.3778 138.824 60.1989 138.974 60.017C139.128 59.8324 139.327 59.679 139.571 59.5568C139.818 59.4318 140.125 59.3693 140.491 59.3693C140.969 59.3693 141.409 59.4943 141.812 59.7443C142.216 59.9915 142.538 60.3651 142.78 60.8651C143.021 61.3622 143.142 61.9858 143.142 62.7358C143.142 63.4659 143.024 64.0824 142.788 64.5852C142.555 65.0852 142.237 65.4645 141.834 65.723C141.433 65.9787 140.984 66.1065 140.487 66.1065C140.135 66.1065 139.835 66.0483 139.588 65.9318C139.344 65.8153 139.143 65.669 138.987 65.4929C138.831 65.3139 138.712 65.1335 138.629 64.9517H138.548V66H136.759ZM138.536 62.7273C138.536 63.1165 138.589 63.456 138.697 63.7457C138.805 64.0355 138.962 64.2614 139.166 64.4233C139.371 64.5824 139.619 64.6619 139.912 64.6619C140.207 64.6619 140.457 64.581 140.662 64.419C140.866 64.2543 141.021 64.027 141.126 63.7372C141.234 63.4446 141.288 63.108 141.288 62.7273C141.288 62.3494 141.236 62.017 141.131 61.7301C141.026 61.4432 140.871 61.2187 140.666 61.0568C140.462 60.8949 140.21 60.8139 139.912 60.8139C139.616 60.8139 139.366 60.892 139.162 61.0483C138.96 61.2045 138.805 61.4261 138.697 61.7131C138.589 62 138.536 62.3381 138.536 62.7273ZM145.263 68.4545C145.033 68.4545 144.817 68.4361 144.615 68.3991C144.417 68.3651 144.252 68.321 144.121 68.267L144.53 66.9119C144.743 66.9773 144.935 67.0128 145.105 67.0185C145.279 67.0241 145.428 66.9844 145.553 66.8991C145.681 66.8139 145.784 66.669 145.864 66.4645L145.971 66.1875L143.623 59.4545H145.532L146.887 64.2614H146.955L148.323 59.4545H150.245L147.701 66.7074C147.578 67.0597 147.412 67.3665 147.202 67.6278C146.995 67.892 146.732 68.0952 146.414 68.2372C146.096 68.3821 145.712 68.4545 145.263 68.4545Z" fill="white"/>
<g id="dropdown:name">
<rect id="box" opacity="0.01" x="55" y="50" width="75" height="25" fill="#D9D9D9"/>
</g>
<path id="text_2" d="M12.6818 67.1278C12.0114 67.1278 11.4347 66.9858 10.9517 66.7017C10.4716 66.4148 10.1023 66.017 9.84375 65.5085C9.58807 65 9.46023 64.4148 9.46023 63.7528C9.46023 63.0824 9.58949 62.4943 9.84801 61.9886C10.1094 61.4801 10.4801 61.0838 10.9602 60.7997C11.4403 60.5128 12.0114 60.3693 12.6733 60.3693C13.2443 60.3693 13.7443 60.473 14.1733 60.6804C14.6023 60.8878 14.9418 61.179 15.1918 61.554C15.4418 61.929 15.5795 62.3693 15.6051 62.875H13.892C13.8438 62.5483 13.7159 62.2855 13.5085 62.0866C13.304 61.8849 13.0355 61.7841 12.7031 61.7841C12.4219 61.7841 12.1761 61.8608 11.9659 62.0142C11.7585 62.1648 11.5966 62.3849 11.4801 62.6747C11.3636 62.9645 11.3054 63.3153 11.3054 63.7273C11.3054 64.1449 11.3622 64.5 11.4759 64.7926C11.5923 65.0852 11.7557 65.3082 11.9659 65.4616C12.1761 65.6151 12.4219 65.6918 12.7031 65.6918C12.9105 65.6918 13.0966 65.6491 13.2614 65.5639C13.429 65.4787 13.5668 65.3551 13.6747 65.1932C13.7855 65.0284 13.858 64.831 13.892 64.6009H15.6051C15.5767 65.1009 15.4403 65.5412 15.196 65.9219C14.9545 66.2997 14.6207 66.5952 14.1946 66.8082C13.7685 67.0213 13.2642 67.1278 12.6818 67.1278ZM18.5827 63.2159V67H16.7674V58.2727H18.5316V61.6094H18.6083C18.756 61.223 18.9947 60.9205 19.3242 60.7017C19.6538 60.4801 20.0671 60.3693 20.5643 60.3693C21.0188 60.3693 21.4151 60.4688 21.7532 60.6676C22.0941 60.8636 22.3583 61.1463 22.5458 61.5156C22.7362 61.8821 22.8299 62.321 22.8271 62.8324V67H21.0117V63.1562C21.0146 62.7528 20.9123 62.4389 20.7049 62.2145C20.5004 61.9901 20.2134 61.8778 19.8441 61.8778C19.5969 61.8778 19.3782 61.9304 19.1879 62.0355C19.0004 62.1406 18.8526 62.294 18.7447 62.4957C18.6396 62.6946 18.5856 62.9347 18.5827 63.2159ZM26.1222 67.1236C25.7045 67.1236 25.3324 67.0511 25.0057 66.9062C24.679 66.7585 24.4205 66.5412 24.2301 66.2543C24.0426 65.9645 23.9489 65.6037 23.9489 65.1719C23.9489 64.8082 24.0156 64.5028 24.1491 64.2557C24.2827 64.0085 24.4645 63.8097 24.6946 63.6591C24.9247 63.5085 25.1861 63.3949 25.4787 63.3182C25.7741 63.2415 26.0838 63.1875 26.4077 63.1562C26.7884 63.1165 27.0952 63.0795 27.3281 63.0455C27.5611 63.0085 27.7301 62.9545 27.8352 62.8835C27.9403 62.8125 27.9929 62.7074 27.9929 62.5682V62.5426C27.9929 62.2727 27.9077 62.0639 27.7372 61.9162C27.5696 61.7685 27.331 61.6946 27.0213 61.6946C26.6946 61.6946 26.4347 61.767 26.2415 61.9119C26.0483 62.054 25.9205 62.233 25.858 62.4489L24.179 62.3125C24.2642 61.9148 24.4318 61.571 24.6818 61.2812C24.9318 60.9886 25.2543 60.7642 25.6491 60.608C26.0469 60.4489 26.5071 60.3693 27.0298 60.3693C27.3935 60.3693 27.7415 60.4119 28.0739 60.4972C28.4091 60.5824 28.706 60.7145 28.9645 60.8935C29.2259 61.0724 29.4318 61.3026 29.5824 61.5838C29.733 61.8622 29.8082 62.196 29.8082 62.5852V67H28.0866V66.0923H28.0355C27.9304 66.2969 27.7898 66.4773 27.6136 66.6335C27.4375 66.7869 27.2259 66.9077 26.9787 66.9957C26.7315 67.081 26.446 67.1236 26.1222 67.1236ZM26.642 65.8707C26.9091 65.8707 27.1449 65.8182 27.3494 65.7131C27.554 65.6051 27.7145 65.4602 27.831 65.2784C27.9474 65.0966 28.0057 64.8906 28.0057 64.6605V63.9659C27.9489 64.0028 27.8707 64.0369 27.7713 64.0682C27.6747 64.0966 27.5653 64.1236 27.4432 64.1491C27.321 64.1719 27.1989 64.1932 27.0767 64.2131C26.9545 64.2301 26.8438 64.2457 26.7443 64.2599C26.5313 64.2912 26.3452 64.3409 26.1861 64.4091C26.027 64.4773 25.9034 64.5696 25.8153 64.6861C25.7273 64.7997 25.6832 64.9418 25.6832 65.1122C25.6832 65.3594 25.7727 65.5483 25.9517 65.679C26.1335 65.8068 26.3636 65.8707 26.642 65.8707ZM33.032 63.2159V67H31.2166V60.4545H32.9467V61.6094H33.0234C33.1683 61.2287 33.4112 60.9276 33.7521 60.706C34.093 60.4815 34.5064 60.3693 34.9922 60.3693C35.4467 60.3693 35.843 60.4688 36.1811 60.6676C36.5192 60.8665 36.782 61.1506 36.9695 61.5199C37.157 61.8864 37.2507 62.3239 37.2507 62.8324V67H35.4354V63.1562C35.4382 62.7557 35.3359 62.4432 35.1286 62.2188C34.9212 61.9915 34.6357 61.8778 34.272 61.8778C34.0277 61.8778 33.8118 61.9304 33.6243 62.0355C33.4396 62.1406 33.2947 62.294 33.1896 62.4957C33.0874 62.6946 33.0348 62.9347 33.032 63.2159ZM41.6303 69.5909C41.0423 69.5909 40.538 69.5099 40.1175 69.348C39.6999 69.1889 39.3675 68.9716 39.1204 68.696C38.8732 68.4205 38.7127 68.1108 38.6388 67.767L40.3178 67.5412C40.369 67.6719 40.4499 67.794 40.5607 67.9077C40.6715 68.0213 40.8178 68.1122 40.9996 68.1804C41.1843 68.2514 41.4087 68.2869 41.6729 68.2869C42.0678 68.2869 42.3931 68.1903 42.6488 67.9972C42.9073 67.8068 43.0366 67.4872 43.0366 67.0384V65.8409H42.9599C42.8803 66.0227 42.761 66.1946 42.6019 66.3565C42.4428 66.5185 42.2383 66.6506 41.9883 66.7528C41.7383 66.8551 41.44 66.9062 41.0934 66.9062C40.6019 66.9062 40.1545 66.7926 39.7511 66.5653C39.3505 66.3352 39.0309 65.9844 38.7923 65.5128C38.5565 65.0384 38.4386 64.4389 38.4386 63.7145C38.4386 62.973 38.5593 62.3537 38.8008 61.8565C39.0423 61.3594 39.3633 60.9872 39.7638 60.7401C40.1673 60.4929 40.609 60.3693 41.0891 60.3693C41.4556 60.3693 41.7624 60.4318 42.0096 60.5568C42.2567 60.679 42.4556 60.8324 42.6062 61.017C42.7596 61.1989 42.8775 61.3778 42.9599 61.554H43.0281V60.4545H44.8306V67.0639C44.8306 67.6207 44.6942 68.0866 44.4215 68.4616C44.1488 68.8366 43.771 69.1179 43.288 69.3054C42.8079 69.4957 42.2553 69.5909 41.6303 69.5909ZM41.6687 65.5426C41.9613 65.5426 42.2085 65.4702 42.4102 65.3253C42.6147 65.1776 42.771 64.9673 42.8789 64.6946C42.9897 64.419 43.0451 64.0895 43.0451 63.706C43.0451 63.3224 42.9911 62.9901 42.8832 62.7088C42.7752 62.4247 42.619 62.2045 42.4144 62.0483C42.2099 61.892 41.9613 61.8139 41.6687 61.8139C41.3704 61.8139 41.119 61.8949 40.9144 62.0568C40.7099 62.2159 40.555 62.4375 40.4499 62.7216C40.3448 63.0057 40.2923 63.3338 40.2923 63.706C40.2923 64.0838 40.3448 64.4105 40.4499 64.6861C40.5579 64.9588 40.7127 65.1705 40.9144 65.321C41.119 65.4687 41.3704 65.5426 41.6687 65.5426ZM49.2582 67.1278C48.5849 67.1278 48.0053 66.9915 47.5195 66.7188C47.0366 66.4432 46.6644 66.054 46.4031 65.5511C46.1417 65.0455 46.011 64.4474 46.011 63.7571C46.011 63.0838 46.1417 62.4929 46.4031 61.9844C46.6644 61.4759 47.0323 61.0795 47.5067 60.7955C47.984 60.5114 48.5437 60.3693 49.1857 60.3693C49.6175 60.3693 50.0195 60.4389 50.3917 60.5781C50.7667 60.7145 51.0934 60.9205 51.3718 61.196C51.6531 61.4716 51.8718 61.8182 52.0281 62.2358C52.1843 62.6506 52.2624 63.1364 52.2624 63.6932V64.1918H46.7354V63.0668H50.5536C50.5536 62.8054 50.4968 62.5739 50.3832 62.3722C50.2695 62.1705 50.1119 62.0128 49.9102 61.8991C49.7113 61.7827 49.4798 61.7244 49.2156 61.7244C48.94 61.7244 48.6957 61.7884 48.4826 61.9162C48.2724 62.0412 48.1076 62.2102 47.9883 62.4233C47.869 62.6335 47.8079 62.8679 47.805 63.1264V64.196C47.805 64.5199 47.8647 64.7997 47.984 65.0355C48.1062 65.2713 48.2781 65.4531 48.4996 65.581C48.7212 65.7088 48.984 65.7727 49.288 65.7727C49.4897 65.7727 49.6744 65.7443 49.842 65.6875C50.0096 65.6307 50.1531 65.5455 50.2724 65.4318C50.3917 65.3182 50.4826 65.179 50.5451 65.0142L52.2241 65.125C52.1388 65.5284 51.9641 65.8807 51.6999 66.1818C51.4386 66.4801 51.1005 66.7131 50.6857 66.8807C50.2738 67.0455 49.7979 67.1278 49.2582 67.1278Z" fill="white"/>
<g id="capTop">
<path d="M123 34H98V9L123 34Z" fill="#E57C4F"/>
<path d="M148 34H123L148 9V34Z" fill="#E57C4F"/>
</g>
<circle id="anchor:prev" opacity="0.01" cx="123" cy="34" r="1" fill="#D9D9D9"/>
<path id="stripe" d="M148 14L123 39L98 14V9L123 34L148 9V14Z" fill="white"/>
</g>
</svg>
