<svg width="128" height="149" viewBox="0 0 128 149" fill="none" xmlns="http://www.w3.org/2000/svg">
<g id="clear_menu">
<circle id="anchor:next" opacity="0.01" cx="64" cy="140" r="1" fill="#D9D9D9"/>
<g id="arrowHead">
<g id="tip">
<path d="M63.9999 140L89 115H39L63.9999 140Z" fill="white"/>
<path d="M63.9999 135L84 115H44L63.9999 135Z" fill="#BF69F1"/>
</g>
<path id="shaft" d="M76.0477 93H54.0477V115H76.0477V93Z" fill="#BF69F1"/>
</g>
<path id="bodyStretch" d="M0 50.5421C0 41.4061 7.31587 34 16.3404 34H111.66C120.684 34 128 41.4061 128 50.5421V76.4579C128 85.5939 120.684 93 111.66 93H16.3404C7.31587 93 0 85.5939 0 76.4579V50.5421Z" fill="#BF69F1"/>
<g id="capTop">
<path d="M64 34H39V9L64 34Z" fill="#BF69F1"/>
<path d="M89 34H64L89 9V34Z" fill="#BF69F1"/>
</g>
<path id="stripe" d="M89 14L64 39L39 14V9L64 34L89 9V14Z" fill="white"/>
<circle id="anchor:prev" opacity="0.01" cx="64" cy="34" r="1" fill="#D9D9D9"/>
<path id="text" d="M37.6023 68.1598C36.7642 68.1598 36.0433 67.9822 35.4396 67.6271C34.8395 67.2685 34.3778 66.7713 34.0547 66.1357C33.7351 65.5 33.5753 64.7685 33.5753 63.9411C33.5753 63.103 33.7369 62.3679 34.06 61.7358C34.3867 61.1001 34.8501 60.6048 35.4503 60.2496C36.0504 59.891 36.7642 59.7116 37.5916 59.7116C38.3054 59.7116 38.9304 59.8413 39.4666 60.1005C40.0028 60.3597 40.4272 60.7237 40.7397 61.1925C41.0522 61.6612 41.2244 62.2116 41.2564 62.8438H39.1151C39.0547 62.4354 38.8949 62.1069 38.6357 61.8583C38.38 61.6062 38.0444 61.4801 37.6289 61.4801C37.2773 61.4801 36.9702 61.576 36.7074 61.7678C36.4482 61.956 36.2457 62.2312 36.1001 62.5934C35.9545 62.9556 35.8817 63.3942 35.8817 63.9091C35.8817 64.4311 35.9528 64.875 36.0948 65.2408C36.2404 65.6065 36.4446 65.8853 36.7074 66.0771C36.9702 66.2688 37.2773 66.3647 37.6289 66.3647C37.8881 66.3647 38.1207 66.3114 38.3267 66.2049C38.5362 66.0984 38.7085 65.9439 38.8434 65.7415C38.9819 65.5355 39.0724 65.2887 39.1151 65.0011H41.2564C41.2209 65.6261 41.0504 66.1765 40.745 66.6523C40.4432 67.1246 40.0259 67.494 39.4933 67.7603C38.9606 68.0266 38.3303 68.1598 37.6023 68.1598ZM44.9784 57.0909V68H42.7093V57.0909H44.9784ZM50.5249 68.1598C49.6832 68.1598 48.9588 67.9893 48.3516 67.6484C47.7479 67.304 47.2827 66.8175 46.956 66.1889C46.6293 65.5568 46.4659 64.8093 46.4659 63.9464C46.4659 63.1048 46.6293 62.3661 46.956 61.7305C47.2827 61.0948 47.7425 60.5994 48.3356 60.2443C48.9322 59.8892 49.6317 59.7116 50.4343 59.7116C50.9741 59.7116 51.4766 59.7987 51.9418 59.9727C52.4105 60.1431 52.8189 60.4006 53.1669 60.745C53.5185 61.0895 53.7919 61.5227 53.9872 62.0447C54.1825 62.5632 54.2802 63.1705 54.2802 63.8665V64.4897H47.3714V63.0835H52.1442C52.1442 62.7567 52.0732 62.4673 51.9311 62.2152C51.7891 61.9631 51.592 61.766 51.3398 61.6239C51.0913 61.4783 50.8018 61.4055 50.4716 61.4055C50.1271 61.4055 49.8217 61.4854 49.5554 61.6452C49.2926 61.8015 49.0866 62.0128 48.9375 62.2791C48.7884 62.5419 48.712 62.8349 48.7085 63.158V64.495C48.7085 64.8999 48.783 65.2496 48.9322 65.5444C49.0849 65.8391 49.2997 66.0664 49.5767 66.2262C49.8537 66.386 50.1822 66.4659 50.5621 66.4659C50.8143 66.4659 51.0451 66.4304 51.2546 66.3594C51.4641 66.2884 51.6435 66.1818 51.7926 66.0398C51.9418 65.8977 52.0554 65.7237 52.1335 65.5178L54.2322 65.6562C54.1257 66.1605 53.9073 66.6009 53.5771 66.9773C53.2504 67.3501 52.8278 67.6413 52.3093 67.8509C51.7944 68.0568 51.1996 68.1598 50.5249 68.1598ZM58.0941 68.1545C57.5721 68.1545 57.1069 68.0639 56.6985 67.8828C56.2901 67.6982 55.967 67.4265 55.729 67.0678C55.4947 66.7056 55.3775 66.2546 55.3775 65.7148C55.3775 65.2603 55.4609 64.8786 55.6278 64.5696C55.7947 64.2607 56.022 64.0121 56.3097 63.8239C56.5973 63.6357 56.924 63.4936 57.2898 63.3977C57.6591 63.3018 58.0462 63.2344 58.451 63.1953C58.9268 63.1456 59.3104 63.0994 59.6016 63.0568C59.8928 63.0107 60.104 62.9432 60.2354 62.8544C60.3668 62.7656 60.4325 62.6342 60.4325 62.4602V62.4283C60.4325 62.0909 60.326 61.8299 60.1129 61.6452C59.9034 61.4606 59.6051 61.3683 59.218 61.3683C58.8097 61.3683 58.4847 61.4588 58.2433 61.6399C58.0018 61.8175 57.842 62.0412 57.7638 62.3111L55.6651 62.1406C55.7717 61.6435 55.9812 61.2138 56.2937 60.8516C56.6062 60.4858 57.0092 60.2053 57.5028 60.0099C58 59.8111 58.5753 59.7116 59.2287 59.7116C59.6832 59.7116 60.1183 59.7649 60.5337 59.8714C60.9528 59.978 61.3239 60.1431 61.647 60.3668C61.9737 60.5906 62.2312 60.8782 62.4194 61.2298C62.6076 61.5778 62.7017 61.995 62.7017 62.4815V68H60.5497V66.8654H60.4858C60.3544 67.1211 60.1786 67.3466 59.9585 67.5419C59.7383 67.7337 59.4737 67.8846 59.1648 67.9947C58.8558 68.1012 58.4989 68.1545 58.0941 68.1545ZM58.744 66.5884C59.0778 66.5884 59.3725 66.5227 59.6282 66.3913C59.8839 66.2564 60.0845 66.0753 60.2301 65.848C60.3757 65.6207 60.4485 65.3633 60.4485 65.0756V64.2074C60.3775 64.2536 60.2798 64.2962 60.1555 64.3352C60.0348 64.3707 59.8981 64.4045 59.7454 64.4364C59.5927 64.4648 59.44 64.4915 59.2873 64.5163C59.1346 64.5376 58.9961 64.5572 58.8718 64.5749C58.6055 64.614 58.3729 64.6761 58.174 64.7614C57.9751 64.8466 57.8207 64.962 57.7106 65.1076C57.6005 65.2496 57.5455 65.4272 57.5455 65.6403C57.5455 65.9492 57.6573 66.1854 57.881 66.3487C58.1083 66.5085 58.396 66.5884 58.744 66.5884ZM64.4622 68V59.8182H66.6621V61.2457H66.7473C66.8965 60.7379 67.1468 60.3544 67.4984 60.0952C67.85 59.8324 68.2548 59.701 68.7129 59.701C68.8265 59.701 68.949 59.7081 69.0804 59.7223C69.2118 59.7365 69.3272 59.756 69.4267 59.7809V61.7944C69.3201 61.7624 69.1728 61.734 68.9846 61.7092C68.7963 61.6843 68.6241 61.6719 68.4679 61.6719C68.1341 61.6719 67.8358 61.7447 67.573 61.8903C67.3137 62.0323 67.1078 62.2312 66.9551 62.4869C66.8059 62.7425 66.7314 63.0373 66.7314 63.3711V68H64.4622ZM76.4047 68.1545C75.8826 68.1545 75.4174 68.0639 75.0091 67.8828C74.6007 67.6982 74.2775 67.4265 74.0396 67.0678C73.8052 66.7056 73.688 66.2546 73.688 65.7148C73.688 65.2603 73.7715 64.8786 73.9384 64.5696C74.1053 64.2607 74.3326 64.0121 74.6202 63.8239C74.9078 63.6357 75.2346 63.4936 75.6003 63.3977C75.9696 63.3018 76.3567 63.2344 76.7615 63.1953C77.2374 63.1456 77.6209 63.0994 77.9121 63.0568C78.2033 63.0107 78.4146 62.9432 78.546 62.8544C78.6774 62.7656 78.7431 62.6342 78.7431 62.4602V62.4283C78.7431 62.0909 78.6365 61.8299 78.4235 61.6452C78.214 61.4606 77.9157 61.3683 77.5286 61.3683C77.1202 61.3683 76.7953 61.4588 76.5538 61.6399C76.3123 61.8175 76.1525 62.0412 76.0744 62.3111L73.9757 62.1406C74.0822 61.6435 74.2917 61.2138 74.6042 60.8516C74.9167 60.4858 75.3198 60.2053 75.8134 60.0099C76.3105 59.8111 76.8858 59.7116 77.5392 59.7116C77.9938 59.7116 78.4288 59.7649 78.8443 59.8714C79.2633 59.978 79.6344 60.1431 79.9576 60.3668C80.2843 60.5906 80.5417 60.8782 80.7299 61.2298C80.9181 61.5778 81.0123 61.995 81.0123 62.4815V68H78.8603V66.8654H78.7963C78.665 67.1211 78.4892 67.3466 78.269 67.5419C78.0488 67.7337 77.7843 67.8846 77.4753 67.9947C77.1664 68.1012 76.8095 68.1545 76.4047 68.1545ZM77.0545 66.5884C77.3883 66.5884 77.6831 66.5227 77.9387 66.3913C78.1944 66.2564 78.3951 66.0753 78.5407 65.848C78.6863 65.6207 78.7591 65.3633 78.7591 65.0756V64.2074C78.688 64.2536 78.5904 64.2962 78.4661 64.3352C78.3453 64.3707 78.2086 64.4045 78.0559 64.4364C77.9032 64.4648 77.7505 64.4915 77.5978 64.5163C77.4451 64.5376 77.3066 64.5572 77.1824 64.5749C76.916 64.614 76.6834 64.6761 76.4846 64.7614C76.2857 64.8466 76.1312 64.962 76.0211 65.1076C75.911 65.2496 75.856 65.4272 75.856 65.6403C75.856 65.9492 75.9679 66.1854 76.1916 66.3487C76.4189 66.5085 76.7065 66.5884 77.0545 66.5884ZM85.0419 57.0909V68H82.7727V57.0909H85.0419ZM89.1288 57.0909V68H86.8596V57.0909H89.1288Z" fill="white"/>
</g>
</svg>
