<svg width="128" height="149" viewBox="0 0 128 149" fill="none" xmlns="http://www.w3.org/2000/svg">
<g id="clear">
<g id="block_shape">
<path id="next_block_arrowbody" d="M75 93H53V115H75V93Z" fill="#BF69F1"/>
<path id="next_block_arrowhead" d="M63.5 149L89.048 114.5H37.9523L63.5 149Z" fill="#BF69F1"/>
<g id="prev_block_connector">
<path d="M63.5 34H38V0H38.3223L63.5 34Z" fill="#BF69F1"/>
<path d="M89 34H63.5L88.678 0H89V34Z" fill="#BF69F1"/>
</g>
<path id="block_body" d="M0 50.5421C0 41.4061 7.31587 34 16.3404 34H111.66C120.684 34 128 41.4061 128 50.5421V76.4579C128 85.5939 120.684 93 111.66 93H16.3404C7.31587 93 0 85.5939 0 76.4579V50.5421Z" fill="#BF69F1"/>
</g>
<g id="block_input">
<path id="clear_text" d="M43.6818 65.1278C43.0114 65.1278 42.4347 64.9858 41.9517 64.7017C41.4716 64.4148 41.1023 64.017 40.8438 63.5085C40.5881 63 40.4602 62.4148 40.4602 61.7528C40.4602 61.0824 40.5895 60.4943 40.848 59.9886C41.1094 59.4801 41.4801 59.0838 41.9602 58.7997C42.4403 58.5128 43.0114 58.3693 43.6733 58.3693C44.2443 58.3693 44.7443 58.473 45.1733 58.6804C45.6023 58.8878 45.9418 59.179 46.1918 59.554C46.4418 59.929 46.5795 60.3693 46.6051 60.875H44.892C44.8438 60.5483 44.7159 60.2855 44.5085 60.0866C44.304 59.8849 44.0355 59.7841 43.7031 59.7841C43.4219 59.7841 43.1761 59.8608 42.9659 60.0142C42.7585 60.1648 42.5966 60.3849 42.4801 60.6747C42.3636 60.9645 42.3054 61.3153 42.3054 61.7273C42.3054 62.1449 42.3622 62.5 42.4759 62.7926C42.5923 63.0852 42.7557 63.3082 42.9659 63.4616C43.1761 63.6151 43.4219 63.6918 43.7031 63.6918C43.9105 63.6918 44.0966 63.6491 44.2614 63.5639C44.429 63.4787 44.5668 63.3551 44.6747 63.1932C44.7855 63.0284 44.858 62.831 44.892 62.6009H46.6051C46.5767 63.1009 46.4403 63.5412 46.196 63.9219C45.9545 64.2997 45.6207 64.5952 45.1946 64.8082C44.7685 65.0213 44.2642 65.1278 43.6818 65.1278ZM49.5827 56.2727V65H47.7674V56.2727H49.5827ZM54.0199 65.1278C53.3466 65.1278 52.767 64.9915 52.2812 64.7188C51.7983 64.4432 51.4261 64.054 51.1648 63.5511C50.9034 63.0455 50.7727 62.4474 50.7727 61.7571C50.7727 61.0838 50.9034 60.4929 51.1648 59.9844C51.4261 59.4759 51.794 59.0795 52.2685 58.7955C52.7457 58.5114 53.3054 58.3693 53.9474 58.3693C54.3793 58.3693 54.7813 58.4389 55.1534 58.5781C55.5284 58.7145 55.8551 58.9205 56.1335 59.196C56.4148 59.4716 56.6335 59.8182 56.7898 60.2358C56.946 60.6506 57.0241 61.1364 57.0241 61.6932V62.1918H51.4972V61.0668H55.3153C55.3153 60.8054 55.2585 60.5739 55.1449 60.3722C55.0313 60.1705 54.8736 60.0128 54.6719 59.8991C54.473 59.7827 54.2415 59.7244 53.9773 59.7244C53.7017 59.7244 53.4574 59.7884 53.2443 59.9162C53.0341 60.0412 52.8693 60.2102 52.75 60.4233C52.6307 60.6335 52.5696 60.8679 52.5668 61.1264V62.196C52.5668 62.5199 52.6264 62.7997 52.7457 63.0355C52.8679 63.2713 53.0398 63.4531 53.2614 63.581C53.483 63.7088 53.7457 63.7727 54.0497 63.7727C54.2514 63.7727 54.4361 63.7443 54.6037 63.6875C54.7713 63.6307 54.9148 63.5455 55.0341 63.4318C55.1534 63.3182 55.2443 63.179 55.3068 63.0142L56.9858 63.125C56.9006 63.5284 56.7259 63.8807 56.4616 64.1818C56.2003 64.4801 55.8622 64.7131 55.4474 64.8807C55.0355 65.0455 54.5597 65.1278 54.0199 65.1278ZM60.0753 65.1236C59.6577 65.1236 59.2855 65.0511 58.9588 64.9062C58.6321 64.7585 58.3736 64.5412 58.1832 64.2543C57.9957 63.9645 57.902 63.6037 57.902 63.1719C57.902 62.8082 57.9688 62.5028 58.1023 62.2557C58.2358 62.0085 58.4176 61.8097 58.6477 61.6591C58.8778 61.5085 59.1392 61.3949 59.4318 61.3182C59.7273 61.2415 60.0369 61.1875 60.3608 61.1562C60.7415 61.1165 61.0483 61.0795 61.2812 61.0455C61.5142 61.0085 61.6832 60.9545 61.7884 60.8835C61.8935 60.8125 61.946 60.7074 61.946 60.5682V60.5426C61.946 60.2727 61.8608 60.0639 61.6903 59.9162C61.5227 59.7685 61.2841 59.6946 60.9744 59.6946C60.6477 59.6946 60.3878 59.767 60.1946 59.9119C60.0014 60.054 59.8736 60.233 59.8111 60.4489L58.1321 60.3125C58.2173 59.9148 58.3849 59.571 58.6349 59.2812C58.8849 58.9886 59.2074 58.7642 59.6023 58.608C60 58.4489 60.4602 58.3693 60.983 58.3693C61.3466 58.3693 61.6946 58.4119 62.027 58.4972C62.3622 58.5824 62.6591 58.7145 62.9176 58.8935C63.179 59.0724 63.3849 59.3026 63.5355 59.5838C63.6861 59.8622 63.7614 60.196 63.7614 60.5852V65H62.0398V64.0923H61.9886C61.8835 64.2969 61.7429 64.4773 61.5668 64.6335C61.3906 64.7869 61.179 64.9077 60.9318 64.9957C60.6847 65.081 60.3991 65.1236 60.0753 65.1236ZM60.5952 63.8707C60.8622 63.8707 61.098 63.8182 61.3026 63.7131C61.5071 63.6051 61.6676 63.4602 61.7841 63.2784C61.9006 63.0966 61.9588 62.8906 61.9588 62.6605V61.9659C61.902 62.0028 61.8239 62.0369 61.7244 62.0682C61.6278 62.0966 61.5185 62.1236 61.3963 62.1491C61.2741 62.1719 61.152 62.1932 61.0298 62.2131C60.9077 62.2301 60.7969 62.2457 60.6974 62.2599C60.4844 62.2912 60.2983 62.3409 60.1392 62.4091C59.9801 62.4773 59.8565 62.5696 59.7685 62.6861C59.6804 62.7997 59.6364 62.9418 59.6364 63.1122C59.6364 63.3594 59.7259 63.5483 59.9048 63.679C60.0866 63.8068 60.3168 63.8707 60.5952 63.8707ZM65.1697 65V58.4545H66.9297V59.5966H66.9979C67.1172 59.1903 67.3175 58.8835 67.5987 58.6761C67.88 58.4659 68.2038 58.3608 68.5703 58.3608C68.6612 58.3608 68.7592 58.3665 68.8643 58.3778C68.9695 58.3892 69.0618 58.4048 69.1413 58.4247V60.0355C69.0561 60.0099 68.9382 59.9872 68.7876 59.9673C68.6371 59.9474 68.4993 59.9375 68.3743 59.9375C68.1072 59.9375 67.8686 59.9957 67.6584 60.1122C67.451 60.2259 67.2862 60.3849 67.1641 60.5895C67.0447 60.794 66.9851 61.0298 66.9851 61.2969V65H65.1697ZM74.7237 65.1236C74.3061 65.1236 73.9339 65.0511 73.6072 64.9062C73.2805 64.7585 73.022 64.5412 72.8317 64.2543C72.6442 63.9645 72.5504 63.6037 72.5504 63.1719C72.5504 62.8082 72.6172 62.5028 72.7507 62.2557C72.8842 62.0085 73.0661 61.8097 73.2962 61.6591C73.5263 61.5085 73.7876 61.3949 74.0803 61.3182C74.3757 61.2415 74.6854 61.1875 75.0092 61.1562C75.3899 61.1165 75.6967 61.0795 75.9297 61.0455C76.1626 61.0085 76.3317 60.9545 76.4368 60.8835C76.5419 60.8125 76.5945 60.7074 76.5945 60.5682V60.5426C76.5945 60.2727 76.5092 60.0639 76.3388 59.9162C76.1712 59.7685 75.9325 59.6946 75.6229 59.6946C75.2962 59.6946 75.0362 59.767 74.843 59.9119C74.6499 60.054 74.522 60.233 74.4595 60.4489L72.7805 60.3125C72.8658 59.9148 73.0334 59.571 73.2834 59.2812C73.5334 58.9886 73.8558 58.7642 74.2507 58.608C74.6484 58.4489 75.1087 58.3693 75.6314 58.3693C75.995 58.3693 76.343 58.4119 76.6754 58.4972C77.0107 58.5824 77.3075 58.7145 77.5661 58.8935C77.8274 59.0724 78.0334 59.3026 78.1839 59.5838C78.3345 59.8622 78.4098 60.196 78.4098 60.5852V65H76.6882V64.0923H76.6371C76.532 64.2969 76.3913 64.4773 76.2152 64.6335C76.0391 64.7869 75.8274 64.9077 75.5803 64.9957C75.3331 65.081 75.0476 65.1236 74.7237 65.1236ZM75.2436 63.8707C75.5107 63.8707 75.7464 63.8182 75.951 63.7131C76.1555 63.6051 76.3161 63.4602 76.4325 63.2784C76.549 63.0966 76.6072 62.8906 76.6072 62.6605V61.9659C76.5504 62.0028 76.4723 62.0369 76.3729 62.0682C76.2763 62.0966 76.1669 62.1236 76.0447 62.1491C75.9226 62.1719 75.8004 62.1932 75.6783 62.2131C75.5561 62.2301 75.4453 62.2457 75.3459 62.2599C75.1328 62.2912 74.9467 62.3409 74.7876 62.4091C74.6286 62.4773 74.505 62.5696 74.4169 62.6861C74.3288 62.7997 74.2848 62.9418 74.2848 63.1122C74.2848 63.3594 74.3743 63.5483 74.5533 63.679C74.7351 63.8068 74.9652 63.8707 75.2436 63.8707ZM81.6335 56.2727V65H79.8182V56.2727H81.6335ZM84.9031 56.2727V65H83.0877V56.2727H84.9031Z" fill="white"/>
</g>
</g>
</svg>
