<svg width="128" height="149" viewBox="0 0 128 149" fill="none" xmlns="http://www.w3.org/2000/svg">
<g id="clear">
<circle id="anchor:next" opacity="0.01" cx="64" cy="140" r="1" fill="#D9D9D9"/>
<g id="arrowHead">
<g id="tip">
<path d="M63.9999 140L89 115H39L63.9999 140Z" fill="white"/>
<path d="M63.9999 135L84 115H44L63.9999 135Z" fill="#BF69F1"/>
</g>
<path id="shaft" d="M76.0477 93H54.0477V115H76.0477V93Z" fill="#BF69F1"/>
</g>
<path id="bodyStretch" d="M0 50.5421C0 41.4061 7.31587 34 16.3404 34H111.66C120.684 34 128 41.4061 128 50.5421V76.4579C128 85.5939 120.684 93 111.66 93H16.3404C7.31587 93 0 85.5939 0 76.4579V50.5421Z" fill="#BF69F1"/>
<g id="capTop">
<path d="M64 34H39V9L64 34Z" fill="#BF69F1"/>
<path d="M89 34H64L89 9V34Z" fill="#BF69F1"/>
</g>
<path id="stripe" d="M89 14L64 39L39 14V9L64 34L89 9V14Z" fill="white"/>
<circle id="anchor:prev" opacity="0.01" cx="64" cy="34" r="1" fill="#D9D9D9"/>
<path id="text" d="M39.6818 66.1278C39.0114 66.1278 38.4347 65.9858 37.9517 65.7017C37.4716 65.4148 37.1023 65.017 36.8438 64.5085C36.5881 64 36.4602 63.4148 36.4602 62.7528C36.4602 62.0824 36.5895 61.4943 36.848 60.9886C37.1094 60.4801 37.4801 60.0838 37.9602 59.7997C38.4403 59.5128 39.0114 59.3693 39.6733 59.3693C40.2443 59.3693 40.7443 59.473 41.1733 59.6804C41.6023 59.8878 41.9418 60.179 42.1918 60.554C42.4418 60.929 42.5795 61.3693 42.6051 61.875H40.892C40.8438 61.5483 40.7159 61.2855 40.5085 61.0866C40.304 60.8849 40.0355 60.7841 39.7031 60.7841C39.4219 60.7841 39.1761 60.8608 38.9659 61.0142C38.7585 61.1648 38.5966 61.3849 38.4801 61.6747C38.3636 61.9645 38.3054 62.3153 38.3054 62.7273C38.3054 63.1449 38.3622 63.5 38.4759 63.7926C38.5923 64.0852 38.7557 64.3082 38.9659 64.4616C39.1761 64.6151 39.4219 64.6918 39.7031 64.6918C39.9105 64.6918 40.0966 64.6491 40.2614 64.5639C40.429 64.4787 40.5668 64.3551 40.6747 64.1932C40.7855 64.0284 40.858 63.831 40.892 63.6009H42.6051C42.5767 64.1009 42.4403 64.5412 42.196 64.9219C41.9545 65.2997 41.6207 65.5952 41.1946 65.8082C40.7685 66.0213 40.2642 66.1278 39.6818 66.1278ZM45.5827 57.2727V66H43.7674V57.2727H45.5827ZM50.0199 66.1278C49.3466 66.1278 48.767 65.9915 48.2812 65.7188C47.7983 65.4432 47.4261 65.054 47.1648 64.5511C46.9034 64.0455 46.7727 63.4474 46.7727 62.7571C46.7727 62.0838 46.9034 61.4929 47.1648 60.9844C47.4261 60.4759 47.794 60.0795 48.2685 59.7955C48.7457 59.5114 49.3054 59.3693 49.9474 59.3693C50.3793 59.3693 50.7813 59.4389 51.1534 59.5781C51.5284 59.7145 51.8551 59.9205 52.1335 60.196C52.4148 60.4716 52.6335 60.8182 52.7898 61.2358C52.946 61.6506 53.0241 62.1364 53.0241 62.6932V63.1918H47.4972V62.0668H51.3153C51.3153 61.8054 51.2585 61.5739 51.1449 61.3722C51.0313 61.1705 50.8736 61.0128 50.6719 60.8991C50.473 60.7827 50.2415 60.7244 49.9773 60.7244C49.7017 60.7244 49.4574 60.7884 49.2443 60.9162C49.0341 61.0412 48.8693 61.2102 48.75 61.4233C48.6307 61.6335 48.5696 61.8679 48.5668 62.1264V63.196C48.5668 63.5199 48.6264 63.7997 48.7457 64.0355C48.8679 64.2713 49.0398 64.4531 49.2614 64.581C49.483 64.7088 49.7457 64.7727 50.0497 64.7727C50.2514 64.7727 50.4361 64.7443 50.6037 64.6875C50.7713 64.6307 50.9148 64.5455 51.0341 64.4318C51.1534 64.3182 51.2443 64.179 51.3068 64.0142L52.9858 64.125C52.9006 64.5284 52.7259 64.8807 52.4616 65.1818C52.2003 65.4801 51.8622 65.7131 51.4474 65.8807C51.0355 66.0455 50.5597 66.1278 50.0199 66.1278ZM56.0753 66.1236C55.6577 66.1236 55.2855 66.0511 54.9588 65.9062C54.6321 65.7585 54.3736 65.5412 54.1832 65.2543C53.9957 64.9645 53.902 64.6037 53.902 64.1719C53.902 63.8082 53.9688 63.5028 54.1023 63.2557C54.2358 63.0085 54.4176 62.8097 54.6477 62.6591C54.8778 62.5085 55.1392 62.3949 55.4318 62.3182C55.7273 62.2415 56.0369 62.1875 56.3608 62.1562C56.7415 62.1165 57.0483 62.0795 57.2812 62.0455C57.5142 62.0085 57.6832 61.9545 57.7884 61.8835C57.8935 61.8125 57.946 61.7074 57.946 61.5682V61.5426C57.946 61.2727 57.8608 61.0639 57.6903 60.9162C57.5227 60.7685 57.2841 60.6946 56.9744 60.6946C56.6477 60.6946 56.3878 60.767 56.1946 60.9119C56.0014 61.054 55.8736 61.233 55.8111 61.4489L54.1321 61.3125C54.2173 60.9148 54.3849 60.571 54.6349 60.2812C54.8849 59.9886 55.2074 59.7642 55.6023 59.608C56 59.4489 56.4602 59.3693 56.983 59.3693C57.3466 59.3693 57.6946 59.4119 58.027 59.4972C58.3622 59.5824 58.6591 59.7145 58.9176 59.8935C59.179 60.0724 59.3849 60.3026 59.5355 60.5838C59.6861 60.8622 59.7614 61.196 59.7614 61.5852V66H58.0398V65.0923H57.9886C57.8835 65.2969 57.7429 65.4773 57.5668 65.6335C57.3906 65.7869 57.179 65.9077 56.9318 65.9957C56.6847 66.081 56.3991 66.1236 56.0753 66.1236ZM56.5952 64.8707C56.8622 64.8707 57.098 64.8182 57.3026 64.7131C57.5071 64.6051 57.6676 64.4602 57.7841 64.2784C57.9006 64.0966 57.9588 63.8906 57.9588 63.6605V62.9659C57.902 63.0028 57.8239 63.0369 57.7244 63.0682C57.6278 63.0966 57.5185 63.1236 57.3963 63.1491C57.2741 63.1719 57.152 63.1932 57.0298 63.2131C56.9077 63.2301 56.7969 63.2457 56.6974 63.2599C56.4844 63.2912 56.2983 63.3409 56.1392 63.4091C55.9801 63.4773 55.8565 63.5696 55.7685 63.6861C55.6804 63.7997 55.6364 63.9418 55.6364 64.1122C55.6364 64.3594 55.7259 64.5483 55.9048 64.679C56.0866 64.8068 56.3168 64.8707 56.5952 64.8707ZM61.1697 66V59.4545H62.9297V60.5966H62.9979C63.1172 60.1903 63.3175 59.8835 63.5987 59.6761C63.88 59.4659 64.2038 59.3608 64.5703 59.3608C64.6612 59.3608 64.7592 59.3665 64.8643 59.3778C64.9695 59.3892 65.0618 59.4048 65.1413 59.4247V61.0355C65.0561 61.0099 64.9382 60.9872 64.7876 60.9673C64.6371 60.9474 64.4993 60.9375 64.3743 60.9375C64.1072 60.9375 63.8686 60.9957 63.6584 61.1122C63.451 61.2259 63.2862 61.3849 63.1641 61.5895C63.0447 61.794 62.9851 62.0298 62.9851 62.2969V66H61.1697ZM70.7237 66.1236C70.3061 66.1236 69.9339 66.0511 69.6072 65.9062C69.2805 65.7585 69.022 65.5412 68.8317 65.2543C68.6442 64.9645 68.5504 64.6037 68.5504 64.1719C68.5504 63.8082 68.6172 63.5028 68.7507 63.2557C68.8842 63.0085 69.0661 62.8097 69.2962 62.6591C69.5263 62.5085 69.7876 62.3949 70.0803 62.3182C70.3757 62.2415 70.6854 62.1875 71.0092 62.1562C71.3899 62.1165 71.6967 62.0795 71.9297 62.0455C72.1626 62.0085 72.3317 61.9545 72.4368 61.8835C72.5419 61.8125 72.5945 61.7074 72.5945 61.5682V61.5426C72.5945 61.2727 72.5092 61.0639 72.3388 60.9162C72.1712 60.7685 71.9325 60.6946 71.6229 60.6946C71.2962 60.6946 71.0362 60.767 70.843 60.9119C70.6499 61.054 70.522 61.233 70.4595 61.4489L68.7805 61.3125C68.8658 60.9148 69.0334 60.571 69.2834 60.2812C69.5334 59.9886 69.8558 59.7642 70.2507 59.608C70.6484 59.4489 71.1087 59.3693 71.6314 59.3693C71.995 59.3693 72.343 59.4119 72.6754 59.4972C73.0107 59.5824 73.3075 59.7145 73.5661 59.8935C73.8274 60.0724 74.0334 60.3026 74.1839 60.5838C74.3345 60.8622 74.4098 61.196 74.4098 61.5852V66H72.6882V65.0923H72.6371C72.532 65.2969 72.3913 65.4773 72.2152 65.6335C72.0391 65.7869 71.8274 65.9077 71.5803 65.9957C71.3331 66.081 71.0476 66.1236 70.7237 66.1236ZM71.2436 64.8707C71.5107 64.8707 71.7464 64.8182 71.951 64.7131C72.1555 64.6051 72.3161 64.4602 72.4325 64.2784C72.549 64.0966 72.6072 63.8906 72.6072 63.6605V62.9659C72.5504 63.0028 72.4723 63.0369 72.3729 63.0682C72.2763 63.0966 72.1669 63.1236 72.0447 63.1491C71.9226 63.1719 71.8004 63.1932 71.6783 63.2131C71.5561 63.2301 71.4453 63.2457 71.3459 63.2599C71.1328 63.2912 70.9467 63.3409 70.7876 63.4091C70.6286 63.4773 70.505 63.5696 70.4169 63.6861C70.3288 63.7997 70.2848 63.9418 70.2848 64.1122C70.2848 64.3594 70.3743 64.5483 70.5533 64.679C70.7351 64.8068 70.9652 64.8707 71.2436 64.8707ZM77.6335 57.2727V66H75.8182V57.2727H77.6335ZM80.9031 57.2727V66H79.0877V57.2727H80.9031Z" fill="white"/>
</g>
</svg>
