<svg width="248" height="174" viewBox="0 0 248 174" fill="none" xmlns="http://www.w3.org/2000/svg">
<g id="clear">
<g id="block_shape">
<path id="next_block_arrowbody" d="M133 103H111V125H133V103Z" fill="#BF69F1"/>
<path id="next_block_arrowhead" d="M121.5 159L147.048 124.5H95.9523L121.5 159Z" fill="#BF69F1"/>
<g id="prev_block_connector">
<path d="M121.5 44H96V10H96.3223L121.5 44Z" fill="#BF69F1"/>
<path d="M147 44H121.5L146.678 10H147V44Z" fill="#BF69F1"/>
</g>
<path id="block_body" d="M58 60.5421C58 51.4061 65.3159 44 74.3404 44H169.66C178.684 44 186 51.4061 186 60.5421V86.4579C186 95.5939 178.684 103 169.66 103H74.3404C65.3159 103 58 95.5939 58 86.4579V60.5421Z" fill="#BF69F1"/>
</g>
<g id="block_input">
<path id="clear_text" d="M101.682 75.1278C101.011 75.1278 100.435 74.9858 99.9517 74.7017C99.4716 74.4148 99.1023 74.017 98.8438 73.5085C98.5881 73 98.4602 72.4148 98.4602 71.7528C98.4602 71.0824 98.5895 70.4943 98.848 69.9886C99.1094 69.4801 99.4801 69.0838 99.9602 68.7997C100.44 68.5128 101.011 68.3693 101.673 68.3693C102.244 68.3693 102.744 68.473 103.173 68.6804C103.602 68.8878 103.942 69.179 104.192 69.554C104.442 69.929 104.58 70.3693 104.605 70.875H102.892C102.844 70.5483 102.716 70.2855 102.509 70.0866C102.304 69.8849 102.036 69.7841 101.703 69.7841C101.422 69.7841 101.176 69.8608 100.966 70.0142C100.759 70.1648 100.597 70.3849 100.48 70.6747C100.364 70.9645 100.305 71.3153 100.305 71.7273C100.305 72.1449 100.362 72.5 100.476 72.7926C100.592 73.0852 100.756 73.3082 100.966 73.4616C101.176 73.6151 101.422 73.6918 101.703 73.6918C101.911 73.6918 102.097 73.6491 102.261 73.5639C102.429 73.4787 102.567 73.3551 102.675 73.1932C102.786 73.0284 102.858 72.831 102.892 72.6009H104.605C104.577 73.1009 104.44 73.5412 104.196 73.9219C103.955 74.2997 103.621 74.5952 103.195 74.8082C102.768 75.0213 102.264 75.1278 101.682 75.1278ZM107.583 66.2727V75H105.767V66.2727H107.583ZM112.02 75.1278C111.347 75.1278 110.767 74.9915 110.281 74.7188C109.798 74.4432 109.426 74.054 109.165 73.5511C108.903 73.0455 108.773 72.4474 108.773 71.7571C108.773 71.0838 108.903 70.4929 109.165 69.9844C109.426 69.4759 109.794 69.0795 110.268 68.7955C110.746 68.5114 111.305 68.3693 111.947 68.3693C112.379 68.3693 112.781 68.4389 113.153 68.5781C113.528 68.7145 113.855 68.9205 114.134 69.196C114.415 69.4716 114.634 69.8182 114.79 70.2358C114.946 70.6506 115.024 71.1364 115.024 71.6932V72.1918H109.497V71.0668H113.315C113.315 70.8054 113.259 70.5739 113.145 70.3722C113.031 70.1705 112.874 70.0128 112.672 69.8991C112.473 69.7827 112.241 69.7244 111.977 69.7244C111.702 69.7244 111.457 69.7884 111.244 69.9162C111.034 70.0412 110.869 70.2102 110.75 70.4233C110.631 70.6335 110.57 70.8679 110.567 71.1264V72.196C110.567 72.5199 110.626 72.7997 110.746 73.0355C110.868 73.2713 111.04 73.4531 111.261 73.581C111.483 73.7088 111.746 73.7727 112.05 73.7727C112.251 73.7727 112.436 73.7443 112.604 73.6875C112.771 73.6307 112.915 73.5455 113.034 73.4318C113.153 73.3182 113.244 73.179 113.307 73.0142L114.986 73.125C114.901 73.5284 114.726 73.8807 114.462 74.1818C114.2 74.4801 113.862 74.7131 113.447 74.8807C113.036 75.0455 112.56 75.1278 112.02 75.1278ZM118.075 75.1236C117.658 75.1236 117.286 75.0511 116.959 74.9062C116.632 74.7585 116.374 74.5412 116.183 74.2543C115.996 73.9645 115.902 73.6037 115.902 73.1719C115.902 72.8082 115.969 72.5028 116.102 72.2557C116.236 72.0085 116.418 71.8097 116.648 71.6591C116.878 71.5085 117.139 71.3949 117.432 71.3182C117.727 71.2415 118.037 71.1875 118.361 71.1562C118.741 71.1165 119.048 71.0795 119.281 71.0455C119.514 71.0085 119.683 70.9545 119.788 70.8835C119.893 70.8125 119.946 70.7074 119.946 70.5682V70.5426C119.946 70.2727 119.861 70.0639 119.69 69.9162C119.523 69.7685 119.284 69.6946 118.974 69.6946C118.648 69.6946 118.388 69.767 118.195 69.9119C118.001 70.054 117.874 70.233 117.811 70.4489L116.132 70.3125C116.217 69.9148 116.385 69.571 116.635 69.2812C116.885 68.9886 117.207 68.7642 117.602 68.608C118 68.4489 118.46 68.3693 118.983 68.3693C119.347 68.3693 119.695 68.4119 120.027 68.4972C120.362 68.5824 120.659 68.7145 120.918 68.8935C121.179 69.0724 121.385 69.3026 121.536 69.5838C121.686 69.8622 121.761 70.196 121.761 70.5852V75H120.04V74.0923H119.989C119.884 74.2969 119.743 74.4773 119.567 74.6335C119.391 74.7869 119.179 74.9077 118.932 74.9957C118.685 75.081 118.399 75.1236 118.075 75.1236ZM118.595 73.8707C118.862 73.8707 119.098 73.8182 119.303 73.7131C119.507 73.6051 119.668 73.4602 119.784 73.2784C119.901 73.0966 119.959 72.8906 119.959 72.6605V71.9659C119.902 72.0028 119.824 72.0369 119.724 72.0682C119.628 72.0966 119.518 72.1236 119.396 72.1491C119.274 72.1719 119.152 72.1932 119.03 72.2131C118.908 72.2301 118.797 72.2457 118.697 72.2599C118.484 72.2912 118.298 72.3409 118.139 72.4091C117.98 72.4773 117.857 72.5696 117.768 72.6861C117.68 72.7997 117.636 72.9418 117.636 73.1122C117.636 73.3594 117.726 73.5483 117.905 73.679C118.087 73.8068 118.317 73.8707 118.595 73.8707ZM123.17 75V68.4545H124.93V69.5966H124.998C125.117 69.1903 125.317 68.8835 125.599 68.6761C125.88 68.4659 126.204 68.3608 126.57 68.3608C126.661 68.3608 126.759 68.3665 126.864 68.3778C126.969 68.3892 127.062 68.4048 127.141 68.4247V70.0355C127.056 70.0099 126.938 69.9872 126.788 69.9673C126.637 69.9474 126.499 69.9375 126.374 69.9375C126.107 69.9375 125.869 69.9957 125.658 70.1122C125.451 70.2259 125.286 70.3849 125.164 70.5895C125.045 70.794 124.985 71.0298 124.985 71.2969V75H123.17ZM132.724 75.1236C132.306 75.1236 131.934 75.0511 131.607 74.9062C131.281 74.7585 131.022 74.5412 130.832 74.2543C130.644 73.9645 130.55 73.6037 130.55 73.1719C130.55 72.8082 130.617 72.5028 130.751 72.2557C130.884 72.0085 131.066 71.8097 131.296 71.6591C131.526 71.5085 131.788 71.3949 132.08 71.3182C132.376 71.2415 132.685 71.1875 133.009 71.1562C133.39 71.1165 133.697 71.0795 133.93 71.0455C134.163 71.0085 134.332 70.9545 134.437 70.8835C134.542 70.8125 134.594 70.7074 134.594 70.5682V70.5426C134.594 70.2727 134.509 70.0639 134.339 69.9162C134.171 69.7685 133.933 69.6946 133.623 69.6946C133.296 69.6946 133.036 69.767 132.843 69.9119C132.65 70.054 132.522 70.233 132.46 70.4489L130.781 70.3125C130.866 69.9148 131.033 69.571 131.283 69.2812C131.533 68.9886 131.856 68.7642 132.251 68.608C132.648 68.4489 133.109 68.3693 133.631 68.3693C133.995 68.3693 134.343 68.4119 134.675 68.4972C135.011 68.5824 135.308 68.7145 135.566 68.8935C135.827 69.0724 136.033 69.3026 136.184 69.5838C136.335 69.8622 136.41 70.196 136.41 70.5852V75H134.688V74.0923H134.637C134.532 74.2969 134.391 74.4773 134.215 74.6335C134.039 74.7869 133.827 74.9077 133.58 74.9957C133.333 75.081 133.048 75.1236 132.724 75.1236ZM133.244 73.8707C133.511 73.8707 133.746 73.8182 133.951 73.7131C134.156 73.6051 134.316 73.4602 134.433 73.2784C134.549 73.0966 134.607 72.8906 134.607 72.6605V71.9659C134.55 72.0028 134.472 72.0369 134.373 72.0682C134.276 72.0966 134.167 72.1236 134.045 72.1491C133.923 72.1719 133.8 72.1932 133.678 72.2131C133.556 72.2301 133.445 72.2457 133.346 72.2599C133.133 72.2912 132.947 72.3409 132.788 72.4091C132.629 72.4773 132.505 72.5696 132.417 72.6861C132.329 72.7997 132.285 72.9418 132.285 73.1122C132.285 73.3594 132.374 73.5483 132.553 73.679C132.735 73.8068 132.965 73.8707 133.244 73.8707ZM139.634 66.2727V75H137.818V66.2727H139.634ZM142.903 66.2727V75H141.088V66.2727H142.903Z" fill="white"/>
</g>
</g>
</svg>
