<svg width="158" height="49" viewBox="0 0 158 49" fill="none" xmlns="http://www.w3.org/2000/svg">
<g id="divide_operator">
<path id="block_shape" d="M0 20.4167C0 9.14095 9.14054 0 20.4167 0H136.792C148.068 0 157.208 9.14095 157.208 20.4167V28.5833C157.208 39.8591 148.068 49 136.792 49H20.4167C9.14054 49 0 39.8591 0 28.5833V20.4167Z" fill="#6BC161"/>
<g id="block_input">
<path id="text" d="M80.0057 20.8636L77.1932 31.3125H76.2727L79.0852 20.8636H80.0057Z" fill="white"/>
<path id="input_2" d="M89 23.3333C89 18.731 92.7211 15 97.3117 15H144.688C149.279 15 153 18.731 153 23.3333V26.6667C153 31.269 149.279 35 144.688 35H97.3117C92.7211 35 89 31.269 89 26.6667V23.3333Z" fill="white"/>
<path id="input_1" d="M5 23.3333C5 18.731 8.72114 15 13.3117 15H60.6883C65.2789 15 69 18.731 69 23.3333V26.6667C69 31.269 65.2789 35 60.6883 35H13.3117C8.72114 35 5 31.269 5 26.6667V23.3333Z" fill="white"/>
</g>
</g>
</svg>
