<svg width="85" height="28" viewBox="0 0 85 28" fill="none" xmlns="http://www.w3.org/2000/svg">
<g id="divide_operator">
<path id="bbox" opacity="0.01" d="M84.3033 0H0.696777V28H84.3033V0Z" fill="black"/>
<path id="bodyStretch" d="M74.5492 0H10.4509C5.06384 0 0.696777 4.38761 0.696777 9.8V18.2C0.696777 23.6124 5.06384 28 10.4509 28H74.5492C79.9363 28 84.3033 23.6124 84.3033 18.2V9.8C84.3033 4.38761 79.9363 0 74.5492 0Z" fill="#66C56E"/>
<g id="input:a">
<path id="box" opacity="0.01" d="M28.5656 5.60001H14.6312C10.7833 5.60001 7.66394 8.73401 7.66394 12.6V15.4C7.66394 19.266 10.7833 22.4 14.6312 22.4H28.5656C32.4135 22.4 35.5328 19.266 35.5328 15.4V12.6C35.5328 8.73401 32.4135 5.60001 28.5656 5.60001Z" fill="#D9D9D9"/>
<path id="anchor-input:a-left" opacity="0.01" d="M7.66388 14.7C8.04867 14.7 8.36061 14.3866 8.36061 14C8.36061 13.6134 8.04867 13.3 7.66388 13.3C7.2791 13.3 6.96716 13.6134 6.96716 14C6.96716 14.3866 7.2791 14.7 7.66388 14.7Z" fill="#D9D9D9"/>
<path id="anchor-input:a-right" opacity="0.01" d="M35.5328 14.7C35.9176 14.7 36.2295 14.3866 36.2295 14C36.2295 13.6134 35.9176 13.3 35.5328 13.3C35.148 13.3 34.8361 13.6134 34.8361 14C34.8361 14.3866 35.148 14.7 35.5328 14.7Z" fill="#D9D9D9"/>
</g>
<g id="input:b">
<path id="box_2" opacity="0.01" d="M70.3689 5.60001H56.4345C52.5866 5.60001 49.4673 8.73401 49.4673 12.6V15.4C49.4673 19.266 52.5866 22.4 56.4345 22.4H70.3689C74.2168 22.4 77.3361 19.266 77.3361 15.4V12.6C77.3361 8.73401 74.2168 5.60001 70.3689 5.60001Z" fill="#D9D9D9"/>
<path id="anchor-input:b-left" opacity="0.01" d="M49.4672 14.7C49.852 14.7 50.164 14.3866 50.164 14C50.164 13.6134 49.852 13.3 49.4672 13.3C49.0824 13.3 48.7705 13.6134 48.7705 14C48.7705 14.3866 49.0824 14.7 49.4672 14.7Z" fill="#D9D9D9"/>
<path id="anchor-input:b-right" opacity="0.01" d="M77.3361 14.7C77.7209 14.7 78.0328 14.3866 78.0328 14C78.0328 13.6134 77.7209 13.3 77.3361 13.3C76.9513 13.3 76.6394 13.6134 76.6394 14C76.6394 14.3866 76.9513 14.7 77.3361 14.7Z" fill="#D9D9D9"/>
</g>
<path id="anchor:input-left" opacity="0.01" d="M0.696721 14.7C1.08151 14.7 1.39344 14.3866 1.39344 14C1.39344 13.6134 1.08151 13.3 0.696721 13.3C0.311933 13.3 0 13.6134 0 14C0 14.3866 0.311933 14.7 0.696721 14.7Z" fill="#D9D9D9"/>
<path id="anchor:input-right" opacity="0.01" d="M84.3033 14.7C84.6881 14.7 85 14.3866 85 14C85 13.6134 84.6881 13.3 84.3033 13.3C83.9185 13.3 83.6066 13.6134 83.6066 14C83.6066 14.3866 83.9185 14.7 84.3033 14.7Z" fill="#D9D9D9"/>
<path id="text" d="M44.2387 9.26363L41.4262 19.7125H39.8623L42.6748 9.26363H44.2387Z" fill="white"/>
</g>
</svg>
