<svg width="250" height="49" viewBox="0 0 250 49" fill="none" xmlns="http://www.w3.org/2000/svg">
<g id="et_operator">
<path id="bbox" opacity="0.01" d="M90 9H5V33H90V9Z" fill="black"/>
<g id="border">
<path d="M0 24.5L15 0V49L0 24.5Z" fill="white"/>
<path d="M249 24.5L234 49V0L249 24.5Z" fill="white"/>
<path d="M234 0H15V49H234V0Z" fill="white"/>
</g>
<path id="capLeft" d="M3 24.5L17 2V47L3 24.5Z" fill="#66C56E"/>
<path id="capRight" d="M246 24.5L232 47V2L246 24.5Z" fill="#66C56E"/>
<path id="bodyStretch" d="M232 2H17V47H232V2Z" fill="#66C56E"/>
<g id="input:b">
<path id="box" opacity="0.01" d="M228.381 11H211.619C207.411 11 204 15.8502 204 21.8333V26.1667C204 32.1498 207.411 37 211.619 37H228.381C232.589 37 236 32.1498 236 26.1667V21.8333C236 15.8502 232.589 11 228.381 11Z" fill="#D9D9D9"/>
<path id="anchor-input:b-left" opacity="0.01" d="M202.607 24.8C202.942 24.8 203.214 24.5314 203.214 24.2C203.214 23.8686 202.942 23.6 202.607 23.6C202.272 23.6 202 23.8686 202 24.2C202 24.5314 202.272 24.8 202.607 24.8Z" fill="#D9D9D9"/>
<path id="anchor-input:b-right" opacity="0.01" d="M237.107 24.8C237.442 24.8 237.714 24.5314 237.714 24.2C237.714 23.8686 237.442 23.6 237.107 23.6C236.772 23.6 236.5 23.8686 236.5 24.2C236.5 24.5314 236.772 24.8 237.107 24.8Z" fill="#D9D9D9"/>
</g>
<path id="text" d="M190.417 23.8118V21.9208H197.773V23.8118H190.417ZM190.417 27.3487V25.4577H197.773V27.3487H190.417Z" fill="white"/>
<g id="input:a">
<path id="box_2" opacity="0.01" d="M144.667 5H60.3333C39.1624 5 22 12.2754 22 21.25V27.75C22 36.7246 39.1624 44 60.3333 44H144.667C165.838 44 183 36.7246 183 27.75V21.25C183 12.2754 165.838 5 144.667 5Z" fill="#D9D9D9"/>
<path id="anchor-input:a-right" opacity="0.01" d="M183.607 25.2C183.942 25.2 184.214 24.9314 184.214 24.6C184.214 24.2686 183.942 24 183.607 24C183.272 24 183 24.2686 183 24.6C183 24.9314 183.272 25.2 183.607 25.2Z" fill="#D9D9D9"/>
<path id="anchor-input:a-left" opacity="0.01" d="M21.6071 26.2C21.9425 26.2 22.2143 25.9314 22.2143 25.6C22.2143 25.2686 21.9425 25 21.6071 25C21.2718 25 21 25.2686 21 25.6C21 25.9314 21.2718 26.2 21.6071 26.2Z" fill="#D9D9D9"/>
</g>
<path id="anchor:input-right" opacity="0.01" d="M248.607 25.2C248.942 25.2 249.214 24.9314 249.214 24.6C249.214 24.2686 248.942 24 248.607 24C248.272 24 248 24.2686 248 24.6C248 24.9314 248.272 25.2 248.607 25.2Z" fill="#D9D9D9"/>
<path id="anchor:input-left" opacity="0.01" d="M0.607143 25.2C0.942459 25.2 1.21429 24.9314 1.21429 24.6C1.21429 24.2686 0.942459 24 0.607143 24C0.271827 24 0 24.2686 0 24.6C0 24.9314 0.271827 25.2 0.607143 25.2Z" fill="#D9D9D9"/>
</g>
</svg>
