<svg width="250" height="49" viewBox="0 0 250 49" fill="none" xmlns="http://www.w3.org/2000/svg">
<g id="et_operator">
<path id="bbox" opacity="0.01" d="M90 9H5V33H90V9Z" fill="black"/>
<g id="border">
<path d="M0 24.5L15 0V49L0 24.5Z" fill="white"/>
<path d="M249 24.5L234 49V0L249 24.5Z" fill="white"/>
<path d="M234 0H15V49H234V0Z" fill="white"/>
</g>
<path id="capLeft" d="M3 24.5L17 2V47L3 24.5Z" fill="#66C56E"/>
<path id="capRight" d="M246 24.5L232 47V2L246 24.5Z" fill="#66C56E"/>
<path id="bodyStretch" d="M232 2H17V47H232V2Z" fill="#66C56E"/>
<g id="input:b">
<path id="box" opacity="0.01" d="M228.381 10H211.619C207.411 10 204 14.8502 204 20.8333V25.1667C204 31.1498 207.411 36 211.619 36H228.381C232.589 36 236 31.1498 236 25.1667V20.8333C236 14.8502 232.589 10 228.381 10Z" fill="#D9D9D9"/>
<path id="anchor-input:b-left" opacity="0.01" d="M202.607 23.8C202.942 23.8 203.214 23.5314 203.214 23.2C203.214 22.8686 202.942 22.6 202.607 22.6C202.272 22.6 202 22.8686 202 23.2C202 23.5314 202.272 23.8 202.607 23.8Z" fill="#D9D9D9"/>
<path id="anchor-input:b-right" opacity="0.01" d="M237.107 23.8C237.442 23.8 237.714 23.5314 237.714 23.2C237.714 22.8686 237.442 22.6 237.107 22.6C236.772 22.6 236.5 22.8686 236.5 23.2C236.5 23.5314 236.772 23.8 237.107 23.8Z" fill="#D9D9D9"/>
</g>
<path id="text" d="M190.134 22.8494V21.3366H196.018V22.8494H190.134ZM190.134 25.679V24.1662H196.018V25.679H190.134Z" fill="white"/>
<g id="input:a">
<path id="box_2" opacity="0.01" d="M144.667 5H60.3333C39.1624 5 22 12.2754 22 21.25V27.75C22 36.7246 39.1624 44 60.3333 44H144.667C165.838 44 183 36.7246 183 27.75V21.25C183 12.2754 165.838 5 144.667 5Z" fill="#D9D9D9"/>
<path id="anchor-input:a-right" opacity="0.01" d="M183.607 25.2C183.942 25.2 184.214 24.9314 184.214 24.6C184.214 24.2686 183.942 24 183.607 24C183.272 24 183 24.2686 183 24.6C183 24.9314 183.272 25.2 183.607 25.2Z" fill="#D9D9D9"/>
<path id="anchor-input:a-left" opacity="0.01" d="M21.6071 26.2C21.9425 26.2 22.2143 25.9314 22.2143 25.6C22.2143 25.2686 21.9425 25 21.6071 25C21.2718 25 21 25.2686 21 25.6C21 25.9314 21.2718 26.2 21.6071 26.2Z" fill="#D9D9D9"/>
</g>
<path id="anchor:input-right" opacity="0.01" d="M248.607 25.2C248.942 25.2 249.214 24.9314 249.214 24.6C249.214 24.2686 248.942 24 248.607 24C248.272 24 248 24.2686 248 24.6C248 24.9314 248.272 25.2 248.607 25.2Z" fill="#D9D9D9"/>
<path id="anchor:input-left" opacity="0.01" d="M0.607143 25.2C0.942459 25.2 1.21429 24.9314 1.21429 24.6C1.21429 24.2686 0.942459 24 0.607143 24C0.271827 24 0 24.2686 0 24.6C0 24.9314 0.271827 25.2 0.607143 25.2Z" fill="#D9D9D9"/>
</g>
</svg>
