<svg width="248" height="149" viewBox="0 0 248 149" fill="none" xmlns="http://www.w3.org/2000/svg">
<g id="go_to_menu">
<path id="anchor:next" opacity="0.01" d="M123 141C123.552 141 124 140.552 124 140C124 139.448 123.552 139 123 139C122.448 139 122 139.448 122 140C122 140.552 122.448 141 123 141Z" fill="#D9D9D9"/>
<g id="arrowHead">
<g id="border">
<path id="Vector" d="M123 140L148 115H98L123 140Z" fill="white"/>
<path id="Vector_2" d="M123 135L143 115H103L123 135Z" fill="white"/>
</g>
<g id="tip">
<path id="Vector_3" d="M123 135L143 115H103L123 135Z" fill="#42A5F5"/>
<path id="Vector_4" d="M123 131L139 115H107L123 131Z" fill="#42A5F5"/>
</g>
<path id="shaft" d="M135.048 93H113.048V115H135.048V93Z" fill="#42A5F5"/>
</g>
<path id="bodyStretch" d="M0 50.5421C0 41.4061 14.1745 34 31.6596 34H216.341C233.826 34 248 41.4061 248 50.5421V76.4579C248 85.5939 233.826 93 216.341 93H31.6596C14.1745 93 0 85.5939 0 76.4579V50.5421Z" fill="#42A5F5"/>
<g id="block_input">
<rect id="input_y_constant" x="170" y="54" width="29" height="24" rx="10" fill="white"/>
<path id="y_text" d="M152.306 73.0682C152.019 73.0682 151.749 73.0451 151.497 72.9989C151.248 72.9563 151.042 72.9013 150.879 72.8338L151.39 71.1399C151.657 71.2216 151.896 71.266 152.109 71.2731C152.326 71.2802 152.512 71.2305 152.669 71.1239C152.828 71.0174 152.958 70.8363 153.058 70.5806L153.191 70.2344L150.256 61.8182H152.642L154.336 67.8267H154.421L156.131 61.8182H158.533L155.353 70.8842C155.201 71.3246 154.993 71.7081 154.73 72.0348C154.471 72.3651 154.142 72.619 153.745 72.7965C153.347 72.9776 152.868 73.0682 152.306 73.0682ZM161.021 70.1385C160.669 70.1385 160.368 70.0142 160.115 69.7656C159.867 69.5135 159.743 69.2116 159.743 68.8601C159.743 68.5121 159.867 68.2138 160.115 67.9652C160.368 67.7166 160.669 67.5923 161.021 67.5923C161.362 67.5923 161.66 67.7166 161.916 67.9652C162.172 68.2138 162.299 68.5121 162.299 68.8601C162.299 69.0945 162.239 69.3093 162.118 69.5046C162.001 69.6964 161.847 69.8509 161.655 69.968C161.463 70.0817 161.252 70.1385 161.021 70.1385ZM161.021 64.407C160.669 64.407 160.368 64.2827 160.115 64.0341C159.867 63.7855 159.743 63.4837 159.743 63.1286C159.743 62.7805 159.867 62.484 160.115 62.239C160.368 61.9904 160.669 61.8661 161.021 61.8661C161.362 61.8661 161.66 61.9904 161.916 62.239C162.172 62.484 162.299 62.7805 162.299 63.1286C162.299 63.3665 162.239 63.5831 162.118 63.7784C162.001 63.9702 161.847 64.1229 161.655 64.2365C161.463 64.3501 161.252 64.407 161.021 64.407Z" fill="white"/>
<rect id="input_x_constant" x="111" y="54" width="29" height="24" rx="10" fill="white"/>
<path id="x_text" d="M94.8018 61.8182L96.304 64.6786L97.8434 61.8182H100.171L97.8008 65.9091L100.235 70H97.918L96.304 67.1715L94.7166 70H92.3729L94.8018 65.9091L92.4581 61.8182H94.8018ZM102.845 70.1385C102.494 70.1385 102.192 70.0142 101.94 69.7656C101.691 69.5135 101.567 69.2116 101.567 68.8601C101.567 68.5121 101.691 68.2138 101.94 67.9652C102.192 67.7166 102.494 67.5923 102.845 67.5923C103.186 67.5923 103.484 67.7166 103.74 67.9652C103.996 68.2138 104.124 68.5121 104.124 68.8601C104.124 69.0945 104.063 69.3093 103.942 69.5046C103.825 69.6964 103.671 69.8509 103.479 69.968C103.287 70.0817 103.076 70.1385 102.845 70.1385ZM102.845 64.407C102.494 64.407 102.192 64.2827 101.94 64.0341C101.691 63.7855 101.567 63.4837 101.567 63.1286C101.567 62.7805 101.691 62.484 101.94 62.239C102.192 61.9904 102.494 61.8661 102.845 61.8661C103.186 61.8661 103.484 61.9904 103.74 62.239C103.996 62.484 104.124 62.7805 104.124 63.1286C104.124 63.3665 104.063 63.5831 103.942 63.7784C103.825 63.9702 103.671 64.1229 103.479 64.2365C103.287 64.3501 103.076 64.407 102.845 64.407Z" fill="white"/>
<path id="go_to_text" d="M47.5916 74.2386C46.8565 74.2386 46.2262 74.1374 45.7006 73.935C45.1786 73.7362 44.7631 73.4645 44.4542 73.12C44.1452 72.7756 43.9446 72.3885 43.8523 71.9588L45.951 71.6765C46.0149 71.8398 46.1161 71.9925 46.2546 72.1346C46.3931 72.2766 46.576 72.3903 46.8033 72.4755C47.0341 72.5643 47.3146 72.6087 47.6449 72.6087C48.1385 72.6087 48.5451 72.4879 48.8647 72.2464C49.1879 72.0085 49.3494 71.609 49.3494 71.0479V69.5511H49.2536C49.1541 69.7784 49.005 69.9933 48.8061 70.1957C48.6072 70.3981 48.3516 70.5632 48.0391 70.6911C47.7266 70.8189 47.3537 70.8828 46.9205 70.8828C46.3061 70.8828 45.7468 70.7408 45.2425 70.4567C44.7418 70.169 44.3423 69.7305 44.044 69.141C43.7493 68.5479 43.6019 67.7987 43.6019 66.8931C43.6019 65.9663 43.7528 65.1921 44.0547 64.5707C44.3565 63.9492 44.7578 63.484 45.2585 63.1751C45.7628 62.8661 46.315 62.7116 46.9151 62.7116C47.3732 62.7116 47.7567 62.7898 48.0657 62.946C48.3746 63.0987 48.6232 63.2905 48.8114 63.5213C49.0032 63.7486 49.1506 63.9723 49.2536 64.1925H49.3388V62.8182H51.592V71.0799C51.592 71.7759 51.4215 72.3583 51.0806 72.8271C50.7397 73.2958 50.2674 73.6474 49.6637 73.8817C49.0636 74.1197 48.3729 74.2386 47.5916 74.2386ZM47.6396 69.1783C48.0053 69.1783 48.3143 69.0877 48.5664 68.9066C48.8221 68.7219 49.0174 68.4592 49.1523 68.1183C49.2908 67.7738 49.3601 67.3619 49.3601 66.8825C49.3601 66.4031 49.2926 65.9876 49.1577 65.636C49.0227 65.2809 48.8274 65.0057 48.5717 64.8104C48.3161 64.6151 48.0053 64.5174 47.6396 64.5174C47.2667 64.5174 46.9524 64.6186 46.6967 64.821C46.4411 65.0199 46.2475 65.2969 46.1161 65.652C45.9847 66.0071 45.919 66.4173 45.919 66.8825C45.919 67.3548 45.9847 67.7631 46.1161 68.1076C46.2511 68.4485 46.4446 68.7131 46.6967 68.9013C46.9524 69.0859 47.2667 69.1783 47.6396 69.1783ZM57.0945 71.1598C56.267 71.1598 55.5515 70.984 54.9478 70.6325C54.3477 70.2773 53.8842 69.7837 53.5575 69.1516C53.2308 68.516 53.0675 67.7791 53.0675 66.9411C53.0675 66.0959 53.2308 65.3572 53.5575 64.7251C53.8842 64.0895 54.3477 63.5959 54.9478 63.2443C55.5515 62.8892 56.267 62.7116 57.0945 62.7116C57.9219 62.7116 58.6357 62.8892 59.2358 63.2443C59.8395 63.5959 60.3047 64.0895 60.6314 64.7251C60.9581 65.3572 61.1214 66.0959 61.1214 66.9411C61.1214 67.7791 60.9581 68.516 60.6314 69.1516C60.3047 69.7837 59.8395 70.2773 59.2358 70.6325C58.6357 70.984 57.9219 71.1598 57.0945 71.1598ZM57.1051 69.402C57.4815 69.402 57.7958 69.2955 58.0479 69.0824C58.3001 68.8658 58.4901 68.571 58.6179 68.1982C58.7493 67.8253 58.815 67.4009 58.815 66.9251C58.815 66.4492 58.7493 66.0249 58.6179 65.652C58.4901 65.2791 58.3001 64.9844 58.0479 64.7678C57.7958 64.5511 57.4815 64.4428 57.1051 64.4428C56.7251 64.4428 56.4055 64.5511 56.1463 64.7678C55.8906 64.9844 55.6971 65.2791 55.5657 65.652C55.4379 66.0249 55.3739 66.4492 55.3739 66.9251C55.3739 67.4009 55.4379 67.8253 55.5657 68.1982C55.6971 68.571 55.8906 68.8658 56.1463 69.0824C56.4055 69.2955 56.7251 69.402 57.1051 69.402ZM70.4205 62.8182V64.5227H65.4933V62.8182H70.4205ZM66.6119 60.858H68.8811V68.4858C68.8811 68.6953 68.9131 68.8587 68.977 68.9759C69.0409 69.0895 69.1297 69.1694 69.2433 69.2156C69.3605 69.2617 69.4955 69.2848 69.6482 69.2848C69.7547 69.2848 69.8612 69.2759 69.9678 69.2582C70.0743 69.2369 70.156 69.2209 70.2128 69.2102L70.5697 70.8988C70.4561 70.9343 70.2963 70.9751 70.0903 71.0213C69.8843 71.071 69.634 71.1012 69.3392 71.1119C68.7923 71.1332 68.3129 71.0604 67.901 70.8935C67.4926 70.7266 67.1748 70.4673 66.9475 70.1158C66.7203 69.7642 66.6084 69.3203 66.6119 68.7841V60.858ZM75.5075 71.1598C74.6801 71.1598 73.9646 70.984 73.3609 70.6325C72.7607 70.2773 72.2973 69.7837 71.9706 69.1516C71.6439 68.516 71.4806 67.7791 71.4806 66.9411C71.4806 66.0959 71.6439 65.3572 71.9706 64.7251C72.2973 64.0895 72.7607 63.5959 73.3609 63.2443C73.9646 62.8892 74.6801 62.7116 75.5075 62.7116C76.335 62.7116 77.0487 62.8892 77.6489 63.2443C78.2526 63.5959 78.7178 64.0895 79.0445 64.7251C79.3712 65.3572 79.5345 66.0959 79.5345 66.9411C79.5345 67.7791 79.3712 68.516 79.0445 69.1516C78.7178 69.7837 78.2526 70.2773 77.6489 70.6325C77.0487 70.984 76.335 71.1598 75.5075 71.1598ZM75.5182 69.402C75.8946 69.402 76.2089 69.2955 76.461 69.0824C76.7132 68.8658 76.9031 68.571 77.031 68.1982C77.1624 67.8253 77.2281 67.4009 77.2281 66.9251C77.2281 66.4492 77.1624 66.0249 77.031 65.652C76.9031 65.2791 76.7132 64.9844 76.461 64.7678C76.2089 64.5511 75.8946 64.4428 75.5182 64.4428C75.1382 64.4428 74.8186 64.5511 74.5594 64.7678C74.3037 64.9844 74.1102 65.2791 73.9788 65.652C73.8509 66.0249 73.787 66.4492 73.787 66.9251C73.787 67.4009 73.8509 67.8253 73.9788 68.1982C74.1102 68.571 74.3037 68.8658 74.5594 69.0824C74.8186 69.2955 75.1382 69.402 75.5182 69.402Z" fill="white"/>
</g>
<g id="capTop">
<path id="anchor:prev" opacity="0.01" d="M123 35C123.552 35 124 34.5523 124 34C124 33.4477 123.552 33 123 33C122.448 33 122 33.4477 122 34C122 34.5523 122.448 35 123 35Z" fill="#D9D9D9"/>
<path id="Vector_5" d="M123 34H98V9L123 34Z" fill="#42A5F5"/>
<path id="Vector_6" d="M148 34H123L148 9V34Z" fill="#42A5F5"/>
<path id="stripe" d="M148 14L123 39L98 14V9L123 34L148 9V14Z" fill="white"/>
</g>
</g>
</svg>
