<svg width="159" height="40" viewBox="0 0 159 40" fill="none" xmlns="http://www.w3.org/2000/svg">
<g id="gt_operator">
<g id="border">
<path d="M0 20L8.10191 0V40L0 20Z" fill="white"/>
<path d="M159 20L150.898 40V0L159 20Z" fill="white"/>
<path d="M150.898 0H8.10191V40H150.898V0Z" fill="white"/>
</g>
<path id="capLeft" d="M3 20L10 2V38L3 20Z" fill="#66C56E"/>
<path id="capRight" d="M156 20L149 38V2L156 20Z" fill="#66C56E"/>
<path id="bodyStretch" d="M149 2H10V38H149V2Z" fill="#66C56E"/>
<path id="text" d="M108.848 22.5749L101.348 25.8775V23.7202L106.483 21.6587L106.413 21.7706V21.5043L106.483 21.6161L101.348 19.5547V17.3974L108.848 20.6999V22.5749Z" fill="white"/>
<g id="input:b">
<path id="box" opacity="0.01" d="M140.75 10H124.25C120.108 10 116.75 13.9175 116.75 18.75V22.25C116.75 27.0825 120.108 31 124.25 31H140.75C144.892 31 148.25 27.0825 148.25 22.25V18.75C148.25 13.9175 144.892 10 140.75 10Z" fill="#D9D9D9"/>
<path id="anchor-input:b-left" opacity="0.01" d="M116.75 21.375C117.164 21.375 117.5 20.9833 117.5 20.5C117.5 20.0168 117.164 19.625 116.75 19.625C116.336 19.625 116 20.0168 116 20.5C116 20.9833 116.336 21.375 116.75 21.375Z" fill="#D9D9D9"/>
<path id="anchor-input:b-right" opacity="0.01" d="M148.25 21.375C148.664 21.375 149 20.9833 149 20.5C149 20.0168 148.664 19.625 148.25 19.625C147.836 19.625 147.5 20.0168 147.5 20.5C147.5 20.9833 147.836 21.375 148.25 21.375Z" fill="#D9D9D9"/>
</g>
<g id="input:a">
<path id="box_2" opacity="0.01" d="M75.5 6H32.5C20.6259 6 11 11.2233 11 17.6667V22.3333C11 28.7767 20.6259 34 32.5 34H75.5C87.3741 34 97 28.7767 97 22.3333V17.6667C97 11.2233 87.3741 6 75.5 6Z" fill="#D9D9D9"/>
<path id="anchor-input:a-left" opacity="0.01" d="M10.9287 20.6C11.264 20.6 11.5358 20.3314 11.5358 20C11.5358 19.6686 11.264 19.4 10.9287 19.4C10.5934 19.4 10.3215 19.6686 10.3215 20C10.3215 20.3314 10.5934 20.6 10.9287 20.6Z" fill="#D9D9D9"/>
<path id="anchor-input:a-right" opacity="0.01" d="M97.6071 20.2C97.9425 20.2 98.2143 19.9314 98.2143 19.6C98.2143 19.2686 97.9425 19 97.6071 19C97.2718 19 97 19.2686 97 19.6C97 19.9314 97.2718 20.2 97.6071 20.2Z" fill="#D9D9D9"/>
</g>
<path id="anchor:input-left" opacity="0.01" d="M0.999965 18.6C1.33528 18.6 1.60711 18.3314 1.60711 18C1.60711 17.6686 1.33528 17.4 0.999965 17.4C0.664649 17.4 0.392822 17.6686 0.392822 18C0.392822 18.3314 0.664649 18.6 0.999965 18.6Z" fill="#D9D9D9"/>
<path id="anchor:input-right" opacity="0.01" d="M156.607 19.2C156.942 19.2 157.214 18.9314 157.214 18.6C157.214 18.2686 156.942 18 156.607 18C156.272 18 156 18.2686 156 18.6C156 18.9314 156.272 19.2 156.607 19.2Z" fill="#D9D9D9"/>
</g>
</svg>
