<svg width="86" height="33" viewBox="0 0 86 33" fill="none" xmlns="http://www.w3.org/2000/svg">
<path d="M0 17L7 1V33L0 17Z" fill="white"/>
<path d="M86 16L79 32V0L86 16Z" fill="white"/>
<path d="M79 1H7V33H79V1Z" fill="white"/>
<path d="M2 17L9 3V31L2 17Z" fill="#6BC161"/>
<path d="M84 17L77 31V3L84 17Z" fill="#6BC161"/>
<path d="M77 3H9V31H77V3Z" fill="#6BC161"/>
<path d="M30.3572 9.79999H17C13.6469 9.79999 10.9286 12.4863 10.9286 15.8V18.2C10.9286 21.5137 13.6469 24.2 17 24.2H30.3572C33.7103 24.2 36.4286 21.5137 36.4286 18.2V15.8C36.4286 12.4863 33.7103 9.79999 30.3572 9.79999Z" fill="white"/>
<path d="M68 9.79999H54.6428C51.2897 9.79999 48.5714 12.4863 48.5714 15.8V18.2C48.5714 21.5137 51.2897 24.2 54.6428 24.2H68C71.3531 24.2 74.0714 21.5137 74.0714 18.2V15.8C74.0714 12.4863 71.3531 9.79999 68 9.79999Z" fill="white"/>
<path d="M45.5597 18.0883L40.0597 20.5102V18.9281L43.8253 17.4164L43.7745 17.4984V17.3031L43.8253 17.3852L40.0597 15.8734V14.2914L45.5597 16.7133V18.0883Z" fill="white"/>
</svg>
