<svg width="86" height="33" viewBox="0 0 86 33" fill="none" xmlns="http://www.w3.org/2000/svg">
<path d="M0 17L7 1V33L0 17Z" fill="white"/>
<path d="M86 16L79 32V0L86 16Z" fill="white"/>
<path d="M79 1H7V33H79V1Z" fill="white"/>
<path d="M2 17L9 3V31L2 17Z" fill="#6BC161"/>
<path d="M84 17L77 31V3L84 17Z" fill="#6BC161"/>
<path d="M77 3H9V31H77V3Z" fill="#6BC161"/>
<path d="M26.3572 9.79999H13C9.64686 9.79999 6.92859 12.4863 6.92859 15.8V18.2C6.92859 21.5137 9.64686 24.2 13 24.2H26.3572C29.7103 24.2 32.4286 21.5137 32.4286 18.2V15.8C32.4286 12.4863 29.7103 9.79999 26.3572 9.79999Z" fill="white"/>
<path d="M73 9.79999H59.6428C56.2897 9.79999 53.5714 12.4863 53.5714 15.8V18.2C53.5714 21.5137 56.2897 24.2 59.6428 24.2H73C76.3531 24.2 79.0714 21.5137 79.0714 18.2V15.8C79.0714 12.4863 76.3531 9.79999 73 9.79999Z" fill="white"/>
<path d="M41.4883 18.4883L35.9883 20.9102V19.3281L39.7539 17.8164L39.7031 17.8984V17.7031L39.7539 17.7852L35.9883 16.2734V14.6914L41.4883 17.1133V18.4883ZM43.5156 17.1953V15.8086H48.9102V17.1953H43.5156ZM43.5156 19.7891V18.4023H48.9102V19.7891H43.5156Z" fill="white"/>
</svg>
