<svg width="394" height="168" viewBox="0 0 394 168" fill="none" xmlns="http://www.w3.org/2000/svg">
<path d="M196.548 167.5L222.096 133H171L196.548 167.5Z" fill="#F0B43B"/>
<path d="M208 106H186V133H208V106Z" fill="#F0B43B"/>
<rect x="45" y="84" width="305" height="22" fill="#F0B43B"/>
<rect y="34" width="110" height="24" fill="#F0B43B"/>
<path d="M55.5 34H30V0H30.3223L55.5 34Z" fill="#F0B43B"/>
<path d="M81 34H55.5L80.678 0H81V34Z" fill="#F0B43B"/>
<path d="M67 58H45V84H67V58Z" fill="#F0B43B"/>
<rect x="284" y="34" width="110" height="24" fill="#F0B43B"/>
<path d="M339.5 34H314V0H314.322L339.5 34Z" fill="#F0B43B"/>
<path d="M365 34H339.5L364.678 0H365V34Z" fill="#F0B43B"/>
<path d="M350 58H328V84H350V58Z" fill="#F0B43B"/>
</svg>
