<svg width="394" height="265" viewBox="0 0 394 265" fill="none" xmlns="http://www.w3.org/2000/svg">
<g id="if_branch_ender_1">
<g id="next_block_connector">
<circle id="anchor:next" opacity="0.01" cx="203" cy="246" r="1" fill="#D9D9D9"/>
<g id="border">
<path d="M203 245L228 220H178L203 245Z" fill="white"/>
<path d="M203 240L223 220H183L203 240Z" fill="white"/>
</g>
<g id="tip">
<path d="M203 240L223 220H183L203 240Z" fill="#F0B43B"/>
<path d="M203 236L219 220H187L203 236Z" fill="#F0B43B"/>
</g>
<path id="shaft" d="M215.048 198H193.048V220H215.048V198Z" fill="#F0B43B"/>
<rect id="connector_block" x="47" y="181" width="319" height="22" fill="#F0B43B"/>
</g>
<g id="true_branch_ender">
<path id="true_connector_vert" d="M366 155H344V181H366V155Z" fill="#F0B43B"/>
<g id="prev_block_connector">
<g id="capTop">
<path d="M355 131H330V106L355 131Z" fill="#F0B43B"/>
<path d="M380 131H355L380 106V131Z" fill="#F0B43B"/>
</g>
<rect id="Rectangle 2" x="330" y="131" width="50" height="24" fill="#F0B43B"/>
<path id="stripe" d="M380 111L355 136L330 111V106L355 131L380 106V111Z" fill="white"/>
<circle id="anchor:true-in" opacity="0.01" cx="355" cy="131" r="1" fill="#D9D9D9"/>
</g>
</g>
<g id="false_branch_ender">
<path id="false_connector_vert" d="M69 49H47V182H69V49Z" fill="#F0B43B"/>
<g id="prev_block_connector_2">
<g id="capTop_2">
<path d="M58 25H33V0L58 25Z" fill="#F0B43B"/>
<path d="M83 25H58L83 0V25Z" fill="#F0B43B"/>
</g>
<rect id="Rectangle 2_2" x="33" y="25" width="50" height="24" fill="#F0B43B"/>
<path id="stripe_2" d="M83 5L58 30L33 5V0L58 25L83 0V5Z" fill="white"/>
<circle id="anchor:false-in" opacity="0.01" cx="58" cy="25" r="1" fill="#D9D9D9"/>
</g>
</g>
</g>
</svg>
