<svg width="437" height="155" viewBox="0 0 437 155" fill="none" xmlns="http://www.w3.org/2000/svg">
<g id="if_else">
<g id="block_shape">
<g id="false_block_arrow">
<circle id="anchor:false" opacity="0.01" cx="115" cy="141" r="1" fill="#D9D9D9"/>
<g id="border">
<path d="M115 140L140 115H90L115 140Z" fill="white"/>
<path d="M115 135L135 115H95L115 135Z" fill="white"/>
</g>
<g id="tip">
<path d="M115 135L135 115H95L115 135Z" fill="#F0B43B"/>
<path d="M115 131L131 115H99L115 131Z" fill="#F0B43B"/>
</g>
<path id="shaft" d="M127.048 93H105.048V115H127.048V93Z" fill="#F0B43B"/>
<g id="false_text">
<mask id="path-5-outside-1_99_4" maskUnits="userSpaceOnUse" x="103" y="114" width="26" height="11" fill="black">
<rect fill="white" x="103" y="114" width="26" height="11"/>
<path d="M107.537 117.545V118.682H104.17V117.545H107.537ZM104.941 123V117.151C104.941 116.756 105.018 116.428 105.172 116.168C105.328 115.907 105.541 115.712 105.811 115.582C106.081 115.451 106.388 115.386 106.731 115.386C106.963 115.386 107.175 115.404 107.366 115.44C107.561 115.475 107.705 115.507 107.8 115.536L107.53 116.672C107.471 116.653 107.397 116.635 107.31 116.619C107.224 116.602 107.137 116.594 107.047 116.594C106.824 116.594 106.669 116.646 106.582 116.75C106.494 116.852 106.45 116.995 106.45 117.18V123H104.941ZM109.821 123.103C109.473 123.103 109.163 123.043 108.891 122.922C108.619 122.799 108.403 122.618 108.244 122.379C108.088 122.137 108.01 121.836 108.01 121.477C108.01 121.174 108.066 120.919 108.177 120.713C108.288 120.507 108.44 120.341 108.632 120.216C108.823 120.09 109.041 119.996 109.285 119.932C109.531 119.868 109.789 119.823 110.059 119.797C110.376 119.764 110.632 119.733 110.826 119.705C111.02 119.674 111.161 119.629 111.249 119.57C111.336 119.51 111.38 119.423 111.38 119.307V119.286C111.38 119.061 111.309 118.887 111.167 118.763C111.027 118.64 110.829 118.579 110.57 118.579C110.298 118.579 110.082 118.639 109.921 118.76C109.76 118.878 109.653 119.027 109.601 119.207L108.202 119.094C108.273 118.762 108.413 118.476 108.621 118.234C108.829 117.991 109.098 117.804 109.427 117.673C109.758 117.541 110.142 117.474 110.578 117.474C110.881 117.474 111.171 117.51 111.448 117.581C111.727 117.652 111.974 117.762 112.19 117.911C112.408 118.06 112.579 118.252 112.705 118.487C112.83 118.719 112.893 118.997 112.893 119.321V123H111.458V122.244H111.416C111.328 122.414 111.211 122.564 111.064 122.695C110.917 122.822 110.741 122.923 110.535 122.996C110.329 123.067 110.091 123.103 109.821 123.103ZM110.254 122.059C110.477 122.059 110.673 122.015 110.844 121.928C111.014 121.838 111.148 121.717 111.245 121.565C111.342 121.414 111.391 121.242 111.391 121.05V120.472C111.343 120.502 111.278 120.531 111.195 120.557C111.115 120.58 111.024 120.603 110.922 120.624C110.82 120.643 110.718 120.661 110.617 120.678C110.515 120.692 110.423 120.705 110.34 120.717C110.162 120.743 110.007 120.784 109.874 120.841C109.742 120.898 109.639 120.975 109.566 121.072C109.492 121.166 109.455 121.285 109.455 121.427C109.455 121.633 109.53 121.79 109.679 121.899C109.831 122.006 110.022 122.059 110.254 122.059ZM115.579 115.727V123H114.067V115.727H115.579ZM121.33 119.101L119.945 119.186C119.921 119.068 119.87 118.961 119.792 118.866C119.714 118.769 119.611 118.692 119.483 118.636C119.357 118.576 119.207 118.547 119.032 118.547C118.798 118.547 118.6 118.597 118.439 118.696C118.278 118.793 118.197 118.923 118.197 119.087C118.197 119.217 118.25 119.327 118.354 119.417C118.458 119.507 118.637 119.579 118.89 119.634L119.877 119.832C120.407 119.941 120.803 120.116 121.063 120.358C121.324 120.599 121.454 120.917 121.454 121.31C121.454 121.667 121.348 121.981 121.138 122.251C120.929 122.521 120.643 122.731 120.278 122.883C119.916 123.032 119.498 123.107 119.025 123.107C118.303 123.107 117.728 122.956 117.299 122.656C116.873 122.353 116.623 121.941 116.55 121.42L118.038 121.342C118.083 121.562 118.192 121.73 118.364 121.846C118.537 121.96 118.759 122.016 119.028 122.016C119.294 122.016 119.507 121.965 119.668 121.864C119.831 121.759 119.914 121.626 119.916 121.462C119.914 121.325 119.856 121.213 119.742 121.125C119.629 121.035 119.453 120.966 119.217 120.919L118.272 120.731C117.739 120.624 117.343 120.44 117.082 120.177C116.824 119.914 116.695 119.579 116.695 119.172C116.695 118.821 116.79 118.52 116.979 118.266C117.171 118.013 117.44 117.818 117.786 117.68C118.134 117.543 118.541 117.474 119.007 117.474C119.696 117.474 120.238 117.62 120.634 117.911C121.031 118.202 121.263 118.599 121.33 119.101ZM124.892 123.107C124.331 123.107 123.848 122.993 123.443 122.766C123.041 122.536 122.731 122.212 122.513 121.793C122.295 121.371 122.186 120.873 122.186 120.298C122.186 119.737 122.295 119.244 122.513 118.82C122.731 118.397 123.037 118.066 123.433 117.83C123.83 117.593 124.297 117.474 124.832 117.474C125.192 117.474 125.527 117.532 125.837 117.648C126.149 117.762 126.422 117.934 126.654 118.163C126.888 118.393 127.07 118.682 127.2 119.03C127.331 119.375 127.396 119.78 127.396 120.244V120.66H122.79V119.722H125.972C125.972 119.504 125.924 119.312 125.83 119.143C125.735 118.975 125.604 118.844 125.436 118.749C125.27 118.652 125.077 118.604 124.857 118.604C124.627 118.604 124.423 118.657 124.246 118.763C124.071 118.868 123.933 119.009 123.834 119.186C123.735 119.361 123.684 119.557 123.681 119.772V120.663C123.681 120.933 123.731 121.166 123.83 121.363C123.932 121.559 124.075 121.711 124.26 121.817C124.445 121.924 124.664 121.977 124.917 121.977C125.085 121.977 125.239 121.954 125.379 121.906C125.518 121.859 125.638 121.788 125.737 121.693C125.837 121.598 125.913 121.482 125.965 121.345L127.364 121.438C127.293 121.774 127.147 122.067 126.927 122.318C126.709 122.567 126.427 122.761 126.082 122.901C125.739 123.038 125.342 123.107 124.892 123.107Z"/>
</mask>
<path d="M107.537 117.545V118.682H104.17V117.545H107.537ZM104.941 123V117.151C104.941 116.756 105.018 116.428 105.172 116.168C105.328 115.907 105.541 115.712 105.811 115.582C106.081 115.451 106.388 115.386 106.731 115.386C106.963 115.386 107.175 115.404 107.366 115.44C107.561 115.475 107.705 115.507 107.8 115.536L107.53 116.672C107.471 116.653 107.397 116.635 107.31 116.619C107.224 116.602 107.137 116.594 107.047 116.594C106.824 116.594 106.669 116.646 106.582 116.75C106.494 116.852 106.45 116.995 106.45 117.18V123H104.941ZM109.821 123.103C109.473 123.103 109.163 123.043 108.891 122.922C108.619 122.799 108.403 122.618 108.244 122.379C108.088 122.137 108.01 121.836 108.01 121.477C108.01 121.174 108.066 120.919 108.177 120.713C108.288 120.507 108.44 120.341 108.632 120.216C108.823 120.09 109.041 119.996 109.285 119.932C109.531 119.868 109.789 119.823 110.059 119.797C110.376 119.764 110.632 119.733 110.826 119.705C111.02 119.674 111.161 119.629 111.249 119.57C111.336 119.51 111.38 119.423 111.38 119.307V119.286C111.38 119.061 111.309 118.887 111.167 118.763C111.027 118.64 110.829 118.579 110.57 118.579C110.298 118.579 110.082 118.639 109.921 118.76C109.76 118.878 109.653 119.027 109.601 119.207L108.202 119.094C108.273 118.762 108.413 118.476 108.621 118.234C108.829 117.991 109.098 117.804 109.427 117.673C109.758 117.541 110.142 117.474 110.578 117.474C110.881 117.474 111.171 117.51 111.448 117.581C111.727 117.652 111.974 117.762 112.19 117.911C112.408 118.06 112.579 118.252 112.705 118.487C112.83 118.719 112.893 118.997 112.893 119.321V123H111.458V122.244H111.416C111.328 122.414 111.211 122.564 111.064 122.695C110.917 122.822 110.741 122.923 110.535 122.996C110.329 123.067 110.091 123.103 109.821 123.103ZM110.254 122.059C110.477 122.059 110.673 122.015 110.844 121.928C111.014 121.838 111.148 121.717 111.245 121.565C111.342 121.414 111.391 121.242 111.391 121.05V120.472C111.343 120.502 111.278 120.531 111.195 120.557C111.115 120.58 111.024 120.603 110.922 120.624C110.82 120.643 110.718 120.661 110.617 120.678C110.515 120.692 110.423 120.705 110.34 120.717C110.162 120.743 110.007 120.784 109.874 120.841C109.742 120.898 109.639 120.975 109.566 121.072C109.492 121.166 109.455 121.285 109.455 121.427C109.455 121.633 109.53 121.79 109.679 121.899C109.831 122.006 110.022 122.059 110.254 122.059ZM115.579 115.727V123H114.067V115.727H115.579ZM121.33 119.101L119.945 119.186C119.921 119.068 119.87 118.961 119.792 118.866C119.714 118.769 119.611 118.692 119.483 118.636C119.357 118.576 119.207 118.547 119.032 118.547C118.798 118.547 118.6 118.597 118.439 118.696C118.278 118.793 118.197 118.923 118.197 119.087C118.197 119.217 118.25 119.327 118.354 119.417C118.458 119.507 118.637 119.579 118.89 119.634L119.877 119.832C120.407 119.941 120.803 120.116 121.063 120.358C121.324 120.599 121.454 120.917 121.454 121.31C121.454 121.667 121.348 121.981 121.138 122.251C120.929 122.521 120.643 122.731 120.278 122.883C119.916 123.032 119.498 123.107 119.025 123.107C118.303 123.107 117.728 122.956 117.299 122.656C116.873 122.353 116.623 121.941 116.55 121.42L118.038 121.342C118.083 121.562 118.192 121.73 118.364 121.846C118.537 121.96 118.759 122.016 119.028 122.016C119.294 122.016 119.507 121.965 119.668 121.864C119.831 121.759 119.914 121.626 119.916 121.462C119.914 121.325 119.856 121.213 119.742 121.125C119.629 121.035 119.453 120.966 119.217 120.919L118.272 120.731C117.739 120.624 117.343 120.44 117.082 120.177C116.824 119.914 116.695 119.579 116.695 119.172C116.695 118.821 116.79 118.52 116.979 118.266C117.171 118.013 117.44 117.818 117.786 117.68C118.134 117.543 118.541 117.474 119.007 117.474C119.696 117.474 120.238 117.62 120.634 117.911C121.031 118.202 121.263 118.599 121.33 119.101ZM124.892 123.107C124.331 123.107 123.848 122.993 123.443 122.766C123.041 122.536 122.731 122.212 122.513 121.793C122.295 121.371 122.186 120.873 122.186 120.298C122.186 119.737 122.295 119.244 122.513 118.82C122.731 118.397 123.037 118.066 123.433 117.83C123.83 117.593 124.297 117.474 124.832 117.474C125.192 117.474 125.527 117.532 125.837 117.648C126.149 117.762 126.422 117.934 126.654 118.163C126.888 118.393 127.07 118.682 127.2 119.03C127.331 119.375 127.396 119.78 127.396 120.244V120.66H122.79V119.722H125.972C125.972 119.504 125.924 119.312 125.83 119.143C125.735 118.975 125.604 118.844 125.436 118.749C125.27 118.652 125.077 118.604 124.857 118.604C124.627 118.604 124.423 118.657 124.246 118.763C124.071 118.868 123.933 119.009 123.834 119.186C123.735 119.361 123.684 119.557 123.681 119.772V120.663C123.681 120.933 123.731 121.166 123.83 121.363C123.932 121.559 124.075 121.711 124.26 121.817C124.445 121.924 124.664 121.977 124.917 121.977C125.085 121.977 125.239 121.954 125.379 121.906C125.518 121.859 125.638 121.788 125.737 121.693C125.837 121.598 125.913 121.482 125.965 121.345L127.364 121.438C127.293 121.774 127.147 122.067 126.927 122.318C126.709 122.567 126.427 122.761 126.082 122.901C125.739 123.038 125.342 123.107 124.892 123.107Z" fill="white"/>
<path d="M107.537 117.545H108.537V116.545H107.537V117.545ZM107.537 118.682V119.682H108.537V118.682H107.537ZM104.17 118.682H103.17V119.682H104.17V118.682ZM104.17 117.545V116.545H103.17V117.545H104.17ZM104.941 123H103.941V124H104.941V123ZM105.172 116.168L104.314 115.653L104.311 115.659L105.172 116.168ZM105.811 115.582L105.377 114.681L105.377 114.681L105.811 115.582ZM107.366 115.44L107.184 116.423L107.187 116.423L107.366 115.44ZM107.8 115.536L108.773 115.767L108.991 114.849L108.087 114.578L107.8 115.536ZM107.53 116.672L107.225 117.624L108.253 117.953L108.503 116.903L107.53 116.672ZM107.31 116.619L107.119 117.6L107.124 117.601L107.31 116.619ZM106.582 116.75L107.34 117.402L107.347 117.394L106.582 116.75ZM106.45 123V124H107.45V123H106.45ZM107.537 117.545H106.537V118.682H107.537H108.537V117.545H107.537ZM107.537 118.682V117.682H104.17V118.682V119.682H107.537V118.682ZM104.17 118.682H105.17V117.545H104.17H103.17V118.682H104.17ZM104.17 117.545V118.545H107.537V117.545V116.545H104.17V117.545ZM104.941 123H105.941V117.151H104.941H103.941V123H104.941ZM104.941 117.151H105.941C105.941 116.881 105.994 116.742 106.033 116.676L105.172 116.168L104.311 115.659C104.042 116.114 103.941 116.631 103.941 117.151H104.941ZM105.172 116.168L106.029 116.682C106.087 116.587 106.154 116.527 106.246 116.482L105.811 115.582L105.377 114.681C104.929 114.897 104.57 115.228 104.314 115.653L105.172 116.168ZM105.811 115.582L106.246 116.482C106.362 116.426 106.516 116.386 106.731 116.386V115.386V114.386C106.259 114.386 105.8 114.477 105.377 114.681L105.811 115.582ZM106.731 115.386V116.386C106.913 116.386 107.063 116.4 107.184 116.423L107.366 115.44L107.549 114.456C107.287 114.408 107.013 114.386 106.731 114.386V115.386ZM107.366 115.44L107.187 116.423C107.373 116.457 107.473 116.481 107.512 116.493L107.8 115.536L108.087 114.578C107.937 114.533 107.749 114.493 107.546 114.456L107.366 115.44ZM107.8 115.536L106.827 115.304L106.557 116.441L107.53 116.672L108.503 116.903L108.773 115.767L107.8 115.536ZM107.53 116.672L107.835 115.719C107.724 115.684 107.608 115.657 107.496 115.636L107.31 116.619L107.124 117.601C107.187 117.613 107.218 117.622 107.225 117.624L107.53 116.672ZM107.31 116.619L107.501 115.637C107.35 115.608 107.199 115.594 107.047 115.594V116.594V117.594C107.075 117.594 107.099 117.596 107.119 117.6L107.31 116.619ZM107.047 116.594V115.594C106.713 115.594 106.187 115.666 105.816 116.106L106.582 116.75L107.347 117.394C107.251 117.508 107.143 117.56 107.082 117.581C107.027 117.599 107.008 117.594 107.047 117.594V116.594ZM106.582 116.75L105.824 116.098C105.53 116.439 105.45 116.845 105.45 117.18H106.45H107.45C107.45 117.145 107.458 117.265 107.34 117.402L106.582 116.75ZM106.45 117.18H105.45V123H106.45H107.45V117.18H106.45ZM106.45 123V122H104.941V123V124H106.45V123ZM108.891 122.922L108.479 123.833L108.485 123.836L108.891 122.922ZM108.244 122.379L107.405 122.922L107.411 122.931L108.244 122.379ZM108.177 120.713L107.297 120.238L107.297 120.238L108.177 120.713ZM108.632 120.216L108.084 119.379L108.084 119.379L108.632 120.216ZM109.285 119.932L109.034 118.964L109.031 118.965L109.285 119.932ZM110.059 119.797L110.155 120.792L110.163 120.791L110.059 119.797ZM110.826 119.705L110.971 120.694L110.983 120.692L110.826 119.705ZM111.249 119.57L110.689 118.741L110.689 118.741L111.249 119.57ZM111.167 118.763L110.506 119.514L110.512 119.519L111.167 118.763ZM109.921 118.76L110.513 119.566L110.521 119.56L109.921 118.76ZM109.601 119.207L109.52 120.204L110.334 120.27L110.562 119.485L109.601 119.207ZM108.202 119.094L107.224 118.884L106.985 119.998L108.121 120.09L108.202 119.094ZM108.621 118.234L109.378 118.888L109.381 118.884L108.621 118.234ZM109.427 117.673L109.795 118.603L109.798 118.602L109.427 117.673ZM111.448 117.581L111.199 118.55L111.201 118.55L111.448 117.581ZM112.19 117.911L111.621 118.733L111.625 118.736L112.19 117.911ZM112.705 118.487L111.823 118.958L111.825 118.962L112.705 118.487ZM112.893 123V124H113.893V123H112.893ZM111.458 123H110.458V124H111.458V123ZM111.458 122.244H112.458V121.244H111.458V122.244ZM111.416 122.244V121.244H110.805L110.526 121.787L111.416 122.244ZM111.064 122.695L111.721 123.449L111.728 123.443L111.064 122.695ZM110.535 122.996L110.861 123.942L110.871 123.938L110.535 122.996ZM110.844 121.928L111.301 122.817L111.311 122.812L110.844 121.928ZM111.245 121.565L110.403 121.026L110.403 121.026L111.245 121.565ZM111.391 120.472H112.391V118.629L110.846 119.633L111.391 120.472ZM111.195 120.557L111.478 121.516L111.487 121.514L111.495 121.511L111.195 120.557ZM110.922 120.624L111.105 121.607L111.116 121.605L111.127 121.603L110.922 120.624ZM110.617 120.678L110.755 121.668L110.766 121.666L110.777 121.665L110.617 120.678ZM110.34 120.717L110.198 119.727L110.195 119.727L110.34 120.717ZM109.874 120.841L110.268 121.76L110.268 121.76L109.874 120.841ZM109.566 121.072L110.356 121.684L110.363 121.675L109.566 121.072ZM109.679 121.899L109.089 122.707L109.097 122.712L109.104 122.717L109.679 121.899ZM109.821 123.103V122.103C109.59 122.103 109.421 122.063 109.296 122.008L108.891 122.922L108.485 123.836C108.905 124.022 109.357 124.103 109.821 124.103V123.103ZM108.891 122.922L109.303 122.011C109.194 121.962 109.128 121.902 109.078 121.826L108.244 122.379L107.411 122.931C107.678 123.334 108.043 123.636 108.479 123.833L108.891 122.922ZM108.244 122.379L109.084 121.835C109.056 121.792 109.01 121.692 109.01 121.477H108.01H107.01C107.01 121.981 107.12 122.482 107.405 122.922L108.244 122.379ZM108.01 121.477H109.01C109.01 121.292 109.044 121.212 109.057 121.188L108.177 120.713L107.297 120.238C107.087 120.626 107.01 121.055 107.01 121.477H108.01ZM108.177 120.713L109.057 121.188C109.091 121.125 109.13 121.085 109.179 121.053L108.632 120.216L108.084 119.379C107.75 119.598 107.486 119.889 107.297 120.238L108.177 120.713ZM108.632 120.216L109.179 121.053C109.272 120.992 109.389 120.938 109.539 120.899L109.285 119.932L109.031 118.965C108.694 119.053 108.375 119.189 108.084 119.379L108.632 120.216ZM109.285 119.932L109.536 120.9C109.728 120.85 109.934 120.814 110.155 120.792L110.059 119.797L109.963 118.801C109.644 118.832 109.334 118.886 109.034 118.964L109.285 119.932ZM110.059 119.797L110.163 120.791C110.487 120.758 110.758 120.725 110.971 120.694L110.826 119.705L110.681 118.715C110.507 118.741 110.266 118.77 109.955 118.802L110.059 119.797ZM110.826 119.705L110.983 120.692C111.218 120.655 111.536 120.583 111.809 120.398L111.249 119.57L110.689 118.741C110.721 118.72 110.745 118.707 110.758 118.701C110.771 118.695 110.777 118.694 110.773 118.695C110.769 118.696 110.759 118.699 110.741 118.703C110.723 118.707 110.7 118.712 110.67 118.717L110.826 119.705ZM111.249 119.57L111.809 120.398C112.202 120.133 112.38 119.717 112.38 119.307H111.38H110.38C110.38 119.238 110.394 119.131 110.453 119.012C110.514 118.89 110.602 118.8 110.689 118.741L111.249 119.57ZM111.38 119.307H112.38V119.286H111.38H110.38V119.307H111.38ZM111.38 119.286H112.38C112.38 118.833 112.226 118.358 111.822 118.008L111.167 118.763L110.512 119.519C110.464 119.478 110.425 119.423 110.401 119.364C110.379 119.31 110.38 119.278 110.38 119.286H111.38ZM111.167 118.763L111.828 118.013C111.446 117.676 110.978 117.579 110.57 117.579V118.579V119.579C110.622 119.579 110.634 119.585 110.617 119.58C110.598 119.574 110.554 119.556 110.506 119.514L111.167 118.763ZM110.57 118.579V117.579C110.157 117.579 109.707 117.67 109.321 117.96L109.921 118.76L110.521 119.56C110.491 119.582 110.47 119.588 110.472 119.587C110.477 119.586 110.507 119.579 110.57 119.579V118.579ZM109.921 118.76L109.328 117.954C109.002 118.194 108.758 118.523 108.64 118.929L109.601 119.207L110.562 119.485C110.557 119.502 110.548 119.522 110.534 119.542C110.52 119.561 110.51 119.568 110.513 119.566L109.921 118.76ZM109.601 119.207L109.682 118.211L108.283 118.097L108.202 119.094L108.121 120.09L109.52 120.204L109.601 119.207ZM108.202 119.094L109.18 119.303C109.218 119.125 109.286 118.994 109.378 118.888L108.621 118.234L107.864 117.581C107.539 117.958 107.328 118.399 107.224 118.884L108.202 119.094ZM108.621 118.234L109.381 118.884C109.473 118.777 109.602 118.68 109.795 118.603L109.427 117.673L109.059 116.743C108.594 116.927 108.186 117.204 107.861 117.585L108.621 118.234ZM109.427 117.673L109.798 118.602C109.989 118.526 110.242 118.474 110.578 118.474V117.474V116.474C110.042 116.474 109.528 116.556 109.056 116.745L109.427 117.673ZM110.578 117.474V118.474C110.802 118.474 111.008 118.501 111.199 118.55L111.448 117.581L111.696 116.612C111.333 116.519 110.959 116.474 110.578 116.474V117.474ZM111.448 117.581L111.201 118.55C111.377 118.595 111.512 118.659 111.621 118.733L112.19 117.911L112.759 117.089C112.436 116.866 112.077 116.709 111.694 116.612L111.448 117.581ZM112.19 117.911L111.625 118.736C111.709 118.794 111.773 118.864 111.823 118.958L112.705 118.487L113.586 118.015C113.386 117.64 113.106 117.327 112.755 117.086L112.19 117.911ZM112.705 118.487L111.825 118.962C111.855 119.018 111.893 119.125 111.893 119.321H112.893H113.893C113.893 118.868 113.805 118.419 113.584 118.011L112.705 118.487ZM112.893 119.321H111.893V123H112.893H113.893V119.321H112.893ZM112.893 123V122H111.458V123V124H112.893V123ZM111.458 123H112.458V122.244H111.458H110.458V123H111.458ZM111.458 122.244V121.244H111.416V122.244V123.244H111.458V122.244ZM111.416 122.244L110.526 121.787C110.497 121.844 110.457 121.897 110.4 121.947L111.064 122.695L111.728 123.443C111.965 123.232 112.16 122.984 112.305 122.701L111.416 122.244ZM111.064 122.695L110.407 121.941C110.366 121.977 110.302 122.018 110.199 122.054L110.535 122.996L110.871 123.938C111.18 123.828 111.469 123.668 111.721 123.449L111.064 122.695ZM110.535 122.996L110.209 122.051C110.13 122.078 110.006 122.103 109.821 122.103V123.103V124.103C110.177 124.103 110.529 124.056 110.861 123.942L110.535 122.996ZM110.254 122.059V123.059C110.61 123.059 110.968 122.988 111.301 122.817L110.844 121.928L110.387 121.038C110.379 121.042 110.344 121.059 110.254 121.059V122.059ZM110.844 121.928L111.311 122.812C111.623 122.647 111.89 122.412 112.087 122.105L111.245 121.565L110.403 121.026C110.403 121.027 110.403 121.026 110.402 121.027C110.401 121.028 110.394 121.034 110.377 121.043L110.844 121.928ZM111.245 121.565L112.087 122.105C112.294 121.782 112.391 121.42 112.391 121.05H111.391H110.391C110.391 121.061 110.39 121.06 110.392 121.051C110.393 121.047 110.395 121.042 110.397 121.037C110.399 121.032 110.402 121.029 110.403 121.026L111.245 121.565ZM111.391 121.05H112.391V120.472H111.391H110.391V121.05H111.391ZM111.391 120.472L110.846 119.633C110.878 119.612 110.901 119.602 110.907 119.599C110.913 119.597 110.91 119.598 110.896 119.603L111.195 120.557L111.495 121.511C111.624 121.47 111.783 121.409 111.936 121.31L111.391 120.472ZM111.195 120.557L110.913 119.597C110.864 119.612 110.799 119.628 110.717 119.645L110.922 120.624L111.127 121.603C111.249 121.578 111.366 121.549 111.478 121.516L111.195 120.557ZM110.922 120.624L110.739 119.641C110.645 119.659 110.55 119.675 110.456 119.691L110.617 120.678L110.777 121.665C110.887 121.647 110.996 121.628 111.105 121.607L110.922 120.624ZM110.617 120.678L110.478 119.687C110.376 119.701 110.282 119.715 110.198 119.727L110.34 120.717L110.481 121.707C110.563 121.695 110.654 121.682 110.755 121.668L110.617 120.678ZM110.34 120.717L110.195 119.727C109.951 119.763 109.709 119.824 109.481 119.922L109.874 120.841L110.268 121.76C110.305 121.744 110.373 121.722 110.485 121.706L110.34 120.717ZM109.874 120.841L109.481 119.922C109.218 120.034 108.964 120.209 108.768 120.469L109.566 121.072L110.363 121.675C110.34 121.705 110.316 121.728 110.296 121.742C110.277 121.756 110.266 121.761 110.268 121.76L109.874 120.841ZM109.566 121.072L108.775 120.459C108.542 120.76 108.455 121.106 108.455 121.427H109.455H110.455C110.455 121.442 110.453 121.478 110.438 121.528C110.422 121.579 110.395 121.634 110.356 121.684L109.566 121.072ZM109.455 121.427H108.455C108.455 121.91 108.65 122.386 109.089 122.707L109.679 121.899L110.269 121.092C110.321 121.129 110.377 121.19 110.415 121.271C110.452 121.349 110.455 121.409 110.455 121.427H109.455ZM109.679 121.899L109.104 122.717C109.462 122.969 109.869 123.059 110.254 123.059V122.059V121.059C110.214 121.059 110.2 121.054 110.204 121.055C110.207 121.056 110.213 121.058 110.222 121.062C110.232 121.067 110.243 121.073 110.254 121.081L109.679 121.899ZM115.579 115.727H116.579V114.727H115.579V115.727ZM115.579 123V124H116.579V123H115.579ZM114.067 123H113.067V124H114.067V123ZM114.067 115.727V114.727H113.067V115.727H114.067ZM115.579 115.727H114.579V123H115.579H116.579V115.727H115.579ZM115.579 123V122H114.067V123V124H115.579V123ZM114.067 123H115.067V115.727H114.067H113.067V123H114.067ZM114.067 115.727V116.727H115.579V115.727V114.727H114.067V115.727ZM121.33 119.101L121.391 120.099L122.461 120.033L122.321 118.97L121.33 119.101ZM119.945 119.186L118.964 119.382L119.135 120.238L120.006 120.184L119.945 119.186ZM119.792 118.866L119.013 119.494L119.021 119.503L119.792 118.866ZM119.483 118.636L119.056 119.54L119.067 119.545L119.077 119.549L119.483 118.636ZM118.439 118.696L118.955 119.552L118.964 119.547L118.439 118.696ZM118.354 119.417L117.7 120.174L117.7 120.174L118.354 119.417ZM118.89 119.634L118.68 120.611L118.692 120.614L118.89 119.634ZM119.877 119.832L120.078 118.853L120.075 118.852L119.877 119.832ZM121.063 120.358L120.383 121.091L120.383 121.091L121.063 120.358ZM121.138 122.251L120.35 121.635L120.346 121.64L121.138 122.251ZM120.278 122.883L120.659 123.807L120.662 123.806L120.278 122.883ZM117.299 122.656L116.719 123.471L116.725 123.474L117.299 122.656ZM116.55 121.42L116.497 120.421L115.407 120.478L115.559 121.559L116.55 121.42ZM118.038 121.342L119.017 121.141L118.845 120.298L117.985 120.343L118.038 121.342ZM118.364 121.846L117.807 122.676L117.815 122.681L118.364 121.846ZM119.668 121.864L120.202 122.709L120.205 122.707L119.668 121.864ZM119.916 121.462L120.916 121.477L120.916 121.461L120.916 121.445L119.916 121.462ZM119.742 121.125L119.121 121.909L119.132 121.917L119.742 121.125ZM119.217 120.919L119.413 119.938L119.412 119.938L119.217 120.919ZM118.272 120.731L118.076 121.711L118.077 121.712L118.272 120.731ZM117.082 120.177L116.369 120.878L116.372 120.881L117.082 120.177ZM116.979 118.266L116.182 117.663L116.179 117.668L116.979 118.266ZM117.786 117.68L117.418 116.75L117.416 116.751L117.786 117.68ZM120.634 117.911L120.04 118.716L120.043 118.718L120.634 117.911ZM121.33 119.101L121.268 118.103L119.883 118.188L119.945 119.186L120.006 120.184L121.391 120.099L121.33 119.101ZM119.945 119.186L120.925 118.99C120.869 118.707 120.745 118.45 120.563 118.23L119.792 118.866L119.021 119.503C119.01 119.49 118.997 119.472 118.986 119.449C118.975 119.425 118.968 119.402 118.964 119.382L119.945 119.186ZM119.792 118.866L120.571 118.239C120.381 118.004 120.144 117.835 119.889 117.722L119.483 118.636L119.077 119.549C119.079 119.55 119.071 119.547 119.058 119.537C119.044 119.527 119.028 119.512 119.013 119.493L119.792 118.866ZM119.483 118.636L119.91 117.731C119.62 117.595 119.317 117.547 119.032 117.547V118.547V119.547C119.064 119.547 119.08 119.55 119.083 119.55C119.086 119.551 119.075 119.549 119.056 119.54L119.483 118.636ZM119.032 118.547V117.547C118.656 117.547 118.266 117.627 117.913 117.845L118.439 118.696L118.964 119.547C118.951 119.555 118.945 119.556 118.952 119.554C118.96 119.552 118.985 119.547 119.032 119.547V118.547ZM118.439 118.696L117.923 117.84C117.515 118.085 117.197 118.514 117.197 119.087H118.197H119.197C119.197 119.178 119.172 119.289 119.108 119.392C119.048 119.49 118.98 119.537 118.955 119.552L118.439 118.696ZM118.197 119.087H117.197C117.197 119.526 117.39 119.906 117.7 120.174L118.354 119.417L119.007 118.66C119.047 118.694 119.1 118.753 119.14 118.839C119.182 118.927 119.197 119.014 119.197 119.087H118.197ZM118.354 119.417L117.7 120.174C118 120.433 118.383 120.548 118.68 120.611L118.89 119.634L119.1 118.656C119.012 118.637 118.962 118.62 118.94 118.611C118.931 118.607 118.933 118.607 118.943 118.613C118.953 118.619 118.977 118.634 119.007 118.66L118.354 119.417ZM118.89 119.634L118.692 120.614L119.68 120.813L119.877 119.832L120.075 118.852L119.087 118.653L118.89 119.634ZM119.877 119.832L119.676 120.812C120.114 120.902 120.31 121.023 120.383 121.091L121.063 120.358L121.743 119.625C121.296 119.21 120.701 118.981 120.078 118.853L119.877 119.832ZM121.063 120.358L120.383 121.091C120.417 121.122 120.454 121.162 120.454 121.31H121.454H122.454C122.454 120.671 122.231 120.077 121.743 119.625L121.063 120.358ZM121.454 121.31H120.454C120.454 121.455 120.417 121.549 120.35 121.635L121.138 122.251L121.926 122.866C122.28 122.412 122.454 121.88 122.454 121.31H121.454ZM121.138 122.251L120.346 121.64C120.26 121.751 120.124 121.864 119.895 121.959L120.278 122.883L120.662 123.806C121.162 123.599 121.599 123.29 121.929 122.862L121.138 122.251ZM120.278 122.883L119.898 121.958C119.679 122.048 119.394 122.107 119.025 122.107V123.107V124.107C119.602 124.107 120.154 124.016 120.659 123.807L120.278 122.883ZM119.025 123.107V122.107C118.432 122.107 118.081 121.982 117.873 121.837L117.299 122.656L116.725 123.474C117.374 123.93 118.173 124.107 119.025 124.107V123.107ZM117.299 122.656L117.879 121.841C117.678 121.698 117.575 121.531 117.54 121.28L116.55 121.42L115.559 121.559C115.671 122.35 116.068 123.007 116.719 123.47L117.299 122.656ZM116.55 121.42L116.602 122.418L118.09 122.34L118.038 121.342L117.985 120.343L116.497 120.421L116.55 121.42ZM118.038 121.342L117.058 121.542C117.151 121.997 117.398 122.401 117.807 122.676L118.364 121.846L118.922 121.016C118.943 121.03 118.97 121.055 118.992 121.089C119.014 121.122 119.018 121.144 119.017 121.141L118.038 121.342ZM118.364 121.846L117.815 122.681C118.194 122.931 118.622 123.016 119.028 123.016V122.016V121.016C118.895 121.016 118.88 120.988 118.914 121.01L118.364 121.846ZM119.028 122.016V123.016C119.412 123.016 119.83 122.944 120.202 122.709L119.668 121.864L119.133 121.018C119.158 121.002 119.17 121.002 119.155 121.006C119.138 121.009 119.098 121.016 119.028 121.016V122.016ZM119.668 121.864L120.205 122.707C120.591 122.461 120.908 122.043 120.916 121.477L119.916 121.462L118.916 121.448C118.918 121.356 118.944 121.252 119.002 121.159C119.056 121.072 119.114 121.031 119.13 121.02L119.668 121.864ZM119.916 121.462L120.916 121.445C120.908 120.988 120.695 120.597 120.353 120.333L119.742 121.125L119.132 121.917C119.088 121.883 119.029 121.824 118.982 121.733C118.935 121.642 118.918 121.551 118.916 121.48L119.916 121.462ZM119.742 121.125L120.363 120.341C120.069 120.108 119.714 119.999 119.413 119.938L119.217 120.919L119.021 121.9C119.097 121.915 119.141 121.929 119.161 121.937C119.182 121.945 119.161 121.941 119.121 121.909L119.742 121.125ZM119.217 120.919L119.412 119.938L118.467 119.75L118.272 120.731L118.077 121.712L119.021 121.9L119.217 120.919ZM118.272 120.731L118.468 119.75C118.044 119.665 117.862 119.543 117.793 119.473L117.082 120.177L116.372 120.881C116.824 121.337 117.435 121.583 118.076 121.711L118.272 120.731ZM117.082 120.177L117.796 119.476C117.742 119.421 117.695 119.347 117.695 119.172H116.695H115.695C115.695 119.811 115.907 120.407 116.369 120.877L117.082 120.177ZM116.695 119.172H117.695C117.695 119.013 117.734 118.927 117.78 118.865L116.979 118.266L116.179 117.668C115.846 118.112 115.695 118.63 115.695 119.172H116.695ZM116.979 118.266L117.777 118.87C117.841 118.786 117.95 118.691 118.155 118.61L117.786 117.68L117.416 116.751C116.93 116.944 116.502 117.241 116.182 117.663L116.979 118.266ZM117.786 117.68L118.153 118.611C118.359 118.529 118.636 118.474 119.007 118.474V117.474V116.474C118.445 116.474 117.908 116.557 117.418 116.75L117.786 117.68ZM119.007 117.474V118.474C119.566 118.474 119.874 118.594 120.04 118.716L120.634 117.911L121.227 117.106C120.602 116.646 119.826 116.474 119.007 116.474V117.474ZM120.634 117.911L120.043 118.718C120.214 118.843 120.307 118.992 120.338 119.232L121.33 119.101L122.321 118.97C122.22 118.206 121.849 117.562 121.224 117.104L120.634 117.911ZM123.443 122.766L122.948 123.634L122.954 123.638L123.443 122.766ZM122.513 121.793L121.625 122.252L121.626 122.254L122.513 121.793ZM122.513 118.82L121.624 118.363L121.624 118.363L122.513 118.82ZM123.433 117.83L122.921 116.97L122.919 116.972L123.433 117.83ZM125.837 117.648L125.486 118.585L125.495 118.588L125.837 117.648ZM126.654 118.163L125.95 118.874L125.954 118.878L126.654 118.163ZM127.2 119.03L126.264 119.38L126.265 119.382L127.2 119.03ZM127.396 120.66V121.66H128.396V120.66H127.396ZM122.79 120.66H121.79V121.66H122.79V120.66ZM122.79 119.722V118.722H121.79V119.722H122.79ZM125.972 119.722V120.722H126.972V119.722H125.972ZM125.83 119.143L124.958 119.634L124.958 119.634L125.83 119.143ZM125.436 118.749L124.93 119.612L124.937 119.616L124.945 119.621L125.436 118.749ZM124.246 118.763L124.757 119.623L124.76 119.621L124.246 118.763ZM123.834 119.186L124.704 119.68L124.706 119.675L123.834 119.186ZM123.681 119.772L122.681 119.761V119.772H123.681ZM123.83 121.363L122.938 121.814L122.943 121.823L123.83 121.363ZM125.379 121.906L125.058 120.959L125.058 120.959L125.379 121.906ZM125.737 121.693L125.048 120.969L125.048 120.969L125.737 121.693ZM125.965 121.345L126.031 120.347L125.292 120.299L125.03 120.991L125.965 121.345ZM127.364 121.438L128.342 121.644L128.581 120.516L127.43 120.44L127.364 121.438ZM126.927 122.318L126.175 121.659L126.175 121.659L126.927 122.318ZM126.082 122.901L126.453 123.829L126.457 123.828L126.082 122.901ZM124.892 123.107V122.107C124.467 122.107 124.16 122.021 123.933 121.894L123.443 122.766L122.954 123.638C123.536 123.965 124.195 124.107 124.892 124.107V123.107ZM123.443 122.766L123.939 121.897C123.707 121.765 123.531 121.583 123.4 121.331L122.513 121.793L121.626 122.254C121.93 122.84 122.375 123.307 122.948 123.634L123.443 122.766ZM122.513 121.793L123.401 121.333C123.271 121.081 123.186 120.747 123.186 120.298H122.186H121.186C121.186 120.999 121.319 121.661 121.625 122.252L122.513 121.793ZM122.186 120.298H123.186C123.186 119.867 123.269 119.537 123.402 119.277L122.513 118.82L121.624 118.363C121.321 118.951 121.186 119.606 121.186 120.298H122.186ZM122.513 118.82L123.402 119.277C123.538 119.014 123.717 118.825 123.946 118.687L123.433 117.83L122.919 116.972C122.358 117.308 121.924 117.779 121.624 118.363L122.513 118.82ZM123.433 117.83L123.944 118.689C124.164 118.558 124.448 118.474 124.832 118.474V117.474V116.474C124.145 116.474 123.496 116.628 122.921 116.97L123.433 117.83ZM124.832 117.474V118.474C125.082 118.474 125.298 118.514 125.486 118.585L125.837 117.648L126.187 116.712C125.756 116.55 125.301 116.474 124.832 116.474V117.474ZM125.837 117.648L125.495 118.588C125.674 118.653 125.823 118.748 125.95 118.874L126.654 118.163L127.357 117.453C127.02 117.119 126.624 116.871 126.179 116.709L125.837 117.648ZM126.654 118.163L125.954 118.878C126.07 118.992 126.178 119.151 126.264 119.38L127.2 119.03L128.137 118.679C127.962 118.212 127.705 117.794 127.353 117.449L126.654 118.163ZM127.2 119.03L126.265 119.382C126.343 119.591 126.396 119.871 126.396 120.244H127.396H128.396C128.396 119.69 128.318 119.16 128.136 118.677L127.2 119.03ZM127.396 120.244H126.396V120.66H127.396H128.396V120.244H127.396ZM127.396 120.66V119.66H122.79V120.66V121.66H127.396V120.66ZM122.79 120.66H123.79V119.722H122.79H121.79V120.66H122.79ZM122.79 119.722V120.722H125.972V119.722V118.722H122.79V119.722ZM125.972 119.722H126.972C126.972 119.355 126.89 118.989 126.701 118.653L125.83 119.143L124.958 119.634C124.96 119.637 124.962 119.642 124.965 119.653C124.968 119.664 124.972 119.686 124.972 119.722H125.972ZM125.83 119.143L126.701 118.653C126.517 118.325 126.254 118.062 125.926 117.878L125.436 118.749L124.945 119.621C124.949 119.623 124.951 119.625 124.952 119.625C124.953 119.626 124.953 119.626 124.953 119.626C124.953 119.626 124.953 119.626 124.954 119.627C124.954 119.628 124.956 119.63 124.958 119.634L125.83 119.143ZM125.436 118.749L125.941 117.886C125.601 117.687 125.228 117.604 124.857 117.604V118.604V119.604C124.893 119.604 124.914 119.608 124.923 119.61C124.931 119.612 124.932 119.613 124.93 119.612L125.436 118.749ZM124.857 118.604V117.604C124.466 117.604 124.081 117.696 123.731 117.906L124.246 118.763L124.76 119.621C124.766 119.618 124.788 119.604 124.857 119.604V118.604ZM124.246 118.763L123.735 117.904C123.409 118.098 123.147 118.366 122.961 118.697L123.834 119.186L124.706 119.675C124.72 119.651 124.733 119.638 124.757 119.623L124.246 118.763ZM123.834 119.186L122.964 118.692C122.775 119.025 122.685 119.388 122.681 119.761L123.681 119.772L124.681 119.783C124.682 119.725 124.694 119.697 124.704 119.68L123.834 119.186ZM123.681 119.772H122.681V120.663H123.681H124.681V119.772H123.681ZM123.681 120.663H122.681C122.681 121.055 122.754 121.45 122.938 121.814L123.83 121.363L124.723 120.911C124.708 120.883 124.681 120.811 124.681 120.663H123.681ZM123.83 121.363L122.943 121.823C123.129 122.182 123.404 122.478 123.76 122.684L124.26 121.817L124.76 120.951C124.747 120.944 124.736 120.937 124.718 120.903L123.83 121.363ZM124.26 121.817L123.76 122.684C124.123 122.893 124.521 122.977 124.917 122.977V121.977V120.977C124.806 120.977 124.766 120.955 124.76 120.951L124.26 121.817ZM124.917 121.977V122.977C125.179 122.977 125.443 122.94 125.7 122.853L125.379 121.906L125.058 120.959C125.035 120.967 124.991 120.977 124.917 120.977V121.977ZM125.379 121.906L125.7 122.853C125.967 122.763 126.215 122.62 126.427 122.417L125.737 121.693L125.048 120.969C125.053 120.964 125.058 120.96 125.062 120.958C125.066 120.956 125.065 120.957 125.058 120.959L125.379 121.906ZM125.737 121.693L126.427 122.417C126.642 122.212 126.798 121.967 126.9 121.7L125.965 121.345L125.03 120.991C125.028 120.996 125.028 120.994 125.032 120.988C125.035 120.982 125.041 120.975 125.048 120.969L125.737 121.693ZM125.965 121.345L125.899 122.343L127.298 122.435L127.364 121.438L127.43 120.44L126.031 120.347L125.965 121.345ZM127.364 121.438L126.385 121.231C126.349 121.404 126.279 121.541 126.175 121.659L126.927 122.318L127.679 122.978C128.015 122.594 128.237 122.143 128.342 121.644L127.364 121.438ZM126.927 122.318L126.175 121.659C126.073 121.776 125.926 121.885 125.707 121.973L126.082 122.901L126.457 123.828C126.929 123.637 127.346 123.358 127.679 122.977L126.927 122.318ZM126.082 122.901L125.71 121.972C125.508 122.053 125.242 122.107 124.892 122.107V123.107V124.107C125.442 124.107 125.969 124.023 126.453 123.829L126.082 122.901Z" fill="#C50000" mask="url(#path-5-outside-1_99_4)"/>
</g>
</g>
<g id="true_block_arrow">
<circle id="anchor:true" opacity="0.01" cx="412" cy="139" r="1" fill="#D9D9D9"/>
<g id="border_2">
<path d="M412 139L437 114H387L412 139Z" fill="white"/>
<path d="M412 134L432 114H392L412 134Z" fill="white"/>
</g>
<g id="tip_2">
<path d="M412 134L432 114H392L412 134Z" fill="#F0B43B"/>
<path d="M412 130L428 114H396L412 130Z" fill="#F0B43B"/>
</g>
<path id="shaft_2" d="M423 74H401V114H423V74Z" fill="#F0B43B"/>
<g id="true_text">
<mask id="path-11-outside-2_99_4" maskUnits="userSpaceOnUse" x="401" y="116" width="22" height="10" fill="black">
<rect fill="white" x="401" y="116" width="22" height="10"/>
<path d="M405.505 118.545V119.682H402.22V118.545H405.505ZM402.966 117.239H404.479V122.324C404.479 122.464 404.5 122.572 404.543 122.651C404.585 122.726 404.644 122.78 404.72 122.81C404.798 122.841 404.888 122.857 404.99 122.857C405.061 122.857 405.132 122.851 405.203 122.839C405.274 122.825 405.329 122.814 405.366 122.807L405.604 123.933C405.529 123.956 405.422 123.983 405.285 124.014C405.147 124.047 404.981 124.067 404.784 124.075C404.42 124.089 404.1 124.04 403.825 123.929C403.553 123.818 403.341 123.645 403.19 123.411C403.038 123.176 402.964 122.88 402.966 122.523V117.239ZM406.49 124V118.545H407.957V119.497H408.014C408.113 119.159 408.28 118.903 408.515 118.73C408.749 118.555 409.019 118.467 409.324 118.467C409.4 118.467 409.482 118.472 409.569 118.482C409.657 118.491 409.734 118.504 409.8 118.521V119.863C409.729 119.842 409.631 119.823 409.505 119.806C409.38 119.79 409.265 119.781 409.161 119.781C408.938 119.781 408.739 119.83 408.564 119.927C408.391 120.022 408.254 120.154 408.152 120.325C408.053 120.495 408.003 120.692 408.003 120.914V124H406.49ZM414.08 121.678V118.545H415.593V124H414.14V123.009H414.084C413.961 123.329 413.756 123.586 413.469 123.78C413.185 123.974 412.838 124.071 412.429 124.071C412.064 124.071 411.743 123.988 411.466 123.822C411.189 123.657 410.973 123.421 410.817 123.116C410.663 122.81 410.585 122.445 410.582 122.018V118.545H412.095V121.749C412.097 122.071 412.184 122.325 412.354 122.512C412.525 122.699 412.753 122.793 413.04 122.793C413.222 122.793 413.392 122.751 413.551 122.668C413.71 122.583 413.837 122.458 413.934 122.292C414.034 122.126 414.082 121.921 414.08 121.678ZM419.289 124.107C418.728 124.107 418.245 123.993 417.84 123.766C417.437 123.536 417.127 123.212 416.909 122.793C416.692 122.371 416.583 121.873 416.583 121.298C416.583 120.737 416.692 120.244 416.909 119.82C417.127 119.397 417.434 119.066 417.829 118.83C418.227 118.593 418.693 118.474 419.228 118.474C419.588 118.474 419.923 118.532 420.233 118.648C420.546 118.762 420.818 118.934 421.05 119.163C421.284 119.393 421.467 119.682 421.597 120.03C421.727 120.375 421.792 120.78 421.792 121.244V121.66H417.186V120.722H420.368C420.368 120.504 420.321 120.312 420.226 120.143C420.132 119.975 420 119.844 419.832 119.749C419.666 119.652 419.473 119.604 419.253 119.604C419.024 119.604 418.82 119.657 418.642 119.763C418.467 119.868 418.33 120.009 418.23 120.186C418.131 120.361 418.08 120.557 418.078 120.772V121.663C418.078 121.933 418.127 122.166 418.227 122.363C418.329 122.559 418.472 122.711 418.657 122.817C418.841 122.924 419.06 122.977 419.314 122.977C419.482 122.977 419.636 122.954 419.775 122.906C419.915 122.859 420.034 122.788 420.134 122.693C420.233 122.598 420.309 122.482 420.361 122.345L421.76 122.438C421.689 122.774 421.544 123.067 421.324 123.318C421.106 123.567 420.824 123.761 420.478 123.901C420.135 124.038 419.739 124.107 419.289 124.107Z"/>
</mask>
<path d="M405.505 118.545V119.682H402.22V118.545H405.505ZM402.966 117.239H404.479V122.324C404.479 122.464 404.5 122.572 404.543 122.651C404.585 122.726 404.644 122.78 404.72 122.81C404.798 122.841 404.888 122.857 404.99 122.857C405.061 122.857 405.132 122.851 405.203 122.839C405.274 122.825 405.329 122.814 405.366 122.807L405.604 123.933C405.529 123.956 405.422 123.983 405.285 124.014C405.147 124.047 404.981 124.067 404.784 124.075C404.42 124.089 404.1 124.04 403.825 123.929C403.553 123.818 403.341 123.645 403.19 123.411C403.038 123.176 402.964 122.88 402.966 122.523V117.239ZM406.49 124V118.545H407.957V119.497H408.014C408.113 119.159 408.28 118.903 408.515 118.73C408.749 118.555 409.019 118.467 409.324 118.467C409.4 118.467 409.482 118.472 409.569 118.482C409.657 118.491 409.734 118.504 409.8 118.521V119.863C409.729 119.842 409.631 119.823 409.505 119.806C409.38 119.79 409.265 119.781 409.161 119.781C408.938 119.781 408.739 119.83 408.564 119.927C408.391 120.022 408.254 120.154 408.152 120.325C408.053 120.495 408.003 120.692 408.003 120.914V124H406.49ZM414.08 121.678V118.545H415.593V124H414.14V123.009H414.084C413.961 123.329 413.756 123.586 413.469 123.78C413.185 123.974 412.838 124.071 412.429 124.071C412.064 124.071 411.743 123.988 411.466 123.822C411.189 123.657 410.973 123.421 410.817 123.116C410.663 122.81 410.585 122.445 410.582 122.018V118.545H412.095V121.749C412.097 122.071 412.184 122.325 412.354 122.512C412.525 122.699 412.753 122.793 413.04 122.793C413.222 122.793 413.392 122.751 413.551 122.668C413.71 122.583 413.837 122.458 413.934 122.292C414.034 122.126 414.082 121.921 414.08 121.678ZM419.289 124.107C418.728 124.107 418.245 123.993 417.84 123.766C417.437 123.536 417.127 123.212 416.909 122.793C416.692 122.371 416.583 121.873 416.583 121.298C416.583 120.737 416.692 120.244 416.909 119.82C417.127 119.397 417.434 119.066 417.829 118.83C418.227 118.593 418.693 118.474 419.228 118.474C419.588 118.474 419.923 118.532 420.233 118.648C420.546 118.762 420.818 118.934 421.05 119.163C421.284 119.393 421.467 119.682 421.597 120.03C421.727 120.375 421.792 120.78 421.792 121.244V121.66H417.186V120.722H420.368C420.368 120.504 420.321 120.312 420.226 120.143C420.132 119.975 420 119.844 419.832 119.749C419.666 119.652 419.473 119.604 419.253 119.604C419.024 119.604 418.82 119.657 418.642 119.763C418.467 119.868 418.33 120.009 418.23 120.186C418.131 120.361 418.08 120.557 418.078 120.772V121.663C418.078 121.933 418.127 122.166 418.227 122.363C418.329 122.559 418.472 122.711 418.657 122.817C418.841 122.924 419.06 122.977 419.314 122.977C419.482 122.977 419.636 122.954 419.775 122.906C419.915 122.859 420.034 122.788 420.134 122.693C420.233 122.598 420.309 122.482 420.361 122.345L421.76 122.438C421.689 122.774 421.544 123.067 421.324 123.318C421.106 123.567 420.824 123.761 420.478 123.901C420.135 124.038 419.739 124.107 419.289 124.107Z" fill="white"/>
<path d="M405.505 118.545H406.505V117.545H405.505V118.545ZM405.505 119.682V120.682H406.505V119.682H405.505ZM402.22 119.682H401.22V120.682H402.22V119.682ZM402.22 118.545V117.545H401.22V118.545H402.22ZM402.966 117.239V116.239H401.966V117.239H402.966ZM404.479 117.239H405.479V116.239H404.479V117.239ZM404.543 122.651L403.665 123.129L403.671 123.141L404.543 122.651ZM404.72 122.81L404.344 123.737L404.354 123.741L404.72 122.81ZM405.203 122.839L405.368 123.825L405.383 123.823L405.399 123.819L405.203 122.839ZM405.366 122.807L406.345 122.6L406.143 121.644L405.182 121.824L405.366 122.807ZM405.604 123.933L405.903 124.887L406.771 124.616L406.583 123.726L405.604 123.933ZM405.285 124.014L405.066 123.038L405.058 123.04L405.05 123.042L405.285 124.014ZM404.784 124.075L404.748 123.075L404.745 123.075L404.784 124.075ZM403.825 123.929L403.447 124.855L403.45 124.856L403.825 123.929ZM403.19 123.411L404.029 122.868L404.029 122.868L403.19 123.411ZM402.966 122.523L403.966 122.529V122.523H402.966ZM405.505 118.545H404.505V119.682H405.505H406.505V118.545H405.505ZM405.505 119.682V118.682H402.22V119.682V120.682H405.505V119.682ZM402.22 119.682H403.22V118.545H402.22H401.22V119.682H402.22ZM402.22 118.545V119.545H405.505V118.545V117.545H402.22V118.545ZM402.966 117.239V118.239H404.479V117.239V116.239H402.966V117.239ZM404.479 117.239H403.479V122.324H404.479H405.479V117.239H404.479ZM404.479 122.324H403.479C403.479 122.545 403.509 122.844 403.665 123.129L404.543 122.651L405.421 122.172C405.459 122.241 405.472 122.296 405.476 122.318C405.48 122.341 405.479 122.345 405.479 122.324H404.479ZM404.543 122.651L403.671 123.141C403.817 123.4 404.045 123.615 404.344 123.737L404.72 122.81L405.097 121.884C405.163 121.911 405.229 121.951 405.288 122.004C405.346 122.057 405.387 122.112 405.414 122.16L404.543 122.651ZM404.72 122.81L404.354 123.741C404.57 123.826 404.789 123.857 404.99 123.857V122.857V121.857C404.988 121.857 405.026 121.856 405.087 121.88L404.72 122.81ZM404.99 122.857V123.857C405.117 123.857 405.243 123.846 405.368 123.825L405.203 122.839L405.039 121.852C405.021 121.855 405.005 121.857 404.99 121.857V122.857ZM405.203 122.839L405.399 123.819C405.469 123.805 405.519 123.796 405.551 123.79L405.366 122.807L405.182 121.824C405.138 121.832 405.079 121.844 405.007 121.858L405.203 122.839ZM405.366 122.807L404.388 123.014L404.626 124.139L405.604 123.933L406.583 123.726L406.345 122.6L405.366 122.807ZM405.604 123.933L405.306 122.978C405.269 122.99 405.194 123.01 405.066 123.038L405.285 124.014L405.504 124.99C405.651 124.957 405.788 124.923 405.903 124.887L405.604 123.933ZM405.285 124.014L405.05 123.042C404.998 123.055 404.901 123.07 404.748 123.075L404.784 124.075L404.82 125.074C405.06 125.065 405.297 125.04 405.519 124.986L405.285 124.014ZM404.784 124.075L404.745 123.075C404.49 123.085 404.317 123.049 404.201 123.002L403.825 123.929L403.45 124.856C403.883 125.031 404.349 125.092 404.823 125.074L404.784 124.075ZM403.825 123.929L404.204 123.003C404.11 122.965 404.064 122.921 404.029 122.868L403.19 123.411L402.35 123.953C402.619 124.369 402.996 124.67 403.447 124.855L403.825 123.929ZM403.19 123.411L404.029 122.868C404.01 122.837 403.964 122.746 403.966 122.529L402.966 122.523L401.966 122.516C401.963 123.014 402.066 123.515 402.35 123.953L403.19 123.411ZM402.966 122.523H403.966V117.239H402.966H401.966V122.523H402.966ZM406.49 124H405.49V125H406.49V124ZM406.49 118.545V117.545H405.49V118.545H406.49ZM407.957 118.545H408.957V117.545H407.957V118.545ZM407.957 119.497H406.957V120.497H407.957V119.497ZM408.014 119.497V120.497H408.762L408.973 119.779L408.014 119.497ZM408.515 118.73L409.108 119.535L409.113 119.531L408.515 118.73ZM409.569 118.482L409.677 117.487L409.677 117.487L409.569 118.482ZM409.8 118.521H410.8V117.74L410.043 117.55L409.8 118.521ZM409.8 119.863L409.513 120.821L410.8 121.207V119.863H409.8ZM408.564 119.927L409.045 120.804L409.049 120.802L408.564 119.927ZM408.152 120.325L407.294 119.812L407.289 119.821L408.152 120.325ZM408.003 124V125H409.003V124H408.003ZM406.49 124H407.49V118.545H406.49H405.49V124H406.49ZM406.49 118.545V119.545H407.957V118.545V117.545H406.49V118.545ZM407.957 118.545H406.957V119.497H407.957H408.957V118.545H407.957ZM407.957 119.497V120.497H408.014V119.497V118.497H407.957V119.497ZM408.014 119.497L408.973 119.779C409.025 119.605 409.084 119.552 409.108 119.535L408.515 118.73L407.921 117.925C407.476 118.253 407.202 118.713 407.054 119.215L408.014 119.497ZM408.515 118.73L409.113 119.531C409.167 119.491 409.225 119.467 409.324 119.467V118.467V117.467C408.813 117.467 408.331 117.619 407.916 117.929L408.515 118.73ZM409.324 118.467V119.467C409.359 119.467 409.404 119.47 409.462 119.476L409.569 118.482L409.677 117.487C409.559 117.475 409.441 117.467 409.324 117.467V118.467ZM409.569 118.482L409.462 119.476C409.516 119.482 409.546 119.488 409.558 119.491L409.8 118.521L410.043 117.55C409.921 117.52 409.798 117.5 409.677 117.487L409.569 118.482ZM409.8 118.521H408.8V119.863H409.8H410.8V118.521H409.8ZM409.8 119.863L410.087 118.905C409.942 118.861 409.783 118.834 409.636 118.815L409.505 119.806L409.374 120.797C409.422 120.804 409.458 120.81 409.484 120.815C409.51 120.82 409.518 120.822 409.513 120.821L409.8 119.863ZM409.505 119.806L409.636 118.815C409.476 118.794 409.317 118.781 409.161 118.781V119.781V120.781C409.213 120.781 409.283 120.785 409.374 120.797L409.505 119.806ZM409.161 119.781V118.781C408.788 118.781 408.419 118.864 408.08 119.052L408.564 119.927L409.049 120.802C409.06 120.796 409.089 120.781 409.161 120.781V119.781ZM408.564 119.927L408.084 119.05C407.754 119.231 407.486 119.49 407.294 119.812L408.152 120.325L409.011 120.837C409.022 120.819 409.029 120.812 409.045 120.804L408.564 119.927ZM408.152 120.325L407.289 119.821C407.089 120.163 407.003 120.538 407.003 120.914H408.003H409.003C409.003 120.878 409.007 120.856 409.01 120.845C409.012 120.835 409.015 120.831 409.016 120.828L408.152 120.325ZM408.003 120.914H407.003V124H408.003H409.003V120.914H408.003ZM408.003 124V123H406.49V124V125H408.003V124ZM414.08 121.678H413.08L413.08 121.687L414.08 121.678ZM414.08 118.545V117.545H413.08V118.545H414.08ZM415.593 118.545H416.593V117.545H415.593V118.545ZM415.593 124V125H416.593V124H415.593ZM414.14 124H413.14V125H414.14V124ZM414.14 123.009H415.14V122.009H414.14V123.009ZM414.084 123.009V122.009H413.397L413.15 122.65L414.084 123.009ZM413.469 123.78L412.908 122.952L412.905 122.954L413.469 123.78ZM411.466 123.822L411.98 122.964L411.98 122.964L411.466 123.822ZM410.817 123.116L409.924 123.566L409.926 123.571L410.817 123.116ZM410.582 122.018H409.582L409.582 122.024L410.582 122.018ZM410.582 118.545V117.545H409.582V118.545H410.582ZM412.095 118.545H413.095V117.545H412.095V118.545ZM412.095 121.749L411.095 121.749L411.095 121.756L412.095 121.749ZM412.354 122.512L413.093 121.838L413.093 121.838L412.354 122.512ZM413.551 122.668L414.014 123.555L414.024 123.549L413.551 122.668ZM413.934 122.292L413.077 121.777L413.072 121.787L413.934 122.292ZM414.08 121.678H415.08V118.545H414.08H413.08V121.678H414.08ZM414.08 118.545V119.545H415.593V118.545V117.545H414.08V118.545ZM415.593 118.545H414.593V124H415.593H416.593V118.545H415.593ZM415.593 124V123H414.14V124V125H415.593V124ZM414.14 124H415.14V123.009H414.14H413.14V124H414.14ZM414.14 123.009V122.009H414.084V123.009V124.009H414.14V123.009ZM414.084 123.009L413.15 122.65C413.102 122.777 413.028 122.871 412.908 122.952L413.469 123.78L414.03 124.608C414.484 124.3 414.82 123.881 415.017 123.369L414.084 123.009ZM413.469 123.78L412.905 122.954C412.817 123.015 412.676 123.071 412.429 123.071V124.071V125.071C413.001 125.071 413.554 124.933 414.033 124.605L413.469 123.78ZM412.429 124.071V123.071C412.221 123.071 412.082 123.026 411.98 122.964L411.466 123.822L410.953 124.681C411.405 124.951 411.907 125.071 412.429 125.071V124.071ZM411.466 123.822L411.98 122.964C411.874 122.901 411.783 122.81 411.707 122.66L410.817 123.116L409.926 123.571C410.162 124.033 410.505 124.412 410.953 124.681L411.466 123.822ZM410.817 123.116L411.71 122.666C411.64 122.528 411.584 122.322 411.582 122.013L410.582 122.018L409.582 122.024C409.585 122.567 409.685 123.093 409.924 123.566L410.817 123.116ZM410.582 122.018H411.582V118.545H410.582H409.582V122.018H410.582ZM410.582 118.545V119.545H412.095V118.545V117.545H410.582V118.545ZM412.095 118.545H411.095V121.749H412.095H413.095V118.545H412.095ZM412.095 121.749L411.095 121.756C411.099 122.255 411.237 122.771 411.615 123.186L412.354 122.512L413.093 121.838C413.099 121.845 413.103 121.851 413.107 121.856C413.11 121.862 413.11 121.863 413.108 121.859C413.106 121.851 413.096 121.816 413.095 121.741L412.095 121.749ZM412.354 122.512L411.615 123.186C412.001 123.609 412.513 123.793 413.04 123.793V122.793V121.793C413.006 121.793 413.009 121.787 413.032 121.797C413.044 121.802 413.056 121.808 413.068 121.817C413.08 121.825 413.089 121.833 413.093 121.838L412.354 122.512ZM413.04 122.793V123.793C413.38 123.793 413.71 123.714 414.014 123.555L413.551 122.668L413.088 121.782C413.075 121.789 413.064 121.793 413.04 121.793V122.793ZM413.551 122.668L414.024 123.549C414.356 123.371 414.614 123.111 414.797 122.797L413.934 122.292L413.072 121.787C413.068 121.793 413.065 121.796 413.064 121.797C413.064 121.799 413.064 121.798 413.065 121.797C413.067 121.795 413.069 121.793 413.072 121.791C413.074 121.789 413.076 121.788 413.078 121.787L413.551 122.668ZM413.934 122.292L414.792 122.806C415.008 122.446 415.084 122.048 415.08 121.668L414.08 121.678L413.08 121.687C413.081 121.794 413.06 121.806 413.077 121.777L413.934 122.292ZM417.84 123.766L417.344 124.634L417.35 124.638L417.84 123.766ZM416.909 122.793L416.021 123.252L416.022 123.254L416.909 122.793ZM416.909 119.82L416.02 119.363L416.02 119.363L416.909 119.82ZM417.829 118.83L417.318 117.97L417.315 117.972L417.829 118.83ZM420.233 118.648L419.883 119.585L419.892 119.588L420.233 118.648ZM421.05 119.163L420.347 119.874L420.35 119.878L421.05 119.163ZM421.597 120.03L420.66 120.38L420.661 120.382L421.597 120.03ZM421.792 121.66V122.66H422.792V121.66H421.792ZM417.186 121.66H416.186V122.66H417.186V121.66ZM417.186 120.722V119.722H416.186V120.722H417.186ZM420.368 120.722V121.722H421.368V120.722H420.368ZM420.226 120.143L419.355 120.634L419.355 120.634L420.226 120.143ZM419.832 119.749L419.327 120.612L419.334 120.616L419.341 120.621L419.832 119.749ZM418.642 119.763L419.153 120.623L419.157 120.621L418.642 119.763ZM418.23 120.186L419.1 120.68L419.103 120.675L418.23 120.186ZM418.078 120.772L417.078 120.761V120.772H418.078ZM418.227 122.363L417.335 122.814L417.339 122.823L418.227 122.363ZM419.775 122.906L419.454 121.959L419.454 121.959L419.775 122.906ZM420.134 122.693L419.444 121.969L419.444 121.969L420.134 122.693ZM420.361 122.345L420.427 121.347L419.689 121.299L419.426 121.991L420.361 122.345ZM421.76 122.438L422.739 122.644L422.977 121.516L421.826 121.44L421.76 122.438ZM421.324 123.318L420.572 122.659L420.571 122.659L421.324 123.318ZM420.478 123.901L420.85 124.829L420.853 124.828L420.478 123.901ZM419.289 124.107V123.107C418.863 123.107 418.556 123.021 418.329 122.894L417.84 123.766L417.35 124.638C417.933 124.965 418.592 125.107 419.289 125.107V124.107ZM417.84 123.766L418.335 122.897C418.103 122.765 417.928 122.583 417.797 122.331L416.909 122.793L416.022 123.254C416.327 123.84 416.771 124.307 417.344 124.634L417.84 123.766ZM416.909 122.793L417.798 122.333C417.667 122.081 417.583 121.747 417.583 121.298H416.583H415.583C415.583 121.999 415.716 122.661 416.021 123.252L416.909 122.793ZM416.583 121.298H417.583C417.583 120.867 417.666 120.537 417.799 120.277L416.909 119.82L416.02 119.363C415.718 119.951 415.583 120.606 415.583 121.298H416.583ZM416.909 119.82L417.799 120.277C417.934 120.014 418.113 119.825 418.343 119.687L417.829 118.83L417.315 117.972C416.754 118.308 416.32 118.779 416.02 119.363L416.909 119.82ZM417.829 118.83L418.341 119.689C418.561 119.558 418.845 119.474 419.228 119.474V118.474V117.474C418.542 117.474 417.893 117.628 417.318 117.97L417.829 118.83ZM419.228 118.474V119.474C419.479 119.474 419.694 119.514 419.883 119.585L420.233 118.648L420.584 117.712C420.152 117.55 419.697 117.474 419.228 117.474V118.474ZM420.233 118.648L419.892 119.588C420.071 119.653 420.219 119.748 420.347 119.874L421.05 119.163L421.754 118.453C421.417 118.119 421.021 117.871 420.575 117.709L420.233 118.648ZM421.05 119.163L420.35 119.878C420.467 119.992 420.575 120.151 420.66 120.38L421.597 120.03L422.534 119.679C422.359 119.212 422.102 118.794 421.75 118.449L421.05 119.163ZM421.597 120.03L420.661 120.382C420.74 120.591 420.792 120.871 420.792 121.244H421.792H422.792C422.792 120.69 422.715 120.16 422.533 119.677L421.597 120.03ZM421.792 121.244H420.792V121.66H421.792H422.792V121.244H421.792ZM421.792 121.66V120.66H417.186V121.66V122.66H421.792V121.66ZM417.186 121.66H418.186V120.722H417.186H416.186V121.66H417.186ZM417.186 120.722V121.722H420.368V120.722V119.722H417.186V120.722ZM420.368 120.722H421.368C421.368 120.355 421.287 119.989 421.097 119.653L420.226 120.143L419.355 120.634C419.356 120.637 419.359 120.642 419.362 120.653C419.364 120.664 419.368 120.686 419.368 120.722H420.368ZM420.226 120.143L421.097 119.653C420.913 119.325 420.65 119.062 420.323 118.878L419.832 119.749L419.341 120.621C419.345 120.623 419.348 120.625 419.349 120.625C419.35 120.626 419.35 120.626 419.35 120.626C419.349 120.626 419.35 120.626 419.35 120.627C419.351 120.628 419.353 120.63 419.355 120.634L420.226 120.143ZM419.832 119.749L420.337 118.886C419.997 118.687 419.625 118.604 419.253 118.604V119.604V120.604C419.29 120.604 419.31 120.608 419.319 120.61C419.327 120.612 419.328 120.613 419.327 120.612L419.832 119.749ZM419.253 119.604V118.604C418.863 118.604 418.477 118.696 418.128 118.906L418.642 119.763L419.157 120.621C419.162 120.618 419.184 120.604 419.253 120.604V119.604ZM418.642 119.763L418.131 118.904C417.805 119.098 417.543 119.366 417.358 119.697L418.23 120.186L419.103 120.675C419.116 120.651 419.129 120.638 419.153 120.623L418.642 119.763ZM418.23 120.186L417.361 119.692C417.172 120.025 417.082 120.388 417.078 120.761L418.078 120.772L419.078 120.783C419.078 120.725 419.09 120.697 419.1 120.68L418.23 120.186ZM418.078 120.772H417.078V121.663H418.078H419.078V120.772H418.078ZM418.078 121.663H417.078C417.078 122.055 417.15 122.45 417.335 122.814L418.227 122.363L419.119 121.911C419.105 121.883 419.078 121.811 419.078 121.663H418.078ZM418.227 122.363L417.339 122.823C417.525 123.182 417.8 123.478 418.157 123.684L418.657 122.817L419.156 121.951C419.144 121.944 419.132 121.937 419.115 121.903L418.227 122.363ZM418.657 122.817L418.157 123.684C418.52 123.893 418.918 123.977 419.314 123.977V122.977V121.977C419.203 121.977 419.163 121.955 419.156 121.951L418.657 122.817ZM419.314 122.977V123.977C419.576 123.977 419.84 123.94 420.096 123.853L419.775 122.906L419.454 121.959C419.431 121.967 419.387 121.977 419.314 121.977V122.977ZM419.775 122.906L420.096 123.853C420.363 123.763 420.611 123.62 420.824 123.417L420.134 122.693L419.444 121.969C419.45 121.964 419.455 121.96 419.459 121.958C419.463 121.956 419.462 121.957 419.454 121.959L419.775 122.906ZM420.134 122.693L420.824 123.417C421.039 123.212 421.195 122.967 421.296 122.7L420.361 122.345L419.426 121.991C419.424 121.996 419.424 121.994 419.428 121.988C419.432 121.982 419.438 121.975 419.444 121.969L420.134 122.693ZM420.361 122.345L420.295 123.343L421.694 123.435L421.76 122.438L421.826 121.44L420.427 121.347L420.361 122.345ZM421.76 122.438L420.782 122.231C420.745 122.404 420.675 122.541 420.572 122.659L421.324 123.318L422.075 123.978C422.412 123.594 422.633 123.143 422.739 122.644L421.76 122.438ZM421.324 123.318L420.571 122.659C420.469 122.776 420.323 122.885 420.104 122.973L420.478 123.901L420.853 124.828C421.325 124.637 421.742 124.358 422.076 123.977L421.324 123.318ZM420.478 123.901L420.107 122.972C419.904 123.053 419.638 123.107 419.289 123.107V124.107V125.107C419.839 125.107 420.366 125.023 420.85 124.829L420.478 123.901Z" fill="#059A26" mask="url(#path-11-outside-2_99_4)"/>
</g>
<path id="true_block_arrowbody_hor" d="M245 52V74L423 74V52L245 52Z" fill="#F0B43B"/>
</g>
<rect id="block_body" y="34" width="245" height="59" fill="#F0B43B"/>
<g id="connector">
<g id="capTop">
<path d="M115 34H90V9L115 34Z" fill="#F0B43B"/>
<path d="M140 34H115L140 9V34Z" fill="#F0B43B"/>
</g>
<path id="stripe" d="M140 14L115 39L90 14V9L115 34L140 9V14Z" fill="white"/>
<circle id="anchor:prev" opacity="0.01" cx="115" cy="34" r="1" fill="#D9D9D9"/>
</g>
</g>
<path id="if_text" d="M25.7244 70V63.4545H27.5398V70H25.7244ZM26.6364 62.6108C26.3665 62.6108 26.1349 62.5213 25.9418 62.3423C25.7514 62.1605 25.6562 61.9432 25.6562 61.6903C25.6562 61.4403 25.7514 61.2259 25.9418 61.0469C26.1349 60.8651 26.3665 60.7741 26.6364 60.7741C26.9063 60.7741 27.1364 60.8651 27.3267 61.0469C27.5199 61.2259 27.6165 61.4403 27.6165 61.6903C27.6165 61.9432 27.5199 62.1605 27.3267 62.3423C27.1364 62.5213 26.9063 62.6108 26.6364 62.6108ZM32.5138 63.4545V64.8182H28.4741V63.4545H32.5138ZM29.3988 70V62.9815C29.3988 62.5071 29.4911 62.1136 29.6758 61.8011C29.8633 61.4886 30.119 61.2543 30.4428 61.098C30.7667 60.9418 31.1346 60.8636 31.5465 60.8636C31.8249 60.8636 32.0792 60.8849 32.3093 60.9276C32.5423 60.9702 32.7156 61.0085 32.8292 61.0426L32.5053 62.4062C32.4343 62.3835 32.3462 62.3622 32.2411 62.3423C32.1388 62.3224 32.0337 62.3125 31.9258 62.3125C31.6587 62.3125 31.4727 62.375 31.3675 62.5C31.2624 62.6222 31.2099 62.794 31.2099 63.0156V70H29.3988Z" fill="white"/>
<g id="input:condition">
<ellipse id="anchor-input:condition-right" opacity="0.01" cx="201.378" cy="64.6326" rx="0.621514" ry="0.734694" fill="#D9D9D9"/>
<rect id="box" opacity="0.01" x="46.6213" y="47" width="154.757" height="36" fill="#D9D9D9"/>
<ellipse id="anchor-input:condition-left" opacity="0.01" cx="46.6215" cy="64.6326" rx="0.621514" ry="0.734694" fill="#D9D9D9"/>
</g>
<g id="chevron_display">
<g id="chevron">
<path d="M46 65L54 47V83L46 65Z" fill="#A87C2D"/>
<path d="M203 65L195 83V47L203 65Z" fill="#A87C2D"/>
<path d="M195 47H54V83H195V47Z" fill="#A87C2D"/>
</g>
</g>
</g>
</svg>
