<svg width="319" height="360" viewBox="0 0 319 360" fill="none" xmlns="http://www.w3.org/2000/svg">
<circle opacity="0.01" cx="87" cy="132" r="1" fill="#D9D9D9"/>
<path d="M86.9999 131L112 106H62L86.9999 131Z" fill="white"/>
<path d="M86.9999 126L107 106H67L86.9999 126Z" fill="white"/>
<path d="M86.9999 126L107 106H67L86.9999 126Z" fill="#F0B43B"/>
<path d="M86.9999 122L103 106H71L86.9999 122Z" fill="#F0B43B"/>
<path d="M99.0477 84H77.0477V106H99.0477V84Z" fill="#F0B43B"/>
<mask id="path-5-outside-1_170_206" maskUnits="userSpaceOnUse" x="75" y="105" width="26" height="11" fill="black">
<rect fill="white" x="75" y="105" width="26" height="11"/>
<path d="M79.5369 108.545V109.682H76.1705V108.545H79.5369ZM76.9411 114V108.151C76.9411 107.756 77.018 107.428 77.1719 107.168C77.3281 106.907 77.5412 106.712 77.8111 106.582C78.081 106.451 78.3875 106.386 78.7308 106.386C78.9628 106.386 79.1747 106.404 79.3665 106.44C79.5606 106.475 79.705 106.507 79.7997 106.536L79.5298 107.672C79.4706 107.653 79.3973 107.635 79.3097 107.619C79.2244 107.602 79.1368 107.594 79.0469 107.594C78.8243 107.594 78.6693 107.646 78.5817 107.75C78.4941 107.852 78.4503 107.995 78.4503 108.18V114H76.9411ZM81.8212 114.103C81.4732 114.103 81.1631 114.043 80.8908 113.922C80.6185 113.799 80.4031 113.618 80.2445 113.379C80.0882 113.137 80.0101 112.836 80.0101 112.477C80.0101 112.174 80.0658 111.919 80.177 111.713C80.2883 111.507 80.4398 111.341 80.6316 111.216C80.8233 111.09 81.0411 110.996 81.285 110.932C81.5312 110.868 81.7892 110.823 82.0591 110.797C82.3764 110.764 82.632 110.733 82.8262 110.705C83.0203 110.674 83.1612 110.629 83.2488 110.57C83.3364 110.51 83.3801 110.423 83.3801 110.307V110.286C83.3801 110.061 83.3091 109.887 83.1671 109.763C83.0274 109.64 82.8285 109.579 82.5705 109.579C82.2982 109.579 82.0816 109.639 81.9206 109.76C81.7596 109.878 81.6531 110.027 81.601 110.207L80.2019 110.094C80.2729 109.762 80.4126 109.476 80.6209 109.234C80.8292 108.991 81.098 108.804 81.427 108.673C81.7585 108.541 82.142 108.474 82.5776 108.474C82.8806 108.474 83.1706 108.51 83.4476 108.581C83.727 108.652 83.9744 108.762 84.1898 108.911C84.4076 109.06 84.5792 109.252 84.7047 109.487C84.8302 109.719 84.8929 109.997 84.8929 110.321V114H83.4583V113.244H83.4157C83.3281 113.414 83.2109 113.564 83.0641 113.695C82.9173 113.822 82.7409 113.923 82.535 113.996C82.329 114.067 82.0911 114.103 81.8212 114.103ZM82.2544 113.059C82.477 113.059 82.6735 113.015 82.8439 112.928C83.0144 112.838 83.1481 112.717 83.2452 112.565C83.3423 112.414 83.3908 112.242 83.3908 112.05V111.472C83.3435 111.502 83.2784 111.531 83.1955 111.557C83.115 111.58 83.0239 111.603 82.9221 111.624C82.8203 111.643 82.7185 111.661 82.6167 111.678C82.5149 111.692 82.4225 111.705 82.3397 111.717C82.1621 111.743 82.007 111.784 81.8745 111.841C81.7419 111.898 81.6389 111.975 81.5655 112.072C81.4921 112.166 81.4554 112.285 81.4554 112.427C81.4554 112.633 81.53 112.79 81.6792 112.899C81.8307 113.006 82.0224 113.059 82.2544 113.059ZM87.5794 106.727V114H86.0666V106.727H87.5794ZM93.3295 110.101L91.9446 110.186C91.9209 110.068 91.87 109.961 91.7919 109.866C91.7138 109.769 91.6108 109.692 91.483 109.636C91.3575 109.576 91.2071 109.547 91.032 109.547C90.7976 109.547 90.5999 109.597 90.4389 109.696C90.2779 109.793 90.1974 109.923 90.1974 110.087C90.1974 110.217 90.2495 110.327 90.3537 110.417C90.4579 110.507 90.6366 110.579 90.8899 110.634L91.8771 110.832C92.4074 110.941 92.8028 111.116 93.0632 111.358C93.3236 111.599 93.4538 111.917 93.4538 112.31C93.4538 112.667 93.3485 112.981 93.1378 113.251C92.9295 113.521 92.643 113.731 92.2784 113.883C91.9162 114.032 91.4983 114.107 91.0249 114.107C90.3028 114.107 89.7275 113.956 89.299 113.656C88.8729 113.353 88.6231 112.941 88.5497 112.42L90.0376 112.342C90.0826 112.562 90.1915 112.73 90.3643 112.846C90.5372 112.96 90.7585 113.016 91.0284 113.016C91.2936 113.016 91.5066 112.965 91.6676 112.864C91.831 112.759 91.9138 112.626 91.9162 112.462C91.9138 112.325 91.8558 112.213 91.7422 112.125C91.6286 112.035 91.4534 111.966 91.2166 111.919L90.272 111.731C89.7393 111.624 89.3428 111.44 89.0824 111.177C88.8243 110.914 88.6953 110.579 88.6953 110.172C88.6953 109.821 88.79 109.52 88.9794 109.266C89.1712 109.013 89.4399 108.818 89.7855 108.68C90.1335 108.543 90.5407 108.474 91.0071 108.474C91.696 108.474 92.2382 108.62 92.6335 108.911C93.0313 109.202 93.2633 109.599 93.3295 110.101ZM96.8922 114.107C96.3311 114.107 95.8482 113.993 95.4434 113.766C95.0409 113.536 94.7308 113.212 94.513 112.793C94.2952 112.371 94.1863 111.873 94.1863 111.298C94.1863 110.737 94.2952 110.244 94.513 109.82C94.7308 109.397 95.0373 109.066 95.4327 108.83C95.8304 108.593 96.2968 108.474 96.8319 108.474C97.1917 108.474 97.5267 108.532 97.8368 108.648C98.1493 108.762 98.4216 108.934 98.6536 109.163C98.888 109.393 99.0703 109.682 99.2005 110.03C99.3307 110.375 99.3958 110.78 99.3958 111.244V111.66H94.79V110.722H97.9718C97.9718 110.504 97.9244 110.312 97.8297 110.143C97.735 109.975 97.6036 109.844 97.4355 109.749C97.2698 109.652 97.0769 109.604 96.8567 109.604C96.6271 109.604 96.4235 109.657 96.2459 109.763C96.0707 109.868 95.9334 110.009 95.834 110.186C95.7346 110.361 95.6837 110.557 95.6813 110.772V111.663C95.6813 111.933 95.731 112.166 95.8304 112.363C95.9322 112.559 96.0755 112.711 96.2601 112.817C96.4448 112.924 96.6638 112.977 96.9171 112.977C97.0852 112.977 97.2391 112.954 97.3787 112.906C97.5184 112.859 97.638 112.788 97.7374 112.693C97.8368 112.598 97.9126 112.482 97.9647 112.345L99.3638 112.438C99.2928 112.774 99.1472 113.067 98.927 113.318C98.7092 113.567 98.4275 113.761 98.0819 113.901C97.7386 114.038 97.342 114.107 96.8922 114.107Z"/>
</mask>
<path d="M79.5369 108.545V109.682H76.1705V108.545H79.5369ZM76.9411 114V108.151C76.9411 107.756 77.018 107.428 77.1719 107.168C77.3281 106.907 77.5412 106.712 77.8111 106.582C78.081 106.451 78.3875 106.386 78.7308 106.386C78.9628 106.386 79.1747 106.404 79.3665 106.44C79.5606 106.475 79.705 106.507 79.7997 106.536L79.5298 107.672C79.4706 107.653 79.3973 107.635 79.3097 107.619C79.2244 107.602 79.1368 107.594 79.0469 107.594C78.8243 107.594 78.6693 107.646 78.5817 107.75C78.4941 107.852 78.4503 107.995 78.4503 108.18V114H76.9411ZM81.8212 114.103C81.4732 114.103 81.1631 114.043 80.8908 113.922C80.6185 113.799 80.4031 113.618 80.2445 113.379C80.0882 113.137 80.0101 112.836 80.0101 112.477C80.0101 112.174 80.0658 111.919 80.177 111.713C80.2883 111.507 80.4398 111.341 80.6316 111.216C80.8233 111.09 81.0411 110.996 81.285 110.932C81.5312 110.868 81.7892 110.823 82.0591 110.797C82.3764 110.764 82.632 110.733 82.8262 110.705C83.0203 110.674 83.1612 110.629 83.2488 110.57C83.3364 110.51 83.3801 110.423 83.3801 110.307V110.286C83.3801 110.061 83.3091 109.887 83.1671 109.763C83.0274 109.64 82.8285 109.579 82.5705 109.579C82.2982 109.579 82.0816 109.639 81.9206 109.76C81.7596 109.878 81.6531 110.027 81.601 110.207L80.2019 110.094C80.2729 109.762 80.4126 109.476 80.6209 109.234C80.8292 108.991 81.098 108.804 81.427 108.673C81.7585 108.541 82.142 108.474 82.5776 108.474C82.8806 108.474 83.1706 108.51 83.4476 108.581C83.727 108.652 83.9744 108.762 84.1898 108.911C84.4076 109.06 84.5792 109.252 84.7047 109.487C84.8302 109.719 84.8929 109.997 84.8929 110.321V114H83.4583V113.244H83.4157C83.3281 113.414 83.2109 113.564 83.0641 113.695C82.9173 113.822 82.7409 113.923 82.535 113.996C82.329 114.067 82.0911 114.103 81.8212 114.103ZM82.2544 113.059C82.477 113.059 82.6735 113.015 82.8439 112.928C83.0144 112.838 83.1481 112.717 83.2452 112.565C83.3423 112.414 83.3908 112.242 83.3908 112.05V111.472C83.3435 111.502 83.2784 111.531 83.1955 111.557C83.115 111.58 83.0239 111.603 82.9221 111.624C82.8203 111.643 82.7185 111.661 82.6167 111.678C82.5149 111.692 82.4225 111.705 82.3397 111.717C82.1621 111.743 82.007 111.784 81.8745 111.841C81.7419 111.898 81.6389 111.975 81.5655 112.072C81.4921 112.166 81.4554 112.285 81.4554 112.427C81.4554 112.633 81.53 112.79 81.6792 112.899C81.8307 113.006 82.0224 113.059 82.2544 113.059ZM87.5794 106.727V114H86.0666V106.727H87.5794ZM93.3295 110.101L91.9446 110.186C91.9209 110.068 91.87 109.961 91.7919 109.866C91.7138 109.769 91.6108 109.692 91.483 109.636C91.3575 109.576 91.2071 109.547 91.032 109.547C90.7976 109.547 90.5999 109.597 90.4389 109.696C90.2779 109.793 90.1974 109.923 90.1974 110.087C90.1974 110.217 90.2495 110.327 90.3537 110.417C90.4579 110.507 90.6366 110.579 90.8899 110.634L91.8771 110.832C92.4074 110.941 92.8028 111.116 93.0632 111.358C93.3236 111.599 93.4538 111.917 93.4538 112.31C93.4538 112.667 93.3485 112.981 93.1378 113.251C92.9295 113.521 92.643 113.731 92.2784 113.883C91.9162 114.032 91.4983 114.107 91.0249 114.107C90.3028 114.107 89.7275 113.956 89.299 113.656C88.8729 113.353 88.6231 112.941 88.5497 112.42L90.0376 112.342C90.0826 112.562 90.1915 112.73 90.3643 112.846C90.5372 112.96 90.7585 113.016 91.0284 113.016C91.2936 113.016 91.5066 112.965 91.6676 112.864C91.831 112.759 91.9138 112.626 91.9162 112.462C91.9138 112.325 91.8558 112.213 91.7422 112.125C91.6286 112.035 91.4534 111.966 91.2166 111.919L90.272 111.731C89.7393 111.624 89.3428 111.44 89.0824 111.177C88.8243 110.914 88.6953 110.579 88.6953 110.172C88.6953 109.821 88.79 109.52 88.9794 109.266C89.1712 109.013 89.4399 108.818 89.7855 108.68C90.1335 108.543 90.5407 108.474 91.0071 108.474C91.696 108.474 92.2382 108.62 92.6335 108.911C93.0313 109.202 93.2633 109.599 93.3295 110.101ZM96.8922 114.107C96.3311 114.107 95.8482 113.993 95.4434 113.766C95.0409 113.536 94.7308 113.212 94.513 112.793C94.2952 112.371 94.1863 111.873 94.1863 111.298C94.1863 110.737 94.2952 110.244 94.513 109.82C94.7308 109.397 95.0373 109.066 95.4327 108.83C95.8304 108.593 96.2968 108.474 96.8319 108.474C97.1917 108.474 97.5267 108.532 97.8368 108.648C98.1493 108.762 98.4216 108.934 98.6536 109.163C98.888 109.393 99.0703 109.682 99.2005 110.03C99.3307 110.375 99.3958 110.78 99.3958 111.244V111.66H94.79V110.722H97.9718C97.9718 110.504 97.9244 110.312 97.8297 110.143C97.735 109.975 97.6036 109.844 97.4355 109.749C97.2698 109.652 97.0769 109.604 96.8567 109.604C96.6271 109.604 96.4235 109.657 96.2459 109.763C96.0707 109.868 95.9334 110.009 95.834 110.186C95.7346 110.361 95.6837 110.557 95.6813 110.772V111.663C95.6813 111.933 95.731 112.166 95.8304 112.363C95.9322 112.559 96.0755 112.711 96.2601 112.817C96.4448 112.924 96.6638 112.977 96.9171 112.977C97.0852 112.977 97.2391 112.954 97.3787 112.906C97.5184 112.859 97.638 112.788 97.7374 112.693C97.8368 112.598 97.9126 112.482 97.9647 112.345L99.3638 112.438C99.2928 112.774 99.1472 113.067 98.927 113.318C98.7092 113.567 98.4275 113.761 98.0819 113.901C97.7386 114.038 97.342 114.107 96.8922 114.107Z" fill="white"/>
<path d="M79.5369 108.545H80.5369V107.545H79.5369V108.545ZM79.5369 109.682V110.682H80.5369V109.682H79.5369ZM76.1705 109.682H75.1705V110.682H76.1705V109.682ZM76.1705 108.545V107.545H75.1705V108.545H76.1705ZM76.9411 114H75.9411V115H76.9411V114ZM77.1719 107.168L76.3144 106.653L76.3109 106.659L77.1719 107.168ZM77.8111 106.582L77.3766 105.681L77.3766 105.681L77.8111 106.582ZM79.3665 106.44L79.1844 107.423L79.1865 107.423L79.3665 106.44ZM79.7997 106.536L80.7727 106.767L80.9906 105.849L80.0871 105.578L79.7997 106.536ZM79.5298 107.672L79.2251 108.624L80.2533 108.953L80.5028 107.903L79.5298 107.672ZM79.3097 107.619L79.1188 108.6L79.1238 108.601L79.3097 107.619ZM78.5817 107.75L79.3397 108.402L79.347 108.394L78.5817 107.75ZM78.4503 114V115H79.4503V114H78.4503ZM79.5369 108.545H78.5369V109.682H79.5369H80.5369V108.545H79.5369ZM79.5369 109.682V108.682H76.1705V109.682V110.682H79.5369V109.682ZM76.1705 109.682H77.1705V108.545H76.1705H75.1705V109.682H76.1705ZM76.1705 108.545V109.545H79.5369V108.545V107.545H76.1705V108.545ZM76.9411 114H77.9411V108.151H76.9411H75.9411V114H76.9411ZM76.9411 108.151H77.9411C77.9411 107.881 77.9938 107.742 78.0328 107.676L77.1719 107.168L76.3109 106.659C76.0422 107.114 75.9411 107.631 75.9411 108.151H76.9411ZM77.1719 107.168L78.0294 107.682C78.0867 107.587 78.1538 107.527 78.2456 107.482L77.8111 106.582L77.3766 105.681C76.9285 105.897 76.5695 106.228 76.3144 106.653L77.1719 107.168ZM77.8111 106.582L78.2456 107.482C78.3615 107.426 78.5161 107.386 78.7308 107.386V106.386V105.386C78.259 105.386 77.8004 105.477 77.3766 105.681L77.8111 106.582ZM78.7308 106.386V107.386C78.9129 107.386 79.0627 107.4 79.1844 107.423L79.3665 106.44L79.5486 105.456C79.2867 105.408 79.0128 105.386 78.7308 105.386V106.386ZM79.3665 106.44L79.1865 107.423C79.3726 107.457 79.4726 107.481 79.5124 107.493L79.7997 106.536L80.0871 105.578C79.9375 105.533 79.7486 105.493 79.5464 105.456L79.3665 106.44ZM79.7997 106.536L78.8268 106.304L78.5569 107.441L79.5298 107.672L80.5028 107.903L80.7727 106.767L79.7997 106.536ZM79.5298 107.672L79.8346 106.719C79.7237 106.684 79.6077 106.657 79.4956 106.636L79.3097 107.619L79.1238 108.601C79.1868 108.613 79.2175 108.622 79.2251 108.624L79.5298 107.672ZM79.3097 107.619L79.5005 106.637C79.3502 106.608 79.1986 106.594 79.0469 106.594V107.594V108.594C79.0751 108.594 79.0987 108.596 79.1188 108.6L79.3097 107.619ZM79.0469 107.594V106.594C78.7129 106.594 78.1868 106.666 77.8163 107.106L78.5817 107.75L79.347 108.394C79.2507 108.508 79.1433 108.56 79.0821 108.581C79.0275 108.599 79.0076 108.594 79.0469 108.594V107.594ZM78.5817 107.75L77.8237 107.098C77.53 107.439 77.4503 107.845 77.4503 108.18H78.4503H79.4503C79.4503 108.145 79.4582 108.265 79.3397 108.402L78.5817 107.75ZM78.4503 108.18H77.4503V114H78.4503H79.4503V108.18H78.4503ZM78.4503 114V113H76.9411V114V115H78.4503V114ZM80.8908 113.922L80.4788 114.833L80.4854 114.836L80.8908 113.922ZM80.2445 113.379L79.4049 113.922L79.4112 113.931L80.2445 113.379ZM80.177 111.713L79.2972 111.238L80.177 111.713ZM80.6316 111.216L80.084 110.379H80.084L80.6316 111.216ZM81.285 110.932L81.0337 109.964L81.0314 109.965L81.285 110.932ZM82.0591 110.797L82.1552 111.792L82.163 111.791L82.0591 110.797ZM82.8262 110.705L82.971 111.694L82.9828 111.692L82.8262 110.705ZM83.2488 110.57L82.6889 109.741L82.6889 109.741L83.2488 110.57ZM83.1671 109.763L82.5059 110.514L82.5122 110.519L83.1671 109.763ZM81.9206 109.76L82.513 110.566L82.5206 110.56L81.9206 109.76ZM81.601 110.207L81.5201 111.204L82.3344 111.27L82.5616 110.485L81.601 110.207ZM80.2019 110.094L79.2241 109.884L78.9854 110.998L80.1209 111.09L80.2019 110.094ZM80.6209 109.234L81.3781 109.888L81.3812 109.884L80.6209 109.234ZM81.427 108.673L81.795 109.603L81.7984 109.602L81.427 108.673ZM83.4476 108.581L83.1992 109.55L83.2012 109.55L83.4476 108.581ZM84.1898 108.911L83.6206 109.733L83.6248 109.736L84.1898 108.911ZM84.7047 109.487L83.8231 109.958L83.8251 109.962L84.7047 109.487ZM84.8929 114V115H85.8929V114H84.8929ZM83.4583 114H82.4583V115H83.4583V114ZM83.4583 113.244H84.4583V112.244H83.4583V113.244ZM83.4157 113.244V112.244H82.8052L82.5262 112.787L83.4157 113.244ZM83.0641 113.695L83.7209 114.449L83.7277 114.443L83.0641 113.695ZM82.535 113.996L82.861 114.942L82.8706 114.938L82.535 113.996ZM82.8439 112.928L83.301 113.817L83.3107 113.812L82.8439 112.928ZM83.2452 112.565L82.4032 112.026L82.4032 112.026L83.2452 112.565ZM83.3908 111.472H84.3908V109.629L82.8458 110.633L83.3908 111.472ZM83.1955 111.557L83.4777 112.516L83.4865 112.514L83.4953 112.511L83.1955 111.557ZM82.9221 111.624L83.105 112.607L83.116 112.605L83.1269 112.603L82.9221 111.624ZM82.6167 111.678L82.7549 112.668L82.7661 112.666L82.7773 112.665L82.6167 111.678ZM82.3397 111.717L82.1982 110.727L82.1946 110.727L82.3397 111.717ZM81.8745 111.841L82.2684 112.76L82.2684 112.76L81.8745 111.841ZM81.5655 112.072L82.356 112.684L82.3632 112.675L81.5655 112.072ZM81.6792 112.899L81.0895 113.707L81.0967 113.712L81.104 113.717L81.6792 112.899ZM81.8212 114.103V113.103C81.5895 113.103 81.4211 113.063 81.2962 113.008L80.8908 113.922L80.4854 114.836C80.905 115.022 81.3568 115.103 81.8212 115.103V114.103ZM80.8908 113.922L81.3028 113.011C81.1945 112.962 81.1281 112.902 81.0778 112.826L80.2445 113.379L79.4112 113.931C79.6782 114.334 80.0426 114.636 80.4788 114.833L80.8908 113.922ZM80.2445 113.379L81.0841 112.835C81.056 112.792 81.0101 112.692 81.0101 112.477H80.0101H79.0101C79.0101 112.981 79.1205 113.482 79.4049 113.922L80.2445 113.379ZM80.0101 112.477H81.0101C81.0101 112.292 81.0443 112.212 81.0568 112.188L80.177 111.713L79.2972 111.238C79.0872 111.626 79.0101 112.055 79.0101 112.477H80.0101ZM80.177 111.713L81.0568 112.188C81.0909 112.125 81.1295 112.085 81.1791 112.053L80.6316 111.216L80.084 110.379C79.7501 110.598 79.4857 110.889 79.2972 111.238L80.177 111.713ZM80.6316 111.216L81.1791 112.053C81.272 111.992 81.3887 111.938 81.5385 111.899L81.285 110.932L81.0314 109.965C80.6936 110.053 80.3747 110.189 80.084 110.379L80.6316 111.216ZM81.285 110.932L81.5363 111.9C81.7283 111.85 81.9343 111.814 82.1552 111.792L82.0591 110.797L81.9631 109.801C81.6442 109.832 81.3341 109.886 81.0337 109.964L81.285 110.932ZM82.0591 110.797L82.163 111.791C82.4866 111.758 82.7575 111.725 82.971 111.694L82.8262 110.705L82.6814 109.715C82.5065 109.741 82.2661 109.77 81.9552 109.802L82.0591 110.797ZM82.8262 110.705L82.9828 111.692C83.218 111.655 83.5358 111.583 83.8086 111.398L83.2488 110.57L82.6889 109.741C82.7206 109.72 82.7453 109.707 82.7582 109.701C82.7713 109.695 82.7772 109.694 82.7732 109.695C82.7695 109.696 82.7593 109.699 82.7412 109.703C82.7233 109.707 82.6997 109.712 82.6696 109.717L82.8262 110.705ZM83.2488 110.57L83.8086 111.398C84.2015 111.133 84.3801 110.717 84.3801 110.307H83.3801H82.3801C82.3801 110.238 82.3936 110.131 82.4529 110.012C82.5139 109.89 82.6019 109.8 82.6889 109.741L83.2488 110.57ZM83.3801 110.307H84.3801V110.286H83.3801H82.3801V110.307H83.3801ZM83.3801 110.286H84.3801C84.3801 109.833 84.2264 109.358 83.822 109.008L83.1671 109.763L82.5122 110.519C82.4645 110.478 82.4249 110.423 82.401 110.364C82.379 110.31 82.3801 110.278 82.3801 110.286H83.3801ZM83.1671 109.763L83.8283 109.013C83.446 108.676 82.978 108.579 82.5705 108.579V109.579V110.579C82.6222 110.579 82.6335 110.585 82.6175 110.58C82.598 110.574 82.5539 110.556 82.5059 110.514L83.1671 109.763ZM82.5705 109.579V108.579C82.1573 108.579 81.7067 108.67 81.3206 108.96L81.9206 109.76L82.5206 110.56C82.4907 110.582 82.4697 110.588 82.4723 110.587C82.4771 110.586 82.5067 110.579 82.5705 110.579V109.579ZM81.9206 109.76L81.3282 108.954C81.0024 109.194 80.758 109.523 80.6405 109.929L81.601 110.207L82.5616 110.485C82.5569 110.502 82.5476 110.522 82.5337 110.542C82.5203 110.561 82.5101 110.568 82.513 110.566L81.9206 109.76ZM81.601 110.207L81.682 109.211L80.2828 109.097L80.2019 110.094L80.1209 111.09L81.5201 111.204L81.601 110.207ZM80.2019 110.094L81.1797 110.303C81.2178 110.125 81.2862 109.994 81.3781 109.888L80.6209 109.234L79.8638 108.581C79.5389 108.958 79.328 109.399 79.2241 109.884L80.2019 110.094ZM80.6209 109.234L81.3812 109.884C81.4729 109.777 81.6016 109.68 81.795 109.603L81.427 108.673L81.0591 107.743C80.5943 107.927 80.1856 108.204 79.8606 108.585L80.6209 109.234ZM81.427 108.673L81.7984 109.602C81.9888 109.526 82.242 109.474 82.5776 109.474V108.474V107.474C82.042 107.474 81.5281 107.556 81.0556 107.745L81.427 108.673ZM82.5776 108.474V109.474C82.8018 109.474 83.0081 109.501 83.1992 109.55L83.4476 108.581L83.696 107.612C83.3332 107.519 82.9594 107.474 82.5776 107.474V108.474ZM83.4476 108.581L83.2012 109.55C83.3766 109.595 83.5125 109.659 83.6206 109.733L84.1898 108.911L84.759 108.089C84.4363 107.866 84.0773 107.709 83.694 107.612L83.4476 108.581ZM84.1898 108.911L83.6248 109.736C83.7093 109.794 83.7728 109.864 83.8231 109.958L84.7047 109.487L85.5863 109.015C85.3857 108.64 85.1059 108.327 84.7548 108.086L84.1898 108.911ZM84.7047 109.487L83.8251 109.962C83.8554 110.018 83.8929 110.125 83.8929 110.321H84.8929H85.8929C85.8929 109.868 85.805 109.419 85.5843 109.011L84.7047 109.487ZM84.8929 110.321H83.8929V114H84.8929H85.8929V110.321H84.8929ZM84.8929 114V113H83.4583V114V115H84.8929V114ZM83.4583 114H84.4583V113.244H83.4583H82.4583V114H83.4583ZM83.4583 113.244V112.244H83.4157V113.244V114.244H83.4583V113.244ZM83.4157 113.244L82.5262 112.787C82.4966 112.844 82.4569 112.897 82.4005 112.947L83.0641 113.695L83.7277 114.443C83.9649 114.232 84.1595 113.984 84.3051 113.701L83.4157 113.244ZM83.0641 113.695L82.4073 112.941C82.3658 112.977 82.3019 113.018 82.1993 113.054L82.535 113.996L82.8706 114.938C83.18 114.828 83.4688 114.668 83.7209 114.449L83.0641 113.695ZM82.535 113.996L82.209 113.051C82.1295 113.078 82.0056 113.103 81.8212 113.103V114.103V115.103C82.1766 115.103 82.5285 115.056 82.861 114.942L82.535 113.996ZM82.2544 113.059V114.059C82.6103 114.059 82.9679 113.988 83.301 113.817L82.8439 112.928L82.3869 112.038C82.379 112.042 82.3437 112.059 82.2544 112.059V113.059ZM82.8439 112.928L83.3107 113.812C83.6227 113.647 83.8904 113.412 84.0872 113.105L83.2452 112.565L82.4032 112.026C82.4027 112.027 82.4029 112.026 82.402 112.027C82.4009 112.028 82.3941 112.034 82.3772 112.043L82.8439 112.928ZM83.2452 112.565L84.0872 113.105C84.2943 112.782 84.3908 112.42 84.3908 112.05H83.3908H82.3908C82.3908 112.061 82.3896 112.06 82.3921 112.051C82.3933 112.047 82.395 112.042 82.3972 112.037C82.3993 112.032 82.4015 112.029 82.4032 112.026L83.2452 112.565ZM83.3908 112.05H84.3908V111.472H83.3908H82.3908V112.05H83.3908ZM83.3908 111.472L82.8458 110.633C82.8782 110.612 82.9009 110.602 82.9065 110.599C82.9129 110.597 82.9103 110.598 82.8957 110.603L83.1955 111.557L83.4953 112.511C83.6236 112.47 83.7831 112.409 83.9358 112.31L83.3908 111.472ZM83.1955 111.557L82.9133 110.597C82.8635 110.612 82.7988 110.628 82.7172 110.645L82.9221 111.624L83.1269 112.603C83.2489 112.578 83.3665 112.549 83.4777 112.516L83.1955 111.557ZM82.9221 111.624L82.7391 110.641C82.6447 110.659 82.5503 110.675 82.456 110.691L82.6167 111.678L82.7773 112.665C82.8866 112.647 82.9958 112.628 83.105 112.607L82.9221 111.624ZM82.6167 111.678L82.4785 110.687C82.3758 110.701 82.2824 110.715 82.1982 110.727L82.3397 111.717L82.4811 112.707C82.5627 112.695 82.6539 112.682 82.7549 112.668L82.6167 111.678ZM82.3397 111.717L82.1946 110.727C81.9513 110.763 81.7092 110.824 81.4805 110.922L81.8745 111.841L82.2684 112.76C82.3048 112.744 82.373 112.722 82.4848 112.706L82.3397 111.717ZM81.8745 111.841L81.4805 110.922C81.2179 111.034 80.964 111.209 80.7679 111.469L81.5655 112.072L82.3632 112.675C82.34 112.705 82.3159 112.728 82.2963 112.742C82.2774 112.756 82.266 112.761 82.2684 112.76L81.8745 111.841ZM81.5655 112.072L80.7751 111.459C80.5418 111.76 80.4554 112.106 80.4554 112.427H81.4554H82.4554C82.4554 112.442 82.4535 112.478 82.4381 112.528C82.4222 112.579 82.3952 112.634 82.3559 112.684L81.5655 112.072ZM81.4554 112.427H80.4554C80.4554 112.91 80.6499 113.386 81.0895 113.707L81.6792 112.899L82.2688 112.092C82.3206 112.129 82.3767 112.19 82.4151 112.271C82.4517 112.349 82.4554 112.409 82.4554 112.427H81.4554ZM81.6792 112.899L81.104 113.717C81.4622 113.969 81.8689 114.059 82.2544 114.059V113.059V112.059C82.2143 112.059 82.2 112.054 82.2043 112.055C82.2066 112.056 82.213 112.058 82.2224 112.062C82.2318 112.067 82.2428 112.073 82.2543 112.081L81.6792 112.899ZM87.5794 106.727H88.5794V105.727H87.5794V106.727ZM87.5794 114V115H88.5794V114H87.5794ZM86.0666 114H85.0666V115H86.0666V114ZM86.0666 106.727V105.727H85.0666V106.727H86.0666ZM87.5794 106.727H86.5794V114H87.5794H88.5794V106.727H87.5794ZM87.5794 114V113H86.0666V114V115H87.5794V114ZM86.0666 114H87.0666V106.727H86.0666H85.0666V114H86.0666ZM86.0666 106.727V107.727H87.5794V106.727V105.727H86.0666V106.727ZM93.3295 110.101L93.391 111.099L94.4614 111.033L94.3209 109.97L93.3295 110.101ZM91.9446 110.186L90.964 110.382L91.1351 111.238L92.006 111.184L91.9446 110.186ZM91.7919 109.866L91.0128 110.494L91.0205 110.503L91.7919 109.866ZM91.483 109.636L91.0563 110.54L91.0665 110.545L91.0768 110.549L91.483 109.636ZM90.4389 109.696L90.9553 110.552L90.9644 110.547L90.4389 109.696ZM90.3537 110.417L89.7001 111.174L89.7001 111.174L90.3537 110.417ZM90.8899 110.634L90.6797 111.611L90.6924 111.614L90.8899 110.634ZM91.8771 110.832L92.0783 109.853L92.0746 109.852L91.8771 110.832ZM93.0632 111.358L92.3833 112.091L93.0632 111.358ZM93.1378 113.251L92.3495 112.635L92.3462 112.64L93.1378 113.251ZM92.2784 113.883L92.6592 114.807L92.6622 114.806L92.2784 113.883ZM89.299 113.656L88.7195 114.471L88.7246 114.474L89.299 113.656ZM88.5497 112.42L88.4973 111.421L87.4072 111.478L87.5595 112.559L88.5497 112.42ZM90.0376 112.342L91.0174 112.141L90.8451 111.298L89.9852 111.343L90.0376 112.342ZM90.3643 112.846L89.807 113.676L89.8149 113.681L90.3643 112.846ZM91.6676 112.864L92.2021 113.709L92.2053 113.707L91.6676 112.864ZM91.9162 112.462L92.9161 112.477L92.9163 112.461L92.916 112.445L91.9162 112.462ZM91.7422 112.125L91.1214 112.909L91.1317 112.917L91.7422 112.125ZM91.2166 111.919L91.4127 110.938L91.412 110.938L91.2166 111.919ZM90.272 111.731L90.0759 112.711L90.0766 112.712L90.272 111.731ZM89.0824 111.177L88.3689 111.878L88.3721 111.881L89.0824 111.177ZM88.9794 109.266L88.1821 108.663L88.1785 108.668L88.9794 109.266ZM89.7855 108.68L89.4185 107.75L89.4163 107.751L89.7855 108.68ZM92.6335 108.911L92.0405 109.716L92.0428 109.718L92.6335 108.911ZM93.3295 110.101L93.2681 109.103L91.8832 109.188L91.9446 110.186L92.006 111.184L93.391 111.099L93.3295 110.101ZM91.9446 110.186L92.9252 109.99C92.8686 109.707 92.7445 109.45 92.5633 109.23L91.7919 109.866L91.0205 110.503C91.0098 110.49 90.9974 110.472 90.9864 110.449C90.9753 110.425 90.9681 110.402 90.964 110.382L91.9446 110.186ZM91.7919 109.866L92.5709 109.239C92.3814 109.004 92.1442 108.835 91.8891 108.722L91.483 109.636L91.0768 110.549C91.0785 110.55 91.0708 110.547 91.0575 110.537C91.044 110.527 91.0281 110.512 91.0129 110.493L91.7919 109.866ZM91.483 109.636L91.9096 108.731C91.6204 108.595 91.3171 108.547 91.032 108.547V109.547V110.547C91.0637 110.547 91.0797 110.55 91.083 110.55C91.0857 110.551 91.0753 110.549 91.0563 110.54L91.483 109.636ZM91.032 109.547V108.547C90.6561 108.547 90.2661 108.627 89.9134 108.845L90.4389 109.696L90.9644 110.547C90.9512 110.555 90.9447 110.556 90.9518 110.554C90.9601 110.552 90.985 110.547 91.032 110.547V109.547ZM90.4389 109.696L89.9226 108.84C89.5151 109.085 89.1974 109.514 89.1974 110.087H90.1974H91.1974C91.1974 110.178 91.1724 110.289 91.1084 110.392C91.0482 110.49 90.9803 110.537 90.9553 110.552L90.4389 109.696ZM90.1974 110.087H89.1974C89.1974 110.526 89.3902 110.906 89.7001 111.174L90.3537 110.417L91.0073 109.66C91.047 109.694 91.0996 109.753 91.1404 109.839C91.182 109.927 91.1974 110.014 91.1974 110.087H90.1974ZM90.3537 110.417L89.7001 111.174C90.0001 111.433 90.3835 111.548 90.6798 111.611L90.8899 110.634L91.1001 109.656C91.0118 109.637 90.962 109.62 90.9404 109.611C90.9306 109.607 90.9326 109.607 90.9431 109.613C90.9534 109.619 90.977 109.634 91.0073 109.66L90.3537 110.417ZM90.8899 110.634L90.6924 111.614L91.6797 111.813L91.8771 110.832L92.0746 109.852L91.0874 109.653L90.8899 110.634ZM91.8771 110.832L91.676 111.812C92.1139 111.902 92.3097 112.023 92.3833 112.091L93.0632 111.358L93.7432 110.625C93.2959 110.21 92.7009 109.981 92.0783 109.853L91.8771 110.832ZM93.0632 111.358L92.3833 112.091C92.4167 112.122 92.4538 112.162 92.4538 112.31H93.4538H94.4538C94.4538 111.671 94.2306 111.077 93.7431 110.625L93.0632 111.358ZM93.4538 112.31H92.4538C92.4538 112.455 92.4167 112.549 92.3496 112.635L93.1378 113.251L93.926 113.866C94.2803 113.412 94.4538 112.88 94.4538 112.31H93.4538ZM93.1378 113.251L92.3462 112.64C92.2601 112.751 92.1241 112.864 91.8946 112.959L92.2784 113.883L92.6622 114.806C93.1619 114.599 93.5988 114.29 93.9294 113.862L93.1378 113.251ZM92.2784 113.883L91.8977 112.958C91.6786 113.048 91.3943 113.107 91.0249 113.107V114.107V115.107C91.6024 115.107 92.1538 115.016 92.6592 114.807L92.2784 113.883ZM91.0249 114.107V113.107C90.4324 113.107 90.0806 112.982 89.8734 112.837L89.299 113.656L88.7246 114.474C89.3744 114.93 90.1732 115.107 91.0249 115.107V114.107ZM89.299 113.656L89.8785 112.841C89.6777 112.698 89.5753 112.531 89.5399 112.28L88.5497 112.42L87.5595 112.559C87.671 113.35 88.068 114.007 88.7195 114.47L89.299 113.656ZM88.5497 112.42L88.6021 113.418L90.0901 113.34L90.0376 112.342L89.9852 111.343L88.4973 111.421L88.5497 112.42ZM90.0376 112.342L89.0579 112.542C89.1508 112.997 89.3977 113.401 89.807 113.676L90.3643 112.846L90.9217 112.016C90.9432 112.03 90.9703 112.055 90.9923 112.089C91.0135 112.122 91.0179 112.144 91.0174 112.141L90.0376 112.342ZM90.3643 112.846L89.8149 113.681C90.1939 113.931 90.622 114.016 91.0284 114.016V113.016V112.016C90.8951 112.016 90.8805 111.988 90.9138 112.01L90.3643 112.846ZM91.0284 113.016V114.016C91.4116 114.016 91.8301 113.944 92.2021 113.709L91.6676 112.864L91.1332 112.018C91.1585 112.002 91.17 112.002 91.1547 112.006C91.1382 112.009 91.0985 112.016 91.0284 112.016V113.016ZM91.6676 112.864L92.2053 113.707C92.5913 113.461 92.9079 113.043 92.9161 112.477L91.9162 112.462L90.9163 112.448C90.9176 112.356 90.9445 112.252 91.0022 112.159C91.0559 112.072 91.1137 112.031 91.1299 112.02L91.6676 112.864ZM91.9162 112.462L92.916 112.445C92.9082 111.988 92.6947 111.597 92.3527 111.333L91.7422 112.125L91.1317 112.917C91.088 112.883 91.0288 112.824 90.9822 112.733C90.9349 112.642 90.9176 112.551 90.9163 112.48L91.9162 112.462ZM91.7422 112.125L92.3629 111.341C92.0688 111.108 91.7138 110.999 91.4127 110.938L91.2166 111.919L91.0205 112.9C91.0965 112.915 91.1406 112.929 91.1607 112.937C91.1821 112.945 91.1613 112.941 91.1215 112.909L91.7422 112.125ZM91.2166 111.919L91.412 110.938L90.4674 110.75L90.272 111.731L90.0766 112.712L91.0212 112.9L91.2166 111.919ZM90.272 111.731L90.4681 110.75C90.044 110.665 89.8617 110.543 89.7927 110.473L89.0824 111.177L88.3721 111.881C88.8239 112.337 89.4347 112.583 90.0759 112.711L90.272 111.731ZM89.0824 111.177L89.7959 110.476C89.7416 110.421 89.6953 110.347 89.6953 110.172H88.6953H87.6953C87.6953 110.811 87.907 111.407 88.3689 111.877L89.0824 111.177ZM88.6953 110.172H89.6953C89.6953 110.013 89.7341 109.927 89.7803 109.865L88.9794 109.266L88.1785 108.668C87.8459 109.112 87.6953 109.63 87.6953 110.172H88.6953ZM88.9794 109.266L89.7767 109.87C89.8406 109.786 89.9495 109.691 90.1547 109.61L89.7855 108.68L89.4163 107.751C88.9302 107.944 88.5017 108.241 88.1821 108.663L88.9794 109.266ZM89.7855 108.68L90.1525 109.611C90.3588 109.529 90.6365 109.474 91.0071 109.474V108.474V107.474C90.445 107.474 89.9083 107.557 89.4185 107.75L89.7855 108.68ZM91.0071 108.474V109.474C91.5663 109.474 91.8739 109.594 92.0405 109.716L92.6335 108.911L93.2266 108.106C92.6024 107.646 91.8257 107.474 91.0071 107.474V108.474ZM92.6335 108.911L92.0428 109.718C92.2137 109.843 92.3065 109.992 92.3382 110.232L93.3295 110.101L94.3209 109.97C94.22 109.206 93.8488 108.562 93.2243 108.104L92.6335 108.911ZM95.4434 113.766L94.9478 114.634L94.9538 114.638L95.4434 113.766ZM94.513 112.793L93.6246 113.252L93.6257 113.254L94.513 112.793ZM94.513 109.82L93.6236 109.363L94.513 109.82ZM95.4327 108.83L94.9212 107.97L94.919 107.972L95.4327 108.83ZM97.8368 108.648L97.4865 109.585L97.4951 109.588L97.8368 108.648ZM98.6536 109.163L97.9501 109.874L97.9537 109.878L98.6536 109.163ZM99.2005 110.03L98.2639 110.38L98.2647 110.382L99.2005 110.03ZM99.3958 111.66V112.66H100.396V111.66H99.3958ZM94.7899 111.66H93.7899V112.66H94.7899V111.66ZM94.7899 110.722V109.722H93.7899V110.722H94.7899ZM97.9718 110.722V111.722H98.9718V110.722H97.9718ZM97.8297 110.143L96.9585 110.634V110.634L97.8297 110.143ZM97.4355 109.749L96.9301 110.612L96.9374 110.616L96.9447 110.621L97.4355 109.749ZM96.2459 109.763L96.757 110.623L96.7604 110.621L96.2459 109.763ZM95.834 110.186L96.7037 110.68L96.7065 110.675L95.834 110.186ZM95.6813 110.772L94.6813 110.761V110.772H95.6813ZM95.8304 112.363L94.9381 112.814L94.9425 112.823L95.8304 112.363ZM97.3787 112.906L97.0577 111.959L97.3787 112.906ZM97.7374 112.693L97.0477 111.969L97.0477 111.969L97.7374 112.693ZM97.9647 112.345L98.0305 111.347L97.2921 111.299L97.0297 111.991L97.9647 112.345ZM99.3638 112.438L100.342 112.644L100.581 111.516L99.4297 111.44L99.3638 112.438ZM98.927 113.318L98.1753 112.659L98.1749 112.659L98.927 113.318ZM98.0819 113.901L98.4532 114.829L98.4565 114.828L98.0819 113.901ZM96.8922 114.107V113.107C96.467 113.107 96.16 113.021 95.9329 112.894L95.4434 113.766L94.9538 114.638C95.5364 114.965 96.1953 115.107 96.8922 115.107V114.107ZM95.4434 113.766L95.9389 112.897C95.7069 112.765 95.5312 112.583 95.4003 112.331L94.513 112.793L93.6257 113.254C93.9303 113.84 94.3749 114.307 94.9478 114.634L95.4434 113.766ZM94.513 112.793L95.4013 112.333C95.2709 112.081 95.1863 111.747 95.1863 111.298H94.1863H93.1863C93.1863 111.999 93.3194 112.661 93.6246 113.252L94.513 112.793ZM94.1863 111.298H95.1863C95.1863 110.867 95.2691 110.537 95.4024 110.277L94.513 109.82L93.6236 109.363C93.3212 109.951 93.1863 110.606 93.1863 111.298H94.1863ZM94.513 109.82L95.4024 110.277C95.5379 110.014 95.7169 109.825 95.9464 109.687L95.4327 108.83L94.919 107.972C94.3578 108.308 93.9237 108.779 93.6236 109.363L94.513 109.82ZM95.4327 108.83L95.9442 109.689C96.1644 109.558 96.4484 109.474 96.8319 109.474V108.474V107.474C96.1453 107.474 95.4965 107.628 94.9212 107.97L95.4327 108.83ZM96.8319 108.474V109.474C97.0825 109.474 97.2977 109.514 97.4865 109.585L97.8368 108.648L98.1872 107.712C97.7556 107.55 97.3009 107.474 96.8319 107.474V108.474ZM97.8368 108.648L97.4951 109.588C97.6745 109.653 97.8227 109.748 97.9501 109.874L98.6536 109.163L99.3571 108.453C99.0205 108.119 98.6242 107.871 98.1786 107.709L97.8368 108.648ZM98.6536 109.163L97.9537 109.878C98.0705 109.992 98.1782 110.151 98.2639 110.38L99.2005 110.03L100.137 109.679C99.9623 109.212 99.7055 108.794 99.3534 108.449L98.6536 109.163ZM99.2005 110.03L98.2647 110.382C98.3431 110.591 98.3958 110.871 98.3958 111.244H99.3958H100.396C100.396 110.69 100.318 110.16 100.136 109.677L99.2005 110.03ZM99.3958 111.244H98.3958V111.66H99.3958H100.396V111.244H99.3958ZM99.3958 111.66V110.66H94.7899V111.66V112.66H99.3958V111.66ZM94.7899 111.66H95.7899V110.722H94.7899H93.7899V111.66H94.7899ZM94.7899 110.722V111.722H97.9718V110.722V109.722H94.7899V110.722ZM97.9718 110.722H98.9718C98.9718 110.355 98.8905 109.989 98.701 109.653L97.8297 110.143L96.9585 110.634C96.9599 110.637 96.9624 110.642 96.9651 110.653C96.9679 110.664 96.9718 110.686 96.9718 110.722H97.9718ZM97.8297 110.143L98.701 109.653C98.5166 109.325 98.2536 109.062 97.9264 108.878L97.4355 109.749L96.9447 110.621C96.949 110.623 96.9513 110.625 96.9522 110.625C96.9531 110.626 96.9532 110.626 96.953 110.626C96.9529 110.626 96.9531 110.626 96.9537 110.627C96.9544 110.628 96.9561 110.63 96.9585 110.634L97.8297 110.143ZM97.4355 109.749L97.941 108.886C97.6006 108.687 97.2281 108.604 96.8567 108.604V109.604V110.604C96.8932 110.604 96.9139 110.608 96.9226 110.61C96.9306 110.612 96.9318 110.613 96.9301 110.612L97.4355 109.749ZM96.8567 109.604V108.604C96.4661 108.604 96.0809 108.696 95.7314 108.906L96.2459 109.763L96.7604 110.621C96.766 110.618 96.788 110.604 96.8567 110.604V109.604ZM96.2459 109.763L95.7348 108.904C95.4089 109.098 95.1469 109.366 94.9615 109.697L95.834 110.186L96.7065 110.675C96.72 110.651 96.7325 110.638 96.757 110.623L96.2459 109.763ZM95.834 110.186L94.9643 109.692C94.7755 110.025 94.6854 110.388 94.6813 110.761L95.6813 110.772L96.6812 110.783C96.6819 110.725 96.6936 110.697 96.7037 110.68L95.834 110.186ZM95.6813 110.772H94.6813V111.663H95.6813H96.6813V110.772H95.6813ZM95.6813 111.663H94.6813C94.6813 112.055 94.7537 112.45 94.9382 112.814L95.8304 112.363L96.7227 111.911C96.7083 111.883 96.6813 111.811 96.6813 111.663H95.6813ZM95.8304 112.363L94.9425 112.823C95.1287 113.182 95.4037 113.478 95.7604 113.684L96.2601 112.817L96.7598 111.951C96.7473 111.944 96.7358 111.937 96.7183 111.903L95.8304 112.363ZM96.2601 112.817L95.7604 113.684C96.1234 113.893 96.5215 113.977 96.9171 113.977V112.977V111.977C96.806 111.977 96.7662 111.955 96.7598 111.951L96.2601 112.817ZM96.9171 112.977V113.977C97.1793 113.977 97.4434 113.94 97.6998 113.853L97.3787 112.906L97.0577 111.959C97.0347 111.967 96.991 111.977 96.9171 111.977V112.977ZM97.3787 112.906L97.6998 113.853C97.9667 113.763 98.2147 113.62 98.427 113.417L97.7374 112.693L97.0477 111.969C97.0531 111.964 97.0585 111.96 97.0624 111.958C97.0662 111.956 97.0654 111.957 97.0577 111.959L97.3787 112.906ZM97.7374 112.693L98.427 113.417C98.6423 113.212 98.7983 112.967 98.8997 112.7L97.9647 112.345L97.0297 111.991C97.0277 111.996 97.0277 111.994 97.0315 111.988C97.0354 111.982 97.0411 111.975 97.0477 111.969L97.7374 112.693ZM97.9647 112.345L97.8988 113.343L99.298 113.435L99.3638 112.438L99.4297 111.44L98.0305 111.347L97.9647 112.345ZM99.3638 112.438L98.3854 112.231C98.3488 112.404 98.2789 112.541 98.1753 112.659L98.927 113.318L99.6787 113.978C100.015 113.594 100.237 113.143 100.342 112.644L99.3638 112.438ZM98.927 113.318L98.1749 112.659C98.0727 112.776 97.9265 112.885 97.7072 112.973L98.0819 113.901L98.4565 114.828C98.9285 114.637 99.3457 114.358 99.6792 113.977L98.927 113.318ZM98.0819 113.901L97.7105 112.972C97.5079 113.053 97.2416 113.107 96.8922 113.107V114.107V115.107C97.4425 115.107 97.9693 115.023 98.4532 114.829L98.0819 113.901Z" fill="#C50000" mask="url(#path-5-outside-1_170_206)"/>
<circle opacity="0.01" cx="255" cy="130" r="1" fill="#D9D9D9"/>
<path d="M255 130L280 105H230L255 130Z" fill="white"/>
<path d="M255 125L275 105H235L255 125Z" fill="white"/>
<path d="M255 125L275 105H235L255 125Z" fill="#F0B43B"/>
<path d="M255 121L271 105H239L255 121Z" fill="#F0B43B"/>
<path d="M266 65H244V105H266V65Z" fill="#F0B43B"/>
<mask id="path-11-outside-2_170_206" maskUnits="userSpaceOnUse" x="244" y="107" width="22" height="10" fill="black">
<rect fill="white" x="244" y="107" width="22" height="10"/>
<path d="M248.505 109.545V110.682H245.22V109.545H248.505ZM245.966 108.239H247.479V113.324C247.479 113.464 247.5 113.572 247.543 113.651C247.585 113.726 247.644 113.78 247.72 113.81C247.798 113.841 247.888 113.857 247.99 113.857C248.061 113.857 248.132 113.851 248.203 113.839C248.274 113.825 248.329 113.814 248.366 113.807L248.604 114.933C248.529 114.956 248.422 114.983 248.285 115.014C248.147 115.047 247.981 115.067 247.784 115.075C247.42 115.089 247.1 115.04 246.825 114.929C246.553 114.818 246.341 114.645 246.19 114.411C246.038 114.176 245.964 113.88 245.966 113.523V108.239ZM249.49 115V109.545H250.957V110.497H251.014C251.113 110.159 251.28 109.903 251.515 109.73C251.749 109.555 252.019 109.467 252.324 109.467C252.4 109.467 252.482 109.472 252.569 109.482C252.657 109.491 252.734 109.504 252.8 109.521V110.863C252.729 110.842 252.631 110.823 252.505 110.806C252.38 110.79 252.265 110.781 252.161 110.781C251.938 110.781 251.739 110.83 251.564 110.927C251.391 111.022 251.254 111.154 251.152 111.325C251.053 111.495 251.003 111.692 251.003 111.914V115H249.49ZM257.08 112.678V109.545H258.593V115H257.14V114.009H257.084C256.961 114.329 256.756 114.586 256.469 114.78C256.185 114.974 255.838 115.071 255.429 115.071C255.064 115.071 254.743 114.988 254.466 114.822C254.189 114.657 253.973 114.421 253.817 114.116C253.663 113.81 253.585 113.445 253.582 113.018V109.545H255.095V112.749C255.097 113.071 255.184 113.325 255.354 113.512C255.525 113.699 255.753 113.793 256.04 113.793C256.222 113.793 256.392 113.751 256.551 113.668C256.71 113.583 256.837 113.458 256.934 113.292C257.034 113.126 257.082 112.921 257.08 112.678ZM262.289 115.107C261.728 115.107 261.245 114.993 260.84 114.766C260.437 114.536 260.127 114.212 259.909 113.793C259.692 113.371 259.583 112.873 259.583 112.298C259.583 111.737 259.692 111.244 259.909 110.82C260.127 110.397 260.434 110.066 260.829 109.83C261.227 109.593 261.693 109.474 262.228 109.474C262.588 109.474 262.923 109.532 263.233 109.648C263.546 109.762 263.818 109.934 264.05 110.163C264.284 110.393 264.467 110.682 264.597 111.03C264.727 111.375 264.792 111.78 264.792 112.244V112.66H260.186V111.722H263.368C263.368 111.504 263.321 111.312 263.226 111.143C263.132 110.975 263 110.844 262.832 110.749C262.666 110.652 262.473 110.604 262.253 110.604C262.024 110.604 261.82 110.657 261.642 110.763C261.467 110.868 261.33 111.009 261.23 111.186C261.131 111.361 261.08 111.557 261.078 111.772V112.663C261.078 112.933 261.127 113.166 261.227 113.363C261.329 113.559 261.472 113.711 261.657 113.817C261.841 113.924 262.06 113.977 262.314 113.977C262.482 113.977 262.636 113.954 262.775 113.906C262.915 113.859 263.034 113.788 263.134 113.693C263.233 113.598 263.309 113.482 263.361 113.345L264.76 113.438C264.689 113.774 264.544 114.067 264.324 114.318C264.106 114.567 263.824 114.761 263.478 114.901C263.135 115.038 262.739 115.107 262.289 115.107Z"/>
</mask>
<path d="M248.505 109.545V110.682H245.22V109.545H248.505ZM245.966 108.239H247.479V113.324C247.479 113.464 247.5 113.572 247.543 113.651C247.585 113.726 247.644 113.78 247.72 113.81C247.798 113.841 247.888 113.857 247.99 113.857C248.061 113.857 248.132 113.851 248.203 113.839C248.274 113.825 248.329 113.814 248.366 113.807L248.604 114.933C248.529 114.956 248.422 114.983 248.285 115.014C248.147 115.047 247.981 115.067 247.784 115.075C247.42 115.089 247.1 115.04 246.825 114.929C246.553 114.818 246.341 114.645 246.19 114.411C246.038 114.176 245.964 113.88 245.966 113.523V108.239ZM249.49 115V109.545H250.957V110.497H251.014C251.113 110.159 251.28 109.903 251.515 109.73C251.749 109.555 252.019 109.467 252.324 109.467C252.4 109.467 252.482 109.472 252.569 109.482C252.657 109.491 252.734 109.504 252.8 109.521V110.863C252.729 110.842 252.631 110.823 252.505 110.806C252.38 110.79 252.265 110.781 252.161 110.781C251.938 110.781 251.739 110.83 251.564 110.927C251.391 111.022 251.254 111.154 251.152 111.325C251.053 111.495 251.003 111.692 251.003 111.914V115H249.49ZM257.08 112.678V109.545H258.593V115H257.14V114.009H257.084C256.961 114.329 256.756 114.586 256.469 114.78C256.185 114.974 255.838 115.071 255.429 115.071C255.064 115.071 254.743 114.988 254.466 114.822C254.189 114.657 253.973 114.421 253.817 114.116C253.663 113.81 253.585 113.445 253.582 113.018V109.545H255.095V112.749C255.097 113.071 255.184 113.325 255.354 113.512C255.525 113.699 255.753 113.793 256.04 113.793C256.222 113.793 256.392 113.751 256.551 113.668C256.71 113.583 256.837 113.458 256.934 113.292C257.034 113.126 257.082 112.921 257.08 112.678ZM262.289 115.107C261.728 115.107 261.245 114.993 260.84 114.766C260.437 114.536 260.127 114.212 259.909 113.793C259.692 113.371 259.583 112.873 259.583 112.298C259.583 111.737 259.692 111.244 259.909 110.82C260.127 110.397 260.434 110.066 260.829 109.83C261.227 109.593 261.693 109.474 262.228 109.474C262.588 109.474 262.923 109.532 263.233 109.648C263.546 109.762 263.818 109.934 264.05 110.163C264.284 110.393 264.467 110.682 264.597 111.03C264.727 111.375 264.792 111.78 264.792 112.244V112.66H260.186V111.722H263.368C263.368 111.504 263.321 111.312 263.226 111.143C263.132 110.975 263 110.844 262.832 110.749C262.666 110.652 262.473 110.604 262.253 110.604C262.024 110.604 261.82 110.657 261.642 110.763C261.467 110.868 261.33 111.009 261.23 111.186C261.131 111.361 261.08 111.557 261.078 111.772V112.663C261.078 112.933 261.127 113.166 261.227 113.363C261.329 113.559 261.472 113.711 261.657 113.817C261.841 113.924 262.06 113.977 262.314 113.977C262.482 113.977 262.636 113.954 262.775 113.906C262.915 113.859 263.034 113.788 263.134 113.693C263.233 113.598 263.309 113.482 263.361 113.345L264.76 113.438C264.689 113.774 264.544 114.067 264.324 114.318C264.106 114.567 263.824 114.761 263.478 114.901C263.135 115.038 262.739 115.107 262.289 115.107Z" fill="white"/>
<path d="M248.505 109.545H249.505V108.545H248.505V109.545ZM248.505 110.682V111.682H249.505V110.682H248.505ZM245.22 110.682H244.22V111.682H245.22V110.682ZM245.22 109.545V108.545H244.22V109.545H245.22ZM245.966 108.239V107.239H244.966V108.239H245.966ZM247.479 108.239H248.479V107.239H247.479V108.239ZM247.543 113.651L246.665 114.129L246.671 114.141L247.543 113.651ZM247.72 113.81L247.344 114.737L247.354 114.741L247.72 113.81ZM248.203 113.839L248.368 114.825L248.383 114.823L248.399 114.819L248.203 113.839ZM248.366 113.807L249.345 113.6L249.143 112.644L248.182 112.824L248.366 113.807ZM248.604 114.933L248.903 115.887L249.771 115.616L249.583 114.726L248.604 114.933ZM248.285 115.014L248.066 114.038L248.058 114.04L248.05 114.042L248.285 115.014ZM247.784 115.075L247.748 114.075L247.745 114.075L247.784 115.075ZM246.825 114.929L246.447 115.855L246.45 115.856L246.825 114.929ZM246.19 114.411L247.029 113.868L246.19 114.411ZM245.966 113.523L246.966 113.529V113.523H245.966ZM248.505 109.545H247.505V110.682H248.505H249.505V109.545H248.505ZM248.505 110.682V109.682H245.22V110.682V111.682H248.505V110.682ZM245.22 110.682H246.22V109.545H245.22H244.22V110.682H245.22ZM245.22 109.545V110.545H248.505V109.545V108.545H245.22V109.545ZM245.966 108.239V109.239H247.479V108.239V107.239H245.966V108.239ZM247.479 108.239H246.479V113.324H247.479H248.479V108.239H247.479ZM247.479 113.324H246.479C246.479 113.545 246.509 113.844 246.665 114.129L247.543 113.651L248.421 113.172C248.459 113.241 248.472 113.296 248.476 113.318C248.48 113.341 248.479 113.345 248.479 113.324H247.479ZM247.543 113.651L246.671 114.141C246.817 114.4 247.045 114.615 247.344 114.737L247.72 113.81L248.097 112.884C248.163 112.911 248.229 112.951 248.288 113.004C248.346 113.057 248.387 113.112 248.414 113.16L247.543 113.651ZM247.72 113.81L247.354 114.741C247.57 114.826 247.789 114.857 247.99 114.857V113.857V112.857C247.988 112.857 248.026 112.856 248.087 112.88L247.72 113.81ZM247.99 113.857V114.857C248.117 114.857 248.243 114.846 248.368 114.825L248.203 113.839L248.039 112.852C248.021 112.855 248.005 112.857 247.99 112.857V113.857ZM248.203 113.839L248.399 114.819C248.469 114.805 248.519 114.796 248.551 114.79L248.366 113.807L248.182 112.824C248.138 112.832 248.079 112.844 248.007 112.858L248.203 113.839ZM248.366 113.807L247.388 114.014L247.626 115.139L248.604 114.933L249.583 114.726L249.345 113.6L248.366 113.807ZM248.604 114.933L248.306 113.978C248.269 113.99 248.194 114.01 248.066 114.038L248.285 115.014L248.504 115.99C248.651 115.957 248.788 115.923 248.903 115.887L248.604 114.933ZM248.285 115.014L248.05 114.042C247.998 114.055 247.901 114.07 247.748 114.075L247.784 115.075L247.82 116.074C248.06 116.065 248.297 116.04 248.519 115.986L248.285 115.014ZM247.784 115.075L247.745 114.075C247.49 114.085 247.317 114.049 247.201 114.002L246.825 114.929L246.45 115.856C246.883 116.031 247.349 116.092 247.823 116.074L247.784 115.075ZM246.825 114.929L247.204 114.003C247.11 113.965 247.064 113.921 247.029 113.868L246.19 114.411L245.35 114.953C245.619 115.369 245.996 115.67 246.447 115.855L246.825 114.929ZM246.19 114.411L247.029 113.868C247.01 113.837 246.964 113.746 246.966 113.529L245.966 113.523L244.966 113.516C244.963 114.014 245.066 114.515 245.35 114.953L246.19 114.411ZM245.966 113.523H246.966V108.239H245.966H244.966V113.523H245.966ZM249.49 115H248.49V116H249.49V115ZM249.49 109.545V108.545H248.49V109.545H249.49ZM250.957 109.545H251.957V108.545H250.957V109.545ZM250.957 110.497H249.957V111.497H250.957V110.497ZM251.014 110.497V111.497H251.762L251.973 110.779L251.014 110.497ZM251.515 109.73L252.108 110.535L252.113 110.531L251.515 109.73ZM252.569 109.482L252.677 108.487L252.677 108.487L252.569 109.482ZM252.8 109.521H253.8V108.74L253.043 108.55L252.8 109.521ZM252.8 110.863L252.513 111.821L253.8 112.207V110.863H252.8ZM251.564 110.927L252.045 111.804L252.049 111.802L251.564 110.927ZM251.152 111.325L250.294 110.812L250.289 110.821L251.152 111.325ZM251.003 115V116H252.003V115H251.003ZM249.49 115H250.49V109.545H249.49H248.49V115H249.49ZM249.49 109.545V110.545H250.957V109.545V108.545H249.49V109.545ZM250.957 109.545H249.957V110.497H250.957H251.957V109.545H250.957ZM250.957 110.497V111.497H251.014V110.497V109.497H250.957V110.497ZM251.014 110.497L251.973 110.779C252.025 110.605 252.084 110.552 252.108 110.535L251.515 109.73L250.921 108.925C250.476 109.253 250.202 109.713 250.054 110.215L251.014 110.497ZM251.515 109.73L252.113 110.531C252.167 110.491 252.225 110.467 252.324 110.467V109.467V108.467C251.813 108.467 251.331 108.619 250.916 108.929L251.515 109.73ZM252.324 109.467V110.467C252.359 110.467 252.404 110.47 252.462 110.476L252.569 109.482L252.677 108.487C252.559 108.475 252.441 108.467 252.324 108.467V109.467ZM252.569 109.482L252.462 110.476C252.516 110.482 252.546 110.488 252.558 110.491L252.8 109.521L253.043 108.55C252.921 108.52 252.798 108.5 252.677 108.487L252.569 109.482ZM252.8 109.521H251.8V110.863H252.8H253.8V109.521H252.8ZM252.8 110.863L253.087 109.905C252.942 109.861 252.783 109.834 252.636 109.815L252.505 110.806L252.374 111.797C252.422 111.804 252.458 111.81 252.484 111.815C252.51 111.82 252.518 111.822 252.513 111.821L252.8 110.863ZM252.505 110.806L252.636 109.815C252.476 109.794 252.317 109.781 252.161 109.781V110.781V111.781C252.213 111.781 252.283 111.785 252.374 111.797L252.505 110.806ZM252.161 110.781V109.781C251.788 109.781 251.419 109.864 251.08 110.052L251.564 110.927L252.049 111.802C252.06 111.796 252.089 111.781 252.161 111.781V110.781ZM251.564 110.927L251.084 110.05C250.754 110.231 250.486 110.49 250.294 110.812L251.152 111.325L252.011 111.837C252.022 111.819 252.029 111.812 252.045 111.804L251.564 110.927ZM251.152 111.325L250.289 110.821C250.089 111.163 250.003 111.538 250.003 111.914H251.003H252.003C252.003 111.878 252.007 111.856 252.01 111.845C252.012 111.835 252.015 111.831 252.016 111.828L251.152 111.325ZM251.003 111.914H250.003V115H251.003H252.003V111.914H251.003ZM251.003 115V114H249.49V115V116H251.003V115ZM257.08 112.678H256.08L256.08 112.687L257.08 112.678ZM257.08 109.545V108.545H256.08V109.545H257.08ZM258.593 109.545H259.593V108.545H258.593V109.545ZM258.593 115V116H259.593V115H258.593ZM257.14 115H256.14V116H257.14V115ZM257.14 114.009H258.14V113.009H257.14V114.009ZM257.084 114.009V113.009H256.397L256.15 113.65L257.084 114.009ZM256.469 114.78L255.908 113.952L255.905 113.954L256.469 114.78ZM254.466 114.822L254.98 113.964L254.466 114.822ZM253.817 114.116L252.924 114.566L252.926 114.571L253.817 114.116ZM253.582 113.018H252.582L252.582 113.024L253.582 113.018ZM253.582 109.545V108.545H252.582V109.545H253.582ZM255.095 109.545H256.095V108.545H255.095V109.545ZM255.095 112.749H254.095L254.095 112.756L255.095 112.749ZM255.354 113.512L256.093 112.838L255.354 113.512ZM256.551 113.668L257.014 114.555L257.024 114.549L256.551 113.668ZM256.934 113.292L256.077 112.777L256.072 112.787L256.934 113.292ZM257.08 112.678H258.08V109.545H257.08H256.08V112.678H257.08ZM257.08 109.545V110.545H258.593V109.545V108.545H257.08V109.545ZM258.593 109.545H257.593V115H258.593H259.593V109.545H258.593ZM258.593 115V114H257.14V115V116H258.593V115ZM257.14 115H258.14V114.009H257.14H256.14V115H257.14ZM257.14 114.009V113.009H257.084V114.009V115.009H257.14V114.009ZM257.084 114.009L256.15 113.65C256.102 113.777 256.028 113.871 255.908 113.952L256.469 114.78L257.03 115.608C257.484 115.3 257.82 114.881 258.017 114.369L257.084 114.009ZM256.469 114.78L255.905 113.954C255.817 114.015 255.676 114.071 255.429 114.071V115.071V116.071C256.001 116.071 256.554 115.933 257.033 115.605L256.469 114.78ZM255.429 115.071V114.071C255.221 114.071 255.082 114.026 254.98 113.964L254.466 114.822L253.953 115.681C254.405 115.951 254.907 116.071 255.429 116.071V115.071ZM254.466 114.822L254.98 113.964C254.874 113.901 254.783 113.81 254.707 113.66L253.817 114.116L252.926 114.571C253.162 115.033 253.505 115.412 253.953 115.681L254.466 114.822ZM253.817 114.116L254.71 113.666C254.64 113.528 254.584 113.322 254.582 113.013L253.582 113.018L252.582 113.024C252.585 113.567 252.685 114.093 252.924 114.566L253.817 114.116ZM253.582 113.018H254.582V109.545H253.582H252.582V113.018H253.582ZM253.582 109.545V110.545H255.095V109.545V108.545H253.582V109.545ZM255.095 109.545H254.095V112.749H255.095H256.095V109.545H255.095ZM255.095 112.749L254.095 112.756C254.099 113.255 254.237 113.771 254.615 114.186L255.354 113.512L256.093 112.838C256.099 112.845 256.103 112.851 256.107 112.856C256.11 112.862 256.11 112.863 256.108 112.859C256.106 112.851 256.096 112.816 256.095 112.741L255.095 112.749ZM255.354 113.512L254.615 114.186C255.001 114.609 255.513 114.793 256.04 114.793V113.793V112.793C256.006 112.793 256.009 112.787 256.032 112.797C256.044 112.802 256.056 112.808 256.068 112.817C256.08 112.825 256.089 112.833 256.093 112.838L255.354 113.512ZM256.04 113.793V114.793C256.38 114.793 256.71 114.714 257.014 114.555L256.551 113.668L256.088 112.782C256.075 112.789 256.064 112.793 256.04 112.793V113.793ZM256.551 113.668L257.024 114.549C257.356 114.371 257.614 114.111 257.797 113.797L256.934 113.292L256.072 112.787C256.068 112.793 256.065 112.796 256.064 112.797C256.064 112.799 256.064 112.798 256.065 112.797C256.067 112.795 256.069 112.793 256.072 112.791C256.074 112.789 256.076 112.788 256.078 112.787L256.551 113.668ZM256.934 113.292L257.792 113.806C258.008 113.446 258.084 113.048 258.08 112.668L257.08 112.678L256.08 112.687C256.081 112.794 256.06 112.806 256.077 112.777L256.934 113.292ZM260.84 114.766L260.344 115.634L260.35 115.638L260.84 114.766ZM259.909 113.793L259.021 114.252L259.022 114.254L259.909 113.793ZM259.909 110.82L259.02 110.363L259.909 110.82ZM260.829 109.83L260.318 108.97L260.315 108.972L260.829 109.83ZM263.233 109.648L262.883 110.585L262.892 110.588L263.233 109.648ZM264.05 110.163L263.347 110.874L263.35 110.878L264.05 110.163ZM264.597 111.03L263.66 111.38L263.661 111.382L264.597 111.03ZM264.792 112.66V113.66H265.792V112.66H264.792ZM260.186 112.66H259.186V113.66H260.186V112.66ZM260.186 111.722V110.722H259.186V111.722H260.186ZM263.368 111.722V112.722H264.368V111.722H263.368ZM263.226 111.143L262.355 111.634V111.634L263.226 111.143ZM262.832 110.749L262.327 111.612L262.334 111.616L262.341 111.621L262.832 110.749ZM261.642 110.763L262.153 111.623L262.157 111.621L261.642 110.763ZM261.23 111.186L262.1 111.68L262.103 111.675L261.23 111.186ZM261.078 111.772L260.078 111.761V111.772H261.078ZM261.227 113.363L260.335 113.814L260.339 113.823L261.227 113.363ZM262.775 113.906L262.454 112.959L262.775 113.906ZM263.134 113.693L262.444 112.969L262.444 112.969L263.134 113.693ZM263.361 113.345L263.427 112.347L262.689 112.299L262.426 112.991L263.361 113.345ZM264.76 113.438L265.739 113.644L265.977 112.516L264.826 112.44L264.76 113.438ZM264.324 114.318L263.572 113.659L263.571 113.659L264.324 114.318ZM263.478 114.901L263.85 115.829L263.853 115.828L263.478 114.901ZM262.289 115.107V114.107C261.863 114.107 261.556 114.021 261.329 113.894L260.84 114.766L260.35 115.638C260.933 115.965 261.592 116.107 262.289 116.107V115.107ZM260.84 114.766L261.335 113.897C261.103 113.765 260.928 113.583 260.797 113.331L259.909 113.793L259.022 114.254C259.327 114.84 259.771 115.307 260.344 115.634L260.84 114.766ZM259.909 113.793L260.798 113.333C260.667 113.081 260.583 112.747 260.583 112.298H259.583H258.583C258.583 112.999 258.716 113.661 259.021 114.252L259.909 113.793ZM259.583 112.298H260.583C260.583 111.867 260.666 111.537 260.799 111.277L259.909 110.82L259.02 110.363C258.718 110.951 258.583 111.606 258.583 112.298H259.583ZM259.909 110.82L260.799 111.277C260.934 111.014 261.113 110.825 261.343 110.687L260.829 109.83L260.315 108.972C259.754 109.308 259.32 109.779 259.02 110.363L259.909 110.82ZM260.829 109.83L261.341 110.689C261.561 110.558 261.845 110.474 262.228 110.474V109.474V108.474C261.542 108.474 260.893 108.628 260.318 108.97L260.829 109.83ZM262.228 109.474V110.474C262.479 110.474 262.694 110.514 262.883 110.585L263.233 109.648L263.584 108.712C263.152 108.55 262.697 108.474 262.228 108.474V109.474ZM263.233 109.648L262.892 110.588C263.071 110.653 263.219 110.748 263.347 110.874L264.05 110.163L264.754 109.453C264.417 109.119 264.021 108.871 263.575 108.709L263.233 109.648ZM264.05 110.163L263.35 110.878C263.467 110.992 263.575 111.151 263.66 111.38L264.597 111.03L265.534 110.679C265.359 110.212 265.102 109.794 264.75 109.449L264.05 110.163ZM264.597 111.03L263.661 111.382C263.74 111.591 263.792 111.871 263.792 112.244H264.792H265.792C265.792 111.69 265.715 111.16 265.533 110.677L264.597 111.03ZM264.792 112.244H263.792V112.66H264.792H265.792V112.244H264.792ZM264.792 112.66V111.66H260.186V112.66V113.66H264.792V112.66ZM260.186 112.66H261.186V111.722H260.186H259.186V112.66H260.186ZM260.186 111.722V112.722H263.368V111.722V110.722H260.186V111.722ZM263.368 111.722H264.368C264.368 111.355 264.287 110.989 264.097 110.653L263.226 111.143L262.355 111.634C262.356 111.637 262.359 111.642 262.362 111.653C262.364 111.664 262.368 111.686 262.368 111.722H263.368ZM263.226 111.143L264.097 110.653C263.913 110.325 263.65 110.062 263.323 109.878L262.832 110.749L262.341 111.621C262.345 111.623 262.348 111.625 262.349 111.625C262.35 111.626 262.35 111.626 262.35 111.626C262.349 111.626 262.35 111.626 262.35 111.627C262.351 111.628 262.353 111.63 262.355 111.634L263.226 111.143ZM262.832 110.749L263.337 109.886C262.997 109.687 262.625 109.604 262.253 109.604V110.604V111.604C262.29 111.604 262.31 111.608 262.319 111.61C262.327 111.612 262.328 111.613 262.327 111.612L262.832 110.749ZM262.253 110.604V109.604C261.863 109.604 261.477 109.696 261.128 109.906L261.642 110.763L262.157 111.621C262.162 111.618 262.184 111.604 262.253 111.604V110.604ZM261.642 110.763L261.131 109.904C260.805 110.098 260.543 110.366 260.358 110.697L261.23 111.186L262.103 111.675C262.116 111.651 262.129 111.638 262.153 111.623L261.642 110.763ZM261.23 111.186L260.361 110.692C260.172 111.025 260.082 111.388 260.078 111.761L261.078 111.772L262.078 111.783C262.078 111.725 262.09 111.697 262.1 111.68L261.23 111.186ZM261.078 111.772H260.078V112.663H261.078H262.078V111.772H261.078ZM261.078 112.663H260.078C260.078 113.055 260.15 113.45 260.335 113.814L261.227 113.363L262.119 112.911C262.105 112.883 262.078 112.811 262.078 112.663H261.078ZM261.227 113.363L260.339 113.823C260.525 114.182 260.8 114.478 261.157 114.684L261.657 113.817L262.156 112.951C262.144 112.944 262.132 112.937 262.115 112.903L261.227 113.363ZM261.657 113.817L261.157 114.684C261.52 114.893 261.918 114.977 262.314 114.977V113.977V112.977C262.203 112.977 262.163 112.955 262.156 112.951L261.657 113.817ZM262.314 113.977V114.977C262.576 114.977 262.84 114.94 263.096 114.853L262.775 113.906L262.454 112.959C262.431 112.967 262.387 112.977 262.314 112.977V113.977ZM262.775 113.906L263.096 114.853C263.363 114.763 263.611 114.62 263.824 114.417L263.134 113.693L262.444 112.969C262.45 112.964 262.455 112.96 262.459 112.958C262.463 112.956 262.462 112.957 262.454 112.959L262.775 113.906ZM263.134 113.693L263.824 114.417C264.039 114.212 264.195 113.967 264.296 113.7L263.361 113.345L262.426 112.991C262.424 112.996 262.424 112.994 262.428 112.988C262.432 112.982 262.438 112.975 262.444 112.969L263.134 113.693ZM263.361 113.345L263.295 114.343L264.694 114.435L264.76 113.438L264.826 112.44L263.427 112.347L263.361 113.345ZM264.76 113.438L263.782 113.231C263.745 113.404 263.675 113.541 263.572 113.659L264.324 114.318L265.075 114.978C265.412 114.594 265.633 114.143 265.739 113.644L264.76 113.438ZM264.324 114.318L263.571 113.659C263.469 113.776 263.323 113.885 263.104 113.973L263.478 114.901L263.853 115.828C264.325 115.637 264.742 115.358 265.076 114.977L264.324 114.318ZM263.478 114.901L263.107 113.972C262.904 114.053 262.638 114.107 262.289 114.107V115.107V116.107C262.839 116.107 263.366 116.023 263.85 115.829L263.478 114.901Z" fill="#059A26" mask="url(#path-11-outside-2_170_206)"/>
<path d="M177 43V65H266V43L177 43Z" fill="#F0B43B"/>
<rect y="25" width="177" height="59" fill="#F0B43B"/>
<path d="M87 25H62V0L87 25Z" fill="#F0B43B"/>
<path d="M112 25H87L112 0V25Z" fill="#F0B43B"/>
<path d="M112 5L87 30L62 5V0L87 25L112 0V5Z" fill="white"/>
<circle opacity="0.01" cx="87" cy="25" r="1" fill="#D9D9D9"/>
<path d="M21.9055 61V52.8182H24.1747V61H21.9055ZM23.0455 51.7635C22.7081 51.7635 22.4187 51.6516 22.1772 51.4279C21.9393 51.2006 21.8203 50.929 21.8203 50.6129C21.8203 50.3004 21.9393 50.0323 22.1772 49.8086C22.4187 49.5813 22.7081 49.4677 23.0455 49.4677C23.3828 49.4677 23.6705 49.5813 23.9084 49.8086C24.1499 50.0323 24.2706 50.3004 24.2706 50.6129C24.2706 50.929 24.1499 51.2006 23.9084 51.4279C23.6705 51.6516 23.3828 51.7635 23.0455 51.7635ZM30.3923 52.8182V54.5227H25.3426V52.8182H30.3923ZM26.4985 61V52.2269C26.4985 51.6339 26.6139 51.142 26.8447 50.7514C27.0791 50.3608 27.3987 50.0678 27.8035 49.8725C28.2084 49.6772 28.6682 49.5795 29.1832 49.5795C29.5312 49.5795 29.849 49.6062 30.1366 49.6594C30.4278 49.7127 30.6444 49.7607 30.7865 49.8033L30.3817 51.5078C30.2929 51.4794 30.1828 51.4528 30.0514 51.4279C29.9236 51.4031 29.7922 51.3906 29.6572 51.3906C29.3234 51.3906 29.0908 51.4688 28.9594 51.625C28.828 51.7777 28.7623 51.9925 28.7623 52.2695V61H26.4985Z" fill="white"/>
<path d="M38 54L45 38V70L38 54Z" fill="white"/>
<path d="M154 54L147 70V38L154 54Z" fill="white"/>
<path d="M147 38H45V70H147V38Z" fill="white"/>
<path d="M40 54L47 40V68L40 54Z" fill="#A87C2D"/>
<path d="M152 54L145 68V40L152 54Z" fill="#A87C2D"/>
<path d="M145 40H47V68H145V40Z" fill="#A87C2D"/>
<circle opacity="0.01" cx="185" cy="359" r="1" fill="#D9D9D9"/>
<path d="M171 358L196 333H146L171 358Z" fill="white"/>
<path d="M171 353L191 333H151L171 353Z" fill="white"/>
<path d="M171 353L191 333H151L171 353Z" fill="#F0B43B"/>
<path d="M171 349L187 333H155L171 349Z" fill="#F0B43B"/>
<path d="M183.048 311H161.048V333H183.048V311Z" fill="#F0B43B"/>
<rect x="76" y="289" width="190" height="22" fill="#F0B43B"/>
<path d="M266 263H244V289H266V263Z" fill="#F0B43B"/>
<path d="M255 239H230V214L255 239Z" fill="#F0B43B"/>
<path d="M280 239H255L280 214V239Z" fill="#F0B43B"/>
<rect x="230" y="239" width="50" height="24" fill="#F0B43B"/>
<path d="M280 219L255 244L230 219V214L255 239L280 214V219Z" fill="white"/>
<circle opacity="0.01" cx="255" cy="239" r="1" fill="#D9D9D9"/>
<path d="M98 264H76V289H98V264Z" fill="#F0B43B"/>
<path d="M87 240H62V215L87 240Z" fill="#F0B43B"/>
<path d="M112 240H87L112 215V240Z" fill="#F0B43B"/>
<rect x="62" y="240" width="50" height="24" fill="#F0B43B"/>
<path d="M112 220L87 245L62 220V215L87 240L112 215V220Z" fill="white"/>
<circle opacity="0.01" cx="87" cy="240" r="1" fill="#D9D9D9"/>
<path d="M111.5 109.083H112V113.25H111.5V117.417H112V121.583H111.5V125.75H112V129.917H111.5V132.5H113.889V132H117.665V132.5H121.441V132H125.219V132.5H128.995V132H132.771V132.5H134.66C135.366 132.5 136.06 132.547 136.741 132.638L136.807 132.142C138.255 132.334 139.644 132.719 140.947 133.27L140.753 133.729C142.043 134.274 143.247 134.988 144.338 135.842L144.645 135.448C145.774 136.332 146.786 137.362 147.652 138.511L147.255 138.812C148.087 139.914 148.781 141.13 149.311 142.432L149.771 142.243C150.304 143.551 150.677 144.942 150.863 146.394V146.395L150.367 146.458C150.455 147.14 150.5 147.835 150.5 148.542V150.701H151V155.021H150.5V159.341H151V163.66H150.5V167.979H151V172.298H150.5V174.458C150.5 175.165 150.455 175.86 150.367 176.542L150.863 176.605C150.677 178.057 150.304 179.448 149.771 180.756L149.311 180.568C148.781 181.87 148.087 183.086 147.255 184.188L147.652 184.488C146.786 185.637 145.774 186.667 144.645 187.551L144.338 187.158C143.247 188.012 142.043 188.726 140.753 189.271L140.947 189.729C139.644 190.28 138.255 190.665 136.807 190.857L136.741 190.362C136.06 190.453 135.366 190.5 134.66 190.5H132.435V191H127.982V190.5H123.531V191H119.08V190.5H114.628V191H110.177V190.5H105.726V191H101.273V190.5H98.5479V192.833H99.0479V196.5H98.5479V200.167H99.0479V203.833H98.5479V207.5H99.0479V211.167H98.5479V213.5H100.667V213H103.905V213.5H107.143V213H110.381V213.5H110.793L110.084 214.209L110.438 214.562L107.312 217.688L106.959 217.334L103.834 220.459L104.188 220.812L101.062 223.938L100.709 223.584L97.584 226.709L97.9375 227.062L94.8125 230.188L94.459 229.834L91.334 232.959L91.6875 233.312L88.5625 236.438L88.209 236.084L87 237.293L85.791 236.084L85.4375 236.438L82.3125 233.312L82.666 232.959L79.541 229.834L79.1875 230.188L76.0625 227.062L76.416 226.709L73.291 223.584L72.9375 223.938L69.8125 220.812L70.166 220.459L67.041 217.334L66.6875 217.688L63.5625 214.562L63.916 214.209L63.207 213.5H63.8809V213H67.6426V213.5H71.4053V213H75.167V213.5H77.5479V211.167H77.0479V207.5H77.5479V203.833H77.0479V200.167H77.5479V196.5H77.0479V192.833H77.5479V190.5H75.1621V191H71.3916V190.5H67.6211V191H63.8506V190.5H60.0801V191H56.3086V190.5H52.5381V191H48.7676V190.5H44.9971V191H41.2266V190.5H39.3408C38.6352 190.5 37.9405 190.454 37.2598 190.363L37.1934 190.857C35.7447 190.665 34.3561 190.28 33.0527 189.729L33.248 189.271C31.9583 188.726 30.7541 188.013 29.6631 187.159L29.3545 187.551C28.2256 186.667 27.214 185.637 26.3477 184.489L26.7461 184.188C25.9138 183.085 25.2193 181.87 24.6895 180.568L24.2275 180.756C23.6951 179.448 23.3216 178.057 23.1357 176.605L23.6328 176.542C23.5673 176.03 23.5256 175.511 23.5088 174.985L23.5 174.458V172.299H23V167.979H23.5V163.659H23V159.34H23.5V155.021H23V150.702H23.5V148.542C23.5 147.835 23.5455 147.14 23.6328 146.458L23.1367 146.395L23.1357 146.394C23.3216 144.943 23.6951 143.551 24.2275 142.243L24.6895 142.432C25.2193 141.13 25.9138 139.915 26.7461 138.812L26.3477 138.51C27.214 137.362 28.2256 136.332 29.3545 135.448L29.6631 135.841C30.754 134.987 31.9575 134.274 33.2471 133.729L33.0527 133.27C34.3561 132.719 35.7448 132.334 37.1934 132.142L37.2598 132.637C37.9405 132.546 38.6352 132.5 39.3408 132.5H41.2295V132H45.0059V132.5H48.7822V132H52.5586V132.5H56.335V132H60.1113V132.5H62.5V129.917H62V125.75H62.5V121.583H62V117.417H62.5V113.25H62V109.083H62.5V108.207L63.209 108.916L63.5625 108.562L66.6875 111.688L66.334 112.041L69.459 115.166L69.8125 114.812L72.9375 117.938L72.584 118.291L75.709 121.416L76.0625 121.062L79.1875 124.188L78.834 124.541L81.959 127.666L82.3125 127.312L85.4375 130.438L85.084 130.791L87 132.707L88.916 130.791L88.5625 130.438L91.6875 127.312L92.041 127.666L95.166 124.541L94.8125 124.188L97.9375 121.062L98.291 121.416L101.416 118.291L101.062 117.938L104.188 114.812L104.541 115.166L107.666 112.041L107.312 111.688L110.438 108.562L110.791 108.916L111.5 108.207V109.083Z" stroke="white" stroke-dasharray="4 4"/>
<path d="M279.5 108.083H280V112.25H279.5V116.417H280V120.583H279.5V124.75H280V128.917H279.5V131.5H281.889V131H285.665V131.5H289.441V131H293.219V131.5H296.995V131H300.771V131.5H302.66C303.366 131.5 304.06 131.547 304.741 131.638L304.807 131.142C306.255 131.334 307.644 131.719 308.947 132.27L308.753 132.729C310.043 133.274 311.247 133.988 312.338 134.842L312.645 134.448C313.774 135.332 314.786 136.362 315.652 137.511L315.255 137.812C316.087 138.914 316.781 140.13 317.311 141.432L317.771 141.243C318.304 142.551 318.677 143.942 318.863 145.394V145.395L318.367 145.458C318.455 146.14 318.5 146.835 318.5 147.542V149.701H319V154.021H318.5V158.341H319V162.66H318.5V166.979H319V171.298H318.5V173.458C318.5 174.165 318.455 174.86 318.367 175.542L318.863 175.605C318.677 177.057 318.304 178.448 317.771 179.756L317.311 179.568C316.781 180.87 316.087 182.086 315.255 183.188L315.652 183.488C314.786 184.637 313.774 185.667 312.645 186.551L312.338 186.158C311.247 187.012 310.043 187.726 308.753 188.271L308.947 188.729C307.644 189.28 306.255 189.665 304.807 189.857L304.741 189.362C304.06 189.453 303.366 189.5 302.66 189.5H300.435V190H295.982V189.5H291.531V190H287.08V189.5H282.628V190H278.177V189.5H273.726V190H269.273V189.5H266.548V191.833H267.048V195.5H266.548V199.167H267.048V202.833H266.548V206.5H267.048V210.167H266.548V212.5H268.667V212H271.905V212.5H275.143V212H278.381V212.5H278.793L278.084 213.209L278.438 213.562L275.312 216.688L274.959 216.334L271.834 219.459L272.188 219.812L269.062 222.938L268.709 222.584L265.584 225.709L265.938 226.062L262.812 229.188L262.459 228.834L259.334 231.959L259.688 232.312L256.562 235.438L256.209 235.084L255 236.293L253.791 235.084L253.438 235.438L250.312 232.312L250.666 231.959L247.541 228.834L247.188 229.188L244.062 226.062L244.416 225.709L241.291 222.584L240.938 222.938L237.812 219.812L238.166 219.459L235.041 216.334L234.688 216.688L231.562 213.562L231.916 213.209L231.207 212.5H231.881V212H235.643V212.5H239.405V212H243.167V212.5H245.548V210.167H245.048V206.5H245.548V202.833H245.048V199.167H245.548V195.5H245.048V191.833H245.548V189.5H243.162V190H239.392V189.5H235.621V190H231.851V189.5H228.08V190H224.309V189.5H220.538V190H216.768V189.5H212.997V190H209.227V189.5H207.341C206.635 189.5 205.941 189.454 205.26 189.363L205.193 189.857C203.745 189.665 202.356 189.28 201.053 188.729L201.248 188.271C199.958 187.726 198.754 187.013 197.663 186.159L197.354 186.551C196.226 185.667 195.214 184.637 194.348 183.489L194.746 183.188C193.914 182.085 193.219 180.87 192.689 179.568L192.228 179.756C191.695 178.448 191.322 177.057 191.136 175.605L191.633 175.542C191.567 175.03 191.526 174.511 191.509 173.985L191.5 173.458V171.299H191V166.979H191.5V162.659H191V158.34H191.5V154.021H191V149.702H191.5V147.542C191.5 146.835 191.545 146.14 191.633 145.458L191.137 145.395L191.136 145.394C191.322 143.943 191.695 142.551 192.228 141.243L192.689 141.432C193.219 140.13 193.914 138.915 194.746 137.812L194.348 137.51C195.214 136.362 196.226 135.332 197.354 134.448L197.663 134.841C198.754 133.987 199.958 133.274 201.247 132.729L201.053 132.27C202.356 131.719 203.745 131.334 205.193 131.142L205.26 131.637C205.941 131.546 206.635 131.5 207.341 131.5H209.229V131H213.006V131.5H216.782V131H220.559V131.5H224.335V131H228.111V131.5H230.5V128.917H230V124.75H230.5V120.583H230V116.417H230.5V112.25H230V108.083H230.5V107.207L231.209 107.916L231.562 107.562L234.688 110.688L234.334 111.041L237.459 114.166L237.812 113.812L240.938 116.938L240.584 117.291L243.709 120.416L244.062 120.062L247.188 123.188L246.834 123.541L249.959 126.666L250.312 126.312L253.438 129.438L253.084 129.791L255 131.707L256.916 129.791L256.562 129.438L259.688 126.312L260.041 126.666L263.166 123.541L262.812 123.188L265.938 120.062L266.291 120.416L269.416 117.291L269.062 116.938L272.188 113.812L272.541 114.166L275.666 111.041L275.312 110.688L278.438 107.562L278.791 107.916L279.5 107.207V108.083Z" stroke="white" stroke-dasharray="4 4"/>
</svg>
