<svg width="423" height="155" viewBox="0 0 423 155" fill="none" xmlns="http://www.w3.org/2000/svg">
<path d="M125 93H103V120H125V93Z" fill="#F0B43B"/>
<path d="M113.548 154.5L139.096 120H88L113.548 154.5Z" fill="#F0B43B"/>
<mask id="path-3-outside-1_12_6" maskUnits="userSpaceOnUse" x="99" y="122" width="31" height="13" fill="black">
<rect fill="white" x="99" y="122" width="31" height="13"/>
<path d="M104.244 126.455V127.818H100.205V126.455H104.244ZM101.129 133V125.982C101.129 125.507 101.222 125.114 101.406 124.801C101.594 124.489 101.849 124.254 102.173 124.098C102.497 123.942 102.865 123.864 103.277 123.864C103.555 123.864 103.81 123.885 104.04 123.928C104.273 123.97 104.446 124.009 104.56 124.043L104.236 125.406C104.165 125.384 104.077 125.362 103.972 125.342C103.869 125.322 103.764 125.312 103.656 125.312C103.389 125.312 103.203 125.375 103.098 125.5C102.993 125.622 102.94 125.794 102.94 126.016V133H101.129ZM106.985 133.124C106.568 133.124 106.196 133.051 105.869 132.906C105.542 132.759 105.284 132.541 105.093 132.254C104.906 131.964 104.812 131.604 104.812 131.172C104.812 130.808 104.879 130.503 105.012 130.256C105.146 130.009 105.328 129.81 105.558 129.659C105.788 129.509 106.049 129.395 106.342 129.318C106.637 129.241 106.947 129.188 107.271 129.156C107.652 129.116 107.958 129.08 108.191 129.045C108.424 129.009 108.593 128.955 108.699 128.884C108.804 128.812 108.856 128.707 108.856 128.568V128.543C108.856 128.273 108.771 128.064 108.6 127.916C108.433 127.768 108.194 127.695 107.885 127.695C107.558 127.695 107.298 127.767 107.105 127.912C106.912 128.054 106.784 128.233 106.721 128.449L105.042 128.312C105.127 127.915 105.295 127.571 105.545 127.281C105.795 126.989 106.118 126.764 106.512 126.608C106.91 126.449 107.37 126.369 107.893 126.369C108.257 126.369 108.605 126.412 108.937 126.497C109.272 126.582 109.569 126.714 109.828 126.893C110.089 127.072 110.295 127.303 110.446 127.584C110.596 127.862 110.672 128.196 110.672 128.585V133H108.95V132.092H108.899C108.794 132.297 108.653 132.477 108.477 132.634C108.301 132.787 108.089 132.908 107.842 132.996C107.595 133.081 107.309 133.124 106.985 133.124ZM107.505 131.871C107.772 131.871 108.008 131.818 108.213 131.713C108.417 131.605 108.578 131.46 108.694 131.278C108.811 131.097 108.869 130.891 108.869 130.661V129.966C108.812 130.003 108.734 130.037 108.635 130.068C108.538 130.097 108.429 130.124 108.306 130.149C108.184 130.172 108.062 130.193 107.94 130.213C107.818 130.23 107.707 130.246 107.608 130.26C107.395 130.291 107.208 130.341 107.049 130.409C106.89 130.477 106.767 130.57 106.679 130.686C106.591 130.8 106.547 130.942 106.547 131.112C106.547 131.359 106.636 131.548 106.815 131.679C106.997 131.807 107.227 131.871 107.505 131.871ZM113.895 124.273V133H112.08V124.273H113.895ZM120.795 128.321L119.134 128.423C119.105 128.281 119.044 128.153 118.95 128.04C118.857 127.923 118.733 127.831 118.58 127.763C118.429 127.692 118.249 127.656 118.038 127.656C117.757 127.656 117.52 127.716 117.327 127.835C117.134 127.952 117.037 128.108 117.037 128.304C117.037 128.46 117.099 128.592 117.224 128.7C117.349 128.808 117.564 128.895 117.868 128.96L119.053 129.199C119.689 129.33 120.163 129.54 120.476 129.83C120.788 130.119 120.945 130.5 120.945 130.972C120.945 131.401 120.818 131.777 120.565 132.101C120.315 132.425 119.972 132.678 119.534 132.859C119.099 133.038 118.598 133.128 118.03 133.128C117.163 133.128 116.473 132.947 115.959 132.587C115.447 132.223 115.148 131.729 115.06 131.104L116.845 131.01C116.899 131.274 117.03 131.476 117.237 131.615C117.445 131.751 117.71 131.82 118.034 131.82C118.352 131.82 118.608 131.759 118.801 131.636C118.997 131.511 119.097 131.351 119.099 131.155C119.097 130.99 119.027 130.855 118.891 130.75C118.754 130.642 118.544 130.56 118.26 130.503L117.126 130.277C116.487 130.149 116.011 129.928 115.699 129.612C115.389 129.297 115.234 128.895 115.234 128.406C115.234 127.986 115.348 127.624 115.575 127.32C115.805 127.016 116.128 126.781 116.543 126.616C116.96 126.452 117.449 126.369 118.009 126.369C118.835 126.369 119.486 126.544 119.96 126.893C120.438 127.243 120.716 127.719 120.795 128.321ZM125.071 133.128C124.397 133.128 123.818 132.991 123.332 132.719C122.849 132.443 122.477 132.054 122.216 131.551C121.954 131.045 121.824 130.447 121.824 129.757C121.824 129.084 121.954 128.493 122.216 127.984C122.477 127.476 122.845 127.08 123.319 126.795C123.797 126.511 124.356 126.369 124.998 126.369C125.43 126.369 125.832 126.439 126.204 126.578C126.579 126.714 126.906 126.92 127.184 127.196C127.466 127.472 127.684 127.818 127.841 128.236C127.997 128.651 128.075 129.136 128.075 129.693V130.192H122.548V129.067H126.366C126.366 128.805 126.309 128.574 126.196 128.372C126.082 128.17 125.924 128.013 125.723 127.899C125.524 127.783 125.292 127.724 125.028 127.724C124.752 127.724 124.508 127.788 124.295 127.916C124.085 128.041 123.92 128.21 123.801 128.423C123.681 128.634 123.62 128.868 123.618 129.126V130.196C123.618 130.52 123.677 130.8 123.797 131.036C123.919 131.271 124.091 131.453 124.312 131.581C124.534 131.709 124.797 131.773 125.1 131.773C125.302 131.773 125.487 131.744 125.654 131.688C125.822 131.631 125.966 131.545 126.085 131.432C126.204 131.318 126.295 131.179 126.358 131.014L128.037 131.125C127.951 131.528 127.777 131.881 127.512 132.182C127.251 132.48 126.913 132.713 126.498 132.881C126.086 133.045 125.61 133.128 125.071 133.128Z"/>
</mask>
<path d="M104.244 126.455V127.818H100.205V126.455H104.244ZM101.129 133V125.982C101.129 125.507 101.222 125.114 101.406 124.801C101.594 124.489 101.849 124.254 102.173 124.098C102.497 123.942 102.865 123.864 103.277 123.864C103.555 123.864 103.81 123.885 104.04 123.928C104.273 123.97 104.446 124.009 104.56 124.043L104.236 125.406C104.165 125.384 104.077 125.362 103.972 125.342C103.869 125.322 103.764 125.312 103.656 125.312C103.389 125.312 103.203 125.375 103.098 125.5C102.993 125.622 102.94 125.794 102.94 126.016V133H101.129ZM106.985 133.124C106.568 133.124 106.196 133.051 105.869 132.906C105.542 132.759 105.284 132.541 105.093 132.254C104.906 131.964 104.812 131.604 104.812 131.172C104.812 130.808 104.879 130.503 105.012 130.256C105.146 130.009 105.328 129.81 105.558 129.659C105.788 129.509 106.049 129.395 106.342 129.318C106.637 129.241 106.947 129.188 107.271 129.156C107.652 129.116 107.958 129.08 108.191 129.045C108.424 129.009 108.593 128.955 108.699 128.884C108.804 128.812 108.856 128.707 108.856 128.568V128.543C108.856 128.273 108.771 128.064 108.6 127.916C108.433 127.768 108.194 127.695 107.885 127.695C107.558 127.695 107.298 127.767 107.105 127.912C106.912 128.054 106.784 128.233 106.721 128.449L105.042 128.312C105.127 127.915 105.295 127.571 105.545 127.281C105.795 126.989 106.118 126.764 106.512 126.608C106.91 126.449 107.37 126.369 107.893 126.369C108.257 126.369 108.605 126.412 108.937 126.497C109.272 126.582 109.569 126.714 109.828 126.893C110.089 127.072 110.295 127.303 110.446 127.584C110.596 127.862 110.672 128.196 110.672 128.585V133H108.95V132.092H108.899C108.794 132.297 108.653 132.477 108.477 132.634C108.301 132.787 108.089 132.908 107.842 132.996C107.595 133.081 107.309 133.124 106.985 133.124ZM107.505 131.871C107.772 131.871 108.008 131.818 108.213 131.713C108.417 131.605 108.578 131.46 108.694 131.278C108.811 131.097 108.869 130.891 108.869 130.661V129.966C108.812 130.003 108.734 130.037 108.635 130.068C108.538 130.097 108.429 130.124 108.306 130.149C108.184 130.172 108.062 130.193 107.94 130.213C107.818 130.23 107.707 130.246 107.608 130.26C107.395 130.291 107.208 130.341 107.049 130.409C106.89 130.477 106.767 130.57 106.679 130.686C106.591 130.8 106.547 130.942 106.547 131.112C106.547 131.359 106.636 131.548 106.815 131.679C106.997 131.807 107.227 131.871 107.505 131.871ZM113.895 124.273V133H112.08V124.273H113.895ZM120.795 128.321L119.134 128.423C119.105 128.281 119.044 128.153 118.95 128.04C118.857 127.923 118.733 127.831 118.58 127.763C118.429 127.692 118.249 127.656 118.038 127.656C117.757 127.656 117.52 127.716 117.327 127.835C117.134 127.952 117.037 128.108 117.037 128.304C117.037 128.46 117.099 128.592 117.224 128.7C117.349 128.808 117.564 128.895 117.868 128.96L119.053 129.199C119.689 129.33 120.163 129.54 120.476 129.83C120.788 130.119 120.945 130.5 120.945 130.972C120.945 131.401 120.818 131.777 120.565 132.101C120.315 132.425 119.972 132.678 119.534 132.859C119.099 133.038 118.598 133.128 118.03 133.128C117.163 133.128 116.473 132.947 115.959 132.587C115.447 132.223 115.148 131.729 115.06 131.104L116.845 131.01C116.899 131.274 117.03 131.476 117.237 131.615C117.445 131.751 117.71 131.82 118.034 131.82C118.352 131.82 118.608 131.759 118.801 131.636C118.997 131.511 119.097 131.351 119.099 131.155C119.097 130.99 119.027 130.855 118.891 130.75C118.754 130.642 118.544 130.56 118.26 130.503L117.126 130.277C116.487 130.149 116.011 129.928 115.699 129.612C115.389 129.297 115.234 128.895 115.234 128.406C115.234 127.986 115.348 127.624 115.575 127.32C115.805 127.016 116.128 126.781 116.543 126.616C116.96 126.452 117.449 126.369 118.009 126.369C118.835 126.369 119.486 126.544 119.96 126.893C120.438 127.243 120.716 127.719 120.795 128.321ZM125.071 133.128C124.397 133.128 123.818 132.991 123.332 132.719C122.849 132.443 122.477 132.054 122.216 131.551C121.954 131.045 121.824 130.447 121.824 129.757C121.824 129.084 121.954 128.493 122.216 127.984C122.477 127.476 122.845 127.08 123.319 126.795C123.797 126.511 124.356 126.369 124.998 126.369C125.43 126.369 125.832 126.439 126.204 126.578C126.579 126.714 126.906 126.92 127.184 127.196C127.466 127.472 127.684 127.818 127.841 128.236C127.997 128.651 128.075 129.136 128.075 129.693V130.192H122.548V129.067H126.366C126.366 128.805 126.309 128.574 126.196 128.372C126.082 128.17 125.924 128.013 125.723 127.899C125.524 127.783 125.292 127.724 125.028 127.724C124.752 127.724 124.508 127.788 124.295 127.916C124.085 128.041 123.92 128.21 123.801 128.423C123.681 128.634 123.62 128.868 123.618 129.126V130.196C123.618 130.52 123.677 130.8 123.797 131.036C123.919 131.271 124.091 131.453 124.312 131.581C124.534 131.709 124.797 131.773 125.1 131.773C125.302 131.773 125.487 131.744 125.654 131.688C125.822 131.631 125.966 131.545 126.085 131.432C126.204 131.318 126.295 131.179 126.358 131.014L128.037 131.125C127.951 131.528 127.777 131.881 127.512 132.182C127.251 132.48 126.913 132.713 126.498 132.881C126.086 133.045 125.61 133.128 125.071 133.128Z" fill="white"/>
<path d="M104.244 126.455H105.244V125.455H104.244V126.455ZM104.244 127.818V128.818H105.244V127.818H104.244ZM100.205 127.818H99.2045V128.818H100.205V127.818ZM100.205 126.455V125.455H99.2045V126.455H100.205ZM101.129 133H100.129V134H101.129V133ZM101.406 124.801L100.549 124.287L100.545 124.292L101.406 124.801ZM102.173 124.098L101.739 123.197H101.739L102.173 124.098ZM104.04 123.928L103.858 124.911L103.86 124.911L104.04 123.928ZM104.56 124.043L105.533 124.274L105.751 123.356L104.847 123.085L104.56 124.043ZM104.236 125.406L103.931 126.359L104.959 126.688L105.209 125.637L104.236 125.406ZM103.972 125.342L103.781 126.324L103.786 126.325L103.972 125.342ZM103.098 125.5L103.856 126.152L103.863 126.144L103.098 125.5ZM102.94 133V134H103.94V133H102.94ZM104.244 126.455H103.244V127.818H104.244H105.244V126.455H104.244ZM104.244 127.818V126.818H100.205V127.818V128.818H104.244V127.818ZM100.205 127.818H101.205V126.455H100.205H99.2045V127.818H100.205ZM100.205 126.455V127.455H104.244V126.455V125.455H100.205V126.455ZM101.129 133H102.129V125.982H101.129H100.129V133H101.129ZM101.129 125.982H102.129C102.129 125.632 102.197 125.428 102.267 125.31L101.406 124.801L100.545 124.292C100.246 124.799 100.129 125.382 100.129 125.982H101.129ZM101.406 124.801L102.264 125.316C102.352 125.168 102.462 125.069 102.608 124.999L102.173 124.098L101.739 123.197C101.237 123.44 100.835 123.809 100.549 124.287L101.406 124.801ZM102.173 124.098L102.608 124.999C102.778 124.917 102.994 124.864 103.277 124.864V123.864V122.864C102.737 122.864 102.217 122.967 101.739 123.197L102.173 124.098ZM103.277 123.864V124.864C103.505 124.864 103.698 124.881 103.858 124.911L104.04 123.928L104.222 122.944C103.922 122.889 103.605 122.864 103.277 122.864V123.864ZM104.04 123.928L103.86 124.911C104.085 124.952 104.214 124.983 104.272 125L104.56 124.043L104.847 123.085C104.678 123.034 104.461 122.988 104.22 122.944L104.04 123.928ZM104.56 124.043L103.587 123.812L103.263 125.175L104.236 125.406L105.209 125.637L105.533 124.274L104.56 124.043ZM104.236 125.406L104.541 124.454C104.418 124.415 104.287 124.384 104.157 124.36L103.972 125.342L103.786 126.325C103.866 126.34 103.912 126.352 103.931 126.359L104.236 125.406ZM103.972 125.342L104.162 124.361C103.995 124.328 103.826 124.312 103.656 124.312V125.312V126.312C103.702 126.312 103.744 126.317 103.781 126.324L103.972 125.342ZM103.656 125.312V124.312C103.278 124.312 102.721 124.395 102.333 124.856L103.098 125.5L103.863 126.144C103.776 126.248 103.681 126.292 103.635 126.307C103.596 126.32 103.595 126.312 103.656 126.312V125.312ZM103.098 125.5L102.34 124.848C102.029 125.209 101.94 125.644 101.94 126.016H102.94H103.94C103.94 125.982 103.945 125.985 103.936 126.013C103.927 126.044 103.904 126.097 103.856 126.152L103.098 125.5ZM102.94 126.016H101.94V133H102.94H103.94V126.016H102.94ZM102.94 133V132H101.129V133V134H102.94V133ZM105.869 132.906L105.457 133.817L105.464 133.82L105.869 132.906ZM105.093 132.254L104.254 132.798L104.26 132.807L105.093 132.254ZM105.012 130.256L104.133 129.78L105.012 130.256ZM105.558 129.659L105.01 128.822H105.01L105.558 129.659ZM106.342 129.318L106.091 128.35L106.088 128.351L106.342 129.318ZM107.271 129.156L107.367 130.152L107.375 130.151L107.271 129.156ZM108.191 129.045L108.336 130.035L108.348 130.033L108.191 129.045ZM108.699 128.884L108.139 128.055L108.139 128.055L108.699 128.884ZM108.6 127.916L107.939 128.666L107.946 128.672L108.6 127.916ZM107.105 127.912L107.697 128.718L107.705 128.712L107.105 127.912ZM106.721 128.449L106.64 129.446L107.455 129.512L107.682 128.727L106.721 128.449ZM105.042 128.312L104.064 128.103L103.826 129.217L104.961 129.309L105.042 128.312ZM105.545 127.281L106.302 127.934L106.305 127.931L105.545 127.281ZM106.512 126.608L106.88 127.538L106.884 127.536L106.512 126.608ZM108.937 126.497L108.689 127.466L108.691 127.466L108.937 126.497ZM109.828 126.893L109.259 127.716L109.263 127.719L109.828 126.893ZM110.446 127.584L109.564 128.056L109.566 128.06L110.446 127.584ZM110.672 133V134H111.672V133H110.672ZM108.95 133H107.95V134H108.95V133ZM108.95 132.092H109.95V131.092H108.95V132.092ZM108.899 132.092V131.092H108.288L108.009 131.635L108.899 132.092ZM108.477 132.634L109.134 133.388L109.141 133.382L108.477 132.634ZM107.842 132.996L108.168 133.941L108.178 133.938L107.842 132.996ZM108.213 131.713L108.67 132.603L108.679 132.597L108.213 131.713ZM108.694 131.278L107.852 130.739L107.852 130.739L108.694 131.278ZM108.869 129.966H109.869V128.123L108.324 129.127L108.869 129.966ZM108.635 130.068L108.917 131.028L108.926 131.025L108.934 131.022L108.635 130.068ZM108.306 130.149L108.489 131.132L108.5 131.13L108.511 131.128L108.306 130.149ZM107.94 130.213L108.078 131.203L108.089 131.202L108.101 131.2L107.94 130.213ZM107.608 130.26L107.466 129.27L107.462 129.271L107.608 130.26ZM107.049 130.409L107.443 131.328H107.443L107.049 130.409ZM106.679 130.686L107.469 131.299L107.476 131.289L106.679 130.686ZM106.815 131.679L106.225 132.487L106.233 132.492L106.24 132.497L106.815 131.679ZM106.985 133.124V132.124C106.684 132.124 106.454 132.072 106.274 131.992L105.869 132.906L105.464 133.82C105.938 134.031 106.451 134.124 106.985 134.124V133.124ZM105.869 132.906L106.281 131.995C106.118 131.921 106.009 131.825 105.927 131.701L105.093 132.254L104.26 132.807C104.559 133.257 104.966 133.596 105.457 133.817L105.869 132.906ZM105.093 132.254L105.933 131.711C105.874 131.619 105.812 131.459 105.812 131.172H104.812H103.812C103.812 131.748 103.938 132.31 104.254 132.798L105.093 132.254ZM104.812 131.172H105.812C105.812 130.927 105.857 130.795 105.892 130.731L105.012 130.256L104.133 129.78C103.9 130.21 103.812 130.69 103.812 131.172H104.812ZM105.012 130.256L105.892 130.731C105.949 130.627 106.017 130.553 106.105 130.496L105.558 129.659L105.01 128.822C104.638 129.066 104.343 129.39 104.133 129.78L105.012 130.256ZM105.558 129.659L106.105 130.496C106.237 130.41 106.397 130.338 106.596 130.285L106.342 129.318L106.088 128.351C105.702 128.452 105.339 128.607 105.01 128.822L105.558 129.659ZM106.342 129.318L106.593 130.286C106.835 130.223 107.092 130.178 107.367 130.152L107.271 129.156L107.175 128.161C106.802 128.197 106.44 128.26 106.091 128.35L106.342 129.318ZM107.271 129.156L107.375 130.151C107.762 130.11 108.084 130.072 108.336 130.035L108.191 129.045L108.047 128.056C107.833 128.087 107.541 128.123 107.167 128.162L107.271 129.156ZM108.191 129.045L108.348 130.033C108.622 129.99 108.968 129.908 109.258 129.712L108.699 128.884L108.139 128.055C108.166 128.036 108.186 128.027 108.193 128.024C108.2 128.02 108.2 128.021 108.189 128.025C108.165 128.032 108.116 128.045 108.035 128.058L108.191 129.045ZM108.699 128.884L109.258 129.712C109.669 129.435 109.856 129.001 109.856 128.568H108.856H107.856C107.856 128.511 107.867 128.414 107.922 128.304C107.979 128.191 108.06 128.108 108.139 128.055L108.699 128.884ZM108.856 128.568H109.856V128.543H108.856H107.856V128.568H108.856ZM108.856 128.543H109.856C109.856 128.045 109.688 127.536 109.255 127.161L108.6 127.916L107.946 128.672C107.931 128.659 107.915 128.642 107.9 128.621C107.885 128.6 107.874 128.58 107.866 128.561C107.851 128.525 107.856 128.512 107.856 128.543H108.856ZM108.6 127.916L109.262 127.166C108.851 126.804 108.344 126.695 107.885 126.695V127.695V128.695C107.962 128.695 107.996 128.704 108 128.705C108.001 128.706 107.995 128.704 107.983 128.697C107.97 128.69 107.955 128.68 107.939 128.666L108.6 127.916ZM107.885 127.695V126.695C107.417 126.695 106.923 126.798 106.505 127.112L107.105 127.912L107.705 128.712C107.673 128.736 107.699 128.695 107.885 128.695V127.695ZM107.105 127.912L106.512 127.106C106.154 127.37 105.889 127.729 105.761 128.171L106.721 128.449L107.682 128.727C107.682 128.725 107.682 128.726 107.681 128.728C107.68 128.73 107.679 128.732 107.678 128.734C107.677 128.735 107.677 128.735 107.679 128.732C107.682 128.73 107.687 128.725 107.697 128.718L107.105 127.912ZM106.721 128.449L106.802 127.452L105.123 127.316L105.042 128.312L104.961 129.309L106.64 129.446L106.721 128.449ZM105.042 128.312L106.02 128.522C106.072 128.278 106.169 128.089 106.302 127.934L105.545 127.281L104.788 126.628C104.421 127.053 104.183 127.552 104.064 128.103L105.042 128.312ZM105.545 127.281L106.305 127.931C106.439 127.775 106.621 127.64 106.88 127.538L106.512 126.608L106.145 125.678C105.614 125.888 105.151 126.203 104.785 126.632L105.545 127.281ZM106.512 126.608L106.884 127.536C107.141 127.434 107.47 127.369 107.893 127.369V126.369V125.369C107.27 125.369 106.68 125.464 106.141 125.679L106.512 126.608ZM107.893 126.369V127.369C108.178 127.369 108.442 127.403 108.689 127.466L108.937 126.497L109.186 125.528C108.767 125.421 108.336 125.369 107.893 125.369V126.369ZM108.937 126.497L108.691 127.466C108.922 127.525 109.107 127.611 109.259 127.716L109.828 126.893L110.397 126.071C110.031 125.818 109.623 125.64 109.184 125.528L108.937 126.497ZM109.828 126.893L109.263 127.719C109.391 127.806 109.489 127.915 109.564 128.056L110.446 127.584L111.327 127.112C111.102 126.69 110.787 126.339 110.393 126.068L109.828 126.893ZM110.446 127.584L109.566 128.06C109.621 128.162 109.672 128.324 109.672 128.585H110.672H111.672C111.672 128.068 111.571 127.563 111.325 127.108L110.446 127.584ZM110.672 128.585H109.672V133H110.672H111.672V128.585H110.672ZM110.672 133V132H108.95V133V134H110.672V133ZM108.95 133H109.95V132.092H108.95H107.95V133H108.95ZM108.95 132.092V131.092H108.899V132.092V133.092H108.95V132.092ZM108.899 132.092L108.009 131.635C107.962 131.727 107.899 131.809 107.813 131.885L108.477 132.634L109.141 133.382C109.407 133.145 109.625 132.867 109.788 132.549L108.899 132.092ZM108.477 132.634L107.82 131.879C107.749 131.941 107.65 132.003 107.506 132.054L107.842 132.996L108.178 133.938C108.528 133.813 108.852 133.633 109.134 133.388L108.477 132.634ZM107.842 132.996L107.516 132.05C107.395 132.092 107.224 132.124 106.985 132.124V133.124V134.124C107.395 134.124 107.794 134.07 108.168 133.941L107.842 132.996ZM107.505 131.871V132.871C107.906 132.871 108.303 132.791 108.67 132.602L108.213 131.713L107.756 130.824C107.714 130.845 107.639 130.871 107.505 130.871V131.871ZM108.213 131.713L108.679 132.597C109.026 132.415 109.32 132.155 109.536 131.818L108.694 131.278L107.852 130.739C107.836 130.765 107.809 130.795 107.746 130.829L108.213 131.713ZM108.694 131.278L109.536 131.818C109.763 131.464 109.869 131.069 109.869 130.661H108.869H107.869C107.869 130.713 107.859 130.729 107.852 130.739L108.694 131.278ZM108.869 130.661H109.869V129.966H108.869H107.869V130.661H108.869ZM108.869 129.966L108.324 129.127C108.338 129.118 108.35 129.112 108.357 129.108C108.364 129.104 108.368 129.103 108.368 129.103C108.368 129.103 108.366 129.104 108.36 129.106C108.354 129.108 108.346 129.111 108.335 129.114L108.635 130.068L108.934 131.022C109.079 130.977 109.252 130.91 109.414 130.804L108.869 129.966ZM108.635 130.068L108.352 129.109C108.287 129.128 108.204 129.149 108.102 129.17L108.306 130.149L108.511 131.128C108.654 131.098 108.789 131.065 108.917 131.028L108.635 130.068ZM108.306 130.149L108.124 129.166C108.009 129.187 107.894 129.207 107.779 129.226L107.94 130.213L108.101 131.2C108.23 131.179 108.36 131.156 108.489 131.132L108.306 130.149ZM107.94 130.213L107.802 129.223C107.679 129.24 107.567 129.256 107.466 129.27L107.608 130.26L107.749 131.25C107.847 131.236 107.957 131.22 108.078 131.203L107.94 130.213ZM107.608 130.26L107.462 129.271C107.184 129.311 106.911 129.381 106.655 129.49L107.049 130.409L107.443 131.328C107.506 131.301 107.605 131.271 107.753 131.249L107.608 130.26ZM107.049 130.409L106.655 129.49C106.366 129.614 106.092 129.804 105.881 130.083L106.679 130.686L107.476 131.289C107.46 131.31 107.445 131.324 107.436 131.331C107.427 131.337 107.428 131.335 107.443 131.328L107.049 130.409ZM106.679 130.686L105.888 130.074C105.64 130.393 105.547 130.763 105.547 131.112H106.547H107.547C107.547 131.113 107.546 131.136 107.535 131.174C107.522 131.213 107.501 131.257 107.469 131.299L106.679 130.686ZM106.547 131.112H105.547C105.547 131.636 105.756 132.144 106.225 132.487L106.815 131.679L107.405 130.871C107.442 130.898 107.486 130.946 107.517 131.011C107.547 131.073 107.547 131.114 107.547 131.112H106.547ZM106.815 131.679L106.24 132.497C106.628 132.77 107.073 132.871 107.505 132.871V131.871V130.871C107.442 130.871 107.406 130.863 107.392 130.859C107.378 130.856 107.381 130.854 107.39 130.861L106.815 131.679ZM113.895 124.273H114.895V123.273H113.895V124.273ZM113.895 133V134H114.895V133H113.895ZM112.08 133H111.08V134H112.08V133ZM112.08 124.273V123.273H111.08V124.273H112.08ZM113.895 124.273H112.895V133H113.895H114.895V124.273H113.895ZM113.895 133V132H112.08V133V134H113.895V133ZM112.08 133H113.08V124.273H112.08H111.08V133H112.08ZM112.08 124.273V125.273H113.895V124.273V123.273H112.08V124.273ZM120.795 128.321L120.857 129.319L121.927 129.253L121.787 128.19L120.795 128.321ZM119.134 128.423L118.153 128.619L118.324 129.475L119.195 129.421L119.134 128.423ZM118.95 128.04L118.171 128.667L118.179 128.676L118.95 128.04ZM118.58 127.763L118.153 128.667L118.163 128.672L118.173 128.677L118.58 127.763ZM117.327 127.835L117.843 128.692L117.852 128.686L117.327 127.835ZM117.224 128.7L116.571 129.457V129.457L117.224 128.7ZM117.868 128.96L117.658 129.938L117.67 129.941L117.868 128.96ZM119.053 129.199L119.254 128.219L119.25 128.219L119.053 129.199ZM120.476 129.83L119.796 130.563L120.476 129.83ZM120.565 132.101L119.777 131.485L119.774 131.49L120.565 132.101ZM119.534 132.859L119.915 133.784L119.918 133.783L119.534 132.859ZM115.959 132.587L115.379 133.402L115.384 133.405L115.959 132.587ZM115.06 131.104L115.007 130.105L113.917 130.162L114.069 131.243L115.06 131.104ZM116.845 131.01L117.825 130.81L117.653 129.966L116.793 130.011L116.845 131.01ZM117.237 131.615L116.68 132.445L116.688 132.451L117.237 131.615ZM118.801 131.636L119.336 132.482L119.339 132.48L118.801 131.636ZM119.099 131.155L120.099 131.169L120.1 131.153L120.099 131.138L119.099 131.155ZM118.891 130.75L118.27 131.534L118.28 131.542L118.891 130.75ZM118.26 130.503L118.456 129.522L118.455 129.522L118.26 130.503ZM117.126 130.277L116.93 131.258L116.931 131.258L117.126 130.277ZM115.699 129.612L114.985 130.313L114.989 130.316L115.699 129.612ZM115.575 127.32L114.778 126.716L114.774 126.721L115.575 127.32ZM116.543 126.616L116.176 125.686L116.173 125.687L116.543 126.616ZM119.96 126.893L119.367 127.699L119.369 127.7L119.96 126.893ZM120.795 128.321L120.734 127.323L119.072 127.425L119.134 128.423L119.195 129.421L120.857 129.319L120.795 128.321ZM119.134 128.423L120.114 128.227C120.053 127.921 119.919 127.642 119.722 127.403L118.95 128.04L118.179 128.676C118.176 128.673 118.17 128.664 118.164 128.652C118.158 128.639 118.155 128.628 118.153 128.619L119.134 128.423ZM118.95 128.04L119.729 127.413C119.524 127.158 119.266 126.974 118.986 126.849L118.58 127.763L118.173 128.677C118.188 128.683 118.192 128.686 118.189 128.684C118.187 128.683 118.185 128.681 118.182 128.678C118.178 128.675 118.175 128.671 118.171 128.667L118.95 128.04ZM118.58 127.763L119.006 126.858C118.692 126.71 118.358 126.656 118.038 126.656V127.656V128.656C118.139 128.656 118.166 128.673 118.153 128.667L118.58 127.763ZM118.038 127.656V126.656C117.616 126.656 117.186 126.747 116.801 126.984L117.327 127.835L117.852 128.686C117.854 128.685 117.899 128.656 118.038 128.656V127.656ZM117.327 127.835L116.81 126.979C116.371 127.244 116.037 127.699 116.037 128.304H117.037H118.037C118.037 128.379 118.016 128.475 117.96 128.566C117.908 128.65 117.852 128.686 117.843 128.692L117.327 127.835ZM117.037 128.304H116.037C116.037 128.769 116.24 129.172 116.571 129.457L117.224 128.7L117.878 127.943C117.907 127.969 117.952 128.017 117.988 128.093C118.024 128.169 118.037 128.245 118.037 128.304H117.037ZM117.224 128.7L116.571 129.457C116.892 129.734 117.311 129.863 117.658 129.938L117.868 128.96L118.078 127.983C117.964 127.958 117.893 127.935 117.854 127.919C117.811 127.902 117.832 127.903 117.878 127.943L117.224 128.7ZM117.868 128.96L117.67 129.941L118.855 130.179L119.053 129.199L119.25 128.219L118.065 127.98L117.868 128.96ZM119.053 129.199L118.851 130.178C119.395 130.29 119.67 130.446 119.796 130.563L120.476 129.83L121.156 129.096C120.656 128.633 119.982 128.369 119.254 128.219L119.053 129.199ZM120.476 129.83L119.796 130.563C119.881 130.642 119.945 130.745 119.945 130.972H120.945H121.945C121.945 130.255 121.695 129.597 121.156 129.096L120.476 129.83ZM120.945 130.972H119.945C119.945 131.188 119.886 131.346 119.777 131.485L120.565 132.101L121.354 132.716C121.75 132.208 121.945 131.613 121.945 130.972H120.945ZM120.565 132.101L119.774 131.49C119.646 131.655 119.453 131.81 119.15 131.936L119.534 132.859L119.918 133.783C120.49 133.545 120.985 133.194 121.357 132.712L120.565 132.101ZM119.534 132.859L119.153 131.935C118.862 132.055 118.494 132.128 118.03 132.128V133.128V134.128C118.702 134.128 119.337 134.022 119.915 133.784L119.534 132.859ZM118.03 133.128V132.128C117.293 132.128 116.826 131.974 116.533 131.768L115.959 132.587L115.384 133.405C116.12 133.921 117.034 134.128 118.03 134.128V133.128ZM115.959 132.587L116.538 131.772C116.252 131.568 116.1 131.319 116.05 130.964L115.06 131.104L114.069 131.243C114.196 132.138 114.643 132.878 115.379 133.402L115.959 132.587ZM115.06 131.104L115.112 132.102L116.898 132.009L116.845 131.01L116.793 130.011L115.007 130.105L115.06 131.104ZM116.845 131.01L115.865 131.21C115.967 131.709 116.236 132.147 116.68 132.445L117.237 131.615L117.795 130.785C117.795 130.785 117.8 130.789 117.806 130.795C117.812 130.801 117.818 130.808 117.823 130.816C117.828 130.823 117.83 130.827 117.83 130.828C117.83 130.828 117.828 130.823 117.825 130.81L116.845 131.01ZM117.237 131.615L116.688 132.451C117.101 132.723 117.574 132.82 118.034 132.82V131.82V130.82C117.847 130.82 117.788 130.78 117.787 130.78L117.237 131.615ZM118.034 131.82V132.82C118.47 132.82 118.931 132.737 119.336 132.482L118.801 131.636L118.267 130.791C118.284 130.78 118.234 130.82 118.034 130.82V131.82ZM118.801 131.636L119.339 132.48C119.758 132.213 120.091 131.768 120.099 131.169L119.099 131.155L118.1 131.14C118.101 131.064 118.123 130.975 118.173 130.896C118.195 130.86 118.218 130.834 118.235 130.817C118.252 130.8 118.263 130.793 118.263 130.793L118.801 131.636ZM119.099 131.155L120.099 131.138C120.091 130.653 119.866 130.239 119.501 129.958L118.891 130.75L118.28 131.542C118.248 131.517 118.197 131.468 118.156 131.388C118.115 131.308 118.101 131.23 118.1 131.172L119.099 131.155ZM118.891 130.75L119.511 129.966C119.195 129.715 118.805 129.592 118.456 129.522L118.26 130.503L118.064 131.483C118.164 131.503 118.228 131.524 118.266 131.538C118.305 131.554 118.298 131.557 118.27 131.534L118.891 130.75ZM118.26 130.503L118.455 129.522L117.322 129.296L117.126 130.277L116.931 131.258L118.065 131.484L118.26 130.503ZM117.126 130.277L117.323 129.296C116.792 129.19 116.53 129.031 116.409 128.908L115.699 129.612L114.989 130.316C115.492 130.825 116.183 131.108 116.93 131.258L117.126 130.277ZM115.699 129.612L116.412 128.912C116.307 128.804 116.234 128.663 116.234 128.406H115.234H114.234C114.234 129.127 114.472 129.79 114.985 130.313L115.699 129.612ZM115.234 128.406H116.234C116.234 128.177 116.292 128.031 116.376 127.918L115.575 127.32L114.774 126.721C114.404 127.216 114.234 127.794 114.234 128.406H115.234ZM115.575 127.32L116.373 127.923C116.475 127.788 116.637 127.655 116.912 127.546L116.543 126.616L116.173 125.687C115.618 125.908 115.136 126.243 114.778 126.716L115.575 127.32ZM116.543 126.616L116.91 127.547C117.185 127.438 117.545 127.369 118.009 127.369V126.369V125.369C117.353 125.369 116.735 125.466 116.176 125.686L116.543 126.616ZM118.009 126.369V127.369C118.706 127.369 119.122 127.518 119.367 127.699L119.96 126.893L120.553 126.088C119.85 125.57 118.965 125.369 118.009 125.369V126.369ZM119.96 126.893L119.369 127.7C119.62 127.884 119.759 128.112 119.804 128.452L120.795 128.321L121.787 128.19C121.673 127.326 121.255 126.602 120.551 126.087L119.96 126.893ZM123.332 132.719L122.836 133.587L122.842 133.591L123.332 132.719ZM122.216 131.551L121.327 132.01L121.328 132.012L122.216 131.551ZM122.216 127.984L121.326 127.527L122.216 127.984ZM123.319 126.795L122.808 125.936L122.806 125.938L123.319 126.795ZM126.204 126.578L125.854 127.515L125.862 127.518L126.204 126.578ZM127.184 127.196L126.481 127.907L126.484 127.91L127.184 127.196ZM127.841 128.236L126.904 128.586L126.905 128.588L127.841 128.236ZM128.075 130.192V131.192H129.075V130.192H128.075ZM122.548 130.192H121.548V131.192H122.548V130.192ZM122.548 129.067V128.067H121.548V129.067H122.548ZM126.366 129.067V130.067H127.366V129.067H126.366ZM126.196 128.372L125.324 128.863L125.324 128.863L126.196 128.372ZM125.723 127.899L125.217 128.762L125.224 128.766L125.232 128.77L125.723 127.899ZM124.295 127.916L124.806 128.776L124.81 128.774L124.295 127.916ZM123.801 128.423L124.67 128.917L124.673 128.912L123.801 128.423ZM123.618 129.126L122.618 129.115V129.126H123.618ZM123.797 131.036L122.904 131.487L122.909 131.496L123.797 131.036ZM125.654 131.688L125.333 130.74L125.654 131.688ZM126.085 131.432L125.395 130.708L125.395 130.708L126.085 131.432ZM126.358 131.014L126.423 130.016L125.685 129.968L125.423 130.66L126.358 131.014ZM128.037 131.125L129.015 131.332L129.253 130.203L128.102 130.127L128.037 131.125ZM127.512 132.182L126.761 131.522L126.76 131.523L127.512 132.182ZM126.498 132.881L126.87 133.809L126.873 133.808L126.498 132.881ZM125.071 133.128V132.128C124.533 132.128 124.13 132.02 123.822 131.847L123.332 132.719L122.842 133.591C123.506 133.963 124.262 134.128 125.071 134.128V133.128ZM123.332 132.719L123.828 131.85C123.515 131.672 123.277 131.426 123.103 131.09L122.216 131.551L121.328 132.012C121.677 132.682 122.183 133.215 122.836 133.587L123.332 132.719ZM122.216 131.551L123.104 131.092C122.93 130.755 122.824 130.321 122.824 129.757H121.824H120.824C120.824 130.574 120.978 131.336 121.327 132.01L122.216 131.551ZM121.824 129.757H122.824C122.824 129.215 122.928 128.786 123.105 128.441L122.216 127.984L121.326 127.527C120.98 128.2 120.824 128.953 120.824 129.757H121.824ZM122.216 127.984L123.105 128.441C123.284 128.093 123.524 127.838 123.833 127.653L123.319 126.795L122.806 125.938C122.165 126.321 121.67 126.859 121.326 127.527L122.216 127.984ZM123.319 126.795L123.831 127.655C124.13 127.476 124.508 127.369 124.998 127.369V126.369V125.369C124.205 125.369 123.463 125.546 122.808 125.936L123.319 126.795ZM124.998 126.369V127.369C125.321 127.369 125.603 127.421 125.854 127.515L126.204 126.578L126.555 125.642C126.061 125.457 125.539 125.369 124.998 125.369V126.369ZM126.204 126.578L125.862 127.518C126.104 127.606 126.307 127.735 126.481 127.907L127.184 127.196L127.888 126.485C127.505 126.106 127.054 125.823 126.546 125.638L126.204 126.578ZM127.184 127.196L126.484 127.91C126.648 128.071 126.792 128.288 126.904 128.586L127.841 128.236L128.777 127.885C128.576 127.349 128.283 126.873 127.884 126.482L127.184 127.196ZM127.841 128.236L126.905 128.588C127.009 128.866 127.075 129.227 127.075 129.693H128.075H129.075C129.075 129.046 128.984 128.435 128.776 127.883L127.841 128.236ZM128.075 129.693H127.075V130.192H128.075H129.075V129.693H128.075ZM128.075 130.192V129.192H122.548V130.192V131.192H128.075V130.192ZM122.548 130.192H123.548V129.067H122.548H121.548V130.192H122.548ZM122.548 129.067V130.067H126.366V129.067V128.067H122.548V129.067ZM126.366 129.067H127.366C127.366 128.656 127.275 128.251 127.067 127.881L126.196 128.372L125.324 128.863C125.343 128.896 125.366 128.955 125.366 129.067H126.366ZM126.196 128.372L127.067 127.881C126.864 127.52 126.574 127.231 126.213 127.028L125.723 127.899L125.232 128.77C125.274 128.794 125.3 128.82 125.324 128.863L126.196 128.372ZM125.723 127.899L126.228 127.036C125.855 126.818 125.443 126.724 125.028 126.724V127.724V128.724C125.141 128.724 125.193 128.748 125.217 128.762L125.723 127.899ZM125.028 127.724V126.724C124.592 126.724 124.166 126.828 123.781 127.059L124.295 127.916L124.81 128.774C124.851 128.749 124.913 128.724 125.028 128.724V127.724ZM124.295 127.916L123.784 127.057C123.423 127.271 123.134 127.568 122.928 127.935L123.801 128.423L124.673 128.912C124.707 128.852 124.747 128.811 124.806 128.776L124.295 127.916ZM123.801 128.423L122.931 127.93C122.722 128.297 122.622 128.7 122.618 129.115L123.618 129.126L124.617 129.137C124.619 129.036 124.641 128.97 124.67 128.917L123.801 128.423ZM123.618 129.126H122.618V130.196H123.618H124.618V129.126H123.618ZM123.618 130.196H122.618C122.618 130.642 122.7 131.083 122.904 131.487L123.797 131.036L124.689 130.584C124.654 130.516 124.618 130.398 124.618 130.196H123.618ZM123.797 131.036L122.909 131.496C123.115 131.894 123.419 132.22 123.812 132.447L124.312 131.581L124.812 130.715C124.762 130.686 124.722 130.648 124.684 130.576L123.797 131.036ZM124.312 131.581L123.812 132.447C124.212 132.678 124.654 132.773 125.1 132.773V131.773V130.773C124.939 130.773 124.855 130.74 124.812 130.715L124.312 131.581ZM125.1 131.773V132.773C125.396 132.773 125.691 132.731 125.976 132.635L125.654 131.688L125.333 130.74C125.283 130.758 125.208 130.773 125.1 130.773V131.773ZM125.654 131.688L125.976 132.635C126.27 132.535 126.542 132.377 126.775 132.156L126.085 131.432L125.395 130.708C125.389 130.714 125.374 130.727 125.333 130.74L125.654 131.688ZM126.085 131.432L126.775 132.156C127.01 131.932 127.181 131.664 127.293 131.369L126.358 131.014L125.423 130.66C125.409 130.694 125.399 130.704 125.395 130.708L126.085 131.432ZM126.358 131.014L126.292 132.012L127.971 132.123L128.037 131.125L128.102 130.127L126.423 130.016L126.358 131.014ZM128.037 131.125L127.058 130.918C127.007 131.159 126.908 131.354 126.761 131.522L127.512 132.182L128.264 132.841C128.645 132.407 128.895 131.898 129.015 131.332L128.037 131.125ZM127.512 132.182L126.76 131.523C126.615 131.689 126.412 131.837 126.124 131.954L126.498 132.881L126.873 133.808C127.414 133.589 127.888 133.271 128.265 132.841L127.512 132.182ZM126.498 132.881L126.127 131.952C125.856 132.061 125.51 132.128 125.071 132.128V133.128V134.128C125.711 134.128 126.317 134.03 126.87 133.809L126.498 132.881Z" fill="#C50000" mask="url(#path-3-outside-1_12_6)"/>
<path d="M396.548 154.5L422.096 120H371L396.548 154.5Z" fill="#F0B43B"/>
<path d="M408 53H386V120H408V53Z" fill="#F0B43B"/>
<path d="M228 53V75L406 75V53L228 53Z" fill="#F0B43B"/>
<path d="M317.674 60.8693C318.16 60.8693 318.622 60.9477 319.055 61.1096L319.054 61.1105C319.493 61.2709 319.881 61.5134 320.21 61.8391L320.333 61.968C320.612 62.2762 320.828 62.6426 320.985 63.0598L321.048 63.2443C321.186 63.6812 321.25 64.1668 321.25 64.6935V65.6594L321.321 65.6642L321.201 66.2287C321.099 66.713 320.886 67.1426 320.564 67.5099L320.565 67.5109C320.246 67.8751 319.839 68.1508 319.362 68.3439L319.36 68.3449C318.877 68.5378 318.336 68.6281 317.746 68.6281C317.005 68.6281 316.338 68.4771 315.763 68.1545L315.76 68.1535C315.192 67.8293 314.752 67.3679 314.448 66.7814V66.7805C314.143 66.1903 313.999 65.5104 313.999 64.757C313.999 64.0184 314.143 63.3467 314.447 62.756C314.749 62.1675 315.181 61.7001 315.739 61.3664L315.74 61.3654C316.305 61.0286 316.956 60.8693 317.674 60.8693ZM316.916 65.8058L316.981 65.9133C317.051 66.0129 317.136 66.089 317.238 66.1476C317.37 66.2241 317.544 66.2726 317.777 66.2726C317.931 66.2726 318.061 66.2511 318.17 66.2141C318.274 66.1788 318.353 66.1293 318.416 66.0695C318.477 66.0111 318.528 65.9365 318.566 65.8371L318.621 65.6916H316.868C316.883 65.7323 316.899 65.7704 316.916 65.8058ZM317.703 63.2248C317.509 63.2249 317.355 63.2687 317.228 63.3449L317.227 63.3459C317.127 63.405 317.045 63.4779 316.979 63.5666H318.403C318.338 63.4699 318.257 63.3938 318.153 63.3351L318.146 63.3303C318.034 63.265 317.892 63.2248 317.703 63.2248Z" fill="white" stroke="#0B9F00"/>
<path d="M309.614 60.9545V65.2944L309.629 65.4955C309.656 65.6756 309.719 65.7945 309.795 65.8774C309.892 65.9836 310.024 66.0512 310.248 66.0512C310.387 66.0512 310.512 66.0198 310.63 65.9584C310.731 65.9027 310.817 65.8205 310.889 65.6977L310.892 65.6928C310.953 65.5914 310.998 65.4423 310.996 65.2182V60.9545H313.811V68.5004H311.068V68.1313C311.06 68.1367 311.053 68.1425 311.045 68.1479C310.606 68.4477 310.087 68.5854 309.514 68.5854C308.999 68.5854 308.523 68.4672 308.103 68.2162C307.685 67.9662 307.362 67.6109 307.135 67.1664L307.134 67.1635C306.907 66.7133 306.802 66.1944 306.799 65.6245V60.9545H309.614Z" fill="white" stroke="#0B9F00"/>
<path d="M306.86 63.7075L306.217 63.5141C306.169 63.4997 306.081 63.4818 305.941 63.4633C305.808 63.4457 305.692 63.4379 305.593 63.4379C305.401 63.438 305.247 63.4783 305.119 63.5493L305.117 63.5502C304.988 63.6207 304.889 63.7175 304.812 63.8461C304.745 63.964 304.704 64.1097 304.704 64.2973V68.5004H301.888V60.9545H304.648V61.187C304.989 60.9693 305.373 60.8608 305.789 60.8608C305.9 60.8608 306.016 60.8673 306.137 60.8803C306.258 60.8935 306.374 60.9131 306.481 60.9399L306.86 61.0346V63.7075Z" fill="white" stroke="#0B9F00"/>
<path d="M300.474 59.3864V60.9547H301.706V63.318H300.474V65.9889C300.474 66.0477 300.478 66.089 300.483 66.1158C300.508 66.1215 300.543 66.1276 300.588 66.1276C300.646 66.1275 300.703 66.1226 300.761 66.1129C300.84 66.0973 300.902 66.0853 300.948 66.0768L301.428 65.9869L301.529 66.4645L301.814 67.816L301.909 68.2604L301.474 68.3961C301.365 68.4301 301.225 68.4652 301.058 68.5026C300.851 68.5525 300.616 68.5792 300.359 68.5885L300.36 68.5895C299.868 68.6086 299.411 68.544 299.002 68.3785L299.002 68.3776C298.586 68.2076 298.248 67.936 298.007 67.5641C297.76 67.1809 297.655 66.7233 297.659 66.2242V63.318H296.764V60.9547H297.659V59.3864H300.474Z" fill="white" stroke="#0B9F00"/>
<path d="M113.5 34H88V0H88.3223L113.5 34Z" fill="#F0B43B"/>
<path d="M139 34H113.5L138.678 0H139V34Z" fill="#F0B43B"/>
<rect y="34" width="228" height="59" fill="#F0B43B"/>
<path d="M34.7244 70V63.4545H36.5398V70H34.7244ZM35.6364 62.6108C35.3665 62.6108 35.1349 62.5213 34.9418 62.3423C34.7514 62.1605 34.6562 61.9432 34.6562 61.6903C34.6562 61.4403 34.7514 61.2259 34.9418 61.0469C35.1349 60.8651 35.3665 60.7741 35.6364 60.7741C35.9063 60.7741 36.1364 60.8651 36.3267 61.0469C36.5199 61.2259 36.6165 61.4403 36.6165 61.6903C36.6165 61.9432 36.5199 62.1605 36.3267 62.3423C36.1364 62.5213 35.9063 62.6108 35.6364 62.6108ZM41.5138 63.4545V64.8182H37.4741V63.4545H41.5138ZM38.3988 70V62.9815C38.3988 62.5071 38.4911 62.1136 38.6758 61.8011C38.8633 61.4886 39.119 61.2543 39.4428 61.098C39.7667 60.9418 40.1346 60.8636 40.5465 60.8636C40.8249 60.8636 41.0792 60.8849 41.3093 60.9276C41.5423 60.9702 41.7156 61.0085 41.8292 61.0426L41.5053 62.4062C41.4343 62.3835 41.3462 62.3622 41.2411 62.3423C41.1388 62.3224 41.0337 62.3125 40.9258 62.3125C40.6587 62.3125 40.4727 62.375 40.3675 62.5C40.2624 62.6222 40.2099 62.794 40.2099 63.0156V70H38.3988Z" fill="white"/>
<path d="M61 53.3253H179V74.3253H61V53.3253Z" fill="white"/>
<path d="M46 63.8253L61 53V74.6506L46 63.8253Z" fill="white"/>
<path d="M194 63.8253L179 74.6506V53L194 63.8253Z" fill="white"/>
</svg>
