<svg width="85" height="24" viewBox="0 0 85 24" fill="none" xmlns="http://www.w3.org/2000/svg">
<g id="lt_operator" clip-path="url(#clip0_56_75)">
<path id="bbox" opacity="0.01" d="M85 0H0V24H85V0Z" fill="black"/>
<path id="capLeft" d="M0 12L7.28571 0V24L0 12Z" fill="#66C56E"/>
<path id="capRight" d="M84.9999 12L77.7142 24V0L84.9999 12Z" fill="#66C56E"/>
<path id="bodyStretch" d="M77.7143 0H7.28577V24H77.7143V0Z" fill="#66C56E"/>
<g id="input:a">
<path id="box" opacity="0.01" d="M30.3572 4.79999H17C13.6469 4.79999 10.9286 7.48628 10.9286 10.8V13.2C10.9286 16.5137 13.6469 19.2 17 19.2H30.3572C33.7103 19.2 36.4286 16.5137 36.4286 13.2V10.8C36.4286 7.48628 33.7103 4.79999 30.3572 4.79999Z" fill="#D9D9D9"/>
<path id="anchor-input:a-left" opacity="0.01" d="M10.9286 12.6C11.2639 12.6 11.5357 12.3314 11.5357 12C11.5357 11.6686 11.2639 11.4 10.9286 11.4C10.5932 11.4 10.3214 11.6686 10.3214 12C10.3214 12.3314 10.5932 12.6 10.9286 12.6Z" fill="#D9D9D9"/>
<path id="anchor-input:a-right" opacity="0.01" d="M36.4286 12.6C36.7639 12.6 37.0357 12.3314 37.0357 12C37.0357 11.6686 36.7639 11.4 36.4286 11.4C36.0932 11.4 35.8214 11.6686 35.8214 12C35.8214 12.3314 36.0932 12.6 36.4286 12.6Z" fill="#D9D9D9"/>
</g>
<g id="input:b">
<path id="box_2" opacity="0.01" d="M68 4.79999H54.6428C51.2897 4.79999 48.5714 7.48628 48.5714 10.8V13.2C48.5714 16.5137 51.2897 19.2 54.6428 19.2H68C71.3531 19.2 74.0714 16.5137 74.0714 13.2V10.8C74.0714 7.48628 71.3531 4.79999 68 4.79999Z" fill="#D9D9D9"/>
<path id="anchor-input:b-left" opacity="0.01" d="M48.5714 12.6C48.9067 12.6 49.1785 12.3314 49.1785 12C49.1785 11.6686 48.9067 11.4 48.5714 11.4C48.2361 11.4 47.9642 11.6686 47.9642 12C47.9642 12.3314 48.2361 12.6 48.5714 12.6Z" fill="#D9D9D9"/>
<path id="anchor-input:b-right" opacity="0.01" d="M74.0714 12.6C74.4067 12.6 74.6785 12.3314 74.6785 12C74.6785 11.6686 74.4067 11.4 74.0714 11.4C73.7361 11.4 73.4642 11.6686 73.4642 12C73.4642 12.3314 73.7361 12.6 74.0714 12.6Z" fill="#D9D9D9"/>
</g>
<path id="anchor:input-left" opacity="0.01" d="M2.61664e-05 12.6C0.335342 12.6 0.607169 12.3314 0.607169 12C0.607169 11.6686 0.335342 11.4 2.61664e-05 11.4C-0.33529 11.4 -0.607117 11.6686 -0.607117 12C-0.607117 12.3314 -0.33529 12.6 2.61664e-05 12.6Z" fill="#D9D9D9"/>
<path id="anchor:input-right" opacity="0.01" d="M85 12.6C85.3353 12.6 85.6071 12.3314 85.6071 12C85.6071 11.6686 85.3353 11.4 85 11.4C84.6646 11.4 84.3928 11.6686 84.3928 12C84.3928 12.3314 84.6646 12.6 85 12.6Z" fill="#D9D9D9"/>
<path id="text" d="M40.0597 13.0883V11.7133L45.5597 9.29141V10.8734L41.7941 12.3852L41.8448 12.3031V12.4984L41.7941 12.4164L45.5597 13.9281V15.5102L40.0597 13.0883Z" fill="white"/>
</g>
<defs>
<clipPath id="clip0_56_75">
<rect width="85" height="24" fill="white"/>
</clipPath>
</defs>
</svg>
