<svg width="159" height="40" viewBox="0 0 159 40" fill="none" xmlns="http://www.w3.org/2000/svg">
<g id="lte_operator">
<g id="border">
<path d="M0 20L8.10191 0V40L0 20Z" fill="white"/>
<path d="M159 20L150.898 40V0L159 20Z" fill="white"/>
<path d="M150.898 0H8.10191V40H150.898V0Z" fill="white"/>
</g>
<path id="capLeft" d="M3 20L10 2V38L3 20Z" fill="#66C56E"/>
<path id="capRight" d="M156 20L149 38V2L156 20Z" fill="#66C56E"/>
<path id="bodyStretch" d="M149 2H10V38H149V2Z" fill="#66C56E"/>
<path id="text" d="M100.898 21.7166V20.4666L105.898 18.2649V19.7031L102.475 21.0774L102.521 21.0028V21.1804L102.475 21.1058L105.898 22.4801V23.9183L100.898 21.7166ZM107.741 20.5412V19.2805H112.646V20.5412H107.741ZM107.741 22.8991V21.6385H112.646V22.8991H107.741Z" fill="white"/>
<g id="input:b">
<path id="box_2" opacity="0.01" d="M140 11H124C119.983 11 116.727 14.9175 116.727 19.75V23.25C116.727 28.0825 119.983 32 124 32H140C144.017 32 147.273 28.0825 147.273 23.25V19.75C147.273 14.9175 144.017 11 140 11Z" fill="#D9D9D9"/>
<path id="anchor-input:b-left" opacity="0.01" d="M116.727 22.375C117.129 22.375 117.455 21.9833 117.455 21.5C117.455 21.0168 117.129 20.625 116.727 20.625C116.326 20.625 116 21.0168 116 21.5C116 21.9833 116.326 22.375 116.727 22.375Z" fill="#D9D9D9"/>
<path id="anchor-input:b-right" opacity="0.01" d="M147.273 22.375C147.674 22.375 148 21.9833 148 21.5C148 21.0168 147.674 20.625 147.273 20.625C146.871 20.625 146.545 21.0168 146.545 21.5C146.545 21.9833 146.871 22.375 147.273 22.375Z" fill="#D9D9D9"/>
</g>
<g id="input:a">
<path id="box_2" opacity="0.01" d="M75.5 6H32.5C20.6259 6 11 11.2233 11 17.6667V22.3333C11 28.7767 20.6259 34 32.5 34H75.5C87.3741 34 97 28.7767 97 22.3333V17.6667C97 11.2233 87.3741 6 75.5 6Z" fill="#D9D9D9"/>
<path id="anchor-input:a-left" opacity="0.01" d="M10.9287 20.6C11.264 20.6 11.5358 20.3314 11.5358 20C11.5358 19.6686 11.264 19.4 10.9287 19.4C10.5934 19.4 10.3215 19.6686 10.3215 20C10.3215 20.3314 10.5934 20.6 10.9287 20.6Z" fill="#D9D9D9"/>
<path id="anchor-input:a-right" opacity="0.01" d="M97.6071 20.2C97.9425 20.2 98.2143 19.9314 98.2143 19.6C98.2143 19.2686 97.9425 19 97.6071 19C97.2718 19 97 19.2686 97 19.6C97 19.9314 97.2718 20.2 97.6071 20.2Z" fill="#D9D9D9"/>
</g>
<path id="anchor:input-left" opacity="0.01" d="M0.999965 18.6C1.33528 18.6 1.60711 18.3314 1.60711 18C1.60711 17.6686 1.33528 17.4 0.999965 17.4C0.664649 17.4 0.392822 17.6686 0.392822 18C0.392822 18.3314 0.664649 18.6 0.999965 18.6Z" fill="#D9D9D9"/>
<path id="anchor:input-right" opacity="0.01" d="M156.607 19.2C156.942 19.2 157.214 18.9314 157.214 18.6C157.214 18.2686 156.942 18 156.607 18C156.272 18 156 18.2686 156 18.6C156 18.9314 156.272 19.2 156.607 19.2Z" fill="#D9D9D9"/>
</g>
</svg>
