<svg width="157" height="36" viewBox="0 0 157 36" fill="none" xmlns="http://www.w3.org/2000/svg">
<g id="lte_operator">
<g id="border">
<path d="M0 18L8 0V36L0 18Z" fill="white"/>
<path d="M157 18L149 36V0L157 18Z" fill="white"/>
<path d="M149 0H8V36H149V0Z" fill="white"/>
</g>
<path id="capLeft" d="M1 18L8 1V35L1 18Z" fill="#66C56E"/>
<path id="capRight" d="M156 18L149 35V1L156 18Z" fill="#66C56E"/>
<path id="bodyStretch" d="M149 1H8V35H149V1Z" fill="#66C56E"/>
<path id="text" d="M97.8984 19.7166V18.4666L102.898 16.2649V17.7031L99.4751 19.0774L99.5213 19.0028V19.1804L99.4751 19.1058L102.898 20.4801V21.9183L97.8984 19.7166ZM104.741 18.5412V17.2805H109.646V18.5412H104.741ZM104.741 20.8991V19.6385H109.646V20.8991H104.741Z" fill="white"/>
<g id="input:b">
<path id="box" opacity="0.01" d="M133.036 11H119.679C116.325 11 113.607 13.6863 113.607 17V19.4C113.607 22.7137 116.325 25.4 119.679 25.4H133.036C136.389 25.4 139.107 22.7137 139.107 19.4V17C139.107 13.6863 136.389 11 133.036 11Z" fill="#D9D9D9"/>
<path id="anchor-input:b-left" opacity="0.01" d="M113.607 18.8C113.942 18.8 114.214 18.5314 114.214 18.2C114.214 17.8686 113.942 17.6 113.607 17.6C113.272 17.6 113 17.8686 113 18.2C113 18.5314 113.272 18.8 113.607 18.8Z" fill="#D9D9D9"/>
<path id="anchor-input:b-right" opacity="0.01" d="M139.107 18.8C139.442 18.8 139.714 18.5314 139.714 18.2C139.714 17.8686 139.442 17.6 139.107 17.6C138.772 17.6 138.5 17.8686 138.5 18.2C138.5 18.5314 138.772 18.8 139.107 18.8Z" fill="#D9D9D9"/>
</g>
<g id="input:a">
<path id="box_2" opacity="0.01" d="M72.5 4H29.5C17.6259 4 8 9.22334 8 15.6667V20.3333C8 26.7767 17.6259 32 29.5 32H72.5C84.3741 32 94 26.7767 94 20.3333V15.6667C94 9.22334 84.3741 4 72.5 4Z" fill="#D9D9D9"/>
<path id="anchor-input:a-left" opacity="0.01" d="M11.9287 18.6C12.264 18.6 12.5358 18.3314 12.5358 18C12.5358 17.6686 12.264 17.4 11.9287 17.4C11.5934 17.4 11.3215 17.6686 11.3215 18C11.3215 18.3314 11.5934 18.6 11.9287 18.6Z" fill="#D9D9D9"/>
<path id="anchor-input:a-right" opacity="0.01" d="M37.4287 18.6C37.764 18.6 38.0358 18.3314 38.0358 18C38.0358 17.6686 37.764 17.4 37.4287 17.4C37.0934 17.4 36.8215 17.6686 36.8215 18C36.8215 18.3314 37.0934 18.6 37.4287 18.6Z" fill="#D9D9D9"/>
</g>
<path id="anchor:input-left" opacity="0.01" d="M0.999965 18.6C1.33528 18.6 1.60711 18.3314 1.60711 18C1.60711 17.6686 1.33528 17.4 0.999965 17.4C0.664649 17.4 0.392822 17.6686 0.392822 18C0.392822 18.3314 0.664649 18.6 0.999965 18.6Z" fill="#D9D9D9"/>
<path id="anchor:input-right" opacity="0.01" d="M86 18.6C86.3353 18.6 86.6071 18.3314 86.6071 18C86.6071 17.6686 86.3353 17.4 86 17.4C85.6646 17.4 85.3928 17.6686 85.3928 18C85.3928 18.3314 85.6646 18.6 86 18.6Z" fill="#D9D9D9"/>
</g>
</svg>
