<svg width="166" height="39" viewBox="0 0 166 39" fill="none" xmlns="http://www.w3.org/2000/svg">
<g id="mod_operator">
<path id="bbox" opacity="0.01" d="M94.3033 6H10.6968V34H94.3033V6Z" fill="black"/>
<path id="border" d="M144.983 0H20.0167C9.51405 0 1 6.11131 1 13.65V25.35C1 32.8887 9.51405 39 20.0167 39H144.983C155.486 39 164 32.8887 164 25.35V13.65C164 6.11131 155.486 0 144.983 0Z" fill="white"/>
<path id="bodyStretch" d="M142.683 2H22.3167C12.2007 2 4 7.48451 4 14.25V24.75C4 31.5155 12.2007 37 22.3167 37H142.683C152.799 37 161 31.5155 161 24.75V14.25C161 7.48451 152.799 2 142.683 2Z" fill="#66C56E"/>
<path id="text" d="M107.57 22.6364V22.2528C107.57 21.9616 107.632 21.6941 107.755 21.4503C107.88 21.2041 108.062 21.0076 108.298 20.8608C108.537 20.7116 108.829 20.6371 109.172 20.6371C109.52 20.6371 109.812 20.7105 110.049 20.8572C110.288 21.004 110.468 21.2005 110.589 21.4467C110.712 21.6906 110.773 21.9593 110.773 22.2528V22.6364C110.773 22.9276 110.712 23.1963 110.589 23.4425C110.466 23.6863 110.285 23.8816 110.045 24.0284C109.806 24.1776 109.515 24.2521 109.172 24.2521C108.824 24.2521 108.531 24.1776 108.295 24.0284C108.058 23.8816 107.878 23.6863 107.755 23.4425C107.632 23.1963 107.57 22.9276 107.57 22.6364ZM108.604 22.2528V22.6364C108.604 22.8045 108.644 22.9631 108.724 23.1122C108.807 23.2614 108.956 23.3359 109.172 23.3359C109.387 23.3359 109.534 23.2625 109.612 23.1158C109.693 22.969 109.733 22.8092 109.733 22.6364V22.2528C109.733 22.08 109.695 21.919 109.619 21.7699C109.544 21.6207 109.394 21.5462 109.172 21.5462C108.959 21.5462 108.811 21.6207 108.728 21.7699C108.645 21.919 108.604 22.08 108.604 22.2528ZM103.838 18.4744V18.0909C103.838 17.7973 103.901 17.5286 104.026 17.2848C104.152 17.0386 104.333 16.8421 104.57 16.6953C104.809 16.5485 105.098 16.4751 105.436 16.4751C105.786 16.4751 106.08 16.5485 106.317 16.6953C106.554 16.8421 106.733 17.0386 106.857 17.2848C106.98 17.5286 107.041 17.7973 107.041 18.0909V18.4744C107.041 18.768 106.978 19.0367 106.853 19.2805C106.73 19.5244 106.549 19.7197 106.31 19.8665C106.073 20.0109 105.782 20.0831 105.436 20.0831C105.09 20.0831 104.798 20.0097 104.559 19.8629C104.322 19.7138 104.142 19.5185 104.019 19.277C103.898 19.0331 103.838 18.7656 103.838 18.4744ZM104.879 18.0909V18.4744C104.879 18.6473 104.919 18.8071 104.999 18.9538C105.082 19.1006 105.228 19.174 105.436 19.174C105.654 19.174 105.802 19.1006 105.88 18.9538C105.96 18.8071 106.001 18.6473 106.001 18.4744V18.0909C106.001 17.9181 105.963 17.7571 105.887 17.608C105.811 17.4588 105.661 17.3842 105.436 17.3842C105.225 17.3842 105.08 17.46 104.999 17.6115C104.919 17.763 104.879 17.9228 104.879 18.0909ZM104.307 24L109.307 16.7273H110.237L105.237 24H104.307Z" fill="white"/>
<g id="input:b">
<path id="box_2" opacity="0.01" d="M143.598 12H129.664C125.816 12 122.697 15.134 122.697 19V21.8C122.697 25.666 125.816 28.8 129.664 28.8H143.598C147.446 28.8 150.566 25.666 150.566 21.8V19C150.566 15.134 147.446 12 143.598 12Z" fill="#D9D9D9"/>
<path id="anchor-input:b-left" opacity="0.01" d="M122.697 21.1C123.082 21.1 123.393 20.7866 123.393 20.4C123.393 20.0134 123.082 19.7 122.697 19.7C122.312 19.7 122 20.0134 122 20.4C122 20.7866 122.312 21.1 122.697 21.1Z" fill="#D9D9D9"/>
<path id="anchor-input:b-right" opacity="0.01" d="M150.566 21.1C150.95 21.1 151.262 20.7866 151.262 20.4C151.262 20.0134 150.95 19.7 150.566 19.7C150.181 19.7 149.869 20.0134 149.869 20.4C149.869 20.7866 150.181 21.1 150.566 21.1Z" fill="#D9D9D9"/>
</g>
<g id="input:a">
<path id="box_2" opacity="0.01" d="M75.5 6H32.5C20.6259 6 11 11.2233 11 17.6667V22.3333C11 28.7767 20.6259 34 32.5 34H75.5C87.3741 34 97 28.7767 97 22.3333V17.6667C97 11.2233 87.3741 6 75.5 6Z" fill="#D9D9D9"/>
<path id="anchor-input:a-right" opacity="0.01" d="M97.6967 21.4C98.0815 21.4 98.3934 21.0866 98.3934 20.7C98.3934 20.3134 98.0815 20 97.6967 20C97.3119 20 97 20.3134 97 20.7C97 21.0866 97.3119 21.4 97.6967 21.4Z" fill="#D9D9D9"/>
<path id="anchor-input:a-left" opacity="0.01" d="M10.6967 20.4C11.0815 20.4 11.3934 20.0866 11.3934 19.7C11.3934 19.3134 11.0815 19 10.6967 19C10.3119 19 10 19.3134 10 19.7C10 20.0866 10.3119 20.4 10.6967 20.4Z" fill="#D9D9D9"/>
</g>
<path id="anchor:input-right" opacity="0.01" d="M164.697 21.4C165.082 21.4 165.393 21.0866 165.393 20.7C165.393 20.3134 165.082 20 164.697 20C164.312 20 164 20.3134 164 20.7C164 21.0866 164.312 21.4 164.697 21.4Z" fill="#D9D9D9"/>
<path id="anchor:input-left" opacity="0.01" d="M0.696721 21.4C1.08151 21.4 1.39344 21.0866 1.39344 20.7C1.39344 20.3134 1.08151 20 0.696721 20C0.311933 20 0 20.3134 0 20.7C0 21.0866 0.311933 21.4 0.696721 21.4Z" fill="#D9D9D9"/>
</g>
</svg>
