<svg width="158" height="49" viewBox="0 0 158 49" fill="none" xmlns="http://www.w3.org/2000/svg">
<g id="mod_operator">
<path id="block_shape" d="M0 20.4167C0 9.14095 9.14054 0 20.4167 0H136.792C148.068 0 157.208 9.14095 157.208 20.4167V28.5833C157.208 39.8591 148.068 49 136.792 49H20.4167C9.14054 49 0 39.8591 0 28.5833V20.4167Z" fill="#6BC161"/>
<g id="block_input">
<path id="text" d="M81.3523 28.3636V27.9034C81.3523 27.5852 81.4176 27.294 81.5483 27.0298C81.6818 26.7628 81.875 26.5497 82.1278 26.3906C82.3835 26.2287 82.6932 26.1477 83.0568 26.1477C83.4261 26.1477 83.7358 26.2287 83.9858 26.3906C84.2358 26.5497 84.4247 26.7628 84.5526 27.0298C84.6804 27.294 84.7443 27.5852 84.7443 27.9034V28.3636C84.7443 28.6818 84.679 28.9744 84.5483 29.2415C84.4205 29.5057 84.2301 29.7187 83.9773 29.8807C83.7273 30.0398 83.4205 30.1193 83.0568 30.1193C82.6875 30.1193 82.3764 30.0398 82.1236 29.8807C81.8707 29.7187 81.679 29.5057 81.5483 29.2415C81.4176 28.9744 81.3523 28.6818 81.3523 28.3636ZM82.2216 27.9034V28.3636C82.2216 28.6278 82.2841 28.8651 82.4091 29.0753C82.5341 29.2827 82.75 29.3864 83.0568 29.3864C83.3551 29.3864 83.5653 29.2827 83.6875 29.0753C83.8125 28.8651 83.875 28.6278 83.875 28.3636V27.9034C83.875 27.6392 83.8153 27.4034 83.696 27.196C83.5767 26.9858 83.3636 26.8807 83.0568 26.8807C82.7585 26.8807 82.544 26.9858 82.4134 27.196C82.2855 27.4034 82.2216 27.6392 82.2216 27.9034ZM77.0057 23.3693V22.9091C77.0057 22.5909 77.071 22.2997 77.2017 22.0355C77.3352 21.7685 77.5284 21.5554 77.7812 21.3963C78.0369 21.2344 78.3466 21.1534 78.7102 21.1534C79.0795 21.1534 79.3892 21.2344 79.6392 21.3963C79.8892 21.5554 80.0781 21.7685 80.206 22.0355C80.3338 22.2997 80.3977 22.5909 80.3977 22.9091V23.3693C80.3977 23.6875 80.3324 23.9801 80.2017 24.2472C80.0739 24.5114 79.8835 24.7244 79.6307 24.8864C79.3807 25.0455 79.0739 25.125 78.7102 25.125C78.3409 25.125 78.0298 25.0455 77.777 24.8864C77.5241 24.7244 77.3324 24.5114 77.2017 24.2472C77.071 23.9801 77.0057 23.6875 77.0057 23.3693ZM77.875 22.9091V23.3693C77.875 23.6335 77.9375 23.8707 78.0625 24.081C78.1875 24.2884 78.4034 24.392 78.7102 24.392C79.0085 24.392 79.2188 24.2884 79.3409 24.081C79.4659 23.8707 79.5284 23.6335 79.5284 23.3693V22.9091C79.5284 22.6449 79.4688 22.4091 79.3494 22.2017C79.2301 21.9915 79.017 21.8864 78.7102 21.8864C78.4119 21.8864 78.1974 21.9915 78.0668 22.2017C77.9389 22.4091 77.875 22.6449 77.875 22.9091ZM77.3295 30L83.3295 21.2727H84.3011L78.3011 30H77.3295Z" fill="white"/>
<path id="input_2" d="M89 23.3333C89 18.731 92.7211 15 97.3117 15H144.688C149.279 15 153 18.731 153 23.3333V26.6667C153 31.269 149.279 35 144.688 35H97.3117C92.7211 35 89 31.269 89 26.6667V23.3333Z" fill="white"/>
<path id="input_1" d="M5 23.3333C5 18.731 8.72114 15 13.3117 15H60.6883C65.2789 15 69 18.731 69 23.3333V26.6667C69 31.269 65.2789 35 60.6883 35H13.3117C8.72114 35 5 31.269 5 26.6667V23.3333Z" fill="white"/>
</g>
</g>
</svg>
