<svg width="85" height="28" viewBox="0 0 85 28" fill="none" xmlns="http://www.w3.org/2000/svg">
<g id="mod_operator">
<path id="bbox" opacity="0.01" d="M84.3033 0H0.696777V28H84.3033V0Z" fill="black"/>
<path id="bodyStretch" d="M74.5492 0H10.4509C5.06384 0 0.696777 4.38761 0.696777 9.8V18.2C0.696777 23.6124 5.06384 28 10.4509 28H74.5492C79.9363 28 84.3033 23.6124 84.3033 18.2V9.8C84.3033 4.38761 79.9363 0 74.5492 0Z" fill="#66C56E"/>
<g id="input:a">
<path id="box" opacity="0.01" d="M28.5656 5.60001H14.6312C10.7833 5.60001 7.66394 8.73401 7.66394 12.6V15.4C7.66394 19.266 10.7833 22.4 14.6312 22.4H28.5656C32.4135 22.4 35.5328 19.266 35.5328 15.4V12.6C35.5328 8.73401 32.4135 5.60001 28.5656 5.60001Z" fill="#D9D9D9"/>
<path id="anchor-input:a-left" opacity="0.01" d="M7.66388 14.7C8.04867 14.7 8.36061 14.3866 8.36061 14C8.36061 13.6134 8.04867 13.3 7.66388 13.3C7.2791 13.3 6.96716 13.6134 6.96716 14C6.96716 14.3866 7.2791 14.7 7.66388 14.7Z" fill="#D9D9D9"/>
<path id="anchor-input:a-right" opacity="0.01" d="M35.5328 14.7C35.9176 14.7 36.2295 14.3866 36.2295 14C36.2295 13.6134 35.9176 13.3 35.5328 13.3C35.148 13.3 34.8361 13.6134 34.8361 14C34.8361 14.3866 35.148 14.7 35.5328 14.7Z" fill="#D9D9D9"/>
</g>
<g id="input:b">
<path id="box_2" opacity="0.01" d="M70.3689 5.60001H56.4345C52.5866 5.60001 49.4673 8.73401 49.4673 12.6V15.4C49.4673 19.266 52.5866 22.4 56.4345 22.4H70.3689C74.2168 22.4 77.3361 19.266 77.3361 15.4V12.6C77.3361 8.73401 74.2168 5.60001 70.3689 5.60001Z" fill="#D9D9D9"/>
<path id="anchor-input:b-left" opacity="0.01" d="M49.4672 14.7C49.852 14.7 50.164 14.3866 50.164 14C50.164 13.6134 49.852 13.3 49.4672 13.3C49.0824 13.3 48.7705 13.6134 48.7705 14C48.7705 14.3866 49.0824 14.7 49.4672 14.7Z" fill="#D9D9D9"/>
<path id="anchor-input:b-right" opacity="0.01" d="M77.3361 14.7C77.7209 14.7 78.0328 14.3866 78.0328 14C78.0328 13.6134 77.7209 13.3 77.3361 13.3C76.9513 13.3 76.6394 13.6134 76.6394 14C76.6394 14.3866 76.9513 14.7 77.3361 14.7Z" fill="#D9D9D9"/>
</g>
<path id="anchor:input-left" opacity="0.01" d="M0.696721 14.7C1.08151 14.7 1.39344 14.3866 1.39344 14C1.39344 13.6134 1.08151 13.3 0.696721 13.3C0.311933 13.3 0 13.6134 0 14C0 14.3866 0.311933 14.7 0.696721 14.7Z" fill="#D9D9D9"/>
<path id="anchor:input-right" opacity="0.01" d="M84.3033 14.7C84.6881 14.7 85 14.3866 85 14C85 13.6134 84.6881 13.3 84.3033 13.3C83.9185 13.3 83.6066 13.6134 83.6066 14C83.6066 14.3866 83.9185 14.7 84.3033 14.7Z" fill="#D9D9D9"/>
<path id="text" d="M42.2834 16.0364V15.6528C42.2834 15.3616 42.345 15.0941 42.4681 14.8503C42.5936 14.6041 42.7747 14.4076 43.0114 14.2608C43.2505 14.1116 43.5417 14.0371 43.885 14.0371C44.233 14.0371 44.5254 14.1105 44.7621 14.2572C45.0013 14.404 45.1812 14.6005 45.3019 14.8467C45.425 15.0906 45.4866 15.3593 45.4866 15.6528V16.0364C45.4866 16.3276 45.425 16.5963 45.3019 16.8425C45.1788 17.0863 44.9977 17.2816 44.7586 17.4284C44.5195 17.5776 44.2283 17.6521 43.885 17.6521C43.537 17.6521 43.2446 17.5776 43.0079 17.4284C42.7711 17.2816 42.5912 17.0863 42.4681 16.8425C42.345 16.5963 42.2834 16.3276 42.2834 16.0364ZM43.3168 15.6528V16.0364C43.3168 16.2044 43.3571 16.3631 43.4376 16.5122C43.5204 16.6614 43.6696 16.7359 43.885 16.7359C44.1004 16.7359 44.2472 16.6625 44.3254 16.5158C44.4058 16.369 44.4461 16.2092 44.4461 16.0364V15.6528C44.4461 15.48 44.4082 15.319 44.3325 15.1699C44.2567 15.0207 44.1075 14.9462 43.885 14.9462C43.6719 14.9462 43.524 15.0207 43.4411 15.1699C43.3583 15.319 43.3168 15.48 43.3168 15.6528ZM38.5512 11.8744V11.4909C38.5512 11.1973 38.6139 10.9286 38.7394 10.6848C38.8649 10.4386 39.046 10.2421 39.2827 10.0953C39.5218 9.94853 39.8107 9.87514 40.1492 9.87514C40.4996 9.87514 40.7932 9.94853 41.0299 10.0953C41.2666 10.2421 41.4466 10.4386 41.5697 10.6848C41.6928 10.9286 41.7543 11.1973 41.7543 11.4909V11.8744C41.7543 12.168 41.6916 12.4367 41.5661 12.6805C41.443 12.9244 41.2619 13.1197 41.0228 13.2665C40.7861 13.4109 40.4949 13.4831 40.1492 13.4831C39.8036 13.4831 39.5112 13.4097 39.2721 13.2629C39.0353 13.1138 38.8554 12.9185 38.7323 12.677C38.6116 12.4331 38.5512 12.1656 38.5512 11.8744ZM39.5917 11.4909V11.8744C39.5917 12.0472 39.6319 12.207 39.7124 12.3538C39.7953 12.5006 39.9409 12.574 40.1492 12.574C40.367 12.574 40.515 12.5006 40.5931 12.3538C40.6736 12.207 40.7138 12.0472 40.7138 11.8744V11.4909C40.7138 11.3181 40.676 11.1571 40.6002 11.0079C40.5245 10.8588 40.3741 10.7842 40.1492 10.7842C39.9385 10.7842 39.7929 10.86 39.7124 11.0115C39.6319 11.163 39.5917 11.3228 39.5917 11.4909ZM39.02 17.4L44.02 10.1273H44.9504L39.9504 17.4H39.02Z" fill="white"/>
</g>
</svg>
