<svg width="166" height="39" viewBox="0 0 166 39" fill="none" xmlns="http://www.w3.org/2000/svg">
<g id="mod_operator">
<path id="bbox" opacity="0.01" d="M94.3033 6H10.6968V34H94.3033V6Z" fill="black"/>
<path id="border" d="M144.983 0H20.0167C9.51405 0 1 6.11131 1 13.65V25.35C1 32.8887 9.51405 39 20.0167 39H144.983C155.486 39 164 32.8887 164 25.35V13.65C164 6.11131 155.486 0 144.983 0Z" fill="white"/>
<path id="bodyStretch" d="M142.683 2H22.3167C12.2007 2 4 7.48451 4 14.25V24.75C4 31.5155 12.2007 37 22.3167 37H142.683C152.799 37 161 31.5155 161 24.75V14.25C161 7.48451 152.799 2 142.683 2Z" fill="#66C56E"/>
<path id="text" d="M109.855 25.9545V25.3793C109.855 24.9425 109.948 24.5412 110.132 24.1754C110.321 23.8061 110.592 23.5114 110.947 23.2912C111.306 23.0675 111.743 22.9556 112.258 22.9556C112.78 22.9556 113.218 23.0657 113.574 23.2859C113.932 23.506 114.202 23.8008 114.383 24.1701C114.568 24.5359 114.66 24.9389 114.66 25.3793V25.9545C114.66 26.3913 114.568 26.7944 114.383 27.1637C114.199 27.5295 113.927 27.8224 113.568 28.0426C113.21 28.2663 112.773 28.3782 112.258 28.3782C111.736 28.3782 111.297 28.2663 110.942 28.0426C110.587 27.8224 110.317 27.5295 110.132 27.1637C109.948 26.7944 109.855 26.3913 109.855 25.9545ZM111.406 25.3793V25.9545C111.406 26.2067 111.466 26.4446 111.587 26.6683C111.711 26.892 111.935 27.0039 112.258 27.0039C112.581 27.0039 112.801 26.8938 112.918 26.6737C113.039 26.4535 113.099 26.2138 113.099 25.9545V25.3793C113.099 25.12 113.043 24.8786 112.929 24.6548C112.815 24.4311 112.592 24.3192 112.258 24.3192C111.938 24.3192 111.716 24.4311 111.592 24.6548C111.468 24.8786 111.406 25.12 111.406 25.3793ZM104.257 19.7116V19.1364C104.257 18.696 104.351 18.293 104.539 17.9272C104.728 17.5579 104.999 17.2631 105.354 17.043C105.713 16.8228 106.146 16.7127 106.654 16.7127C107.18 16.7127 107.62 16.8228 107.975 17.043C108.33 17.2631 108.6 17.5579 108.785 17.9272C108.969 18.293 109.062 18.696 109.062 19.1364V19.7116C109.062 20.152 108.968 20.555 108.779 20.9208C108.595 21.2866 108.323 21.5795 107.964 21.7997C107.609 22.0163 107.173 22.1246 106.654 22.1246C106.136 22.1246 105.697 22.0146 105.338 21.7944C104.983 21.5707 104.713 21.2777 104.529 20.9155C104.348 20.5497 104.257 20.1484 104.257 19.7116ZM105.818 19.1364V19.7116C105.818 19.9709 105.878 20.2106 105.999 20.4308C106.123 20.6509 106.342 20.761 106.654 20.761C106.981 20.761 107.203 20.6509 107.32 20.4308C107.441 20.2106 107.501 19.9709 107.501 19.7116V19.1364C107.501 18.8771 107.444 18.6357 107.331 18.4119C107.217 18.1882 106.991 18.0763 106.654 18.0763C106.338 18.0763 106.12 18.19 105.999 18.4173C105.878 18.6445 105.818 18.8842 105.818 19.1364ZM104.96 28L112.46 17.0909H113.856L106.356 28H104.96Z" fill="white"/>
<g id="input:b">
<path id="box" opacity="0.01" d="M143.598 12H129.664C125.816 12 122.697 15.134 122.697 19V21.8C122.697 25.666 125.816 28.8 129.664 28.8H143.598C147.446 28.8 150.566 25.666 150.566 21.8V19C150.566 15.134 147.446 12 143.598 12Z" fill="#D9D9D9"/>
<path id="anchor-input:b-left" opacity="0.01" d="M122.697 21.1C123.082 21.1 123.393 20.7866 123.393 20.4C123.393 20.0134 123.082 19.7 122.697 19.7C122.312 19.7 122 20.0134 122 20.4C122 20.7866 122.312 21.1 122.697 21.1Z" fill="#D9D9D9"/>
<path id="anchor-input:b-right" opacity="0.01" d="M150.566 21.1C150.95 21.1 151.262 20.7866 151.262 20.4C151.262 20.0134 150.95 19.7 150.566 19.7C150.181 19.7 149.869 20.0134 149.869 20.4C149.869 20.7866 150.181 21.1 150.566 21.1Z" fill="#D9D9D9"/>
</g>
<g id="input:a">
<path id="box_2" opacity="0.01" d="M75.5 6H32.5C20.6259 6 11 11.2233 11 17.6667V22.3333C11 28.7767 20.6259 34 32.5 34H75.5C87.3741 34 97 28.7767 97 22.3333V17.6667C97 11.2233 87.3741 6 75.5 6Z" fill="#D9D9D9"/>
<path id="anchor-input:a-right" opacity="0.01" d="M97.6967 21.4C98.0815 21.4 98.3934 21.0866 98.3934 20.7C98.3934 20.3134 98.0815 20 97.6967 20C97.3119 20 97 20.3134 97 20.7C97 21.0866 97.3119 21.4 97.6967 21.4Z" fill="#D9D9D9"/>
<path id="anchor-input:a-left" opacity="0.01" d="M10.6967 20.4C11.0815 20.4 11.3934 20.0866 11.3934 19.7C11.3934 19.3134 11.0815 19 10.6967 19C10.3119 19 10 19.3134 10 19.7C10 20.0866 10.3119 20.4 10.6967 20.4Z" fill="#D9D9D9"/>
</g>
<path id="anchor:input-right" opacity="0.01" d="M164.697 21.4C165.082 21.4 165.393 21.0866 165.393 20.7C165.393 20.3134 165.082 20 164.697 20C164.312 20 164 20.3134 164 20.7C164 21.0866 164.312 21.4 164.697 21.4Z" fill="#D9D9D9"/>
<path id="anchor:input-left" opacity="0.01" d="M0.696721 21.4C1.08151 21.4 1.39344 21.0866 1.39344 20.7C1.39344 20.3134 1.08151 20 0.696721 20C0.311933 20 0 20.3134 0 20.7C0 21.0866 0.311933 21.4 0.696721 21.4Z" fill="#D9D9D9"/>
</g>
</svg>
