<svg width="87" height="30" viewBox="0 0 87 30" fill="none" xmlns="http://www.w3.org/2000/svg">
<g id="mod_operator_menu">
<path id="bbox" opacity="0.01" d="M85.3033 1H1.69678V29H85.3033V1Z" fill="black"/>
<path id="border" d="M76.85 0H10.15C4.54431 0 0 4.70101 0 10.5V19.5C0 25.299 4.54431 30 10.15 30H76.85C82.4557 30 87 25.299 87 19.5V10.5C87 4.70101 82.4557 0 76.85 0Z" fill="white"/>
<path id="bodyStretch" d="M74.4333 2H11.5667C6.28314 2 2 6.07421 2 11.1V18.9C2 23.9258 6.28314 28 11.5667 28H74.4333C79.7169 28 84 23.9258 84 18.9V11.1C84 6.07421 79.7169 2 74.4333 2Z" fill="#66C56E"/>
<g id="input:a">
<path id="box" d="M29.5657 6.60001H15.6313C11.7834 6.60001 8.66406 9.73401 8.66406 13.6V16.4C8.66406 20.266 11.7834 23.4 15.6313 23.4H29.5657C33.4136 23.4 36.5329 20.266 36.5329 16.4V13.6C36.5329 9.73401 33.4136 6.60001 29.5657 6.60001Z" fill="white"/>
<path id="anchor-input:a-left" opacity="0.01" d="M8.66401 15.7C9.0488 15.7 9.36073 15.3866 9.36073 15C9.36073 14.6134 9.0488 14.3 8.66401 14.3C8.27922 14.3 7.96729 14.6134 7.96729 15C7.96729 15.3866 8.27922 15.7 8.66401 15.7Z" fill="#D9D9D9"/>
<path id="anchor-input:a-right" opacity="0.01" d="M36.5329 15.7C36.9177 15.7 37.2296 15.3866 37.2296 15C37.2296 14.6134 36.9177 14.3 36.5329 14.3C36.1481 14.3 35.8362 14.6134 35.8362 15C35.8362 15.3866 36.1481 15.7 36.5329 15.7Z" fill="#D9D9D9"/>
</g>
<g id="input:b">
<path id="box_2" d="M71.3689 6.60001H57.4345C53.5866 6.60001 50.4673 9.73401 50.4673 13.6V16.4C50.4673 20.266 53.5866 23.4 57.4345 23.4H71.3689C75.2168 23.4 78.3361 20.266 78.3361 16.4V13.6C78.3361 9.73401 75.2168 6.60001 71.3689 6.60001Z" fill="white"/>
<path id="anchor-input:b-left" opacity="0.01" d="M50.4672 15.7C50.852 15.7 51.164 15.3866 51.164 15C51.164 14.6134 50.852 14.3 50.4672 14.3C50.0824 14.3 49.7705 14.6134 49.7705 15C49.7705 15.3866 50.0824 15.7 50.4672 15.7Z" fill="#D9D9D9"/>
<path id="anchor-input:b-right" opacity="0.01" d="M78.3361 15.7C78.7209 15.7 79.0328 15.3866 79.0328 15C79.0328 14.6134 78.7209 14.3 78.3361 14.3C77.9513 14.3 77.6394 14.6134 77.6394 15C77.6394 15.3866 77.9513 15.7 78.3361 15.7Z" fill="#D9D9D9"/>
</g>
<path id="anchor:input-left" opacity="0.01" d="M1.69672 15.7C2.08151 15.7 2.39344 15.3866 2.39344 15C2.39344 14.6134 2.08151 14.3 1.69672 14.3C1.31193 14.3 1 14.6134 1 15C1 15.3866 1.31193 15.7 1.69672 15.7Z" fill="#D9D9D9"/>
<path id="anchor:input-right" opacity="0.01" d="M85.3032 15.7C85.688 15.7 85.9999 15.3866 85.9999 15C85.9999 14.6134 85.688 14.3 85.3032 14.3C84.9184 14.3 84.6064 14.6134 84.6064 15C84.6064 15.3866 84.9184 15.7 85.3032 15.7Z" fill="#D9D9D9"/>
<path id="text" d="M44.1975 17.7636V17.3034C44.1975 16.954 44.2714 16.6329 44.4191 16.3403C44.5697 16.0449 44.787 15.8091 45.0711 15.6329C45.358 15.454 45.7075 15.3645 46.1194 15.3645C46.537 15.3645 46.8879 15.4526 47.1719 15.6287C47.4589 15.8048 47.6748 16.0406 47.8197 16.3361C47.9674 16.6287 48.0413 16.9511 48.0413 17.3034V17.7636C48.0413 18.1131 47.9674 18.4355 47.8197 18.731C47.6719 19.0236 47.4546 19.2579 47.1677 19.4341C46.8807 19.6131 46.5313 19.7026 46.1194 19.7026C45.7018 19.7026 45.3509 19.6131 45.0668 19.4341C44.7827 19.2579 44.5668 19.0236 44.4191 18.731C44.2714 18.4355 44.1975 18.1131 44.1975 17.7636ZM45.4376 17.3034V17.7636C45.4376 17.9653 45.4859 18.1557 45.5825 18.3347C45.6819 18.5136 45.8609 18.6031 46.1194 18.6031C46.3779 18.6031 46.554 18.5151 46.6478 18.3389C46.7444 18.1628 46.7927 17.971 46.7927 17.7636V17.3034C46.7927 17.096 46.7472 16.9028 46.6563 16.7239C46.5654 16.5449 46.3864 16.4554 46.1194 16.4554C45.8637 16.4554 45.6861 16.5449 45.5867 16.7239C45.4873 16.9028 45.4376 17.096 45.4376 17.3034ZM39.7188 12.7693V12.3091C39.7188 11.9568 39.7941 11.6344 39.9447 11.3418C40.0952 11.0463 40.3126 10.8105 40.5967 10.6344C40.8836 10.4582 41.2302 10.3702 41.6364 10.3702C42.0569 10.3702 42.4092 10.4582 42.6932 10.6344C42.9773 10.8105 43.1932 11.0463 43.341 11.3418C43.4887 11.6344 43.5626 11.9568 43.5626 12.3091V12.7693C43.5626 13.1216 43.4873 13.444 43.3367 13.7366C43.189 14.0293 42.9717 14.2636 42.6847 14.4398C42.4006 14.6131 42.0512 14.6997 41.6364 14.6997C41.2217 14.6997 40.8708 14.6116 40.5839 14.4355C40.2998 14.2565 40.0839 14.0222 39.9361 13.7324C39.7913 13.4398 39.7188 13.1187 39.7188 12.7693ZM40.9674 12.3091V12.7693C40.9674 12.9767 41.0157 13.1685 41.1123 13.3446C41.2117 13.5207 41.3864 13.6088 41.6364 13.6088C41.8978 13.6088 42.0754 13.5207 42.1691 13.3446C42.2657 13.1685 42.314 12.9767 42.314 12.7693V12.3091C42.314 12.1017 42.2685 11.9085 42.1776 11.7295C42.0867 11.5506 41.9063 11.4611 41.6364 11.4611C41.3836 11.4611 41.2089 11.552 41.1123 11.7338C41.0157 11.9156 40.9674 12.1074 40.9674 12.3091ZM40.2813 19.4L46.2813 10.6727H47.3978L41.3978 19.4H40.2813Z" fill="white"/>
</g>
</svg>
