<svg width="257" height="156" viewBox="0 0 257 156" fill="none" xmlns="http://www.w3.org/2000/svg">
<g id="move">
<g id="block_shape">
<rect id="next_block_arrowbody" x="117" y="95" width="22" height="22" fill="#369CF4"/>
<path id="next_block_arrowhead" d="M127.5 151L153.048 116.5H101.952L127.5 151Z" fill="#369CF4"/>
<g id="prev_block_connector">
<path d="M127.5 36H102V2H102.322L127.5 36Z" fill="#369CF4"/>
<path d="M153 36H127.5L152.678 2H153V36Z" fill="#369CF4"/>
</g>
<path id="block_body" d="M14 52.5421C14 43.4061 27.0314 36 43.1064 36H212.894C228.969 36 242 43.4061 242 52.5421V78.4579C242 87.5939 228.969 95 212.894 95H43.1064C27.0314 95 14 87.5939 14 78.4579V52.5421Z" fill="#369CF4"/>
</g>
<g id="block_input">
<rect id="input_constant" x="88" y="54" width="77" height="24" rx="10" fill="white"/>
<path id="move_text" d="M52.7244 71V64.4545H54.4545V65.6094H54.5312C54.6676 65.2259 54.8949 64.9233 55.2131 64.7017C55.5312 64.4801 55.9119 64.3693 56.3551 64.3693C56.804 64.3693 57.1861 64.4815 57.5014 64.706C57.8168 64.9276 58.027 65.2287 58.1321 65.6094H58.2003C58.3338 65.2344 58.5753 64.9347 58.9247 64.7102C59.277 64.483 59.6932 64.3693 60.1733 64.3693C60.7841 64.3693 61.2798 64.5639 61.6605 64.9531C62.044 65.3395 62.2358 65.8878 62.2358 66.598V71H60.4247V66.956C60.4247 66.5923 60.3281 66.3196 60.1349 66.1378C59.9418 65.956 59.7003 65.8651 59.4105 65.8651C59.081 65.8651 58.8239 65.9702 58.6392 66.1804C58.4545 66.3878 58.3622 66.6619 58.3622 67.0028V71H56.6023V66.9176C56.6023 66.5966 56.5099 66.3409 56.3253 66.1506C56.1435 65.9602 55.9034 65.8651 55.6051 65.8651C55.4034 65.8651 55.2216 65.9162 55.0597 66.0185C54.9006 66.1179 54.7741 66.2585 54.6804 66.4403C54.5866 66.6193 54.5398 66.8295 54.5398 67.071V71H52.7244ZM66.6271 71.1278C65.9652 71.1278 65.3928 70.9872 64.9098 70.706C64.4297 70.4219 64.0589 70.027 63.7976 69.5213C63.5362 69.0128 63.4055 68.4233 63.4055 67.7528C63.4055 67.0767 63.5362 66.4858 63.7976 65.9801C64.0589 65.4716 64.4297 65.0767 64.9098 64.7955C65.3928 64.5114 65.9652 64.3693 66.6271 64.3693C67.2891 64.3693 67.8601 64.5114 68.3402 64.7955C68.8232 65.0767 69.1953 65.4716 69.4567 65.9801C69.718 66.4858 69.8487 67.0767 69.8487 67.7528C69.8487 68.4233 69.718 69.0128 69.4567 69.5213C69.1953 70.027 68.8232 70.4219 68.3402 70.706C67.8601 70.9872 67.2891 71.1278 66.6271 71.1278ZM66.6357 69.7216C66.9368 69.7216 67.1882 69.6364 67.3899 69.4659C67.5916 69.2926 67.7436 69.0568 67.8459 68.7585C67.951 68.4602 68.0036 68.1207 68.0036 67.7401C68.0036 67.3594 67.951 67.0199 67.8459 66.7216C67.7436 66.4233 67.5916 66.1875 67.3899 66.0142C67.1882 65.8409 66.9368 65.7543 66.6357 65.7543C66.3317 65.7543 66.076 65.8409 65.8686 66.0142C65.6641 66.1875 65.5092 66.4233 65.4041 66.7216C65.3018 67.0199 65.2507 67.3594 65.2507 67.7401C65.2507 68.1207 65.3018 68.4602 65.4041 68.7585C65.5092 69.0568 65.6641 69.2926 65.8686 69.4659C66.076 69.6364 66.3317 69.7216 66.6357 69.7216ZM76.9205 64.4545L74.6321 71H72.5866L70.2983 64.4545H72.2159L73.5753 69.1378H73.6435L74.9986 64.4545H76.9205ZM80.6214 71.1278C79.9482 71.1278 79.3686 70.9915 78.8828 70.7188C78.3999 70.4432 78.0277 70.054 77.7663 69.5511C77.505 69.0455 77.3743 68.4474 77.3743 67.7571C77.3743 67.0838 77.505 66.4929 77.7663 65.9844C78.0277 65.4759 78.3956 65.0795 78.87 64.7955C79.3473 64.5114 79.907 64.3693 80.549 64.3693C80.9808 64.3693 81.3828 64.4389 81.755 64.5781C82.13 64.7145 82.4567 64.9205 82.7351 65.196C83.0163 65.4716 83.2351 65.8182 83.3913 66.2358C83.5476 66.6506 83.6257 67.1364 83.6257 67.6932V68.1918H78.0987V67.0668H81.9169C81.9169 66.8054 81.8601 66.5739 81.7464 66.3722C81.6328 66.1705 81.4751 66.0128 81.2734 65.8991C81.0746 65.7827 80.843 65.7244 80.5788 65.7244C80.3033 65.7244 80.0589 65.7884 79.8459 65.9162C79.6357 66.0412 79.4709 66.2102 79.3516 66.4233C79.2322 66.6335 79.1712 66.8679 79.1683 67.1264V68.196C79.1683 68.5199 79.228 68.7997 79.3473 69.0355C79.4695 69.2713 79.6413 69.4531 79.8629 69.581C80.0845 69.7088 80.3473 69.7727 80.6513 69.7727C80.853 69.7727 81.0376 69.7443 81.2053 69.6875C81.3729 69.6307 81.5163 69.5455 81.6357 69.4318C81.755 69.3182 81.8459 69.179 81.9084 69.0142L83.5874 69.125C83.5021 69.5284 83.3274 69.8807 83.0632 70.1818C82.8018 70.4801 82.4638 70.7131 82.049 70.8807C81.6371 71.0455 81.1612 71.1278 80.6214 71.1278Z" fill="white"/>
<path id="steps_text" d="M177.17 66.321L175.509 66.4233C175.48 66.2812 175.419 66.1534 175.325 66.0398C175.232 65.9233 175.108 65.831 174.955 65.7628C174.804 65.6918 174.624 65.6562 174.413 65.6562C174.132 65.6562 173.895 65.7159 173.702 65.8352C173.509 65.9517 173.412 66.108 173.412 66.304C173.412 66.4602 173.474 66.5923 173.599 66.7003C173.724 66.8082 173.939 66.8949 174.243 66.9602L175.428 67.1989C176.064 67.3295 176.538 67.5398 176.851 67.8295C177.163 68.1193 177.32 68.5 177.32 68.9716C177.32 69.4006 177.193 69.777 176.94 70.1009C176.69 70.4247 176.347 70.6776 175.909 70.8594C175.474 71.0384 174.973 71.1278 174.405 71.1278C173.538 71.1278 172.848 70.9474 172.334 70.5866C171.822 70.223 171.523 69.7287 171.435 69.1037L173.22 69.0099C173.274 69.2741 173.405 69.4759 173.612 69.6151C173.82 69.7514 174.085 69.8196 174.409 69.8196C174.727 69.8196 174.983 69.7585 175.176 69.6364C175.372 69.5114 175.472 69.3509 175.474 69.1548C175.472 68.9901 175.402 68.8551 175.266 68.75C175.129 68.642 174.919 68.5597 174.635 68.5028L173.501 68.277C172.862 68.1491 172.386 67.9276 172.074 67.6122C171.764 67.2969 171.609 66.8949 171.609 66.4062C171.609 65.9858 171.723 65.6236 171.95 65.3196C172.18 65.0156 172.503 64.7812 172.918 64.6165C173.335 64.4517 173.824 64.3693 174.384 64.3693C175.21 64.3693 175.861 64.544 176.335 64.8935C176.813 65.2429 177.091 65.7187 177.17 66.321ZM181.944 64.4545V65.8182H178.002V64.4545H181.944ZM178.897 62.8864H180.713V68.9886C180.713 69.1562 180.738 69.2869 180.789 69.3807C180.841 69.4716 180.912 69.5355 181.002 69.5724C181.096 69.6094 181.204 69.6278 181.326 69.6278C181.412 69.6278 181.497 69.6207 181.582 69.6065C181.667 69.5895 181.733 69.5767 181.778 69.5682L182.064 70.919C181.973 70.9474 181.845 70.9801 181.68 71.017C181.515 71.0568 181.315 71.081 181.079 71.0895C180.642 71.1065 180.258 71.0483 179.929 70.9148C179.602 70.7812 179.348 70.5739 179.166 70.2926C178.984 70.0114 178.895 69.6562 178.897 69.2273V62.8864ZM186.039 71.1278C185.366 71.1278 184.787 70.9915 184.301 70.7188C183.818 70.4432 183.446 70.054 183.184 69.5511C182.923 69.0455 182.792 68.4474 182.792 67.7571C182.792 67.0838 182.923 66.4929 183.184 65.9844C183.446 65.4759 183.814 65.0795 184.288 64.7955C184.765 64.5114 185.325 64.3693 185.967 64.3693C186.399 64.3693 186.801 64.4389 187.173 64.5781C187.548 64.7145 187.875 64.9205 188.153 65.196C188.434 65.4716 188.653 65.8182 188.809 66.2358C188.966 66.6506 189.044 67.1364 189.044 67.6932V68.1918H183.517V67.0668H187.335C187.335 66.8054 187.278 66.5739 187.164 66.3722C187.051 66.1705 186.893 66.0128 186.691 65.8991C186.493 65.7827 186.261 65.7244 185.997 65.7244C185.721 65.7244 185.477 65.7884 185.264 65.9162C185.054 66.0412 184.889 66.2102 184.77 66.4233C184.65 66.6335 184.589 66.8679 184.586 67.1264V68.196C184.586 68.5199 184.646 68.7997 184.765 69.0355C184.887 69.2713 185.059 69.4531 185.281 69.581C185.502 69.7088 185.765 69.7727 186.069 69.7727C186.271 69.7727 186.456 69.7443 186.623 69.6875C186.791 69.6307 186.934 69.5455 187.054 69.4318C187.173 69.3182 187.264 69.179 187.326 69.0142L189.005 69.125C188.92 69.5284 188.745 69.8807 188.481 70.1818C188.22 70.4801 187.882 70.7131 187.467 70.8807C187.055 71.0455 186.579 71.1278 186.039 71.1278ZM190.228 73.4545V64.4545H192.018V65.554H192.099C192.179 65.3778 192.294 65.1989 192.444 65.017C192.598 64.8324 192.797 64.679 193.041 64.5568C193.288 64.4318 193.595 64.3693 193.961 64.3693C194.439 64.3693 194.879 64.4943 195.282 64.7443C195.686 64.9915 196.008 65.3651 196.25 65.8651C196.491 66.3622 196.612 66.9858 196.612 67.7358C196.612 68.4659 196.494 69.0824 196.258 69.5852C196.025 70.0852 195.707 70.4645 195.304 70.723C194.903 70.9787 194.454 71.1065 193.957 71.1065C193.605 71.1065 193.305 71.0483 193.058 70.9318C192.814 70.8153 192.613 70.669 192.457 70.4929C192.301 70.3139 192.181 70.1335 192.099 69.9517H192.044V73.4545H190.228ZM192.005 67.7273C192.005 68.1165 192.059 68.456 192.167 68.7457C192.275 69.0355 192.431 69.2614 192.636 69.4233C192.841 69.5824 193.089 69.6619 193.382 69.6619C193.677 69.6619 193.927 69.581 194.132 69.419C194.336 69.2543 194.491 69.027 194.596 68.7372C194.704 68.4446 194.758 68.108 194.758 67.7273C194.758 67.3494 194.706 67.017 194.6 66.7301C194.495 66.4432 194.341 66.2187 194.136 66.0568C193.931 65.8949 193.68 65.8139 193.382 65.8139C193.086 65.8139 192.836 65.892 192.632 66.0483C192.43 66.2045 192.275 66.4261 192.167 66.7131C192.059 67 192.005 67.3381 192.005 67.7273ZM203.268 66.321L201.606 66.4233C201.578 66.2812 201.517 66.1534 201.423 66.0398C201.329 65.9233 201.206 65.831 201.052 65.7628C200.902 65.6918 200.721 65.6562 200.511 65.6562C200.23 65.6562 199.993 65.7159 199.799 65.8352C199.606 65.9517 199.51 66.108 199.51 66.304C199.51 66.4602 199.572 66.5923 199.697 66.7003C199.822 66.8082 200.037 66.8949 200.341 66.9602L201.525 67.1989C202.162 67.3295 202.636 67.5398 202.949 67.8295C203.261 68.1193 203.417 68.5 203.417 68.9716C203.417 69.4006 203.291 69.777 203.038 70.1009C202.788 70.4247 202.444 70.6776 202.007 70.8594C201.572 71.0384 201.071 71.1278 200.502 71.1278C199.636 71.1278 198.946 70.9474 198.431 70.5866C197.92 70.223 197.62 69.7287 197.532 69.1037L199.318 69.0099C199.372 69.2741 199.502 69.4759 199.71 69.6151C199.917 69.7514 200.183 69.8196 200.507 69.8196C200.825 69.8196 201.081 69.7585 201.274 69.6364C201.47 69.5114 201.569 69.3509 201.572 69.1548C201.569 68.9901 201.5 68.8551 201.363 68.75C201.227 68.642 201.017 68.5597 200.733 68.5028L199.599 68.277C198.96 68.1491 198.484 67.9276 198.172 67.6122C197.862 67.2969 197.707 66.8949 197.707 66.4062C197.707 65.9858 197.821 65.6236 198.048 65.3196C198.278 65.0156 198.6 64.7812 199.015 64.6165C199.433 64.4517 199.922 64.3693 200.481 64.3693C201.308 64.3693 201.958 64.544 202.433 64.8935C202.91 65.2429 203.189 65.7187 203.268 66.321Z" fill="white"/>
</g>
</g>
</svg>
