<svg width="248" height="132" viewBox="0 0 248 132" fill="none" xmlns="http://www.w3.org/2000/svg">
<g id="move">
<path id="anchor:next" opacity="0.01" d="M123 132C123.552 132 124 131.552 124 131C124 130.448 123.552 130 123 130C122.448 130 122 130.448 122 131C122 131.552 122.448 132 123 132Z" fill="#D9D9D9"/>
<g id="arrowHead">
<g id="border">
<path id="Vector" d="M123 131L148 106H98L123 131Z" fill="white"/>
<path id="Vector_2" d="M123 126L143 106H103L123 126Z" fill="white"/>
</g>
<g id="tip">
<path id="Vector_3" d="M123 126L143 106H103L123 126Z" fill="#42A5F5"/>
<path id="Vector_4" d="M123 122L139 106H107L123 122Z" fill="#42A5F5"/>
</g>
<path id="shaft" d="M135.048 84H113.048V106H135.048V84Z" fill="#42A5F5"/>
</g>
<path id="bodyStretch" d="M0 41.5421C0 32.4061 14.1745 25 31.6596 25H216.341C233.826 25 248 32.4061 248 41.5421V67.4579C248 76.5939 233.826 84 216.341 84H31.6596C14.1745 84 0 76.5939 0 67.4579V41.5421Z" fill="#42A5F5"/>
<path id="text" d="M42.7244 60V53.4545H44.4545V54.6094H44.5312C44.6676 54.2259 44.8949 53.9233 45.2131 53.7017C45.5312 53.4801 45.9119 53.3693 46.3551 53.3693C46.804 53.3693 47.1861 53.4815 47.5014 53.706C47.8168 53.9276 48.027 54.2287 48.1321 54.6094H48.2003C48.3338 54.2344 48.5753 53.9347 48.9247 53.7102C49.277 53.483 49.6932 53.3693 50.1733 53.3693C50.7841 53.3693 51.2798 53.5639 51.6605 53.9531C52.044 54.3395 52.2358 54.8878 52.2358 55.598V60H50.4247V55.956C50.4247 55.5923 50.3281 55.3196 50.1349 55.1378C49.9418 54.956 49.7003 54.8651 49.4105 54.8651C49.081 54.8651 48.8239 54.9702 48.6392 55.1804C48.4545 55.3878 48.3622 55.6619 48.3622 56.0028V60H46.6023V55.9176C46.6023 55.5966 46.5099 55.3409 46.3253 55.1506C46.1435 54.9602 45.9034 54.8651 45.6051 54.8651C45.4034 54.8651 45.2216 54.9162 45.0597 55.0185C44.9006 55.1179 44.7741 55.2585 44.6804 55.4403C44.5866 55.6193 44.5398 55.8295 44.5398 56.071V60H42.7244ZM56.6271 60.1278C55.9652 60.1278 55.3928 59.9872 54.9098 59.706C54.4297 59.4219 54.0589 59.027 53.7976 58.5213C53.5362 58.0128 53.4055 57.4233 53.4055 56.7528C53.4055 56.0767 53.5362 55.4858 53.7976 54.9801C54.0589 54.4716 54.4297 54.0767 54.9098 53.7955C55.3928 53.5114 55.9652 53.3693 56.6271 53.3693C57.2891 53.3693 57.8601 53.5114 58.3402 53.7955C58.8232 54.0767 59.1953 54.4716 59.4567 54.9801C59.718 55.4858 59.8487 56.0767 59.8487 56.7528C59.8487 57.4233 59.718 58.0128 59.4567 58.5213C59.1953 59.027 58.8232 59.4219 58.3402 59.706C57.8601 59.9872 57.2891 60.1278 56.6271 60.1278ZM56.6357 58.7216C56.9368 58.7216 57.1882 58.6364 57.3899 58.4659C57.5916 58.2926 57.7436 58.0568 57.8459 57.7585C57.951 57.4602 58.0036 57.1207 58.0036 56.7401C58.0036 56.3594 57.951 56.0199 57.8459 55.7216C57.7436 55.4233 57.5916 55.1875 57.3899 55.0142C57.1882 54.8409 56.9368 54.7543 56.6357 54.7543C56.3317 54.7543 56.076 54.8409 55.8686 55.0142C55.6641 55.1875 55.5092 55.4233 55.4041 55.7216C55.3018 56.0199 55.2507 56.3594 55.2507 56.7401C55.2507 57.1207 55.3018 57.4602 55.4041 57.7585C55.5092 58.0568 55.6641 58.2926 55.8686 58.4659C56.076 58.6364 56.3317 58.7216 56.6357 58.7216ZM66.9205 53.4545L64.6321 60H62.5866L60.2983 53.4545H62.2159L63.5753 58.1378H63.6435L64.9986 53.4545H66.9205ZM70.6214 60.1278C69.9482 60.1278 69.3686 59.9915 68.8828 59.7188C68.3999 59.4432 68.0277 59.054 67.7663 58.5511C67.505 58.0455 67.3743 57.4474 67.3743 56.7571C67.3743 56.0838 67.505 55.4929 67.7663 54.9844C68.0277 54.4759 68.3956 54.0795 68.87 53.7955C69.3473 53.5114 69.907 53.3693 70.549 53.3693C70.9808 53.3693 71.3828 53.4389 71.755 53.5781C72.13 53.7145 72.4567 53.9205 72.7351 54.196C73.0163 54.4716 73.2351 54.8182 73.3913 55.2358C73.5476 55.6506 73.6257 56.1364 73.6257 56.6932V57.1918H68.0987V56.0668H71.9169C71.9169 55.8054 71.8601 55.5739 71.7464 55.3722C71.6328 55.1705 71.4751 55.0128 71.2734 54.8991C71.0746 54.7827 70.843 54.7244 70.5788 54.7244C70.3033 54.7244 70.0589 54.7884 69.8459 54.9162C69.6357 55.0412 69.4709 55.2102 69.3516 55.4233C69.2322 55.6335 69.1712 55.8679 69.1683 56.1264V57.196C69.1683 57.5199 69.228 57.7997 69.3473 58.0355C69.4695 58.2713 69.6413 58.4531 69.8629 58.581C70.0845 58.7088 70.3473 58.7727 70.6513 58.7727C70.853 58.7727 71.0376 58.7443 71.2053 58.6875C71.3729 58.6307 71.5163 58.5455 71.6357 58.4318C71.755 58.3182 71.8459 58.179 71.9084 58.0142L73.5874 58.125C73.5021 58.5284 73.3274 58.8807 73.0632 59.1818C72.8018 59.4801 72.4638 59.7131 72.049 59.8807C71.6371 60.0455 71.1612 60.1278 70.6214 60.1278Z" fill="white"/>
<g id="input:value">
<path id="box" opacity="0.01" d="M153 43H98C92.4772 43 88 47.4772 88 53V57C88 62.5228 92.4772 67 98 67H153C158.523 67 163 62.5228 163 57V53C163 47.4772 158.523 43 153 43Z" fill="#D9D9D9"/>
<path id="anchor-input:value-right" opacity="0.01" d="M163 55C163.552 55 164 54.5523 164 54C164 53.4477 163.552 53 163 53C162.448 53 162 53.4477 162 54C162 54.5523 162.448 55 163 55Z" fill="#D9D9D9"/>
<path id="anchor-input:value-left" opacity="0.01" d="M88 55C88.5523 55 89 54.5523 89 54C89 53.4477 88.5523 53 88 53C87.4477 53 87 53.4477 87 54C87 54.5523 87.4477 55 88 55Z" fill="white"/>
</g>
<path id="text_2" d="M177.17 55.321L175.509 55.4233C175.48 55.2812 175.419 55.1534 175.325 55.0398C175.232 54.9233 175.108 54.831 174.955 54.7628C174.804 54.6918 174.624 54.6562 174.413 54.6562C174.132 54.6562 173.895 54.7159 173.702 54.8352C173.509 54.9517 173.412 55.108 173.412 55.304C173.412 55.4602 173.474 55.5923 173.599 55.7003C173.724 55.8082 173.939 55.8949 174.243 55.9602L175.428 56.1989C176.064 56.3295 176.538 56.5398 176.851 56.8295C177.163 57.1193 177.32 57.5 177.32 57.9716C177.32 58.4006 177.193 58.777 176.94 59.1009C176.69 59.4247 176.347 59.6776 175.909 59.8594C175.474 60.0384 174.973 60.1278 174.405 60.1278C173.538 60.1278 172.848 59.9474 172.334 59.5866C171.822 59.223 171.523 58.7287 171.435 58.1037L173.22 58.0099C173.274 58.2741 173.405 58.4759 173.612 58.6151C173.82 58.7514 174.085 58.8196 174.409 58.8196C174.727 58.8196 174.983 58.7585 175.176 58.6364C175.372 58.5114 175.472 58.3509 175.474 58.1548C175.472 57.9901 175.402 57.8551 175.266 57.75C175.129 57.642 174.919 57.5597 174.635 57.5028L173.501 57.277C172.862 57.1491 172.386 56.9276 172.074 56.6122C171.764 56.2969 171.609 55.8949 171.609 55.4062C171.609 54.9858 171.723 54.6236 171.95 54.3196C172.18 54.0156 172.503 53.7812 172.918 53.6165C173.335 53.4517 173.824 53.3693 174.384 53.3693C175.21 53.3693 175.861 53.544 176.335 53.8935C176.813 54.2429 177.091 54.7187 177.17 55.321ZM181.944 53.4545V54.8182H178.002V53.4545H181.944ZM178.897 51.8864H180.713V57.9886C180.713 58.1562 180.738 58.2869 180.789 58.3807C180.841 58.4716 180.912 58.5355 181.002 58.5724C181.096 58.6094 181.204 58.6278 181.326 58.6278C181.412 58.6278 181.497 58.6207 181.582 58.6065C181.667 58.5895 181.733 58.5767 181.778 58.5682L182.064 59.919C181.973 59.9474 181.845 59.9801 181.68 60.017C181.515 60.0568 181.315 60.081 181.079 60.0895C180.642 60.1065 180.258 60.0483 179.929 59.9148C179.602 59.7812 179.348 59.5739 179.166 59.2926C178.984 59.0114 178.895 58.6562 178.897 58.2273V51.8864ZM186.039 60.1278C185.366 60.1278 184.787 59.9915 184.301 59.7188C183.818 59.4432 183.446 59.054 183.184 58.5511C182.923 58.0455 182.792 57.4474 182.792 56.7571C182.792 56.0838 182.923 55.4929 183.184 54.9844C183.446 54.4759 183.814 54.0795 184.288 53.7955C184.765 53.5114 185.325 53.3693 185.967 53.3693C186.399 53.3693 186.801 53.4389 187.173 53.5781C187.548 53.7145 187.875 53.9205 188.153 54.196C188.434 54.4716 188.653 54.8182 188.809 55.2358C188.966 55.6506 189.044 56.1364 189.044 56.6932V57.1918H183.517V56.0668H187.335C187.335 55.8054 187.278 55.5739 187.164 55.3722C187.051 55.1705 186.893 55.0128 186.691 54.8991C186.493 54.7827 186.261 54.7244 185.997 54.7244C185.721 54.7244 185.477 54.7884 185.264 54.9162C185.054 55.0412 184.889 55.2102 184.77 55.4233C184.65 55.6335 184.589 55.8679 184.586 56.1264V57.196C184.586 57.5199 184.646 57.7997 184.765 58.0355C184.887 58.2713 185.059 58.4531 185.281 58.581C185.502 58.7088 185.765 58.7727 186.069 58.7727C186.271 58.7727 186.456 58.7443 186.623 58.6875C186.791 58.6307 186.934 58.5455 187.054 58.4318C187.173 58.3182 187.264 58.179 187.326 58.0142L189.005 58.125C188.92 58.5284 188.745 58.8807 188.481 59.1818C188.22 59.4801 187.882 59.7131 187.467 59.8807C187.055 60.0455 186.579 60.1278 186.039 60.1278ZM190.228 62.4545V53.4545H192.018V54.554H192.099C192.179 54.3778 192.294 54.1989 192.444 54.017C192.598 53.8324 192.797 53.679 193.041 53.5568C193.288 53.4318 193.595 53.3693 193.961 53.3693C194.439 53.3693 194.879 53.4943 195.282 53.7443C195.686 53.9915 196.008 54.3651 196.25 54.8651C196.491 55.3622 196.612 55.9858 196.612 56.7358C196.612 57.4659 196.494 58.0824 196.258 58.5852C196.025 59.0852 195.707 59.4645 195.304 59.723C194.903 59.9787 194.454 60.1065 193.957 60.1065C193.605 60.1065 193.305 60.0483 193.058 59.9318C192.814 59.8153 192.613 59.669 192.457 59.4929C192.301 59.3139 192.181 59.1335 192.099 58.9517H192.044V62.4545H190.228ZM192.005 56.7273C192.005 57.1165 192.059 57.456 192.167 57.7457C192.275 58.0355 192.431 58.2614 192.636 58.4233C192.841 58.5824 193.089 58.6619 193.382 58.6619C193.677 58.6619 193.927 58.581 194.132 58.419C194.336 58.2543 194.491 58.027 194.596 57.7372C194.704 57.4446 194.758 57.108 194.758 56.7273C194.758 56.3494 194.706 56.017 194.6 55.7301C194.495 55.4432 194.341 55.2187 194.136 55.0568C193.931 54.8949 193.68 54.8139 193.382 54.8139C193.086 54.8139 192.836 54.892 192.632 55.0483C192.43 55.2045 192.275 55.4261 192.167 55.7131C192.059 56 192.005 56.3381 192.005 56.7273ZM203.268 55.321L201.606 55.4233C201.578 55.2812 201.517 55.1534 201.423 55.0398C201.329 54.9233 201.206 54.831 201.052 54.7628C200.902 54.6918 200.721 54.6562 200.511 54.6562C200.23 54.6562 199.993 54.7159 199.799 54.8352C199.606 54.9517 199.51 55.108 199.51 55.304C199.51 55.4602 199.572 55.5923 199.697 55.7003C199.822 55.8082 200.037 55.8949 200.341 55.9602L201.525 56.1989C202.162 56.3295 202.636 56.5398 202.949 56.8295C203.261 57.1193 203.417 57.5 203.417 57.9716C203.417 58.4006 203.291 58.777 203.038 59.1009C202.788 59.4247 202.444 59.6776 202.007 59.8594C201.572 60.0384 201.071 60.1278 200.502 60.1278C199.636 60.1278 198.946 59.9474 198.431 59.5866C197.92 59.223 197.62 58.7287 197.532 58.1037L199.318 58.0099C199.372 58.2741 199.502 58.4759 199.71 58.6151C199.917 58.7514 200.183 58.8196 200.507 58.8196C200.825 58.8196 201.081 58.7585 201.274 58.6364C201.47 58.5114 201.569 58.3509 201.572 58.1548C201.569 57.9901 201.5 57.8551 201.363 57.75C201.227 57.642 201.017 57.5597 200.733 57.5028L199.599 57.277C198.96 57.1491 198.484 56.9276 198.172 56.6122C197.862 56.2969 197.707 55.8949 197.707 55.4062C197.707 54.9858 197.821 54.6236 198.048 54.3196C198.278 54.0156 198.6 53.7812 199.015 53.6165C199.433 53.4517 199.922 53.3693 200.481 53.3693C201.308 53.3693 201.958 53.544 202.433 53.8935C202.91 54.2429 203.189 54.7187 203.268 55.321Z" fill="white"/>
<g id="capTop">
<path id="anchor:prev" opacity="0.01" d="M123 26C123.552 26 124 25.5523 124 25C124 24.4477 123.552 24 123 24C122.448 24 122 24.4477 122 25C122 25.5523 122.448 26 123 26Z" fill="#D9D9D9"/>
<path id="Vector_5" d="M123 25H98V0L123 25Z" fill="#42A5F5"/>
<path id="Vector_6" d="M148 25H123L148 0V25Z" fill="#42A5F5"/>
<path id="stripe" d="M148 5L123 30L98 5V0L123 25L148 0V5Z" fill="white"/>
</g>
</g>
</svg>
