<svg width="248" height="149" viewBox="0 0 248 149" fill="none" xmlns="http://www.w3.org/2000/svg">
<g id="move_menu">
<path id="anchor:next" opacity="0.01" d="M123 141C123.552 141 124 140.552 124 140C124 139.448 123.552 139 123 139C122.448 139 122 139.448 122 140C122 140.552 122.448 141 123 141Z" fill="#D9D9D9"/>
<g id="arrowHead">
<g id="border">
<path id="Vector" d="M123 140L148 115H98L123 140Z" fill="white"/>
<path id="Vector_2" d="M123 135L143 115H103L123 135Z" fill="white"/>
</g>
<g id="tip">
<path id="Vector_3" d="M123 135L143 115H103L123 135Z" fill="#42A5F5"/>
<path id="Vector_4" d="M123 131L139 115H107L123 131Z" fill="#42A5F5"/>
</g>
<path id="shaft" d="M135.048 93H113.048V115H135.048V93Z" fill="#42A5F5"/>
</g>
<path id="bodyStretch" d="M0 50.5421C0 41.4061 14.1745 34 31.6596 34H216.341C233.826 34 248 41.4061 248 50.5421V76.4579C248 85.5939 233.826 93 216.341 93H31.6596C14.1745 93 0 85.5939 0 76.4579V50.5421Z" fill="#42A5F5"/>
<path id="text" d="M41.9055 71V62.8182H44.0682V64.2617H44.1641C44.3345 63.7823 44.6186 63.4041 45.0163 63.1271C45.4141 62.8501 45.8899 62.7116 46.4439 62.7116C47.005 62.7116 47.4826 62.8519 47.8768 63.1325C48.271 63.4094 48.5337 63.7859 48.6651 64.2617H48.7504C48.9173 63.793 49.2191 63.4183 49.6559 63.1378C50.0962 62.8537 50.6165 62.7116 51.2166 62.7116C51.9801 62.7116 52.5998 62.9549 53.0756 63.4414C53.555 63.9244 53.7947 64.6097 53.7947 65.4975V71H51.5309V65.945C51.5309 65.4904 51.4102 65.1495 51.1687 64.9222C50.9272 64.695 50.6254 64.5813 50.2631 64.5813C49.8512 64.5813 49.5298 64.7127 49.299 64.9755C49.0682 65.2347 48.9528 65.5774 48.9528 66.0036V71H46.7528V65.897C46.7528 65.4957 46.6374 65.1761 46.4066 64.9382C46.1793 64.7003 45.8793 64.5813 45.5064 64.5813C45.2543 64.5813 45.027 64.6452 44.8246 64.7731C44.6257 64.8974 44.4677 65.0732 44.3505 65.3004C44.2333 65.5241 44.1747 65.7869 44.1747 66.0888V71H41.9055ZM59.2839 71.1598C58.4565 71.1598 57.7409 70.984 57.1373 70.6325C56.5371 70.2773 56.0737 69.7837 55.747 69.1516C55.4203 68.516 55.2569 67.7791 55.2569 66.9411C55.2569 66.0959 55.4203 65.3572 55.747 64.7251C56.0737 64.0895 56.5371 63.5959 57.1373 63.2443C57.7409 62.8892 58.4565 62.7116 59.2839 62.7116C60.1113 62.7116 60.8251 62.8892 61.4252 63.2443C62.0289 63.5959 62.4941 64.0895 62.8208 64.7251C63.1475 65.3572 63.3109 66.0959 63.3109 66.9411C63.3109 67.7791 63.1475 68.516 62.8208 69.1516C62.4941 69.7837 62.0289 70.2773 61.4252 70.6325C60.8251 70.984 60.1113 71.1598 59.2839 71.1598ZM59.2946 69.402C59.671 69.402 59.9853 69.2955 60.2374 69.0824C60.4895 68.8658 60.6795 68.571 60.8074 68.1982C60.9387 67.8253 61.0044 67.4009 61.0044 66.9251C61.0044 66.4492 60.9387 66.0249 60.8074 65.652C60.6795 65.2791 60.4895 64.9844 60.2374 64.7678C59.9853 64.5511 59.671 64.4428 59.2946 64.4428C58.9146 64.4428 58.595 64.5511 58.3358 64.7678C58.0801 64.9844 57.8865 65.2791 57.7551 65.652C57.6273 66.0249 57.5634 66.4492 57.5634 66.9251C57.5634 67.4009 57.6273 67.8253 57.7551 68.1982C57.8865 68.571 58.0801 68.8658 58.3358 69.0824C58.595 69.2955 58.9146 69.402 59.2946 69.402ZM72.1506 62.8182L69.2901 71H66.7333L63.8729 62.8182H66.2699L67.9691 68.6722H68.0543L69.7482 62.8182H72.1506ZM76.7768 71.1598C75.9352 71.1598 75.2108 70.9893 74.6035 70.6484C73.9998 70.304 73.5346 69.8175 73.2079 69.1889C72.8812 68.5568 72.7179 67.8093 72.7179 66.9464C72.7179 66.1048 72.8812 65.3661 73.2079 64.7305C73.5346 64.0948 73.9945 63.5994 74.5875 63.2443C75.1841 62.8892 75.8837 62.7116 76.6863 62.7116C77.226 62.7116 77.7285 62.7987 78.1937 62.9727C78.6625 63.1431 79.0708 63.4006 79.4189 63.745C79.7704 64.0895 80.0439 64.5227 80.2392 65.0447C80.4345 65.5632 80.5321 66.1705 80.5321 66.8665V67.4897H73.6234V66.0835H78.3961C78.3961 65.7567 78.3251 65.4673 78.1831 65.2152C78.041 64.9631 77.8439 64.766 77.5918 64.6239C77.3432 64.4783 77.0538 64.4055 76.7235 64.4055C76.3791 64.4055 76.0737 64.4854 75.8074 64.6452C75.5446 64.8015 75.3386 65.0128 75.1895 65.2791C75.0403 65.5419 74.964 65.8349 74.9604 66.158V67.495C74.9604 67.8999 75.035 68.2496 75.1841 68.5444C75.3368 68.8391 75.5517 69.0664 75.8287 69.2262C76.1056 69.386 76.4341 69.4659 76.8141 69.4659C77.0662 69.4659 77.2971 69.4304 77.5066 69.3594C77.7161 69.2884 77.8954 69.1818 78.0446 69.0398C78.1937 68.8977 78.3074 68.7237 78.3855 68.5178L80.4842 68.6562C80.3777 69.1605 80.1593 69.6009 79.829 69.9773C79.5023 70.3501 79.0797 70.6413 78.5613 70.8509C78.0463 71.0568 77.4515 71.1598 76.7768 71.1598Z" fill="white"/>
<g id="input:value">
<rect id="box" x="85" y="52" width="75" height="24" rx="10" fill="white"/>
<path id="anchor-input:value-right" opacity="0.01" d="M158 64C158.552 64 159 63.5523 159 63C159 62.4477 158.552 62 158 62C157.448 62 157 62.4477 157 63C157 63.5523 157.448 64 158 64Z" fill="#D9D9D9"/>
<path id="anchor-input:value-left" opacity="0.01" d="M83 64C83.5523 64 84 63.5523 84 63C84 62.4477 83.5523 62 83 62C82.4477 62 82 62.4477 82 63C82 63.5523 82.4477 64 83 64Z" fill="white"/>
</g>
<path id="text_2" d="M177.713 65.1513L175.636 65.2791C175.6 65.1016 175.524 64.9418 175.407 64.7997C175.289 64.6541 175.135 64.5387 174.943 64.4535C174.755 64.3647 174.529 64.3203 174.267 64.3203C173.915 64.3203 173.619 64.3949 173.377 64.544C173.136 64.6896 173.015 64.8849 173.015 65.13C173.015 65.3253 173.093 65.4904 173.249 65.6254C173.406 65.7603 173.674 65.8686 174.054 65.9503L175.534 66.2486C176.33 66.4119 176.923 66.6747 177.314 67.0369C177.704 67.3991 177.9 67.875 177.9 68.4645C177.9 69.0007 177.741 69.4712 177.425 69.8761C177.113 70.2809 176.683 70.5969 176.136 70.8242C175.593 71.0479 174.966 71.1598 174.256 71.1598C173.173 71.1598 172.31 70.9343 171.667 70.4833C171.028 70.0288 170.653 69.4109 170.543 68.6296L172.775 68.5124C172.843 68.8427 173.006 69.0948 173.265 69.2688C173.525 69.4393 173.857 69.5245 174.261 69.5245C174.659 69.5245 174.979 69.4482 175.22 69.2955C175.465 69.1392 175.589 68.9386 175.593 68.6935C175.589 68.4876 175.502 68.3189 175.332 68.1875C175.162 68.0526 174.899 67.9496 174.544 67.8786L173.127 67.5962C172.328 67.4364 171.733 67.1594 171.342 66.7653C170.955 66.3711 170.762 65.8686 170.762 65.2578C170.762 64.7322 170.904 64.2795 171.188 63.8995C171.475 63.5195 171.879 63.2266 172.397 63.0206C172.919 62.8146 173.53 62.7116 174.229 62.7116C175.263 62.7116 176.076 62.93 176.669 63.3668C177.266 63.8036 177.614 64.3984 177.713 65.1513ZM183.68 62.8182V64.5227H178.753V62.8182H183.68ZM179.872 60.858H182.141V68.4858C182.141 68.6953 182.173 68.8587 182.237 68.9759C182.301 69.0895 182.389 69.1694 182.503 69.2156C182.62 69.2617 182.755 69.2848 182.908 69.2848C183.014 69.2848 183.121 69.2759 183.228 69.2582C183.334 69.2369 183.416 69.2209 183.473 69.2102L183.829 70.8988C183.716 70.9343 183.556 70.9751 183.35 71.0213C183.144 71.071 182.894 71.1012 182.599 71.1119C182.052 71.1332 181.573 71.0604 181.161 70.8935C180.752 70.7266 180.435 70.4673 180.207 70.1158C179.98 69.7642 179.868 69.3203 179.872 68.7841V60.858ZM188.799 71.1598C187.958 71.1598 187.233 70.9893 186.626 70.6484C186.022 70.304 185.557 69.8175 185.23 69.1889C184.904 68.5568 184.74 67.8093 184.74 66.9464C184.74 66.1048 184.904 65.3661 185.23 64.7305C185.557 64.0948 186.017 63.5994 186.61 63.2443C187.207 62.8892 187.906 62.7116 188.709 62.7116C189.248 62.7116 189.751 62.7987 190.216 62.9727C190.685 63.1431 191.093 63.4006 191.441 63.745C191.793 64.0895 192.066 64.5227 192.262 65.0447C192.457 65.5632 192.555 66.1705 192.555 66.8665V67.4897H185.646V66.0835H190.419C190.419 65.7567 190.348 65.4673 190.206 65.2152C190.063 64.9631 189.866 64.766 189.614 64.6239C189.366 64.4783 189.076 64.4055 188.746 64.4055C188.402 64.4055 188.096 64.4854 187.83 64.6452C187.567 64.8015 187.361 65.0128 187.212 65.2791C187.063 65.5419 186.986 65.8349 186.983 66.158V67.495C186.983 67.8999 187.057 68.2496 187.207 68.5444C187.359 68.8391 187.574 69.0664 187.851 69.2262C188.128 69.386 188.457 69.4659 188.837 69.4659C189.089 69.4659 189.32 69.4304 189.529 69.3594C189.739 69.2884 189.918 69.1818 190.067 69.0398C190.216 68.8977 190.33 68.7237 190.408 68.5178L192.507 68.6562C192.4 69.1605 192.182 69.6009 191.851 69.9773C191.525 70.3501 191.102 70.6413 190.584 70.8509C190.069 71.0568 189.474 71.1598 188.799 71.1598ZM194.035 74.0682V62.8182H196.273V64.1925H196.374C196.473 63.9723 196.617 63.7486 196.805 63.5213C196.997 63.2905 197.246 63.0987 197.551 62.946C197.86 62.7898 198.244 62.7116 198.702 62.7116C199.298 62.7116 199.849 62.8679 200.353 63.1804C200.857 63.4893 201.26 63.9563 201.562 64.5813C201.864 65.2028 202.015 65.9822 202.015 66.9197C202.015 67.8324 201.867 68.603 201.573 69.2315C201.282 69.8565 200.884 70.3306 200.38 70.6538C199.879 70.9734 199.318 71.1332 198.696 71.1332C198.256 71.1332 197.881 71.0604 197.572 70.9148C197.267 70.7692 197.017 70.5863 196.821 70.3661C196.626 70.1424 196.477 69.9169 196.374 69.6896H196.305V74.0682H194.035ZM196.257 66.9091C196.257 67.3956 196.324 67.82 196.459 68.1822C196.594 68.5444 196.789 68.8267 197.045 69.0291C197.301 69.228 197.611 69.3274 197.977 69.3274C198.347 69.3274 198.659 69.2262 198.915 69.0238C199.17 68.8178 199.364 68.5337 199.495 68.1715C199.63 67.8058 199.698 67.3849 199.698 66.9091C199.698 66.4368 199.632 66.0213 199.501 65.6626C199.369 65.304 199.176 65.0234 198.92 64.821C198.664 64.6186 198.35 64.5174 197.977 64.5174C197.608 64.5174 197.295 64.6151 197.04 64.8104C196.788 65.0057 196.594 65.2827 196.459 65.6413C196.324 66 196.257 66.4226 196.257 66.9091ZM210.335 65.1513L208.258 65.2791C208.222 65.1016 208.146 64.9418 208.029 64.7997C207.911 64.6541 207.757 64.5387 207.565 64.4535C207.377 64.3647 207.152 64.3203 206.889 64.3203C206.537 64.3203 206.241 64.3949 205.999 64.544C205.758 64.6896 205.637 64.8849 205.637 65.13C205.637 65.3253 205.715 65.4904 205.871 65.6254C206.028 65.7603 206.296 65.8686 206.676 65.9503L208.157 66.2486C208.952 66.4119 209.545 66.6747 209.936 67.0369C210.326 67.3991 210.522 67.875 210.522 68.4645C210.522 69.0007 210.364 69.4712 210.047 69.8761C209.735 70.2809 209.305 70.5969 208.758 70.8242C208.215 71.0479 207.588 71.1598 206.878 71.1598C205.795 71.1598 204.932 70.9343 204.289 70.4833C203.65 70.0288 203.275 69.4109 203.165 68.6296L205.397 68.5124C205.465 68.8427 205.628 69.0948 205.887 69.2688C206.147 69.4393 206.479 69.5245 206.883 69.5245C207.281 69.5245 207.601 69.4482 207.842 69.2955C208.087 69.1392 208.212 68.9386 208.215 68.6935C208.212 68.4876 208.125 68.3189 207.954 68.1875C207.784 68.0526 207.521 67.9496 207.166 67.8786L205.749 67.5962C204.95 67.4364 204.355 67.1594 203.964 66.7653C203.577 66.3711 203.384 65.8686 203.384 65.2578C203.384 64.7322 203.526 64.2795 203.81 63.8995C204.098 63.5195 204.501 63.2266 205.019 63.0206C205.541 62.8146 206.152 62.7116 206.851 62.7116C207.885 62.7116 208.698 62.93 209.291 63.3668C209.888 63.8036 210.236 64.3984 210.335 65.1513Z" fill="white"/>
<g id="capTop">
<path id="anchor:prev" opacity="0.01" d="M123 35C123.552 35 124 34.5523 124 34C124 33.4477 123.552 33 123 33C122.448 33 122 33.4477 122 34C122 34.5523 122.448 35 123 35Z" fill="#D9D9D9"/>
<path id="Vector_5" d="M123 34H98V9L123 34Z" fill="#42A5F5"/>
<path id="Vector_6" d="M148 34H123L148 9V34Z" fill="#42A5F5"/>
<path id="stripe" d="M148 14L123 39L98 14V9L123 34L148 9V14Z" fill="white"/>
</g>
</g>
</svg>
