<svg width="248" height="149" viewBox="0 0 248 149" fill="none" xmlns="http://www.w3.org/2000/svg">
<g id="move">
<path id="anchor:next" opacity="0.01" d="M123 141C123.552 141 124 140.552 124 140C124 139.448 123.552 139 123 139C122.448 139 122 139.448 122 140C122 140.552 122.448 141 123 141Z" fill="#D9D9D9"/>
<g id="arrowHead">
<g id="border">
<path id="Vector" d="M123 140L148 115H98L123 140Z" fill="white"/>
<path id="Vector_2" d="M123 135L143 115H103L123 135Z" fill="white"/>
</g>
<g id="tip">
<path id="Vector_3" d="M123 135L143 115H103L123 135Z" fill="#42A5F5"/>
<path id="Vector_4" d="M123 131L139 115H107L123 131Z" fill="#42A5F5"/>
</g>
<path id="shaft" d="M135.048 93H113.048V115H135.048V93Z" fill="#42A5F5"/>
</g>
<path id="bodyStretch" d="M0 50.5421C0 41.4061 14.1745 34 31.6596 34H216.341C233.826 34 248 41.4061 248 50.5421V76.4579C248 85.5939 233.826 93 216.341 93H31.6596C14.1745 93 0 85.5939 0 76.4579V50.5421Z" fill="#42A5F5"/>
<path id="text" d="M33.7244 69V62.4545H35.4545V63.6094H35.5312C35.6676 63.2259 35.8949 62.9233 36.2131 62.7017C36.5312 62.4801 36.9119 62.3693 37.3551 62.3693C37.804 62.3693 38.1861 62.4815 38.5014 62.706C38.8168 62.9276 39.027 63.2287 39.1321 63.6094H39.2003C39.3338 63.2344 39.5753 62.9347 39.9247 62.7102C40.277 62.483 40.6932 62.3693 41.1733 62.3693C41.7841 62.3693 42.2798 62.5639 42.6605 62.9531C43.044 63.3395 43.2358 63.8878 43.2358 64.598V69H41.4247V64.956C41.4247 64.5923 41.3281 64.3196 41.1349 64.1378C40.9418 63.956 40.7003 63.8651 40.4105 63.8651C40.081 63.8651 39.8239 63.9702 39.6392 64.1804C39.4545 64.3878 39.3622 64.6619 39.3622 65.0028V69H37.6023V64.9176C37.6023 64.5966 37.5099 64.3409 37.3253 64.1506C37.1435 63.9602 36.9034 63.8651 36.6051 63.8651C36.4034 63.8651 36.2216 63.9162 36.0597 64.0185C35.9006 64.1179 35.7741 64.2585 35.6804 64.4403C35.5866 64.6193 35.5398 64.8295 35.5398 65.071V69H33.7244ZM47.6271 69.1278C46.9652 69.1278 46.3928 68.9872 45.9098 68.706C45.4297 68.4219 45.0589 68.027 44.7976 67.5213C44.5362 67.0128 44.4055 66.4233 44.4055 65.7528C44.4055 65.0767 44.5362 64.4858 44.7976 63.9801C45.0589 63.4716 45.4297 63.0767 45.9098 62.7955C46.3928 62.5114 46.9652 62.3693 47.6271 62.3693C48.2891 62.3693 48.8601 62.5114 49.3402 62.7955C49.8232 63.0767 50.1953 63.4716 50.4567 63.9801C50.718 64.4858 50.8487 65.0767 50.8487 65.7528C50.8487 66.4233 50.718 67.0128 50.4567 67.5213C50.1953 68.027 49.8232 68.4219 49.3402 68.706C48.8601 68.9872 48.2891 69.1278 47.6271 69.1278ZM47.6357 67.7216C47.9368 67.7216 48.1882 67.6364 48.3899 67.4659C48.5916 67.2926 48.7436 67.0568 48.8459 66.7585C48.951 66.4602 49.0036 66.1207 49.0036 65.7401C49.0036 65.3594 48.951 65.0199 48.8459 64.7216C48.7436 64.4233 48.5916 64.1875 48.3899 64.0142C48.1882 63.8409 47.9368 63.7543 47.6357 63.7543C47.3317 63.7543 47.076 63.8409 46.8686 64.0142C46.6641 64.1875 46.5092 64.4233 46.4041 64.7216C46.3018 65.0199 46.2507 65.3594 46.2507 65.7401C46.2507 66.1207 46.3018 66.4602 46.4041 66.7585C46.5092 67.0568 46.6641 67.2926 46.8686 67.4659C47.076 67.6364 47.3317 67.7216 47.6357 67.7216ZM57.9205 62.4545L55.6321 69H53.5866L51.2983 62.4545H53.2159L54.5753 67.1378H54.6435L55.9986 62.4545H57.9205ZM61.6214 69.1278C60.9482 69.1278 60.3686 68.9915 59.8828 68.7188C59.3999 68.4432 59.0277 68.054 58.7663 67.5511C58.505 67.0455 58.3743 66.4474 58.3743 65.7571C58.3743 65.0838 58.505 64.4929 58.7663 63.9844C59.0277 63.4759 59.3956 63.0795 59.87 62.7955C60.3473 62.5114 60.907 62.3693 61.549 62.3693C61.9808 62.3693 62.3828 62.4389 62.755 62.5781C63.13 62.7145 63.4567 62.9205 63.7351 63.196C64.0163 63.4716 64.2351 63.8182 64.3913 64.2358C64.5476 64.6506 64.6257 65.1364 64.6257 65.6932V66.1918H59.0987V65.0668H62.9169C62.9169 64.8054 62.8601 64.5739 62.7464 64.3722C62.6328 64.1705 62.4751 64.0128 62.2734 63.8991C62.0746 63.7827 61.843 63.7244 61.5788 63.7244C61.3033 63.7244 61.0589 63.7884 60.8459 63.9162C60.6357 64.0412 60.4709 64.2102 60.3516 64.4233C60.2322 64.6335 60.1712 64.8679 60.1683 65.1264V66.196C60.1683 66.5199 60.228 66.7997 60.3473 67.0355C60.4695 67.2713 60.6413 67.4531 60.8629 67.581C61.0845 67.7088 61.3473 67.7727 61.6513 67.7727C61.853 67.7727 62.0376 67.7443 62.2053 67.6875C62.3729 67.6307 62.5163 67.5455 62.6357 67.4318C62.755 67.3182 62.8459 67.179 62.9084 67.0142L64.5874 67.125C64.5021 67.5284 64.3274 67.8807 64.0632 68.1818C63.8018 68.4801 63.4638 68.7131 63.049 68.8807C62.6371 69.0455 62.1612 69.1278 61.6214 69.1278Z" fill="white"/>
<g id="input:value">
<rect id="Rectangle 1" opacity="0.01" x="79" y="52" width="75" height="24" rx="10" fill="#D9D9D9"/>
<path id="anchor-input:value-right" opacity="0.01" d="M154 64C154.552 64 155 63.5523 155 63C155 62.4477 154.552 62 154 62C153.448 62 153 62.4477 153 63C153 63.5523 153.448 64 154 64Z" fill="#D9D9D9"/>
<path id="anchor-input:value-left" opacity="0.01" d="M79 64C79.5523 64 80 63.5523 80 63C80 62.4477 79.5523 62 79 62C78.4477 62 78 62.4477 78 63C78 63.5523 78.4477 64 79 64Z" fill="white"/>
</g>
<path id="text_2" d="M168.17 64.321L166.509 64.4233C166.48 64.2812 166.419 64.1534 166.325 64.0398C166.232 63.9233 166.108 63.831 165.955 63.7628C165.804 63.6918 165.624 63.6562 165.413 63.6562C165.132 63.6562 164.895 63.7159 164.702 63.8352C164.509 63.9517 164.412 64.108 164.412 64.304C164.412 64.4602 164.474 64.5923 164.599 64.7003C164.724 64.8082 164.939 64.8949 165.243 64.9602L166.428 65.1989C167.064 65.3295 167.538 65.5398 167.851 65.8295C168.163 66.1193 168.32 66.5 168.32 66.9716C168.32 67.4006 168.193 67.777 167.94 68.1009C167.69 68.4247 167.347 68.6776 166.909 68.8594C166.474 69.0384 165.973 69.1278 165.405 69.1278C164.538 69.1278 163.848 68.9474 163.334 68.5866C162.822 68.223 162.523 67.7287 162.435 67.1037L164.22 67.0099C164.274 67.2741 164.405 67.4759 164.612 67.6151C164.82 67.7514 165.085 67.8196 165.409 67.8196C165.727 67.8196 165.983 67.7585 166.176 67.6364C166.372 67.5114 166.472 67.3509 166.474 67.1548C166.472 66.9901 166.402 66.8551 166.266 66.75C166.129 66.642 165.919 66.5597 165.635 66.5028L164.501 66.277C163.862 66.1491 163.386 65.9276 163.074 65.6122C162.764 65.2969 162.609 64.8949 162.609 64.4062C162.609 63.9858 162.723 63.6236 162.95 63.3196C163.18 63.0156 163.503 62.7812 163.918 62.6165C164.335 62.4517 164.824 62.3693 165.384 62.3693C166.21 62.3693 166.861 62.544 167.335 62.8935C167.813 63.2429 168.091 63.7187 168.17 64.321ZM172.944 62.4545V63.8182H169.002V62.4545H172.944ZM169.897 60.8864H171.713V66.9886C171.713 67.1562 171.738 67.2869 171.789 67.3807C171.841 67.4716 171.912 67.5355 172.002 67.5724C172.096 67.6094 172.204 67.6278 172.326 67.6278C172.412 67.6278 172.497 67.6207 172.582 67.6065C172.667 67.5895 172.733 67.5767 172.778 67.5682L173.064 68.919C172.973 68.9474 172.845 68.9801 172.68 69.017C172.515 69.0568 172.315 69.081 172.079 69.0895C171.642 69.1065 171.258 69.0483 170.929 68.9148C170.602 68.7812 170.348 68.5739 170.166 68.2926C169.984 68.0114 169.895 67.6562 169.897 67.2273V60.8864ZM177.039 69.1278C176.366 69.1278 175.787 68.9915 175.301 68.7188C174.818 68.4432 174.446 68.054 174.184 67.5511C173.923 67.0455 173.792 66.4474 173.792 65.7571C173.792 65.0838 173.923 64.4929 174.184 63.9844C174.446 63.4759 174.814 63.0795 175.288 62.7955C175.765 62.5114 176.325 62.3693 176.967 62.3693C177.399 62.3693 177.801 62.4389 178.173 62.5781C178.548 62.7145 178.875 62.9205 179.153 63.196C179.434 63.4716 179.653 63.8182 179.809 64.2358C179.966 64.6506 180.044 65.1364 180.044 65.6932V66.1918H174.517V65.0668H178.335C178.335 64.8054 178.278 64.5739 178.164 64.3722C178.051 64.1705 177.893 64.0128 177.691 63.8991C177.493 63.7827 177.261 63.7244 176.997 63.7244C176.721 63.7244 176.477 63.7884 176.264 63.9162C176.054 64.0412 175.889 64.2102 175.77 64.4233C175.65 64.6335 175.589 64.8679 175.586 65.1264V66.196C175.586 66.5199 175.646 66.7997 175.765 67.0355C175.887 67.2713 176.059 67.4531 176.281 67.581C176.502 67.7088 176.765 67.7727 177.069 67.7727C177.271 67.7727 177.456 67.7443 177.623 67.6875C177.791 67.6307 177.934 67.5455 178.054 67.4318C178.173 67.3182 178.264 67.179 178.326 67.0142L180.005 67.125C179.92 67.5284 179.745 67.8807 179.481 68.1818C179.22 68.4801 178.882 68.7131 178.467 68.8807C178.055 69.0455 177.579 69.1278 177.039 69.1278ZM181.228 71.4545V62.4545H183.018V63.554H183.099C183.179 63.3778 183.294 63.1989 183.444 63.017C183.598 62.8324 183.797 62.679 184.041 62.5568C184.288 62.4318 184.595 62.3693 184.961 62.3693C185.439 62.3693 185.879 62.4943 186.282 62.7443C186.686 62.9915 187.008 63.3651 187.25 63.8651C187.491 64.3622 187.612 64.9858 187.612 65.7358C187.612 66.4659 187.494 67.0824 187.258 67.5852C187.025 68.0852 186.707 68.4645 186.304 68.723C185.903 68.9787 185.454 69.1065 184.957 69.1065C184.605 69.1065 184.305 69.0483 184.058 68.9318C183.814 68.8153 183.613 68.669 183.457 68.4929C183.301 68.3139 183.181 68.1335 183.099 67.9517H183.044V71.4545H181.228ZM183.005 65.7273C183.005 66.1165 183.059 66.456 183.167 66.7457C183.275 67.0355 183.431 67.2614 183.636 67.4233C183.841 67.5824 184.089 67.6619 184.382 67.6619C184.677 67.6619 184.927 67.581 185.132 67.419C185.336 67.2543 185.491 67.027 185.596 66.7372C185.704 66.4446 185.758 66.108 185.758 65.7273C185.758 65.3494 185.706 65.017 185.6 64.7301C185.495 64.4432 185.341 64.2187 185.136 64.0568C184.931 63.8949 184.68 63.8139 184.382 63.8139C184.086 63.8139 183.836 63.892 183.632 64.0483C183.43 64.2045 183.275 64.4261 183.167 64.7131C183.059 65 183.005 65.3381 183.005 65.7273ZM194.268 64.321L192.606 64.4233C192.578 64.2812 192.517 64.1534 192.423 64.0398C192.329 63.9233 192.206 63.831 192.052 63.7628C191.902 63.6918 191.721 63.6562 191.511 63.6562C191.23 63.6562 190.993 63.7159 190.799 63.8352C190.606 63.9517 190.51 64.108 190.51 64.304C190.51 64.4602 190.572 64.5923 190.697 64.7003C190.822 64.8082 191.037 64.8949 191.341 64.9602L192.525 65.1989C193.162 65.3295 193.636 65.5398 193.949 65.8295C194.261 66.1193 194.417 66.5 194.417 66.9716C194.417 67.4006 194.291 67.777 194.038 68.1009C193.788 68.4247 193.444 68.6776 193.007 68.8594C192.572 69.0384 192.071 69.1278 191.502 69.1278C190.636 69.1278 189.946 68.9474 189.431 68.5866C188.92 68.223 188.62 67.7287 188.532 67.1037L190.318 67.0099C190.372 67.2741 190.502 67.4759 190.71 67.6151C190.917 67.7514 191.183 67.8196 191.507 67.8196C191.825 67.8196 192.081 67.7585 192.274 67.6364C192.47 67.5114 192.569 67.3509 192.572 67.1548C192.569 66.9901 192.5 66.8551 192.363 66.75C192.227 66.642 192.017 66.5597 191.733 66.5028L190.599 66.277C189.96 66.1491 189.484 65.9276 189.172 65.6122C188.862 65.2969 188.707 64.8949 188.707 64.4062C188.707 63.9858 188.821 63.6236 189.048 63.3196C189.278 63.0156 189.6 62.7812 190.015 62.6165C190.433 62.4517 190.922 62.3693 191.481 62.3693C192.308 62.3693 192.958 62.544 193.433 62.8935C193.91 63.2429 194.189 63.7187 194.268 64.321Z" fill="white"/>
<g id="capTop">
<path id="anchor:prev" opacity="0.01" d="M123 35C123.552 35 124 34.5523 124 34C124 33.4477 123.552 33 123 33C122.448 33 122 33.4477 122 34C122 34.5523 122.448 35 123 35Z" fill="#D9D9D9"/>
<path id="Vector_5" d="M123 34H98V9L123 34Z" fill="#42A5F5"/>
<path id="Vector_6" d="M148 34H123L148 9V34Z" fill="#42A5F5"/>
<path id="stripe" d="M148 14L123 39L98 14V9L123 34L148 9V14Z" fill="white"/>
</g>
</g>
</svg>
