<svg width="87" height="30" viewBox="0 0 87 30" fill="none" xmlns="http://www.w3.org/2000/svg">
<g id="multiply_operator_menu">
<path id="bbox" opacity="0.01" d="M85.3033 1H1.69678V29H85.3033V1Z" fill="black"/>
<path id="border" d="M76.85 0H10.15C4.54431 0 0 4.70101 0 10.5V19.5C0 25.299 4.54431 30 10.15 30H76.85C82.4557 30 87 25.299 87 19.5V10.5C87 4.70101 82.4557 0 76.85 0Z" fill="white"/>
<path id="bodyStretch" d="M74.4333 2H11.5667C6.28314 2 2 6.07421 2 11.1V18.9C2 23.9258 6.28314 28 11.5667 28H74.4333C79.7169 28 84 23.9258 84 18.9V11.1C84 6.07421 79.7169 2 74.4333 2Z" fill="#66C56E"/>
<g id="input:a">
<path id="box" d="M29.5656 6.60001H15.6312C11.7833 6.60001 8.66394 9.73401 8.66394 13.6V16.4C8.66394 20.266 11.7833 23.4 15.6312 23.4H29.5656C33.4135 23.4 36.5328 20.266 36.5328 16.4V13.6C36.5328 9.73401 33.4135 6.60001 29.5656 6.60001Z" fill="white"/>
<path id="anchor-input:a-left" opacity="0.01" d="M8.66388 15.7C9.04867 15.7 9.36061 15.3866 9.36061 15C9.36061 14.6134 9.04867 14.3 8.66388 14.3C8.2791 14.3 7.96716 14.6134 7.96716 15C7.96716 15.3866 8.2791 15.7 8.66388 15.7Z" fill="#D9D9D9"/>
<path id="anchor-input:a-right" opacity="0.01" d="M36.5328 15.7C36.9176 15.7 37.2295 15.3866 37.2295 15C37.2295 14.6134 36.9176 14.3 36.5328 14.3C36.148 14.3 35.8361 14.6134 35.8361 15C35.8361 15.3866 36.148 15.7 36.5328 15.7Z" fill="#D9D9D9"/>
</g>
<g id="input:b">
<path id="box_2" d="M71.3689 6.60001H57.4345C53.5866 6.60001 50.4673 9.73401 50.4673 13.6V16.4C50.4673 20.266 53.5866 23.4 57.4345 23.4H71.3689C75.2168 23.4 78.3361 20.266 78.3361 16.4V13.6C78.3361 9.73401 75.2168 6.60001 71.3689 6.60001Z" fill="white"/>
<path id="anchor-input:b-left" opacity="0.01" d="M50.4672 15.7C50.852 15.7 51.164 15.3866 51.164 15C51.164 14.6134 50.852 14.3 50.4672 14.3C50.0824 14.3 49.7705 14.6134 49.7705 15C49.7705 15.3866 50.0824 15.7 50.4672 15.7Z" fill="#D9D9D9"/>
<path id="anchor-input:b-right" opacity="0.01" d="M78.3361 15.7C78.7209 15.7 79.0328 15.3866 79.0328 15C79.0328 14.6134 78.7209 14.3 78.3361 14.3C77.9513 14.3 77.6394 14.6134 77.6394 15C77.6394 15.3866 77.9513 15.7 78.3361 15.7Z" fill="#D9D9D9"/>
</g>
<path id="anchor:input-left" opacity="0.01" d="M1.69672 15.7C2.08151 15.7 2.39344 15.3866 2.39344 15C2.39344 14.6134 2.08151 14.3 1.69672 14.3C1.31193 14.3 1 14.6134 1 15C1 15.3866 1.31193 15.7 1.69672 15.7Z" fill="#D9D9D9"/>
<path id="anchor:input-right" opacity="0.01" d="M85.3033 15.7C85.6881 15.7 86 15.3866 86 15C86 14.6134 85.6881 14.3 85.3033 14.3C84.9185 14.3 84.6066 14.6134 84.6066 15C84.6066 15.3866 84.9185 15.7 85.3033 15.7Z" fill="#D9D9D9"/>
<path id="text" d="M42.5299 17.5818L42.6364 15.9327L41.2557 16.8574L40.6847 15.8517L42.1719 15.1273L40.6847 14.4028L41.2557 13.3972L42.6364 14.3219L42.5299 12.6727H43.6762L43.5654 14.3219L44.9461 13.3972L45.5171 14.4028L44.0342 15.1273L45.5171 15.8517L44.9461 16.8574L43.5654 15.9327L43.6762 17.5818H42.5299Z" fill="white"/>
</g>
</svg>
