<svg width="158" height="49" viewBox="0 0 158 49" fill="none" xmlns="http://www.w3.org/2000/svg">
<g id="multiply_operator">
<path id="block_shape" d="M0 20.4167C0 9.14095 9.14054 0 20.4167 0H136.792C148.068 0 157.208 9.14095 157.208 20.4167V28.5833C157.208 39.8591 148.068 49 136.792 49H20.4167C9.14054 49 0 39.8591 0 28.5833V20.4167Z" fill="#6BC161"/>
<g id="block_input">
<path id="text" d="M78.5909 26.1818L78.6591 24.3068L77.0739 25.3125L76.6648 24.5966L78.3352 23.7273L76.6648 22.858L77.0739 22.142L78.6591 23.1477L78.5909 21.2727H79.4091L79.3409 23.1477L80.9261 22.142L81.3352 22.858L79.6648 23.7273L81.3352 24.5966L80.9261 25.3125L79.3409 24.3068L79.4091 26.1818H78.5909Z" fill="white"/>
<path id="input_2" d="M89 23.3333C89 18.731 92.7211 15 97.3117 15H144.688C149.279 15 153 18.731 153 23.3333V26.6667C153 31.269 149.279 35 144.688 35H97.3117C92.7211 35 89 31.269 89 26.6667V23.3333Z" fill="white"/>
<path id="input_1" d="M5 23.3333C5 18.731 8.72114 15 13.3117 15H60.6883C65.2789 15 69 18.731 69 23.3333V26.6667C69 31.269 65.2789 35 60.6883 35H13.3117C8.72114 35 5 31.269 5 26.6667V23.3333Z" fill="white"/>
</g>
</g>
</svg>
