<svg width="86" height="32" viewBox="0 0 86 32" fill="none" xmlns="http://www.w3.org/2000/svg">
<path d="M0 16L7 0V32L0 16Z" fill="white"/>
<path d="M86 16L79 32V0L86 16Z" fill="white"/>
<path d="M79 0H7V32H79V0Z" fill="white"/>
<path d="M2 16L9 2V30L2 16Z" fill="#6BC161"/>
<path d="M84 16L77 30V2L84 16Z" fill="#6BC161"/>
<path d="M77 2H9V30H77V2Z" fill="#6BC161"/>
<path opacity="0.01" d="M34.1562 15.825C34.4497 15.825 34.6875 15.59 34.6875 15.3C34.6875 15.0101 34.4497 14.775 34.1562 14.775C33.8628 14.775 33.625 15.0101 33.625 15.3C33.625 15.59 33.8628 15.825 34.1562 15.825Z" fill="#D9D9D9"/>
<path opacity="0.01" d="M61.7812 15.825C62.0747 15.825 62.3125 15.59 62.3125 15.3C62.3125 15.0101 62.0747 14.775 61.7812 14.775C61.4878 14.775 61.25 15.0101 61.25 15.3C61.25 15.59 61.4878 15.825 61.7812 15.825Z" fill="#D9D9D9"/>
<path opacity="0.01" d="M61.7813 9H34.1562V21.6H61.7813V9Z" fill="#D9D9D9"/>
<path d="M34.1562 15.3L38.4063 9H57.5313L61.7813 15.3L57.5313 21.6H38.4063L34.1562 15.3Z" fill="white"/>
<path d="M36.5312 15.3L40.1066 10H56.1959L59.7713 15.3L56.1959 20.6H40.1066L36.5312 15.3Z" fill="#3CBA2E"/>
<path d="M24.2699 15.108V17H23.3622V13.7273H24.2273V14.3047H24.2656C24.3381 14.1143 24.4595 13.9638 24.63 13.853C24.8004 13.7408 25.0071 13.6847 25.25 13.6847C25.4773 13.6847 25.6754 13.7344 25.8445 13.8338C26.0135 13.9332 26.1449 14.0753 26.2386 14.2599C26.3324 14.4432 26.3793 14.6619 26.3793 14.9162V17H25.4716V15.0781C25.473 14.8778 25.4219 14.7216 25.3182 14.6094C25.2145 14.4957 25.0717 14.4389 24.8899 14.4389C24.7678 14.4389 24.6598 14.4652 24.5661 14.5178C24.4737 14.5703 24.4013 14.647 24.3487 14.7479C24.2976 14.8473 24.2713 14.9673 24.2699 15.108ZM28.5733 17.0639C28.2424 17.0639 27.9561 16.9936 27.7147 16.853C27.4746 16.7109 27.2892 16.5135 27.1586 16.2607C27.0279 16.0064 26.9625 15.7116 26.9625 15.3764C26.9625 15.0384 27.0279 14.7429 27.1586 14.4901C27.2892 14.2358 27.4746 14.0384 27.7147 13.8977C27.9561 13.7557 28.2424 13.6847 28.5733 13.6847C28.9043 13.6847 29.1898 13.7557 29.4299 13.8977C29.6713 14.0384 29.8574 14.2358 29.9881 14.4901C30.1188 14.7429 30.1841 15.0384 30.1841 15.3764C30.1841 15.7116 30.1188 16.0064 29.9881 16.2607C29.8574 16.5135 29.6713 16.7109 29.4299 16.853C29.1898 16.9936 28.9043 17.0639 28.5733 17.0639ZM28.5776 16.3608C28.7282 16.3608 28.8539 16.3182 28.9547 16.233C29.0556 16.1463 29.1316 16.0284 29.1827 15.8793C29.2353 15.7301 29.2615 15.5604 29.2615 15.37C29.2615 15.1797 29.2353 15.0099 29.1827 14.8608C29.1316 14.7116 29.0556 14.5937 28.9547 14.5071C28.8539 14.4205 28.7282 14.3771 28.5776 14.3771C28.4256 14.3771 28.2978 14.4205 28.1941 14.5071C28.0918 14.5937 28.0144 14.7116 27.9618 14.8608C27.9107 15.0099 27.8851 15.1797 27.8851 15.37C27.8851 15.5604 27.9107 15.7301 27.9618 15.8793C28.0144 16.0284 28.0918 16.1463 28.1941 16.233C28.2978 16.3182 28.4256 16.3608 28.5776 16.3608ZM32.5151 13.7273V14.4091H30.5442V13.7273H32.5151ZM30.9917 12.9432H31.8993V15.9943C31.8993 16.0781 31.9121 16.1435 31.9377 16.1903C31.9632 16.2358 31.9988 16.2678 32.0442 16.2862C32.0911 16.3047 32.1451 16.3139 32.2061 16.3139C32.2488 16.3139 32.2914 16.3104 32.334 16.3033C32.3766 16.2947 32.4093 16.2884 32.432 16.2841L32.5748 16.9595C32.5293 16.9737 32.4654 16.9901 32.383 17.0085C32.3006 17.0284 32.2005 17.0405 32.0826 17.0447C31.8638 17.0533 31.6721 17.0241 31.5073 16.9574C31.3439 16.8906 31.2168 16.7869 31.1259 16.6463C31.035 16.5057 30.9902 16.3281 30.9917 16.1136V12.9432Z" fill="white"/>
</svg>
