<svg width="85" height="21" viewBox="0 0 85 21" fill="none" xmlns="http://www.w3.org/2000/svg">
<g id="not_operator" clip-path="url(#clip0_56_223)">
<path id="bbox" opacity="0.01" d="M85 0H0V21H85V0Z" fill="black"/>
<path id="capLeft" d="M0 10.5L6.375 0V21L0 10.5Z" fill="#66C56E"/>
<path id="bodyStretch" d="M78.625 0H6.375V21H78.625V0Z" fill="#66C56E"/>
<path id="capRight" d="M85 10.5L78.625 21V0L85 10.5Z" fill="#66C56E"/>
<g id="input:a">
<path id="anchor-input:a-left" opacity="0.01" d="M30.5 11.025C30.7934 11.025 31.0312 10.79 31.0312 10.5C31.0312 10.2101 30.7934 9.97501 30.5 9.97501C30.2066 9.97501 29.9688 10.2101 29.9688 10.5C29.9688 10.79 30.2066 11.025 30.5 11.025Z" fill="#D9D9D9"/>
<path id="anchor-input:a-right" opacity="0.01" d="M58.125 11.025C58.4184 11.025 58.6562 10.79 58.6562 10.5C58.6562 10.2101 58.4184 9.97501 58.125 9.97501C57.8316 9.97501 57.5938 10.2101 57.5938 10.5C57.5938 10.79 57.8316 11.025 58.125 11.025Z" fill="#D9D9D9"/>
<path id="box" opacity="0.01" d="M58.125 4.20001H30.5V16.8H58.125V4.20001Z" fill="#D9D9D9"/>
<path id="slotVisual" d="M30.5 10.5L34.75 4.20001H53.875L58.125 10.5L53.875 16.8H34.75L30.5 10.5Z" fill="white"/>
</g>
<path id="anchor:input-left" opacity="0.01" d="M0 11.025C0.293401 11.025 0.53125 10.79 0.53125 10.5C0.53125 10.2101 0.293401 9.97501 0 9.97501C-0.293401 9.97501 -0.53125 10.2101 -0.53125 10.5C-0.53125 10.79 -0.293401 11.025 0 11.025Z" fill="#D9D9D9"/>
<path id="anchor:input-right" opacity="0.01" d="M85 11.025C85.2934 11.025 85.5312 10.79 85.5312 10.5C85.5312 10.2101 85.2934 9.97501 85 9.97501C84.7066 9.97501 84.4688 10.2101 84.4688 10.5C84.4688 10.79 84.7066 11.025 85 11.025Z" fill="#D9D9D9"/>
<path id="text" d="M16.4815 10.7926V13H15.4226V9.18182H16.4318V9.85547H16.4766C16.5611 9.6334 16.7028 9.45774 16.9016 9.32848C17.1005 9.19756 17.3416 9.1321 17.625 9.1321C17.8902 9.1321 18.1213 9.1901 18.3185 9.30611C18.5157 9.42211 18.669 9.58783 18.7784 9.80327C18.8878 10.017 18.9425 10.2723 18.9425 10.5689V13H17.8835V10.7578C17.8852 10.5241 17.8255 10.3419 17.7045 10.2109C17.5836 10.0784 17.417 10.0121 17.2049 10.0121C17.0624 10.0121 16.9364 10.0427 16.8271 10.104C16.7193 10.1654 16.6348 10.2549 16.5735 10.3725C16.5138 10.4885 16.4832 10.6286 16.4815 10.7926ZM21.5022 13.0746C21.1161 13.0746 20.7822 12.9925 20.5004 12.8285C20.2204 12.6628 20.0041 12.4324 19.8517 12.1374C19.6992 11.8408 19.623 11.4969 19.623 11.1058C19.623 10.7114 19.6992 10.3667 19.8517 10.0717C20.0041 9.77509 20.2204 9.54474 20.5004 9.38068C20.7822 9.21496 21.1161 9.1321 21.5022 9.1321C21.8883 9.1321 22.2214 9.21496 22.5015 9.38068C22.7832 9.54474 23.0003 9.77509 23.1528 10.0717C23.3052 10.3667 23.3815 10.7114 23.3815 11.1058C23.3815 11.4969 23.3052 11.8408 23.1528 12.1374C23.0003 12.4324 22.7832 12.6628 22.5015 12.8285C22.2214 12.9925 21.8883 13.0746 21.5022 13.0746ZM21.5072 12.2543C21.6829 12.2543 21.8295 12.2045 21.9472 12.1051C22.0648 12.004 22.1535 11.8665 22.2132 11.6925C22.2745 11.5185 22.3051 11.3204 22.3051 11.0984C22.3051 10.8763 22.2745 10.6783 22.2132 10.5043C22.1535 10.3303 22.0648 10.1927 21.9472 10.0916C21.8295 9.99053 21.6829 9.93999 21.5072 9.93999C21.3299 9.93999 21.1807 9.99053 21.0597 10.0916C20.9404 10.1927 20.8501 10.3303 20.7888 10.5043C20.7291 10.6783 20.6993 10.8763 20.6993 11.0984C20.6993 11.3204 20.7291 11.5185 20.7888 11.6925C20.8501 11.8665 20.9404 12.004 21.0597 12.1051C21.1807 12.2045 21.3299 12.2543 21.5072 12.2543ZM26.1009 9.18182V9.97727H23.8016V9.18182H26.1009ZM24.3236 8.26705H25.3825V11.8267C25.3825 11.9245 25.3975 12.0007 25.4273 12.0554C25.4571 12.1084 25.4985 12.1457 25.5516 12.1673C25.6063 12.1888 25.6692 12.1996 25.7405 12.1996C25.7902 12.1996 25.8399 12.1954 25.8896 12.1871C25.9394 12.1772 25.9775 12.1697 26.004 12.1648L26.1705 12.9528C26.1175 12.9693 26.0429 12.9884 25.9468 13.0099C25.8507 13.0331 25.7339 13.0472 25.5963 13.0522C25.3411 13.0621 25.1174 13.0282 24.9252 12.9503C24.7346 12.8724 24.5863 12.7514 24.4802 12.5874C24.3741 12.4233 24.3219 12.2161 24.3236 11.9659V8.26705Z" fill="white"/>
</g>
<defs>
<clipPath id="clip0_56_223">
<rect width="85" height="21" fill="white"/>
</clipPath>
</defs>
</svg>
