<svg width="86" height="32" viewBox="0 0 86 32" fill="none" xmlns="http://www.w3.org/2000/svg">
<path d="M0 16L7 0V32L0 16Z" fill="white"/>
<path d="M86 16L79 32V0L86 16Z" fill="white"/>
<path d="M79 0H7V32H79V0Z" fill="white"/>
<path d="M2 16L9 2V30L2 16Z" fill="#6BC161"/>
<path d="M84 16L77 30V2L84 16Z" fill="#6BC161"/>
<path d="M77 2H9V30H77V2Z" fill="#6BC161"/>
<path opacity="0.01" d="M7.53125 16.825C7.82465 16.825 8.0625 16.5899 8.0625 16.3C8.0625 16.0101 7.82465 15.775 7.53125 15.775C7.23785 15.775 7 16.0101 7 16.3C7 16.5899 7.23785 16.825 7.53125 16.825Z" fill="#D9D9D9"/>
<path opacity="0.01" d="M35.1562 16.825C35.4497 16.825 35.6875 16.5899 35.6875 16.3C35.6875 16.0101 35.4497 15.775 35.1562 15.775C34.8628 15.775 34.625 16.0101 34.625 16.3C34.625 16.5899 34.8628 16.825 35.1562 16.825Z" fill="#D9D9D9"/>
<path opacity="0.01" d="M35.1563 10H7.53125V22.6H35.1563V10Z" fill="#D9D9D9"/>
<path d="M7.53125 16.3L11.7813 10H30.9063L35.1563 16.3L30.9063 22.6H11.7813L7.53125 16.3Z" fill="white"/>
<path opacity="0.01" d="M50.1562 16.825C50.4497 16.825 50.6875 16.5899 50.6875 16.3C50.6875 16.0101 50.4497 15.775 50.1562 15.775C49.8628 15.775 49.625 16.0101 49.625 16.3C49.625 16.5899 49.8628 16.825 50.1562 16.825Z" fill="#D9D9D9"/>
<path opacity="0.01" d="M77.7812 16.825C78.0747 16.825 78.3125 16.5899 78.3125 16.3C78.3125 16.0101 78.0747 15.775 77.7812 15.775C77.4878 15.775 77.25 16.0101 77.25 16.3C77.25 16.5899 77.4878 16.825 77.7812 16.825Z" fill="#D9D9D9"/>
<path opacity="0.01" d="M77.7813 10H50.1562V22.6H77.7813V10Z" fill="#D9D9D9"/>
<path d="M50.1562 16.3L54.4063 10H73.5313L77.7813 16.3L73.5313 22.6H54.4063L50.1562 16.3Z" fill="white"/>
<path d="M40.8409 18.0639C40.5099 18.0639 40.2237 17.9936 39.9822 17.853C39.7422 17.7109 39.5568 17.5135 39.4261 17.2607C39.2955 17.0064 39.2301 16.7116 39.2301 16.3764C39.2301 16.0384 39.2955 15.7429 39.4261 15.4901C39.5568 15.2358 39.7422 15.0384 39.9822 14.8977C40.2237 14.7557 40.5099 14.6847 40.8409 14.6847C41.1719 14.6847 41.4574 14.7557 41.6974 14.8977C41.9389 15.0384 42.125 15.2358 42.2557 15.4901C42.3864 15.7429 42.4517 16.0384 42.4517 16.3764C42.4517 16.7116 42.3864 17.0064 42.2557 17.2607C42.125 17.5135 41.9389 17.7109 41.6974 17.853C41.4574 17.9936 41.1719 18.0639 40.8409 18.0639ZM40.8452 17.3608C40.9957 17.3608 41.1214 17.3182 41.2223 17.233C41.3232 17.1463 41.3991 17.0284 41.4503 16.8793C41.5028 16.7301 41.5291 16.5604 41.5291 16.37C41.5291 16.1797 41.5028 16.0099 41.4503 15.8608C41.3991 15.7116 41.3232 15.5937 41.2223 15.5071C41.1214 15.4205 40.9957 15.3771 40.8452 15.3771C40.6932 15.3771 40.5653 15.4205 40.4616 15.5071C40.3594 15.5937 40.282 15.7116 40.2294 15.8608C40.1783 16.0099 40.1527 16.1797 40.1527 16.37C40.1527 16.5604 40.1783 16.7301 40.2294 16.8793C40.282 17.0284 40.3594 17.1463 40.4616 17.233C40.5653 17.3182 40.6932 17.3608 40.8452 17.3608ZM43.0419 18V14.7273H43.9219V15.2983H43.956C44.0156 15.0952 44.1158 14.9418 44.2564 14.8381C44.397 14.733 44.5589 14.6804 44.7422 14.6804C44.7876 14.6804 44.8366 14.6832 44.8892 14.6889C44.9418 14.6946 44.9879 14.7024 45.0277 14.7124V15.5178C44.9851 15.505 44.9261 15.4936 44.8509 15.4837C44.7756 15.4737 44.7067 15.4688 44.6442 15.4688C44.5107 15.4688 44.3913 15.4979 44.2862 15.5561C44.1825 15.6129 44.1001 15.6925 44.0391 15.7947C43.9794 15.897 43.9496 16.0149 43.9496 16.1484V18H43.0419Z" fill="white"/>
</svg>
