<svg width="85" height="21" viewBox="0 0 85 21" fill="none" xmlns="http://www.w3.org/2000/svg">
<g id="or_operator" clip-path="url(#clip0_56_205)">
<path id="bbox" opacity="0.01" d="M85 0H0V21H85V0Z" fill="black"/>
<path id="capLeft" d="M0 10.5L6.375 0V21L0 10.5Z" fill="#66C56E"/>
<path id="bodyStretch" d="M78.625 0H6.375V21H78.625V0Z" fill="#66C56E"/>
<path id="capRight" d="M85 10.5L78.625 21V0L85 10.5Z" fill="#66C56E"/>
<g id="input:a">
<path id="anchor-input:a-left" opacity="0.01" d="M8.375 11.025C8.6684 11.025 8.90625 10.79 8.90625 10.5C8.90625 10.2101 8.6684 9.97501 8.375 9.97501C8.0816 9.97501 7.84375 10.2101 7.84375 10.5C7.84375 10.79 8.0816 11.025 8.375 11.025Z" fill="#D9D9D9"/>
<path id="anchor-input:a-right" opacity="0.01" d="M36 11.025C36.2934 11.025 36.5312 10.79 36.5312 10.5C36.5312 10.2101 36.2934 9.97501 36 9.97501C35.7066 9.97501 35.4688 10.2101 35.4688 10.5C35.4688 10.79 35.7066 11.025 36 11.025Z" fill="#D9D9D9"/>
<path id="box" opacity="0.01" d="M36 4.20001H8.375V16.8H36V4.20001Z" fill="#D9D9D9"/>
<path id="slotVisual" d="M8.375 10.5L12.625 4.20001H31.75L36 10.5L31.75 16.8H12.625L8.375 10.5Z" fill="white"/>
</g>
<g id="input:b">
<path id="anchor-input:b-left" opacity="0.01" d="M49 11.025C49.2934 11.025 49.5312 10.79 49.5312 10.5C49.5312 10.2101 49.2934 9.97501 49 9.97501C48.7066 9.97501 48.4688 10.2101 48.4688 10.5C48.4688 10.79 48.7066 11.025 49 11.025Z" fill="#D9D9D9"/>
<path id="anchor-input:b-right" opacity="0.01" d="M76.625 11.025C76.9184 11.025 77.1562 10.79 77.1562 10.5C77.1562 10.2101 76.9184 9.97501 76.625 9.97501C76.3316 9.97501 76.0938 10.2101 76.0938 10.5C76.0938 10.79 76.3316 11.025 76.625 11.025Z" fill="#D9D9D9"/>
<path id="box_2" opacity="0.01" d="M76.625 4.20001H49V16.8H76.625V4.20001Z" fill="#D9D9D9"/>
<path id="slotVisual_2" d="M49 10.5L53.25 4.20001H72.375L76.625 10.5L72.375 16.8H53.25L49 10.5Z" fill="white"/>
</g>
<path id="anchor:input-left" opacity="0.01" d="M0 11.025C0.293401 11.025 0.53125 10.79 0.53125 10.5C0.53125 10.2101 0.293401 9.97501 0 9.97501C-0.293401 9.97501 -0.53125 10.2101 -0.53125 10.5C-0.53125 10.79 -0.293401 11.025 0 11.025Z" fill="#D9D9D9"/>
<path id="anchor:input-right" opacity="0.01" d="M85 11.025C85.2934 11.025 85.5312 10.79 85.5312 10.5C85.5312 10.2101 85.2934 9.97501 85 9.97501C84.7066 9.97501 84.4688 10.2101 84.4688 10.5C84.4688 10.79 84.7066 11.025 85 11.025Z" fill="#D9D9D9"/>
<path id="text" d="M40.4545 13.0852C40.0133 13.0852 39.6316 12.9915 39.3097 12.804C38.9896 12.6146 38.7424 12.3513 38.5682 12.0142C38.3939 11.6752 38.3068 11.2822 38.3068 10.8352C38.3068 10.3845 38.3939 9.99053 38.5682 9.65341C38.7424 9.31439 38.9896 9.05114 39.3097 8.86364C39.6316 8.67424 40.0133 8.57955 40.4545 8.57955C40.8958 8.57955 41.2765 8.67424 41.5966 8.86364C41.9186 9.05114 42.1667 9.31439 42.3409 9.65341C42.5152 9.99053 42.6023 10.3845 42.6023 10.8352C42.6023 11.2822 42.5152 11.6752 42.3409 12.0142C42.1667 12.3513 41.9186 12.6146 41.5966 12.804C41.2765 12.9915 40.8958 13.0852 40.4545 13.0852ZM40.4602 12.1477C40.661 12.1477 40.8286 12.0909 40.9631 11.9773C41.0975 11.8617 41.1989 11.7045 41.267 11.5057C41.3371 11.3068 41.3722 11.0805 41.3722 10.8267C41.3722 10.5729 41.3371 10.3466 41.267 10.1477C41.1989 9.94886 41.0975 9.79167 40.9631 9.67614C40.8286 9.56061 40.661 9.50284 40.4602 9.50284C40.2576 9.50284 40.0871 9.56061 39.9489 9.67614C39.8125 9.79167 39.7093 9.94886 39.6392 10.1477C39.571 10.3466 39.5369 10.5729 39.5369 10.8267C39.5369 11.0805 39.571 11.3068 39.6392 11.5057C39.7093 11.7045 39.8125 11.8617 39.9489 11.9773C40.0871 12.0909 40.2576 12.1477 40.4602 12.1477ZM43.3892 13V8.63636H44.5625V9.39773H44.608C44.6875 9.12689 44.821 8.92235 45.0085 8.78409C45.196 8.64394 45.4119 8.57386 45.6562 8.57386C45.7169 8.57386 45.7822 8.57765 45.8523 8.58523C45.9223 8.5928 45.9839 8.60322 46.0369 8.61648V9.69034C45.9801 9.6733 45.9015 9.65814 45.8011 9.64489C45.7008 9.63163 45.6089 9.625 45.5256 9.625C45.3475 9.625 45.1884 9.66383 45.0483 9.74148C44.91 9.81723 44.8002 9.9233 44.7188 10.0597C44.6392 10.196 44.5994 10.3532 44.5994 10.5312V13H43.3892Z" fill="white"/>
</g>
<defs>
<clipPath id="clip0_56_205">
<rect width="85" height="21" fill="white"/>
</clipPath>
</defs>
</svg>
