<svg width="246" height="54" viewBox="0 0 246 54" fill="none" xmlns="http://www.w3.org/2000/svg">
<g id="or_operator">
<g id="block_shape">
<path d="M32 0H213V53H32V0Z" fill="#6BC161"/>
<path d="M0 27L33 0.153214V53.8468L0 27Z" fill="#6BC161"/>
<path d="M246 27L213 53.8468V0.153212L246 27Z" fill="#6BC161"/>
</g>
<g id="block_input">
<path id="text" d="M119.682 30.1278C119.02 30.1278 118.447 29.9872 117.964 29.706C117.484 29.4219 117.114 29.027 116.852 28.5213C116.591 28.0128 116.46 27.4233 116.46 26.7528C116.46 26.0767 116.591 25.4858 116.852 24.9801C117.114 24.4716 117.484 24.0767 117.964 23.7955C118.447 23.5114 119.02 23.3693 119.682 23.3693C120.344 23.3693 120.915 23.5114 121.395 23.7955C121.878 24.0767 122.25 24.4716 122.511 24.9801C122.773 25.4858 122.903 26.0767 122.903 26.7528C122.903 27.4233 122.773 28.0128 122.511 28.5213C122.25 29.027 121.878 29.4219 121.395 29.706C120.915 29.9872 120.344 30.1278 119.682 30.1278ZM119.69 28.7216C119.991 28.7216 120.243 28.6364 120.445 28.4659C120.646 28.2926 120.798 28.0568 120.901 27.7585C121.006 27.4602 121.058 27.1207 121.058 26.7401C121.058 26.3594 121.006 26.0199 120.901 25.7216C120.798 25.4233 120.646 25.1875 120.445 25.0142C120.243 24.8409 119.991 24.7543 119.69 24.7543C119.386 24.7543 119.131 24.8409 118.923 25.0142C118.719 25.1875 118.564 25.4233 118.459 25.7216C118.357 26.0199 118.305 26.3594 118.305 26.7401C118.305 27.1207 118.357 27.4602 118.459 27.7585C118.564 28.0568 118.719 28.2926 118.923 28.4659C119.131 28.6364 119.386 28.7216 119.69 28.7216ZM124.084 30V23.4545H125.844V24.5966H125.912C126.031 24.1903 126.232 23.8835 126.513 23.6761C126.794 23.4659 127.118 23.3608 127.484 23.3608C127.575 23.3608 127.673 23.3665 127.778 23.3778C127.884 23.3892 127.976 23.4048 128.055 23.4247V25.0355C127.97 25.0099 127.852 24.9872 127.702 24.9673C127.551 24.9474 127.413 24.9375 127.288 24.9375C127.021 24.9375 126.783 24.9957 126.572 25.1122C126.365 25.2259 126.2 25.3849 126.078 25.5895C125.959 25.794 125.899 26.0298 125.899 26.2969V30H124.084Z" fill="white"/>
<g id="input_2">
<path d="M155.837 17H222.793V36.6855H155.837V17Z" fill="white"/>
<path d="M144 27.0285L156.207 17.0569V37L144 27.0285Z" fill="white"/>
<path d="M235 27.0285L222.793 37V17.0569L235 27.0285Z" fill="white"/>
</g>
<g id="input_1">
<path d="M22.8374 17H89.7927V36.6855H22.8374V17Z" fill="white"/>
<path d="M11 27.0285L23.2073 17.0569V37L11 27.0285Z" fill="white"/>
<path d="M102 27.0285L89.7927 37V17.0569L102 27.0285Z" fill="white"/>
</g>
</g>
</g>
</svg>
