<svg width="248" height="149" viewBox="0 0 248 149" fill="none" xmlns="http://www.w3.org/2000/svg">
<g id="point_in_menu">
<path id="anchor:next" opacity="0.01" d="M123 141C123.552 141 124 140.552 124 140C124 139.448 123.552 139 123 139C122.448 139 122 139.448 122 140C122 140.552 122.448 141 123 141Z" fill="#D9D9D9"/>
<g id="arrowHead">
<g id="border">
<path id="Vector" d="M123 140L148 115H98L123 140Z" fill="white"/>
<path id="Vector_2" d="M123 135L143 115H103L123 135Z" fill="white"/>
</g>
<g id="tip">
<path id="Vector_3" d="M123 135L143 115H103L123 135Z" fill="#42A5F5"/>
<path id="Vector_4" d="M123 131L139 115H107L123 131Z" fill="#42A5F5"/>
</g>
<path id="shaft" d="M135.048 93H113.048V115H135.048V93Z" fill="#42A5F5"/>
</g>
<path id="bodyStretch" d="M0 50.5421C0 41.4061 14.1745 34 31.6596 34H216.341C233.826 34 248 41.4061 248 50.5421V76.4579C248 85.5939 233.826 93 216.341 93H31.6596C14.1745 93 0 85.5939 0 76.4579V50.5421Z" fill="#42A5F5"/>
<g id="input:value">
<g id="block_input">
<path id="input_constant" d="M151 62C151 56.4772 155.477 52 161 52H218C223.523 52 228 56.4772 228 62V66C228 71.5228 223.523 76 218 76H161C155.477 76 151 71.5228 151 66V62Z" fill="white"/>
</g>
</g>
<path id="change_y_by_text" d="M20.9055 73.0682V61.8182H23.1428V63.1925H23.244C23.3434 62.9723 23.4872 62.7486 23.6754 62.5213C23.8672 62.2905 24.1158 62.0987 24.4212 61.946C24.7301 61.7898 25.1136 61.7116 25.5717 61.7116C26.1683 61.7116 26.7188 61.8679 27.223 62.1804C27.7273 62.4893 28.1303 62.9563 28.4322 63.5813C28.734 64.2028 28.8849 64.9822 28.8849 65.9197C28.8849 66.8324 28.7376 67.603 28.4428 68.2315C28.1516 68.8565 27.7539 69.3306 27.2496 69.6538C26.7489 69.9734 26.1879 70.1332 25.5664 70.1332C25.1261 70.1332 24.7514 70.0604 24.4425 69.9148C24.1371 69.7692 23.8867 69.5863 23.6914 69.3661C23.4961 69.1424 23.3469 68.9169 23.244 68.6896H23.1747V73.0682H20.9055ZM23.1268 65.9091C23.1268 66.3956 23.1942 66.82 23.3292 67.1822C23.4641 67.5444 23.6594 67.8267 23.9151 68.0291C24.1708 68.228 24.4815 68.3274 24.8473 68.3274C25.2166 68.3274 25.5291 68.2262 25.7848 68.0238C26.0405 67.8178 26.234 67.5337 26.3654 67.1715C26.5004 66.8058 26.5678 66.3849 26.5678 65.9091C26.5678 65.4368 26.5021 65.0213 26.3707 64.6626C26.2393 64.304 26.0458 64.0234 25.7901 63.821C25.5344 63.6186 25.2202 63.5174 24.8473 63.5174C24.478 63.5174 24.1655 63.6151 23.9098 63.8104C23.6577 64.0057 23.4641 64.2827 23.3292 64.6413C23.1942 65 23.1268 65.4226 23.1268 65.9091ZM34.0945 70.1598C33.267 70.1598 32.5515 69.984 31.9478 69.6325C31.3477 69.2773 30.8842 68.7837 30.5575 68.1516C30.2308 67.516 30.0675 66.7791 30.0675 65.9411C30.0675 65.0959 30.2308 64.3572 30.5575 63.7251C30.8842 63.0895 31.3477 62.5959 31.9478 62.2443C32.5515 61.8892 33.267 61.7116 34.0945 61.7116C34.9219 61.7116 35.6357 61.8892 36.2358 62.2443C36.8395 62.5959 37.3047 63.0895 37.6314 63.7251C37.9581 64.3572 38.1214 65.0959 38.1214 65.9411C38.1214 66.7791 37.9581 67.516 37.6314 68.1516C37.3047 68.7837 36.8395 69.2773 36.2358 69.6325C35.6357 69.984 34.9219 70.1598 34.0945 70.1598ZM34.1051 68.402C34.4815 68.402 34.7958 68.2955 35.0479 68.0824C35.3001 67.8658 35.4901 67.571 35.6179 67.1982C35.7493 66.8253 35.815 66.4009 35.815 65.9251C35.815 65.4492 35.7493 65.0249 35.6179 64.652C35.4901 64.2791 35.3001 63.9844 35.0479 63.7678C34.7958 63.5511 34.4815 63.4428 34.1051 63.4428C33.7251 63.4428 33.4055 63.5511 33.1463 63.7678C32.8906 63.9844 32.6971 64.2791 32.5657 64.652C32.4379 65.0249 32.3739 65.4492 32.3739 65.9251C32.3739 66.4009 32.4379 66.8253 32.5657 67.1982C32.6971 67.571 32.8906 67.8658 33.1463 68.0824C33.4055 68.2955 33.7251 68.402 34.1051 68.402ZM39.5969 70V61.8182H41.8661V70H39.5969ZM40.7369 60.7635C40.3995 60.7635 40.1101 60.6516 39.8686 60.4279C39.6307 60.2006 39.5117 59.929 39.5117 59.6129C39.5117 59.3004 39.6307 59.0323 39.8686 58.8086C40.1101 58.5813 40.3995 58.4677 40.7369 58.4677C41.0742 58.4677 41.3619 58.5813 41.5998 58.8086C41.8413 59.0323 41.962 59.3004 41.962 59.6129C41.962 59.929 41.8413 60.2006 41.5998 60.4279C41.3619 60.6516 41.0742 60.7635 40.7369 60.7635ZM45.953 65.2699V70H43.6839V61.8182H45.8465V63.2617H45.9424C46.1235 62.7859 46.4271 62.4094 46.8532 62.1325C47.2794 61.8519 47.7961 61.7116 48.4033 61.7116C48.9715 61.7116 49.4669 61.8359 49.8895 62.0845C50.3121 62.3331 50.6405 62.6882 50.8749 63.1499C51.1093 63.608 51.2265 64.1548 51.2265 64.7905V70H48.9573V65.1953C48.9608 64.6946 48.833 64.304 48.5738 64.0234C48.3145 63.7393 47.9577 63.5973 47.5031 63.5973C47.1977 63.5973 46.9278 63.663 46.6934 63.7944C46.4626 63.9258 46.2815 64.1175 46.1501 64.3697C46.0223 64.6183 45.9566 64.9183 45.953 65.2699ZM57.3668 61.8182V63.5227H52.4396V61.8182H57.3668ZM53.5582 59.858H55.8274V67.4858C55.8274 67.6953 55.8594 67.8587 55.9233 67.9759C55.9872 68.0895 56.076 68.1694 56.1896 68.2156C56.3068 68.2617 56.4418 68.2848 56.5945 68.2848C56.701 68.2848 56.8075 68.2759 56.9141 68.2582C57.0206 68.2369 57.1023 68.2209 57.1591 68.2102L57.516 69.8988C57.4023 69.9343 57.2425 69.9751 57.0366 70.0213C56.8306 70.071 56.5803 70.1012 56.2855 70.1119C55.7386 70.1332 55.2592 70.0604 54.8473 69.8935C54.4389 69.7266 54.1211 69.4673 53.8938 69.1158C53.6665 68.7642 53.5547 68.3203 53.5582 67.7841V59.858ZM62.3167 70V61.8182H64.5858V70H62.3167ZM63.4566 60.7635C63.1192 60.7635 62.8298 60.6516 62.5883 60.4279C62.3504 60.2006 62.2314 59.929 62.2314 59.6129C62.2314 59.3004 62.3504 59.0323 62.5883 58.8086C62.8298 58.5813 63.1192 58.4677 63.4566 58.4677C63.7939 58.4677 64.0816 58.5813 64.3195 58.8086C64.561 59.0323 64.6817 59.3004 64.6817 59.6129C64.6817 59.929 64.561 60.2006 64.3195 60.4279C64.0816 60.6516 63.7939 60.7635 63.4566 60.7635ZM68.6728 65.2699V70H66.4036V61.8182H68.5662V63.2617H68.6621C68.8432 62.7859 69.1468 62.4094 69.573 62.1325C69.9991 61.8519 70.5158 61.7116 71.123 61.7116C71.6912 61.7116 72.1866 61.8359 72.6092 62.0845C73.0318 62.3331 73.3603 62.6882 73.5946 63.1499C73.829 63.608 73.9462 64.1548 73.9462 64.7905V70H71.677V65.1953C71.6806 64.6946 71.5527 64.304 71.2935 64.0234C71.0343 63.7393 70.6774 63.5973 70.2228 63.5973C69.9174 63.5973 69.6475 63.663 69.4132 63.7944C69.1824 63.9258 69.0012 64.1175 68.8699 64.3697C68.742 64.6183 68.6763 64.9183 68.6728 65.2699ZM82.2212 70.1332C81.5998 70.1332 81.0369 69.9734 80.5327 69.6538C80.032 69.3306 79.6342 68.8565 79.3395 68.2315C79.0483 67.603 78.9027 66.8324 78.9027 65.9197C78.9027 64.9822 79.0536 64.2028 79.3555 63.5813C79.6573 62.9563 80.0586 62.4893 80.5593 62.1804C81.0636 61.8679 81.6158 61.7116 82.2159 61.7116C82.674 61.7116 83.0558 61.7898 83.3612 61.946C83.6701 62.0987 83.9187 62.2905 84.1069 62.5213C84.2987 62.7486 84.4442 62.9723 84.5437 63.1925H84.6129V59.0909H86.8768V70H84.6396V68.6896H84.5437C84.4371 68.9169 84.2862 69.1424 84.0909 69.3661C83.8991 69.5863 83.6488 69.7692 83.3398 69.9148C83.0344 70.0604 82.6616 70.1332 82.2212 70.1332ZM82.9403 68.3274C83.3061 68.3274 83.6151 68.228 83.8672 68.0291C84.1229 67.8267 84.3182 67.5444 84.4531 67.1822C84.5916 66.82 84.6609 66.3956 84.6609 65.9091C84.6609 65.4226 84.5934 65 84.4585 64.6413C84.3235 64.2827 84.1282 64.0057 83.8725 63.8104C83.6168 63.6151 83.3061 63.5174 82.9403 63.5174C82.5675 63.5174 82.2532 63.6186 81.9975 63.821C81.7418 64.0234 81.5483 64.304 81.4169 64.6626C81.2855 65.0213 81.2198 65.4368 81.2198 65.9091C81.2198 66.3849 81.2855 66.8058 81.4169 67.1715C81.5518 67.5337 81.7454 67.8178 81.9975 68.0238C82.2532 68.2262 82.5675 68.3274 82.9403 68.3274ZM88.7425 70V61.8182H91.0116V70H88.7425ZM89.8824 60.7635C89.545 60.7635 89.2556 60.6516 89.0141 60.4279C88.7762 60.2006 88.6572 59.929 88.6572 59.6129C88.6572 59.3004 88.7762 59.0323 89.0141 58.8086C89.2556 58.5813 89.545 58.4677 89.8824 58.4677C90.2197 58.4677 90.5074 58.5813 90.7453 58.8086C90.9868 59.0323 91.1075 59.3004 91.1075 59.6129C91.1075 59.929 90.9868 60.2006 90.7453 60.4279C90.5074 60.6516 90.2197 60.7635 89.8824 60.7635ZM92.8294 70V61.8182H95.0293V63.2457H95.1145C95.2637 62.7379 95.514 62.3544 95.8656 62.0952C96.2172 61.8324 96.622 61.701 97.0801 61.701C97.1937 61.701 97.3162 61.7081 97.4476 61.7223C97.579 61.7365 97.6944 61.756 97.7939 61.7809V63.7944C97.6873 63.7624 97.54 63.734 97.3517 63.7092C97.1635 63.6843 96.9913 63.6719 96.835 63.6719C96.5012 63.6719 96.2029 63.7447 95.9402 63.8903C95.6809 64.0323 95.475 64.2312 95.3223 64.4869C95.1731 64.7425 95.0985 65.0373 95.0985 65.3711V70H92.8294ZM102.315 70.1598C101.473 70.1598 100.749 69.9893 100.142 69.6484C99.5379 69.304 99.0727 68.8175 98.746 68.1889C98.4193 67.5568 98.2559 66.8093 98.2559 65.9464C98.2559 65.1048 98.4193 64.3661 98.746 63.7305C99.0727 63.0948 99.5326 62.5994 100.126 62.2443C100.722 61.8892 101.422 61.7116 102.224 61.7116C102.764 61.7116 103.267 61.7987 103.732 61.9727C104.201 62.1431 104.609 62.4006 104.957 62.745C105.309 63.0895 105.582 63.5227 105.777 64.0447C105.973 64.5632 106.07 65.1705 106.07 65.8665V66.4897H99.1615V65.0835H103.934C103.934 64.7567 103.863 64.4673 103.721 64.2152C103.579 63.9631 103.382 63.766 103.13 63.6239C102.881 63.4783 102.592 63.4055 102.262 63.4055C101.917 63.4055 101.612 63.4854 101.345 63.6452C101.083 63.8015 100.877 64.0128 100.728 64.2791C100.578 64.5419 100.502 64.8349 100.498 65.158V66.495C100.498 66.8999 100.573 67.2496 100.722 67.5444C100.875 67.8391 101.09 68.0664 101.367 68.2262C101.644 68.386 101.972 68.4659 102.352 68.4659C102.604 68.4659 102.835 68.4304 103.045 68.3594C103.254 68.2884 103.434 68.1818 103.583 68.0398C103.732 67.8977 103.845 67.7237 103.924 67.5178L106.022 67.6562C105.916 68.1605 105.697 68.6009 105.367 68.9773C105.04 69.3501 104.618 69.6413 104.099 69.8509C103.584 70.0568 102.99 70.1598 102.315 70.1598ZM111.248 70.1598C110.41 70.1598 109.689 69.9822 109.085 69.6271C108.485 69.2685 108.023 68.7713 107.7 68.1357C107.381 67.5 107.221 66.7685 107.221 65.9411C107.221 65.103 107.382 64.3679 107.706 63.7358C108.032 63.1001 108.496 62.6048 109.096 62.2496C109.696 61.891 110.41 61.7116 111.237 61.7116C111.951 61.7116 112.576 61.8413 113.112 62.1005C113.648 62.3597 114.073 62.7237 114.385 63.1925C114.698 63.6612 114.87 64.2116 114.902 64.8438H112.761C112.7 64.4354 112.54 64.1069 112.281 63.8583C112.025 63.6062 111.69 63.4801 111.274 63.4801C110.923 63.4801 110.616 63.576 110.353 63.7678C110.094 63.956 109.891 64.2312 109.746 64.5934C109.6 64.9556 109.527 65.3942 109.527 65.9091C109.527 66.4311 109.598 66.875 109.74 67.2408C109.886 67.6065 110.09 67.8853 110.353 68.0771C110.616 68.2688 110.923 68.3647 111.274 68.3647C111.534 68.3647 111.766 68.3114 111.972 68.2049C112.182 68.0984 112.354 67.9439 112.489 67.7415C112.627 67.5355 112.718 67.2887 112.761 67.0011H114.902C114.866 67.6261 114.696 68.1765 114.391 68.6523C114.089 69.1246 113.671 69.494 113.139 69.7603C112.606 70.0266 111.976 70.1598 111.248 70.1598ZM120.707 61.8182V63.5227H115.779V61.8182H120.707ZM116.898 59.858H119.167V67.4858C119.167 67.6953 119.199 67.8587 119.263 67.9759C119.327 68.0895 119.416 68.1694 119.529 68.2156C119.647 68.2617 119.782 68.2848 119.934 68.2848C120.041 68.2848 120.147 68.2759 120.254 68.2582C120.36 68.2369 120.442 68.2209 120.499 68.2102L120.856 69.8988C120.742 69.9343 120.582 69.9751 120.376 70.0213C120.17 70.071 119.92 70.1012 119.625 70.1119C119.078 70.1332 118.599 70.0604 118.187 69.8935C117.779 69.7266 117.461 69.4673 117.234 69.1158C117.006 68.7642 116.895 68.3203 116.898 67.7841V59.858ZM122.185 70V61.8182H124.454V70H122.185ZM123.325 60.7635C122.987 60.7635 122.698 60.6516 122.456 60.4279C122.219 60.2006 122.1 59.929 122.1 59.6129C122.1 59.3004 122.219 59.0323 122.456 58.8086C122.698 58.5813 122.987 58.4677 123.325 58.4677C123.662 58.4677 123.95 58.5813 124.188 58.8086C124.429 59.0323 124.55 59.3004 124.55 59.6129C124.55 59.929 124.429 60.2006 124.188 60.4279C123.95 60.6516 123.662 60.7635 123.325 60.7635ZM129.968 70.1598C129.141 70.1598 128.426 69.984 127.822 69.6325C127.222 69.2773 126.758 68.7837 126.432 68.1516C126.105 67.516 125.941 66.7791 125.941 65.9411C125.941 65.0959 126.105 64.3572 126.432 63.7251C126.758 63.0895 127.222 62.5959 127.822 62.2443C128.426 61.8892 129.141 61.7116 129.968 61.7116C130.796 61.7116 131.51 61.8892 132.11 62.2443C132.714 62.5959 133.179 63.0895 133.505 63.7251C133.832 64.3572 133.995 65.0959 133.995 65.9411C133.995 66.7791 133.832 67.516 133.505 68.1516C133.179 68.7837 132.714 69.2773 132.11 69.6325C131.51 69.984 130.796 70.1598 129.968 70.1598ZM129.979 68.402C130.356 68.402 130.67 68.2955 130.922 68.0824C131.174 67.8658 131.364 67.571 131.492 67.1982C131.623 66.8253 131.689 66.4009 131.689 65.9251C131.689 65.4492 131.623 65.0249 131.492 64.652C131.364 64.2791 131.174 63.9844 130.922 63.7678C130.67 63.5511 130.356 63.4428 129.979 63.4428C129.599 63.4428 129.28 63.5511 129.02 63.7678C128.765 63.9844 128.571 64.2791 128.44 64.652C128.312 65.0249 128.248 65.4492 128.248 65.9251C128.248 66.4009 128.312 66.8253 128.44 67.1982C128.571 67.571 128.765 67.8658 129.02 68.0824C129.28 68.2955 129.599 68.402 129.979 68.402ZM137.74 65.2699V70H135.471V61.8182H137.634V63.2617H137.729C137.911 62.7859 138.214 62.4094 138.64 62.1325C139.066 61.8519 139.583 61.7116 140.19 61.7116C140.759 61.7116 141.254 61.8359 141.677 62.0845C142.099 62.3331 142.428 62.6882 142.662 63.1499C142.896 63.608 143.014 64.1548 143.014 64.7905V70H140.744V65.1953C140.748 64.6946 140.62 64.304 140.361 64.0234C140.102 63.7393 139.745 63.5973 139.29 63.5973C138.985 63.5973 138.715 63.663 138.481 63.7944C138.25 63.9258 138.069 64.1175 137.937 64.3697C137.809 64.6183 137.744 64.9183 137.74 65.2699Z" fill="white"/>
<g id="capTop">
<path id="anchor:prev" opacity="0.01" d="M123 35C123.552 35 124 34.5523 124 34C124 33.4477 123.552 33 123 33C122.448 33 122 33.4477 122 34C122 34.5523 122.448 35 123 35Z" fill="#D9D9D9"/>
<path id="Vector_5" d="M123 34H98V9L123 34Z" fill="#42A5F5"/>
<path id="Vector_6" d="M148 34H123L148 9V34Z" fill="#42A5F5"/>
<path id="stripe" d="M148 14L123 39L98 14V9L123 34L148 9V14Z" fill="white"/>
</g>
</g>
</svg>
