<svg width="694" height="700" viewBox="0 0 694 700" fill="none" xmlns="http://www.w3.org/2000/svg">
<g id="repeat_until">
<g id="block_shape">
<g id="true_block_arrow">
<circle id="anchor:next" opacity="0.01" cx="190" cy="699" r="1" fill="#D9D9D9"/>
<g id="border">
<path d="M190 698L215 673H165L190 698Z" fill="white"/>
<path d="M190 693L210 673H170L190 693Z" fill="white"/>
</g>
<g id="tip">
<path d="M190 693L210 673H170L190 693Z" fill="#F0B43B"/>
<path d="M190 689L206 673H174L190 689Z" fill="#F0B43B"/>
</g>
<path id="shaft" d="M201 93H179V673H201V93Z" fill="#F0B43B"/>
<g id="true_text">
<mask id="path-5-outside-1_112_266" maskUnits="userSpaceOnUse" x="179" y="675" width="22" height="10" fill="black">
<rect fill="white" x="179" y="675" width="22" height="10"/>
<path d="M183.505 677.545V678.682H180.22V677.545H183.505ZM180.966 676.239H182.479V681.324C182.479 681.464 182.5 681.572 182.543 681.651C182.585 681.726 182.644 681.78 182.72 681.81C182.798 681.841 182.888 681.857 182.99 681.857C183.061 681.857 183.132 681.851 183.203 681.839C183.274 681.825 183.329 681.814 183.366 681.807L183.604 682.933C183.529 682.956 183.422 682.983 183.285 683.014C183.147 683.047 182.981 683.067 182.784 683.075C182.42 683.089 182.1 683.04 181.825 682.929C181.553 682.818 181.341 682.645 181.19 682.411C181.038 682.176 180.964 681.88 180.966 681.523V676.239ZM184.49 683V677.545H185.957V678.497H186.014C186.113 678.159 186.28 677.903 186.515 677.73C186.749 677.555 187.019 677.467 187.324 677.467C187.4 677.467 187.482 677.472 187.569 677.482C187.657 677.491 187.734 677.504 187.8 677.521V678.863C187.729 678.842 187.631 678.823 187.505 678.806C187.38 678.79 187.265 678.781 187.161 678.781C186.938 678.781 186.739 678.83 186.564 678.927C186.391 679.022 186.254 679.154 186.152 679.325C186.053 679.495 186.003 679.692 186.003 679.914V683H184.49ZM192.08 680.678V677.545H193.593V683H192.14V682.009H192.084C191.961 682.329 191.756 682.586 191.469 682.78C191.185 682.974 190.838 683.071 190.429 683.071C190.064 683.071 189.743 682.988 189.466 682.822C189.189 682.657 188.973 682.421 188.817 682.116C188.663 681.81 188.585 681.445 188.582 681.018V677.545H190.095V680.749C190.097 681.071 190.184 681.325 190.354 681.512C190.525 681.699 190.753 681.793 191.04 681.793C191.222 681.793 191.392 681.751 191.551 681.668C191.71 681.583 191.837 681.458 191.934 681.292C192.034 681.126 192.082 680.921 192.08 680.678ZM197.289 683.107C196.728 683.107 196.245 682.993 195.84 682.766C195.437 682.536 195.127 682.212 194.909 681.793C194.692 681.371 194.583 680.873 194.583 680.298C194.583 679.737 194.692 679.244 194.909 678.82C195.127 678.397 195.434 678.066 195.829 677.83C196.227 677.593 196.693 677.474 197.228 677.474C197.588 677.474 197.923 677.532 198.233 677.648C198.546 677.762 198.818 677.934 199.05 678.163C199.284 678.393 199.467 678.682 199.597 679.03C199.727 679.375 199.792 679.78 199.792 680.244V680.66H195.186V679.722H198.368C198.368 679.504 198.321 679.312 198.226 679.143C198.132 678.975 198 678.844 197.832 678.749C197.666 678.652 197.473 678.604 197.253 678.604C197.024 678.604 196.82 678.657 196.642 678.763C196.467 678.868 196.33 679.009 196.23 679.186C196.131 679.361 196.08 679.557 196.078 679.772V680.663C196.078 680.933 196.127 681.166 196.227 681.363C196.329 681.559 196.472 681.711 196.657 681.817C196.841 681.924 197.06 681.977 197.314 681.977C197.482 681.977 197.636 681.954 197.775 681.906C197.915 681.859 198.034 681.788 198.134 681.693C198.233 681.598 198.309 681.482 198.361 681.345L199.76 681.438C199.689 681.774 199.544 682.067 199.324 682.318C199.106 682.567 198.824 682.761 198.478 682.901C198.135 683.038 197.739 683.107 197.289 683.107Z"/>
</mask>
<path d="M183.505 677.545V678.682H180.22V677.545H183.505ZM180.966 676.239H182.479V681.324C182.479 681.464 182.5 681.572 182.543 681.651C182.585 681.726 182.644 681.78 182.72 681.81C182.798 681.841 182.888 681.857 182.99 681.857C183.061 681.857 183.132 681.851 183.203 681.839C183.274 681.825 183.329 681.814 183.366 681.807L183.604 682.933C183.529 682.956 183.422 682.983 183.285 683.014C183.147 683.047 182.981 683.067 182.784 683.075C182.42 683.089 182.1 683.04 181.825 682.929C181.553 682.818 181.341 682.645 181.19 682.411C181.038 682.176 180.964 681.88 180.966 681.523V676.239ZM184.49 683V677.545H185.957V678.497H186.014C186.113 678.159 186.28 677.903 186.515 677.73C186.749 677.555 187.019 677.467 187.324 677.467C187.4 677.467 187.482 677.472 187.569 677.482C187.657 677.491 187.734 677.504 187.8 677.521V678.863C187.729 678.842 187.631 678.823 187.505 678.806C187.38 678.79 187.265 678.781 187.161 678.781C186.938 678.781 186.739 678.83 186.564 678.927C186.391 679.022 186.254 679.154 186.152 679.325C186.053 679.495 186.003 679.692 186.003 679.914V683H184.49ZM192.08 680.678V677.545H193.593V683H192.14V682.009H192.084C191.961 682.329 191.756 682.586 191.469 682.78C191.185 682.974 190.838 683.071 190.429 683.071C190.064 683.071 189.743 682.988 189.466 682.822C189.189 682.657 188.973 682.421 188.817 682.116C188.663 681.81 188.585 681.445 188.582 681.018V677.545H190.095V680.749C190.097 681.071 190.184 681.325 190.354 681.512C190.525 681.699 190.753 681.793 191.04 681.793C191.222 681.793 191.392 681.751 191.551 681.668C191.71 681.583 191.837 681.458 191.934 681.292C192.034 681.126 192.082 680.921 192.08 680.678ZM197.289 683.107C196.728 683.107 196.245 682.993 195.84 682.766C195.437 682.536 195.127 682.212 194.909 681.793C194.692 681.371 194.583 680.873 194.583 680.298C194.583 679.737 194.692 679.244 194.909 678.82C195.127 678.397 195.434 678.066 195.829 677.83C196.227 677.593 196.693 677.474 197.228 677.474C197.588 677.474 197.923 677.532 198.233 677.648C198.546 677.762 198.818 677.934 199.05 678.163C199.284 678.393 199.467 678.682 199.597 679.03C199.727 679.375 199.792 679.78 199.792 680.244V680.66H195.186V679.722H198.368C198.368 679.504 198.321 679.312 198.226 679.143C198.132 678.975 198 678.844 197.832 678.749C197.666 678.652 197.473 678.604 197.253 678.604C197.024 678.604 196.82 678.657 196.642 678.763C196.467 678.868 196.33 679.009 196.23 679.186C196.131 679.361 196.08 679.557 196.078 679.772V680.663C196.078 680.933 196.127 681.166 196.227 681.363C196.329 681.559 196.472 681.711 196.657 681.817C196.841 681.924 197.06 681.977 197.314 681.977C197.482 681.977 197.636 681.954 197.775 681.906C197.915 681.859 198.034 681.788 198.134 681.693C198.233 681.598 198.309 681.482 198.361 681.345L199.76 681.438C199.689 681.774 199.544 682.067 199.324 682.318C199.106 682.567 198.824 682.761 198.478 682.901C198.135 683.038 197.739 683.107 197.289 683.107Z" fill="white"/>
<path d="M183.505 677.545H184.505V676.545H183.505V677.545ZM183.505 678.682V679.682H184.505V678.682H183.505ZM180.22 678.682H179.22V679.682H180.22V678.682ZM180.22 677.545V676.545H179.22V677.545H180.22ZM180.966 676.239V675.239H179.966V676.239H180.966ZM182.479 676.239H183.479V675.239H182.479V676.239ZM182.543 681.651L181.665 682.129L181.671 682.141L182.543 681.651ZM182.72 681.81L182.344 682.737L182.354 682.741L182.72 681.81ZM183.203 681.839L183.368 682.825L183.383 682.823L183.399 682.819L183.203 681.839ZM183.366 681.807L184.345 681.6L184.143 680.644L183.182 680.824L183.366 681.807ZM183.604 682.933L183.903 683.887L184.771 683.616L184.583 682.726L183.604 682.933ZM183.285 683.014L183.066 682.038L183.058 682.04L183.05 682.042L183.285 683.014ZM182.784 683.075L182.748 682.075L182.745 682.075L182.784 683.075ZM181.825 682.929L181.447 683.855L181.45 683.856L181.825 682.929ZM181.19 682.411L182.029 681.868L181.19 682.411ZM180.966 681.523L181.966 681.529V681.523H180.966ZM183.505 677.545H182.505V678.682H183.505H184.505V677.545H183.505ZM183.505 678.682V677.682H180.22V678.682V679.682H183.505V678.682ZM180.22 678.682H181.22V677.545H180.22H179.22V678.682H180.22ZM180.22 677.545V678.545H183.505V677.545V676.545H180.22V677.545ZM180.966 676.239V677.239H182.479V676.239V675.239H180.966V676.239ZM182.479 676.239H181.479V681.324H182.479H183.479V676.239H182.479ZM182.479 681.324H181.479C181.479 681.545 181.509 681.844 181.665 682.129L182.543 681.651L183.421 681.172C183.459 681.241 183.472 681.296 183.476 681.318C183.48 681.341 183.479 681.345 183.479 681.324H182.479ZM182.543 681.651L181.671 682.141C181.817 682.4 182.045 682.615 182.344 682.737L182.72 681.81L183.097 680.884C183.163 680.911 183.229 680.951 183.288 681.004C183.346 681.057 183.387 681.112 183.414 681.16L182.543 681.651ZM182.72 681.81L182.354 682.741C182.57 682.826 182.789 682.857 182.99 682.857V681.857V680.857C182.988 680.857 183.026 680.856 183.087 680.88L182.72 681.81ZM182.99 681.857V682.857C183.117 682.857 183.243 682.846 183.368 682.825L183.203 681.839L183.039 680.852C183.021 680.855 183.005 680.857 182.99 680.857V681.857ZM183.203 681.839L183.399 682.819C183.469 682.805 183.519 682.796 183.551 682.79L183.366 681.807L183.182 680.824C183.138 680.832 183.079 680.844 183.007 680.858L183.203 681.839ZM183.366 681.807L182.388 682.014L182.626 683.139L183.604 682.933L184.583 682.726L184.345 681.6L183.366 681.807ZM183.604 682.933L183.306 681.978C183.269 681.99 183.194 682.01 183.066 682.038L183.285 683.014L183.504 683.99C183.651 683.957 183.788 683.923 183.903 683.887L183.604 682.933ZM183.285 683.014L183.05 682.042C182.998 682.055 182.901 682.07 182.748 682.075L182.784 683.075L182.82 684.074C183.06 684.065 183.297 684.04 183.519 683.986L183.285 683.014ZM182.784 683.075L182.745 682.075C182.49 682.085 182.317 682.049 182.201 682.002L181.825 682.929L181.45 683.856C181.883 684.031 182.349 684.092 182.823 684.074L182.784 683.075ZM181.825 682.929L182.204 682.003C182.11 681.965 182.064 681.921 182.029 681.868L181.19 682.411L180.35 682.953C180.619 683.369 180.996 683.67 181.447 683.855L181.825 682.929ZM181.19 682.411L182.029 681.868C182.01 681.837 181.964 681.746 181.966 681.529L180.966 681.523L179.966 681.516C179.963 682.014 180.066 682.515 180.35 682.953L181.19 682.411ZM180.966 681.523H181.966V676.239H180.966H179.966V681.523H180.966ZM184.49 683H183.49V684H184.49V683ZM184.49 677.545V676.545H183.49V677.545H184.49ZM185.957 677.545H186.957V676.545H185.957V677.545ZM185.957 678.497H184.957V679.497H185.957V678.497ZM186.014 678.497V679.497H186.762L186.973 678.779L186.014 678.497ZM186.515 677.73L187.108 678.535L187.113 678.531L186.515 677.73ZM187.569 677.482L187.677 676.487L187.677 676.487L187.569 677.482ZM187.8 677.521H188.8V676.74L188.043 676.55L187.8 677.521ZM187.8 678.863L187.513 679.821L188.8 680.207V678.863H187.8ZM186.564 678.927L187.045 679.804L187.049 679.802L186.564 678.927ZM186.152 679.325L185.294 678.812L185.289 678.821L186.152 679.325ZM186.003 683V684H187.003V683H186.003ZM184.49 683H185.49V677.545H184.49H183.49V683H184.49ZM184.49 677.545V678.545H185.957V677.545V676.545H184.49V677.545ZM185.957 677.545H184.957V678.497H185.957H186.957V677.545H185.957ZM185.957 678.497V679.497H186.014V678.497V677.497H185.957V678.497ZM186.014 678.497L186.973 678.779C187.025 678.605 187.084 678.552 187.108 678.535L186.515 677.73L185.921 676.925C185.476 677.253 185.202 677.713 185.054 678.215L186.014 678.497ZM186.515 677.73L187.113 678.531C187.167 678.491 187.225 678.467 187.324 678.467V677.467V676.467C186.813 676.467 186.331 676.619 185.916 676.929L186.515 677.73ZM187.324 677.467V678.467C187.359 678.467 187.404 678.47 187.462 678.476L187.569 677.482L187.677 676.487C187.559 676.475 187.441 676.467 187.324 676.467V677.467ZM187.569 677.482L187.462 678.476C187.516 678.482 187.546 678.488 187.558 678.491L187.8 677.521L188.043 676.55C187.921 676.52 187.798 676.5 187.677 676.487L187.569 677.482ZM187.8 677.521H186.8V678.863H187.8H188.8V677.521H187.8ZM187.8 678.863L188.087 677.905C187.942 677.861 187.783 677.834 187.636 677.815L187.505 678.806L187.374 679.797C187.422 679.804 187.458 679.81 187.484 679.815C187.51 679.82 187.518 679.822 187.513 679.821L187.8 678.863ZM187.505 678.806L187.636 677.815C187.476 677.794 187.317 677.781 187.161 677.781V678.781V679.781C187.213 679.781 187.283 679.785 187.374 679.797L187.505 678.806ZM187.161 678.781V677.781C186.788 677.781 186.419 677.864 186.08 678.052L186.564 678.927L187.049 679.802C187.06 679.796 187.089 679.781 187.161 679.781V678.781ZM186.564 678.927L186.084 678.05C185.754 678.231 185.486 678.49 185.294 678.812L186.152 679.325L187.011 679.837C187.022 679.819 187.029 679.812 187.045 679.804L186.564 678.927ZM186.152 679.325L185.289 678.821C185.089 679.163 185.003 679.538 185.003 679.914H186.003H187.003C187.003 679.878 187.007 679.856 187.01 679.845C187.012 679.835 187.015 679.831 187.016 679.828L186.152 679.325ZM186.003 679.914H185.003V683H186.003H187.003V679.914H186.003ZM186.003 683V682H184.49V683V684H186.003V683ZM192.08 680.678H191.08L191.08 680.687L192.08 680.678ZM192.08 677.545V676.545H191.08V677.545H192.08ZM193.593 677.545H194.593V676.545H193.593V677.545ZM193.593 683V684H194.593V683H193.593ZM192.14 683H191.14V684H192.14V683ZM192.14 682.009H193.14V681.009H192.14V682.009ZM192.084 682.009V681.009H191.397L191.15 681.65L192.084 682.009ZM191.469 682.78L190.908 681.952L190.905 681.954L191.469 682.78ZM189.466 682.822L189.98 681.964L189.466 682.822ZM188.817 682.116L187.924 682.566L187.926 682.571L188.817 682.116ZM188.582 681.018H187.582L187.582 681.024L188.582 681.018ZM188.582 677.545V676.545H187.582V677.545H188.582ZM190.095 677.545H191.095V676.545H190.095V677.545ZM190.095 680.749H189.095L189.095 680.756L190.095 680.749ZM190.354 681.512L191.093 680.838L190.354 681.512ZM191.551 681.668L192.014 682.555L192.024 682.549L191.551 681.668ZM191.934 681.292L191.077 680.777L191.072 680.787L191.934 681.292ZM192.08 680.678H193.08V677.545H192.08H191.08V680.678H192.08ZM192.08 677.545V678.545H193.593V677.545V676.545H192.08V677.545ZM193.593 677.545H192.593V683H193.593H194.593V677.545H193.593ZM193.593 683V682H192.14V683V684H193.593V683ZM192.14 683H193.14V682.009H192.14H191.14V683H192.14ZM192.14 682.009V681.009H192.084V682.009V683.009H192.14V682.009ZM192.084 682.009L191.15 681.65C191.102 681.777 191.028 681.871 190.908 681.952L191.469 682.78L192.03 683.608C192.484 683.3 192.82 682.881 193.017 682.369L192.084 682.009ZM191.469 682.78L190.905 681.954C190.817 682.015 190.676 682.071 190.429 682.071V683.071V684.071C191.001 684.071 191.554 683.933 192.033 683.605L191.469 682.78ZM190.429 683.071V682.071C190.221 682.071 190.082 682.026 189.98 681.964L189.466 682.822L188.953 683.681C189.405 683.951 189.907 684.071 190.429 684.071V683.071ZM189.466 682.822L189.98 681.964C189.874 681.901 189.783 681.81 189.707 681.66L188.817 682.116L187.926 682.571C188.162 683.033 188.505 683.412 188.953 683.681L189.466 682.822ZM188.817 682.116L189.71 681.666C189.64 681.528 189.584 681.322 189.582 681.013L188.582 681.018L187.582 681.024C187.585 681.567 187.685 682.093 187.924 682.566L188.817 682.116ZM188.582 681.018H189.582V677.545H188.582H187.582V681.018H188.582ZM188.582 677.545V678.545H190.095V677.545V676.545H188.582V677.545ZM190.095 677.545H189.095V680.749H190.095H191.095V677.545H190.095ZM190.095 680.749L189.095 680.756C189.099 681.255 189.237 681.771 189.615 682.186L190.354 681.512L191.093 680.838C191.099 680.845 191.103 680.851 191.107 680.856C191.11 680.862 191.11 680.863 191.108 680.859C191.106 680.851 191.096 680.816 191.095 680.741L190.095 680.749ZM190.354 681.512L189.615 682.186C190.001 682.609 190.513 682.793 191.04 682.793V681.793V680.793C191.006 680.793 191.009 680.787 191.032 680.797C191.044 680.802 191.056 680.808 191.068 680.817C191.08 680.825 191.089 680.833 191.093 680.838L190.354 681.512ZM191.04 681.793V682.793C191.38 682.793 191.71 682.714 192.014 682.555L191.551 681.668L191.088 680.782C191.075 680.789 191.064 680.793 191.04 680.793V681.793ZM191.551 681.668L192.024 682.549C192.356 682.371 192.614 682.111 192.797 681.797L191.934 681.292L191.072 680.787C191.068 680.793 191.065 680.796 191.064 680.797C191.064 680.799 191.064 680.798 191.065 680.797C191.067 680.795 191.069 680.793 191.072 680.791C191.074 680.789 191.076 680.788 191.078 680.787L191.551 681.668ZM191.934 681.292L192.792 681.806C193.008 681.446 193.084 681.048 193.08 680.668L192.08 680.678L191.08 680.687C191.081 680.794 191.06 680.806 191.077 680.777L191.934 681.292ZM195.84 682.766L195.344 683.634L195.35 683.638L195.84 682.766ZM194.909 681.793L194.021 682.252L194.022 682.254L194.909 681.793ZM194.909 678.82L194.02 678.363L194.909 678.82ZM195.829 677.83L195.318 676.97L195.315 676.972L195.829 677.83ZM198.233 677.648L197.883 678.585L197.892 678.588L198.233 677.648ZM199.05 678.163L198.347 678.874L198.35 678.878L199.05 678.163ZM199.597 679.03L198.66 679.38L198.661 679.382L199.597 679.03ZM199.792 680.66V681.66H200.792V680.66H199.792ZM195.186 680.66H194.186V681.66H195.186V680.66ZM195.186 679.722V678.722H194.186V679.722H195.186ZM198.368 679.722V680.722H199.368V679.722H198.368ZM198.226 679.143L197.355 679.634V679.634L198.226 679.143ZM197.832 678.749L197.327 679.612L197.334 679.616L197.341 679.621L197.832 678.749ZM196.642 678.763L197.153 679.623L197.157 679.621L196.642 678.763ZM196.23 679.186L197.1 679.68L197.103 679.675L196.23 679.186ZM196.078 679.772L195.078 679.761V679.772H196.078ZM196.227 681.363L195.335 681.814L195.339 681.823L196.227 681.363ZM197.775 681.906L197.454 680.959L197.775 681.906ZM198.134 681.693L197.444 680.969L197.444 680.969L198.134 681.693ZM198.361 681.345L198.427 680.347L197.689 680.299L197.426 680.991L198.361 681.345ZM199.76 681.438L200.739 681.644L200.977 680.516L199.826 680.44L199.76 681.438ZM199.324 682.318L198.572 681.659L198.571 681.659L199.324 682.318ZM198.478 682.901L198.85 683.829L198.853 683.828L198.478 682.901ZM197.289 683.107V682.107C196.863 682.107 196.556 682.021 196.329 681.894L195.84 682.766L195.35 683.638C195.933 683.965 196.592 684.107 197.289 684.107V683.107ZM195.84 682.766L196.335 681.897C196.103 681.765 195.928 681.583 195.797 681.331L194.909 681.793L194.022 682.254C194.327 682.84 194.771 683.307 195.344 683.634L195.84 682.766ZM194.909 681.793L195.798 681.333C195.667 681.081 195.583 680.747 195.583 680.298H194.583H193.583C193.583 680.999 193.716 681.661 194.021 682.252L194.909 681.793ZM194.583 680.298H195.583C195.583 679.867 195.666 679.537 195.799 679.277L194.909 678.82L194.02 678.363C193.718 678.951 193.583 679.606 193.583 680.298H194.583ZM194.909 678.82L195.799 679.277C195.934 679.014 196.113 678.825 196.343 678.687L195.829 677.83L195.315 676.972C194.754 677.308 194.32 677.779 194.02 678.363L194.909 678.82ZM195.829 677.83L196.341 678.689C196.561 678.558 196.845 678.474 197.228 678.474V677.474V676.474C196.542 676.474 195.893 676.628 195.318 676.97L195.829 677.83ZM197.228 677.474V678.474C197.479 678.474 197.694 678.514 197.883 678.585L198.233 677.648L198.584 676.712C198.152 676.55 197.697 676.474 197.228 676.474V677.474ZM198.233 677.648L197.892 678.588C198.071 678.653 198.219 678.748 198.347 678.874L199.05 678.163L199.754 677.453C199.417 677.119 199.021 676.871 198.575 676.709L198.233 677.648ZM199.05 678.163L198.35 678.878C198.467 678.992 198.575 679.151 198.66 679.38L199.597 679.03L200.534 678.679C200.359 678.212 200.102 677.794 199.75 677.449L199.05 678.163ZM199.597 679.03L198.661 679.382C198.74 679.591 198.792 679.871 198.792 680.244H199.792H200.792C200.792 679.69 200.715 679.16 200.533 678.677L199.597 679.03ZM199.792 680.244H198.792V680.66H199.792H200.792V680.244H199.792ZM199.792 680.66V679.66H195.186V680.66V681.66H199.792V680.66ZM195.186 680.66H196.186V679.722H195.186H194.186V680.66H195.186ZM195.186 679.722V680.722H198.368V679.722V678.722H195.186V679.722ZM198.368 679.722H199.368C199.368 679.355 199.287 678.989 199.097 678.653L198.226 679.143L197.355 679.634C197.356 679.637 197.359 679.642 197.362 679.653C197.364 679.664 197.368 679.686 197.368 679.722H198.368ZM198.226 679.143L199.097 678.653C198.913 678.325 198.65 678.062 198.323 677.878L197.832 678.749L197.341 679.621C197.345 679.623 197.348 679.625 197.349 679.625C197.35 679.626 197.35 679.626 197.35 679.626C197.349 679.626 197.35 679.626 197.35 679.627C197.351 679.628 197.353 679.63 197.355 679.634L198.226 679.143ZM197.832 678.749L198.337 677.886C197.997 677.687 197.625 677.604 197.253 677.604V678.604V679.604C197.29 679.604 197.31 679.608 197.319 679.61C197.327 679.612 197.328 679.613 197.327 679.612L197.832 678.749ZM197.253 678.604V677.604C196.863 677.604 196.477 677.696 196.128 677.906L196.642 678.763L197.157 679.621C197.162 679.618 197.184 679.604 197.253 679.604V678.604ZM196.642 678.763L196.131 677.904C195.805 678.098 195.543 678.366 195.358 678.697L196.23 679.186L197.103 679.675C197.116 679.651 197.129 679.638 197.153 679.623L196.642 678.763ZM196.23 679.186L195.361 678.692C195.172 679.025 195.082 679.388 195.078 679.761L196.078 679.772L197.078 679.783C197.078 679.725 197.09 679.697 197.1 679.68L196.23 679.186ZM196.078 679.772H195.078V680.663H196.078H197.078V679.772H196.078ZM196.078 680.663H195.078C195.078 681.055 195.15 681.45 195.335 681.814L196.227 681.363L197.119 680.911C197.105 680.883 197.078 680.811 197.078 680.663H196.078ZM196.227 681.363L195.339 681.823C195.525 682.182 195.8 682.478 196.157 682.684L196.657 681.817L197.156 680.951C197.144 680.944 197.132 680.937 197.115 680.903L196.227 681.363ZM196.657 681.817L196.157 682.684C196.52 682.893 196.918 682.977 197.314 682.977V681.977V680.977C197.203 680.977 197.163 680.955 197.156 680.951L196.657 681.817ZM197.314 681.977V682.977C197.576 682.977 197.84 682.94 198.096 682.853L197.775 681.906L197.454 680.959C197.431 680.967 197.387 680.977 197.314 680.977V681.977ZM197.775 681.906L198.096 682.853C198.363 682.763 198.611 682.62 198.824 682.417L198.134 681.693L197.444 680.969C197.45 680.964 197.455 680.96 197.459 680.958C197.463 680.956 197.462 680.957 197.454 680.959L197.775 681.906ZM198.134 681.693L198.824 682.417C199.039 682.212 199.195 681.967 199.296 681.7L198.361 681.345L197.426 680.991C197.424 680.996 197.424 680.994 197.428 680.988C197.432 680.982 197.438 680.975 197.444 680.969L198.134 681.693ZM198.361 681.345L198.295 682.343L199.694 682.435L199.76 681.438L199.826 680.44L198.427 680.347L198.361 681.345ZM199.76 681.438L198.782 681.231C198.745 681.404 198.675 681.541 198.572 681.659L199.324 682.318L200.075 682.978C200.412 682.594 200.633 682.143 200.739 681.644L199.76 681.438ZM199.324 682.318L198.571 681.659C198.469 681.776 198.323 681.885 198.104 681.973L198.478 682.901L198.853 683.828C199.325 683.637 199.742 683.358 200.076 682.977L199.324 682.318ZM198.478 682.901L198.107 681.972C197.904 682.053 197.638 682.107 197.289 682.107V683.107V684.107C197.839 684.107 198.366 684.023 198.85 683.829L198.478 682.901Z" fill="#059A26" mask="url(#path-5-outside-1_112_266)"/>
</g>
</g>
<g id="false_block_arrow">
<circle id="anchor:false" opacity="0.01" cx="501" cy="139" r="1" fill="#D9D9D9"/>
<g id="border_2">
<path d="M501 139L526 114H476L501 139Z" fill="white"/>
<path d="M501 134L521 114H481L501 134Z" fill="white"/>
</g>
<g id="tip_2">
<path d="M501 134L521 114H481L501 134Z" fill="#F0B43B"/>
<path d="M501 130L517 114H485L501 130Z" fill="#F0B43B"/>
</g>
<path id="shaft_2" d="M512 74H490V114H512V74Z" fill="#F0B43B"/>
<path id="horizontal_false_arm" d="M334 52V74L512 74V52L334 52Z" fill="#F0B43B"/>
<g id="false_text">
<mask id="path-12-outside-2_112_266" maskUnits="userSpaceOnUse" x="487" y="115" width="26" height="11" fill="black">
<rect fill="white" x="487" y="115" width="26" height="11"/>
<path d="M491.537 118.545V119.682H488.17V118.545H491.537ZM488.941 124V118.151C488.941 117.756 489.018 117.428 489.172 117.168C489.328 116.907 489.541 116.712 489.811 116.582C490.081 116.451 490.388 116.386 490.731 116.386C490.963 116.386 491.175 116.404 491.366 116.44C491.561 116.475 491.705 116.507 491.8 116.536L491.53 117.672C491.471 117.653 491.397 117.635 491.31 117.619C491.224 117.602 491.137 117.594 491.047 117.594C490.824 117.594 490.669 117.646 490.582 117.75C490.494 117.852 490.45 117.995 490.45 118.18V124H488.941ZM493.821 124.103C493.473 124.103 493.163 124.043 492.891 123.922C492.619 123.799 492.403 123.618 492.244 123.379C492.088 123.137 492.01 122.836 492.01 122.477C492.01 122.174 492.066 121.919 492.177 121.713C492.288 121.507 492.44 121.341 492.632 121.216C492.823 121.09 493.041 120.996 493.285 120.932C493.531 120.868 493.789 120.823 494.059 120.797C494.376 120.764 494.632 120.733 494.826 120.705C495.02 120.674 495.161 120.629 495.249 120.57C495.336 120.51 495.38 120.423 495.38 120.307V120.286C495.38 120.061 495.309 119.887 495.167 119.763C495.027 119.64 494.829 119.579 494.57 119.579C494.298 119.579 494.082 119.639 493.921 119.76C493.76 119.878 493.653 120.027 493.601 120.207L492.202 120.094C492.273 119.762 492.413 119.476 492.621 119.234C492.829 118.991 493.098 118.804 493.427 118.673C493.758 118.541 494.142 118.474 494.578 118.474C494.881 118.474 495.171 118.51 495.448 118.581C495.727 118.652 495.974 118.762 496.19 118.911C496.408 119.06 496.579 119.252 496.705 119.487C496.83 119.719 496.893 119.997 496.893 120.321V124H495.458V123.244H495.416C495.328 123.414 495.211 123.564 495.064 123.695C494.917 123.822 494.741 123.923 494.535 123.996C494.329 124.067 494.091 124.103 493.821 124.103ZM494.254 123.059C494.477 123.059 494.673 123.015 494.844 122.928C495.014 122.838 495.148 122.717 495.245 122.565C495.342 122.414 495.391 122.242 495.391 122.05V121.472C495.343 121.502 495.278 121.531 495.195 121.557C495.115 121.58 495.024 121.603 494.922 121.624C494.82 121.643 494.718 121.661 494.617 121.678C494.515 121.692 494.423 121.705 494.34 121.717C494.162 121.743 494.007 121.784 493.874 121.841C493.742 121.898 493.639 121.975 493.566 122.072C493.492 122.166 493.455 122.285 493.455 122.427C493.455 122.633 493.53 122.79 493.679 122.899C493.831 123.006 494.022 123.059 494.254 123.059ZM499.579 116.727V124H498.067V116.727H499.579ZM505.33 120.101L503.945 120.186C503.921 120.068 503.87 119.961 503.792 119.866C503.714 119.769 503.611 119.692 503.483 119.636C503.357 119.576 503.207 119.547 503.032 119.547C502.798 119.547 502.6 119.597 502.439 119.696C502.278 119.793 502.197 119.923 502.197 120.087C502.197 120.217 502.25 120.327 502.354 120.417C502.458 120.507 502.637 120.579 502.89 120.634L503.877 120.832C504.407 120.941 504.803 121.116 505.063 121.358C505.324 121.599 505.454 121.917 505.454 122.31C505.454 122.667 505.348 122.981 505.138 123.251C504.929 123.521 504.643 123.731 504.278 123.883C503.916 124.032 503.498 124.107 503.025 124.107C502.303 124.107 501.728 123.956 501.299 123.656C500.873 123.353 500.623 122.941 500.55 122.42L502.038 122.342C502.083 122.562 502.192 122.73 502.364 122.846C502.537 122.96 502.759 123.016 503.028 123.016C503.294 123.016 503.507 122.965 503.668 122.864C503.831 122.759 503.914 122.626 503.916 122.462C503.914 122.325 503.856 122.213 503.742 122.125C503.629 122.035 503.453 121.966 503.217 121.919L502.272 121.731C501.739 121.624 501.343 121.44 501.082 121.177C500.824 120.914 500.695 120.579 500.695 120.172C500.695 119.821 500.79 119.52 500.979 119.266C501.171 119.013 501.44 118.818 501.786 118.68C502.134 118.543 502.541 118.474 503.007 118.474C503.696 118.474 504.238 118.62 504.634 118.911C505.031 119.202 505.263 119.599 505.33 120.101ZM508.892 124.107C508.331 124.107 507.848 123.993 507.443 123.766C507.041 123.536 506.731 123.212 506.513 122.793C506.295 122.371 506.186 121.873 506.186 121.298C506.186 120.737 506.295 120.244 506.513 119.82C506.731 119.397 507.037 119.066 507.433 118.83C507.83 118.593 508.297 118.474 508.832 118.474C509.192 118.474 509.527 118.532 509.837 118.648C510.149 118.762 510.422 118.934 510.654 119.163C510.888 119.393 511.07 119.682 511.2 120.03C511.331 120.375 511.396 120.78 511.396 121.244V121.66H506.79V120.722H509.972C509.972 120.504 509.924 120.312 509.83 120.143C509.735 119.975 509.604 119.844 509.436 119.749C509.27 119.652 509.077 119.604 508.857 119.604C508.627 119.604 508.423 119.657 508.246 119.763C508.071 119.868 507.933 120.009 507.834 120.186C507.735 120.361 507.684 120.557 507.681 120.772V121.663C507.681 121.933 507.731 122.166 507.83 122.363C507.932 122.559 508.075 122.711 508.26 122.817C508.445 122.924 508.664 122.977 508.917 122.977C509.085 122.977 509.239 122.954 509.379 122.906C509.518 122.859 509.638 122.788 509.737 122.693C509.837 122.598 509.913 122.482 509.965 122.345L511.364 122.438C511.293 122.774 511.147 123.067 510.927 123.318C510.709 123.567 510.427 123.761 510.082 123.901C509.739 124.038 509.342 124.107 508.892 124.107Z"/>
</mask>
<path d="M491.537 118.545V119.682H488.17V118.545H491.537ZM488.941 124V118.151C488.941 117.756 489.018 117.428 489.172 117.168C489.328 116.907 489.541 116.712 489.811 116.582C490.081 116.451 490.388 116.386 490.731 116.386C490.963 116.386 491.175 116.404 491.366 116.44C491.561 116.475 491.705 116.507 491.8 116.536L491.53 117.672C491.471 117.653 491.397 117.635 491.31 117.619C491.224 117.602 491.137 117.594 491.047 117.594C490.824 117.594 490.669 117.646 490.582 117.75C490.494 117.852 490.45 117.995 490.45 118.18V124H488.941ZM493.821 124.103C493.473 124.103 493.163 124.043 492.891 123.922C492.619 123.799 492.403 123.618 492.244 123.379C492.088 123.137 492.01 122.836 492.01 122.477C492.01 122.174 492.066 121.919 492.177 121.713C492.288 121.507 492.44 121.341 492.632 121.216C492.823 121.09 493.041 120.996 493.285 120.932C493.531 120.868 493.789 120.823 494.059 120.797C494.376 120.764 494.632 120.733 494.826 120.705C495.02 120.674 495.161 120.629 495.249 120.57C495.336 120.51 495.38 120.423 495.38 120.307V120.286C495.38 120.061 495.309 119.887 495.167 119.763C495.027 119.64 494.829 119.579 494.57 119.579C494.298 119.579 494.082 119.639 493.921 119.76C493.76 119.878 493.653 120.027 493.601 120.207L492.202 120.094C492.273 119.762 492.413 119.476 492.621 119.234C492.829 118.991 493.098 118.804 493.427 118.673C493.758 118.541 494.142 118.474 494.578 118.474C494.881 118.474 495.171 118.51 495.448 118.581C495.727 118.652 495.974 118.762 496.19 118.911C496.408 119.06 496.579 119.252 496.705 119.487C496.83 119.719 496.893 119.997 496.893 120.321V124H495.458V123.244H495.416C495.328 123.414 495.211 123.564 495.064 123.695C494.917 123.822 494.741 123.923 494.535 123.996C494.329 124.067 494.091 124.103 493.821 124.103ZM494.254 123.059C494.477 123.059 494.673 123.015 494.844 122.928C495.014 122.838 495.148 122.717 495.245 122.565C495.342 122.414 495.391 122.242 495.391 122.05V121.472C495.343 121.502 495.278 121.531 495.195 121.557C495.115 121.58 495.024 121.603 494.922 121.624C494.82 121.643 494.718 121.661 494.617 121.678C494.515 121.692 494.423 121.705 494.34 121.717C494.162 121.743 494.007 121.784 493.874 121.841C493.742 121.898 493.639 121.975 493.566 122.072C493.492 122.166 493.455 122.285 493.455 122.427C493.455 122.633 493.53 122.79 493.679 122.899C493.831 123.006 494.022 123.059 494.254 123.059ZM499.579 116.727V124H498.067V116.727H499.579ZM505.33 120.101L503.945 120.186C503.921 120.068 503.87 119.961 503.792 119.866C503.714 119.769 503.611 119.692 503.483 119.636C503.357 119.576 503.207 119.547 503.032 119.547C502.798 119.547 502.6 119.597 502.439 119.696C502.278 119.793 502.197 119.923 502.197 120.087C502.197 120.217 502.25 120.327 502.354 120.417C502.458 120.507 502.637 120.579 502.89 120.634L503.877 120.832C504.407 120.941 504.803 121.116 505.063 121.358C505.324 121.599 505.454 121.917 505.454 122.31C505.454 122.667 505.348 122.981 505.138 123.251C504.929 123.521 504.643 123.731 504.278 123.883C503.916 124.032 503.498 124.107 503.025 124.107C502.303 124.107 501.728 123.956 501.299 123.656C500.873 123.353 500.623 122.941 500.55 122.42L502.038 122.342C502.083 122.562 502.192 122.73 502.364 122.846C502.537 122.96 502.759 123.016 503.028 123.016C503.294 123.016 503.507 122.965 503.668 122.864C503.831 122.759 503.914 122.626 503.916 122.462C503.914 122.325 503.856 122.213 503.742 122.125C503.629 122.035 503.453 121.966 503.217 121.919L502.272 121.731C501.739 121.624 501.343 121.44 501.082 121.177C500.824 120.914 500.695 120.579 500.695 120.172C500.695 119.821 500.79 119.52 500.979 119.266C501.171 119.013 501.44 118.818 501.786 118.68C502.134 118.543 502.541 118.474 503.007 118.474C503.696 118.474 504.238 118.62 504.634 118.911C505.031 119.202 505.263 119.599 505.33 120.101ZM508.892 124.107C508.331 124.107 507.848 123.993 507.443 123.766C507.041 123.536 506.731 123.212 506.513 122.793C506.295 122.371 506.186 121.873 506.186 121.298C506.186 120.737 506.295 120.244 506.513 119.82C506.731 119.397 507.037 119.066 507.433 118.83C507.83 118.593 508.297 118.474 508.832 118.474C509.192 118.474 509.527 118.532 509.837 118.648C510.149 118.762 510.422 118.934 510.654 119.163C510.888 119.393 511.07 119.682 511.2 120.03C511.331 120.375 511.396 120.78 511.396 121.244V121.66H506.79V120.722H509.972C509.972 120.504 509.924 120.312 509.83 120.143C509.735 119.975 509.604 119.844 509.436 119.749C509.27 119.652 509.077 119.604 508.857 119.604C508.627 119.604 508.423 119.657 508.246 119.763C508.071 119.868 507.933 120.009 507.834 120.186C507.735 120.361 507.684 120.557 507.681 120.772V121.663C507.681 121.933 507.731 122.166 507.83 122.363C507.932 122.559 508.075 122.711 508.26 122.817C508.445 122.924 508.664 122.977 508.917 122.977C509.085 122.977 509.239 122.954 509.379 122.906C509.518 122.859 509.638 122.788 509.737 122.693C509.837 122.598 509.913 122.482 509.965 122.345L511.364 122.438C511.293 122.774 511.147 123.067 510.927 123.318C510.709 123.567 510.427 123.761 510.082 123.901C509.739 124.038 509.342 124.107 508.892 124.107Z" fill="white"/>
<path d="M491.537 118.545H492.537V117.545H491.537V118.545ZM491.537 119.682V120.682H492.537V119.682H491.537ZM488.17 119.682H487.17V120.682H488.17V119.682ZM488.17 118.545V117.545H487.17V118.545H488.17ZM488.941 124H487.941V125H488.941V124ZM489.172 117.168L488.314 116.653L488.311 116.659L489.172 117.168ZM489.811 116.582L489.377 115.681L489.377 115.681L489.811 116.582ZM491.366 116.44L491.184 117.423L491.187 117.423L491.366 116.44ZM491.8 116.536L492.773 116.767L492.991 115.849L492.087 115.578L491.8 116.536ZM491.53 117.672L491.225 118.624L492.253 118.953L492.503 117.903L491.53 117.672ZM491.31 117.619L491.119 118.6L491.124 118.601L491.31 117.619ZM490.582 117.75L491.34 118.402L491.347 118.394L490.582 117.75ZM490.45 124V125H491.45V124H490.45ZM491.537 118.545H490.537V119.682H491.537H492.537V118.545H491.537ZM491.537 119.682V118.682H488.17V119.682V120.682H491.537V119.682ZM488.17 119.682H489.17V118.545H488.17H487.17V119.682H488.17ZM488.17 118.545V119.545H491.537V118.545V117.545H488.17V118.545ZM488.941 124H489.941V118.151H488.941H487.941V124H488.941ZM488.941 118.151H489.941C489.941 117.881 489.994 117.742 490.033 117.676L489.172 117.168L488.311 116.659C488.042 117.114 487.941 117.631 487.941 118.151H488.941ZM489.172 117.168L490.029 117.682C490.087 117.587 490.154 117.527 490.246 117.482L489.811 116.582L489.377 115.681C488.929 115.897 488.57 116.228 488.314 116.653L489.172 117.168ZM489.811 116.582L490.246 117.482C490.362 117.426 490.516 117.386 490.731 117.386V116.386V115.386C490.259 115.386 489.8 115.477 489.377 115.681L489.811 116.582ZM490.731 116.386V117.386C490.913 117.386 491.063 117.4 491.184 117.423L491.366 116.44L491.549 115.456C491.287 115.408 491.013 115.386 490.731 115.386V116.386ZM491.366 116.44L491.187 117.423C491.373 117.457 491.473 117.481 491.512 117.493L491.8 116.536L492.087 115.578C491.937 115.533 491.749 115.493 491.546 115.456L491.366 116.44ZM491.8 116.536L490.827 116.304L490.557 117.441L491.53 117.672L492.503 117.903L492.773 116.767L491.8 116.536ZM491.53 117.672L491.835 116.719C491.724 116.684 491.608 116.657 491.496 116.636L491.31 117.619L491.124 118.601C491.187 118.613 491.218 118.622 491.225 118.624L491.53 117.672ZM491.31 117.619L491.501 116.637C491.35 116.608 491.199 116.594 491.047 116.594V117.594V118.594C491.075 118.594 491.099 118.596 491.119 118.6L491.31 117.619ZM491.047 117.594V116.594C490.713 116.594 490.187 116.666 489.816 117.106L490.582 117.75L491.347 118.394C491.251 118.508 491.143 118.56 491.082 118.581C491.027 118.599 491.008 118.594 491.047 118.594V117.594ZM490.582 117.75L489.824 117.098C489.53 117.439 489.45 117.845 489.45 118.18H490.45H491.45C491.45 118.145 491.458 118.265 491.34 118.402L490.582 117.75ZM490.45 118.18H489.45V124H490.45H491.45V118.18H490.45ZM490.45 124V123H488.941V124V125H490.45V124ZM492.891 123.922L492.479 124.833L492.485 124.836L492.891 123.922ZM492.244 123.379L491.405 123.922L491.411 123.931L492.244 123.379ZM492.177 121.713L491.297 121.238L492.177 121.713ZM492.632 121.216L492.084 120.379H492.084L492.632 121.216ZM493.285 120.932L493.034 119.964L493.031 119.965L493.285 120.932ZM494.059 120.797L494.155 121.792L494.163 121.791L494.059 120.797ZM494.826 120.705L494.971 121.694L494.983 121.692L494.826 120.705ZM495.249 120.57L494.689 119.741L494.689 119.741L495.249 120.57ZM495.167 119.763L494.506 120.514L494.512 120.519L495.167 119.763ZM493.921 119.76L494.513 120.566L494.521 120.56L493.921 119.76ZM493.601 120.207L493.52 121.204L494.334 121.27L494.562 120.485L493.601 120.207ZM492.202 120.094L491.224 119.884L490.985 120.998L492.121 121.09L492.202 120.094ZM492.621 119.234L493.378 119.888L493.381 119.884L492.621 119.234ZM493.427 118.673L493.795 119.603L493.798 119.602L493.427 118.673ZM495.448 118.581L495.199 119.55L495.201 119.55L495.448 118.581ZM496.19 118.911L495.621 119.733L495.625 119.736L496.19 118.911ZM496.705 119.487L495.823 119.958L495.825 119.962L496.705 119.487ZM496.893 124V125H497.893V124H496.893ZM495.458 124H494.458V125H495.458V124ZM495.458 123.244H496.458V122.244H495.458V123.244ZM495.416 123.244V122.244H494.805L494.526 122.787L495.416 123.244ZM495.064 123.695L495.721 124.449L495.728 124.443L495.064 123.695ZM494.535 123.996L494.861 124.942L494.871 124.938L494.535 123.996ZM494.844 122.928L495.301 123.817L495.311 123.812L494.844 122.928ZM495.245 122.565L494.403 122.026L494.403 122.026L495.245 122.565ZM495.391 121.472H496.391V119.629L494.846 120.633L495.391 121.472ZM495.195 121.557L495.478 122.516L495.487 122.514L495.495 122.511L495.195 121.557ZM494.922 121.624L495.105 122.607L495.116 122.605L495.127 122.603L494.922 121.624ZM494.617 121.678L494.755 122.668L494.766 122.666L494.777 122.665L494.617 121.678ZM494.34 121.717L494.198 120.727L494.195 120.727L494.34 121.717ZM493.874 121.841L494.268 122.76L494.268 122.76L493.874 121.841ZM493.566 122.072L494.356 122.684L494.363 122.675L493.566 122.072ZM493.679 122.899L493.089 123.707L493.097 123.712L493.104 123.717L493.679 122.899ZM493.821 124.103V123.103C493.59 123.103 493.421 123.063 493.296 123.008L492.891 123.922L492.485 124.836C492.905 125.022 493.357 125.103 493.821 125.103V124.103ZM492.891 123.922L493.303 123.011C493.194 122.962 493.128 122.902 493.078 122.826L492.244 123.379L491.411 123.931C491.678 124.334 492.043 124.636 492.479 124.833L492.891 123.922ZM492.244 123.379L493.084 122.835C493.056 122.792 493.01 122.692 493.01 122.477H492.01H491.01C491.01 122.981 491.12 123.482 491.405 123.922L492.244 123.379ZM492.01 122.477H493.01C493.01 122.292 493.044 122.212 493.057 122.188L492.177 121.713L491.297 121.238C491.087 121.626 491.01 122.055 491.01 122.477H492.01ZM492.177 121.713L493.057 122.188C493.091 122.125 493.13 122.085 493.179 122.053L492.632 121.216L492.084 120.379C491.75 120.598 491.486 120.889 491.297 121.238L492.177 121.713ZM492.632 121.216L493.179 122.053C493.272 121.992 493.389 121.938 493.539 121.899L493.285 120.932L493.031 119.965C492.694 120.053 492.375 120.189 492.084 120.379L492.632 121.216ZM493.285 120.932L493.536 121.9C493.728 121.85 493.934 121.814 494.155 121.792L494.059 120.797L493.963 119.801C493.644 119.832 493.334 119.886 493.034 119.964L493.285 120.932ZM494.059 120.797L494.163 121.791C494.487 121.758 494.758 121.725 494.971 121.694L494.826 120.705L494.681 119.715C494.507 119.741 494.266 119.77 493.955 119.802L494.059 120.797ZM494.826 120.705L494.983 121.692C495.218 121.655 495.536 121.583 495.809 121.398L495.249 120.57L494.689 119.741C494.721 119.72 494.745 119.707 494.758 119.701C494.771 119.695 494.777 119.694 494.773 119.695C494.769 119.696 494.759 119.699 494.741 119.703C494.723 119.707 494.7 119.712 494.67 119.717L494.826 120.705ZM495.249 120.57L495.809 121.398C496.202 121.133 496.38 120.717 496.38 120.307H495.38H494.38C494.38 120.238 494.394 120.131 494.453 120.012C494.514 119.89 494.602 119.8 494.689 119.741L495.249 120.57ZM495.38 120.307H496.38V120.286H495.38H494.38V120.307H495.38ZM495.38 120.286H496.38C496.38 119.833 496.226 119.358 495.822 119.008L495.167 119.763L494.512 120.519C494.464 120.478 494.425 120.423 494.401 120.364C494.379 120.31 494.38 120.278 494.38 120.286H495.38ZM495.167 119.763L495.828 119.013C495.446 118.676 494.978 118.579 494.57 118.579V119.579V120.579C494.622 120.579 494.634 120.585 494.617 120.58C494.598 120.574 494.554 120.556 494.506 120.514L495.167 119.763ZM494.57 119.579V118.579C494.157 118.579 493.707 118.67 493.321 118.96L493.921 119.76L494.521 120.56C494.491 120.582 494.47 120.588 494.472 120.587C494.477 120.586 494.507 120.579 494.57 120.579V119.579ZM493.921 119.76L493.328 118.954C493.002 119.194 492.758 119.523 492.64 119.929L493.601 120.207L494.562 120.485C494.557 120.502 494.548 120.522 494.534 120.542C494.52 120.561 494.51 120.568 494.513 120.566L493.921 119.76ZM493.601 120.207L493.682 119.211L492.283 119.097L492.202 120.094L492.121 121.09L493.52 121.204L493.601 120.207ZM492.202 120.094L493.18 120.303C493.218 120.125 493.286 119.994 493.378 119.888L492.621 119.234L491.864 118.581C491.539 118.958 491.328 119.399 491.224 119.884L492.202 120.094ZM492.621 119.234L493.381 119.884C493.473 119.777 493.602 119.68 493.795 119.603L493.427 118.673L493.059 117.743C492.594 117.927 492.186 118.204 491.861 118.585L492.621 119.234ZM493.427 118.673L493.798 119.602C493.989 119.526 494.242 119.474 494.578 119.474V118.474V117.474C494.042 117.474 493.528 117.556 493.056 117.745L493.427 118.673ZM494.578 118.474V119.474C494.802 119.474 495.008 119.501 495.199 119.55L495.448 118.581L495.696 117.612C495.333 117.519 494.959 117.474 494.578 117.474V118.474ZM495.448 118.581L495.201 119.55C495.377 119.595 495.512 119.659 495.621 119.733L496.19 118.911L496.759 118.089C496.436 117.866 496.077 117.709 495.694 117.612L495.448 118.581ZM496.19 118.911L495.625 119.736C495.709 119.794 495.773 119.864 495.823 119.958L496.705 119.487L497.586 119.015C497.386 118.64 497.106 118.327 496.755 118.086L496.19 118.911ZM496.705 119.487L495.825 119.962C495.855 120.018 495.893 120.125 495.893 120.321H496.893H497.893C497.893 119.868 497.805 119.419 497.584 119.011L496.705 119.487ZM496.893 120.321H495.893V124H496.893H497.893V120.321H496.893ZM496.893 124V123H495.458V124V125H496.893V124ZM495.458 124H496.458V123.244H495.458H494.458V124H495.458ZM495.458 123.244V122.244H495.416V123.244V124.244H495.458V123.244ZM495.416 123.244L494.526 122.787C494.497 122.844 494.457 122.897 494.4 122.947L495.064 123.695L495.728 124.443C495.965 124.232 496.16 123.984 496.305 123.701L495.416 123.244ZM495.064 123.695L494.407 122.941C494.366 122.977 494.302 123.018 494.199 123.054L494.535 123.996L494.871 124.938C495.18 124.828 495.469 124.668 495.721 124.449L495.064 123.695ZM494.535 123.996L494.209 123.051C494.13 123.078 494.006 123.103 493.821 123.103V124.103V125.103C494.177 125.103 494.529 125.056 494.861 124.942L494.535 123.996ZM494.254 123.059V124.059C494.61 124.059 494.968 123.988 495.301 123.817L494.844 122.928L494.387 122.038C494.379 122.042 494.344 122.059 494.254 122.059V123.059ZM494.844 122.928L495.311 123.812C495.623 123.647 495.89 123.412 496.087 123.105L495.245 122.565L494.403 122.026C494.403 122.027 494.403 122.026 494.402 122.027C494.401 122.028 494.394 122.034 494.377 122.043L494.844 122.928ZM495.245 122.565L496.087 123.105C496.294 122.782 496.391 122.42 496.391 122.05H495.391H494.391C494.391 122.061 494.39 122.06 494.392 122.051C494.393 122.047 494.395 122.042 494.397 122.037C494.399 122.032 494.402 122.029 494.403 122.026L495.245 122.565ZM495.391 122.05H496.391V121.472H495.391H494.391V122.05H495.391ZM495.391 121.472L494.846 120.633C494.878 120.612 494.901 120.602 494.907 120.599C494.913 120.597 494.91 120.598 494.896 120.603L495.195 121.557L495.495 122.511C495.624 122.47 495.783 122.409 495.936 122.31L495.391 121.472ZM495.195 121.557L494.913 120.597C494.864 120.612 494.799 120.628 494.717 120.645L494.922 121.624L495.127 122.603C495.249 122.578 495.366 122.549 495.478 122.516L495.195 121.557ZM494.922 121.624L494.739 120.641C494.645 120.659 494.55 120.675 494.456 120.691L494.617 121.678L494.777 122.665C494.887 122.647 494.996 122.628 495.105 122.607L494.922 121.624ZM494.617 121.678L494.478 120.687C494.376 120.701 494.282 120.715 494.198 120.727L494.34 121.717L494.481 122.707C494.563 122.695 494.654 122.682 494.755 122.668L494.617 121.678ZM494.34 121.717L494.195 120.727C493.951 120.763 493.709 120.824 493.481 120.922L493.874 121.841L494.268 122.76C494.305 122.744 494.373 122.722 494.485 122.706L494.34 121.717ZM493.874 121.841L493.481 120.922C493.218 121.034 492.964 121.209 492.768 121.469L493.566 122.072L494.363 122.675C494.34 122.705 494.316 122.728 494.296 122.742C494.277 122.756 494.266 122.761 494.268 122.76L493.874 121.841ZM493.566 122.072L492.775 121.459C492.542 121.76 492.455 122.106 492.455 122.427H493.455H494.455C494.455 122.442 494.453 122.478 494.438 122.528C494.422 122.579 494.395 122.634 494.356 122.684L493.566 122.072ZM493.455 122.427H492.455C492.455 122.91 492.65 123.386 493.089 123.707L493.679 122.899L494.269 122.092C494.321 122.129 494.377 122.19 494.415 122.271C494.452 122.349 494.455 122.409 494.455 122.427H493.455ZM493.679 122.899L493.104 123.717C493.462 123.969 493.869 124.059 494.254 124.059V123.059V122.059C494.214 122.059 494.2 122.054 494.204 122.055C494.207 122.056 494.213 122.058 494.222 122.062C494.232 122.067 494.243 122.073 494.254 122.081L493.679 122.899ZM499.579 116.727H500.579V115.727H499.579V116.727ZM499.579 124V125H500.579V124H499.579ZM498.067 124H497.067V125H498.067V124ZM498.067 116.727V115.727H497.067V116.727H498.067ZM499.579 116.727H498.579V124H499.579H500.579V116.727H499.579ZM499.579 124V123H498.067V124V125H499.579V124ZM498.067 124H499.067V116.727H498.067H497.067V124H498.067ZM498.067 116.727V117.727H499.579V116.727V115.727H498.067V116.727ZM505.33 120.101L505.391 121.099L506.461 121.033L506.321 119.97L505.33 120.101ZM503.945 120.186L502.964 120.382L503.135 121.238L504.006 121.184L503.945 120.186ZM503.792 119.866L503.013 120.494L503.021 120.503L503.792 119.866ZM503.483 119.636L503.056 120.54L503.067 120.545L503.077 120.549L503.483 119.636ZM502.439 119.696L502.955 120.552L502.964 120.547L502.439 119.696ZM502.354 120.417L501.7 121.174L501.7 121.174L502.354 120.417ZM502.89 120.634L502.68 121.611L502.692 121.614L502.89 120.634ZM503.877 120.832L504.078 119.853L504.075 119.852L503.877 120.832ZM505.063 121.358L504.383 122.091L505.063 121.358ZM505.138 123.251L504.35 122.635L504.346 122.64L505.138 123.251ZM504.278 123.883L504.659 124.807L504.662 124.806L504.278 123.883ZM501.299 123.656L500.719 124.471L500.725 124.474L501.299 123.656ZM500.55 122.42L500.497 121.421L499.407 121.478L499.559 122.559L500.55 122.42ZM502.038 122.342L503.017 122.141L502.845 121.298L501.985 121.343L502.038 122.342ZM502.364 122.846L501.807 123.676L501.815 123.681L502.364 122.846ZM503.668 122.864L504.202 123.709L504.205 123.707L503.668 122.864ZM503.916 122.462L504.916 122.477L504.916 122.461L504.916 122.445L503.916 122.462ZM503.742 122.125L503.121 122.909L503.132 122.917L503.742 122.125ZM503.217 121.919L503.413 120.938L503.412 120.938L503.217 121.919ZM502.272 121.731L502.076 122.711L502.077 122.712L502.272 121.731ZM501.082 121.177L500.369 121.878L500.372 121.881L501.082 121.177ZM500.979 119.266L500.182 118.663L500.179 118.668L500.979 119.266ZM501.786 118.68L501.418 117.75L501.416 117.751L501.786 118.68ZM504.634 118.911L504.04 119.716L504.043 119.718L504.634 118.911ZM505.33 120.101L505.268 119.103L503.883 119.188L503.945 120.186L504.006 121.184L505.391 121.099L505.33 120.101ZM503.945 120.186L504.925 119.99C504.869 119.707 504.745 119.45 504.563 119.23L503.792 119.866L503.021 120.503C503.01 120.49 502.997 120.472 502.986 120.449C502.975 120.425 502.968 120.402 502.964 120.382L503.945 120.186ZM503.792 119.866L504.571 119.239C504.381 119.004 504.144 118.835 503.889 118.722L503.483 119.636L503.077 120.549C503.079 120.55 503.071 120.547 503.058 120.537C503.044 120.527 503.028 120.512 503.013 120.493L503.792 119.866ZM503.483 119.636L503.91 118.731C503.62 118.595 503.317 118.547 503.032 118.547V119.547V120.547C503.064 120.547 503.08 120.55 503.083 120.55C503.086 120.551 503.075 120.549 503.056 120.54L503.483 119.636ZM503.032 119.547V118.547C502.656 118.547 502.266 118.627 501.913 118.845L502.439 119.696L502.964 120.547C502.951 120.555 502.945 120.556 502.952 120.554C502.96 120.552 502.985 120.547 503.032 120.547V119.547ZM502.439 119.696L501.923 118.84C501.515 119.085 501.197 119.514 501.197 120.087H502.197H503.197C503.197 120.178 503.172 120.289 503.108 120.392C503.048 120.49 502.98 120.537 502.955 120.552L502.439 119.696ZM502.197 120.087H501.197C501.197 120.526 501.39 120.906 501.7 121.174L502.354 120.417L503.007 119.66C503.047 119.694 503.1 119.753 503.14 119.839C503.182 119.927 503.197 120.014 503.197 120.087H502.197ZM502.354 120.417L501.7 121.174C502 121.433 502.383 121.548 502.68 121.611L502.89 120.634L503.1 119.656C503.012 119.637 502.962 119.62 502.94 119.611C502.931 119.607 502.933 119.607 502.943 119.613C502.953 119.619 502.977 119.634 503.007 119.66L502.354 120.417ZM502.89 120.634L502.692 121.614L503.68 121.813L503.877 120.832L504.075 119.852L503.087 119.653L502.89 120.634ZM503.877 120.832L503.676 121.812C504.114 121.902 504.31 122.023 504.383 122.091L505.063 121.358L505.743 120.625C505.296 120.21 504.701 119.981 504.078 119.853L503.877 120.832ZM505.063 121.358L504.383 122.091C504.417 122.122 504.454 122.162 504.454 122.31H505.454H506.454C506.454 121.671 506.231 121.077 505.743 120.625L505.063 121.358ZM505.454 122.31H504.454C504.454 122.455 504.417 122.549 504.35 122.635L505.138 123.251L505.926 123.866C506.28 123.412 506.454 122.88 506.454 122.31H505.454ZM505.138 123.251L504.346 122.64C504.26 122.751 504.124 122.864 503.895 122.959L504.278 123.883L504.662 124.806C505.162 124.599 505.599 124.29 505.929 123.862L505.138 123.251ZM504.278 123.883L503.898 122.958C503.679 123.048 503.394 123.107 503.025 123.107V124.107V125.107C503.602 125.107 504.154 125.016 504.659 124.807L504.278 123.883ZM503.025 124.107V123.107C502.432 123.107 502.081 122.982 501.873 122.837L501.299 123.656L500.725 124.474C501.374 124.93 502.173 125.107 503.025 125.107V124.107ZM501.299 123.656L501.879 122.841C501.678 122.698 501.575 122.531 501.54 122.28L500.55 122.42L499.559 122.559C499.671 123.35 500.068 124.007 500.719 124.47L501.299 123.656ZM500.55 122.42L500.602 123.418L502.09 123.34L502.038 122.342L501.985 121.343L500.497 121.421L500.55 122.42ZM502.038 122.342L501.058 122.542C501.151 122.997 501.398 123.401 501.807 123.676L502.364 122.846L502.922 122.016C502.943 122.03 502.97 122.055 502.992 122.089C503.014 122.122 503.018 122.144 503.017 122.141L502.038 122.342ZM502.364 122.846L501.815 123.681C502.194 123.931 502.622 124.016 503.028 124.016V123.016V122.016C502.895 122.016 502.88 121.988 502.914 122.01L502.364 122.846ZM503.028 123.016V124.016C503.412 124.016 503.83 123.944 504.202 123.709L503.668 122.864L503.133 122.018C503.158 122.002 503.17 122.002 503.155 122.006C503.138 122.009 503.098 122.016 503.028 122.016V123.016ZM503.668 122.864L504.205 123.707C504.591 123.461 504.908 123.043 504.916 122.477L503.916 122.462L502.916 122.448C502.918 122.356 502.944 122.252 503.002 122.159C503.056 122.072 503.114 122.031 503.13 122.02L503.668 122.864ZM503.916 122.462L504.916 122.445C504.908 121.988 504.695 121.597 504.353 121.333L503.742 122.125L503.132 122.917C503.088 122.883 503.029 122.824 502.982 122.733C502.935 122.642 502.918 122.551 502.916 122.48L503.916 122.462ZM503.742 122.125L504.363 121.341C504.069 121.108 503.714 120.999 503.413 120.938L503.217 121.919L503.021 122.9C503.097 122.915 503.141 122.929 503.161 122.937C503.182 122.945 503.161 122.941 503.121 122.909L503.742 122.125ZM503.217 121.919L503.412 120.938L502.467 120.75L502.272 121.731L502.077 122.712L503.021 122.9L503.217 121.919ZM502.272 121.731L502.468 120.75C502.044 120.665 501.862 120.543 501.793 120.473L501.082 121.177L500.372 121.881C500.824 122.337 501.435 122.583 502.076 122.711L502.272 121.731ZM501.082 121.177L501.796 120.476C501.742 120.421 501.695 120.347 501.695 120.172H500.695H499.695C499.695 120.811 499.907 121.407 500.369 121.877L501.082 121.177ZM500.695 120.172H501.695C501.695 120.013 501.734 119.927 501.78 119.865L500.979 119.266L500.179 118.668C499.846 119.112 499.695 119.63 499.695 120.172H500.695ZM500.979 119.266L501.777 119.87C501.841 119.786 501.95 119.691 502.155 119.61L501.786 118.68L501.416 117.751C500.93 117.944 500.502 118.241 500.182 118.663L500.979 119.266ZM501.786 118.68L502.153 119.611C502.359 119.529 502.636 119.474 503.007 119.474V118.474V117.474C502.445 117.474 501.908 117.557 501.418 117.75L501.786 118.68ZM503.007 118.474V119.474C503.566 119.474 503.874 119.594 504.04 119.716L504.634 118.911L505.227 118.106C504.602 117.646 503.826 117.474 503.007 117.474V118.474ZM504.634 118.911L504.043 119.718C504.214 119.843 504.307 119.992 504.338 120.232L505.33 120.101L506.321 119.97C506.22 119.206 505.849 118.562 505.224 118.104L504.634 118.911ZM507.443 123.766L506.948 124.634L506.954 124.638L507.443 123.766ZM506.513 122.793L505.625 123.252L505.626 123.254L506.513 122.793ZM506.513 119.82L505.624 119.363L506.513 119.82ZM507.433 118.83L506.921 117.97L506.919 117.972L507.433 118.83ZM509.837 118.648L509.486 119.585L509.495 119.588L509.837 118.648ZM510.654 119.163L509.95 119.874L509.954 119.878L510.654 119.163ZM511.2 120.03L510.264 120.38L510.265 120.382L511.2 120.03ZM511.396 121.66V122.66H512.396V121.66H511.396ZM506.79 121.66H505.79V122.66H506.79V121.66ZM506.79 120.722V119.722H505.79V120.722H506.79ZM509.972 120.722V121.722H510.972V120.722H509.972ZM509.83 120.143L508.958 120.634V120.634L509.83 120.143ZM509.436 119.749L508.93 120.612L508.937 120.616L508.945 120.621L509.436 119.749ZM508.246 119.763L508.757 120.623L508.76 120.621L508.246 119.763ZM507.834 120.186L508.704 120.68L508.706 120.675L507.834 120.186ZM507.681 120.772L506.681 120.761V120.772H507.681ZM507.83 122.363L506.938 122.814L506.943 122.823L507.83 122.363ZM509.379 122.906L509.058 121.959L509.379 122.906ZM509.737 122.693L509.048 121.969L509.048 121.969L509.737 122.693ZM509.965 122.345L510.031 121.347L509.292 121.299L509.03 121.991L509.965 122.345ZM511.364 122.438L512.342 122.644L512.581 121.516L511.43 121.44L511.364 122.438ZM510.927 123.318L510.175 122.659L510.175 122.659L510.927 123.318ZM510.082 123.901L510.453 124.829L510.457 124.828L510.082 123.901ZM508.892 124.107V123.107C508.467 123.107 508.16 123.021 507.933 122.894L507.443 123.766L506.954 124.638C507.536 124.965 508.195 125.107 508.892 125.107V124.107ZM507.443 123.766L507.939 122.897C507.707 122.765 507.531 122.583 507.4 122.331L506.513 122.793L505.626 123.254C505.93 123.84 506.375 124.307 506.948 124.634L507.443 123.766ZM506.513 122.793L507.401 122.333C507.271 122.081 507.186 121.747 507.186 121.298H506.186H505.186C505.186 121.999 505.319 122.661 505.625 123.252L506.513 122.793ZM506.186 121.298H507.186C507.186 120.867 507.269 120.537 507.402 120.277L506.513 119.82L505.624 119.363C505.321 119.951 505.186 120.606 505.186 121.298H506.186ZM506.513 119.82L507.402 120.277C507.538 120.014 507.717 119.825 507.946 119.687L507.433 118.83L506.919 117.972C506.358 118.308 505.924 118.779 505.624 119.363L506.513 119.82ZM507.433 118.83L507.944 119.689C508.164 119.558 508.448 119.474 508.832 119.474V118.474V117.474C508.145 117.474 507.496 117.628 506.921 117.97L507.433 118.83ZM508.832 118.474V119.474C509.082 119.474 509.298 119.514 509.486 119.585L509.837 118.648L510.187 117.712C509.756 117.55 509.301 117.474 508.832 117.474V118.474ZM509.837 118.648L509.495 119.588C509.674 119.653 509.823 119.748 509.95 119.874L510.654 119.163L511.357 118.453C511.02 118.119 510.624 117.871 510.179 117.709L509.837 118.648ZM510.654 119.163L509.954 119.878C510.07 119.992 510.178 120.151 510.264 120.38L511.2 120.03L512.137 119.679C511.962 119.212 511.705 118.794 511.353 118.449L510.654 119.163ZM511.2 120.03L510.265 120.382C510.343 120.591 510.396 120.871 510.396 121.244H511.396H512.396C512.396 120.69 512.318 120.16 512.136 119.677L511.2 120.03ZM511.396 121.244H510.396V121.66H511.396H512.396V121.244H511.396ZM511.396 121.66V120.66H506.79V121.66V122.66H511.396V121.66ZM506.79 121.66H507.79V120.722H506.79H505.79V121.66H506.79ZM506.79 120.722V121.722H509.972V120.722V119.722H506.79V120.722ZM509.972 120.722H510.972C510.972 120.355 510.89 119.989 510.701 119.653L509.83 120.143L508.958 120.634C508.96 120.637 508.962 120.642 508.965 120.653C508.968 120.664 508.972 120.686 508.972 120.722H509.972ZM509.83 120.143L510.701 119.653C510.517 119.325 510.254 119.062 509.926 118.878L509.436 119.749L508.945 120.621C508.949 120.623 508.951 120.625 508.952 120.625C508.953 120.626 508.953 120.626 508.953 120.626C508.953 120.626 508.953 120.626 508.954 120.627C508.954 120.628 508.956 120.63 508.958 120.634L509.83 120.143ZM509.436 119.749L509.941 118.886C509.601 118.687 509.228 118.604 508.857 118.604V119.604V120.604C508.893 120.604 508.914 120.608 508.923 120.61C508.931 120.612 508.932 120.613 508.93 120.612L509.436 119.749ZM508.857 119.604V118.604C508.466 118.604 508.081 118.696 507.731 118.906L508.246 119.763L508.76 120.621C508.766 120.618 508.788 120.604 508.857 120.604V119.604ZM508.246 119.763L507.735 118.904C507.409 119.098 507.147 119.366 506.961 119.697L507.834 120.186L508.706 120.675C508.72 120.651 508.733 120.638 508.757 120.623L508.246 119.763ZM507.834 120.186L506.964 119.692C506.775 120.025 506.685 120.388 506.681 120.761L507.681 120.772L508.681 120.783C508.682 120.725 508.694 120.697 508.704 120.68L507.834 120.186ZM507.681 120.772H506.681V121.663H507.681H508.681V120.772H507.681ZM507.681 121.663H506.681C506.681 122.055 506.754 122.45 506.938 122.814L507.83 122.363L508.723 121.911C508.708 121.883 508.681 121.811 508.681 121.663H507.681ZM507.83 122.363L506.943 122.823C507.129 123.182 507.404 123.478 507.76 123.684L508.26 122.817L508.76 121.951C508.747 121.944 508.736 121.937 508.718 121.903L507.83 122.363ZM508.26 122.817L507.76 123.684C508.123 123.893 508.521 123.977 508.917 123.977V122.977V121.977C508.806 121.977 508.766 121.955 508.76 121.951L508.26 122.817ZM508.917 122.977V123.977C509.179 123.977 509.443 123.94 509.7 123.853L509.379 122.906L509.058 121.959C509.035 121.967 508.991 121.977 508.917 121.977V122.977ZM509.379 122.906L509.7 123.853C509.967 123.763 510.215 123.62 510.427 123.417L509.737 122.693L509.048 121.969C509.053 121.964 509.058 121.96 509.062 121.958C509.066 121.956 509.065 121.957 509.058 121.959L509.379 122.906ZM509.737 122.693L510.427 123.417C510.642 123.212 510.798 122.967 510.9 122.7L509.965 122.345L509.03 121.991C509.028 121.996 509.028 121.994 509.032 121.988C509.035 121.982 509.041 121.975 509.048 121.969L509.737 122.693ZM509.965 122.345L509.899 123.343L511.298 123.435L511.364 122.438L511.43 121.44L510.031 121.347L509.965 122.345ZM511.364 122.438L510.385 122.231C510.349 122.404 510.279 122.541 510.175 122.659L510.927 123.318L511.679 123.978C512.015 123.594 512.237 123.143 512.342 122.644L511.364 122.438ZM510.927 123.318L510.175 122.659C510.073 122.776 509.926 122.885 509.707 122.973L510.082 123.901L510.457 124.828C510.929 124.637 511.346 124.358 511.679 123.977L510.927 123.318ZM510.082 123.901L509.71 122.972C509.508 123.053 509.242 123.107 508.892 123.107V124.107V125.107C509.442 125.107 509.969 125.023 510.453 124.829L510.082 123.901Z" fill="#C50000" mask="url(#path-12-outside-2_112_266)"/>
</g>
</g>
<rect id="bodyStretch" x="44" y="34" width="290" height="59" fill="#F0B43B"/>
<g id="loop_ender_connector">
<g id="capTop">
<path d="M268 115H293V140L268 115Z" fill="#F0B43B"/>
<path d="M243 115H268L243 140V115Z" fill="#F0B43B"/>
</g>
<rect id="Rectangle 2" x="293" y="115" width="50" height="24" transform="rotate(-180 293 115)" fill="#F0B43B"/>
<path id="stripe" d="M243 135L268 110L293 135V140L268 115L243 140V135Z" fill="#A87C2D"/>
<circle id="anchor:false-in" opacity="0.01" cx="268" cy="115" r="1" transform="rotate(-180 268 115)" fill="#D9D9D9"/>
</g>
<g id="connector">
<g id="capTop_2">
<path d="M188 34H163V9L188 34Z" fill="#F0B43B"/>
<path d="M213 34H188L213 9V34Z" fill="#F0B43B"/>
</g>
<path id="stripe_2" d="M213 14L188 39L163 14V9L188 34L213 9V14Z" fill="white"/>
<circle id="anchor:prev" opacity="0.01" cx="188" cy="34" r="1" fill="#D9D9D9"/>
</g>
</g>
<g id="input:until">
<ellipse id="anchor-input:until-right" opacity="0.01" cx="302.378" cy="62.6326" rx="0.621514" ry="0.734694" fill="#D9D9D9"/>
<rect id="box" opacity="0.01" x="147.621" y="45" width="154.757" height="36" fill="#D9D9D9"/>
<ellipse id="anchor-input:until-left" opacity="0.01" cx="147.622" cy="62.6326" rx="0.621514" ry="0.734694" fill="#D9D9D9"/>
</g>
<path id="repeat_text" d="M63.8452 69V61.3636H65.8984V62.696H65.978C66.1172 62.2221 66.3509 61.8641 66.679 61.6222C67.0071 61.3769 67.3849 61.2543 67.8125 61.2543C67.9186 61.2543 68.0329 61.2609 68.1555 61.2741C68.2782 61.2874 68.3859 61.3056 68.4787 61.3288V63.2081C68.3793 63.1783 68.2417 63.1518 68.0661 63.1286C67.8904 63.1054 67.7296 63.0938 67.5838 63.0938C67.2723 63.0938 66.9938 63.1617 66.7486 63.2976C66.5066 63.4302 66.3144 63.6158 66.1719 63.8544C66.0327 64.093 65.9631 64.3681 65.9631 64.6797V69H63.8452ZM72.6983 69.1491C71.9128 69.1491 71.2367 68.9901 70.6699 68.6719C70.1065 68.3504 69.6723 67.8963 69.3674 67.3097C69.0624 66.7197 68.91 66.022 68.91 65.2166C68.91 64.4311 69.0624 63.7417 69.3674 63.1484C69.6723 62.5552 70.1015 62.0928 70.655 61.7614C71.2118 61.4299 71.8648 61.2642 72.6138 61.2642C73.1176 61.2642 73.5866 61.3454 74.0208 61.5078C74.4583 61.6669 74.8394 61.9072 75.1642 62.2287C75.4924 62.5502 75.7476 62.9545 75.9299 63.4418C76.1122 63.9257 76.2033 64.4924 76.2033 65.142V65.7237H69.7551V64.4112H74.2097C74.2097 64.1063 74.1434 63.8362 74.0108 63.6009C73.8783 63.3655 73.6943 63.1816 73.459 63.049C73.227 62.9131 72.9569 62.8452 72.6486 62.8452C72.3271 62.8452 72.0421 62.9197 71.7935 63.0689C71.5482 63.2147 71.356 63.4119 71.2168 63.6605C71.0776 63.9058 71.0063 64.1792 71.003 64.4808V65.7287C71.003 66.1065 71.0726 66.433 71.2118 66.7081C71.3543 66.9832 71.5549 67.1953 71.8134 67.3445C72.0719 67.4936 72.3785 67.5682 72.7331 67.5682C72.9685 67.5682 73.1839 67.535 73.3794 67.4688C73.575 67.4025 73.7424 67.303 73.8816 67.1705C74.0208 67.0379 74.1268 66.8755 74.1998 66.6832L76.1586 66.8125C76.0591 67.2831 75.8553 67.6941 75.5471 68.0455C75.2421 68.3935 74.8477 68.6652 74.3638 68.8608C73.8832 69.053 73.3281 69.1491 72.6983 69.1491ZM77.5854 71.8636V61.3636H79.6735V62.6463H79.7679C79.8607 62.4408 79.995 62.232 80.1706 62.0199C80.3496 61.8045 80.5816 61.6255 80.8667 61.483C81.155 61.3371 81.513 61.2642 81.9405 61.2642C82.4973 61.2642 83.0111 61.41 83.4817 61.7017C83.9524 61.9901 84.3285 62.4259 84.6103 63.0092C84.892 63.5893 85.0328 64.3168 85.0328 65.1918C85.0328 66.0436 84.8953 66.7628 84.6202 67.3494C84.3484 67.9328 83.9772 68.3752 83.5066 68.6768C83.0392 68.9751 82.5156 69.1243 81.9355 69.1243C81.5246 69.1243 81.1749 69.0563 80.8865 68.9205C80.6015 68.7846 80.3678 68.6139 80.1855 68.4084C80.0033 68.1996 79.8641 67.9891 79.7679 67.777H79.7033V71.8636H77.5854ZM79.6586 65.1818C79.6586 65.6359 79.7215 66.032 79.8475 66.37C79.9734 66.7081 80.1557 66.9716 80.3944 67.1605C80.633 67.3461 80.923 67.4389 81.2644 67.4389C81.6091 67.4389 81.9007 67.3445 82.1394 67.1555C82.378 66.9633 82.5587 66.6982 82.6813 66.3601C82.8072 66.0187 82.8702 65.6259 82.8702 65.1818C82.8702 64.741 82.8089 64.3532 82.6863 64.0185C82.5636 63.6837 82.383 63.4219 82.1444 63.233C81.9057 63.044 81.6124 62.9496 81.2644 62.9496C80.9197 62.9496 80.628 63.0407 80.3894 63.223C80.1541 63.4053 79.9734 63.6638 79.8475 63.9986C79.7215 64.3333 79.6586 64.7277 79.6586 65.1818ZM89.9249 69.1491C89.1394 69.1491 88.4632 68.9901 87.8965 68.6719C87.333 68.3504 86.8989 67.8963 86.5939 67.3097C86.289 66.7197 86.1365 66.022 86.1365 65.2166C86.1365 64.4311 86.289 63.7417 86.5939 63.1484C86.8989 62.5552 87.3281 62.0928 87.8816 61.7614C88.4384 61.4299 89.0913 61.2642 89.8404 61.2642C90.3442 61.2642 90.8132 61.3454 91.2473 61.5078C91.6848 61.6669 92.066 61.9072 92.3908 62.2287C92.7189 62.5502 92.9741 62.9545 93.1564 63.4418C93.3387 63.9257 93.4299 64.4924 93.4299 65.142V65.7237H86.9817V64.4112H91.4363C91.4363 64.1063 91.37 63.8362 91.2374 63.6009C91.1048 63.3655 90.9209 63.1816 90.6855 63.049C90.4535 62.9131 90.1834 62.8452 89.8752 62.8452C89.5537 62.8452 89.2686 62.9197 89.0201 63.0689C88.7748 63.2147 88.5826 63.4119 88.4434 63.6605C88.3042 63.9058 88.2329 64.1792 88.2296 64.4808V65.7287C88.2296 66.1065 88.2992 66.433 88.4384 66.7081C88.5809 66.9832 88.7814 67.1953 89.04 67.3445C89.2985 67.4936 89.6051 67.5682 89.9597 67.5682C90.195 67.5682 90.4105 67.535 90.606 67.4688C90.8016 67.4025 90.9689 67.303 91.1081 67.1705C91.2473 67.0379 91.3534 66.8755 91.4263 66.6832L93.3851 66.8125C93.2857 67.2831 93.0819 67.6941 92.7736 68.0455C92.4687 68.3935 92.0743 68.6652 91.5904 68.8608C91.1098 69.053 90.5546 69.1491 89.9249 69.1491ZM96.9895 69.1442C96.5023 69.1442 96.0681 69.0597 95.687 68.8906C95.3058 68.7183 95.0042 68.4647 94.7821 68.13C94.5634 67.7919 94.454 67.371 94.454 66.8672C94.454 66.4429 94.5319 66.0866 94.6877 65.7983C94.8435 65.5099 95.0556 65.2779 95.324 65.1023C95.5925 64.9266 95.8974 64.794 96.2388 64.7045C96.5835 64.6151 96.9448 64.5521 97.3226 64.5156C97.7667 64.4692 98.1247 64.4261 98.3965 64.3864C98.6683 64.3433 98.8655 64.2803 98.9881 64.1974C99.1107 64.1146 99.1721 63.992 99.1721 63.8295V63.7997C99.1721 63.4848 99.0726 63.2412 98.8738 63.0689C98.6782 62.8965 98.3998 62.8104 98.0385 62.8104C97.6574 62.8104 97.3541 62.8949 97.1287 63.0639C96.9033 63.2296 96.7542 63.4384 96.6813 63.6903L94.7225 63.5312C94.8219 63.0672 95.0175 62.6662 95.3091 62.3281C95.6008 61.9867 95.977 61.7249 96.4377 61.5426C96.9017 61.357 97.4386 61.2642 98.0485 61.2642C98.4727 61.2642 98.8787 61.3139 99.2665 61.4134C99.6576 61.5128 100.004 61.6669 100.306 61.8757C100.61 62.0845 100.851 62.353 101.026 62.6811C101.202 63.0059 101.29 63.3954 101.29 63.8494V69H99.2814V67.9411H99.2218C99.0991 68.1797 98.9351 68.3902 98.7296 68.5724C98.5241 68.7514 98.2772 68.8923 97.9888 68.995C97.7005 69.0945 97.3674 69.1442 96.9895 69.1442ZM97.5961 67.6825C97.9076 67.6825 98.1827 67.6212 98.4213 67.4986C98.66 67.3726 98.8472 67.2036 98.9831 66.9915C99.119 66.7794 99.187 66.5391 99.187 66.2706V65.4602C99.1207 65.5033 99.0295 65.5431 98.9135 65.5795C98.8008 65.6127 98.6732 65.6442 98.5307 65.674C98.3882 65.7005 98.2457 65.7254 98.1032 65.7486C97.9606 65.7685 97.8314 65.7867 97.7154 65.8033C97.4668 65.8397 97.2497 65.8977 97.0641 65.9773C96.8785 66.0568 96.7343 66.1645 96.6316 66.3004C96.5288 66.433 96.4775 66.5987 96.4775 66.7976C96.4775 67.0859 96.5819 67.3063 96.7907 67.4588C97.0028 67.608 97.2712 67.6825 97.5961 67.6825ZM106.995 61.3636V62.9545H102.396V61.3636H106.995ZM103.44 59.5341H105.558V66.6534C105.558 66.849 105.588 67.0014 105.648 67.1108C105.707 67.2169 105.79 67.2914 105.896 67.3345C106.006 67.3776 106.131 67.3991 106.274 67.3991C106.373 67.3991 106.473 67.3909 106.572 67.3743C106.672 67.3544 106.748 67.3395 106.801 67.3295L107.134 68.9055C107.028 68.9387 106.879 68.9768 106.687 69.0199C106.494 69.0663 106.261 69.0945 105.986 69.1044C105.475 69.1243 105.028 69.0563 104.643 68.9006C104.262 68.7448 103.965 68.5028 103.753 68.1747C103.541 67.8466 103.437 67.4323 103.44 66.9318V59.5341ZM116.512 65.7486V61.3636H118.63V69H116.596V67.6129H116.517C116.344 68.0604 116.058 68.42 115.657 68.6918C115.259 68.9635 114.773 69.0994 114.2 69.0994C113.69 69.0994 113.24 68.9834 112.853 68.7514C112.465 68.5194 112.162 68.1896 111.943 67.7621C111.727 67.3345 111.618 66.8224 111.615 66.2259V61.3636H113.733V65.848C113.736 66.2988 113.857 66.6551 114.096 66.9169C114.334 67.1787 114.654 67.3097 115.055 67.3097C115.31 67.3097 115.549 67.2517 115.771 67.1357C115.993 67.0163 116.172 66.8407 116.308 66.6087C116.447 66.3767 116.515 66.09 116.512 65.7486ZM122.442 64.5852V69H120.324V61.3636H122.342V62.7109H122.432C122.601 62.2668 122.884 61.9155 123.282 61.657C123.68 61.3951 124.162 61.2642 124.729 61.2642C125.259 61.2642 125.721 61.3802 126.116 61.6122C126.51 61.8442 126.817 62.1757 127.035 62.6065C127.254 63.0341 127.363 63.5445 127.363 64.1378V69H125.246V64.5156C125.249 64.0483 125.13 63.6837 124.888 63.4219C124.646 63.1567 124.313 63.0241 123.888 63.0241C123.603 63.0241 123.351 63.0855 123.133 63.2081C122.917 63.3307 122.748 63.5097 122.626 63.745C122.506 63.977 122.445 64.2571 122.442 64.5852ZM133.094 61.3636V62.9545H128.496V61.3636H133.094ZM129.54 59.5341H131.658V66.6534C131.658 66.849 131.688 67.0014 131.747 67.1108C131.807 67.2169 131.89 67.2914 131.996 67.3345C132.105 67.3776 132.231 67.3991 132.374 67.3991C132.473 67.3991 132.572 67.3909 132.672 67.3743C132.771 67.3544 132.848 67.3395 132.901 67.3295L133.234 68.9055C133.128 68.9387 132.978 68.9768 132.786 69.0199C132.594 69.0663 132.36 69.0945 132.085 69.1044C131.575 69.1243 131.127 69.0563 130.743 68.9006C130.362 68.7448 130.065 68.5028 129.853 68.1747C129.641 67.8466 129.536 67.4323 129.54 66.9318V59.5341ZM134.474 69V61.3636H136.592V69H134.474ZM135.538 60.3793C135.223 60.3793 134.953 60.2749 134.728 60.0661C134.506 59.8539 134.395 59.6004 134.395 59.3054C134.395 59.0137 134.506 58.7635 134.728 58.5547C134.953 58.3426 135.223 58.2365 135.538 58.2365C135.853 58.2365 136.121 58.3426 136.343 58.5547C136.569 58.7635 136.681 59.0137 136.681 59.3054C136.681 59.6004 136.569 59.8539 136.343 60.0661C136.121 60.2749 135.853 60.3793 135.538 60.3793ZM140.406 58.8182V69H138.289V58.8182H140.406Z" fill="white"/>
<g id="chevron_display:until">
<g id="chevron">
<path d="M147 63L155 45V81L147 63Z" fill="white"/>
<path d="M304 63L296 81V45L304 63Z" fill="white"/>
<path d="M296 45H155V81H296V45Z" fill="white"/>
<path d="M151 63L158.541 46V80L151 63Z" fill="#A87C2D"/>
<path d="M299 63L291.459 80V46L299 63Z" fill="#A87C2D"/>
<path d="M291.459 46H158.541V80H291.459V46Z" fill="#A87C2D"/>
</g>
</g>
</g>
</svg>
