<svg width="365" height="359" viewBox="0 0 365 359" fill="none" xmlns="http://www.w3.org/2000/svg">
<path d="M126 84H104V334H126V84Z" fill="#F0B43B"/>
<path d="M113 359L138 334H88L113 359Z" fill="white"/>
<path d="M113 354L133 334H93L113 354Z" fill="white"/>
<path d="M113 354L133 334H93L113 354Z" fill="#F0B43B"/>
<path d="M113 350L129 334H97L113 350Z" fill="#F0B43B"/>
<mask id="path-4-outside-1_170_204" maskUnits="userSpaceOnUse" x="100" y="336" width="26" height="11" fill="black">
<rect fill="white" x="100" y="336" width="26" height="11"/>
<path d="M104.537 339.545V340.682H101.17V339.545H104.537ZM101.941 345V339.151C101.941 338.756 102.018 338.428 102.172 338.168C102.328 337.907 102.541 337.712 102.811 337.582C103.081 337.451 103.388 337.386 103.731 337.386C103.963 337.386 104.175 337.404 104.366 337.44C104.561 337.475 104.705 337.507 104.8 337.536L104.53 338.672C104.471 338.653 104.397 338.635 104.31 338.619C104.224 338.602 104.137 338.594 104.047 338.594C103.824 338.594 103.669 338.646 103.582 338.75C103.494 338.852 103.45 338.995 103.45 339.18V345H101.941ZM106.821 345.103C106.473 345.103 106.163 345.043 105.891 344.922C105.619 344.799 105.403 344.618 105.244 344.379C105.088 344.137 105.01 343.836 105.01 343.477C105.01 343.174 105.066 342.919 105.177 342.713C105.288 342.507 105.44 342.341 105.632 342.216C105.823 342.09 106.041 341.996 106.285 341.932C106.531 341.868 106.789 341.823 107.059 341.797C107.376 341.764 107.632 341.733 107.826 341.705C108.02 341.674 108.161 341.629 108.249 341.57C108.336 341.51 108.38 341.423 108.38 341.307V341.286C108.38 341.061 108.309 340.887 108.167 340.763C108.027 340.64 107.829 340.579 107.57 340.579C107.298 340.579 107.082 340.639 106.921 340.76C106.76 340.878 106.653 341.027 106.601 341.207L105.202 341.094C105.273 340.762 105.413 340.476 105.621 340.234C105.829 339.991 106.098 339.804 106.427 339.673C106.758 339.541 107.142 339.474 107.578 339.474C107.881 339.474 108.171 339.51 108.448 339.581C108.727 339.652 108.974 339.762 109.19 339.911C109.408 340.06 109.579 340.252 109.705 340.487C109.83 340.719 109.893 340.997 109.893 341.321V345H108.458V344.244H108.416C108.328 344.414 108.211 344.564 108.064 344.695C107.917 344.822 107.741 344.923 107.535 344.996C107.329 345.067 107.091 345.103 106.821 345.103ZM107.254 344.059C107.477 344.059 107.673 344.015 107.844 343.928C108.014 343.838 108.148 343.717 108.245 343.565C108.342 343.414 108.391 343.242 108.391 343.05V342.472C108.343 342.502 108.278 342.531 108.195 342.557C108.115 342.58 108.024 342.603 107.922 342.624C107.82 342.643 107.718 342.661 107.617 342.678C107.515 342.692 107.423 342.705 107.34 342.717C107.162 342.743 107.007 342.784 106.874 342.841C106.742 342.898 106.639 342.975 106.566 343.072C106.492 343.166 106.455 343.285 106.455 343.427C106.455 343.633 106.53 343.79 106.679 343.899C106.831 344.006 107.022 344.059 107.254 344.059ZM112.579 337.727V345H111.067V337.727H112.579ZM118.33 341.101L116.945 341.186C116.921 341.068 116.87 340.961 116.792 340.866C116.714 340.769 116.611 340.692 116.483 340.636C116.357 340.576 116.207 340.547 116.032 340.547C115.798 340.547 115.6 340.597 115.439 340.696C115.278 340.793 115.197 340.923 115.197 341.087C115.197 341.217 115.25 341.327 115.354 341.417C115.458 341.507 115.637 341.579 115.89 341.634L116.877 341.832C117.407 341.941 117.803 342.116 118.063 342.358C118.324 342.599 118.454 342.917 118.454 343.31C118.454 343.667 118.348 343.981 118.138 344.251C117.929 344.521 117.643 344.731 117.278 344.883C116.916 345.032 116.498 345.107 116.025 345.107C115.303 345.107 114.728 344.956 114.299 344.656C113.873 344.353 113.623 343.941 113.55 343.42L115.038 343.342C115.083 343.562 115.192 343.73 115.364 343.846C115.537 343.96 115.759 344.016 116.028 344.016C116.294 344.016 116.507 343.965 116.668 343.864C116.831 343.759 116.914 343.626 116.916 343.462C116.914 343.325 116.856 343.213 116.742 343.125C116.629 343.035 116.453 342.966 116.217 342.919L115.272 342.731C114.739 342.624 114.343 342.44 114.082 342.177C113.824 341.914 113.695 341.579 113.695 341.172C113.695 340.821 113.79 340.52 113.979 340.266C114.171 340.013 114.44 339.818 114.786 339.68C115.134 339.543 115.541 339.474 116.007 339.474C116.696 339.474 117.238 339.62 117.634 339.911C118.031 340.202 118.263 340.599 118.33 341.101ZM121.892 345.107C121.331 345.107 120.848 344.993 120.443 344.766C120.041 344.536 119.731 344.212 119.513 343.793C119.295 343.371 119.186 342.873 119.186 342.298C119.186 341.737 119.295 341.244 119.513 340.82C119.731 340.397 120.037 340.066 120.433 339.83C120.83 339.593 121.297 339.474 121.832 339.474C122.192 339.474 122.527 339.532 122.837 339.648C123.149 339.762 123.422 339.934 123.654 340.163C123.888 340.393 124.07 340.682 124.2 341.03C124.331 341.375 124.396 341.78 124.396 342.244V342.66H119.79V341.722H122.972C122.972 341.504 122.924 341.312 122.83 341.143C122.735 340.975 122.604 340.844 122.436 340.749C122.27 340.652 122.077 340.604 121.857 340.604C121.627 340.604 121.423 340.657 121.246 340.763C121.071 340.868 120.933 341.009 120.834 341.186C120.735 341.361 120.684 341.557 120.681 341.772V342.663C120.681 342.933 120.731 343.166 120.83 343.363C120.932 343.559 121.075 343.711 121.26 343.817C121.445 343.924 121.664 343.977 121.917 343.977C122.085 343.977 122.239 343.954 122.379 343.906C122.518 343.859 122.638 343.788 122.737 343.693C122.837 343.598 122.913 343.482 122.965 343.345L124.364 343.438C124.293 343.774 124.147 344.067 123.927 344.318C123.709 344.567 123.427 344.761 123.082 344.901C122.739 345.038 122.342 345.107 121.892 345.107Z"/>
</mask>
<path d="M104.537 339.545V340.682H101.17V339.545H104.537ZM101.941 345V339.151C101.941 338.756 102.018 338.428 102.172 338.168C102.328 337.907 102.541 337.712 102.811 337.582C103.081 337.451 103.388 337.386 103.731 337.386C103.963 337.386 104.175 337.404 104.366 337.44C104.561 337.475 104.705 337.507 104.8 337.536L104.53 338.672C104.471 338.653 104.397 338.635 104.31 338.619C104.224 338.602 104.137 338.594 104.047 338.594C103.824 338.594 103.669 338.646 103.582 338.75C103.494 338.852 103.45 338.995 103.45 339.18V345H101.941ZM106.821 345.103C106.473 345.103 106.163 345.043 105.891 344.922C105.619 344.799 105.403 344.618 105.244 344.379C105.088 344.137 105.01 343.836 105.01 343.477C105.01 343.174 105.066 342.919 105.177 342.713C105.288 342.507 105.44 342.341 105.632 342.216C105.823 342.09 106.041 341.996 106.285 341.932C106.531 341.868 106.789 341.823 107.059 341.797C107.376 341.764 107.632 341.733 107.826 341.705C108.02 341.674 108.161 341.629 108.249 341.57C108.336 341.51 108.38 341.423 108.38 341.307V341.286C108.38 341.061 108.309 340.887 108.167 340.763C108.027 340.64 107.829 340.579 107.57 340.579C107.298 340.579 107.082 340.639 106.921 340.76C106.76 340.878 106.653 341.027 106.601 341.207L105.202 341.094C105.273 340.762 105.413 340.476 105.621 340.234C105.829 339.991 106.098 339.804 106.427 339.673C106.758 339.541 107.142 339.474 107.578 339.474C107.881 339.474 108.171 339.51 108.448 339.581C108.727 339.652 108.974 339.762 109.19 339.911C109.408 340.06 109.579 340.252 109.705 340.487C109.83 340.719 109.893 340.997 109.893 341.321V345H108.458V344.244H108.416C108.328 344.414 108.211 344.564 108.064 344.695C107.917 344.822 107.741 344.923 107.535 344.996C107.329 345.067 107.091 345.103 106.821 345.103ZM107.254 344.059C107.477 344.059 107.673 344.015 107.844 343.928C108.014 343.838 108.148 343.717 108.245 343.565C108.342 343.414 108.391 343.242 108.391 343.05V342.472C108.343 342.502 108.278 342.531 108.195 342.557C108.115 342.58 108.024 342.603 107.922 342.624C107.82 342.643 107.718 342.661 107.617 342.678C107.515 342.692 107.423 342.705 107.34 342.717C107.162 342.743 107.007 342.784 106.874 342.841C106.742 342.898 106.639 342.975 106.566 343.072C106.492 343.166 106.455 343.285 106.455 343.427C106.455 343.633 106.53 343.79 106.679 343.899C106.831 344.006 107.022 344.059 107.254 344.059ZM112.579 337.727V345H111.067V337.727H112.579ZM118.33 341.101L116.945 341.186C116.921 341.068 116.87 340.961 116.792 340.866C116.714 340.769 116.611 340.692 116.483 340.636C116.357 340.576 116.207 340.547 116.032 340.547C115.798 340.547 115.6 340.597 115.439 340.696C115.278 340.793 115.197 340.923 115.197 341.087C115.197 341.217 115.25 341.327 115.354 341.417C115.458 341.507 115.637 341.579 115.89 341.634L116.877 341.832C117.407 341.941 117.803 342.116 118.063 342.358C118.324 342.599 118.454 342.917 118.454 343.31C118.454 343.667 118.348 343.981 118.138 344.251C117.929 344.521 117.643 344.731 117.278 344.883C116.916 345.032 116.498 345.107 116.025 345.107C115.303 345.107 114.728 344.956 114.299 344.656C113.873 344.353 113.623 343.941 113.55 343.42L115.038 343.342C115.083 343.562 115.192 343.73 115.364 343.846C115.537 343.96 115.759 344.016 116.028 344.016C116.294 344.016 116.507 343.965 116.668 343.864C116.831 343.759 116.914 343.626 116.916 343.462C116.914 343.325 116.856 343.213 116.742 343.125C116.629 343.035 116.453 342.966 116.217 342.919L115.272 342.731C114.739 342.624 114.343 342.44 114.082 342.177C113.824 341.914 113.695 341.579 113.695 341.172C113.695 340.821 113.79 340.52 113.979 340.266C114.171 340.013 114.44 339.818 114.786 339.68C115.134 339.543 115.541 339.474 116.007 339.474C116.696 339.474 117.238 339.62 117.634 339.911C118.031 340.202 118.263 340.599 118.33 341.101ZM121.892 345.107C121.331 345.107 120.848 344.993 120.443 344.766C120.041 344.536 119.731 344.212 119.513 343.793C119.295 343.371 119.186 342.873 119.186 342.298C119.186 341.737 119.295 341.244 119.513 340.82C119.731 340.397 120.037 340.066 120.433 339.83C120.83 339.593 121.297 339.474 121.832 339.474C122.192 339.474 122.527 339.532 122.837 339.648C123.149 339.762 123.422 339.934 123.654 340.163C123.888 340.393 124.07 340.682 124.2 341.03C124.331 341.375 124.396 341.78 124.396 342.244V342.66H119.79V341.722H122.972C122.972 341.504 122.924 341.312 122.83 341.143C122.735 340.975 122.604 340.844 122.436 340.749C122.27 340.652 122.077 340.604 121.857 340.604C121.627 340.604 121.423 340.657 121.246 340.763C121.071 340.868 120.933 341.009 120.834 341.186C120.735 341.361 120.684 341.557 120.681 341.772V342.663C120.681 342.933 120.731 343.166 120.83 343.363C120.932 343.559 121.075 343.711 121.26 343.817C121.445 343.924 121.664 343.977 121.917 343.977C122.085 343.977 122.239 343.954 122.379 343.906C122.518 343.859 122.638 343.788 122.737 343.693C122.837 343.598 122.913 343.482 122.965 343.345L124.364 343.438C124.293 343.774 124.147 344.067 123.927 344.318C123.709 344.567 123.427 344.761 123.082 344.901C122.739 345.038 122.342 345.107 121.892 345.107Z" fill="white"/>
<path d="M104.537 339.545H105.537V338.545H104.537V339.545ZM104.537 340.682V341.682H105.537V340.682H104.537ZM101.17 340.682H100.17V341.682H101.17V340.682ZM101.17 339.545V338.545H100.17V339.545H101.17ZM101.941 345H100.941V346H101.941V345ZM102.172 338.168L101.314 337.653L101.311 337.659L102.172 338.168ZM102.811 337.582L102.377 336.681L102.377 336.681L102.811 337.582ZM104.366 337.44L104.184 338.423L104.187 338.423L104.366 337.44ZM104.8 337.536L105.773 337.767L105.991 336.849L105.087 336.578L104.8 337.536ZM104.53 338.672L104.225 339.624L105.253 339.953L105.503 338.903L104.53 338.672ZM104.31 338.619L104.119 339.6L104.124 339.601L104.31 338.619ZM103.582 338.75L104.34 339.402L104.347 339.394L103.582 338.75ZM103.45 345V346H104.45V345H103.45ZM104.537 339.545H103.537V340.682H104.537H105.537V339.545H104.537ZM104.537 340.682V339.682H101.17V340.682V341.682H104.537V340.682ZM101.17 340.682H102.17V339.545H101.17H100.17V340.682H101.17ZM101.17 339.545V340.545H104.537V339.545V338.545H101.17V339.545ZM101.941 345H102.941V339.151H101.941H100.941V345H101.941ZM101.941 339.151H102.941C102.941 338.881 102.994 338.742 103.033 338.676L102.172 338.168L101.311 337.659C101.042 338.114 100.941 338.631 100.941 339.151H101.941ZM102.172 338.168L103.029 338.682C103.087 338.587 103.154 338.527 103.246 338.482L102.811 337.582L102.377 336.681C101.929 336.897 101.57 337.228 101.314 337.653L102.172 338.168ZM102.811 337.582L103.246 338.482C103.362 338.426 103.516 338.386 103.731 338.386V337.386V336.386C103.259 336.386 102.8 336.477 102.377 336.681L102.811 337.582ZM103.731 337.386V338.386C103.913 338.386 104.063 338.4 104.184 338.423L104.366 337.44L104.549 336.456C104.287 336.408 104.013 336.386 103.731 336.386V337.386ZM104.366 337.44L104.187 338.423C104.373 338.457 104.473 338.481 104.512 338.493L104.8 337.536L105.087 336.578C104.937 336.533 104.749 336.493 104.546 336.456L104.366 337.44ZM104.8 337.536L103.827 337.304L103.557 338.441L104.53 338.672L105.503 338.903L105.773 337.767L104.8 337.536ZM104.53 338.672L104.835 337.719C104.724 337.684 104.608 337.657 104.496 337.636L104.31 338.619L104.124 339.601C104.187 339.613 104.218 339.622 104.225 339.624L104.53 338.672ZM104.31 338.619L104.501 337.637C104.35 337.608 104.199 337.594 104.047 337.594V338.594V339.594C104.075 339.594 104.099 339.596 104.119 339.6L104.31 338.619ZM104.047 338.594V337.594C103.713 337.594 103.187 337.666 102.816 338.106L103.582 338.75L104.347 339.394C104.251 339.508 104.143 339.56 104.082 339.581C104.027 339.599 104.008 339.594 104.047 339.594V338.594ZM103.582 338.75L102.824 338.098C102.53 338.439 102.45 338.845 102.45 339.18H103.45H104.45C104.45 339.145 104.458 339.265 104.34 339.402L103.582 338.75ZM103.45 339.18H102.45V345H103.45H104.45V339.18H103.45ZM103.45 345V344H101.941V345V346H103.45V345ZM105.891 344.922L105.479 345.833L105.485 345.836L105.891 344.922ZM105.244 344.379L104.405 344.922L104.411 344.931L105.244 344.379ZM105.177 342.713L104.297 342.238L104.297 342.238L105.177 342.713ZM105.632 342.216L105.084 341.379L105.084 341.379L105.632 342.216ZM106.285 341.932L106.034 340.964L106.031 340.965L106.285 341.932ZM107.059 341.797L107.155 342.792L107.163 342.791L107.059 341.797ZM107.826 341.705L107.971 342.694L107.983 342.692L107.826 341.705ZM108.249 341.57L107.689 340.741L107.689 340.741L108.249 341.57ZM108.167 340.763L107.506 341.514L107.512 341.519L108.167 340.763ZM106.921 340.76L107.513 341.566L107.521 341.56L106.921 340.76ZM106.601 341.207L106.52 342.204L107.334 342.27L107.562 341.485L106.601 341.207ZM105.202 341.094L104.224 340.884L103.985 341.998L105.121 342.09L105.202 341.094ZM105.621 340.234L106.378 340.888L106.381 340.884L105.621 340.234ZM106.427 339.673L106.795 340.603L106.798 340.602L106.427 339.673ZM108.448 339.581L108.199 340.55L108.201 340.55L108.448 339.581ZM109.19 339.911L108.621 340.733L108.625 340.736L109.19 339.911ZM109.705 340.487L108.823 340.958L108.825 340.962L109.705 340.487ZM109.893 345V346H110.893V345H109.893ZM108.458 345H107.458V346H108.458V345ZM108.458 344.244H109.458V343.244H108.458V344.244ZM108.416 344.244V343.244H107.805L107.526 343.787L108.416 344.244ZM108.064 344.695L108.721 345.449L108.728 345.443L108.064 344.695ZM107.535 344.996L107.861 345.942L107.871 345.938L107.535 344.996ZM107.844 343.928L108.301 344.817L108.311 344.812L107.844 343.928ZM108.245 343.565L107.403 343.026L107.403 343.026L108.245 343.565ZM108.391 342.472H109.391V340.629L107.846 341.633L108.391 342.472ZM108.195 342.557L108.478 343.516L108.487 343.514L108.495 343.511L108.195 342.557ZM107.922 342.624L108.105 343.607L108.116 343.605L108.127 343.603L107.922 342.624ZM107.617 342.678L107.755 343.668L107.766 343.666L107.777 343.665L107.617 342.678ZM107.34 342.717L107.198 341.727L107.195 341.727L107.34 342.717ZM106.874 342.841L107.268 343.76L107.268 343.76L106.874 342.841ZM106.566 343.072L107.356 343.684L107.363 343.675L106.566 343.072ZM106.679 343.899L106.089 344.707L106.097 344.712L106.104 344.717L106.679 343.899ZM106.821 345.103V344.103C106.59 344.103 106.421 344.063 106.296 344.008L105.891 344.922L105.485 345.836C105.905 346.022 106.357 346.103 106.821 346.103V345.103ZM105.891 344.922L106.303 344.011C106.194 343.962 106.128 343.902 106.078 343.826L105.244 344.379L104.411 344.931C104.678 345.334 105.043 345.636 105.479 345.833L105.891 344.922ZM105.244 344.379L106.084 343.835C106.056 343.792 106.01 343.692 106.01 343.477H105.01H104.01C104.01 343.981 104.12 344.482 104.405 344.922L105.244 344.379ZM105.01 343.477H106.01C106.01 343.292 106.044 343.212 106.057 343.188L105.177 342.713L104.297 342.238C104.087 342.626 104.01 343.055 104.01 343.477H105.01ZM105.177 342.713L106.057 343.188C106.091 343.125 106.13 343.085 106.179 343.053L105.632 342.216L105.084 341.379C104.75 341.598 104.486 341.889 104.297 342.238L105.177 342.713ZM105.632 342.216L106.179 343.053C106.272 342.992 106.389 342.938 106.539 342.899L106.285 341.932L106.031 340.965C105.694 341.053 105.375 341.189 105.084 341.379L105.632 342.216ZM106.285 341.932L106.536 342.9C106.728 342.85 106.934 342.814 107.155 342.792L107.059 341.797L106.963 340.801C106.644 340.832 106.334 340.886 106.034 340.964L106.285 341.932ZM107.059 341.797L107.163 342.791C107.487 342.758 107.758 342.725 107.971 342.694L107.826 341.705L107.681 340.715C107.507 340.741 107.266 340.77 106.955 340.802L107.059 341.797ZM107.826 341.705L107.983 342.692C108.218 342.655 108.536 342.583 108.809 342.398L108.249 341.57L107.689 340.741C107.721 340.72 107.745 340.707 107.758 340.701C107.771 340.695 107.777 340.694 107.773 340.695C107.769 340.696 107.759 340.699 107.741 340.703C107.723 340.707 107.7 340.712 107.67 340.717L107.826 341.705ZM108.249 341.57L108.809 342.398C109.202 342.133 109.38 341.717 109.38 341.307H108.38H107.38C107.38 341.238 107.394 341.131 107.453 341.012C107.514 340.89 107.602 340.8 107.689 340.741L108.249 341.57ZM108.38 341.307H109.38V341.286H108.38H107.38V341.307H108.38ZM108.38 341.286H109.38C109.38 340.833 109.226 340.358 108.822 340.008L108.167 340.763L107.512 341.519C107.464 341.478 107.425 341.423 107.401 341.364C107.379 341.31 107.38 341.278 107.38 341.286H108.38ZM108.167 340.763L108.828 340.013C108.446 339.676 107.978 339.579 107.57 339.579V340.579V341.579C107.622 341.579 107.634 341.585 107.617 341.58C107.598 341.574 107.554 341.556 107.506 341.514L108.167 340.763ZM107.57 340.579V339.579C107.157 339.579 106.707 339.67 106.321 339.96L106.921 340.76L107.521 341.56C107.491 341.582 107.47 341.588 107.472 341.587C107.477 341.586 107.507 341.579 107.57 341.579V340.579ZM106.921 340.76L106.328 339.954C106.002 340.194 105.758 340.523 105.64 340.929L106.601 341.207L107.562 341.485C107.557 341.502 107.548 341.522 107.534 341.542C107.52 341.561 107.51 341.568 107.513 341.566L106.921 340.76ZM106.601 341.207L106.682 340.211L105.283 340.097L105.202 341.094L105.121 342.09L106.52 342.204L106.601 341.207ZM105.202 341.094L106.18 341.303C106.218 341.125 106.286 340.994 106.378 340.888L105.621 340.234L104.864 339.581C104.539 339.958 104.328 340.399 104.224 340.884L105.202 341.094ZM105.621 340.234L106.381 340.884C106.473 340.777 106.602 340.68 106.795 340.603L106.427 339.673L106.059 338.743C105.594 338.927 105.186 339.204 104.861 339.585L105.621 340.234ZM106.427 339.673L106.798 340.602C106.989 340.526 107.242 340.474 107.578 340.474V339.474V338.474C107.042 338.474 106.528 338.556 106.056 338.745L106.427 339.673ZM107.578 339.474V340.474C107.802 340.474 108.008 340.501 108.199 340.55L108.448 339.581L108.696 338.612C108.333 338.519 107.959 338.474 107.578 338.474V339.474ZM108.448 339.581L108.201 340.55C108.377 340.595 108.512 340.659 108.621 340.733L109.19 339.911L109.759 339.089C109.436 338.866 109.077 338.709 108.694 338.612L108.448 339.581ZM109.19 339.911L108.625 340.736C108.709 340.794 108.773 340.864 108.823 340.958L109.705 340.487L110.586 340.015C110.386 339.64 110.106 339.327 109.755 339.086L109.19 339.911ZM109.705 340.487L108.825 340.962C108.855 341.018 108.893 341.125 108.893 341.321H109.893H110.893C110.893 340.868 110.805 340.419 110.584 340.011L109.705 340.487ZM109.893 341.321H108.893V345H109.893H110.893V341.321H109.893ZM109.893 345V344H108.458V345V346H109.893V345ZM108.458 345H109.458V344.244H108.458H107.458V345H108.458ZM108.458 344.244V343.244H108.416V344.244V345.244H108.458V344.244ZM108.416 344.244L107.526 343.787C107.497 343.844 107.457 343.897 107.4 343.947L108.064 344.695L108.728 345.443C108.965 345.232 109.16 344.984 109.305 344.701L108.416 344.244ZM108.064 344.695L107.407 343.941C107.366 343.977 107.302 344.018 107.199 344.054L107.535 344.996L107.871 345.938C108.18 345.828 108.469 345.668 108.721 345.449L108.064 344.695ZM107.535 344.996L107.209 344.051C107.13 344.078 107.006 344.103 106.821 344.103V345.103V346.103C107.177 346.103 107.529 346.056 107.861 345.942L107.535 344.996ZM107.254 344.059V345.059C107.61 345.059 107.968 344.988 108.301 344.817L107.844 343.928L107.387 343.038C107.379 343.042 107.344 343.059 107.254 343.059V344.059ZM107.844 343.928L108.311 344.812C108.623 344.647 108.89 344.412 109.087 344.105L108.245 343.565L107.403 343.026C107.403 343.027 107.403 343.026 107.402 343.027C107.401 343.028 107.394 343.034 107.377 343.043L107.844 343.928ZM108.245 343.565L109.087 344.105C109.294 343.782 109.391 343.42 109.391 343.05H108.391H107.391C107.391 343.061 107.39 343.06 107.392 343.051C107.393 343.047 107.395 343.042 107.397 343.037C107.399 343.032 107.402 343.029 107.403 343.026L108.245 343.565ZM108.391 343.05H109.391V342.472H108.391H107.391V343.05H108.391ZM108.391 342.472L107.846 341.633C107.878 341.612 107.901 341.602 107.907 341.599C107.913 341.597 107.91 341.598 107.896 341.603L108.195 342.557L108.495 343.511C108.624 343.47 108.783 343.409 108.936 343.31L108.391 342.472ZM108.195 342.557L107.913 341.597C107.864 341.612 107.799 341.628 107.717 341.645L107.922 342.624L108.127 343.603C108.249 343.578 108.366 343.549 108.478 343.516L108.195 342.557ZM107.922 342.624L107.739 341.641C107.645 341.659 107.55 341.675 107.456 341.691L107.617 342.678L107.777 343.665C107.887 343.647 107.996 343.628 108.105 343.607L107.922 342.624ZM107.617 342.678L107.478 341.687C107.376 341.701 107.282 341.715 107.198 341.727L107.34 342.717L107.481 343.707C107.563 343.695 107.654 343.682 107.755 343.668L107.617 342.678ZM107.34 342.717L107.195 341.727C106.951 341.763 106.709 341.824 106.481 341.922L106.874 342.841L107.268 343.76C107.305 343.744 107.373 343.722 107.485 343.706L107.34 342.717ZM106.874 342.841L106.481 341.922C106.218 342.034 105.964 342.209 105.768 342.469L106.566 343.072L107.363 343.675C107.34 343.705 107.316 343.728 107.296 343.742C107.277 343.756 107.266 343.761 107.268 343.76L106.874 342.841ZM106.566 343.072L105.775 342.459C105.542 342.76 105.455 343.106 105.455 343.427H106.455H107.455C107.455 343.442 107.453 343.478 107.438 343.528C107.422 343.579 107.395 343.634 107.356 343.684L106.566 343.072ZM106.455 343.427H105.455C105.455 343.91 105.65 344.386 106.089 344.707L106.679 343.899L107.269 343.092C107.321 343.129 107.377 343.19 107.415 343.271C107.452 343.349 107.455 343.409 107.455 343.427H106.455ZM106.679 343.899L106.104 344.717C106.462 344.969 106.869 345.059 107.254 345.059V344.059V343.059C107.214 343.059 107.2 343.054 107.204 343.055C107.207 343.056 107.213 343.058 107.222 343.062C107.232 343.067 107.243 343.073 107.254 343.081L106.679 343.899ZM112.579 337.727H113.579V336.727H112.579V337.727ZM112.579 345V346H113.579V345H112.579ZM111.067 345H110.067V346H111.067V345ZM111.067 337.727V336.727H110.067V337.727H111.067ZM112.579 337.727H111.579V345H112.579H113.579V337.727H112.579ZM112.579 345V344H111.067V345V346H112.579V345ZM111.067 345H112.067V337.727H111.067H110.067V345H111.067ZM111.067 337.727V338.727H112.579V337.727V336.727H111.067V337.727ZM118.33 341.101L118.391 342.099L119.461 342.033L119.321 340.97L118.33 341.101ZM116.945 341.186L115.964 341.382L116.135 342.238L117.006 342.184L116.945 341.186ZM116.792 340.866L116.013 341.494L116.021 341.503L116.792 340.866ZM116.483 340.636L116.056 341.54L116.067 341.545L116.077 341.549L116.483 340.636ZM115.439 340.696L115.955 341.552L115.964 341.547L115.439 340.696ZM115.354 341.417L114.7 342.174L114.7 342.174L115.354 341.417ZM115.89 341.634L115.68 342.611L115.692 342.614L115.89 341.634ZM116.877 341.832L117.078 340.853L117.075 340.852L116.877 341.832ZM118.063 342.358L117.383 343.091L117.383 343.091L118.063 342.358ZM118.138 344.251L117.35 343.635L117.346 343.64L118.138 344.251ZM117.278 344.883L117.659 345.807L117.662 345.806L117.278 344.883ZM114.299 344.656L113.719 345.471L113.725 345.474L114.299 344.656ZM113.55 343.42L113.497 342.421L112.407 342.478L112.559 343.559L113.55 343.42ZM115.038 343.342L116.017 343.141L115.845 342.298L114.985 342.343L115.038 343.342ZM115.364 343.846L114.807 344.676L114.815 344.681L115.364 343.846ZM116.668 343.864L117.202 344.709L117.205 344.707L116.668 343.864ZM116.916 343.462L117.916 343.477L117.916 343.461L117.916 343.445L116.916 343.462ZM116.742 343.125L116.121 343.909L116.132 343.917L116.742 343.125ZM116.217 342.919L116.413 341.938L116.412 341.938L116.217 342.919ZM115.272 342.731L115.076 343.711L115.077 343.712L115.272 342.731ZM114.082 342.177L113.369 342.878L113.372 342.881L114.082 342.177ZM113.979 340.266L113.182 339.663L113.179 339.668L113.979 340.266ZM114.786 339.68L114.418 338.75L114.416 338.751L114.786 339.68ZM117.634 339.911L117.04 340.716L117.043 340.718L117.634 339.911ZM118.33 341.101L118.268 340.103L116.883 340.188L116.945 341.186L117.006 342.184L118.391 342.099L118.33 341.101ZM116.945 341.186L117.925 340.99C117.869 340.707 117.745 340.45 117.563 340.23L116.792 340.866L116.021 341.503C116.01 341.49 115.997 341.472 115.986 341.449C115.975 341.425 115.968 341.402 115.964 341.382L116.945 341.186ZM116.792 340.866L117.571 340.239C117.381 340.004 117.144 339.835 116.889 339.722L116.483 340.636L116.077 341.549C116.079 341.55 116.071 341.547 116.058 341.537C116.044 341.527 116.028 341.512 116.013 341.493L116.792 340.866ZM116.483 340.636L116.91 339.731C116.62 339.595 116.317 339.547 116.032 339.547V340.547V341.547C116.064 341.547 116.08 341.55 116.083 341.55C116.086 341.551 116.075 341.549 116.056 341.54L116.483 340.636ZM116.032 340.547V339.547C115.656 339.547 115.266 339.627 114.913 339.845L115.439 340.696L115.964 341.547C115.951 341.555 115.945 341.556 115.952 341.554C115.96 341.552 115.985 341.547 116.032 341.547V340.547ZM115.439 340.696L114.923 339.84C114.515 340.085 114.197 340.514 114.197 341.087H115.197H116.197C116.197 341.178 116.172 341.289 116.108 341.392C116.048 341.49 115.98 341.537 115.955 341.552L115.439 340.696ZM115.197 341.087H114.197C114.197 341.526 114.39 341.906 114.7 342.174L115.354 341.417L116.007 340.66C116.047 340.694 116.1 340.753 116.14 340.839C116.182 340.927 116.197 341.014 116.197 341.087H115.197ZM115.354 341.417L114.7 342.174C115 342.433 115.383 342.548 115.68 342.611L115.89 341.634L116.1 340.656C116.012 340.637 115.962 340.62 115.94 340.611C115.931 340.607 115.933 340.607 115.943 340.613C115.953 340.619 115.977 340.634 116.007 340.66L115.354 341.417ZM115.89 341.634L115.692 342.614L116.68 342.813L116.877 341.832L117.075 340.852L116.087 340.653L115.89 341.634ZM116.877 341.832L116.676 342.812C117.114 342.902 117.31 343.023 117.383 343.091L118.063 342.358L118.743 341.625C118.296 341.21 117.701 340.981 117.078 340.853L116.877 341.832ZM118.063 342.358L117.383 343.091C117.417 343.122 117.454 343.162 117.454 343.31H118.454H119.454C119.454 342.671 119.231 342.077 118.743 341.625L118.063 342.358ZM118.454 343.31H117.454C117.454 343.455 117.417 343.549 117.35 343.635L118.138 344.251L118.926 344.866C119.28 344.412 119.454 343.88 119.454 343.31H118.454ZM118.138 344.251L117.346 343.64C117.26 343.751 117.124 343.864 116.895 343.959L117.278 344.883L117.662 345.806C118.162 345.599 118.599 345.29 118.929 344.862L118.138 344.251ZM117.278 344.883L116.898 343.958C116.679 344.048 116.394 344.107 116.025 344.107V345.107V346.107C116.602 346.107 117.154 346.016 117.659 345.807L117.278 344.883ZM116.025 345.107V344.107C115.432 344.107 115.081 343.982 114.873 343.837L114.299 344.656L113.725 345.474C114.374 345.93 115.173 346.107 116.025 346.107V345.107ZM114.299 344.656L114.879 343.841C114.678 343.698 114.575 343.531 114.54 343.28L113.55 343.42L112.559 343.559C112.671 344.35 113.068 345.007 113.719 345.47L114.299 344.656ZM113.55 343.42L113.602 344.418L115.09 344.34L115.038 343.342L114.985 342.343L113.497 342.421L113.55 343.42ZM115.038 343.342L114.058 343.542C114.151 343.997 114.398 344.401 114.807 344.676L115.364 343.846L115.922 343.016C115.943 343.03 115.97 343.055 115.992 343.089C116.014 343.122 116.018 343.144 116.017 343.141L115.038 343.342ZM115.364 343.846L114.815 344.681C115.194 344.931 115.622 345.016 116.028 345.016V344.016V343.016C115.895 343.016 115.88 342.988 115.914 343.01L115.364 343.846ZM116.028 344.016V345.016C116.412 345.016 116.83 344.944 117.202 344.709L116.668 343.864L116.133 343.018C116.158 343.002 116.17 343.002 116.155 343.006C116.138 343.009 116.098 343.016 116.028 343.016V344.016ZM116.668 343.864L117.205 344.707C117.591 344.461 117.908 344.043 117.916 343.477L116.916 343.462L115.916 343.448C115.918 343.356 115.944 343.252 116.002 343.159C116.056 343.072 116.114 343.031 116.13 343.02L116.668 343.864ZM116.916 343.462L117.916 343.445C117.908 342.988 117.695 342.597 117.353 342.333L116.742 343.125L116.132 343.917C116.088 343.883 116.029 343.824 115.982 343.733C115.935 343.642 115.918 343.551 115.916 343.48L116.916 343.462ZM116.742 343.125L117.363 342.341C117.069 342.108 116.714 341.999 116.413 341.938L116.217 342.919L116.021 343.9C116.097 343.915 116.141 343.929 116.161 343.937C116.182 343.945 116.161 343.941 116.121 343.909L116.742 343.125ZM116.217 342.919L116.412 341.938L115.467 341.75L115.272 342.731L115.077 343.712L116.021 343.9L116.217 342.919ZM115.272 342.731L115.468 341.75C115.044 341.665 114.862 341.543 114.793 341.473L114.082 342.177L113.372 342.881C113.824 343.337 114.435 343.583 115.076 343.711L115.272 342.731ZM114.082 342.177L114.796 341.476C114.742 341.421 114.695 341.347 114.695 341.172H113.695H112.695C112.695 341.811 112.907 342.407 113.369 342.877L114.082 342.177ZM113.695 341.172H114.695C114.695 341.013 114.734 340.927 114.78 340.865L113.979 340.266L113.179 339.668C112.846 340.112 112.695 340.63 112.695 341.172H113.695ZM113.979 340.266L114.777 340.87C114.841 340.786 114.95 340.691 115.155 340.61L114.786 339.68L114.416 338.751C113.93 338.944 113.502 339.241 113.182 339.663L113.979 340.266ZM114.786 339.68L115.153 340.611C115.359 340.529 115.636 340.474 116.007 340.474V339.474V338.474C115.445 338.474 114.908 338.557 114.418 338.75L114.786 339.68ZM116.007 339.474V340.474C116.566 340.474 116.874 340.594 117.04 340.716L117.634 339.911L118.227 339.106C117.602 338.646 116.826 338.474 116.007 338.474V339.474ZM117.634 339.911L117.043 340.718C117.214 340.843 117.307 340.992 117.338 341.232L118.33 341.101L119.321 340.97C119.22 340.206 118.849 339.562 118.224 339.104L117.634 339.911ZM120.443 344.766L119.948 345.634L119.954 345.638L120.443 344.766ZM119.513 343.793L118.625 344.252L118.626 344.254L119.513 343.793ZM119.513 340.82L118.624 340.363L118.624 340.363L119.513 340.82ZM120.433 339.83L119.921 338.97L119.919 338.972L120.433 339.83ZM122.837 339.648L122.486 340.585L122.495 340.588L122.837 339.648ZM123.654 340.163L122.95 340.874L122.954 340.878L123.654 340.163ZM124.2 341.03L123.264 341.38L123.265 341.382L124.2 341.03ZM124.396 342.66V343.66H125.396V342.66H124.396ZM119.79 342.66H118.79V343.66H119.79V342.66ZM119.79 341.722V340.722H118.79V341.722H119.79ZM122.972 341.722V342.722H123.972V341.722H122.972ZM122.83 341.143L121.958 341.634L121.958 341.634L122.83 341.143ZM122.436 340.749L121.93 341.612L121.937 341.616L121.945 341.621L122.436 340.749ZM121.246 340.763L121.757 341.623L121.76 341.621L121.246 340.763ZM120.834 341.186L121.704 341.68L121.706 341.675L120.834 341.186ZM120.681 341.772L119.681 341.761V341.772H120.681ZM120.83 343.363L119.938 343.814L119.943 343.823L120.83 343.363ZM122.379 343.906L122.058 342.959L122.058 342.959L122.379 343.906ZM122.737 343.693L122.048 342.969L122.048 342.969L122.737 343.693ZM122.965 343.345L123.031 342.347L122.292 342.299L122.03 342.991L122.965 343.345ZM124.364 343.438L125.342 343.644L125.581 342.516L124.43 342.44L124.364 343.438ZM123.927 344.318L123.175 343.659L123.175 343.659L123.927 344.318ZM123.082 344.901L123.453 345.829L123.457 345.828L123.082 344.901ZM121.892 345.107V344.107C121.467 344.107 121.16 344.021 120.933 343.894L120.443 344.766L119.954 345.638C120.536 345.965 121.195 346.107 121.892 346.107V345.107ZM120.443 344.766L120.939 343.897C120.707 343.765 120.531 343.583 120.4 343.331L119.513 343.793L118.626 344.254C118.93 344.84 119.375 345.307 119.948 345.634L120.443 344.766ZM119.513 343.793L120.401 343.333C120.271 343.081 120.186 342.747 120.186 342.298H119.186H118.186C118.186 342.999 118.319 343.661 118.625 344.252L119.513 343.793ZM119.186 342.298H120.186C120.186 341.867 120.269 341.537 120.402 341.277L119.513 340.82L118.624 340.363C118.321 340.951 118.186 341.606 118.186 342.298H119.186ZM119.513 340.82L120.402 341.277C120.538 341.014 120.717 340.825 120.946 340.687L120.433 339.83L119.919 338.972C119.358 339.308 118.924 339.779 118.624 340.363L119.513 340.82ZM120.433 339.83L120.944 340.689C121.164 340.558 121.448 340.474 121.832 340.474V339.474V338.474C121.145 338.474 120.496 338.628 119.921 338.97L120.433 339.83ZM121.832 339.474V340.474C122.082 340.474 122.298 340.514 122.486 340.585L122.837 339.648L123.187 338.712C122.756 338.55 122.301 338.474 121.832 338.474V339.474ZM122.837 339.648L122.495 340.588C122.674 340.653 122.823 340.748 122.95 340.874L123.654 340.163L124.357 339.453C124.02 339.119 123.624 338.871 123.179 338.709L122.837 339.648ZM123.654 340.163L122.954 340.878C123.07 340.992 123.178 341.151 123.264 341.38L124.2 341.03L125.137 340.679C124.962 340.212 124.705 339.794 124.353 339.449L123.654 340.163ZM124.2 341.03L123.265 341.382C123.343 341.591 123.396 341.871 123.396 342.244H124.396H125.396C125.396 341.69 125.318 341.16 125.136 340.677L124.2 341.03ZM124.396 342.244H123.396V342.66H124.396H125.396V342.244H124.396ZM124.396 342.66V341.66H119.79V342.66V343.66H124.396V342.66ZM119.79 342.66H120.79V341.722H119.79H118.79V342.66H119.79ZM119.79 341.722V342.722H122.972V341.722V340.722H119.79V341.722ZM122.972 341.722H123.972C123.972 341.355 123.89 340.989 123.701 340.653L122.83 341.143L121.958 341.634C121.96 341.637 121.962 341.642 121.965 341.653C121.968 341.664 121.972 341.686 121.972 341.722H122.972ZM122.83 341.143L123.701 340.653C123.517 340.325 123.254 340.062 122.926 339.878L122.436 340.749L121.945 341.621C121.949 341.623 121.951 341.625 121.952 341.625C121.953 341.626 121.953 341.626 121.953 341.626C121.953 341.626 121.953 341.626 121.954 341.627C121.954 341.628 121.956 341.63 121.958 341.634L122.83 341.143ZM122.436 340.749L122.941 339.886C122.601 339.687 122.228 339.604 121.857 339.604V340.604V341.604C121.893 341.604 121.914 341.608 121.923 341.61C121.931 341.612 121.932 341.613 121.93 341.612L122.436 340.749ZM121.857 340.604V339.604C121.466 339.604 121.081 339.696 120.731 339.906L121.246 340.763L121.76 341.621C121.766 341.618 121.788 341.604 121.857 341.604V340.604ZM121.246 340.763L120.735 339.904C120.409 340.098 120.147 340.366 119.961 340.697L120.834 341.186L121.706 341.675C121.72 341.651 121.733 341.638 121.757 341.623L121.246 340.763ZM120.834 341.186L119.964 340.692C119.775 341.025 119.685 341.388 119.681 341.761L120.681 341.772L121.681 341.783C121.682 341.725 121.694 341.697 121.704 341.68L120.834 341.186ZM120.681 341.772H119.681V342.663H120.681H121.681V341.772H120.681ZM120.681 342.663H119.681C119.681 343.055 119.754 343.45 119.938 343.814L120.83 343.363L121.723 342.911C121.708 342.883 121.681 342.811 121.681 342.663H120.681ZM120.83 343.363L119.943 343.823C120.129 344.182 120.404 344.478 120.76 344.684L121.26 343.817L121.76 342.951C121.747 342.944 121.736 342.937 121.718 342.903L120.83 343.363ZM121.26 343.817L120.76 344.684C121.123 344.893 121.521 344.977 121.917 344.977V343.977V342.977C121.806 342.977 121.766 342.955 121.76 342.951L121.26 343.817ZM121.917 343.977V344.977C122.179 344.977 122.443 344.94 122.7 344.853L122.379 343.906L122.058 342.959C122.035 342.967 121.991 342.977 121.917 342.977V343.977ZM122.379 343.906L122.7 344.853C122.967 344.763 123.215 344.62 123.427 344.417L122.737 343.693L122.048 342.969C122.053 342.964 122.058 342.96 122.062 342.958C122.066 342.956 122.065 342.957 122.058 342.959L122.379 343.906ZM122.737 343.693L123.427 344.417C123.642 344.212 123.798 343.967 123.9 343.7L122.965 343.345L122.03 342.991C122.028 342.996 122.028 342.994 122.032 342.988C122.035 342.982 122.041 342.975 122.048 342.969L122.737 343.693ZM122.965 343.345L122.899 344.343L124.298 344.435L124.364 343.438L124.43 342.44L123.031 342.347L122.965 343.345ZM124.364 343.438L123.385 343.231C123.349 343.404 123.279 343.541 123.175 343.659L123.927 344.318L124.679 344.978C125.015 344.594 125.237 344.143 125.342 343.644L124.364 343.438ZM123.927 344.318L123.175 343.659C123.073 343.776 122.926 343.885 122.707 343.973L123.082 344.901L123.457 345.828C123.929 345.637 124.346 345.358 124.679 344.977L123.927 344.318ZM123.082 344.901L122.71 343.972C122.508 344.053 122.242 344.107 121.892 344.107V345.107V346.107C122.442 346.107 122.969 346.023 123.453 345.829L123.082 344.901Z" fill="#C50000" mask="url(#path-4-outside-1_170_204)"/>
<path d="M301 130L326 105H276L301 130Z" fill="white"/>
<path d="M301 125L321 105H281L301 125Z" fill="white"/>
<path d="M301 125L321 105H281L301 125Z" fill="#F0B43B"/>
<path d="M301 121L317 105H285L301 121Z" fill="#F0B43B"/>
<path d="M312 65H290V105H312V65Z" fill="#F0B43B"/>
<path d="M225 43V65H312V43H225Z" fill="#F0B43B"/>
<rect y="25" width="225" height="59" fill="#F0B43B"/>
<path d="M142.666 51.1522V52.7559H138V51.1522H142.666ZM139.059 49.3081H141.207V56.4843C141.207 56.6814 141.238 56.8351 141.299 56.9454C141.359 57.0523 141.443 57.1275 141.551 57.1708C141.662 57.2144 141.79 57.236 141.934 57.236C142.035 57.236 142.137 57.2276 142.237 57.2109C142.338 57.1909 142.415 57.1759 142.469 57.1659L142.807 58.7544C142.699 58.7878 142.548 58.8263 142.353 58.8697C142.158 58.9165 141.921 58.945 141.642 58.955C141.123 58.975 140.67 58.9065 140.28 58.7495C139.894 58.5924 139.592 58.3486 139.378 58.0178C139.162 57.6871 139.056 57.2694 139.059 56.765V49.3081ZM144.065 58.8497V51.1522H146.214V58.8497H144.065ZM145.144 50.16C144.826 50.16 144.551 50.0547 144.323 49.8442C144.097 49.6304 143.984 49.3749 143.984 49.0775C143.984 48.7835 144.097 48.5313 144.323 48.3208C144.551 48.107 144.826 48 145.144 48C145.464 48 145.736 48.107 145.962 48.3208C146.19 48.5313 146.305 48.7835 146.305 49.0775C146.305 49.3749 146.19 49.6304 145.962 49.8442C145.736 50.0547 145.464 50.16 145.144 50.16ZM147.935 58.8497V51.1522H149.983V52.5103H150.074C150.235 52.0593 150.503 51.7035 150.881 51.4429C151.257 51.1823 151.708 51.052 152.233 51.052C152.764 51.052 153.216 51.1839 153.589 51.4479C153.962 51.7085 154.211 52.0626 154.336 52.5103H154.416C154.574 52.0693 154.86 51.7169 155.273 51.4529C155.691 51.1857 156.183 51.052 156.751 51.052C157.475 51.052 158.06 51.2808 158.511 51.7385C158.966 52.1929 159.192 52.8377 159.192 53.6729V58.8497H157.049V54.0939C157.049 53.6662 156.935 53.3455 156.706 53.1317C156.477 52.9179 156.192 52.811 155.848 52.811C155.459 52.811 155.154 52.9346 154.936 53.1818C154.717 53.4257 154.608 53.7481 154.608 54.149V58.8497H152.525V54.0488C152.525 53.6713 152.416 53.3706 152.197 53.1468C151.982 52.9229 151.698 52.811 151.345 52.811C151.106 52.811 150.89 52.8711 150.699 52.9914C150.51 53.1083 150.361 53.2737 150.25 53.4875C150.139 53.698 150.083 53.9452 150.083 54.2292V58.8497H147.935ZM164.42 59C163.623 59 162.937 58.8397 162.363 58.519C161.791 58.1949 161.351 57.7372 161.041 57.1458C160.732 56.5512 160.577 55.8478 160.577 55.036C160.577 54.2442 160.732 53.5493 161.041 52.9513C161.351 52.3533 161.785 51.8872 162.347 51.5532C162.912 51.2191 163.575 51.052 164.335 51.052C164.846 51.052 165.322 51.1338 165.762 51.2975C166.206 51.4579 166.593 51.7002 166.922 52.0242C167.255 52.3483 167.514 52.7559 167.698 53.247C167.883 53.7348 167.977 54.3061 167.977 54.9609V55.5472H161.435V54.2242H165.954C165.954 53.9168 165.886 53.6446 165.751 53.4074C165.618 53.1702 165.431 52.9847 165.192 52.851C164.956 52.7141 164.683 52.6456 164.37 52.6456C164.043 52.6456 163.755 52.7208 163.503 52.8711C163.253 53.0181 163.059 53.2169 162.917 53.4675C162.776 53.7147 162.704 53.9903 162.7 54.2943V55.5522C162.7 55.9331 162.771 56.2621 162.912 56.5394C163.056 56.8167 163.26 57.0305 163.523 57.181C163.784 57.3312 164.096 57.4064 164.455 57.4064C164.694 57.4064 164.912 57.373 165.111 57.3062C165.31 57.2394 165.479 57.1392 165.62 57.0055C165.762 56.8719 165.87 56.7082 165.943 56.5144L167.93 56.6447C167.83 57.1191 167.623 57.5334 167.31 57.8875C167.001 58.2383 166.601 58.5123 166.11 58.7094C165.622 58.9032 165.059 59 164.42 59ZM175.824 53.3472L173.857 53.4675C173.823 53.3004 173.751 53.1501 173.64 53.0165C173.529 52.8795 173.383 52.7709 173.201 52.6907C173.023 52.6072 172.809 52.5654 172.561 52.5654C172.228 52.5654 171.947 52.6356 171.718 52.7759C171.489 52.9129 171.376 53.0967 171.376 53.3272C171.376 53.5109 171.449 53.6662 171.597 53.7932C171.745 53.9201 172 54.0221 172.359 54.0989L173.761 54.3796C174.515 54.5332 175.076 54.7805 175.446 55.1212C175.815 55.462 176 55.9097 176 56.4643C176 56.9688 175.851 57.4115 175.551 57.7924C175.256 58.1731 174.848 58.4706 174.331 58.6844C173.816 58.8949 173.223 59 172.551 59C171.525 59 170.708 58.7878 170.1 58.3635C169.494 57.936 169.14 57.3546 169.035 56.6196L171.149 56.5093C171.212 56.82 171.367 57.0574 171.612 57.2211C171.857 57.3813 172.172 57.4616 172.556 57.4616C172.932 57.4616 173.235 57.3897 173.464 57.2461C173.696 57.0991 173.813 56.9104 173.816 56.6797C173.813 56.4861 173.731 56.3273 173.569 56.2037C173.408 56.0767 173.159 55.9799 172.823 55.913L171.481 55.6474C170.725 55.497 170.161 55.2365 169.792 54.8656C169.425 54.4948 169.242 54.0221 169.242 53.4474C169.242 52.953 169.377 52.527 169.645 52.1695C169.918 51.812 170.3 51.5364 170.79 51.3427C171.285 51.1489 171.863 51.052 172.525 51.052C173.504 51.052 174.274 51.2574 174.835 51.6684C175.4 52.0793 175.73 52.6389 175.824 53.3472Z" fill="#FFFEFE"/>
<path d="M119.276 41H110.276C104.753 41 100.276 45.4772 100.276 51V55C100.276 60.5228 104.753 65 110.276 65H119.276C124.798 65 129.276 60.5228 129.276 55V51C129.276 45.4772 124.798 41 119.276 41Z" fill="white"/>
<path d="M49 58.4452V51.6322H50.8973V52.821H50.9709C51.0995 52.3981 51.3154 52.0787 51.6185 51.8628C51.9218 51.6441 52.2708 51.5347 52.6659 51.5347C52.7639 51.5347 52.8696 51.5406 52.9829 51.5524C53.0962 51.5642 53.1958 51.5805 53.2815 51.6012V53.2778C53.1896 53.2512 53.0625 53.2275 52.9002 53.2068C52.738 53.1861 52.5894 53.1758 52.4546 53.1758C52.1667 53.1758 51.9095 53.2364 51.6829 53.3576C51.4593 53.476 51.2816 53.6415 51.15 53.8544C51.0213 54.0673 50.9571 54.3127 50.9571 54.5908V58.4452H49ZM57.1806 58.5782C56.4548 58.5782 55.83 58.4363 55.3062 58.1525C54.7857 57.8656 54.3844 57.4605 54.1026 56.9371C53.8209 56.4108 53.68 55.7883 53.68 55.0698C53.68 54.3689 53.8209 53.7539 54.1026 53.2246C54.3844 52.6953 54.781 52.2827 55.2924 51.9871C55.807 51.6914 56.4104 51.5435 57.1025 51.5435C57.5679 51.5435 58.0013 51.6159 58.4026 51.7608C58.8068 51.9028 59.159 52.1172 59.4591 52.404C59.7623 52.6909 59.9981 53.0516 60.1665 53.4863C60.335 53.918 60.4192 54.4237 60.4192 55.0032V55.5222H54.461V54.3512H58.5771C58.5771 54.0792 58.5159 53.8382 58.3934 53.6283C58.2708 53.4183 58.1008 53.2542 57.8834 53.1358C57.6691 53.0147 57.4194 52.954 57.1346 52.954C56.8376 52.954 56.5742 53.0206 56.3445 53.1536C56.1179 53.2837 55.9402 53.4596 55.8116 53.6815C55.683 53.9002 55.6171 54.1442 55.614 54.4133V55.5266C55.614 55.8637 55.6784 56.155 55.807 56.4004C55.9387 56.6458 56.1239 56.8351 56.3628 56.9682C56.6017 57.1012 56.885 57.1677 57.2127 57.1677C57.4302 57.1677 57.6292 57.1382 57.81 57.0791C57.9906 57.0199 58.1452 56.9312 58.2739 56.8129C58.4026 56.6947 58.5006 56.5498 58.5679 56.3782L60.3779 56.4936C60.286 56.9134 60.0976 57.2801 59.8128 57.5936C59.5311 57.904 59.1667 58.1466 58.7195 58.321C58.2755 58.4925 57.7624 58.5782 57.1806 58.5782ZM61.6964 61V51.6322H63.6257V52.7766H63.713C63.7988 52.5932 63.9228 52.407 64.0852 52.2177C64.2505 52.0255 64.465 51.8659 64.7283 51.7387C64.9947 51.6086 65.3255 51.5435 65.7205 51.5435C66.2351 51.5435 66.7097 51.6736 67.1447 51.9338C67.5796 52.1911 67.9271 52.58 68.1875 53.1004C68.4478 53.6179 68.578 54.2669 68.578 55.0476C68.578 55.8075 68.4509 56.4492 68.1967 56.9726C67.9456 57.493 67.6026 57.8878 67.1677 58.1569C66.7358 58.423 66.2519 58.556 65.716 58.556C65.3362 58.556 65.0131 58.4955 64.7466 58.3742C64.4833 58.2529 64.2674 58.1007 64.099 57.9174C63.9305 57.731 63.8019 57.5433 63.713 57.354H63.6533V61H61.6964ZM63.612 55.0387C63.612 55.4438 63.6701 55.7972 63.7865 56.0988C63.903 56.4004 64.0714 56.6355 64.2918 56.8041C64.5124 56.9697 64.7804 57.0524 65.0958 57.0524C65.4143 57.0524 65.6838 56.9682 65.9043 56.7996C66.1248 56.6281 66.2918 56.3916 66.4051 56.0899C66.5214 55.7854 66.5796 55.435 66.5796 55.0387C66.5796 54.6454 66.5229 54.2994 66.4096 54.0008C66.2963 53.7022 66.1294 53.4685 65.9089 53.3C65.6884 53.1315 65.4174 53.0471 65.0958 53.0471C64.7773 53.0471 64.5077 53.1284 64.2873 53.2911C64.0699 53.4537 63.903 53.6844 63.7865 53.9831C63.6701 54.2817 63.612 54.6336 63.612 55.0387ZM73.0983 58.5782C72.3725 58.5782 71.7477 58.4363 71.224 58.1525C70.7034 57.8656 70.3021 57.4605 70.0205 56.9371C69.7387 56.4108 69.5978 55.7883 69.5978 55.0698C69.5978 54.3689 69.7387 53.7539 70.0205 53.2246C70.3021 52.6953 70.6988 52.2827 71.2103 51.9871C71.7247 51.6914 72.3281 51.5435 73.0202 51.5435C73.4858 51.5435 73.919 51.6159 74.3203 51.7608C74.7245 51.9028 75.0767 52.1172 75.3769 52.404C75.6801 52.6909 75.9159 53.0516 76.0844 53.4863C76.2527 53.918 76.337 54.4237 76.337 55.0032V55.5222H70.3788V54.3512H74.4948C74.4948 54.0792 74.4336 53.8382 74.3111 53.6283C74.1885 53.4183 74.0186 53.2542 73.8012 53.1358C73.5868 53.0147 73.3372 52.954 73.0524 52.954C72.7553 52.954 72.4919 53.0206 72.2622 53.1536C72.0356 53.2837 71.858 53.4596 71.7294 53.6815C71.6007 53.9002 71.5349 54.1442 71.5319 54.4133V55.5266C71.5319 55.8637 71.5961 56.155 71.7247 56.4004C71.8564 56.6458 72.0418 56.8351 72.2807 56.9682C72.5194 57.1012 72.8027 57.1677 73.1305 57.1677C73.3479 57.1677 73.547 57.1382 73.7277 57.0791C73.9084 57.0199 74.0631 56.9312 74.1917 56.8129C74.3203 56.6947 74.4183 56.5498 74.4857 56.3782L76.2957 56.4936C76.2038 56.9134 76.0154 57.2801 75.7306 57.5936C75.4489 57.904 75.0844 58.1466 74.6372 58.321C74.1932 58.4925 73.6803 58.5782 73.0983 58.5782ZM79.6262 58.5738C79.176 58.5738 78.7748 58.4984 78.4226 58.3476C78.0704 58.1938 77.7917 57.9676 77.5865 57.669C77.3844 57.3674 77.2834 56.9918 77.2834 56.5424C77.2834 56.1638 77.3552 55.8459 77.4993 55.5887C77.6432 55.3314 77.8392 55.1245 78.0872 54.9678C78.3353 54.811 78.6171 54.6928 78.9325 54.6129C79.2511 54.5331 79.5848 54.4769 79.934 54.4443C80.3444 54.403 80.6751 54.3645 80.9262 54.3291C81.1774 54.2906 81.3596 54.2344 81.4729 54.1605C81.5863 54.0866 81.6429 53.9772 81.6429 53.8323V53.8056C81.6429 53.5247 81.551 53.3074 81.3672 53.1536C81.1866 52.9999 80.9293 52.923 80.5955 52.923C80.2433 52.923 79.9631 52.9983 79.7548 53.1491C79.5466 53.2971 79.4088 53.4834 79.3414 53.7081L77.5314 53.5661C77.6232 53.1522 77.8039 52.7943 78.0734 52.4927C78.3429 52.1881 78.6906 51.9545 79.1163 51.792C79.545 51.6264 80.0412 51.5435 80.6046 51.5435C80.9967 51.5435 81.3719 51.5878 81.7302 51.6766C82.0916 51.7653 82.4116 51.9028 82.6903 52.0891C82.9721 52.2753 83.1941 52.5149 83.3564 52.8076C83.5188 53.0974 83.5999 53.4449 83.5999 53.85V58.4452H81.744V57.5004H81.6888C81.5755 57.7134 81.4239 57.9011 81.2341 58.0637C81.0442 58.2234 80.816 58.3491 80.5496 58.4407C80.2832 58.5295 79.9753 58.5738 79.6262 58.5738ZM80.1867 57.2697C80.4745 57.2697 80.7287 57.2151 80.9493 57.1057C81.1697 56.9933 81.3428 56.8425 81.4684 56.6532C81.5939 56.464 81.6567 56.2496 81.6567 56.0101V55.2871C81.5955 55.3255 81.5113 55.361 81.404 55.3936C81.2999 55.4231 81.182 55.4512 81.0503 55.4778C80.9186 55.5015 80.7869 55.5237 80.6552 55.5444C80.5236 55.5621 80.4041 55.5783 80.2969 55.5931C80.0672 55.6257 79.8666 55.6774 79.6951 55.7484C79.5236 55.8194 79.3904 55.9155 79.2955 56.0367C79.2005 56.155 79.1531 56.3029 79.1531 56.4802C79.1531 56.7375 79.2495 56.9342 79.4424 57.0702C79.6384 57.2032 79.8866 57.2697 80.1867 57.2697ZM88.8714 51.6322V53.0516H84.622V51.6322H88.8714ZM85.5868 50H87.5437V56.3516C87.5437 56.526 87.5713 56.6621 87.6264 56.7597C87.6816 56.8543 87.7581 56.9208 87.8561 56.9593C87.9572 56.9978 88.0735 57.0169 88.2053 57.0169C88.2971 57.0169 88.389 57.0095 88.4809 56.9947C88.5728 56.977 88.6432 56.9637 88.6922 56.9549L89 58.3609C88.902 58.3904 88.7641 58.4245 88.5866 58.4629C88.4089 58.5043 88.193 58.5295 87.9388 58.5383C87.4672 58.556 87.0537 58.4955 86.6984 58.3565C86.3462 58.2175 86.0722 58.0017 85.8762 57.7089C85.6801 57.4162 85.5837 57.0465 85.5868 56.6V50Z" fill="white"/>
<path d="M174 106H199V131L174 106Z" fill="#F0B43B"/>
<path d="M149 106H174L149 131V106Z" fill="#F0B43B"/>
<rect x="199" y="106" width="50" height="24" transform="rotate(-180 199 106)" fill="#F0B43B"/>
<path d="M149 126L174 101L199 126V131L174 106L149 131V126Z" fill="#A87C2D"/>
<circle opacity="0.01" cx="174" cy="106" r="1" transform="rotate(-180 174 106)" fill="#D9D9D9"/>
<path d="M113 25H88V0L113 25Z" fill="#F0B43B"/>
<path d="M138 25H113L138 0V25Z" fill="#F0B43B"/>
<path d="M138 5L113 30L88 5V0L113 25L138 0V5Z" fill="white"/>
<circle opacity="0.01" cx="113" cy="25" r="1" fill="#D9D9D9"/>
<path d="M162 290V312H312V290H162Z" fill="#F0B43B"/>
<path d="M325.5 109.083H326V113.25H325.5V117.417H326V121.583H325.5V125.75H326V129.917H325.5V132.5H327.889V132H331.665V132.5H335.441V132H339.219V132.5H342.995V132H346.771V132.5H348.66C349.366 132.5 350.06 132.547 350.741 132.638L350.807 132.142C352.255 132.334 353.644 132.719 354.947 133.27L354.753 133.729C356.043 134.274 357.247 134.988 358.338 135.842L358.645 135.448C359.774 136.332 360.786 137.362 361.652 138.511L361.255 138.812C362.087 139.914 362.781 141.13 363.311 142.432L363.771 142.243C364.304 143.551 364.677 144.942 364.863 146.394V146.395L364.367 146.458C364.455 147.14 364.5 147.835 364.5 148.542V150.701H365V155.021H364.5V159.341H365V163.66H364.5V167.979H365V172.298H364.5V174.458C364.5 175.165 364.455 175.86 364.367 176.542L364.863 176.605C364.677 178.057 364.304 179.448 363.771 180.756L363.311 180.568C362.781 181.87 362.087 183.086 361.255 184.188L361.652 184.488C360.786 185.637 359.774 186.667 358.645 187.551L358.338 187.158C357.247 188.012 356.043 188.726 354.753 189.271L354.947 189.729C353.644 190.28 352.255 190.665 350.807 190.857L350.741 190.362C350.06 190.453 349.366 190.5 348.66 190.5H346.435V191H341.982V190.5H337.531V191H333.08V190.5H328.628V191H324.177V190.5H319.726V191H315.273V190.5H312.548V192.833H313.048V196.5H312.548V200.167H313.048V203.833H312.548V207.5H313.048V211.167H312.548V213.5H314.667V213H317.905V213.5H321.143V213H324.381V213.5H324.793L324.084 214.209L324.438 214.562L321.312 217.688L320.959 217.334L317.834 220.459L318.188 220.812L315.062 223.938L314.709 223.584L311.584 226.709L311.938 227.062L308.812 230.188L308.459 229.834L305.334 232.959L305.688 233.312L302.562 236.438L302.209 236.084L301 237.293L299.791 236.084L299.438 236.438L296.312 233.312L296.666 232.959L293.541 229.834L293.188 230.188L290.062 227.062L290.416 226.709L287.291 223.584L286.938 223.938L283.812 220.812L284.166 220.459L281.041 217.334L280.688 217.688L277.562 214.562L277.916 214.209L277.207 213.5H277.881V213H281.643V213.5H285.405V213H289.167V213.5H291.548V211.167H291.048V207.5H291.548V203.833H291.048V200.167H291.548V196.5H291.048V192.833H291.548V190.5H289.162V191H285.392V190.5H281.621V191H277.851V190.5H274.08V191H270.309V190.5H266.538V191H262.768V190.5H258.997V191H255.227V190.5H253.341C252.635 190.5 251.941 190.454 251.26 190.363L251.193 190.857C249.745 190.665 248.356 190.28 247.053 189.729L247.248 189.271C245.958 188.726 244.754 188.013 243.663 187.159L243.354 187.551C242.226 186.667 241.214 185.637 240.348 184.489L240.746 184.188C239.914 183.085 239.219 181.87 238.689 180.568L238.228 180.756C237.695 179.448 237.322 178.057 237.136 176.605L237.633 176.542C237.567 176.03 237.526 175.511 237.509 174.985L237.5 174.458V172.299H237V167.979H237.5V163.659H237V159.34H237.5V155.021H237V150.702H237.5V148.542C237.5 147.835 237.545 147.14 237.633 146.458L237.137 146.395L237.136 146.394C237.322 144.943 237.695 143.551 238.228 142.243L238.689 142.432C239.219 141.13 239.914 139.915 240.746 138.812L240.348 138.51C241.214 137.362 242.226 136.332 243.354 135.448L243.663 135.841C244.754 134.987 245.958 134.274 247.247 133.729L247.053 133.27C248.356 132.719 249.745 132.334 251.193 132.142L251.26 132.637C251.941 132.546 252.635 132.5 253.341 132.5H255.229V132H259.006V132.5H262.782V132H266.559V132.5H270.335V132H274.111V132.5H276.5V129.917H276V125.75H276.5V121.583H276V117.417H276.5V113.25H276V109.083H276.5V108.207L277.209 108.916L277.562 108.562L280.688 111.688L280.334 112.041L283.459 115.166L283.812 114.812L286.938 117.938L286.584 118.291L289.709 121.416L290.062 121.062L293.188 124.188L292.834 124.541L295.959 127.666L296.312 127.312L299.438 130.438L299.084 130.791L301 132.707L302.916 130.791L302.562 130.438L305.688 127.312L306.041 127.666L309.166 124.541L308.812 124.188L311.938 121.062L312.291 121.416L315.416 118.291L315.062 117.938L318.188 114.812L318.541 115.166L321.666 112.041L321.312 111.688L324.438 108.562L324.791 108.916L325.5 108.207V109.083Z" stroke="white" stroke-dasharray="4 4"/>
<path d="M312 264H290V290H312V264Z" fill="#F0B43B"/>
<path d="M301 240H276V215L301 240Z" fill="#F0B43B"/>
<path d="M326 240H301L326 215V240Z" fill="#F0B43B"/>
<rect x="276" y="240" width="50" height="24" fill="#F0B43B"/>
<path d="M326 220L301 245L276 220V215L301 240L326 215V220Z" fill="white"/>
<circle opacity="0.01" cx="301" cy="240" r="1" fill="#D9D9D9"/>
<mask id="path-28-outside-2_170_204" maskUnits="userSpaceOnUse" x="290" y="107" width="22" height="10" fill="black">
<rect fill="white" x="290" y="107" width="22" height="10"/>
<path d="M294.505 109.545V110.682H291.22V109.545H294.505ZM291.966 108.239H293.479V113.324C293.479 113.464 293.5 113.572 293.543 113.651C293.585 113.726 293.644 113.78 293.72 113.81C293.798 113.841 293.888 113.857 293.99 113.857C294.061 113.857 294.132 113.851 294.203 113.839C294.274 113.825 294.329 113.814 294.366 113.807L294.604 114.933C294.529 114.956 294.422 114.983 294.285 115.014C294.147 115.047 293.981 115.067 293.784 115.075C293.42 115.089 293.1 115.04 292.825 114.929C292.553 114.818 292.341 114.645 292.19 114.411C292.038 114.176 291.964 113.88 291.966 113.523V108.239ZM295.49 115V109.545H296.957V110.497H297.014C297.113 110.159 297.28 109.903 297.515 109.73C297.749 109.555 298.019 109.467 298.324 109.467C298.4 109.467 298.482 109.472 298.569 109.482C298.657 109.491 298.734 109.504 298.8 109.521V110.863C298.729 110.842 298.631 110.823 298.505 110.806C298.38 110.79 298.265 110.781 298.161 110.781C297.938 110.781 297.739 110.83 297.564 110.927C297.391 111.022 297.254 111.154 297.152 111.325C297.053 111.495 297.003 111.692 297.003 111.914V115H295.49ZM303.08 112.678V109.545H304.593V115H303.14V114.009H303.084C302.961 114.329 302.756 114.586 302.469 114.78C302.185 114.974 301.838 115.071 301.429 115.071C301.064 115.071 300.743 114.988 300.466 114.822C300.189 114.657 299.973 114.421 299.817 114.116C299.663 113.81 299.585 113.445 299.582 113.018V109.545H301.095V112.749C301.097 113.071 301.184 113.325 301.354 113.512C301.525 113.699 301.753 113.793 302.04 113.793C302.222 113.793 302.392 113.751 302.551 113.668C302.71 113.583 302.837 113.458 302.934 113.292C303.034 113.126 303.082 112.921 303.08 112.678ZM308.289 115.107C307.728 115.107 307.245 114.993 306.84 114.766C306.437 114.536 306.127 114.212 305.909 113.793C305.692 113.371 305.583 112.873 305.583 112.298C305.583 111.737 305.692 111.244 305.909 110.82C306.127 110.397 306.434 110.066 306.829 109.83C307.227 109.593 307.693 109.474 308.228 109.474C308.588 109.474 308.923 109.532 309.233 109.648C309.546 109.762 309.818 109.934 310.05 110.163C310.284 110.393 310.467 110.682 310.597 111.03C310.727 111.375 310.792 111.78 310.792 112.244V112.66H306.186V111.722H309.368C309.368 111.504 309.321 111.312 309.226 111.143C309.132 110.975 309 110.844 308.832 110.749C308.666 110.652 308.473 110.604 308.253 110.604C308.024 110.604 307.82 110.657 307.642 110.763C307.467 110.868 307.33 111.009 307.23 111.186C307.131 111.361 307.08 111.557 307.078 111.772V112.663C307.078 112.933 307.127 113.166 307.227 113.363C307.329 113.559 307.472 113.711 307.657 113.817C307.841 113.924 308.06 113.977 308.314 113.977C308.482 113.977 308.636 113.954 308.775 113.906C308.915 113.859 309.034 113.788 309.134 113.693C309.233 113.598 309.309 113.482 309.361 113.345L310.76 113.438C310.689 113.774 310.544 114.067 310.324 114.318C310.106 114.567 309.824 114.761 309.478 114.901C309.135 115.038 308.739 115.107 308.289 115.107Z"/>
</mask>
<path d="M294.505 109.545V110.682H291.22V109.545H294.505ZM291.966 108.239H293.479V113.324C293.479 113.464 293.5 113.572 293.543 113.651C293.585 113.726 293.644 113.78 293.72 113.81C293.798 113.841 293.888 113.857 293.99 113.857C294.061 113.857 294.132 113.851 294.203 113.839C294.274 113.825 294.329 113.814 294.366 113.807L294.604 114.933C294.529 114.956 294.422 114.983 294.285 115.014C294.147 115.047 293.981 115.067 293.784 115.075C293.42 115.089 293.1 115.04 292.825 114.929C292.553 114.818 292.341 114.645 292.19 114.411C292.038 114.176 291.964 113.88 291.966 113.523V108.239ZM295.49 115V109.545H296.957V110.497H297.014C297.113 110.159 297.28 109.903 297.515 109.73C297.749 109.555 298.019 109.467 298.324 109.467C298.4 109.467 298.482 109.472 298.569 109.482C298.657 109.491 298.734 109.504 298.8 109.521V110.863C298.729 110.842 298.631 110.823 298.505 110.806C298.38 110.79 298.265 110.781 298.161 110.781C297.938 110.781 297.739 110.83 297.564 110.927C297.391 111.022 297.254 111.154 297.152 111.325C297.053 111.495 297.003 111.692 297.003 111.914V115H295.49ZM303.08 112.678V109.545H304.593V115H303.14V114.009H303.084C302.961 114.329 302.756 114.586 302.469 114.78C302.185 114.974 301.838 115.071 301.429 115.071C301.064 115.071 300.743 114.988 300.466 114.822C300.189 114.657 299.973 114.421 299.817 114.116C299.663 113.81 299.585 113.445 299.582 113.018V109.545H301.095V112.749C301.097 113.071 301.184 113.325 301.354 113.512C301.525 113.699 301.753 113.793 302.04 113.793C302.222 113.793 302.392 113.751 302.551 113.668C302.71 113.583 302.837 113.458 302.934 113.292C303.034 113.126 303.082 112.921 303.08 112.678ZM308.289 115.107C307.728 115.107 307.245 114.993 306.84 114.766C306.437 114.536 306.127 114.212 305.909 113.793C305.692 113.371 305.583 112.873 305.583 112.298C305.583 111.737 305.692 111.244 305.909 110.82C306.127 110.397 306.434 110.066 306.829 109.83C307.227 109.593 307.693 109.474 308.228 109.474C308.588 109.474 308.923 109.532 309.233 109.648C309.546 109.762 309.818 109.934 310.05 110.163C310.284 110.393 310.467 110.682 310.597 111.03C310.727 111.375 310.792 111.78 310.792 112.244V112.66H306.186V111.722H309.368C309.368 111.504 309.321 111.312 309.226 111.143C309.132 110.975 309 110.844 308.832 110.749C308.666 110.652 308.473 110.604 308.253 110.604C308.024 110.604 307.82 110.657 307.642 110.763C307.467 110.868 307.33 111.009 307.23 111.186C307.131 111.361 307.08 111.557 307.078 111.772V112.663C307.078 112.933 307.127 113.166 307.227 113.363C307.329 113.559 307.472 113.711 307.657 113.817C307.841 113.924 308.06 113.977 308.314 113.977C308.482 113.977 308.636 113.954 308.775 113.906C308.915 113.859 309.034 113.788 309.134 113.693C309.233 113.598 309.309 113.482 309.361 113.345L310.76 113.438C310.689 113.774 310.544 114.067 310.324 114.318C310.106 114.567 309.824 114.761 309.478 114.901C309.135 115.038 308.739 115.107 308.289 115.107Z" fill="white"/>
<path d="M294.505 109.545H295.505V108.545H294.505V109.545ZM294.505 110.682V111.682H295.505V110.682H294.505ZM291.22 110.682H290.22V111.682H291.22V110.682ZM291.22 109.545V108.545H290.22V109.545H291.22ZM291.966 108.239V107.239H290.966V108.239H291.966ZM293.479 108.239H294.479V107.239H293.479V108.239ZM293.543 113.651L292.665 114.129L292.671 114.141L293.543 113.651ZM293.72 113.81L293.344 114.737L293.354 114.741L293.72 113.81ZM294.203 113.839L294.368 114.825L294.383 114.823L294.399 114.819L294.203 113.839ZM294.366 113.807L295.345 113.6L295.143 112.644L294.182 112.824L294.366 113.807ZM294.604 114.933L294.903 115.887L295.771 115.616L295.583 114.726L294.604 114.933ZM294.285 115.014L294.066 114.038L294.058 114.04L294.05 114.042L294.285 115.014ZM293.784 115.075L293.748 114.075L293.745 114.075L293.784 115.075ZM292.825 114.929L292.447 115.855L292.45 115.856L292.825 114.929ZM292.19 114.411L293.029 113.868L293.029 113.868L292.19 114.411ZM291.966 113.523L292.966 113.529V113.523H291.966ZM294.505 109.545H293.505V110.682H294.505H295.505V109.545H294.505ZM294.505 110.682V109.682H291.22V110.682V111.682H294.505V110.682ZM291.22 110.682H292.22V109.545H291.22H290.22V110.682H291.22ZM291.22 109.545V110.545H294.505V109.545V108.545H291.22V109.545ZM291.966 108.239V109.239H293.479V108.239V107.239H291.966V108.239ZM293.479 108.239H292.479V113.324H293.479H294.479V108.239H293.479ZM293.479 113.324H292.479C292.479 113.545 292.509 113.844 292.665 114.129L293.543 113.651L294.421 113.172C294.459 113.241 294.472 113.296 294.476 113.318C294.48 113.341 294.479 113.345 294.479 113.324H293.479ZM293.543 113.651L292.671 114.141C292.817 114.4 293.045 114.615 293.344 114.737L293.72 113.81L294.097 112.884C294.163 112.911 294.229 112.951 294.288 113.004C294.346 113.057 294.387 113.112 294.414 113.16L293.543 113.651ZM293.72 113.81L293.354 114.741C293.57 114.826 293.789 114.857 293.99 114.857V113.857V112.857C293.988 112.857 294.026 112.856 294.087 112.88L293.72 113.81ZM293.99 113.857V114.857C294.117 114.857 294.243 114.846 294.368 114.825L294.203 113.839L294.039 112.852C294.021 112.855 294.005 112.857 293.99 112.857V113.857ZM294.203 113.839L294.399 114.819C294.469 114.805 294.519 114.796 294.551 114.79L294.366 113.807L294.182 112.824C294.138 112.832 294.079 112.844 294.007 112.858L294.203 113.839ZM294.366 113.807L293.388 114.014L293.626 115.139L294.604 114.933L295.583 114.726L295.345 113.6L294.366 113.807ZM294.604 114.933L294.306 113.978C294.269 113.99 294.194 114.01 294.066 114.038L294.285 115.014L294.504 115.99C294.651 115.957 294.788 115.923 294.903 115.887L294.604 114.933ZM294.285 115.014L294.05 114.042C293.998 114.055 293.901 114.07 293.748 114.075L293.784 115.075L293.82 116.074C294.06 116.065 294.297 116.04 294.519 115.986L294.285 115.014ZM293.784 115.075L293.745 114.075C293.49 114.085 293.317 114.049 293.201 114.002L292.825 114.929L292.45 115.856C292.883 116.031 293.349 116.092 293.823 116.074L293.784 115.075ZM292.825 114.929L293.204 114.003C293.11 113.965 293.064 113.921 293.029 113.868L292.19 114.411L291.35 114.953C291.619 115.369 291.996 115.67 292.447 115.855L292.825 114.929ZM292.19 114.411L293.029 113.868C293.01 113.837 292.964 113.746 292.966 113.529L291.966 113.523L290.966 113.516C290.963 114.014 291.066 114.515 291.35 114.953L292.19 114.411ZM291.966 113.523H292.966V108.239H291.966H290.966V113.523H291.966ZM295.49 115H294.49V116H295.49V115ZM295.49 109.545V108.545H294.49V109.545H295.49ZM296.957 109.545H297.957V108.545H296.957V109.545ZM296.957 110.497H295.957V111.497H296.957V110.497ZM297.014 110.497V111.497H297.762L297.973 110.779L297.014 110.497ZM297.515 109.73L298.108 110.535L298.113 110.531L297.515 109.73ZM298.569 109.482L298.677 108.487L298.677 108.487L298.569 109.482ZM298.8 109.521H299.8V108.74L299.043 108.55L298.8 109.521ZM298.8 110.863L298.513 111.821L299.8 112.207V110.863H298.8ZM297.564 110.927L298.045 111.804L298.049 111.802L297.564 110.927ZM297.152 111.325L296.294 110.812L296.289 110.821L297.152 111.325ZM297.003 115V116H298.003V115H297.003ZM295.49 115H296.49V109.545H295.49H294.49V115H295.49ZM295.49 109.545V110.545H296.957V109.545V108.545H295.49V109.545ZM296.957 109.545H295.957V110.497H296.957H297.957V109.545H296.957ZM296.957 110.497V111.497H297.014V110.497V109.497H296.957V110.497ZM297.014 110.497L297.973 110.779C298.025 110.605 298.084 110.552 298.108 110.535L297.515 109.73L296.921 108.925C296.476 109.253 296.202 109.713 296.054 110.215L297.014 110.497ZM297.515 109.73L298.113 110.531C298.167 110.491 298.225 110.467 298.324 110.467V109.467V108.467C297.813 108.467 297.331 108.619 296.916 108.929L297.515 109.73ZM298.324 109.467V110.467C298.359 110.467 298.404 110.47 298.462 110.476L298.569 109.482L298.677 108.487C298.559 108.475 298.441 108.467 298.324 108.467V109.467ZM298.569 109.482L298.462 110.476C298.516 110.482 298.546 110.488 298.558 110.491L298.8 109.521L299.043 108.55C298.921 108.52 298.798 108.5 298.677 108.487L298.569 109.482ZM298.8 109.521H297.8V110.863H298.8H299.8V109.521H298.8ZM298.8 110.863L299.087 109.905C298.942 109.861 298.783 109.834 298.636 109.815L298.505 110.806L298.374 111.797C298.422 111.804 298.458 111.81 298.484 111.815C298.51 111.82 298.518 111.822 298.513 111.821L298.8 110.863ZM298.505 110.806L298.636 109.815C298.476 109.794 298.317 109.781 298.161 109.781V110.781V111.781C298.213 111.781 298.283 111.785 298.374 111.797L298.505 110.806ZM298.161 110.781V109.781C297.788 109.781 297.419 109.864 297.08 110.052L297.564 110.927L298.049 111.802C298.06 111.796 298.089 111.781 298.161 111.781V110.781ZM297.564 110.927L297.084 110.05C296.754 110.231 296.486 110.49 296.294 110.812L297.152 111.325L298.011 111.837C298.022 111.819 298.029 111.812 298.045 111.804L297.564 110.927ZM297.152 111.325L296.289 110.821C296.089 111.163 296.003 111.538 296.003 111.914H297.003H298.003C298.003 111.878 298.007 111.856 298.01 111.845C298.012 111.835 298.015 111.831 298.016 111.828L297.152 111.325ZM297.003 111.914H296.003V115H297.003H298.003V111.914H297.003ZM297.003 115V114H295.49V115V116H297.003V115ZM303.08 112.678H302.08L302.08 112.687L303.08 112.678ZM303.08 109.545V108.545H302.08V109.545H303.08ZM304.593 109.545H305.593V108.545H304.593V109.545ZM304.593 115V116H305.593V115H304.593ZM303.14 115H302.14V116H303.14V115ZM303.14 114.009H304.14V113.009H303.14V114.009ZM303.084 114.009V113.009H302.397L302.15 113.65L303.084 114.009ZM302.469 114.78L301.908 113.952L301.905 113.954L302.469 114.78ZM300.466 114.822L300.98 113.964L300.98 113.964L300.466 114.822ZM299.817 114.116L298.924 114.566L298.926 114.571L299.817 114.116ZM299.582 113.018H298.582L298.582 113.024L299.582 113.018ZM299.582 109.545V108.545H298.582V109.545H299.582ZM301.095 109.545H302.095V108.545H301.095V109.545ZM301.095 112.749L300.095 112.749L300.095 112.756L301.095 112.749ZM301.354 113.512L302.093 112.838L302.093 112.838L301.354 113.512ZM302.551 113.668L303.014 114.555L303.024 114.549L302.551 113.668ZM302.934 113.292L302.077 112.777L302.072 112.787L302.934 113.292ZM303.08 112.678H304.08V109.545H303.08H302.08V112.678H303.08ZM303.08 109.545V110.545H304.593V109.545V108.545H303.08V109.545ZM304.593 109.545H303.593V115H304.593H305.593V109.545H304.593ZM304.593 115V114H303.14V115V116H304.593V115ZM303.14 115H304.14V114.009H303.14H302.14V115H303.14ZM303.14 114.009V113.009H303.084V114.009V115.009H303.14V114.009ZM303.084 114.009L302.15 113.65C302.102 113.777 302.028 113.871 301.908 113.952L302.469 114.78L303.03 115.608C303.484 115.3 303.82 114.881 304.017 114.369L303.084 114.009ZM302.469 114.78L301.905 113.954C301.817 114.015 301.676 114.071 301.429 114.071V115.071V116.071C302.001 116.071 302.554 115.933 303.033 115.605L302.469 114.78ZM301.429 115.071V114.071C301.221 114.071 301.082 114.026 300.98 113.964L300.466 114.822L299.953 115.681C300.405 115.951 300.907 116.071 301.429 116.071V115.071ZM300.466 114.822L300.98 113.964C300.874 113.901 300.783 113.81 300.707 113.66L299.817 114.116L298.926 114.571C299.162 115.033 299.505 115.412 299.953 115.681L300.466 114.822ZM299.817 114.116L300.71 113.666C300.64 113.528 300.584 113.322 300.582 113.013L299.582 113.018L298.582 113.024C298.585 113.567 298.685 114.093 298.924 114.566L299.817 114.116ZM299.582 113.018H300.582V109.545H299.582H298.582V113.018H299.582ZM299.582 109.545V110.545H301.095V109.545V108.545H299.582V109.545ZM301.095 109.545H300.095V112.749H301.095H302.095V109.545H301.095ZM301.095 112.749L300.095 112.756C300.099 113.255 300.237 113.771 300.615 114.186L301.354 113.512L302.093 112.838C302.099 112.845 302.103 112.851 302.107 112.856C302.11 112.862 302.11 112.863 302.108 112.859C302.106 112.851 302.096 112.816 302.095 112.741L301.095 112.749ZM301.354 113.512L300.615 114.186C301.001 114.609 301.513 114.793 302.04 114.793V113.793V112.793C302.006 112.793 302.009 112.787 302.032 112.797C302.044 112.802 302.056 112.808 302.068 112.817C302.08 112.825 302.089 112.833 302.093 112.838L301.354 113.512ZM302.04 113.793V114.793C302.38 114.793 302.71 114.714 303.014 114.555L302.551 113.668L302.088 112.782C302.075 112.789 302.064 112.793 302.04 112.793V113.793ZM302.551 113.668L303.024 114.549C303.356 114.371 303.614 114.111 303.797 113.797L302.934 113.292L302.072 112.787C302.068 112.793 302.065 112.796 302.064 112.797C302.064 112.799 302.064 112.798 302.065 112.797C302.067 112.795 302.069 112.793 302.072 112.791C302.074 112.789 302.076 112.788 302.078 112.787L302.551 113.668ZM302.934 113.292L303.792 113.806C304.008 113.446 304.084 113.048 304.08 112.668L303.08 112.678L302.08 112.687C302.081 112.794 302.06 112.806 302.077 112.777L302.934 113.292ZM306.84 114.766L306.344 115.634L306.35 115.638L306.84 114.766ZM305.909 113.793L305.021 114.252L305.022 114.254L305.909 113.793ZM305.909 110.82L305.02 110.363L305.02 110.363L305.909 110.82ZM306.829 109.83L306.318 108.97L306.315 108.972L306.829 109.83ZM309.233 109.648L308.883 110.585L308.892 110.588L309.233 109.648ZM310.05 110.163L309.347 110.874L309.35 110.878L310.05 110.163ZM310.597 111.03L309.66 111.38L309.661 111.382L310.597 111.03ZM310.792 112.66V113.66H311.792V112.66H310.792ZM306.186 112.66H305.186V113.66H306.186V112.66ZM306.186 111.722V110.722H305.186V111.722H306.186ZM309.368 111.722V112.722H310.368V111.722H309.368ZM309.226 111.143L308.355 111.634L308.355 111.634L309.226 111.143ZM308.832 110.749L308.327 111.612L308.334 111.616L308.341 111.621L308.832 110.749ZM307.642 110.763L308.153 111.623L308.157 111.621L307.642 110.763ZM307.23 111.186L308.1 111.68L308.103 111.675L307.23 111.186ZM307.078 111.772L306.078 111.761V111.772H307.078ZM307.227 113.363L306.335 113.814L306.339 113.823L307.227 113.363ZM308.775 113.906L308.454 112.959L308.454 112.959L308.775 113.906ZM309.134 113.693L308.444 112.969L308.444 112.969L309.134 113.693ZM309.361 113.345L309.427 112.347L308.689 112.299L308.426 112.991L309.361 113.345ZM310.76 113.438L311.739 113.644L311.977 112.516L310.826 112.44L310.76 113.438ZM310.324 114.318L309.572 113.659L309.571 113.659L310.324 114.318ZM309.478 114.901L309.85 115.829L309.853 115.828L309.478 114.901ZM308.289 115.107V114.107C307.863 114.107 307.556 114.021 307.329 113.894L306.84 114.766L306.35 115.638C306.933 115.965 307.592 116.107 308.289 116.107V115.107ZM306.84 114.766L307.335 113.897C307.103 113.765 306.928 113.583 306.797 113.331L305.909 113.793L305.022 114.254C305.327 114.84 305.771 115.307 306.344 115.634L306.84 114.766ZM305.909 113.793L306.798 113.333C306.667 113.081 306.583 112.747 306.583 112.298H305.583H304.583C304.583 112.999 304.716 113.661 305.021 114.252L305.909 113.793ZM305.583 112.298H306.583C306.583 111.867 306.666 111.537 306.799 111.277L305.909 110.82L305.02 110.363C304.718 110.951 304.583 111.606 304.583 112.298H305.583ZM305.909 110.82L306.799 111.277C306.934 111.014 307.113 110.825 307.343 110.687L306.829 109.83L306.315 108.972C305.754 109.308 305.32 109.779 305.02 110.363L305.909 110.82ZM306.829 109.83L307.341 110.689C307.561 110.558 307.845 110.474 308.228 110.474V109.474V108.474C307.542 108.474 306.893 108.628 306.318 108.97L306.829 109.83ZM308.228 109.474V110.474C308.479 110.474 308.694 110.514 308.883 110.585L309.233 109.648L309.584 108.712C309.152 108.55 308.697 108.474 308.228 108.474V109.474ZM309.233 109.648L308.892 110.588C309.071 110.653 309.219 110.748 309.347 110.874L310.05 110.163L310.754 109.453C310.417 109.119 310.021 108.871 309.575 108.709L309.233 109.648ZM310.05 110.163L309.35 110.878C309.467 110.992 309.575 111.151 309.66 111.38L310.597 111.03L311.534 110.679C311.359 110.212 311.102 109.794 310.75 109.449L310.05 110.163ZM310.597 111.03L309.661 111.382C309.74 111.591 309.792 111.871 309.792 112.244H310.792H311.792C311.792 111.69 311.715 111.16 311.533 110.677L310.597 111.03ZM310.792 112.244H309.792V112.66H310.792H311.792V112.244H310.792ZM310.792 112.66V111.66H306.186V112.66V113.66H310.792V112.66ZM306.186 112.66H307.186V111.722H306.186H305.186V112.66H306.186ZM306.186 111.722V112.722H309.368V111.722V110.722H306.186V111.722ZM309.368 111.722H310.368C310.368 111.355 310.287 110.989 310.097 110.653L309.226 111.143L308.355 111.634C308.356 111.637 308.359 111.642 308.362 111.653C308.364 111.664 308.368 111.686 308.368 111.722H309.368ZM309.226 111.143L310.097 110.653C309.913 110.325 309.65 110.062 309.323 109.878L308.832 110.749L308.341 111.621C308.345 111.623 308.348 111.625 308.349 111.625C308.35 111.626 308.35 111.626 308.35 111.626C308.349 111.626 308.35 111.626 308.35 111.627C308.351 111.628 308.353 111.63 308.355 111.634L309.226 111.143ZM308.832 110.749L309.337 109.886C308.997 109.687 308.625 109.604 308.253 109.604V110.604V111.604C308.29 111.604 308.31 111.608 308.319 111.61C308.327 111.612 308.328 111.613 308.327 111.612L308.832 110.749ZM308.253 110.604V109.604C307.863 109.604 307.477 109.696 307.128 109.906L307.642 110.763L308.157 111.621C308.162 111.618 308.184 111.604 308.253 111.604V110.604ZM307.642 110.763L307.131 109.904C306.805 110.098 306.543 110.366 306.358 110.697L307.23 111.186L308.103 111.675C308.116 111.651 308.129 111.638 308.153 111.623L307.642 110.763ZM307.23 111.186L306.361 110.692C306.172 111.025 306.082 111.388 306.078 111.761L307.078 111.772L308.078 111.783C308.078 111.725 308.09 111.697 308.1 111.68L307.23 111.186ZM307.078 111.772H306.078V112.663H307.078H308.078V111.772H307.078ZM307.078 112.663H306.078C306.078 113.055 306.15 113.45 306.335 113.814L307.227 113.363L308.119 112.911C308.105 112.883 308.078 112.811 308.078 112.663H307.078ZM307.227 113.363L306.339 113.823C306.525 114.182 306.8 114.478 307.157 114.684L307.657 113.817L308.156 112.951C308.144 112.944 308.132 112.937 308.115 112.903L307.227 113.363ZM307.657 113.817L307.157 114.684C307.52 114.893 307.918 114.977 308.314 114.977V113.977V112.977C308.203 112.977 308.163 112.955 308.156 112.951L307.657 113.817ZM308.314 113.977V114.977C308.576 114.977 308.84 114.94 309.096 114.853L308.775 113.906L308.454 112.959C308.431 112.967 308.387 112.977 308.314 112.977V113.977ZM308.775 113.906L309.096 114.853C309.363 114.763 309.611 114.62 309.824 114.417L309.134 113.693L308.444 112.969C308.45 112.964 308.455 112.96 308.459 112.958C308.463 112.956 308.462 112.957 308.454 112.959L308.775 113.906ZM309.134 113.693L309.824 114.417C310.039 114.212 310.195 113.967 310.296 113.7L309.361 113.345L308.426 112.991C308.424 112.996 308.424 112.994 308.428 112.988C308.432 112.982 308.438 112.975 308.444 112.969L309.134 113.693ZM309.361 113.345L309.295 114.343L310.694 114.435L310.76 113.438L310.826 112.44L309.427 112.347L309.361 113.345ZM310.76 113.438L309.782 113.231C309.745 113.404 309.675 113.541 309.572 113.659L310.324 114.318L311.075 114.978C311.412 114.594 311.633 114.143 311.739 113.644L310.76 113.438ZM310.324 114.318L309.571 113.659C309.469 113.776 309.323 113.885 309.104 113.973L309.478 114.901L309.853 115.828C310.325 115.637 310.742 115.358 311.076 114.977L310.324 114.318ZM309.478 114.901L309.107 113.972C308.904 114.053 308.638 114.107 308.289 114.107V115.107V116.107C308.839 116.107 309.366 116.023 309.85 115.829L309.478 114.901Z" fill="#059A26" mask="url(#path-28-outside-2_170_204)"/>
<path d="M184 290H162V132H184V290Z" fill="#F0B43B"/>
<path d="M174 108L149 133H199L174 108Z" fill="#A87C2D"/>
<path d="M174 113L154 133H194L174 113Z" fill="#A87C2D"/>
<path d="M174 113L154 133H194L174 113Z" fill="#F0B43B"/>
<path d="M174 117L158 133H190L174 117Z" fill="#F0B43B"/>
</svg>
