<svg width="289" height="207" viewBox="0 0 289 207" fill="none" xmlns="http://www.w3.org/2000/svg">
<g id="repeat_loop_ender_1">
<g id="loop_back_bottom">
<path id="true_connector_vert" d="M269 156H247V182H269V156Z" fill="#F0B43B"/>
<g id="loop_ender_connector">
<g id="capTop">
<path d="M258 132H233V107L258 132Z" fill="#F0B43B"/>
<path d="M283 132H258L283 107V132Z" fill="#F0B43B"/>
</g>
<rect id="Rectangle 2" x="233" y="132" width="50" height="24" fill="#F0B43B"/>
<path id="stripe" d="M283 112L258 137L233 112V107L258 132L283 107V112Z" fill="white"/>
<circle id="anchor:false-in" opacity="0.01" cx="258" cy="132" r="1" fill="#D9D9D9"/>
</g>
<path id="Vector" d="M13 182V204H269V182H13Z" fill="#F0B43B"/>
</g>
<g id="loop_back_arrow">
<path id="loop_back_arrowbody" d="M35 182H13V24H35V182Z" fill="#F0B43B"/>
<g id="border">
<path d="M25.0001 0L0 25L50 25L25.0001 0Z" fill="#A87C2D"/>
<path d="M25.0001 5L5 25L45 25L25.0001 5Z" fill="#A87C2D"/>
</g>
<g id="tip">
<path d="M25.0001 5L5 25L45 25L25.0001 5Z" fill="#F0B43B"/>
<path d="M25.0001 9L9 25L41 25L25.0001 9Z" fill="#F0B43B"/>
</g>
</g>
</g>
</svg>
