<svg width="456" height="405" viewBox="0 0 456 405" fill="none" xmlns="http://www.w3.org/2000/svg">
<g id="repeat_times">
<g id="block_shape">
<g id="true_block_arrow">
<path id="true_block_arrowhead" d="M395.548 153.5L421.096 119H370L395.548 153.5Z" fill="#F0B43B"/>
<path id="true_block_arrowbody_vert" d="M407 52H385V119H407V52Z" fill="#F0B43B"/>
<path id="true_block_arrowbody_hor" d="M227 52V74L405 74V52L227 52Z" fill="#F0B43B"/>
<g id="true_text">
<path id="Vector" d="M316.674 59.8693C317.16 59.8693 317.622 59.9477 318.055 60.1096L318.054 60.1105C318.493 60.2709 318.881 60.5134 319.21 60.8391L319.333 60.968C319.612 61.2762 319.828 61.6426 319.985 62.0598L320.048 62.2443C320.186 62.6812 320.25 63.1668 320.25 63.6935V64.6594L320.321 64.6642L320.201 65.2287C320.099 65.713 319.886 66.1426 319.564 66.5099L319.565 66.5109C319.246 66.8751 318.839 67.1508 318.362 67.3439L318.36 67.3449C317.877 67.5378 317.336 67.6281 316.746 67.6281C316.005 67.6281 315.338 67.4771 314.763 67.1545L314.76 67.1535C314.192 66.8293 313.752 66.3679 313.448 65.7814V65.7805C313.143 65.1903 312.999 64.5104 312.999 63.757C312.999 63.0184 313.143 62.3467 313.447 61.756C313.749 61.1675 314.181 60.7001 314.739 60.3664L314.74 60.3654C315.305 60.0286 315.956 59.8693 316.674 59.8693ZM315.916 64.8058L315.981 64.9133C316.051 65.0129 316.136 65.089 316.238 65.1476C316.37 65.2241 316.544 65.2726 316.777 65.2726C316.931 65.2726 317.061 65.2511 317.17 65.2141C317.274 65.1788 317.353 65.1293 317.416 65.0695C317.477 65.0111 317.528 64.9365 317.566 64.8371L317.621 64.6916H315.868C315.883 64.7323 315.899 64.7704 315.916 64.8058ZM316.703 62.2248C316.509 62.2249 316.355 62.2687 316.228 62.3449L316.227 62.3459C316.127 62.405 316.045 62.4779 315.979 62.5666H317.403C317.338 62.4699 317.257 62.3938 317.153 62.3351L317.146 62.3303C317.034 62.265 316.892 62.2248 316.703 62.2248Z" fill="white" stroke="#0B9F00"/>
<path id="Vector_2" d="M308.614 59.9545V64.2944L308.629 64.4955C308.656 64.6756 308.719 64.7945 308.795 64.8774C308.892 64.9836 309.024 65.0512 309.248 65.0512C309.387 65.0512 309.512 65.0198 309.63 64.9584C309.731 64.9027 309.817 64.8205 309.889 64.6977L309.892 64.6928C309.953 64.5914 309.998 64.4423 309.996 64.2182V59.9545H312.811V67.5004H310.068V67.1313C310.06 67.1367 310.053 67.1425 310.045 67.1479C309.606 67.4477 309.087 67.5854 308.514 67.5854C307.999 67.5854 307.523 67.4672 307.103 67.2162C306.685 66.9662 306.362 66.6109 306.135 66.1664L306.134 66.1635C305.907 65.7133 305.802 65.1944 305.799 64.6245V59.9545H308.614Z" fill="white" stroke="#0B9F00"/>
<path id="Vector_3" d="M305.86 62.7075L305.217 62.5141C305.169 62.4997 305.081 62.4818 304.941 62.4633C304.808 62.4457 304.692 62.4379 304.593 62.4379C304.401 62.438 304.247 62.4783 304.119 62.5493L304.117 62.5502C303.988 62.6207 303.889 62.7175 303.812 62.8461C303.745 62.964 303.704 63.1097 303.704 63.2973V67.5004H300.888V59.9545H303.648V60.187C303.989 59.9693 304.373 59.8608 304.789 59.8608C304.9 59.8608 305.016 59.8673 305.137 59.8803C305.258 59.8935 305.374 59.9131 305.481 59.9399L305.86 60.0346V62.7075Z" fill="white" stroke="#0B9F00"/>
<path id="Vector_4" d="M299.474 58.3864V59.9547H300.706V62.318H299.474V64.9889C299.474 65.0477 299.478 65.089 299.483 65.1158C299.508 65.1215 299.543 65.1276 299.588 65.1276C299.646 65.1275 299.703 65.1226 299.761 65.1129C299.84 65.0973 299.902 65.0853 299.948 65.0768L300.428 64.9869L300.529 65.4645L300.814 66.816L300.909 67.2604L300.474 67.3961C300.365 67.4301 300.225 67.4652 300.058 67.5026C299.851 67.5525 299.616 67.5792 299.359 67.5885L299.36 67.5895C298.868 67.6086 298.411 67.544 298.002 67.3785L298.002 67.3776C297.586 67.2076 297.248 66.936 297.007 66.5641C296.76 66.1809 296.655 65.7233 296.659 65.2242V62.318H295.764V59.9547H296.659V58.3864H299.474Z" fill="white" stroke="#0B9F00"/>
</g>
</g>
<g id="false_block_arrow">
<path id="false_block_arrowbody" d="M125 93H103V370H125V93Z" fill="#F0B43B"/>
<path id="false_block_arrowhead" d="M114.548 404.5L140.096 370H89L114.548 404.5Z" fill="#F0B43B"/>
<g id="false_text">
<path id="Vector_5" d="M125.794 375.006C126.28 375.006 126.742 375.084 127.175 375.246L127.174 375.247C127.613 375.407 128 375.65 128.33 375.975L128.453 376.104C128.732 376.413 128.948 376.779 129.104 377.196L129.168 377.381C129.306 377.818 129.37 378.303 129.37 378.83V379.796L129.44 379.801L129.321 380.365C129.219 380.849 129.005 381.279 128.683 381.646L128.684 381.647C128.365 382.011 127.959 382.287 127.481 382.48L127.479 382.481C126.997 382.674 126.456 382.764 125.866 382.764C125.125 382.764 124.457 382.613 123.883 382.291L123.88 382.29C123.312 381.966 122.872 381.504 122.567 380.918V380.917C122.262 380.327 122.119 379.647 122.119 378.893C122.119 378.155 122.263 377.483 122.566 376.892C122.869 376.304 123.301 375.836 123.858 375.503L123.859 375.502C124.425 375.165 125.076 375.006 125.794 375.006ZM125.036 379.942L125.1 380.05C125.17 380.149 125.256 380.225 125.357 380.284C125.49 380.36 125.663 380.409 125.896 380.409C126.051 380.409 126.181 380.387 126.29 380.35C126.394 380.315 126.473 380.266 126.536 380.206C126.597 380.147 126.648 380.073 126.685 379.973L126.741 379.828H124.988C125.002 379.869 125.018 379.907 125.036 379.942ZM125.823 377.361C125.628 377.361 125.474 377.405 125.347 377.481L125.347 377.482C125.247 377.541 125.165 377.614 125.098 377.703H126.522C126.458 377.606 126.376 377.53 126.272 377.471L126.265 377.467C126.154 377.401 126.012 377.361 125.823 377.361Z" fill="white" stroke="#C50000"/>
<path id="Vector_6" d="M118.804 375.006C119.696 375.006 120.464 375.193 121.052 375.627H121.051C121.642 376.059 121.99 376.659 122.087 377.392L122.157 377.924L121.622 377.957L120.588 378.019C120.992 378.159 121.339 378.348 121.611 378.599C122.037 378.994 122.24 379.514 122.24 380.108C122.24 380.642 122.079 381.127 121.756 381.542L121.757 381.543C121.445 381.946 121.026 382.248 120.521 382.458H120.52C120.014 382.666 119.445 382.764 118.825 382.764C117.894 382.764 117.092 382.571 116.467 382.133L116.465 382.131C115.84 381.687 115.467 381.069 115.36 380.309L115.284 379.769L115.829 379.741L117.046 379.677C116.69 379.535 116.383 379.347 116.139 379.1L116.137 379.098C115.726 378.679 115.53 378.147 115.53 377.543C115.53 377.027 115.672 376.557 115.97 376.157L115.972 376.154C116.266 375.766 116.669 375.481 117.154 375.288H117.155C117.643 375.095 118.197 375.006 118.804 375.006ZM118.131 380.047C118.16 380.191 118.22 380.274 118.307 380.334L118.397 380.382C118.499 380.426 118.638 380.456 118.83 380.456C119.086 380.456 119.239 380.406 119.327 380.351C119.375 380.321 119.391 380.3 119.393 380.296V380.294C119.391 380.291 119.387 380.287 119.381 380.282L119.376 380.278C119.341 380.251 119.265 380.209 119.123 380.169L118.958 380.13L118.113 379.961L118.131 380.047ZM118.834 377.293C118.623 377.293 118.483 377.337 118.385 377.397L118.381 377.4C118.351 377.418 118.338 377.431 118.333 377.436V377.444C118.335 377.447 118.339 377.451 118.346 377.458C118.373 377.481 118.484 377.546 118.761 377.606L119.456 377.746L119.439 377.658C119.427 377.598 119.402 377.545 119.36 377.494L119.356 377.49C119.318 377.443 119.261 377.396 119.172 377.356L119.162 377.351C119.093 377.319 118.989 377.293 118.834 377.293Z" fill="white" stroke="#C50000"/>
<path id="Vector_7" d="M115.191 372.909V382.637H112.375V372.909H115.191Z" fill="white" stroke="#C50000"/>
<path id="Vector_8" d="M108.689 375.006C109.092 375.006 109.481 375.053 109.857 375.149L109.856 375.15C110.242 375.248 110.593 375.402 110.904 375.617H110.905C111.233 375.841 111.493 376.132 111.681 376.482C111.879 376.849 111.967 377.268 111.967 377.721V382.637H109.245V382.399C109.108 382.479 108.961 382.548 108.805 382.603L108.8 382.605V382.604C108.49 382.711 108.147 382.76 107.78 382.76C107.305 382.76 106.862 382.677 106.462 382.5L106.458 382.498C106.05 382.313 105.716 382.035 105.472 381.667L105.469 381.662C105.218 381.273 105.108 380.812 105.108 380.308C105.108 379.886 105.185 379.493 105.368 379.154C105.54 378.836 105.778 378.574 106.079 378.377C106.304 378.23 106.549 378.115 106.813 378.029L105.797 377.947L105.23 377.901L105.349 377.345C105.45 376.87 105.654 376.448 105.962 376.091C106.27 375.731 106.662 375.462 107.124 375.279V375.28C107.592 375.093 108.117 375.006 108.689 375.006ZM108.816 379.843L108.805 379.845C108.684 379.861 108.573 379.876 108.475 379.89C108.295 379.917 108.153 379.957 108.042 380.005C107.948 380.045 107.9 380.089 107.873 380.124L107.869 380.129C107.861 380.139 107.842 380.168 107.842 380.249C107.842 380.351 107.868 380.383 107.9 380.407C107.978 380.462 108.101 380.507 108.301 380.507C108.498 380.507 108.651 380.469 108.774 380.407C108.907 380.337 109.002 380.249 109.069 380.145C109.13 380.049 109.164 379.938 109.164 379.797V379.782C109.048 379.803 108.932 379.824 108.816 379.843ZM108.68 377.331C108.424 377.331 108.281 377.388 108.2 377.448L108.196 377.451C108.086 377.532 108.027 377.622 107.997 377.724L107.975 377.8L108.019 377.795C108.392 377.756 108.689 377.72 108.911 377.687C109.009 377.672 109.082 377.655 109.136 377.638C109.14 377.636 109.144 377.634 109.148 377.633C109.14 377.511 109.104 377.461 109.069 377.43L109.066 377.428C109.019 377.387 108.915 377.331 108.68 377.331Z" fill="white" stroke="#C50000"/>
<path id="Vector_9" d="M104.072 372.5C104.376 372.5 104.662 372.523 104.927 372.572L104.926 372.573C105.162 372.617 105.358 372.658 105.499 372.7L105.95 372.836L105.842 373.295L105.518 374.658L105.415 375.091H105.54V377.454H104.235V382.637H101.425V377.454H100.5V375.091H101.426C101.429 374.564 101.534 374.086 101.771 373.684L101.772 373.681H101.773C102.01 373.286 102.339 372.983 102.752 372.784C103.153 372.591 103.596 372.5 104.072 372.5ZM104.452 374.949C104.355 374.949 104.299 374.961 104.271 374.97L104.269 374.971C104.26 374.984 104.245 375.018 104.239 375.091H105.104L104.879 375.019C104.834 375.004 104.767 374.987 104.674 374.97H104.672C104.602 374.956 104.529 374.949 104.452 374.949Z" fill="white" stroke="#C50000"/>
</g>
</g>
<g id="main_body">
<g id="prev_block_connector">
<path id="Vector_10" d="M113.5 34H88V0H88.3223L113.5 34Z" fill="#F0B43B"/>
<path id="Vector_11" d="M139 34H113.5L138.678 0H139V34Z" fill="#F0B43B"/>
</g>
<path id="block_body" d="M0 34H228V93H0V34Z" fill="#F0B43B"/>
</g>
</g>
<g id="block_input">
<path id="times" d="M142.206 59.4545V60.8182H138.264V59.4545H142.206ZM139.159 57.8864H140.974V63.9886C140.974 64.1562 141 64.2869 141.051 64.3807C141.102 64.4716 141.173 64.5355 141.264 64.5724C141.358 64.6094 141.466 64.6278 141.588 64.6278C141.673 64.6278 141.759 64.6207 141.844 64.6065C141.929 64.5895 141.994 64.5767 142.04 64.5682L142.325 65.919C142.234 65.9474 142.107 65.9801 141.942 66.017C141.777 66.0568 141.577 66.081 141.341 66.0895C140.903 66.1065 140.52 66.0483 140.19 65.9148C139.864 65.7812 139.609 65.5739 139.428 65.2926C139.246 65.0114 139.156 64.6562 139.159 64.2273V57.8864ZM143.388 66V59.4545H145.204V66H143.388ZM144.3 58.6108C144.031 58.6108 143.799 58.5213 143.606 58.3423C143.415 58.1605 143.32 57.9432 143.32 57.6903C143.32 57.4403 143.415 57.2259 143.606 57.0469C143.799 56.8651 144.031 56.7741 144.3 56.7741C144.57 56.7741 144.8 56.8651 144.991 57.0469C145.184 57.2259 145.281 57.4403 145.281 57.6903C145.281 57.9432 145.184 58.1605 144.991 58.3423C144.8 58.5213 144.57 58.6108 144.3 58.6108ZM146.658 66V59.4545H148.388V60.6094H148.465C148.601 60.2259 148.828 59.9233 149.147 59.7017C149.465 59.4801 149.846 59.3693 150.289 59.3693C150.738 59.3693 151.12 59.4815 151.435 59.706C151.75 59.9276 151.961 60.2287 152.066 60.6094H152.134C152.267 60.2344 152.509 59.9347 152.858 59.7102C153.211 59.483 153.627 59.3693 154.107 59.3693C154.718 59.3693 155.213 59.5639 155.594 59.9531C155.978 60.3395 156.169 60.8878 156.169 61.598V66H154.358V61.956C154.358 61.5923 154.262 61.3196 154.069 61.1378C153.875 60.956 153.634 60.8651 153.344 60.8651C153.015 60.8651 152.757 60.9702 152.573 61.1804C152.388 61.3878 152.296 61.6619 152.296 62.0028V66H150.536V61.9176C150.536 61.5966 150.444 61.3409 150.259 61.1506C150.077 60.9602 149.837 60.8651 149.539 60.8651C149.337 60.8651 149.155 60.9162 148.993 61.0185C148.834 61.1179 148.708 61.2585 148.614 61.4403C148.52 61.6193 148.473 61.8295 148.473 62.071V66H146.658ZM160.586 66.1278C159.913 66.1278 159.333 65.9915 158.848 65.7188C158.365 65.4432 157.993 65.054 157.731 64.5511C157.47 64.0455 157.339 63.4474 157.339 62.7571C157.339 62.0838 157.47 61.4929 157.731 60.9844C157.993 60.4759 158.36 60.0795 158.835 59.7955C159.312 59.5114 159.872 59.3693 160.514 59.3693C160.946 59.3693 161.348 59.4389 161.72 59.5781C162.095 59.7145 162.422 59.9205 162.7 60.196C162.981 60.4716 163.2 60.8182 163.356 61.2358C163.512 61.6506 163.591 62.1364 163.591 62.6932V63.1918H158.064V62.0668H161.882C161.882 61.8054 161.825 61.5739 161.711 61.3722C161.598 61.1705 161.44 61.0128 161.238 60.8991C161.039 60.7827 160.808 60.7244 160.544 60.7244C160.268 60.7244 160.024 60.7884 159.811 60.9162C159.6 61.0412 159.436 61.2102 159.316 61.4233C159.197 61.6335 159.136 61.8679 159.133 62.1264V63.196C159.133 63.5199 159.193 63.7997 159.312 64.0355C159.434 64.2713 159.606 64.4531 159.828 64.581C160.049 64.7088 160.312 64.7727 160.616 64.7727C160.818 64.7727 161.002 64.7443 161.17 64.6875C161.338 64.6307 161.481 64.5455 161.6 64.4318C161.72 64.3182 161.811 64.179 161.873 64.0142L163.552 64.125C163.467 64.5284 163.292 64.8807 163.028 65.1818C162.767 65.4801 162.429 65.7131 162.014 65.8807C161.602 66.0455 161.126 66.1278 160.586 66.1278ZM170.221 61.321L168.559 61.4233C168.531 61.2812 168.47 61.1534 168.376 61.0398C168.282 60.9233 168.159 60.831 168.005 60.7628C167.855 60.6918 167.674 60.6562 167.464 60.6562C167.183 60.6562 166.946 60.7159 166.752 60.8352C166.559 60.9517 166.463 61.108 166.463 61.304C166.463 61.4602 166.525 61.5923 166.65 61.7003C166.775 61.8082 166.99 61.8949 167.294 61.9602L168.478 62.1989C169.115 62.3295 169.589 62.5398 169.902 62.8295C170.214 63.1193 170.37 63.5 170.37 63.9716C170.37 64.4006 170.244 64.777 169.991 65.1009C169.741 65.4247 169.397 65.6776 168.96 65.8594C168.525 66.0384 168.024 66.1278 167.456 66.1278C166.589 66.1278 165.899 65.9474 165.385 65.5866C164.873 65.223 164.574 64.7287 164.485 64.1037L166.271 64.0099C166.325 64.2741 166.456 64.4759 166.663 64.6151C166.87 64.7514 167.136 64.8196 167.46 64.8196C167.778 64.8196 168.034 64.7585 168.227 64.6364C168.423 64.5114 168.522 64.3509 168.525 64.1548C168.522 63.9901 168.453 63.8551 168.316 63.75C168.18 63.642 167.97 63.5597 167.686 63.5028L166.552 63.277C165.913 63.1491 165.437 62.9276 165.125 62.6122C164.815 62.2969 164.66 61.8949 164.66 61.4062C164.66 60.9858 164.774 60.6236 165.001 60.3196C165.231 60.0156 165.554 59.7812 165.968 59.6165C166.386 59.4517 166.875 59.3693 167.434 59.3693C168.261 59.3693 168.912 59.544 169.386 59.8935C169.863 60.2429 170.142 60.7187 170.221 61.321Z" fill="#FFFEFE"/>
<rect id="input_constant" x="101" y="50" width="29" height="24" rx="10" fill="white"/>
<path id="repeat" d="M52.7244 66V59.4545H54.4844V60.5966H54.5526C54.6719 60.1903 54.8722 59.8835 55.1534 59.6761C55.4347 59.4659 55.7585 59.3608 56.125 59.3608C56.2159 59.3608 56.3139 59.3665 56.419 59.3778C56.5241 59.3892 56.6165 59.4048 56.696 59.4247V61.0355C56.6108 61.0099 56.4929 60.9872 56.3423 60.9673C56.1918 60.9474 56.054 60.9375 55.929 60.9375C55.6619 60.9375 55.4233 60.9957 55.2131 61.1122C55.0057 61.2259 54.8409 61.3849 54.7188 61.5895C54.5994 61.794 54.5398 62.0298 54.5398 62.2969V66H52.7244ZM60.3129 66.1278C59.6396 66.1278 59.06 65.9915 58.5742 65.7188C58.0913 65.4432 57.7191 65.054 57.4577 64.5511C57.1964 64.0455 57.0657 63.4474 57.0657 62.7571C57.0657 62.0838 57.1964 61.4929 57.4577 60.9844C57.7191 60.4759 58.087 60.0795 58.5614 59.7955C59.0387 59.5114 59.5984 59.3693 60.2404 59.3693C60.6722 59.3693 61.0742 59.4389 61.4464 59.5781C61.8214 59.7145 62.1481 59.9205 62.4265 60.196C62.7077 60.4716 62.9265 60.8182 63.0827 61.2358C63.239 61.6506 63.3171 62.1364 63.3171 62.6932V63.1918H57.7901V62.0668H61.6083C61.6083 61.8054 61.5515 61.5739 61.4379 61.3722C61.3242 61.1705 61.1665 61.0128 60.9648 60.8991C60.766 60.7827 60.5344 60.7244 60.2702 60.7244C59.9947 60.7244 59.7504 60.7884 59.5373 60.9162C59.3271 61.0412 59.1623 61.2102 59.043 61.4233C58.9237 61.6335 58.8626 61.8679 58.8597 62.1264V63.196C58.8597 63.5199 58.9194 63.7997 59.0387 64.0355C59.1609 64.2713 59.3327 64.4531 59.5543 64.581C59.7759 64.7088 60.0387 64.7727 60.3427 64.7727C60.5444 64.7727 60.729 64.7443 60.8967 64.6875C61.0643 64.6307 61.2077 64.5455 61.3271 64.4318C61.4464 64.3182 61.5373 64.179 61.5998 64.0142L63.2788 64.125C63.1935 64.5284 63.0188 64.8807 62.7546 65.1818C62.4933 65.4801 62.1552 65.7131 61.7404 65.8807C61.3285 66.0455 60.8526 66.1278 60.3129 66.1278ZM64.5018 68.4545V59.4545H66.2915V60.554H66.3725C66.4521 60.3778 66.5671 60.1989 66.7177 60.017C66.8711 59.8324 67.07 59.679 67.3143 59.5568C67.5614 59.4318 67.8683 59.3693 68.2347 59.3693C68.712 59.3693 69.1523 59.4943 69.5558 59.7443C69.9592 59.9915 70.2816 60.3651 70.5231 60.8651C70.7646 61.3622 70.8853 61.9858 70.8853 62.7358C70.8853 63.4659 70.7674 64.0824 70.5316 64.5852C70.2987 65.0852 69.9805 65.4645 69.5771 65.723C69.1765 65.9787 68.7276 66.1065 68.2305 66.1065C67.8782 66.1065 67.5785 66.0483 67.3313 65.9318C67.087 65.8153 66.8867 65.669 66.7305 65.4929C66.5742 65.3139 66.4549 65.1335 66.3725 64.9517H66.3171V68.4545H64.5018ZM66.2788 62.7273C66.2788 63.1165 66.3327 63.456 66.4407 63.7457C66.5487 64.0355 66.7049 64.2614 66.9094 64.4233C67.114 64.5824 67.3626 64.6619 67.6552 64.6619C67.9506 64.6619 68.2006 64.581 68.4052 64.419C68.6097 64.2543 68.7646 64.027 68.8697 63.7372C68.9776 63.4446 69.0316 63.108 69.0316 62.7273C69.0316 62.3494 68.979 62.017 68.8739 61.7301C68.7688 61.4432 68.614 61.2187 68.4094 61.0568C68.2049 60.8949 67.9535 60.8139 67.6552 60.8139C67.3597 60.8139 67.1097 60.892 66.9052 61.0483C66.7035 61.2045 66.5487 61.4261 66.4407 61.7131C66.3327 62 66.2788 62.3381 66.2788 62.7273ZM75.0785 66.1278C74.4052 66.1278 73.8256 65.9915 73.3398 65.7188C72.8569 65.4432 72.4847 65.054 72.2234 64.5511C71.962 64.0455 71.8313 63.4474 71.8313 62.7571C71.8313 62.0838 71.962 61.4929 72.2234 60.9844C72.4847 60.4759 72.8526 60.0795 73.3271 59.7955C73.8043 59.5114 74.364 59.3693 75.006 59.3693C75.4379 59.3693 75.8398 59.4389 76.212 59.5781C76.587 59.7145 76.9137 59.9205 77.1921 60.196C77.4734 60.4716 77.6921 60.8182 77.8484 61.2358C78.0046 61.6506 78.0827 62.1364 78.0827 62.6932V63.1918H72.5558V62.0668H76.3739C76.3739 61.8054 76.3171 61.5739 76.2035 61.3722C76.0898 61.1705 75.9322 61.0128 75.7305 60.8991C75.5316 60.7827 75.3001 60.7244 75.0359 60.7244C74.7603 60.7244 74.516 60.7884 74.3029 60.9162C74.0927 61.0412 73.9279 61.2102 73.8086 61.4233C73.6893 61.6335 73.6282 61.8679 73.6254 62.1264V63.196C73.6254 63.5199 73.685 63.7997 73.8043 64.0355C73.9265 64.2713 74.0984 64.4531 74.32 64.581C74.5415 64.7088 74.8043 64.7727 75.1083 64.7727C75.31 64.7727 75.4947 64.7443 75.6623 64.6875C75.8299 64.6307 75.9734 64.5455 76.0927 64.4318C76.212 64.3182 76.3029 64.179 76.3654 64.0142L78.0444 64.125C77.9592 64.5284 77.7844 64.8807 77.5202 65.1818C77.2589 65.4801 76.9208 65.7131 76.506 65.8807C76.0941 66.0455 75.6183 66.1278 75.0785 66.1278ZM81.1339 66.1236C80.7163 66.1236 80.3441 66.0511 80.0174 65.9062C79.6907 65.7585 79.4322 65.5412 79.2418 65.2543C79.0543 64.9645 78.9606 64.6037 78.9606 64.1719C78.9606 63.8082 79.0273 63.5028 79.1609 63.2557C79.2944 63.0085 79.4762 62.8097 79.7063 62.6591C79.9364 62.5085 80.1978 62.3949 80.4904 62.3182C80.7859 62.2415 81.0955 62.1875 81.4194 62.1562C81.8001 62.1165 82.1069 62.0795 82.3398 62.0455C82.5728 62.0085 82.7418 61.9545 82.8469 61.8835C82.9521 61.8125 83.0046 61.7074 83.0046 61.5682V61.5426C83.0046 61.2727 82.9194 61.0639 82.7489 60.9162C82.5813 60.7685 82.3427 60.6946 82.033 60.6946C81.7063 60.6946 81.4464 60.767 81.2532 60.9119C81.06 61.054 80.9322 61.233 80.8697 61.4489L79.1907 61.3125C79.2759 60.9148 79.4435 60.571 79.6935 60.2812C79.9435 59.9886 80.266 59.7642 80.6609 59.608C81.0586 59.4489 81.5188 59.3693 82.0415 59.3693C82.4052 59.3693 82.7532 59.4119 83.0856 59.4972C83.4208 59.5824 83.7177 59.7145 83.9762 59.8935C84.2376 60.0724 84.4435 60.3026 84.5941 60.5838C84.7447 60.8622 84.82 61.196 84.82 61.5852V66H83.0984V65.0923H83.0472C82.9421 65.2969 82.8015 65.4773 82.6254 65.6335C82.4492 65.7869 82.2376 65.9077 81.9904 65.9957C81.7433 66.081 81.4577 66.1236 81.1339 66.1236ZM81.6538 64.8707C81.9208 64.8707 82.1566 64.8182 82.3612 64.7131C82.5657 64.6051 82.7262 64.4602 82.8427 64.2784C82.9592 64.0966 83.0174 63.8906 83.0174 63.6605V62.9659C82.9606 63.0028 82.8825 63.0369 82.783 63.0682C82.6864 63.0966 82.5771 63.1236 82.4549 63.1491C82.3327 63.1719 82.2106 63.1932 82.0884 63.2131C81.9663 63.2301 81.8555 63.2457 81.756 63.2599C81.543 63.2912 81.3569 63.3409 81.1978 63.4091C81.0387 63.4773 80.9151 63.5696 80.8271 63.6861C80.739 63.7997 80.695 63.9418 80.695 64.1122C80.695 64.3594 80.7844 64.5483 80.9634 64.679C81.1452 64.8068 81.3754 64.8707 81.6538 64.8707ZM89.7099 59.4545V60.8182H85.7681V59.4545H89.7099ZM86.663 57.8864H88.4783V63.9886C88.4783 64.1562 88.5039 64.2869 88.555 64.3807C88.6062 64.4716 88.6772 64.5355 88.7681 64.5724C88.8619 64.6094 88.9698 64.6278 89.092 64.6278C89.1772 64.6278 89.2624 64.6207 89.3477 64.6065C89.4329 64.5895 89.4982 64.5767 89.5437 64.5682L89.8292 65.919C89.7383 65.9474 89.6104 65.9801 89.4457 66.017C89.2809 66.0568 89.0806 66.081 88.8448 66.0895C88.4073 66.1065 88.0238 66.0483 87.6942 65.9148C87.3675 65.7812 87.1133 65.5739 86.9315 65.2926C86.7496 65.0114 86.6602 64.6562 86.663 64.2273V57.8864Z" fill="white"/>
</g>
</g>
</svg>
