<svg width="456" height="405" viewBox="0 0 456 405" fill="none" xmlns="http://www.w3.org/2000/svg">
<g id="repeat_until">
<g id="block_shape">
<g id="true_block_arrow">
<path id="true_block_arrowhead" d="M395.548 153.5L421.096 119H370L395.548 153.5Z" fill="#F0B43B"/>
<path id="true_block_arrowbody_vert" d="M407 52H385V119H407V52Z" fill="#F0B43B"/>
<path id="true_block_arrowbody_hor" d="M227 52V74L405 74V52L227 52Z" fill="#F0B43B"/>
<g id="true_text">
<path id="Vector" d="M316.674 59.8693C317.16 59.8693 317.622 59.9477 318.055 60.1096L318.054 60.1105C318.493 60.2709 318.881 60.5134 319.21 60.8391L319.333 60.968C319.612 61.2762 319.828 61.6426 319.985 62.0598L320.048 62.2443C320.186 62.6812 320.25 63.1668 320.25 63.6935V64.6594L320.321 64.6642L320.201 65.2287C320.099 65.713 319.886 66.1426 319.564 66.5099L319.565 66.5109C319.246 66.8751 318.839 67.1508 318.362 67.3439L318.36 67.3449C317.877 67.5378 317.336 67.6281 316.746 67.6281C316.005 67.6281 315.338 67.4771 314.763 67.1545L314.76 67.1535C314.192 66.8293 313.752 66.3679 313.448 65.7814V65.7805C313.142 65.1903 312.999 64.5104 312.999 63.757C312.999 63.0184 313.143 62.3467 313.447 61.756C313.749 61.1675 314.181 60.7001 314.739 60.3664L314.74 60.3654C315.305 60.0286 315.956 59.8693 316.674 59.8693ZM315.916 64.8058L315.981 64.9133C316.051 65.0129 316.136 65.089 316.238 65.1476C316.37 65.2241 316.544 65.2726 316.777 65.2726C316.931 65.2726 317.061 65.2511 317.17 65.2141C317.274 65.1788 317.353 65.1293 317.416 65.0695C317.477 65.0111 317.528 64.9365 317.566 64.8371L317.621 64.6916H315.868C315.883 64.7323 315.899 64.7704 315.916 64.8058ZM316.703 62.2248C316.508 62.2249 316.355 62.2687 316.228 62.3449L316.227 62.3459C316.127 62.405 316.045 62.4779 315.979 62.5666H317.403C317.338 62.4699 317.257 62.3938 317.153 62.3351L317.146 62.3303C317.034 62.265 316.892 62.2248 316.703 62.2248Z" fill="white" stroke="#0B9F00"/>
<path id="Vector_2" d="M308.614 59.9545V64.2944L308.629 64.4955C308.656 64.6756 308.719 64.7945 308.795 64.8774C308.892 64.9836 309.024 65.0512 309.248 65.0512C309.387 65.0512 309.512 65.0198 309.63 64.9584C309.731 64.9027 309.817 64.8205 309.889 64.6977L309.892 64.6928C309.953 64.5914 309.998 64.4423 309.996 64.2182V59.9545H312.811V67.5004H310.068V67.1313C310.06 67.1367 310.053 67.1425 310.045 67.1479C309.606 67.4477 309.087 67.5854 308.514 67.5854C307.999 67.5854 307.523 67.4672 307.103 67.2162C306.685 66.9662 306.362 66.6109 306.135 66.1664L306.134 66.1635C305.907 65.7133 305.802 65.1944 305.799 64.6245V59.9545H308.614Z" fill="white" stroke="#0B9F00"/>
<path id="Vector_3" d="M305.86 62.7075L305.217 62.5141C305.169 62.4997 305.081 62.4818 304.941 62.4633C304.808 62.4457 304.692 62.4379 304.593 62.4379C304.401 62.438 304.247 62.4783 304.119 62.5493L304.117 62.5502C303.988 62.6207 303.889 62.7175 303.812 62.8461C303.745 62.964 303.704 63.1097 303.704 63.2973V67.5004H300.888V59.9545H303.648V60.187C303.989 59.9693 304.373 59.8608 304.789 59.8608C304.9 59.8608 305.016 59.8673 305.137 59.8803C305.258 59.8935 305.374 59.9131 305.481 59.9399L305.86 60.0346V62.7075Z" fill="white" stroke="#0B9F00"/>
<path id="Vector_4" d="M299.474 58.3864V59.9547H300.706V62.318H299.474V64.9889C299.474 65.0477 299.478 65.089 299.483 65.1158C299.508 65.1215 299.543 65.1276 299.588 65.1276C299.646 65.1275 299.703 65.1226 299.761 65.1129C299.84 65.0973 299.902 65.0853 299.948 65.0768L300.428 64.9869L300.529 65.4645L300.814 66.816L300.909 67.2604L300.474 67.3961C300.365 67.4301 300.225 67.4652 300.058 67.5026C299.851 67.5525 299.616 67.5792 299.359 67.5885L299.36 67.5895C298.868 67.6086 298.411 67.544 298.003 67.3785L298.002 67.3776C297.586 67.2076 297.248 66.936 297.007 66.5641C296.76 66.1809 296.655 65.7233 296.659 65.2242V62.318H295.764V59.9547H296.659V58.3864H299.474Z" fill="white" stroke="#0B9F00"/>
</g>
</g>
<g id="false_block_arrow">
<path id="false_block_arrowbody" d="M125 93H103V370H125V93Z" fill="#F0B43B"/>
<path id="false_block_arrowhead" d="M114.548 404.5L140.096 370H89L114.548 404.5Z" fill="#F0B43B"/>
<g id="false_text">
<path id="Vector_5" d="M125.794 375.006C126.28 375.006 126.742 375.084 127.175 375.246L127.174 375.247C127.613 375.407 128 375.65 128.33 375.975L128.453 376.104C128.732 376.413 128.948 376.779 129.104 377.196L129.168 377.381C129.306 377.818 129.37 378.303 129.37 378.83V379.796L129.44 379.801L129.321 380.365C129.219 380.849 129.005 381.279 128.683 381.646L128.684 381.647C128.365 382.011 127.959 382.287 127.481 382.48L127.479 382.481C126.997 382.674 126.456 382.764 125.866 382.764C125.125 382.764 124.457 382.613 123.883 382.291L123.88 382.29C123.312 381.966 122.872 381.504 122.567 380.918V380.917C122.262 380.327 122.119 379.647 122.119 378.893C122.119 378.155 122.263 377.483 122.566 376.892C122.869 376.304 123.301 375.836 123.858 375.503L123.859 375.502C124.425 375.165 125.076 375.006 125.794 375.006ZM125.036 379.942L125.1 380.05C125.17 380.149 125.256 380.225 125.357 380.284C125.49 380.36 125.663 380.409 125.896 380.409C126.051 380.409 126.181 380.387 126.29 380.35C126.394 380.315 126.473 380.266 126.536 380.206C126.597 380.147 126.648 380.073 126.685 379.973L126.741 379.828H124.988C125.002 379.869 125.018 379.907 125.036 379.942ZM125.823 377.361C125.628 377.361 125.474 377.405 125.347 377.481L125.346 377.482C125.247 377.541 125.165 377.614 125.098 377.703H126.522C126.458 377.606 126.376 377.53 126.272 377.471L126.265 377.467C126.154 377.401 126.012 377.361 125.823 377.361Z" fill="white" stroke="#C50000"/>
<path id="Vector_6" d="M118.804 375.006C119.696 375.006 120.464 375.193 121.052 375.627H121.051C121.642 376.059 121.99 376.659 122.087 377.392L122.157 377.924L121.622 377.957L120.588 378.019C120.992 378.159 121.339 378.348 121.611 378.599C122.037 378.994 122.24 379.514 122.24 380.108C122.24 380.642 122.079 381.127 121.755 381.542L121.756 381.543C121.445 381.946 121.026 382.248 120.521 382.458H120.52C120.014 382.666 119.445 382.764 118.825 382.764C117.894 382.764 117.092 382.571 116.467 382.133L116.464 382.131C115.84 381.687 115.467 381.069 115.36 380.309L115.284 379.769L115.829 379.741L117.046 379.677C116.69 379.535 116.383 379.347 116.139 379.1L116.137 379.098C115.726 378.679 115.53 378.147 115.53 377.543C115.53 377.027 115.672 376.557 115.97 376.157L115.972 376.154C116.266 375.766 116.669 375.481 117.154 375.288H117.155C117.643 375.095 118.197 375.006 118.804 375.006ZM118.13 380.047C118.16 380.191 118.22 380.274 118.307 380.334L118.397 380.382C118.499 380.426 118.638 380.456 118.83 380.456C119.086 380.456 119.239 380.406 119.327 380.351C119.375 380.321 119.391 380.3 119.393 380.296V380.294C119.391 380.291 119.387 380.287 119.38 380.282L119.376 380.278C119.341 380.251 119.265 380.209 119.123 380.169L118.958 380.13L118.113 379.961L118.13 380.047ZM118.834 377.293C118.623 377.293 118.483 377.337 118.385 377.397L118.38 377.4C118.351 377.418 118.338 377.431 118.333 377.436V377.444C118.335 377.447 118.339 377.451 118.346 377.458C118.373 377.481 118.484 377.546 118.761 377.606L119.456 377.746L119.439 377.658C119.427 377.598 119.402 377.545 119.36 377.494L119.356 377.49C119.318 377.443 119.261 377.396 119.172 377.356L119.162 377.351C119.093 377.319 118.989 377.293 118.834 377.293Z" fill="white" stroke="#C50000"/>
<path id="Vector_7" d="M115.191 372.909V382.637H112.375V372.909H115.191Z" fill="white" stroke="#C50000"/>
<path id="Vector_8" d="M108.689 375.006C109.092 375.006 109.481 375.053 109.857 375.149L109.856 375.15C110.242 375.248 110.593 375.402 110.904 375.617H110.905C111.233 375.841 111.493 376.132 111.681 376.482C111.879 376.849 111.967 377.268 111.967 377.721V382.637H109.245V382.399C109.108 382.479 108.961 382.548 108.805 382.603L108.8 382.605V382.604C108.49 382.711 108.147 382.76 107.78 382.76C107.305 382.76 106.862 382.677 106.462 382.5L106.458 382.498C106.05 382.313 105.716 382.035 105.472 381.667L105.469 381.662C105.217 381.273 105.108 380.812 105.108 380.308C105.108 379.886 105.185 379.493 105.368 379.154C105.54 378.836 105.778 378.574 106.079 378.377C106.304 378.23 106.549 378.115 106.813 378.029L105.797 377.947L105.23 377.901L105.349 377.345C105.45 376.87 105.654 376.448 105.962 376.091C106.27 375.731 106.662 375.462 107.124 375.279V375.28C107.592 375.093 108.117 375.006 108.689 375.006ZM108.816 379.843L108.805 379.845C108.684 379.861 108.573 379.876 108.475 379.89C108.295 379.917 108.153 379.957 108.042 380.005C107.948 380.045 107.9 380.089 107.873 380.124L107.869 380.129C107.861 380.139 107.842 380.168 107.842 380.249C107.842 380.351 107.868 380.383 107.9 380.407C107.978 380.462 108.101 380.507 108.301 380.507C108.498 380.507 108.651 380.469 108.774 380.407C108.907 380.337 109.002 380.249 109.069 380.145C109.13 380.049 109.164 379.938 109.164 379.797V379.782C109.048 379.803 108.932 379.824 108.816 379.843ZM108.68 377.331C108.424 377.331 108.281 377.388 108.2 377.448L108.196 377.451C108.086 377.532 108.027 377.622 107.997 377.724L107.975 377.8L108.019 377.795C108.392 377.756 108.689 377.72 108.911 377.687C109.009 377.672 109.082 377.655 109.136 377.638C109.14 377.636 109.144 377.634 109.148 377.633C109.14 377.511 109.104 377.461 109.069 377.43L109.066 377.428C109.019 377.387 108.915 377.331 108.68 377.331Z" fill="white" stroke="#C50000"/>
<path id="Vector_9" d="M104.072 372.5C104.376 372.5 104.662 372.523 104.927 372.572L104.926 372.573C105.162 372.617 105.358 372.658 105.499 372.7L105.95 372.836L105.842 373.295L105.518 374.658L105.415 375.091H105.54V377.454H104.235V382.637H101.425V377.454H100.5V375.091H101.426C101.429 374.564 101.534 374.086 101.771 373.684L101.772 373.681H101.773C102.01 373.286 102.339 372.983 102.752 372.784C103.153 372.591 103.596 372.5 104.072 372.5ZM104.452 374.949C104.355 374.949 104.299 374.961 104.271 374.97L104.269 374.971C104.26 374.984 104.245 375.018 104.239 375.091H105.104L104.879 375.019C104.834 375.004 104.767 374.987 104.674 374.97H104.672C104.602 374.956 104.529 374.949 104.452 374.949Z" fill="white" stroke="#C50000"/>
</g>
</g>
<g id="main_body">
<g id="prev_block_connector">
<path id="Vector_10" d="M113.5 34H88V0H88.3223L113.5 34Z" fill="#F0B43B"/>
<path id="Vector_11" d="M139 34H113.5L138.678 0H139V34Z" fill="#F0B43B"/>
</g>
<path id="block_body" d="M0 34H228V93H0V34Z" fill="#F0B43B"/>
</g>
</g>
<g id="block_input">
<g id="repeat_until_text">
<path id="Vector_12" d="M78.6239 57.2727V66H76.8086V57.2727H78.6239Z" fill="white"/>
<path id="Vector_13" d="M73.5391 66V59.4545H75.3544V66H73.5391ZM74.451 58.6108C74.1811 58.6108 73.9496 58.5213 73.7564 58.3423C73.5661 58.1605 73.4709 57.9432 73.4709 57.6903C73.4709 57.4403 73.5661 57.2258 73.7564 57.0469C73.9496 56.865 74.1811 56.7741 74.451 56.7741C74.7209 56.7741 74.951 56.865 75.1413 57.0469C75.3345 57.2258 75.4311 57.4403 75.4311 57.6903C75.4311 57.9432 75.3345 58.1605 75.1413 58.3423C74.951 58.5213 74.7209 58.6108 74.451 58.6108Z" fill="white"/>
<path id="Vector_14" d="M72.3566 59.4545V60.8182H68.4148V59.4545H72.3566ZM69.3097 57.8864H71.125V63.9886C71.125 64.1562 71.1506 64.2869 71.2017 64.3807C71.2529 64.4716 71.3239 64.5355 71.4148 64.5724C71.5085 64.6094 71.6165 64.6278 71.7387 64.6278C71.8239 64.6278 71.9091 64.6207 71.9943 64.6065C72.0796 64.5895 72.1449 64.5767 72.1904 64.5682L72.4759 65.919C72.385 65.9474 72.2571 65.9801 72.0924 66.017C71.9276 66.0568 71.7273 66.081 71.4915 66.0895C71.054 66.1065 70.6705 66.0483 70.3409 65.9148C70.0142 65.7812 69.76 65.5739 69.5781 65.2926C69.3963 65.0114 69.3068 64.6562 69.3097 64.2273V57.8864Z" fill="white"/>
<path id="Vector_15" d="M63.2255 62.2159V66H61.4102V59.4546H63.1403V60.6094H63.217C63.3619 60.2287 63.6048 59.9276 63.9457 59.706C64.2866 59.4815 64.6999 59.3693 65.1857 59.3693C65.6403 59.3693 66.0366 59.4688 66.3746 59.6676C66.7127 59.8665 66.9755 60.1506 67.163 60.5199C67.3505 60.8864 67.4442 61.3239 67.4442 61.8324V66H65.6289V62.1563C65.6318 61.7557 65.5295 61.4432 65.3221 61.2188C65.1147 60.9915 64.8292 60.8778 64.4656 60.8778C64.2212 60.8778 64.0053 60.9304 63.8178 61.0355C63.6332 61.1406 63.4883 61.294 63.3832 61.4957C63.2809 61.6946 63.2283 61.9347 63.2255 62.2159Z" fill="white"/>
<path id="Vector_16" d="M58.1428 63.2131V59.4546H59.9581V66H58.2152V64.8111H58.147C57.9993 65.1946 57.7536 65.5029 57.4098 65.7358C57.0689 65.9688 56.6527 66.0852 56.1612 66.0852C55.7237 66.0852 55.3388 65.9858 55.0064 65.7869C54.674 65.5881 54.4141 65.3054 54.2266 64.9389C54.0419 64.5725 53.9482 64.1335 53.9453 63.6222V59.4546H55.7607V63.2983C55.7635 63.6847 55.8672 63.9901 56.0717 64.2145C56.2763 64.4389 56.5504 64.5512 56.8942 64.5512C57.1129 64.5512 57.3175 64.5014 57.5078 64.402C57.6982 64.2997 57.8516 64.1492 57.968 63.9503C58.0874 63.7514 58.1456 63.5057 58.1428 63.2131Z" fill="white"/>
<path id="Vector_17" d="M49.9855 59.4545V60.8182H46.0437V59.4545H49.9855ZM46.9386 57.8864H48.7539V63.9886C48.7539 64.1562 48.7795 64.2869 48.8306 64.3807C48.8818 64.4716 48.9528 64.5355 49.0437 64.5724C49.1375 64.6094 49.2454 64.6278 49.3676 64.6278C49.4528 64.6278 49.538 64.6207 49.6232 64.6065C49.7085 64.5895 49.7738 64.5767 49.8193 64.5682L50.1048 65.919C50.0139 65.9474 49.886 65.9801 49.7213 66.017C49.5565 66.0568 49.3562 66.081 49.1204 66.0895C48.6829 66.1065 48.2994 66.0483 47.9698 65.9148C47.6431 65.7812 47.3889 65.5739 47.2071 65.2926C47.0252 65.0114 46.9357 64.6562 46.9386 64.2273V57.8864Z" fill="white"/>
<path id="Vector_18" d="M41.4094 66.1236C40.9918 66.1236 40.6197 66.0511 40.293 65.9063C39.9663 65.7585 39.7077 65.5412 39.5174 65.2543C39.3299 64.9645 39.2361 64.6037 39.2361 64.1719C39.2361 63.8082 39.3029 63.5028 39.4364 63.2557C39.57 63.0085 39.7518 62.8097 39.9819 62.6591C40.212 62.5085 40.4734 62.3949 40.766 62.3182C41.0614 62.2415 41.3711 62.1875 41.695 62.1563C42.0756 62.1165 42.3825 62.0796 42.6154 62.0455C42.8484 62.0085 43.0174 61.9546 43.1225 61.8835C43.2276 61.8125 43.2802 61.7074 43.2802 61.5682V61.5426C43.2802 61.2727 43.195 61.0639 43.0245 60.9162C42.8569 60.7685 42.6182 60.6946 42.3086 60.6946C41.9819 60.6946 41.7219 60.7671 41.5288 60.9119C41.3356 61.054 41.2077 61.233 41.1452 61.4489L39.4663 61.3125C39.5515 60.9148 39.7191 60.571 39.9691 60.2813C40.2191 59.9886 40.5415 59.7642 40.9364 59.608C41.3342 59.4489 41.7944 59.3693 42.3171 59.3693C42.6807 59.3693 43.0288 59.4119 43.3611 59.4972C43.6964 59.5824 43.9932 59.7145 44.2518 59.8935C44.5131 60.0724 44.7191 60.3026 44.8697 60.5838C45.0202 60.8622 45.0955 61.196 45.0955 61.5852V66H43.3739V65.0923H43.3228C43.2177 65.2969 43.0771 65.4773 42.9009 65.6335C42.7248 65.7869 42.5131 65.9077 42.266 65.9957C42.0188 66.081 41.7333 66.1236 41.4094 66.1236ZM41.9293 64.8707C42.1964 64.8707 42.4322 64.8182 42.6367 64.7131C42.8413 64.6051 43.0018 64.4602 43.1182 64.2784C43.2347 64.0966 43.293 63.8906 43.293 63.6605V62.9659C43.2361 63.0028 43.158 63.0369 43.0586 63.0682C42.962 63.0966 42.8526 63.1236 42.7305 63.1492C42.6083 63.1719 42.4861 63.1932 42.364 63.2131C42.2418 63.2301 42.131 63.2457 42.0316 63.2599C41.8185 63.2912 41.6325 63.3409 41.4734 63.4091C41.3143 63.4773 41.1907 63.5696 41.1026 63.6861C41.0146 63.7997 40.9705 63.9418 40.9705 64.1122C40.9705 64.3594 41.06 64.5483 41.239 64.679C41.4208 64.8068 41.6509 64.8707 41.9293 64.8707Z" fill="white"/>
<path id="Vector_19" d="M35.3541 66.1278C34.6808 66.1278 34.1012 65.9915 33.6154 65.7188C33.1325 65.4432 32.7603 65.054 32.4989 64.5511C32.2376 64.0455 32.1069 63.4474 32.1069 62.7571C32.1069 62.0838 32.2376 61.4929 32.4989 60.9844C32.7603 60.4759 33.1282 60.0796 33.6026 59.7955C34.0799 59.5114 34.6396 59.3693 35.2816 59.3693C35.7134 59.3693 36.1154 59.4389 36.4876 59.5781C36.8626 59.7145 37.1893 59.9205 37.4677 60.196C37.7489 60.4716 37.9677 60.8182 38.1239 61.2358C38.2802 61.6506 38.3583 62.1364 38.3583 62.6932V63.1918H32.8313V62.0668H36.6495C36.6495 61.8054 36.5927 61.5739 36.4791 61.3722C36.3654 61.1705 36.2078 61.0128 36.0061 60.8992C35.8072 60.7827 35.5757 60.7244 35.3114 60.7244C35.0359 60.7244 34.7916 60.7884 34.5785 60.9162C34.3683 61.0412 34.2035 61.2102 34.0842 61.4233C33.9649 61.6335 33.9038 61.8679 33.9009 62.1264V63.196C33.9009 63.5199 33.9606 63.7997 34.0799 64.0355C34.2021 64.2713 34.3739 64.4531 34.5955 64.581C34.8171 64.7088 35.0799 64.7727 35.3839 64.7727C35.5856 64.7727 35.7703 64.7443 35.9379 64.6875C36.1055 64.6307 36.2489 64.5455 36.3683 64.4318C36.4876 64.3182 36.5785 64.179 36.641 64.0142L38.32 64.125C38.2347 64.5284 38.06 64.8807 37.7958 65.1818C37.5345 65.4801 37.1964 65.7131 36.7816 65.8807C36.3697 66.0455 35.8938 66.1278 35.3541 66.1278Z" fill="white"/>
<path id="Vector_20" d="M24.7773 68.4546V59.4546H26.5671V60.554H26.6481C26.7276 60.3778 26.8427 60.1989 26.9933 60.0171C27.1467 59.8324 27.3455 59.679 27.5898 59.5568C27.837 59.4318 28.1438 59.3693 28.5103 59.3693C28.9876 59.3693 29.4279 59.4943 29.8313 59.7443C30.2347 59.9915 30.5572 60.3651 30.7987 60.8651C31.0401 61.3622 31.1609 61.9858 31.1609 62.7358C31.1609 63.4659 31.043 64.0824 30.8072 64.5852C30.5742 65.0852 30.256 65.4645 29.8526 65.723C29.4521 65.9787 29.0032 66.1065 28.506 66.1065C28.1538 66.1065 27.854 66.0483 27.6069 65.9318C27.3626 65.8153 27.1623 65.669 27.006 65.4929C26.8498 65.3139 26.7305 65.1335 26.6481 64.9517H26.5927V68.4546H24.7773ZM26.5543 62.7273C26.5543 63.1165 26.6083 63.456 26.7163 63.7457C26.8242 64.0355 26.9805 64.2614 27.185 64.4233C27.3896 64.5824 27.6381 64.6619 27.9308 64.6619C28.2262 64.6619 28.4762 64.581 28.6808 64.419C28.8853 64.2543 29.0401 64.027 29.1452 63.7372C29.2532 63.4446 29.3072 63.108 29.3072 62.7273C29.3072 62.3494 29.2546 62.0171 29.1495 61.7301C29.0444 61.4432 28.8896 61.2188 28.685 61.0568C28.4805 60.8949 28.229 60.8139 27.9308 60.8139C27.6353 60.8139 27.3853 60.8921 27.1808 61.0483C26.979 61.2046 26.8242 61.4261 26.7163 61.7131C26.6083 62 26.5543 62.3381 26.5543 62.7273Z" fill="white"/>
<path id="Vector_21" d="M20.5884 66.1278C19.9151 66.1278 19.3356 65.9915 18.8498 65.7188C18.3668 65.4432 17.9947 65.054 17.7333 64.5511C17.472 64.0455 17.3413 63.4474 17.3413 62.7571C17.3413 62.0838 17.472 61.4929 17.7333 60.9844C17.9947 60.4759 18.3626 60.0796 18.837 59.7955C19.3143 59.5114 19.8739 59.3693 20.516 59.3693C20.9478 59.3693 21.3498 59.4389 21.722 59.5781C22.097 59.7145 22.4237 59.9205 22.7021 60.196C22.9833 60.4716 23.2021 60.8182 23.3583 61.2358C23.5146 61.6506 23.5927 62.1364 23.5927 62.6932V63.1918H18.0657V62.0668H21.8839C21.8839 61.8054 21.8271 61.5739 21.7134 61.3722C21.5998 61.1705 21.4421 61.0128 21.2404 60.8992C21.0416 60.7827 20.81 60.7244 20.5458 60.7244C20.2703 60.7244 20.0259 60.7884 19.8129 60.9162C19.6026 61.0412 19.4379 61.2102 19.3186 61.4233C19.1992 61.6335 19.1382 61.8679 19.1353 62.1264V63.196C19.1353 63.5199 19.195 63.7997 19.3143 64.0355C19.4364 64.2713 19.6083 64.4531 19.8299 64.581C20.0515 64.7088 20.3143 64.7727 20.6183 64.7727C20.82 64.7727 21.0046 64.7443 21.1722 64.6875C21.3399 64.6307 21.4833 64.5455 21.6026 64.4318C21.722 64.3182 21.8129 64.179 21.8754 64.0142L23.5543 64.125C23.4691 64.5284 23.2944 64.8807 23.0302 65.1818C22.7688 65.4801 22.4308 65.7131 22.016 65.8807C21.6041 66.0455 21.1282 66.1278 20.5884 66.1278Z" fill="white"/>
<path id="Vector_22" d="M13 66V59.4546H14.7599V60.5966H14.8281C14.9474 60.1904 15.1477 59.8835 15.429 59.6762C15.7102 59.4659 16.0341 59.3608 16.4006 59.3608C16.4915 59.3608 16.5895 59.3665 16.6946 59.3779C16.7997 59.3892 16.892 59.4048 16.9716 59.4247V61.0355C16.8864 61.01 16.7685 60.9872 16.6179 60.9673C16.4673 60.9475 16.3295 60.9375 16.2045 60.9375C15.9375 60.9375 15.6989 60.9958 15.4886 61.1122C15.2812 61.2259 15.1165 61.385 14.9943 61.5895C14.875 61.794 14.8153 62.0298 14.8153 62.2969V66H13Z" fill="white"/>
</g>
<g id="input_boolean">
<path d="M98.4513 52.3306H202.1V73.6694H98.4513V52.3306Z" fill="white"/>
<path d="M85.2756 63L98.4513 52V74L85.2756 63Z" fill="white"/>
<path d="M215.276 63L202.1 74V52L215.276 63Z" fill="white"/>
</g>
</g>
</g>
</svg>
