<svg width="365" height="359" viewBox="0 0 365 359" fill="none" xmlns="http://www.w3.org/2000/svg">
<path d="M126 84H104V334H126V84Z" fill="#F0B43B"/>
<path d="M301 130L326 105H276L301 130Z" fill="white"/>
<path d="M301 125L321 105H281L301 125Z" fill="white"/>
<path d="M301 125L321 105H281L301 125Z" fill="#F0B43B"/>
<path d="M301 121L317 105H285L301 121Z" fill="#F0B43B"/>
<path d="M312 65H290V105H312V65Z" fill="#F0B43B"/>
<path d="M225 43V65H312V43H225Z" fill="#F0B43B"/>
<mask id="path-6-outside-1_170_205" maskUnits="userSpaceOnUse" x="288" y="106" width="26" height="11" fill="black">
<rect fill="white" x="288" y="106" width="26" height="11"/>
<path d="M292.537 109.545V110.682H289.17V109.545H292.537ZM289.941 115V109.151C289.941 108.756 290.018 108.428 290.172 108.168C290.328 107.907 290.541 107.712 290.811 107.582C291.081 107.451 291.388 107.386 291.731 107.386C291.963 107.386 292.175 107.404 292.366 107.44C292.561 107.475 292.705 107.507 292.8 107.536L292.53 108.672C292.471 108.653 292.397 108.635 292.31 108.619C292.224 108.602 292.137 108.594 292.047 108.594C291.824 108.594 291.669 108.646 291.582 108.75C291.494 108.852 291.45 108.995 291.45 109.18V115H289.941ZM294.821 115.103C294.473 115.103 294.163 115.043 293.891 114.922C293.619 114.799 293.403 114.618 293.244 114.379C293.088 114.137 293.01 113.836 293.01 113.477C293.01 113.174 293.066 112.919 293.177 112.713C293.288 112.507 293.44 112.341 293.632 112.216C293.823 112.09 294.041 111.996 294.285 111.932C294.531 111.868 294.789 111.823 295.059 111.797C295.376 111.764 295.632 111.733 295.826 111.705C296.02 111.674 296.161 111.629 296.249 111.57C296.336 111.51 296.38 111.423 296.38 111.307V111.286C296.38 111.061 296.309 110.887 296.167 110.763C296.027 110.64 295.829 110.579 295.57 110.579C295.298 110.579 295.082 110.639 294.921 110.76C294.76 110.878 294.653 111.027 294.601 111.207L293.202 111.094C293.273 110.762 293.413 110.476 293.621 110.234C293.829 109.991 294.098 109.804 294.427 109.673C294.758 109.541 295.142 109.474 295.578 109.474C295.881 109.474 296.171 109.51 296.448 109.581C296.727 109.652 296.974 109.762 297.19 109.911C297.408 110.06 297.579 110.252 297.705 110.487C297.83 110.719 297.893 110.997 297.893 111.321V115H296.458V114.244H296.416C296.328 114.414 296.211 114.564 296.064 114.695C295.917 114.822 295.741 114.923 295.535 114.996C295.329 115.067 295.091 115.103 294.821 115.103ZM295.254 114.059C295.477 114.059 295.673 114.015 295.844 113.928C296.014 113.838 296.148 113.717 296.245 113.565C296.342 113.414 296.391 113.242 296.391 113.05V112.472C296.343 112.502 296.278 112.531 296.195 112.557C296.115 112.58 296.024 112.603 295.922 112.624C295.82 112.643 295.718 112.661 295.617 112.678C295.515 112.692 295.423 112.705 295.34 112.717C295.162 112.743 295.007 112.784 294.874 112.841C294.742 112.898 294.639 112.975 294.566 113.072C294.492 113.166 294.455 113.285 294.455 113.427C294.455 113.633 294.53 113.79 294.679 113.899C294.831 114.006 295.022 114.059 295.254 114.059ZM300.579 107.727V115H299.067V107.727H300.579ZM306.33 111.101L304.945 111.186C304.921 111.068 304.87 110.961 304.792 110.866C304.714 110.769 304.611 110.692 304.483 110.636C304.357 110.576 304.207 110.547 304.032 110.547C303.798 110.547 303.6 110.597 303.439 110.696C303.278 110.793 303.197 110.923 303.197 111.087C303.197 111.217 303.25 111.327 303.354 111.417C303.458 111.507 303.637 111.579 303.89 111.634L304.877 111.832C305.407 111.941 305.803 112.116 306.063 112.358C306.324 112.599 306.454 112.917 306.454 113.31C306.454 113.667 306.348 113.981 306.138 114.251C305.929 114.521 305.643 114.731 305.278 114.883C304.916 115.032 304.498 115.107 304.025 115.107C303.303 115.107 302.728 114.956 302.299 114.656C301.873 114.353 301.623 113.941 301.55 113.42L303.038 113.342C303.083 113.562 303.192 113.73 303.364 113.846C303.537 113.96 303.759 114.016 304.028 114.016C304.294 114.016 304.507 113.965 304.668 113.864C304.831 113.759 304.914 113.626 304.916 113.462C304.914 113.325 304.856 113.213 304.742 113.125C304.629 113.035 304.453 112.966 304.217 112.919L303.272 112.731C302.739 112.624 302.343 112.44 302.082 112.177C301.824 111.914 301.695 111.579 301.695 111.172C301.695 110.821 301.79 110.52 301.979 110.266C302.171 110.013 302.44 109.818 302.786 109.68C303.134 109.543 303.541 109.474 304.007 109.474C304.696 109.474 305.238 109.62 305.634 109.911C306.031 110.202 306.263 110.599 306.33 111.101ZM309.892 115.107C309.331 115.107 308.848 114.993 308.443 114.766C308.041 114.536 307.731 114.212 307.513 113.793C307.295 113.371 307.186 112.873 307.186 112.298C307.186 111.737 307.295 111.244 307.513 110.82C307.731 110.397 308.037 110.066 308.433 109.83C308.83 109.593 309.297 109.474 309.832 109.474C310.192 109.474 310.527 109.532 310.837 109.648C311.149 109.762 311.422 109.934 311.654 110.163C311.888 110.393 312.07 110.682 312.2 111.03C312.331 111.375 312.396 111.78 312.396 112.244V112.66H307.79V111.722H310.972C310.972 111.504 310.924 111.312 310.83 111.143C310.735 110.975 310.604 110.844 310.436 110.749C310.27 110.652 310.077 110.604 309.857 110.604C309.627 110.604 309.423 110.657 309.246 110.763C309.071 110.868 308.933 111.009 308.834 111.186C308.735 111.361 308.684 111.557 308.681 111.772V112.663C308.681 112.933 308.731 113.166 308.83 113.363C308.932 113.559 309.075 113.711 309.26 113.817C309.445 113.924 309.664 113.977 309.917 113.977C310.085 113.977 310.239 113.954 310.379 113.906C310.518 113.859 310.638 113.788 310.737 113.693C310.837 113.598 310.913 113.482 310.965 113.345L312.364 113.438C312.293 113.774 312.147 114.067 311.927 114.318C311.709 114.567 311.427 114.761 311.082 114.901C310.739 115.038 310.342 115.107 309.892 115.107Z"/>
</mask>
<path d="M292.537 109.545V110.682H289.17V109.545H292.537ZM289.941 115V109.151C289.941 108.756 290.018 108.428 290.172 108.168C290.328 107.907 290.541 107.712 290.811 107.582C291.081 107.451 291.388 107.386 291.731 107.386C291.963 107.386 292.175 107.404 292.366 107.44C292.561 107.475 292.705 107.507 292.8 107.536L292.53 108.672C292.471 108.653 292.397 108.635 292.31 108.619C292.224 108.602 292.137 108.594 292.047 108.594C291.824 108.594 291.669 108.646 291.582 108.75C291.494 108.852 291.45 108.995 291.45 109.18V115H289.941ZM294.821 115.103C294.473 115.103 294.163 115.043 293.891 114.922C293.619 114.799 293.403 114.618 293.244 114.379C293.088 114.137 293.01 113.836 293.01 113.477C293.01 113.174 293.066 112.919 293.177 112.713C293.288 112.507 293.44 112.341 293.632 112.216C293.823 112.09 294.041 111.996 294.285 111.932C294.531 111.868 294.789 111.823 295.059 111.797C295.376 111.764 295.632 111.733 295.826 111.705C296.02 111.674 296.161 111.629 296.249 111.57C296.336 111.51 296.38 111.423 296.38 111.307V111.286C296.38 111.061 296.309 110.887 296.167 110.763C296.027 110.64 295.829 110.579 295.57 110.579C295.298 110.579 295.082 110.639 294.921 110.76C294.76 110.878 294.653 111.027 294.601 111.207L293.202 111.094C293.273 110.762 293.413 110.476 293.621 110.234C293.829 109.991 294.098 109.804 294.427 109.673C294.758 109.541 295.142 109.474 295.578 109.474C295.881 109.474 296.171 109.51 296.448 109.581C296.727 109.652 296.974 109.762 297.19 109.911C297.408 110.06 297.579 110.252 297.705 110.487C297.83 110.719 297.893 110.997 297.893 111.321V115H296.458V114.244H296.416C296.328 114.414 296.211 114.564 296.064 114.695C295.917 114.822 295.741 114.923 295.535 114.996C295.329 115.067 295.091 115.103 294.821 115.103ZM295.254 114.059C295.477 114.059 295.673 114.015 295.844 113.928C296.014 113.838 296.148 113.717 296.245 113.565C296.342 113.414 296.391 113.242 296.391 113.05V112.472C296.343 112.502 296.278 112.531 296.195 112.557C296.115 112.58 296.024 112.603 295.922 112.624C295.82 112.643 295.718 112.661 295.617 112.678C295.515 112.692 295.423 112.705 295.34 112.717C295.162 112.743 295.007 112.784 294.874 112.841C294.742 112.898 294.639 112.975 294.566 113.072C294.492 113.166 294.455 113.285 294.455 113.427C294.455 113.633 294.53 113.79 294.679 113.899C294.831 114.006 295.022 114.059 295.254 114.059ZM300.579 107.727V115H299.067V107.727H300.579ZM306.33 111.101L304.945 111.186C304.921 111.068 304.87 110.961 304.792 110.866C304.714 110.769 304.611 110.692 304.483 110.636C304.357 110.576 304.207 110.547 304.032 110.547C303.798 110.547 303.6 110.597 303.439 110.696C303.278 110.793 303.197 110.923 303.197 111.087C303.197 111.217 303.25 111.327 303.354 111.417C303.458 111.507 303.637 111.579 303.89 111.634L304.877 111.832C305.407 111.941 305.803 112.116 306.063 112.358C306.324 112.599 306.454 112.917 306.454 113.31C306.454 113.667 306.348 113.981 306.138 114.251C305.929 114.521 305.643 114.731 305.278 114.883C304.916 115.032 304.498 115.107 304.025 115.107C303.303 115.107 302.728 114.956 302.299 114.656C301.873 114.353 301.623 113.941 301.55 113.42L303.038 113.342C303.083 113.562 303.192 113.73 303.364 113.846C303.537 113.96 303.759 114.016 304.028 114.016C304.294 114.016 304.507 113.965 304.668 113.864C304.831 113.759 304.914 113.626 304.916 113.462C304.914 113.325 304.856 113.213 304.742 113.125C304.629 113.035 304.453 112.966 304.217 112.919L303.272 112.731C302.739 112.624 302.343 112.44 302.082 112.177C301.824 111.914 301.695 111.579 301.695 111.172C301.695 110.821 301.79 110.52 301.979 110.266C302.171 110.013 302.44 109.818 302.786 109.68C303.134 109.543 303.541 109.474 304.007 109.474C304.696 109.474 305.238 109.62 305.634 109.911C306.031 110.202 306.263 110.599 306.33 111.101ZM309.892 115.107C309.331 115.107 308.848 114.993 308.443 114.766C308.041 114.536 307.731 114.212 307.513 113.793C307.295 113.371 307.186 112.873 307.186 112.298C307.186 111.737 307.295 111.244 307.513 110.82C307.731 110.397 308.037 110.066 308.433 109.83C308.83 109.593 309.297 109.474 309.832 109.474C310.192 109.474 310.527 109.532 310.837 109.648C311.149 109.762 311.422 109.934 311.654 110.163C311.888 110.393 312.07 110.682 312.2 111.03C312.331 111.375 312.396 111.78 312.396 112.244V112.66H307.79V111.722H310.972C310.972 111.504 310.924 111.312 310.83 111.143C310.735 110.975 310.604 110.844 310.436 110.749C310.27 110.652 310.077 110.604 309.857 110.604C309.627 110.604 309.423 110.657 309.246 110.763C309.071 110.868 308.933 111.009 308.834 111.186C308.735 111.361 308.684 111.557 308.681 111.772V112.663C308.681 112.933 308.731 113.166 308.83 113.363C308.932 113.559 309.075 113.711 309.26 113.817C309.445 113.924 309.664 113.977 309.917 113.977C310.085 113.977 310.239 113.954 310.379 113.906C310.518 113.859 310.638 113.788 310.737 113.693C310.837 113.598 310.913 113.482 310.965 113.345L312.364 113.438C312.293 113.774 312.147 114.067 311.927 114.318C311.709 114.567 311.427 114.761 311.082 114.901C310.739 115.038 310.342 115.107 309.892 115.107Z" fill="white"/>
<path d="M292.537 109.545H293.537V108.545H292.537V109.545ZM292.537 110.682V111.682H293.537V110.682H292.537ZM289.17 110.682H288.17V111.682H289.17V110.682ZM289.17 109.545V108.545H288.17V109.545H289.17ZM289.941 115H288.941V116H289.941V115ZM290.172 108.168L289.314 107.653L289.311 107.659L290.172 108.168ZM290.811 107.582L290.377 106.681L290.377 106.681L290.811 107.582ZM292.366 107.44L292.184 108.423L292.187 108.423L292.366 107.44ZM292.8 107.536L293.773 107.767L293.991 106.849L293.087 106.578L292.8 107.536ZM292.53 108.672L292.225 109.624L293.253 109.953L293.503 108.903L292.53 108.672ZM292.31 108.619L292.119 109.6L292.124 109.601L292.31 108.619ZM291.582 108.75L292.34 109.402L292.347 109.394L291.582 108.75ZM291.45 115V116H292.45V115H291.45ZM292.537 109.545H291.537V110.682H292.537H293.537V109.545H292.537ZM292.537 110.682V109.682H289.17V110.682V111.682H292.537V110.682ZM289.17 110.682H290.17V109.545H289.17H288.17V110.682H289.17ZM289.17 109.545V110.545H292.537V109.545V108.545H289.17V109.545ZM289.941 115H290.941V109.151H289.941H288.941V115H289.941ZM289.941 109.151H290.941C290.941 108.881 290.994 108.742 291.033 108.676L290.172 108.168L289.311 107.659C289.042 108.114 288.941 108.631 288.941 109.151H289.941ZM290.172 108.168L291.029 108.682C291.087 108.587 291.154 108.527 291.246 108.482L290.811 107.582L290.377 106.681C289.929 106.897 289.57 107.228 289.314 107.653L290.172 108.168ZM290.811 107.582L291.246 108.482C291.362 108.426 291.516 108.386 291.731 108.386V107.386V106.386C291.259 106.386 290.8 106.477 290.377 106.681L290.811 107.582ZM291.731 107.386V108.386C291.913 108.386 292.063 108.4 292.184 108.423L292.366 107.44L292.549 106.456C292.287 106.408 292.013 106.386 291.731 106.386V107.386ZM292.366 107.44L292.187 108.423C292.373 108.457 292.473 108.481 292.512 108.493L292.8 107.536L293.087 106.578C292.937 106.533 292.749 106.493 292.546 106.456L292.366 107.44ZM292.8 107.536L291.827 107.304L291.557 108.441L292.53 108.672L293.503 108.903L293.773 107.767L292.8 107.536ZM292.53 108.672L292.835 107.719C292.724 107.684 292.608 107.657 292.496 107.636L292.31 108.619L292.124 109.601C292.187 109.613 292.218 109.622 292.225 109.624L292.53 108.672ZM292.31 108.619L292.501 107.637C292.35 107.608 292.199 107.594 292.047 107.594V108.594V109.594C292.075 109.594 292.099 109.596 292.119 109.6L292.31 108.619ZM292.047 108.594V107.594C291.713 107.594 291.187 107.666 290.816 108.106L291.582 108.75L292.347 109.394C292.251 109.508 292.143 109.56 292.082 109.581C292.027 109.599 292.008 109.594 292.047 109.594V108.594ZM291.582 108.75L290.824 108.098C290.53 108.439 290.45 108.845 290.45 109.18H291.45H292.45C292.45 109.145 292.458 109.265 292.34 109.402L291.582 108.75ZM291.45 109.18H290.45V115H291.45H292.45V109.18H291.45ZM291.45 115V114H289.941V115V116H291.45V115ZM293.891 114.922L293.479 115.833L293.485 115.836L293.891 114.922ZM293.244 114.379L292.405 114.922L292.411 114.931L293.244 114.379ZM293.177 112.713L292.297 112.238L292.297 112.238L293.177 112.713ZM293.632 112.216L293.084 111.379L293.084 111.379L293.632 112.216ZM294.285 111.932L294.034 110.964L294.031 110.965L294.285 111.932ZM295.059 111.797L295.155 112.792L295.163 112.791L295.059 111.797ZM295.826 111.705L295.971 112.694L295.983 112.692L295.826 111.705ZM296.249 111.57L295.689 110.741L295.689 110.741L296.249 111.57ZM296.167 110.763L295.506 111.514L295.512 111.519L296.167 110.763ZM294.921 110.76L295.513 111.566L295.521 111.56L294.921 110.76ZM294.601 111.207L294.52 112.204L295.334 112.27L295.562 111.485L294.601 111.207ZM293.202 111.094L292.224 110.884L291.985 111.998L293.121 112.09L293.202 111.094ZM293.621 110.234L294.378 110.888L294.381 110.884L293.621 110.234ZM294.427 109.673L294.795 110.603L294.798 110.602L294.427 109.673ZM296.448 109.581L296.199 110.55L296.201 110.55L296.448 109.581ZM297.19 109.911L296.621 110.733L296.625 110.736L297.19 109.911ZM297.705 110.487L296.823 110.958L296.825 110.962L297.705 110.487ZM297.893 115V116H298.893V115H297.893ZM296.458 115H295.458V116H296.458V115ZM296.458 114.244H297.458V113.244H296.458V114.244ZM296.416 114.244V113.244H295.805L295.526 113.787L296.416 114.244ZM296.064 114.695L296.721 115.449L296.728 115.443L296.064 114.695ZM295.535 114.996L295.861 115.942L295.871 115.938L295.535 114.996ZM295.844 113.928L296.301 114.817L296.311 114.812L295.844 113.928ZM296.245 113.565L295.403 113.026L295.403 113.026L296.245 113.565ZM296.391 112.472H297.391V110.629L295.846 111.633L296.391 112.472ZM296.195 112.557L296.478 113.516L296.487 113.514L296.495 113.511L296.195 112.557ZM295.922 112.624L296.105 113.607L296.116 113.605L296.127 113.603L295.922 112.624ZM295.617 112.678L295.755 113.668L295.766 113.666L295.777 113.665L295.617 112.678ZM295.34 112.717L295.198 111.727L295.195 111.727L295.34 112.717ZM294.874 112.841L295.268 113.76L295.268 113.76L294.874 112.841ZM294.566 113.072L295.356 113.684L295.363 113.675L294.566 113.072ZM294.679 113.899L294.089 114.707L294.097 114.712L294.104 114.717L294.679 113.899ZM294.821 115.103V114.103C294.59 114.103 294.421 114.063 294.296 114.008L293.891 114.922L293.485 115.836C293.905 116.022 294.357 116.103 294.821 116.103V115.103ZM293.891 114.922L294.303 114.011C294.194 113.962 294.128 113.902 294.078 113.826L293.244 114.379L292.411 114.931C292.678 115.334 293.043 115.636 293.479 115.833L293.891 114.922ZM293.244 114.379L294.084 113.835C294.056 113.792 294.01 113.692 294.01 113.477H293.01H292.01C292.01 113.981 292.12 114.482 292.405 114.922L293.244 114.379ZM293.01 113.477H294.01C294.01 113.292 294.044 113.212 294.057 113.188L293.177 112.713L292.297 112.238C292.087 112.626 292.01 113.055 292.01 113.477H293.01ZM293.177 112.713L294.057 113.188C294.091 113.125 294.13 113.085 294.179 113.053L293.632 112.216L293.084 111.379C292.75 111.598 292.486 111.889 292.297 112.238L293.177 112.713ZM293.632 112.216L294.179 113.053C294.272 112.992 294.389 112.938 294.539 112.899L294.285 111.932L294.031 110.965C293.694 111.053 293.375 111.189 293.084 111.379L293.632 112.216ZM294.285 111.932L294.536 112.9C294.728 112.85 294.934 112.814 295.155 112.792L295.059 111.797L294.963 110.801C294.644 110.832 294.334 110.886 294.034 110.964L294.285 111.932ZM295.059 111.797L295.163 112.791C295.487 112.758 295.758 112.725 295.971 112.694L295.826 111.705L295.681 110.715C295.507 110.741 295.266 110.77 294.955 110.802L295.059 111.797ZM295.826 111.705L295.983 112.692C296.218 112.655 296.536 112.583 296.809 112.398L296.249 111.57L295.689 110.741C295.721 110.72 295.745 110.707 295.758 110.701C295.771 110.695 295.777 110.694 295.773 110.695C295.769 110.696 295.759 110.699 295.741 110.703C295.723 110.707 295.7 110.712 295.67 110.717L295.826 111.705ZM296.249 111.57L296.809 112.398C297.202 112.133 297.38 111.717 297.38 111.307H296.38H295.38C295.38 111.238 295.394 111.131 295.453 111.012C295.514 110.89 295.602 110.8 295.689 110.741L296.249 111.57ZM296.38 111.307H297.38V111.286H296.38H295.38V111.307H296.38ZM296.38 111.286H297.38C297.38 110.833 297.226 110.358 296.822 110.008L296.167 110.763L295.512 111.519C295.464 111.478 295.425 111.423 295.401 111.364C295.379 111.31 295.38 111.278 295.38 111.286H296.38ZM296.167 110.763L296.828 110.013C296.446 109.676 295.978 109.579 295.57 109.579V110.579V111.579C295.622 111.579 295.634 111.585 295.617 111.58C295.598 111.574 295.554 111.556 295.506 111.514L296.167 110.763ZM295.57 110.579V109.579C295.157 109.579 294.707 109.67 294.321 109.96L294.921 110.76L295.521 111.56C295.491 111.582 295.47 111.588 295.472 111.587C295.477 111.586 295.507 111.579 295.57 111.579V110.579ZM294.921 110.76L294.328 109.954C294.002 110.194 293.758 110.523 293.64 110.929L294.601 111.207L295.562 111.485C295.557 111.502 295.548 111.522 295.534 111.542C295.52 111.561 295.51 111.568 295.513 111.566L294.921 110.76ZM294.601 111.207L294.682 110.211L293.283 110.097L293.202 111.094L293.121 112.09L294.52 112.204L294.601 111.207ZM293.202 111.094L294.18 111.303C294.218 111.125 294.286 110.994 294.378 110.888L293.621 110.234L292.864 109.581C292.539 109.958 292.328 110.399 292.224 110.884L293.202 111.094ZM293.621 110.234L294.381 110.884C294.473 110.777 294.602 110.68 294.795 110.603L294.427 109.673L294.059 108.743C293.594 108.927 293.186 109.204 292.861 109.585L293.621 110.234ZM294.427 109.673L294.798 110.602C294.989 110.526 295.242 110.474 295.578 110.474V109.474V108.474C295.042 108.474 294.528 108.556 294.056 108.745L294.427 109.673ZM295.578 109.474V110.474C295.802 110.474 296.008 110.501 296.199 110.55L296.448 109.581L296.696 108.612C296.333 108.519 295.959 108.474 295.578 108.474V109.474ZM296.448 109.581L296.201 110.55C296.377 110.595 296.512 110.659 296.621 110.733L297.19 109.911L297.759 109.089C297.436 108.866 297.077 108.709 296.694 108.612L296.448 109.581ZM297.19 109.911L296.625 110.736C296.709 110.794 296.773 110.864 296.823 110.958L297.705 110.487L298.586 110.015C298.386 109.64 298.106 109.327 297.755 109.086L297.19 109.911ZM297.705 110.487L296.825 110.962C296.855 111.018 296.893 111.125 296.893 111.321H297.893H298.893C298.893 110.868 298.805 110.419 298.584 110.011L297.705 110.487ZM297.893 111.321H296.893V115H297.893H298.893V111.321H297.893ZM297.893 115V114H296.458V115V116H297.893V115ZM296.458 115H297.458V114.244H296.458H295.458V115H296.458ZM296.458 114.244V113.244H296.416V114.244V115.244H296.458V114.244ZM296.416 114.244L295.526 113.787C295.497 113.844 295.457 113.897 295.4 113.947L296.064 114.695L296.728 115.443C296.965 115.232 297.16 114.984 297.305 114.701L296.416 114.244ZM296.064 114.695L295.407 113.941C295.366 113.977 295.302 114.018 295.199 114.054L295.535 114.996L295.871 115.938C296.18 115.828 296.469 115.668 296.721 115.449L296.064 114.695ZM295.535 114.996L295.209 114.051C295.13 114.078 295.006 114.103 294.821 114.103V115.103V116.103C295.177 116.103 295.529 116.056 295.861 115.942L295.535 114.996ZM295.254 114.059V115.059C295.61 115.059 295.968 114.988 296.301 114.817L295.844 113.928L295.387 113.038C295.379 113.042 295.344 113.059 295.254 113.059V114.059ZM295.844 113.928L296.311 114.812C296.623 114.647 296.89 114.412 297.087 114.105L296.245 113.565L295.403 113.026C295.403 113.027 295.403 113.026 295.402 113.027C295.401 113.028 295.394 113.034 295.377 113.043L295.844 113.928ZM296.245 113.565L297.087 114.105C297.294 113.782 297.391 113.42 297.391 113.05H296.391H295.391C295.391 113.061 295.39 113.06 295.392 113.051C295.393 113.047 295.395 113.042 295.397 113.037C295.399 113.032 295.402 113.029 295.403 113.026L296.245 113.565ZM296.391 113.05H297.391V112.472H296.391H295.391V113.05H296.391ZM296.391 112.472L295.846 111.633C295.878 111.612 295.901 111.602 295.907 111.599C295.913 111.597 295.91 111.598 295.896 111.603L296.195 112.557L296.495 113.511C296.624 113.47 296.783 113.409 296.936 113.31L296.391 112.472ZM296.195 112.557L295.913 111.597C295.864 111.612 295.799 111.628 295.717 111.645L295.922 112.624L296.127 113.603C296.249 113.578 296.366 113.549 296.478 113.516L296.195 112.557ZM295.922 112.624L295.739 111.641C295.645 111.659 295.55 111.675 295.456 111.691L295.617 112.678L295.777 113.665C295.887 113.647 295.996 113.628 296.105 113.607L295.922 112.624ZM295.617 112.678L295.478 111.687C295.376 111.701 295.282 111.715 295.198 111.727L295.34 112.717L295.481 113.707C295.563 113.695 295.654 113.682 295.755 113.668L295.617 112.678ZM295.34 112.717L295.195 111.727C294.951 111.763 294.709 111.824 294.481 111.922L294.874 112.841L295.268 113.76C295.305 113.744 295.373 113.722 295.485 113.706L295.34 112.717ZM294.874 112.841L294.481 111.922C294.218 112.034 293.964 112.209 293.768 112.469L294.566 113.072L295.363 113.675C295.34 113.705 295.316 113.728 295.296 113.742C295.277 113.756 295.266 113.761 295.268 113.76L294.874 112.841ZM294.566 113.072L293.775 112.459C293.542 112.76 293.455 113.106 293.455 113.427H294.455H295.455C295.455 113.442 295.453 113.478 295.438 113.528C295.422 113.579 295.395 113.634 295.356 113.684L294.566 113.072ZM294.455 113.427H293.455C293.455 113.91 293.65 114.386 294.089 114.707L294.679 113.899L295.269 113.092C295.321 113.129 295.377 113.19 295.415 113.271C295.452 113.349 295.455 113.409 295.455 113.427H294.455ZM294.679 113.899L294.104 114.717C294.462 114.969 294.869 115.059 295.254 115.059V114.059V113.059C295.214 113.059 295.2 113.054 295.204 113.055C295.207 113.056 295.213 113.058 295.222 113.062C295.232 113.067 295.243 113.073 295.254 113.081L294.679 113.899ZM300.579 107.727H301.579V106.727H300.579V107.727ZM300.579 115V116H301.579V115H300.579ZM299.067 115H298.067V116H299.067V115ZM299.067 107.727V106.727H298.067V107.727H299.067ZM300.579 107.727H299.579V115H300.579H301.579V107.727H300.579ZM300.579 115V114H299.067V115V116H300.579V115ZM299.067 115H300.067V107.727H299.067H298.067V115H299.067ZM299.067 107.727V108.727H300.579V107.727V106.727H299.067V107.727ZM306.33 111.101L306.391 112.099L307.461 112.033L307.321 110.97L306.33 111.101ZM304.945 111.186L303.964 111.382L304.135 112.238L305.006 112.184L304.945 111.186ZM304.792 110.866L304.013 111.494L304.021 111.503L304.792 110.866ZM304.483 110.636L304.056 111.54L304.067 111.545L304.077 111.549L304.483 110.636ZM303.439 110.696L303.955 111.552L303.964 111.547L303.439 110.696ZM303.354 111.417L302.7 112.174L302.7 112.174L303.354 111.417ZM303.89 111.634L303.68 112.611L303.692 112.614L303.89 111.634ZM304.877 111.832L305.078 110.853L305.075 110.852L304.877 111.832ZM306.063 112.358L305.383 113.091L305.383 113.091L306.063 112.358ZM306.138 114.251L305.35 113.635L305.346 113.64L306.138 114.251ZM305.278 114.883L305.659 115.807L305.662 115.806L305.278 114.883ZM302.299 114.656L301.719 115.471L301.725 115.474L302.299 114.656ZM301.55 113.42L301.497 112.421L300.407 112.478L300.559 113.559L301.55 113.42ZM303.038 113.342L304.017 113.141L303.845 112.298L302.985 112.343L303.038 113.342ZM303.364 113.846L302.807 114.676L302.815 114.681L303.364 113.846ZM304.668 113.864L305.202 114.709L305.205 114.707L304.668 113.864ZM304.916 113.462L305.916 113.477L305.916 113.461L305.916 113.445L304.916 113.462ZM304.742 113.125L304.121 113.909L304.132 113.917L304.742 113.125ZM304.217 112.919L304.413 111.938L304.412 111.938L304.217 112.919ZM303.272 112.731L303.076 113.711L303.077 113.712L303.272 112.731ZM302.082 112.177L301.369 112.878L301.372 112.881L302.082 112.177ZM301.979 110.266L301.182 109.663L301.179 109.668L301.979 110.266ZM302.786 109.68L302.418 108.75L302.416 108.751L302.786 109.68ZM305.634 109.911L305.04 110.716L305.043 110.718L305.634 109.911ZM306.33 111.101L306.268 110.103L304.883 110.188L304.945 111.186L305.006 112.184L306.391 112.099L306.33 111.101ZM304.945 111.186L305.925 110.99C305.869 110.707 305.745 110.45 305.563 110.23L304.792 110.866L304.021 111.503C304.01 111.49 303.997 111.472 303.986 111.449C303.975 111.425 303.968 111.402 303.964 111.382L304.945 111.186ZM304.792 110.866L305.571 110.239C305.381 110.004 305.144 109.835 304.889 109.722L304.483 110.636L304.077 111.549C304.079 111.55 304.071 111.547 304.058 111.537C304.044 111.527 304.028 111.512 304.013 111.493L304.792 110.866ZM304.483 110.636L304.91 109.731C304.62 109.595 304.317 109.547 304.032 109.547V110.547V111.547C304.064 111.547 304.08 111.55 304.083 111.55C304.086 111.551 304.075 111.549 304.056 111.54L304.483 110.636ZM304.032 110.547V109.547C303.656 109.547 303.266 109.627 302.913 109.845L303.439 110.696L303.964 111.547C303.951 111.555 303.945 111.556 303.952 111.554C303.96 111.552 303.985 111.547 304.032 111.547V110.547ZM303.439 110.696L302.923 109.84C302.515 110.085 302.197 110.514 302.197 111.087H303.197H304.197C304.197 111.178 304.172 111.289 304.108 111.392C304.048 111.49 303.98 111.537 303.955 111.552L303.439 110.696ZM303.197 111.087H302.197C302.197 111.526 302.39 111.906 302.7 112.174L303.354 111.417L304.007 110.66C304.047 110.694 304.1 110.753 304.14 110.839C304.182 110.927 304.197 111.014 304.197 111.087H303.197ZM303.354 111.417L302.7 112.174C303 112.433 303.383 112.548 303.68 112.611L303.89 111.634L304.1 110.656C304.012 110.637 303.962 110.62 303.94 110.611C303.931 110.607 303.933 110.607 303.943 110.613C303.953 110.619 303.977 110.634 304.007 110.66L303.354 111.417ZM303.89 111.634L303.692 112.614L304.68 112.813L304.877 111.832L305.075 110.852L304.087 110.653L303.89 111.634ZM304.877 111.832L304.676 112.812C305.114 112.902 305.31 113.023 305.383 113.091L306.063 112.358L306.743 111.625C306.296 111.21 305.701 110.981 305.078 110.853L304.877 111.832ZM306.063 112.358L305.383 113.091C305.417 113.122 305.454 113.162 305.454 113.31H306.454H307.454C307.454 112.671 307.231 112.077 306.743 111.625L306.063 112.358ZM306.454 113.31H305.454C305.454 113.455 305.417 113.549 305.35 113.635L306.138 114.251L306.926 114.866C307.28 114.412 307.454 113.88 307.454 113.31H306.454ZM306.138 114.251L305.346 113.64C305.26 113.751 305.124 113.864 304.895 113.959L305.278 114.883L305.662 115.806C306.162 115.599 306.599 115.29 306.929 114.862L306.138 114.251ZM305.278 114.883L304.898 113.958C304.679 114.048 304.394 114.107 304.025 114.107V115.107V116.107C304.602 116.107 305.154 116.016 305.659 115.807L305.278 114.883ZM304.025 115.107V114.107C303.432 114.107 303.081 113.982 302.873 113.837L302.299 114.656L301.725 115.474C302.374 115.93 303.173 116.107 304.025 116.107V115.107ZM302.299 114.656L302.879 113.841C302.678 113.698 302.575 113.531 302.54 113.28L301.55 113.42L300.559 113.559C300.671 114.35 301.068 115.007 301.719 115.47L302.299 114.656ZM301.55 113.42L301.602 114.418L303.09 114.34L303.038 113.342L302.985 112.343L301.497 112.421L301.55 113.42ZM303.038 113.342L302.058 113.542C302.151 113.997 302.398 114.401 302.807 114.676L303.364 113.846L303.922 113.016C303.943 113.03 303.97 113.055 303.992 113.089C304.014 113.122 304.018 113.144 304.017 113.141L303.038 113.342ZM303.364 113.846L302.815 114.681C303.194 114.931 303.622 115.016 304.028 115.016V114.016V113.016C303.895 113.016 303.88 112.988 303.914 113.01L303.364 113.846ZM304.028 114.016V115.016C304.412 115.016 304.83 114.944 305.202 114.709L304.668 113.864L304.133 113.018C304.158 113.002 304.17 113.002 304.155 113.006C304.138 113.009 304.098 113.016 304.028 113.016V114.016ZM304.668 113.864L305.205 114.707C305.591 114.461 305.908 114.043 305.916 113.477L304.916 113.462L303.916 113.448C303.918 113.356 303.944 113.252 304.002 113.159C304.056 113.072 304.114 113.031 304.13 113.02L304.668 113.864ZM304.916 113.462L305.916 113.445C305.908 112.988 305.695 112.597 305.353 112.333L304.742 113.125L304.132 113.917C304.088 113.883 304.029 113.824 303.982 113.733C303.935 113.642 303.918 113.551 303.916 113.48L304.916 113.462ZM304.742 113.125L305.363 112.341C305.069 112.108 304.714 111.999 304.413 111.938L304.217 112.919L304.021 113.9C304.097 113.915 304.141 113.929 304.161 113.937C304.182 113.945 304.161 113.941 304.121 113.909L304.742 113.125ZM304.217 112.919L304.412 111.938L303.467 111.75L303.272 112.731L303.077 113.712L304.021 113.9L304.217 112.919ZM303.272 112.731L303.468 111.75C303.044 111.665 302.862 111.543 302.793 111.473L302.082 112.177L301.372 112.881C301.824 113.337 302.435 113.583 303.076 113.711L303.272 112.731ZM302.082 112.177L302.796 111.476C302.742 111.421 302.695 111.347 302.695 111.172H301.695H300.695C300.695 111.811 300.907 112.407 301.369 112.877L302.082 112.177ZM301.695 111.172H302.695C302.695 111.013 302.734 110.927 302.78 110.865L301.979 110.266L301.179 109.668C300.846 110.112 300.695 110.63 300.695 111.172H301.695ZM301.979 110.266L302.777 110.87C302.841 110.786 302.95 110.691 303.155 110.61L302.786 109.68L302.416 108.751C301.93 108.944 301.502 109.241 301.182 109.663L301.979 110.266ZM302.786 109.68L303.153 110.611C303.359 110.529 303.636 110.474 304.007 110.474V109.474V108.474C303.445 108.474 302.908 108.557 302.418 108.75L302.786 109.68ZM304.007 109.474V110.474C304.566 110.474 304.874 110.594 305.04 110.716L305.634 109.911L306.227 109.106C305.602 108.646 304.826 108.474 304.007 108.474V109.474ZM305.634 109.911L305.043 110.718C305.214 110.843 305.307 110.992 305.338 111.232L306.33 111.101L307.321 110.97C307.22 110.206 306.849 109.562 306.224 109.104L305.634 109.911ZM308.443 114.766L307.948 115.634L307.954 115.638L308.443 114.766ZM307.513 113.793L306.625 114.252L306.626 114.254L307.513 113.793ZM307.513 110.82L306.624 110.363L306.624 110.363L307.513 110.82ZM308.433 109.83L307.921 108.97L307.919 108.972L308.433 109.83ZM310.837 109.648L310.486 110.585L310.495 110.588L310.837 109.648ZM311.654 110.163L310.95 110.874L310.954 110.878L311.654 110.163ZM312.2 111.03L311.264 111.38L311.265 111.382L312.2 111.03ZM312.396 112.66V113.66H313.396V112.66H312.396ZM307.79 112.66H306.79V113.66H307.79V112.66ZM307.79 111.722V110.722H306.79V111.722H307.79ZM310.972 111.722V112.722H311.972V111.722H310.972ZM310.83 111.143L309.958 111.634L309.958 111.634L310.83 111.143ZM310.436 110.749L309.93 111.612L309.937 111.616L309.945 111.621L310.436 110.749ZM309.246 110.763L309.757 111.623L309.76 111.621L309.246 110.763ZM308.834 111.186L309.704 111.68L309.706 111.675L308.834 111.186ZM308.681 111.772L307.681 111.761V111.772H308.681ZM308.83 113.363L307.938 113.814L307.943 113.823L308.83 113.363ZM310.379 113.906L310.058 112.959L310.058 112.959L310.379 113.906ZM310.737 113.693L310.048 112.969L310.048 112.969L310.737 113.693ZM310.965 113.345L311.031 112.347L310.292 112.299L310.03 112.991L310.965 113.345ZM312.364 113.438L313.342 113.644L313.581 112.516L312.43 112.44L312.364 113.438ZM311.927 114.318L311.175 113.659L311.175 113.659L311.927 114.318ZM311.082 114.901L311.453 115.829L311.457 115.828L311.082 114.901ZM309.892 115.107V114.107C309.467 114.107 309.16 114.021 308.933 113.894L308.443 114.766L307.954 115.638C308.536 115.965 309.195 116.107 309.892 116.107V115.107ZM308.443 114.766L308.939 113.897C308.707 113.765 308.531 113.583 308.4 113.331L307.513 113.793L306.626 114.254C306.93 114.84 307.375 115.307 307.948 115.634L308.443 114.766ZM307.513 113.793L308.401 113.333C308.271 113.081 308.186 112.747 308.186 112.298H307.186H306.186C306.186 112.999 306.319 113.661 306.625 114.252L307.513 113.793ZM307.186 112.298H308.186C308.186 111.867 308.269 111.537 308.402 111.277L307.513 110.82L306.624 110.363C306.321 110.951 306.186 111.606 306.186 112.298H307.186ZM307.513 110.82L308.402 111.277C308.538 111.014 308.717 110.825 308.946 110.687L308.433 109.83L307.919 108.972C307.358 109.308 306.924 109.779 306.624 110.363L307.513 110.82ZM308.433 109.83L308.944 110.689C309.164 110.558 309.448 110.474 309.832 110.474V109.474V108.474C309.145 108.474 308.496 108.628 307.921 108.97L308.433 109.83ZM309.832 109.474V110.474C310.082 110.474 310.298 110.514 310.486 110.585L310.837 109.648L311.187 108.712C310.756 108.55 310.301 108.474 309.832 108.474V109.474ZM310.837 109.648L310.495 110.588C310.674 110.653 310.823 110.748 310.95 110.874L311.654 110.163L312.357 109.453C312.02 109.119 311.624 108.871 311.179 108.709L310.837 109.648ZM311.654 110.163L310.954 110.878C311.07 110.992 311.178 111.151 311.264 111.38L312.2 111.03L313.137 110.679C312.962 110.212 312.705 109.794 312.353 109.449L311.654 110.163ZM312.2 111.03L311.265 111.382C311.343 111.591 311.396 111.871 311.396 112.244H312.396H313.396C313.396 111.69 313.318 111.16 313.136 110.677L312.2 111.03ZM312.396 112.244H311.396V112.66H312.396H313.396V112.244H312.396ZM312.396 112.66V111.66H307.79V112.66V113.66H312.396V112.66ZM307.79 112.66H308.79V111.722H307.79H306.79V112.66H307.79ZM307.79 111.722V112.722H310.972V111.722V110.722H307.79V111.722ZM310.972 111.722H311.972C311.972 111.355 311.89 110.989 311.701 110.653L310.83 111.143L309.958 111.634C309.96 111.637 309.962 111.642 309.965 111.653C309.968 111.664 309.972 111.686 309.972 111.722H310.972ZM310.83 111.143L311.701 110.653C311.517 110.325 311.254 110.062 310.926 109.878L310.436 110.749L309.945 111.621C309.949 111.623 309.951 111.625 309.952 111.625C309.953 111.626 309.953 111.626 309.953 111.626C309.953 111.626 309.953 111.626 309.954 111.627C309.954 111.628 309.956 111.63 309.958 111.634L310.83 111.143ZM310.436 110.749L310.941 109.886C310.601 109.687 310.228 109.604 309.857 109.604V110.604V111.604C309.893 111.604 309.914 111.608 309.923 111.61C309.931 111.612 309.932 111.613 309.93 111.612L310.436 110.749ZM309.857 110.604V109.604C309.466 109.604 309.081 109.696 308.731 109.906L309.246 110.763L309.76 111.621C309.766 111.618 309.788 111.604 309.857 111.604V110.604ZM309.246 110.763L308.735 109.904C308.409 110.098 308.147 110.366 307.961 110.697L308.834 111.186L309.706 111.675C309.72 111.651 309.733 111.638 309.757 111.623L309.246 110.763ZM308.834 111.186L307.964 110.692C307.775 111.025 307.685 111.388 307.681 111.761L308.681 111.772L309.681 111.783C309.682 111.725 309.694 111.697 309.704 111.68L308.834 111.186ZM308.681 111.772H307.681V112.663H308.681H309.681V111.772H308.681ZM308.681 112.663H307.681C307.681 113.055 307.754 113.45 307.938 113.814L308.83 113.363L309.723 112.911C309.708 112.883 309.681 112.811 309.681 112.663H308.681ZM308.83 113.363L307.943 113.823C308.129 114.182 308.404 114.478 308.76 114.684L309.26 113.817L309.76 112.951C309.747 112.944 309.736 112.937 309.718 112.903L308.83 113.363ZM309.26 113.817L308.76 114.684C309.123 114.893 309.521 114.977 309.917 114.977V113.977V112.977C309.806 112.977 309.766 112.955 309.76 112.951L309.26 113.817ZM309.917 113.977V114.977C310.179 114.977 310.443 114.94 310.7 114.853L310.379 113.906L310.058 112.959C310.035 112.967 309.991 112.977 309.917 112.977V113.977ZM310.379 113.906L310.7 114.853C310.967 114.763 311.215 114.62 311.427 114.417L310.737 113.693L310.048 112.969C310.053 112.964 310.058 112.96 310.062 112.958C310.066 112.956 310.065 112.957 310.058 112.959L310.379 113.906ZM310.737 113.693L311.427 114.417C311.642 114.212 311.798 113.967 311.9 113.7L310.965 113.345L310.03 112.991C310.028 112.996 310.028 112.994 310.032 112.988C310.035 112.982 310.041 112.975 310.048 112.969L310.737 113.693ZM310.965 113.345L310.899 114.343L312.298 114.435L312.364 113.438L312.43 112.44L311.031 112.347L310.965 113.345ZM312.364 113.438L311.385 113.231C311.349 113.404 311.279 113.541 311.175 113.659L311.927 114.318L312.679 114.978C313.015 114.594 313.237 114.143 313.342 113.644L312.364 113.438ZM311.927 114.318L311.175 113.659C311.073 113.776 310.926 113.885 310.707 113.973L311.082 114.901L311.457 115.828C311.929 115.637 312.346 115.358 312.679 114.977L311.927 114.318ZM311.082 114.901L310.71 113.972C310.508 114.053 310.242 114.107 309.892 114.107V115.107V116.107C310.442 116.107 310.969 116.023 311.453 115.829L311.082 114.901Z" fill="#C50000" mask="url(#path-6-outside-1_170_205)"/>
<rect y="25" width="225" height="59" fill="#F0B43B"/>
<path d="M174 106H199V131L174 106Z" fill="#F0B43B"/>
<path d="M149 106H174L149 131V106Z" fill="#F0B43B"/>
<rect x="199" y="106" width="50" height="24" transform="rotate(-180 199 106)" fill="#F0B43B"/>
<path d="M149 126L174 101L199 126V131L174 106L149 131V126Z" fill="#A87C2D"/>
<circle opacity="0.01" cx="174" cy="106" r="1" transform="rotate(-180 174 106)" fill="#D9D9D9"/>
<path d="M113 25H88V0L113 25Z" fill="#F0B43B"/>
<path d="M138 25H113L138 0V25Z" fill="#F0B43B"/>
<path d="M138 5L113 30L88 5V0L113 25L138 0V5Z" fill="white"/>
<circle opacity="0.01" cx="113" cy="25" r="1" fill="#D9D9D9"/>
<path d="M113 359L138 334H88L113 359Z" fill="white"/>
<path d="M113 354L133 334H93L113 354Z" fill="white"/>
<path d="M113 354L133 334H93L113 354Z" fill="#F0B43B"/>
<path d="M113 350L129 334H97L113 350Z" fill="#F0B43B"/>
<mask id="path-18-outside-2_170_205" maskUnits="userSpaceOnUse" x="102" y="336" width="22" height="10" fill="black">
<rect fill="white" x="102" y="336" width="22" height="10"/>
<path d="M106.505 338.545V339.682H103.22V338.545H106.505ZM103.966 337.239H105.479V342.324C105.479 342.464 105.5 342.572 105.543 342.651C105.585 342.726 105.644 342.78 105.72 342.81C105.798 342.841 105.888 342.857 105.99 342.857C106.061 342.857 106.132 342.851 106.203 342.839C106.274 342.825 106.329 342.814 106.366 342.807L106.604 343.933C106.529 343.956 106.422 343.983 106.285 344.014C106.147 344.047 105.981 344.067 105.784 344.075C105.42 344.089 105.1 344.04 104.825 343.929C104.553 343.818 104.341 343.645 104.19 343.411C104.038 343.176 103.964 342.88 103.966 342.523V337.239ZM107.49 344V338.545H108.957V339.497H109.014C109.113 339.159 109.28 338.903 109.515 338.73C109.749 338.555 110.019 338.467 110.324 338.467C110.4 338.467 110.482 338.472 110.569 338.482C110.657 338.491 110.734 338.504 110.8 338.521V339.863C110.729 339.842 110.631 339.823 110.505 339.806C110.38 339.79 110.265 339.781 110.161 339.781C109.938 339.781 109.739 339.83 109.564 339.927C109.391 340.022 109.254 340.154 109.152 340.325C109.053 340.495 109.003 340.692 109.003 340.914V344H107.49ZM115.08 341.678V338.545H116.593V344H115.14V343.009H115.084C114.961 343.329 114.756 343.586 114.469 343.78C114.185 343.974 113.838 344.071 113.429 344.071C113.064 344.071 112.743 343.988 112.466 343.822C112.189 343.657 111.973 343.421 111.817 343.116C111.663 342.81 111.585 342.445 111.582 342.018V338.545H113.095V341.749C113.097 342.071 113.184 342.325 113.354 342.512C113.525 342.699 113.753 342.793 114.04 342.793C114.222 342.793 114.392 342.751 114.551 342.668C114.71 342.583 114.837 342.458 114.934 342.292C115.034 342.126 115.082 341.921 115.08 341.678ZM120.289 344.107C119.728 344.107 119.245 343.993 118.84 343.766C118.437 343.536 118.127 343.212 117.909 342.793C117.692 342.371 117.583 341.873 117.583 341.298C117.583 340.737 117.692 340.244 117.909 339.82C118.127 339.397 118.434 339.066 118.829 338.83C119.227 338.593 119.693 338.474 120.228 338.474C120.588 338.474 120.923 338.532 121.233 338.648C121.546 338.762 121.818 338.934 122.05 339.163C122.284 339.393 122.467 339.682 122.597 340.03C122.727 340.375 122.792 340.78 122.792 341.244V341.66H118.186V340.722H121.368C121.368 340.504 121.321 340.312 121.226 340.143C121.132 339.975 121 339.844 120.832 339.749C120.666 339.652 120.473 339.604 120.253 339.604C120.024 339.604 119.82 339.657 119.642 339.763C119.467 339.868 119.33 340.009 119.23 340.186C119.131 340.361 119.08 340.557 119.078 340.772V341.663C119.078 341.933 119.127 342.166 119.227 342.363C119.329 342.559 119.472 342.711 119.657 342.817C119.841 342.924 120.06 342.977 120.314 342.977C120.482 342.977 120.636 342.954 120.775 342.906C120.915 342.859 121.034 342.788 121.134 342.693C121.233 342.598 121.309 342.482 121.361 342.345L122.76 342.438C122.689 342.774 122.544 343.067 122.324 343.318C122.106 343.567 121.824 343.761 121.478 343.901C121.135 344.038 120.739 344.107 120.289 344.107Z"/>
</mask>
<path d="M106.505 338.545V339.682H103.22V338.545H106.505ZM103.966 337.239H105.479V342.324C105.479 342.464 105.5 342.572 105.543 342.651C105.585 342.726 105.644 342.78 105.72 342.81C105.798 342.841 105.888 342.857 105.99 342.857C106.061 342.857 106.132 342.851 106.203 342.839C106.274 342.825 106.329 342.814 106.366 342.807L106.604 343.933C106.529 343.956 106.422 343.983 106.285 344.014C106.147 344.047 105.981 344.067 105.784 344.075C105.42 344.089 105.1 344.04 104.825 343.929C104.553 343.818 104.341 343.645 104.19 343.411C104.038 343.176 103.964 342.88 103.966 342.523V337.239ZM107.49 344V338.545H108.957V339.497H109.014C109.113 339.159 109.28 338.903 109.515 338.73C109.749 338.555 110.019 338.467 110.324 338.467C110.4 338.467 110.482 338.472 110.569 338.482C110.657 338.491 110.734 338.504 110.8 338.521V339.863C110.729 339.842 110.631 339.823 110.505 339.806C110.38 339.79 110.265 339.781 110.161 339.781C109.938 339.781 109.739 339.83 109.564 339.927C109.391 340.022 109.254 340.154 109.152 340.325C109.053 340.495 109.003 340.692 109.003 340.914V344H107.49ZM115.08 341.678V338.545H116.593V344H115.14V343.009H115.084C114.961 343.329 114.756 343.586 114.469 343.78C114.185 343.974 113.838 344.071 113.429 344.071C113.064 344.071 112.743 343.988 112.466 343.822C112.189 343.657 111.973 343.421 111.817 343.116C111.663 342.81 111.585 342.445 111.582 342.018V338.545H113.095V341.749C113.097 342.071 113.184 342.325 113.354 342.512C113.525 342.699 113.753 342.793 114.04 342.793C114.222 342.793 114.392 342.751 114.551 342.668C114.71 342.583 114.837 342.458 114.934 342.292C115.034 342.126 115.082 341.921 115.08 341.678ZM120.289 344.107C119.728 344.107 119.245 343.993 118.84 343.766C118.437 343.536 118.127 343.212 117.909 342.793C117.692 342.371 117.583 341.873 117.583 341.298C117.583 340.737 117.692 340.244 117.909 339.82C118.127 339.397 118.434 339.066 118.829 338.83C119.227 338.593 119.693 338.474 120.228 338.474C120.588 338.474 120.923 338.532 121.233 338.648C121.546 338.762 121.818 338.934 122.05 339.163C122.284 339.393 122.467 339.682 122.597 340.03C122.727 340.375 122.792 340.78 122.792 341.244V341.66H118.186V340.722H121.368C121.368 340.504 121.321 340.312 121.226 340.143C121.132 339.975 121 339.844 120.832 339.749C120.666 339.652 120.473 339.604 120.253 339.604C120.024 339.604 119.82 339.657 119.642 339.763C119.467 339.868 119.33 340.009 119.23 340.186C119.131 340.361 119.08 340.557 119.078 340.772V341.663C119.078 341.933 119.127 342.166 119.227 342.363C119.329 342.559 119.472 342.711 119.657 342.817C119.841 342.924 120.06 342.977 120.314 342.977C120.482 342.977 120.636 342.954 120.775 342.906C120.915 342.859 121.034 342.788 121.134 342.693C121.233 342.598 121.309 342.482 121.361 342.345L122.76 342.438C122.689 342.774 122.544 343.067 122.324 343.318C122.106 343.567 121.824 343.761 121.478 343.901C121.135 344.038 120.739 344.107 120.289 344.107Z" fill="white"/>
<path d="M106.505 338.545H107.505V337.545H106.505V338.545ZM106.505 339.682V340.682H107.505V339.682H106.505ZM103.22 339.682H102.22V340.682H103.22V339.682ZM103.22 338.545V337.545H102.22V338.545H103.22ZM103.966 337.239V336.239H102.966V337.239H103.966ZM105.479 337.239H106.479V336.239H105.479V337.239ZM105.543 342.651L104.665 343.129L104.671 343.141L105.543 342.651ZM105.72 342.81L105.344 343.737L105.354 343.741L105.72 342.81ZM106.203 342.839L106.368 343.825L106.383 343.823L106.399 343.819L106.203 342.839ZM106.366 342.807L107.345 342.6L107.143 341.644L106.182 341.824L106.366 342.807ZM106.604 343.933L106.903 344.887L107.771 344.616L107.583 343.726L106.604 343.933ZM106.285 344.014L106.066 343.038L106.058 343.04L106.05 343.042L106.285 344.014ZM105.784 344.075L105.748 343.075L105.745 343.075L105.784 344.075ZM104.825 343.929L104.447 344.855L104.45 344.856L104.825 343.929ZM104.19 343.411L105.029 342.868L105.029 342.868L104.19 343.411ZM103.966 342.523L104.966 342.529V342.523H103.966ZM106.505 338.545H105.505V339.682H106.505H107.505V338.545H106.505ZM106.505 339.682V338.682H103.22V339.682V340.682H106.505V339.682ZM103.22 339.682H104.22V338.545H103.22H102.22V339.682H103.22ZM103.22 338.545V339.545H106.505V338.545V337.545H103.22V338.545ZM103.966 337.239V338.239H105.479V337.239V336.239H103.966V337.239ZM105.479 337.239H104.479V342.324H105.479H106.479V337.239H105.479ZM105.479 342.324H104.479C104.479 342.545 104.509 342.844 104.665 343.129L105.543 342.651L106.421 342.172C106.459 342.241 106.472 342.296 106.476 342.318C106.48 342.341 106.479 342.345 106.479 342.324H105.479ZM105.543 342.651L104.671 343.141C104.817 343.4 105.045 343.615 105.344 343.737L105.72 342.81L106.097 341.884C106.163 341.911 106.229 341.951 106.288 342.004C106.346 342.057 106.387 342.112 106.414 342.16L105.543 342.651ZM105.72 342.81L105.354 343.741C105.57 343.826 105.789 343.857 105.99 343.857V342.857V341.857C105.988 341.857 106.026 341.856 106.087 341.88L105.72 342.81ZM105.99 342.857V343.857C106.117 343.857 106.243 343.846 106.368 343.825L106.203 342.839L106.039 341.852C106.021 341.855 106.005 341.857 105.99 341.857V342.857ZM106.203 342.839L106.399 343.819C106.469 343.805 106.519 343.796 106.551 343.79L106.366 342.807L106.182 341.824C106.138 341.832 106.079 341.844 106.007 341.858L106.203 342.839ZM106.366 342.807L105.388 343.014L105.626 344.139L106.604 343.933L107.583 343.726L107.345 342.6L106.366 342.807ZM106.604 343.933L106.306 342.978C106.269 342.99 106.194 343.01 106.066 343.038L106.285 344.014L106.504 344.99C106.651 344.957 106.788 344.923 106.903 344.887L106.604 343.933ZM106.285 344.014L106.05 343.042C105.998 343.055 105.901 343.07 105.748 343.075L105.784 344.075L105.82 345.074C106.06 345.065 106.297 345.04 106.519 344.986L106.285 344.014ZM105.784 344.075L105.745 343.075C105.49 343.085 105.317 343.049 105.201 343.002L104.825 343.929L104.45 344.856C104.883 345.031 105.349 345.092 105.823 345.074L105.784 344.075ZM104.825 343.929L105.204 343.003C105.11 342.965 105.064 342.921 105.029 342.868L104.19 343.411L103.35 343.953C103.619 344.369 103.996 344.67 104.447 344.855L104.825 343.929ZM104.19 343.411L105.029 342.868C105.01 342.837 104.964 342.746 104.966 342.529L103.966 342.523L102.966 342.516C102.963 343.014 103.066 343.515 103.35 343.953L104.19 343.411ZM103.966 342.523H104.966V337.239H103.966H102.966V342.523H103.966ZM107.49 344H106.49V345H107.49V344ZM107.49 338.545V337.545H106.49V338.545H107.49ZM108.957 338.545H109.957V337.545H108.957V338.545ZM108.957 339.497H107.957V340.497H108.957V339.497ZM109.014 339.497V340.497H109.762L109.973 339.779L109.014 339.497ZM109.515 338.73L110.108 339.535L110.113 339.531L109.515 338.73ZM110.569 338.482L110.677 337.487L110.677 337.487L110.569 338.482ZM110.8 338.521H111.8V337.74L111.043 337.55L110.8 338.521ZM110.8 339.863L110.513 340.821L111.8 341.207V339.863H110.8ZM109.564 339.927L110.045 340.804L110.049 340.802L109.564 339.927ZM109.152 340.325L108.294 339.812L108.289 339.821L109.152 340.325ZM109.003 344V345H110.003V344H109.003ZM107.49 344H108.49V338.545H107.49H106.49V344H107.49ZM107.49 338.545V339.545H108.957V338.545V337.545H107.49V338.545ZM108.957 338.545H107.957V339.497H108.957H109.957V338.545H108.957ZM108.957 339.497V340.497H109.014V339.497V338.497H108.957V339.497ZM109.014 339.497L109.973 339.779C110.025 339.605 110.084 339.552 110.108 339.535L109.515 338.73L108.921 337.925C108.476 338.253 108.202 338.713 108.054 339.215L109.014 339.497ZM109.515 338.73L110.113 339.531C110.167 339.491 110.225 339.467 110.324 339.467V338.467V337.467C109.813 337.467 109.331 337.619 108.916 337.929L109.515 338.73ZM110.324 338.467V339.467C110.359 339.467 110.404 339.47 110.462 339.476L110.569 338.482L110.677 337.487C110.559 337.475 110.441 337.467 110.324 337.467V338.467ZM110.569 338.482L110.462 339.476C110.516 339.482 110.546 339.488 110.558 339.491L110.8 338.521L111.043 337.55C110.921 337.52 110.798 337.5 110.677 337.487L110.569 338.482ZM110.8 338.521H109.8V339.863H110.8H111.8V338.521H110.8ZM110.8 339.863L111.087 338.905C110.942 338.861 110.783 338.834 110.636 338.815L110.505 339.806L110.374 340.797C110.422 340.804 110.458 340.81 110.484 340.815C110.51 340.82 110.518 340.822 110.513 340.821L110.8 339.863ZM110.505 339.806L110.636 338.815C110.476 338.794 110.317 338.781 110.161 338.781V339.781V340.781C110.213 340.781 110.283 340.785 110.374 340.797L110.505 339.806ZM110.161 339.781V338.781C109.788 338.781 109.419 338.864 109.08 339.052L109.564 339.927L110.049 340.802C110.06 340.796 110.089 340.781 110.161 340.781V339.781ZM109.564 339.927L109.084 339.05C108.754 339.231 108.486 339.49 108.294 339.812L109.152 340.325L110.011 340.837C110.022 340.819 110.029 340.812 110.045 340.804L109.564 339.927ZM109.152 340.325L108.289 339.821C108.089 340.163 108.003 340.538 108.003 340.914H109.003H110.003C110.003 340.878 110.007 340.856 110.01 340.845C110.012 340.835 110.015 340.831 110.016 340.828L109.152 340.325ZM109.003 340.914H108.003V344H109.003H110.003V340.914H109.003ZM109.003 344V343H107.49V344V345H109.003V344ZM115.08 341.678H114.08L114.08 341.687L115.08 341.678ZM115.08 338.545V337.545H114.08V338.545H115.08ZM116.593 338.545H117.593V337.545H116.593V338.545ZM116.593 344V345H117.593V344H116.593ZM115.14 344H114.14V345H115.14V344ZM115.14 343.009H116.14V342.009H115.14V343.009ZM115.084 343.009V342.009H114.397L114.15 342.65L115.084 343.009ZM114.469 343.78L113.908 342.952L113.905 342.954L114.469 343.78ZM112.466 343.822L112.98 342.964L112.98 342.964L112.466 343.822ZM111.817 343.116L110.924 343.566L110.926 343.571L111.817 343.116ZM111.582 342.018H110.582L110.582 342.024L111.582 342.018ZM111.582 338.545V337.545H110.582V338.545H111.582ZM113.095 338.545H114.095V337.545H113.095V338.545ZM113.095 341.749H112.095L112.095 341.756L113.095 341.749ZM113.354 342.512L114.093 341.838L114.093 341.838L113.354 342.512ZM114.551 342.668L115.014 343.555L115.024 343.549L114.551 342.668ZM114.934 342.292L114.077 341.777L114.072 341.787L114.934 342.292ZM115.08 341.678H116.08V338.545H115.08H114.08V341.678H115.08ZM115.08 338.545V339.545H116.593V338.545V337.545H115.08V338.545ZM116.593 338.545H115.593V344H116.593H117.593V338.545H116.593ZM116.593 344V343H115.14V344V345H116.593V344ZM115.14 344H116.14V343.009H115.14H114.14V344H115.14ZM115.14 343.009V342.009H115.084V343.009V344.009H115.14V343.009ZM115.084 343.009L114.15 342.65C114.102 342.777 114.028 342.871 113.908 342.952L114.469 343.78L115.03 344.608C115.484 344.3 115.82 343.881 116.017 343.369L115.084 343.009ZM114.469 343.78L113.905 342.954C113.817 343.015 113.676 343.071 113.429 343.071V344.071V345.071C114.001 345.071 114.554 344.933 115.033 344.605L114.469 343.78ZM113.429 344.071V343.071C113.221 343.071 113.082 343.026 112.98 342.964L112.466 343.822L111.953 344.681C112.405 344.951 112.907 345.071 113.429 345.071V344.071ZM112.466 343.822L112.98 342.964C112.874 342.901 112.783 342.81 112.707 342.66L111.817 343.116L110.926 343.571C111.162 344.033 111.505 344.412 111.953 344.681L112.466 343.822ZM111.817 343.116L112.71 342.666C112.64 342.528 112.584 342.322 112.582 342.013L111.582 342.018L110.582 342.024C110.585 342.567 110.685 343.093 110.924 343.566L111.817 343.116ZM111.582 342.018H112.582V338.545H111.582H110.582V342.018H111.582ZM111.582 338.545V339.545H113.095V338.545V337.545H111.582V338.545ZM113.095 338.545H112.095V341.749H113.095H114.095V338.545H113.095ZM113.095 341.749L112.095 341.756C112.099 342.255 112.237 342.771 112.615 343.186L113.354 342.512L114.093 341.838C114.099 341.845 114.103 341.851 114.107 341.856C114.11 341.862 114.11 341.863 114.108 341.859C114.106 341.851 114.096 341.816 114.095 341.741L113.095 341.749ZM113.354 342.512L112.615 343.186C113.001 343.609 113.513 343.793 114.04 343.793V342.793V341.793C114.006 341.793 114.009 341.787 114.032 341.797C114.044 341.802 114.056 341.808 114.068 341.817C114.08 341.825 114.089 341.833 114.093 341.838L113.354 342.512ZM114.04 342.793V343.793C114.38 343.793 114.71 343.714 115.014 343.555L114.551 342.668L114.088 341.782C114.075 341.789 114.064 341.793 114.04 341.793V342.793ZM114.551 342.668L115.024 343.549C115.356 343.371 115.614 343.111 115.797 342.797L114.934 342.292L114.072 341.787C114.068 341.793 114.065 341.796 114.064 341.797C114.064 341.799 114.064 341.798 114.065 341.797C114.067 341.795 114.069 341.793 114.072 341.791C114.074 341.789 114.076 341.788 114.078 341.787L114.551 342.668ZM114.934 342.292L115.792 342.806C116.008 342.446 116.084 342.048 116.08 341.668L115.08 341.678L114.08 341.687C114.081 341.794 114.06 341.806 114.077 341.777L114.934 342.292ZM118.84 343.766L118.344 344.634L118.35 344.638L118.84 343.766ZM117.909 342.793L117.021 343.252L117.022 343.254L117.909 342.793ZM117.909 339.82L117.02 339.363L117.02 339.363L117.909 339.82ZM118.829 338.83L118.318 337.97L118.315 337.972L118.829 338.83ZM121.233 338.648L120.883 339.585L120.892 339.588L121.233 338.648ZM122.05 339.163L121.347 339.874L121.35 339.878L122.05 339.163ZM122.597 340.03L121.66 340.38L121.661 340.382L122.597 340.03ZM122.792 341.66V342.66H123.792V341.66H122.792ZM118.186 341.66H117.186V342.66H118.186V341.66ZM118.186 340.722V339.722H117.186V340.722H118.186ZM121.368 340.722V341.722H122.368V340.722H121.368ZM121.226 340.143L120.355 340.634L120.355 340.634L121.226 340.143ZM120.832 339.749L120.327 340.612L120.334 340.616L120.341 340.621L120.832 339.749ZM119.642 339.763L120.153 340.623L120.157 340.621L119.642 339.763ZM119.23 340.186L120.1 340.68L120.103 340.675L119.23 340.186ZM119.078 340.772L118.078 340.761V340.772H119.078ZM119.227 342.363L118.335 342.814L118.339 342.823L119.227 342.363ZM120.775 342.906L120.454 341.959L120.454 341.959L120.775 342.906ZM121.134 342.693L120.444 341.969L120.444 341.969L121.134 342.693ZM121.361 342.345L121.427 341.347L120.689 341.299L120.426 341.991L121.361 342.345ZM122.76 342.438L123.739 342.644L123.977 341.516L122.826 341.44L122.76 342.438ZM122.324 343.318L121.572 342.659L121.571 342.659L122.324 343.318ZM121.478 343.901L121.85 344.829L121.853 344.828L121.478 343.901ZM120.289 344.107V343.107C119.863 343.107 119.556 343.021 119.329 342.894L118.84 343.766L118.35 344.638C118.933 344.965 119.592 345.107 120.289 345.107V344.107ZM118.84 343.766L119.335 342.897C119.103 342.765 118.928 342.583 118.797 342.331L117.909 342.793L117.022 343.254C117.327 343.84 117.771 344.307 118.344 344.634L118.84 343.766ZM117.909 342.793L118.798 342.333C118.667 342.081 118.583 341.747 118.583 341.298H117.583H116.583C116.583 341.999 116.716 342.661 117.021 343.252L117.909 342.793ZM117.583 341.298H118.583C118.583 340.867 118.666 340.537 118.799 340.277L117.909 339.82L117.02 339.363C116.718 339.951 116.583 340.606 116.583 341.298H117.583ZM117.909 339.82L118.799 340.277C118.934 340.014 119.113 339.825 119.343 339.687L118.829 338.83L118.315 337.972C117.754 338.308 117.32 338.779 117.02 339.363L117.909 339.82ZM118.829 338.83L119.341 339.689C119.561 339.558 119.845 339.474 120.228 339.474V338.474V337.474C119.542 337.474 118.893 337.628 118.318 337.97L118.829 338.83ZM120.228 338.474V339.474C120.479 339.474 120.694 339.514 120.883 339.585L121.233 338.648L121.584 337.712C121.152 337.55 120.697 337.474 120.228 337.474V338.474ZM121.233 338.648L120.892 339.588C121.071 339.653 121.219 339.748 121.347 339.874L122.05 339.163L122.754 338.453C122.417 338.119 122.021 337.871 121.575 337.709L121.233 338.648ZM122.05 339.163L121.35 339.878C121.467 339.992 121.575 340.151 121.66 340.38L122.597 340.03L123.534 339.679C123.359 339.212 123.102 338.794 122.75 338.449L122.05 339.163ZM122.597 340.03L121.661 340.382C121.74 340.591 121.792 340.871 121.792 341.244H122.792H123.792C123.792 340.69 123.715 340.16 123.533 339.677L122.597 340.03ZM122.792 341.244H121.792V341.66H122.792H123.792V341.244H122.792ZM122.792 341.66V340.66H118.186V341.66V342.66H122.792V341.66ZM118.186 341.66H119.186V340.722H118.186H117.186V341.66H118.186ZM118.186 340.722V341.722H121.368V340.722V339.722H118.186V340.722ZM121.368 340.722H122.368C122.368 340.355 122.287 339.989 122.097 339.653L121.226 340.143L120.355 340.634C120.356 340.637 120.359 340.642 120.362 340.653C120.364 340.664 120.368 340.686 120.368 340.722H121.368ZM121.226 340.143L122.097 339.653C121.913 339.325 121.65 339.062 121.323 338.878L120.832 339.749L120.341 340.621C120.345 340.623 120.348 340.625 120.349 340.625C120.35 340.626 120.35 340.626 120.35 340.626C120.349 340.626 120.35 340.626 120.35 340.627C120.351 340.628 120.353 340.63 120.355 340.634L121.226 340.143ZM120.832 339.749L121.337 338.886C120.997 338.687 120.625 338.604 120.253 338.604V339.604V340.604C120.29 340.604 120.31 340.608 120.319 340.61C120.327 340.612 120.328 340.613 120.327 340.612L120.832 339.749ZM120.253 339.604V338.604C119.863 338.604 119.477 338.696 119.128 338.906L119.642 339.763L120.157 340.621C120.162 340.618 120.184 340.604 120.253 340.604V339.604ZM119.642 339.763L119.131 338.904C118.805 339.098 118.543 339.366 118.358 339.697L119.23 340.186L120.103 340.675C120.116 340.651 120.129 340.638 120.153 340.623L119.642 339.763ZM119.23 340.186L118.361 339.692C118.172 340.025 118.082 340.388 118.078 340.761L119.078 340.772L120.078 340.783C120.078 340.725 120.09 340.697 120.1 340.68L119.23 340.186ZM119.078 340.772H118.078V341.663H119.078H120.078V340.772H119.078ZM119.078 341.663H118.078C118.078 342.055 118.15 342.45 118.335 342.814L119.227 342.363L120.119 341.911C120.105 341.883 120.078 341.811 120.078 341.663H119.078ZM119.227 342.363L118.339 342.823C118.525 343.182 118.8 343.478 119.157 343.684L119.657 342.817L120.156 341.951C120.144 341.944 120.132 341.937 120.115 341.903L119.227 342.363ZM119.657 342.817L119.157 343.684C119.52 343.893 119.918 343.977 120.314 343.977V342.977V341.977C120.203 341.977 120.163 341.955 120.156 341.951L119.657 342.817ZM120.314 342.977V343.977C120.576 343.977 120.84 343.94 121.096 343.853L120.775 342.906L120.454 341.959C120.431 341.967 120.387 341.977 120.314 341.977V342.977ZM120.775 342.906L121.096 343.853C121.363 343.763 121.611 343.62 121.824 343.417L121.134 342.693L120.444 341.969C120.45 341.964 120.455 341.96 120.459 341.958C120.463 341.956 120.462 341.957 120.454 341.959L120.775 342.906ZM121.134 342.693L121.824 343.417C122.039 343.212 122.195 342.967 122.296 342.7L121.361 342.345L120.426 341.991C120.424 341.996 120.424 341.994 120.428 341.988C120.432 341.982 120.438 341.975 120.444 341.969L121.134 342.693ZM121.361 342.345L121.295 343.343L122.694 343.435L122.76 342.438L122.826 341.44L121.427 341.347L121.361 342.345ZM122.76 342.438L121.782 342.231C121.745 342.404 121.675 342.541 121.572 342.659L122.324 343.318L123.075 343.978C123.412 343.594 123.633 343.143 123.739 342.644L122.76 342.438ZM122.324 343.318L121.571 342.659C121.469 342.776 121.323 342.885 121.104 342.973L121.478 343.901L121.853 344.828C122.325 344.637 122.742 344.358 123.076 343.977L122.324 343.318ZM121.478 343.901L121.107 342.972C120.904 343.053 120.638 343.107 120.289 343.107V344.107V345.107C120.839 345.107 121.366 345.023 121.85 344.829L121.478 343.901Z" fill="#059A26" mask="url(#path-18-outside-2_170_205)"/>
<path d="M10.9055 60V51.8182H13.1055V53.2457H13.1907C13.3398 52.7379 13.5902 52.3544 13.9418 52.0952C14.2933 51.8324 14.6982 51.701 15.1562 51.701C15.2699 51.701 15.3924 51.7081 15.5238 51.7223C15.6552 51.7365 15.7706 51.756 15.87 51.7809V53.7944C15.7635 53.7624 15.6161 53.734 15.4279 53.7092C15.2397 53.6843 15.0675 53.6719 14.9112 53.6719C14.5774 53.6719 14.2791 53.7447 14.0163 53.8903C13.7571 54.0323 13.5511 54.2312 13.3984 54.4869C13.2493 54.7425 13.1747 55.0373 13.1747 55.3711V60H10.9055ZM20.3911 60.1598C19.5494 60.1598 18.825 59.9893 18.2178 59.6484C17.6141 59.304 17.1489 58.8175 16.8222 58.1889C16.4955 57.5568 16.3321 56.8093 16.3321 55.9464C16.3321 55.1048 16.4955 54.3661 16.8222 53.7305C17.1489 53.0948 17.6088 52.5994 18.2018 52.2443C18.7984 51.8892 19.498 51.7116 20.3005 51.7116C20.8403 51.7116 21.3428 51.7987 21.808 51.9727C22.2767 52.1431 22.6851 52.4006 23.0331 52.745C23.3847 53.0895 23.6581 53.5227 23.8534 54.0447C24.0487 54.5632 24.1464 55.1705 24.1464 55.8665V56.4897H17.2377V55.0835H22.0104C22.0104 54.7567 21.9394 54.4673 21.7973 54.2152C21.6553 53.9631 21.4582 53.766 21.2061 53.6239C20.9575 53.4783 20.6681 53.4055 20.3378 53.4055C19.9933 53.4055 19.6879 53.4854 19.4216 53.6452C19.1588 53.8015 18.9529 54.0128 18.8037 54.2791C18.6546 54.5419 18.5782 54.8349 18.5747 55.158V56.495C18.5747 56.8999 18.6492 57.2496 18.7984 57.5444C18.9511 57.8391 19.1659 58.0664 19.4429 58.2262C19.7199 58.386 20.0484 58.4659 20.4284 58.4659C20.6805 58.4659 20.9113 58.4304 21.1208 58.3594C21.3303 58.2884 21.5097 58.1818 21.6588 58.0398C21.808 57.8977 21.9216 57.7237 21.9997 57.5178L24.0985 57.6562C23.9919 58.1605 23.7735 58.6009 23.4433 58.9773C23.1166 59.3501 22.694 59.6413 22.1755 59.8509C21.6606 60.0568 21.0658 60.1598 20.3911 60.1598ZM25.6272 63.0682V51.8182H27.8644V53.1925H27.9656C28.0651 52.9723 28.2089 52.7486 28.3971 52.5213C28.5889 52.2905 28.8374 52.0987 29.1428 51.946C29.4518 51.7898 29.8353 51.7116 30.2934 51.7116C30.89 51.7116 31.4404 51.8679 31.9447 52.1804C32.449 52.4893 32.852 52.9563 33.1539 53.5813C33.4557 54.2028 33.6066 54.9822 33.6066 55.9197C33.6066 56.8324 33.4593 57.603 33.1645 58.2315C32.8733 58.8565 32.4756 59.3306 31.9713 59.6538C31.4706 59.9734 30.9095 60.1332 30.2881 60.1332C29.8477 60.1332 29.4731 60.0604 29.1642 59.9148C28.8588 59.7692 28.6084 59.5863 28.4131 59.3661C28.2178 59.1424 28.0686 58.9169 27.9656 58.6896H27.8964V63.0682H25.6272ZM27.8485 55.9091C27.8485 56.3956 27.9159 56.82 28.0509 57.1822C28.1858 57.5444 28.3811 57.8267 28.6368 58.0291C28.8925 58.228 29.2032 58.3274 29.569 58.3274C29.9383 58.3274 30.2508 58.2262 30.5065 58.0238C30.7622 57.8178 30.9557 57.5337 31.0871 57.1715C31.222 56.8058 31.2895 56.3849 31.2895 55.9091C31.2895 55.4368 31.2238 55.0213 31.0924 54.6626C30.961 54.304 30.7675 54.0234 30.5118 53.821C30.2561 53.6186 29.9419 53.5174 29.569 53.5174C29.1997 53.5174 28.8872 53.6151 28.6315 53.8104C28.3794 54.0057 28.1858 54.2827 28.0509 54.6413C27.9159 55 27.8485 55.4226 27.8485 55.9091ZM38.8481 60.1598C38.0065 60.1598 37.282 59.9893 36.6748 59.6484C36.0711 59.304 35.6059 58.8175 35.2792 58.1889C34.9525 57.5568 34.7892 56.8093 34.7892 55.9464C34.7892 55.1048 34.9525 54.3661 35.2792 53.7305C35.6059 53.0948 36.0658 52.5994 36.6588 52.2443C37.2554 51.8892 37.955 51.7116 38.7575 51.7116C39.2973 51.7116 39.7998 51.7987 40.265 51.9727C40.7338 52.1431 41.1421 52.4006 41.4901 52.745C41.8417 53.0895 42.1151 53.5227 42.3105 54.0447C42.5058 54.5632 42.6034 55.1705 42.6034 55.8665V56.4897H35.6947V55.0835H40.4674C40.4674 54.7567 40.3964 54.4673 40.2544 54.2152C40.1123 53.9631 39.9152 53.766 39.6631 53.6239C39.4145 53.4783 39.1251 53.4055 38.7948 53.4055C38.4504 53.4055 38.145 53.4854 37.8786 53.6452C37.6159 53.8015 37.4099 54.0128 37.2607 54.2791C37.1116 54.5419 37.0352 54.8349 37.0317 55.158V56.495C37.0317 56.8999 37.1063 57.2496 37.2554 57.5444C37.4081 57.8391 37.623 58.0664 37.8999 58.2262C38.1769 58.386 38.5054 58.4659 38.8854 58.4659C39.1375 58.4659 39.3683 58.4304 39.5779 58.3594C39.7874 58.2884 39.9667 58.1818 40.1159 58.0398C40.265 57.8977 40.3786 57.7237 40.4568 57.5178L42.5555 57.6562C42.449 58.1605 42.2306 58.6009 41.9003 58.9773C41.5736 59.3501 41.151 59.6413 40.6325 59.8509C40.1176 60.0568 39.5228 60.1598 38.8481 60.1598ZM46.4173 60.1545C45.8953 60.1545 45.4301 60.0639 45.0218 59.8828C44.6134 59.6982 44.2902 59.4265 44.0523 59.0678C43.8179 58.7056 43.7007 58.2546 43.7007 57.7148C43.7007 57.2603 43.7842 56.8786 43.9511 56.5696C44.118 56.2607 44.3453 56.0121 44.6329 55.8239C44.9205 55.6357 45.2472 55.4936 45.613 55.3977C45.9823 55.3018 46.3694 55.2344 46.7742 55.1953C47.2501 55.1456 47.6336 55.0994 47.9248 55.0568C48.216 55.0107 48.4273 54.9432 48.5587 54.8544C48.6901 54.7656 48.7558 54.6342 48.7558 54.4602V54.4283C48.7558 54.0909 48.6492 53.8299 48.4362 53.6452C48.2267 53.4606 47.9284 53.3683 47.5413 53.3683C47.1329 53.3683 46.808 53.4588 46.5665 53.6399C46.325 53.8175 46.1652 54.0412 46.0871 54.3111L43.9884 54.1406C44.0949 53.6435 44.3044 53.2138 44.6169 52.8516C44.9294 52.4858 45.3325 52.2053 45.8261 52.0099C46.3232 51.8111 46.8985 51.7116 47.5519 51.7116C48.0065 51.7116 48.4415 51.7649 48.857 51.8714C49.276 51.978 49.6471 52.1431 49.9703 52.3668C50.297 52.5906 50.5544 52.8782 50.7426 53.2298C50.9308 53.5778 51.0249 53.995 51.0249 54.4815V60H48.873V58.8654H48.809C48.6776 59.1211 48.5019 59.3466 48.2817 59.5419C48.0615 59.7337 47.797 59.8846 47.488 59.9947C47.1791 60.1012 46.8222 60.1545 46.4173 60.1545ZM47.0672 58.5884C47.401 58.5884 47.6958 58.5227 47.9514 58.3913C48.2071 58.2564 48.4078 58.0753 48.5534 57.848C48.699 57.6207 48.7718 57.3633 48.7718 57.0756V56.2074C48.7007 56.2536 48.6031 56.2962 48.4788 56.3352C48.358 56.3707 48.2213 56.4045 48.0686 56.4364C47.9159 56.4648 47.7632 56.4915 47.6105 56.5163C47.4578 56.5376 47.3193 56.5572 47.195 56.5749C46.9287 56.614 46.6961 56.6761 46.4972 56.7614C46.2984 56.8466 46.1439 56.962 46.0338 57.1076C45.9237 57.2496 45.8687 57.4272 45.8687 57.6403C45.8687 57.9492 45.9806 58.1854 46.2043 58.3487C46.4316 58.5085 46.7192 58.5884 47.0672 58.5884ZM57.1373 51.8182V53.5227H52.2101V51.8182H57.1373ZM53.3287 49.858H55.5979V57.4858C55.5979 57.6953 55.6299 57.8587 55.6938 57.9759C55.7577 58.0895 55.8465 58.1694 55.9601 58.2156C56.0773 58.2617 56.2123 58.2848 56.365 58.2848C56.4715 58.2848 56.578 58.2759 56.6846 58.2582C56.7911 58.2369 56.8728 58.2209 56.9296 58.2102L57.2865 59.8988C57.1729 59.9343 57.0131 59.9751 56.8071 60.0213C56.6011 60.071 56.3508 60.1012 56.056 60.1119C55.5091 60.1332 55.0297 60.0604 54.6178 59.8935C54.2094 59.7266 53.8916 59.4673 53.6643 59.1158C53.4371 58.7642 53.3252 58.3203 53.3287 57.7841V49.858ZM67.334 56.5163V51.8182H69.6032V60H67.4245V58.5138H67.3393C67.1547 58.9933 66.8475 59.3786 66.4178 59.6697C65.9917 59.9609 65.4714 60.1065 64.8571 60.1065C64.3102 60.1065 63.829 59.9822 63.4135 59.7337C62.998 59.4851 62.6731 59.1317 62.4387 58.6737C62.2079 58.2156 62.0907 57.6669 62.0872 57.0277V51.8182H64.3564V56.6229C64.3599 57.1058 64.4895 57.4876 64.7452 57.7681C65.0009 58.0487 65.3436 58.1889 65.7733 58.1889C66.0467 58.1889 66.3024 58.1268 66.5403 58.0025C66.7782 57.8746 66.97 57.6864 67.1156 57.4379C67.2647 57.1893 67.3375 56.8821 67.334 56.5163ZM73.6874 55.2699V60H71.4182V51.8182H73.5809V53.2617H73.6768C73.8579 52.7859 74.1615 52.4094 74.5876 52.1325C75.0138 51.8519 75.5305 51.7116 76.1377 51.7116C76.7059 51.7116 77.2013 51.8359 77.6238 52.0845C78.0464 52.3331 78.3749 52.6882 78.6093 53.1499C78.8437 53.608 78.9608 54.1548 78.9608 54.7905V60H76.6917V55.1953C76.6952 54.6946 76.5674 54.304 76.3082 54.0234C76.0489 53.7393 75.692 53.5973 75.2375 53.5973C74.9321 53.5973 74.6622 53.663 74.4278 53.7944C74.197 53.9258 74.0159 54.1175 73.8845 54.3697C73.7567 54.6183 73.691 54.9183 73.6874 55.2699ZM85.1012 51.8182V53.5227H80.174V51.8182H85.1012ZM81.2926 49.858H83.5618V57.4858C83.5618 57.6953 83.5938 57.8587 83.6577 57.9759C83.7216 58.0895 83.8104 58.1694 83.924 58.2156C84.0412 58.2617 84.1761 58.2848 84.3288 58.2848C84.4354 58.2848 84.5419 58.2759 84.6484 58.2582C84.755 58.2369 84.8366 58.2209 84.8935 58.2102L85.2504 59.8988C85.1367 59.9343 84.9769 59.9751 84.771 60.0213C84.565 60.071 84.3146 60.1012 84.0199 60.1119C83.473 60.1332 82.9936 60.0604 82.5817 59.8935C82.1733 59.7266 81.8555 59.4673 81.6282 59.1158C81.4009 58.7642 81.2891 58.3203 81.2926 57.7841V49.858ZM86.5794 60V51.8182H88.8485V60H86.5794ZM87.7193 50.7635C87.3819 50.7635 87.0925 50.6516 86.851 50.4279C86.6131 50.2006 86.4941 49.929 86.4941 49.6129C86.4941 49.3004 86.6131 49.0323 86.851 48.8086C87.0925 48.5813 87.3819 48.4677 87.7193 48.4677C88.0566 48.4677 88.3443 48.5813 88.5822 48.8086C88.8237 49.0323 88.9444 49.3004 88.9444 49.6129C88.9444 49.929 88.8237 50.2006 88.5822 50.4279C88.3443 50.6516 88.0566 50.7635 87.7193 50.7635ZM92.9355 49.0909V60H90.6663V49.0909H92.9355Z" fill="white"/>
<path d="M99 55L106 39V71L99 55Z" fill="white"/>
<path d="M215 55L208 71V39L215 55Z" fill="white"/>
<path d="M208 39H106V71H208V39Z" fill="white"/>
<path d="M101 55L108 41V69L101 55Z" fill="#A87C2D"/>
<path d="M213 55L206 69V41L213 55Z" fill="#A87C2D"/>
<path d="M206 41H108V69H206V41Z" fill="#A87C2D"/>
<path d="M162 290V312H312V290H162Z" fill="#F0B43B"/>
<path d="M325.5 109.083H326V113.25H325.5V117.417H326V121.583H325.5V125.75H326V129.917H325.5V132.5H327.889V132H331.665V132.5H335.441V132H339.219V132.5H342.995V132H346.771V132.5H348.66C349.366 132.5 350.06 132.547 350.741 132.638L350.807 132.142C352.255 132.334 353.644 132.719 354.947 133.27L354.753 133.729C356.043 134.274 357.247 134.988 358.338 135.842L358.645 135.448C359.774 136.332 360.786 137.362 361.652 138.511L361.255 138.812C362.087 139.914 362.781 141.13 363.311 142.432L363.771 142.243C364.304 143.551 364.677 144.942 364.863 146.394V146.395L364.367 146.458C364.455 147.14 364.5 147.835 364.5 148.542V150.701H365V155.021H364.5V159.341H365V163.66H364.5V167.979H365V172.298H364.5V174.458C364.5 175.165 364.455 175.86 364.367 176.542L364.863 176.605C364.677 178.057 364.304 179.448 363.771 180.756L363.311 180.568C362.781 181.87 362.087 183.086 361.255 184.188L361.652 184.488C360.786 185.637 359.774 186.667 358.645 187.551L358.338 187.158C357.247 188.012 356.043 188.726 354.753 189.271L354.947 189.729C353.644 190.28 352.255 190.665 350.807 190.857L350.741 190.362C350.06 190.453 349.366 190.5 348.66 190.5H346.435V191H341.982V190.5H337.531V191H333.08V190.5H328.628V191H324.177V190.5H319.726V191H315.273V190.5H312.548V192.833H313.048V196.5H312.548V200.167H313.048V203.833H312.548V207.5H313.048V211.167H312.548V213.5H314.667V213H317.905V213.5H321.143V213H324.381V213.5H324.793L324.084 214.209L324.438 214.562L321.312 217.688L320.959 217.334L317.834 220.459L318.188 220.812L315.062 223.938L314.709 223.584L311.584 226.709L311.938 227.062L308.812 230.188L308.459 229.834L305.334 232.959L305.688 233.312L302.562 236.438L302.209 236.084L301 237.293L299.791 236.084L299.438 236.438L296.312 233.312L296.666 232.959L293.541 229.834L293.188 230.188L290.062 227.062L290.416 226.709L287.291 223.584L286.938 223.938L283.812 220.812L284.166 220.459L281.041 217.334L280.688 217.688L277.562 214.562L277.916 214.209L277.207 213.5H277.881V213H281.643V213.5H285.405V213H289.167V213.5H291.548V211.167H291.048V207.5H291.548V203.833H291.048V200.167H291.548V196.5H291.048V192.833H291.548V190.5H289.162V191H285.392V190.5H281.621V191H277.851V190.5H274.08V191H270.309V190.5H266.538V191H262.768V190.5H258.997V191H255.227V190.5H253.341C252.635 190.5 251.941 190.454 251.26 190.363L251.193 190.857C249.745 190.665 248.356 190.28 247.053 189.729L247.248 189.271C245.958 188.726 244.754 188.013 243.663 187.159L243.354 187.551C242.226 186.667 241.214 185.637 240.348 184.489L240.746 184.188C239.914 183.085 239.219 181.87 238.689 180.568L238.228 180.756C237.695 179.448 237.322 178.057 237.136 176.605L237.633 176.542C237.567 176.03 237.526 175.511 237.509 174.985L237.5 174.458V172.299H237V167.979H237.5V163.659H237V159.34H237.5V155.021H237V150.702H237.5V148.542C237.5 147.835 237.545 147.14 237.633 146.458L237.137 146.395L237.136 146.394C237.322 144.943 237.695 143.551 238.228 142.243L238.689 142.432C239.219 141.13 239.914 139.915 240.746 138.812L240.348 138.51C241.214 137.362 242.226 136.332 243.354 135.448L243.663 135.841C244.754 134.987 245.958 134.274 247.247 133.729L247.053 133.27C248.356 132.719 249.745 132.334 251.193 132.142L251.26 132.637C251.941 132.546 252.635 132.5 253.341 132.5H255.229V132H259.006V132.5H262.782V132H266.559V132.5H270.335V132H274.111V132.5H276.5V129.917H276V125.75H276.5V121.583H276V117.417H276.5V113.25H276V109.083H276.5V108.207L277.209 108.916L277.562 108.562L280.688 111.688L280.334 112.041L283.459 115.166L283.812 114.812L286.938 117.938L286.584 118.291L289.709 121.416L290.062 121.062L293.188 124.188L292.834 124.541L295.959 127.666L296.312 127.312L299.438 130.438L299.084 130.791L301 132.707L302.916 130.791L302.562 130.438L305.688 127.312L306.041 127.666L309.166 124.541L308.812 124.188L311.938 121.062L312.291 121.416L315.416 118.291L315.062 117.938L318.188 114.812L318.541 115.166L321.666 112.041L321.312 111.688L324.438 108.562L324.791 108.916L325.5 108.207V109.083Z" stroke="white" stroke-dasharray="4 4"/>
<path d="M312 264H290V290H312V264Z" fill="#F0B43B"/>
<path d="M301 240H276V215L301 240Z" fill="#F0B43B"/>
<path d="M326 240H301L326 215V240Z" fill="#F0B43B"/>
<rect x="276" y="240" width="50" height="24" fill="#F0B43B"/>
<path d="M326 220L301 245L276 220V215L301 240L326 215V220Z" fill="white"/>
<circle opacity="0.01" cx="301" cy="240" r="1" fill="#D9D9D9"/>
<path d="M184 290H162V132H184V290Z" fill="#F0B43B"/>
<path d="M174 108L149 133H199L174 108Z" fill="#A87C2D"/>
<path d="M174 113L154 133H194L174 113Z" fill="#A87C2D"/>
<path d="M174 113L154 133H194L174 113Z" fill="#F0B43B"/>
<path d="M174 117L158 133H190L174 117Z" fill="#F0B43B"/>
</svg>
