<svg width="128" height="149" viewBox="0 0 128 149" fill="none" xmlns="http://www.w3.org/2000/svg">
<g id="say">
<circle id="anchor:next" opacity="0.01" cx="64" cy="140" r="1" fill="#D9D9D9"/>
<g id="arrowHead">
<g id="tip">
<path d="M63.9999 140L89 115H39L63.9999 140Z" fill="white"/>
<path d="M63.9999 135L84 115H44L63.9999 135Z" fill="#BF69F1"/>
</g>
<path id="shaft" d="M76.0477 93H54.0477V115H76.0477V93Z" fill="#BF69F1"/>
</g>
<path id="bodyStretch" d="M0 50.5421C0 41.4061 7.31587 34 16.3404 34H111.66C120.684 34 128 41.4061 128 50.5421V76.4579C128 85.5939 120.684 93 111.66 93H16.3404C7.31587 93 0 85.5939 0 76.4579V50.5421Z" fill="#BF69F1"/>
<g id="capTop">
<path d="M64 34H39V9L64 34Z" fill="#BF69F1"/>
<path d="M89 34H64L89 9V34Z" fill="#BF69F1"/>
</g>
<path id="stripe" d="M89 14L64 39L39 14V9L64 34L89 9V14Z" fill="white"/>
<circle id="anchor:prev" opacity="0.01" cx="64" cy="34" r="1" fill="#D9D9D9"/>
<g id="input:value">
<rect id="box" opacity="0.01" x="44" y="50" width="75" height="25" rx="10" fill="#D9D9D9"/>
<circle id="anchor-input:value-right" opacity="0.01" cx="119" cy="63" r="1" fill="#D9D9D9"/>
<circle id="anchor-input:value-left" opacity="0.01" cx="44" cy="63" r="1" fill="white"/>
</g>
<path id="text" d="M15.1705 64.321L13.5085 64.4233C13.4801 64.2812 13.419 64.1534 13.3253 64.0398C13.2315 63.9233 13.108 63.831 12.9545 63.7628C12.804 63.6918 12.6236 63.6562 12.4134 63.6562C12.1321 63.6562 11.8949 63.7159 11.7017 63.8352C11.5085 63.9517 11.4119 64.108 11.4119 64.304C11.4119 64.4602 11.4744 64.5923 11.5994 64.7003C11.7244 64.8082 11.9389 64.8949 12.2429 64.9602L13.4276 65.1989C14.0639 65.3295 14.5384 65.5398 14.8509 65.8295C15.1634 66.1193 15.3196 66.5 15.3196 66.9716C15.3196 67.4006 15.1932 67.777 14.9403 68.1009C14.6903 68.4247 14.3466 68.6776 13.9091 68.8594C13.4744 69.0384 12.973 69.1278 12.4048 69.1278C11.5384 69.1278 10.848 68.9474 10.3338 68.5866C9.82244 68.223 9.52273 67.7287 9.43466 67.1037L11.2202 67.0099C11.2741 67.2741 11.4048 67.4759 11.6122 67.6151C11.8196 67.7514 12.0852 67.8196 12.4091 67.8196C12.7273 67.8196 12.983 67.7585 13.1761 67.6364C13.3722 67.5114 13.4716 67.3509 13.4744 67.1548C13.4716 66.9901 13.402 66.8551 13.2656 66.75C13.1293 66.642 12.919 66.5597 12.6349 66.5028L11.5014 66.277C10.8622 66.1491 10.3864 65.9276 10.0739 65.6122C9.7642 65.2969 9.60938 64.8949 9.60938 64.4062C9.60938 63.9858 9.72301 63.6236 9.95028 63.3196C10.1804 63.0156 10.5028 62.7812 10.9176 62.6165C11.3352 62.4517 11.8239 62.3693 12.3835 62.3693C13.2102 62.3693 13.8608 62.544 14.3352 62.8935C14.8125 63.2429 15.0909 63.7187 15.1705 64.321ZM18.3292 69.1236C17.9116 69.1236 17.5394 69.0511 17.2127 68.9062C16.886 68.7585 16.6275 68.5412 16.4371 68.2543C16.2496 67.9645 16.1559 67.6037 16.1559 67.1719C16.1559 66.8082 16.2227 66.5028 16.3562 66.2557C16.4897 66.0085 16.6715 65.8097 16.9016 65.6591C17.1317 65.5085 17.3931 65.3949 17.6857 65.3182C17.9812 65.2415 18.2908 65.1875 18.6147 65.1562C18.9954 65.1165 19.3022 65.0795 19.5352 65.0455C19.7681 65.0085 19.9371 64.9545 20.0423 64.8835C20.1474 64.8125 20.1999 64.7074 20.1999 64.5682V64.5426C20.1999 64.2727 20.1147 64.0639 19.9442 63.9162C19.7766 63.7685 19.538 63.6946 19.2283 63.6946C18.9016 63.6946 18.6417 63.767 18.4485 63.9119C18.2553 64.054 18.1275 64.233 18.065 64.4489L16.386 64.3125C16.4712 63.9148 16.6388 63.571 16.8888 63.2812C17.1388 62.9886 17.4613 62.7642 17.8562 62.608C18.2539 62.4489 18.7141 62.3693 19.2369 62.3693C19.6005 62.3693 19.9485 62.4119 20.2809 62.4972C20.6161 62.5824 20.913 62.7145 21.1715 62.8935C21.4329 63.0724 21.6388 63.3026 21.7894 63.5838C21.94 63.8622 22.0153 64.196 22.0153 64.5852V69H20.2937V68.0923H20.2425C20.1374 68.2969 19.9968 68.4773 19.8207 68.6335C19.6445 68.7869 19.4329 68.9077 19.1857 68.9957C18.9386 69.081 18.6531 69.1236 18.3292 69.1236ZM18.8491 67.8707C19.1161 67.8707 19.3519 67.8182 19.5565 67.7131C19.761 67.6051 19.9215 67.4602 20.038 67.2784C20.1545 67.0966 20.2127 66.8906 20.2127 66.6605V65.9659C20.1559 66.0028 20.0778 66.0369 19.9783 66.0682C19.8817 66.0966 19.7724 66.1236 19.6502 66.1491C19.5281 66.1719 19.4059 66.1932 19.2837 66.2131C19.1616 66.2301 19.0508 66.2457 18.9513 66.2599C18.7383 66.2912 18.5522 66.3409 18.3931 66.4091C18.234 66.4773 18.1104 66.5696 18.0224 66.6861C17.9343 66.7997 17.8903 66.9418 17.8903 67.1122C17.8903 67.3594 17.9798 67.5483 18.1587 67.679C18.3406 67.8068 18.5707 67.8707 18.8491 67.8707ZM24.31 71.4545C24.0799 71.4545 23.864 71.4361 23.6623 71.3991C23.4634 71.3651 23.2987 71.321 23.168 71.267L23.5771 69.9119C23.7901 69.9773 23.9819 70.0128 24.1523 70.0185C24.3256 70.0241 24.4748 69.9844 24.5998 69.8991C24.7276 69.8139 24.8313 69.669 24.9109 69.4645L25.0174 69.1875L22.6694 62.4545H24.5785L25.9336 67.2614H26.0018L27.3697 62.4545H29.2915L26.7475 69.7074C26.6254 70.0597 26.4592 70.3665 26.2489 70.6278C26.0415 70.892 25.7788 71.0952 25.4606 71.2372C25.1424 71.3821 24.7589 71.4545 24.31 71.4545Z" fill="white"/>
</g>
</svg>
