<svg width="128" height="149" viewBox="0 0 128 149" fill="none" xmlns="http://www.w3.org/2000/svg">
<g id="say">
<g id="block_shape">
<path id="next_block_arrowbody" d="M75 93H53V115H75V93Z" fill="#BF69F1"/>
<path id="next_block_arrowhead" d="M63.5 149L89.048 114.5H37.9523L63.5 149Z" fill="#BF69F1"/>
<g id="prev_block_connector">
<path d="M63.5 34H38V0H38.3223L63.5 34Z" fill="#BF69F1"/>
<path d="M89 34H63.5L88.678 0H89V34Z" fill="#BF69F1"/>
</g>
<path id="block_body" d="M0 50.5421C0 41.4061 7.31587 34 16.3404 34H111.66C120.684 34 128 41.4061 128 50.5421V76.4579C128 85.5939 120.684 93 111.66 93H16.3404C7.31587 93 0 85.5939 0 76.4579V50.5421Z" fill="#BF69F1"/>
</g>
<g id="block_input">
<path id="input_constant" d="M38 62C38 56.4772 42.477 52 48 52H105C110.523 52 115 56.4772 115 62V66C115 71.5228 110.523 76 105 76H48C42.477 76 38 71.5228 38 66V62Z" fill="white"/>
<path id="say_text" d="M18.1705 63.321L16.5085 63.4233C16.4801 63.2812 16.419 63.1534 16.3253 63.0398C16.2315 62.9233 16.108 62.831 15.9545 62.7628C15.804 62.6918 15.6236 62.6562 15.4134 62.6562C15.1321 62.6562 14.8949 62.7159 14.7017 62.8352C14.5085 62.9517 14.4119 63.108 14.4119 63.304C14.4119 63.4602 14.4744 63.5923 14.5994 63.7003C14.7244 63.8082 14.9389 63.8949 15.2429 63.9602L16.4276 64.1989C17.0639 64.3295 17.5384 64.5398 17.8509 64.8295C18.1634 65.1193 18.3196 65.5 18.3196 65.9716C18.3196 66.4006 18.1932 66.777 17.9403 67.1009C17.6903 67.4247 17.3466 67.6776 16.9091 67.8594C16.4744 68.0384 15.973 68.1278 15.4048 68.1278C14.5384 68.1278 13.848 67.9474 13.3338 67.5866C12.8224 67.223 12.5227 66.7287 12.4347 66.1037L14.2202 66.0099C14.2741 66.2741 14.4048 66.4759 14.6122 66.6151C14.8196 66.7514 15.0852 66.8196 15.4091 66.8196C15.7273 66.8196 15.983 66.7585 16.1761 66.6364C16.3722 66.5114 16.4716 66.3509 16.4744 66.1548C16.4716 65.9901 16.402 65.8551 16.2656 65.75C16.1293 65.642 15.919 65.5597 15.6349 65.5028L14.5014 65.277C13.8622 65.1491 13.3864 64.9276 13.0739 64.6122C12.7642 64.2969 12.6094 63.8949 12.6094 63.4062C12.6094 62.9858 12.723 62.6236 12.9503 62.3196C13.1804 62.0156 13.5028 61.7812 13.9176 61.6165C14.3352 61.4517 14.8239 61.3693 15.3835 61.3693C16.2102 61.3693 16.8608 61.544 17.3352 61.8935C17.8125 62.2429 18.0909 62.7187 18.1705 63.321ZM21.3292 68.1236C20.9116 68.1236 20.5394 68.0511 20.2127 67.9062C19.886 67.7585 19.6275 67.5412 19.4371 67.2543C19.2496 66.9645 19.1559 66.6037 19.1559 66.1719C19.1559 65.8082 19.2227 65.5028 19.3562 65.2557C19.4897 65.0085 19.6715 64.8097 19.9016 64.6591C20.1317 64.5085 20.3931 64.3949 20.6857 64.3182C20.9812 64.2415 21.2908 64.1875 21.6147 64.1562C21.9954 64.1165 22.3022 64.0795 22.5352 64.0455C22.7681 64.0085 22.9371 63.9545 23.0423 63.8835C23.1474 63.8125 23.1999 63.7074 23.1999 63.5682V63.5426C23.1999 63.2727 23.1147 63.0639 22.9442 62.9162C22.7766 62.7685 22.538 62.6946 22.2283 62.6946C21.9016 62.6946 21.6417 62.767 21.4485 62.9119C21.2553 63.054 21.1275 63.233 21.065 63.4489L19.386 63.3125C19.4712 62.9148 19.6388 62.571 19.8888 62.2812C20.1388 61.9886 20.4613 61.7642 20.8562 61.608C21.2539 61.4489 21.7141 61.3693 22.2369 61.3693C22.6005 61.3693 22.9485 61.4119 23.2809 61.4972C23.6161 61.5824 23.913 61.7145 24.1715 61.8935C24.4329 62.0724 24.6388 62.3026 24.7894 62.5838C24.94 62.8622 25.0153 63.196 25.0153 63.5852V68H23.2937V67.0923H23.2425C23.1374 67.2969 22.9968 67.4773 22.8207 67.6335C22.6445 67.7869 22.4329 67.9077 22.1857 67.9957C21.9386 68.081 21.6531 68.1236 21.3292 68.1236ZM21.8491 66.8707C22.1161 66.8707 22.3519 66.8182 22.5565 66.7131C22.761 66.6051 22.9215 66.4602 23.038 66.2784C23.1545 66.0966 23.2127 65.8906 23.2127 65.6605V64.9659C23.1559 65.0028 23.0778 65.0369 22.9783 65.0682C22.8817 65.0966 22.7724 65.1236 22.6502 65.1491C22.5281 65.1719 22.4059 65.1932 22.2837 65.2131C22.1616 65.2301 22.0508 65.2457 21.9513 65.2599C21.7383 65.2912 21.5522 65.3409 21.3931 65.4091C21.234 65.4773 21.1104 65.5696 21.0224 65.6861C20.9343 65.7997 20.8903 65.9418 20.8903 66.1122C20.8903 66.3594 20.9798 66.5483 21.1587 66.679C21.3406 66.8068 21.5707 66.8707 21.8491 66.8707ZM27.31 70.4545C27.0799 70.4545 26.864 70.4361 26.6623 70.3991C26.4634 70.3651 26.2987 70.321 26.168 70.267L26.5771 68.9119C26.7901 68.9773 26.9819 69.0128 27.1523 69.0185C27.3256 69.0241 27.4748 68.9844 27.5998 68.8991C27.7276 68.8139 27.8313 68.669 27.9109 68.4645L28.0174 68.1875L25.6694 61.4545H27.5785L28.9336 66.2614H29.0018L30.3697 61.4545H32.2915L29.7475 68.7074C29.6254 69.0597 29.4592 69.3665 29.2489 69.6278C29.0415 69.892 28.7788 70.0952 28.4606 70.2372C28.1424 70.3821 27.7589 70.4545 27.31 70.4545Z" fill="white"/>
</g>
</g>
</svg>
