<svg width="248" height="174" viewBox="0 0 248 174" fill="none" xmlns="http://www.w3.org/2000/svg">
<g id="say">
<g id="block_shape">
<path id="next_block_arrowbody" d="M133 103H111V125H133V103Z" fill="#BF69F1"/>
<path id="next_block_arrowhead" d="M121.5 159L147.048 124.5H95.9523L121.5 159Z" fill="#BF69F1"/>
<g id="prev_block_connector">
<path d="M121.5 44H96V10H96.3223L121.5 44Z" fill="#BF69F1"/>
<path d="M147 44H121.5L146.678 10H147V44Z" fill="#BF69F1"/>
</g>
<path id="block_body" d="M58 60.5421C58 51.4061 65.3159 44 74.3404 44H169.66C178.684 44 186 51.4061 186 60.5421V86.4579C186 95.5939 178.684 103 169.66 103H74.3404C65.3159 103 58 95.5939 58 86.4579V60.5421Z" fill="#BF69F1"/>
</g>
<g id="block_input">
<path id="input_constant" d="M96 72C96 66.4772 100.477 62 106 62H163C168.523 62 173 66.4772 173 72V76C173 81.5228 168.523 86 163 86H106C100.477 86 96 81.5228 96 76V72Z" fill="white"/>
<path id="say_text" d="M76.1705 73.321L74.5085 73.4233C74.4801 73.2812 74.419 73.1534 74.3253 73.0398C74.2315 72.9233 74.108 72.831 73.9545 72.7628C73.804 72.6918 73.6236 72.6562 73.4134 72.6562C73.1321 72.6562 72.8949 72.7159 72.7017 72.8352C72.5085 72.9517 72.4119 73.108 72.4119 73.304C72.4119 73.4602 72.4744 73.5923 72.5994 73.7003C72.7244 73.8082 72.9389 73.8949 73.2429 73.9602L74.4276 74.1989C75.0639 74.3295 75.5384 74.5398 75.8509 74.8295C76.1634 75.1193 76.3196 75.5 76.3196 75.9716C76.3196 76.4006 76.1932 76.777 75.9403 77.1009C75.6903 77.4247 75.3466 77.6776 74.9091 77.8594C74.4744 78.0384 73.973 78.1278 73.4048 78.1278C72.5384 78.1278 71.848 77.9474 71.3338 77.5866C70.8224 77.223 70.5227 76.7287 70.4347 76.1037L72.2202 76.0099C72.2741 76.2741 72.4048 76.4759 72.6122 76.6151C72.8196 76.7514 73.0852 76.8196 73.4091 76.8196C73.7273 76.8196 73.983 76.7585 74.1761 76.6364C74.3722 76.5114 74.4716 76.3509 74.4744 76.1548C74.4716 75.9901 74.402 75.8551 74.2656 75.75C74.1293 75.642 73.919 75.5597 73.6349 75.5028L72.5014 75.277C71.8622 75.1491 71.3864 74.9276 71.0739 74.6122C70.7642 74.2969 70.6094 73.8949 70.6094 73.4062C70.6094 72.9858 70.723 72.6236 70.9503 72.3196C71.1804 72.0156 71.5028 71.7812 71.9176 71.6165C72.3352 71.4517 72.8239 71.3693 73.3835 71.3693C74.2102 71.3693 74.8608 71.544 75.3352 71.8935C75.8125 72.2429 76.0909 72.7187 76.1705 73.321ZM79.3292 78.1236C78.9116 78.1236 78.5394 78.0511 78.2127 77.9062C77.886 77.7585 77.6275 77.5412 77.4371 77.2543C77.2496 76.9645 77.1559 76.6037 77.1559 76.1719C77.1559 75.8082 77.2227 75.5028 77.3562 75.2557C77.4897 75.0085 77.6715 74.8097 77.9016 74.6591C78.1317 74.5085 78.3931 74.3949 78.6857 74.3182C78.9812 74.2415 79.2908 74.1875 79.6147 74.1562C79.9954 74.1165 80.3022 74.0795 80.5352 74.0455C80.7681 74.0085 80.9371 73.9545 81.0423 73.8835C81.1474 73.8125 81.1999 73.7074 81.1999 73.5682V73.5426C81.1999 73.2727 81.1147 73.0639 80.9442 72.9162C80.7766 72.7685 80.538 72.6946 80.2283 72.6946C79.9016 72.6946 79.6417 72.767 79.4485 72.9119C79.2553 73.054 79.1275 73.233 79.065 73.4489L77.386 73.3125C77.4712 72.9148 77.6388 72.571 77.8888 72.2812C78.1388 71.9886 78.4613 71.7642 78.8562 71.608C79.2539 71.4489 79.7141 71.3693 80.2369 71.3693C80.6005 71.3693 80.9485 71.4119 81.2809 71.4972C81.6161 71.5824 81.913 71.7145 82.1715 71.8935C82.4329 72.0724 82.6388 72.3026 82.7894 72.5838C82.94 72.8622 83.0153 73.196 83.0153 73.5852V78H81.2937V77.0923H81.2425C81.1374 77.2969 80.9968 77.4773 80.8207 77.6335C80.6445 77.7869 80.4329 77.9077 80.1857 77.9957C79.9386 78.081 79.6531 78.1236 79.3292 78.1236ZM79.8491 76.8707C80.1161 76.8707 80.3519 76.8182 80.5565 76.7131C80.761 76.6051 80.9215 76.4602 81.038 76.2784C81.1545 76.0966 81.2127 75.8906 81.2127 75.6605V74.9659C81.1559 75.0028 81.0778 75.0369 80.9783 75.0682C80.8817 75.0966 80.7724 75.1236 80.6502 75.1491C80.5281 75.1719 80.4059 75.1932 80.2837 75.2131C80.1616 75.2301 80.0508 75.2457 79.9513 75.2599C79.7383 75.2912 79.5522 75.3409 79.3931 75.4091C79.234 75.4773 79.1104 75.5696 79.0224 75.6861C78.9343 75.7997 78.8903 75.9418 78.8903 76.1122C78.8903 76.3594 78.9798 76.5483 79.1587 76.679C79.3406 76.8068 79.5707 76.8707 79.8491 76.8707ZM85.31 80.4545C85.0799 80.4545 84.864 80.4361 84.6623 80.3991C84.4634 80.3651 84.2987 80.321 84.168 80.267L84.5771 78.9119C84.7901 78.9773 84.9819 79.0128 85.1523 79.0185C85.3256 79.0241 85.4748 78.9844 85.5998 78.8991C85.7276 78.8139 85.8313 78.669 85.9109 78.4645L86.0174 78.1875L83.6694 71.4545H85.5785L86.9336 76.2614H87.0018L88.3697 71.4545H90.2915L87.7475 78.7074C87.6254 79.0597 87.4592 79.3665 87.2489 79.6278C87.0415 79.892 86.7788 80.0952 86.4606 80.2372C86.1424 80.3821 85.7589 80.4545 85.31 80.4545Z" fill="white"/>
</g>
</g>
</svg>
