<svg width="128" height="149" viewBox="0 0 128 149" fill="none" xmlns="http://www.w3.org/2000/svg">
<g id="say_menu">
<circle id="anchor:next" opacity="0.01" cx="64" cy="140" r="1" fill="#D9D9D9"/>
<g id="arrowHead">
<g id="tip">
<path d="M63.9999 140L89 115H39L63.9999 140Z" fill="white"/>
<path d="M63.9999 135L84 115H44L63.9999 135Z" fill="#BF69F1"/>
</g>
<path id="shaft" d="M76.0477 93H54.0477V115H76.0477V93Z" fill="#BF69F1"/>
</g>
<path id="bodyStretch" d="M0 50.5421C0 41.4061 7.31587 34 16.3404 34H111.66C120.684 34 128 41.4061 128 50.5421V76.4579C128 85.5939 120.684 93 111.66 93H16.3404C7.31587 93 0 85.5939 0 76.4579V50.5421Z" fill="#BF69F1"/>
<g id="capTop">
<path d="M64 34H39V9L64 34Z" fill="#BF69F1"/>
<path d="M89 34H64L89 9V34Z" fill="#BF69F1"/>
</g>
<path id="stripe" d="M89 14L64 39L39 14V9L64 34L89 9V14Z" fill="white"/>
<circle id="anchor:prev" opacity="0.01" cx="64" cy="34" r="1" fill="#D9D9D9"/>
<g id="input:value">
<rect id="box" opacity="0.01" x="38" y="50" width="75" height="25" rx="10" fill="#D9D9D9"/>
<rect id="box_2" x="43" y="52" width="75" height="25" rx="10" fill="white"/>
<circle id="anchor-input:value-right" opacity="0.01" cx="113" cy="63" r="1" fill="#D9D9D9"/>
<circle id="anchor-input:value-left" opacity="0.01" cx="38" cy="63" r="1" fill="white"/>
</g>
<path id="text" d="M20.7131 63.1513L18.6357 63.2791C18.6001 63.1016 18.5238 62.9418 18.4066 62.7997C18.2894 62.6541 18.1349 62.5387 17.9432 62.4535C17.755 62.3647 17.5295 62.3203 17.2667 62.3203C16.9151 62.3203 16.6186 62.3949 16.3771 62.544C16.1357 62.6896 16.0149 62.8849 16.0149 63.13C16.0149 63.3253 16.093 63.4904 16.2493 63.6254C16.4055 63.7603 16.6737 63.8686 17.0536 63.9503L18.5344 64.2486C19.3299 64.4119 19.9229 64.6747 20.3136 65.0369C20.7042 65.3991 20.8995 65.875 20.8995 66.4645C20.8995 67.0007 20.7415 67.4712 20.4254 67.8761C20.1129 68.2809 19.6832 68.5969 19.1364 68.8242C18.593 69.0479 17.9663 69.1598 17.256 69.1598C16.1729 69.1598 15.31 68.9343 14.6673 68.4833C14.0281 68.0288 13.6534 67.4109 13.5433 66.6296L15.7752 66.5124C15.8427 66.8427 16.006 67.0948 16.2653 67.2688C16.5245 67.4393 16.8565 67.5245 17.2614 67.5245C17.6591 67.5245 17.9787 67.4482 18.2202 67.2955C18.4652 67.1392 18.5895 66.9386 18.593 66.6935C18.5895 66.4876 18.5025 66.3189 18.332 66.1875C18.1616 66.0526 17.8988 65.9496 17.5437 65.8786L16.1268 65.5962C15.3278 65.4364 14.733 65.1594 14.3423 64.7653C13.9553 64.3711 13.7617 63.8686 13.7617 63.2578C13.7617 62.7322 13.9038 62.2795 14.1879 61.8995C14.4755 61.5195 14.8786 61.2266 15.397 61.0206C15.919 60.8146 16.5298 60.7116 17.2294 60.7116C18.2628 60.7116 19.076 60.93 19.669 61.3668C20.2656 61.8036 20.6136 62.3984 20.7131 63.1513ZM24.6615 69.1545C24.1395 69.1545 23.6743 69.0639 23.2659 68.8828C22.8575 68.6982 22.5344 68.4265 22.2964 68.0678C22.0621 67.7056 21.9449 67.2546 21.9449 66.7148C21.9449 66.2603 22.0283 65.8786 22.1952 65.5696C22.3621 65.2607 22.5894 65.0121 22.877 64.8239C23.1647 64.6357 23.4914 64.4936 23.8572 64.3977C24.2265 64.3018 24.6135 64.2344 25.0184 64.1953C25.4942 64.1456 25.8778 64.0994 26.1689 64.0568C26.4601 64.0107 26.6714 63.9432 26.8028 63.8544C26.9342 63.7656 26.9999 63.6342 26.9999 63.4602V63.4283C26.9999 63.0909 26.8934 62.8299 26.6803 62.6452C26.4708 62.4606 26.1725 62.3683 25.7854 62.3683C25.377 62.3683 25.0521 62.4588 24.8106 62.6399C24.5692 62.8175 24.4094 63.0412 24.3312 63.3111L22.2325 63.1406C22.339 62.6435 22.5486 62.2138 22.8611 61.8516C23.1736 61.4858 23.5766 61.2053 24.0702 61.0099C24.5674 60.8111 25.1427 60.7116 25.7961 60.7116C26.2506 60.7116 26.6856 60.7649 27.1011 60.8714C27.5202 60.978 27.8912 61.1431 28.2144 61.3668C28.5411 61.5906 28.7986 61.8782 28.9868 62.2298C29.175 62.5778 29.2691 62.995 29.2691 63.4815V69H27.1171V67.8654H27.0532C26.9218 68.1211 26.746 68.3466 26.5258 68.5419C26.3057 68.7337 26.0411 68.8846 25.7322 68.9947C25.4232 69.1012 25.0663 69.1545 24.6615 69.1545ZM25.3113 67.5884C25.6452 67.5884 25.9399 67.5227 26.1956 67.3913C26.4513 67.2564 26.6519 67.0753 26.7975 66.848C26.9431 66.6207 27.0159 66.3633 27.0159 66.0756V65.2074C26.9449 65.2536 26.8472 65.2962 26.7229 65.3352C26.6022 65.3707 26.4655 65.4045 26.3128 65.4364C26.1601 65.4648 26.0074 65.4915 25.8547 65.5163C25.702 65.5376 25.5635 65.5572 25.4392 65.5749C25.1729 65.614 24.9403 65.6761 24.7414 65.7614C24.5425 65.8466 24.3881 65.962 24.278 66.1076C24.1679 66.2496 24.1128 66.4272 24.1128 66.6403C24.1128 66.9492 24.2247 67.1854 24.4484 67.3487C24.6757 67.5085 24.9633 67.5884 25.3113 67.5884ZM32.1375 72.0682C31.8499 72.0682 31.58 72.0451 31.3279 71.9989C31.0793 71.9563 30.8733 71.9013 30.71 71.8338L31.2213 70.1399C31.4877 70.2216 31.7274 70.266 31.9404 70.2731C32.157 70.2802 32.3435 70.2305 32.4997 70.1239C32.6595 70.0174 32.7892 69.8363 32.8886 69.5806L33.0218 69.2344L30.0867 60.8182H32.4731L34.167 66.8267H34.2522L35.9621 60.8182H38.3644L35.1844 69.8842C35.0317 70.3246 34.824 70.7081 34.5612 71.0348C34.3019 71.3651 33.9735 71.619 33.5757 71.7965C33.178 71.9776 32.6986 72.0682 32.1375 72.0682Z" fill="white"/>
</g>
</svg>
