<svg width="248" height="149" viewBox="0 0 248 149" fill="none" xmlns="http://www.w3.org/2000/svg">
<g id="set_variable">
<circle id="anchor:next" opacity="0.01" cx="123" cy="140" r="1" fill="#D9D9D9"/>
<g id="arrowHead">
<g id="border">
<path d="M123 140L148 115H98L123 140Z" fill="white"/>
<path d="M123 135L143 115H103L123 135Z" fill="white"/>
</g>
<g id="tip">
<path d="M123 135L143 115H103L123 135Z" fill="#E57C4F"/>
<path d="M123 131L139 115H107L123 131Z" fill="#E57C4F"/>
</g>
<path id="shaft" d="M135.048 93H113.048V115H135.048V93Z" fill="#E57C4F"/>
</g>
<path id="bodyStretch" d="M0 50.5421C0 41.4061 14.1745 34 31.6596 34H216.341C233.826 34 248 41.4061 248 50.5421V76.4579C248 85.5939 233.826 93 216.341 93H31.6596C14.1745 93 0 85.5939 0 76.4579V50.5421Z" fill="#E57C4F"/>
<g id="input:value">
<rect id="box" opacity="0.01" x="159" y="50" width="75" height="25" rx="10" fill="#D9D9D9"/>
<circle id="anchor-input:value-right" opacity="0.01" cx="234" cy="63" r="1" fill="#D9D9D9"/>
<circle id="anchor-input:value-left" opacity="0.01" cx="159" cy="63" r="1" fill="white"/>
</g>
<path id="text" d="M134.206 59.4545V60.8182H130.264V59.4545H134.206ZM131.159 57.8864H132.974V63.9886C132.974 64.1562 133 64.2869 133.051 64.3807C133.102 64.4716 133.173 64.5355 133.264 64.5724C133.358 64.6094 133.466 64.6278 133.588 64.6278C133.673 64.6278 133.759 64.6207 133.844 64.6065C133.929 64.5895 133.994 64.5767 134.04 64.5682L134.325 65.919C134.234 65.9474 134.107 65.9801 133.942 66.017C133.777 66.0568 133.577 66.081 133.341 66.0895C132.903 66.1065 132.52 66.0483 132.19 65.9148C131.864 65.7812 131.609 65.5739 131.428 65.2926C131.246 65.0114 131.156 64.6562 131.159 64.2273V57.8864ZM138.276 66.1278C137.614 66.1278 137.041 65.9872 136.558 65.706C136.078 65.4219 135.707 65.027 135.446 64.5213C135.185 64.0128 135.054 63.4233 135.054 62.7528C135.054 62.0767 135.185 61.4858 135.446 60.9801C135.707 60.4716 136.078 60.0767 136.558 59.7955C137.041 59.5114 137.614 59.3693 138.276 59.3693C138.938 59.3693 139.509 59.5114 139.989 59.7955C140.472 60.0767 140.844 60.4716 141.105 60.9801C141.366 61.4858 141.497 62.0767 141.497 62.7528C141.497 63.4233 141.366 64.0128 141.105 64.5213C140.844 65.027 140.472 65.4219 139.989 65.706C139.509 65.9872 138.938 66.1278 138.276 66.1278ZM138.284 64.7216C138.585 64.7216 138.837 64.6364 139.038 64.4659C139.24 64.2926 139.392 64.0568 139.494 63.7585C139.599 63.4602 139.652 63.1207 139.652 62.7401C139.652 62.3594 139.599 62.0199 139.494 61.7216C139.392 61.4233 139.24 61.1875 139.038 61.0142C138.837 60.8409 138.585 60.7543 138.284 60.7543C137.98 60.7543 137.724 60.8409 137.517 61.0142C137.313 61.1875 137.158 61.4233 137.053 61.7216C136.95 62.0199 136.899 62.3594 136.899 62.7401C136.899 63.1207 136.95 63.4602 137.053 63.7585C137.158 64.0568 137.313 64.2926 137.517 64.4659C137.724 64.6364 137.98 64.7216 138.284 64.7216Z" fill="white"/>
<g id="dropdown:name">
<rect id="box_2" opacity="0.01" x="41" y="50" width="75" height="25" fill="#D9D9D9"/>
</g>
<path id="text_2" d="M18.1705 62.321L16.5085 62.4233C16.4801 62.2812 16.419 62.1534 16.3253 62.0398C16.2315 61.9233 16.108 61.831 15.9545 61.7628C15.804 61.6918 15.6236 61.6562 15.4134 61.6562C15.1321 61.6562 14.8949 61.7159 14.7017 61.8352C14.5085 61.9517 14.4119 62.108 14.4119 62.304C14.4119 62.4602 14.4744 62.5923 14.5994 62.7003C14.7244 62.8082 14.9389 62.8949 15.2429 62.9602L16.4276 63.1989C17.0639 63.3295 17.5384 63.5398 17.8509 63.8295C18.1634 64.1193 18.3196 64.5 18.3196 64.9716C18.3196 65.4006 18.1932 65.777 17.9403 66.1009C17.6903 66.4247 17.3466 66.6776 16.9091 66.8594C16.4744 67.0384 15.973 67.1278 15.4048 67.1278C14.5384 67.1278 13.848 66.9474 13.3338 66.5866C12.8224 66.223 12.5227 65.7287 12.4347 65.1037L14.2202 65.0099C14.2741 65.2741 14.4048 65.4759 14.6122 65.6151C14.8196 65.7514 15.0852 65.8196 15.4091 65.8196C15.7273 65.8196 15.983 65.7585 16.1761 65.6364C16.3722 65.5114 16.4716 65.3509 16.4744 65.1548C16.4716 64.9901 16.402 64.8551 16.2656 64.75C16.1293 64.642 15.919 64.5597 15.6349 64.5028L14.5014 64.277C13.8622 64.1491 13.3864 63.9276 13.0739 63.6122C12.7642 63.2969 12.6094 62.8949 12.6094 62.4062C12.6094 61.9858 12.723 61.6236 12.9503 61.3196C13.1804 61.0156 13.5028 60.7812 13.9176 60.6165C14.3352 60.4517 14.8239 60.3693 15.3835 60.3693C16.2102 60.3693 16.8608 60.544 17.3352 60.8935C17.8125 61.2429 18.0909 61.7187 18.1705 62.321ZM22.4457 67.1278C21.7724 67.1278 21.1928 66.9915 20.707 66.7188C20.2241 66.4432 19.8519 66.054 19.5906 65.5511C19.3292 65.0455 19.1985 64.4474 19.1985 63.7571C19.1985 63.0838 19.3292 62.4929 19.5906 61.9844C19.8519 61.4759 20.2198 61.0795 20.6942 60.7955C21.1715 60.5114 21.7312 60.3693 22.3732 60.3693C22.805 60.3693 23.207 60.4389 23.5792 60.5781C23.9542 60.7145 24.2809 60.9205 24.5593 61.196C24.8406 61.4716 25.0593 61.8182 25.2156 62.2358C25.3718 62.6506 25.4499 63.1364 25.4499 63.6932V64.1918H19.9229V63.0668H23.7411C23.7411 62.8054 23.6843 62.5739 23.5707 62.3722C23.457 62.1705 23.2994 62.0128 23.0977 61.8991C22.8988 61.7827 22.6673 61.7244 22.4031 61.7244C22.1275 61.7244 21.8832 61.7884 21.6701 61.9162C21.4599 62.0412 21.2951 62.2102 21.1758 62.4233C21.0565 62.6335 20.9954 62.8679 20.9925 63.1264V64.196C20.9925 64.5199 21.0522 64.7997 21.1715 65.0355C21.2937 65.2713 21.4656 65.4531 21.6871 65.581C21.9087 65.7088 22.1715 65.7727 22.4755 65.7727C22.6772 65.7727 22.8619 65.7443 23.0295 65.6875C23.1971 65.6307 23.3406 65.5455 23.4599 65.4318C23.5792 65.3182 23.6701 65.179 23.7326 65.0142L25.4116 65.125C25.3263 65.5284 25.1516 65.8807 24.8874 66.1818C24.6261 66.4801 24.288 66.7131 23.8732 66.8807C23.4613 67.0455 22.9854 67.1278 22.4457 67.1278ZM30.1161 60.4545V61.8182H26.1744V60.4545H30.1161ZM27.0692 58.8864H28.8846V64.9886C28.8846 65.1562 28.9102 65.2869 28.9613 65.3807C29.0124 65.4716 29.0835 65.5355 29.1744 65.5724C29.2681 65.6094 29.3761 65.6278 29.4982 65.6278C29.5835 65.6278 29.6687 65.6207 29.7539 65.6065C29.8391 65.5895 29.9045 65.5767 29.9499 65.5682L30.2354 66.919C30.1445 66.9474 30.0167 66.9801 29.8519 67.017C29.6871 67.0568 29.4869 67.081 29.2511 67.0895C28.8136 67.1065 28.43 67.0483 28.1005 66.9148C27.7738 66.7812 27.5195 66.5739 27.3377 66.2926C27.1559 66.0114 27.0664 65.6562 27.0692 65.2273V58.8864Z" fill="white"/>
<g id="capTop">
<path d="M123 34H98V9L123 34Z" fill="#E57C4F"/>
<path d="M148 34H123L148 9V34Z" fill="#E57C4F"/>
</g>
<circle id="anchor:prev" opacity="0.01" cx="123" cy="34" r="1" fill="#D9D9D9"/>
<path id="stripe" d="M148 14L123 39L98 14V9L123 34L148 9V14Z" fill="white"/>
</g>
</svg>
