<svg width="248" height="149" viewBox="0 0 248 149" fill="none" xmlns="http://www.w3.org/2000/svg">
<g id="set_variable_menu">
<circle id="anchor:next" opacity="0.01" cx="123" cy="140" r="1" fill="#D9D9D9"/>
<g id="arrowHead">
<g id="border">
<path d="M123 140L148 115H98L123 140Z" fill="white"/>
<path d="M123 135L143 115H103L123 135Z" fill="white"/>
</g>
<g id="tip">
<path d="M123 135L143 115H103L123 135Z" fill="#E57C4F"/>
<path d="M123 131L139 115H107L123 131Z" fill="#E57C4F"/>
</g>
<path id="shaft" d="M135.048 93H113.048V115H135.048V93Z" fill="#E57C4F"/>
</g>
<path id="bodyStretch" d="M0 50.5421C0 41.4061 14.1745 34 31.6596 34H216.341C233.826 34 248 41.4061 248 50.5421V76.4579C248 85.5939 233.826 93 216.341 93H31.6596C14.1745 93 0 85.5939 0 76.4579V50.5421Z" fill="#E57C4F"/>
<g id="input:value">
<rect id="box" x="159" y="50" width="75" height="25" rx="10" fill="white"/>
<circle id="anchor-input:value-right" opacity="0.01" cx="234" cy="63" r="1" fill="#D9D9D9"/>
<circle id="anchor-input:value-left" opacity="0.01" cx="159" cy="63" r="1" fill="white"/>
</g>
<path id="text" d="M135.257 59.8182V61.5227H130.33V59.8182H135.257ZM131.449 57.858H133.718V65.4858C133.718 65.6953 133.75 65.8587 133.814 65.9759C133.878 66.0895 133.967 66.1694 134.08 66.2156C134.197 66.2617 134.332 66.2848 134.485 66.2848C134.592 66.2848 134.698 66.2759 134.805 66.2582C134.911 66.2369 134.993 66.2209 135.05 66.2102L135.407 67.8988C135.293 67.9343 135.133 67.9751 134.927 68.0213C134.721 68.071 134.471 68.1012 134.176 68.1119C133.629 68.1332 133.15 68.0604 132.738 67.8935C132.33 67.7266 132.012 67.4673 131.784 67.1158C131.557 66.7642 131.445 66.3203 131.449 65.7841V57.858ZM140.344 68.1598C139.517 68.1598 138.801 67.984 138.198 67.6325C137.598 67.2773 137.134 66.7837 136.808 66.1516C136.481 65.516 136.317 64.7791 136.317 63.9411C136.317 63.0959 136.481 62.3572 136.808 61.7251C137.134 61.0895 137.598 60.5959 138.198 60.2443C138.801 59.8892 139.517 59.7116 140.344 59.7116C141.172 59.7116 141.886 59.8892 142.486 60.2443C143.089 60.5959 143.555 61.0895 143.881 61.7251C144.208 62.3572 144.371 63.0959 144.371 63.9411C144.371 64.7791 144.208 65.516 143.881 66.1516C143.555 66.7837 143.089 67.2773 142.486 67.6325C141.886 67.984 141.172 68.1598 140.344 68.1598ZM140.355 66.402C140.732 66.402 141.046 66.2955 141.298 66.0824C141.55 65.8658 141.74 65.571 141.868 65.1982C141.999 64.8253 142.065 64.4009 142.065 63.9251C142.065 63.4492 141.999 63.0249 141.868 62.652C141.74 62.2791 141.55 61.9844 141.298 61.7678C141.046 61.5511 140.732 61.4428 140.355 61.4428C139.975 61.4428 139.656 61.5511 139.396 61.7678C139.141 61.9844 138.947 62.2791 138.816 62.652C138.688 63.0249 138.624 63.4492 138.624 63.9251C138.624 64.4009 138.688 64.8253 138.816 65.1982C138.947 65.571 139.141 65.8658 139.396 66.0824C139.656 66.2955 139.975 66.402 140.355 66.402Z" fill="white"/>
<g id="dropdown:name">
<rect id="box_2" x="41.5" y="50.5" width="80" height="24" fill="#E57C4F" stroke="black"/>
</g>
<path id="text_2" d="M19.7131 63.1513L17.6357 63.2791C17.6001 63.1016 17.5238 62.9418 17.4066 62.7997C17.2894 62.6541 17.1349 62.5387 16.9432 62.4535C16.755 62.3647 16.5295 62.3203 16.2667 62.3203C15.9151 62.3203 15.6186 62.3949 15.3771 62.544C15.1357 62.6896 15.0149 62.8849 15.0149 63.13C15.0149 63.3253 15.093 63.4904 15.2493 63.6254C15.4055 63.7603 15.6737 63.8686 16.0536 63.9503L17.5344 64.2486C18.3299 64.4119 18.9229 64.6747 19.3136 65.0369C19.7042 65.3991 19.8995 65.875 19.8995 66.4645C19.8995 67.0007 19.7415 67.4712 19.4254 67.8761C19.1129 68.2809 18.6832 68.5969 18.1364 68.8242C17.593 69.0479 16.9663 69.1598 16.256 69.1598C15.1729 69.1598 14.31 68.9343 13.6673 68.4833C13.0281 68.0288 12.6534 67.4109 12.5433 66.6296L14.7752 66.5124C14.8427 66.8427 15.006 67.0948 15.2653 67.2688C15.5245 67.4393 15.8565 67.5245 16.2614 67.5245C16.6591 67.5245 16.9787 67.4482 17.2202 67.2955C17.4652 67.1392 17.5895 66.9386 17.593 66.6935C17.5895 66.4876 17.5025 66.3189 17.332 66.1875C17.1616 66.0526 16.8988 65.9496 16.5437 65.8786L15.1268 65.5962C14.3278 65.4364 13.733 65.1594 13.3423 64.7653C12.9553 64.3711 12.7617 63.8686 12.7617 63.2578C12.7617 62.7322 12.9038 62.2795 13.1879 61.8995C13.4755 61.5195 13.8786 61.2266 14.397 61.0206C14.919 60.8146 15.5298 60.7116 16.2294 60.7116C17.2628 60.7116 18.076 60.93 18.669 61.3668C19.2656 61.8036 19.6136 62.3984 19.7131 63.1513ZM25.0571 69.1598C24.2155 69.1598 23.491 68.9893 22.8838 68.6484C22.2801 68.304 21.8149 67.8175 21.4882 67.1889C21.1615 66.5568 20.9981 65.8093 20.9981 64.9464C20.9981 64.1048 21.1615 63.3661 21.4882 62.7305C21.8149 62.0948 22.2748 61.5994 22.8678 61.2443C23.4644 60.8892 24.164 60.7116 24.9665 60.7116C25.5063 60.7116 26.0088 60.7987 26.474 60.9727C26.9427 61.1431 27.3511 61.4006 27.6991 61.745C28.0507 62.0895 28.3241 62.5227 28.5194 63.0447C28.7148 63.5632 28.8124 64.1705 28.8124 64.8665V65.4897H21.9037V64.0835H26.6764C26.6764 63.7567 26.6054 63.4673 26.4633 63.2152C26.3213 62.9631 26.1242 62.766 25.8721 62.6239C25.6235 62.4783 25.3341 62.4055 25.0038 62.4055C24.6594 62.4055 24.354 62.4854 24.0876 62.6452C23.8248 62.8015 23.6189 63.0128 23.4697 63.2791C23.3206 63.5419 23.2442 63.8349 23.2407 64.158V65.495C23.2407 65.8999 23.3153 66.2496 23.4644 66.5444C23.6171 66.8391 23.8319 67.0664 24.1089 67.2262C24.3859 67.386 24.7144 67.4659 25.0944 67.4659C25.3465 67.4659 25.5773 67.4304 25.7868 67.3594C25.9964 67.2884 26.1757 67.1818 26.3248 67.0398C26.474 66.8977 26.5876 66.7237 26.6657 66.5178L28.7645 66.6562C28.6579 67.1605 28.4395 67.6009 28.1093 67.9773C27.7826 68.3501 27.36 68.6413 26.8415 68.8509C26.3266 69.0568 25.7318 69.1598 25.0571 69.1598ZM34.6452 60.8182V62.5227H29.718V60.8182H34.6452ZM30.8366 58.858H33.1057V66.4858C33.1057 66.6953 33.1377 66.8587 33.2016 66.9759C33.2655 67.0895 33.3543 67.1694 33.468 67.2156C33.5851 67.2617 33.7201 67.2848 33.8728 67.2848C33.9793 67.2848 34.0858 67.2759 34.1924 67.2582C34.2989 67.2369 34.3806 67.2209 34.4374 67.2102L34.7943 68.8988C34.6807 68.9343 34.5209 68.9751 34.3149 69.0213C34.1089 69.071 33.8586 69.1012 33.5638 69.1119C33.017 69.1332 32.5376 69.0604 32.1256 68.8935C31.7172 68.7266 31.3994 68.4673 31.1721 68.1158C30.9449 67.7642 30.833 67.3203 30.8366 66.7841V58.858Z" fill="white"/>
<path id="text_3" d="M55.5334 59.8182L52.6729 68H50.1161L47.2557 59.8182H49.6527L51.3519 65.6722H51.4371L53.131 59.8182H55.5334ZM58.808 68.1545C58.286 68.1545 57.8208 68.0639 57.4124 67.8828C57.004 67.6982 56.6808 67.4265 56.4429 67.0678C56.2085 66.7056 56.0914 66.2546 56.0914 65.7148C56.0914 65.2603 56.1748 64.8786 56.3417 64.5696C56.5086 64.2607 56.7359 64.0121 57.0235 63.8239C57.3112 63.6357 57.6379 63.4936 58.0036 63.3977C58.373 63.3018 58.76 63.2344 59.1649 63.1953C59.6407 63.1456 60.0242 63.0994 60.3154 63.0568C60.6066 63.0107 60.8179 62.9432 60.9493 62.8544C61.0807 62.7656 61.1464 62.6342 61.1464 62.4602V62.4283C61.1464 62.0909 61.0399 61.8299 60.8268 61.6452C60.6173 61.4606 60.319 61.3683 59.9319 61.3683C59.5235 61.3683 59.1986 61.4588 58.9571 61.6399C58.7156 61.8175 58.5558 62.0412 58.4777 62.3111L56.379 62.1406C56.4855 61.6435 56.695 61.2138 57.0075 60.8516C57.32 60.4858 57.7231 60.2053 58.2167 60.0099C58.7139 59.8111 59.2892 59.7116 59.9426 59.7116C60.3971 59.7116 60.8321 59.7649 61.2476 59.8714C61.6666 59.978 62.0377 60.1431 62.3609 60.3668C62.6876 60.5906 62.945 60.8782 63.1333 61.2298C63.3215 61.5778 63.4156 61.995 63.4156 62.4815V68H61.2636V66.8654H61.1997C61.0683 67.1211 60.8925 67.3466 60.6723 67.5419C60.4521 67.7337 60.1876 67.8846 59.8786 67.9947C59.5697 68.1012 59.2128 68.1545 58.808 68.1545ZM59.4578 66.5884C59.7916 66.5884 60.0864 66.5227 60.3421 66.3913C60.5977 66.2564 60.7984 66.0753 60.944 65.848C61.0896 65.6207 61.1624 65.3633 61.1624 65.0756V64.2074C61.0914 64.2536 60.9937 64.2962 60.8694 64.3352C60.7487 64.3707 60.6119 64.4045 60.4593 64.4364C60.3066 64.4648 60.1539 64.4915 60.0012 64.5163C59.8485 64.5376 59.71 64.5572 59.5857 64.5749C59.3193 64.614 59.0867 64.6761 58.8879 64.7614C58.689 64.8466 58.5345 64.962 58.4244 65.1076C58.3144 65.2496 58.2593 65.4272 58.2593 65.6403C58.2593 65.9492 58.3712 66.1854 58.5949 66.3487C58.8222 66.5085 59.1098 66.5884 59.4578 66.5884ZM65.176 68V59.8182H67.376V61.2457H67.4612C67.6104 60.7379 67.8607 60.3544 68.2123 60.0952C68.5638 59.8324 68.9687 59.701 69.4268 59.701C69.5404 59.701 69.6629 59.7081 69.7943 59.7223C69.9257 59.7365 70.0411 59.756 70.1405 59.7809V61.7944C70.034 61.7624 69.8866 61.734 69.6984 61.7092C69.5102 61.6843 69.338 61.6719 69.1817 61.6719C68.8479 61.6719 68.5496 61.7447 68.2868 61.8903C68.0276 62.0323 67.8216 62.2312 67.6689 62.4869C67.5198 62.7425 67.4452 63.0373 67.4452 63.3711V68H65.176ZM71.3137 68V59.8182H73.5829V68H71.3137ZM72.4537 58.7635C72.1163 58.7635 71.8269 58.6516 71.5854 58.4279C71.3475 58.2006 71.2285 57.929 71.2285 57.6129C71.2285 57.3004 71.3475 57.0323 71.5854 56.8086C71.8269 56.5813 72.1163 56.4677 72.4537 56.4677C72.791 56.4677 73.0787 56.5813 73.3166 56.8086C73.5581 57.0323 73.6788 57.3004 73.6788 57.6129C73.6788 57.929 73.5581 58.2006 73.3166 58.4279C73.0787 58.6516 72.791 58.7635 72.4537 58.7635ZM77.7338 68.1545C77.2117 68.1545 76.7465 68.0639 76.3382 67.8828C75.9298 67.6982 75.6066 67.4265 75.3687 67.0678C75.1343 66.7056 75.0171 66.2546 75.0171 65.7148C75.0171 65.2603 75.1006 64.8786 75.2675 64.5696C75.4344 64.2607 75.6617 64.0121 75.9493 63.8239C76.2369 63.6357 76.5637 63.4936 76.9294 63.3977C77.2987 63.3018 77.6858 63.2344 78.0906 63.1953C78.5665 63.1456 78.95 63.0994 79.2412 63.0568C79.5324 63.0107 79.7437 62.9432 79.8751 62.8544C80.0065 62.7656 80.0722 62.6342 80.0722 62.4602V62.4283C80.0722 62.0909 79.9656 61.8299 79.7526 61.6452C79.5431 61.4606 79.2448 61.3683 78.8577 61.3683C78.4493 61.3683 78.1244 61.4588 77.8829 61.6399C77.6414 61.8175 77.4816 62.0412 77.4035 62.3111L75.3048 62.1406C75.4113 61.6435 75.6208 61.2138 75.9333 60.8516C76.2458 60.4858 76.6489 60.2053 77.1425 60.0099C77.6396 59.8111 78.2149 59.7116 78.8683 59.7116C79.3229 59.7116 79.7579 59.7649 80.1734 59.8714C80.5924 59.978 80.9635 60.1431 81.2867 60.3668C81.6134 60.5906 81.8708 60.8782 82.059 61.2298C82.2472 61.5778 82.3414 61.995 82.3414 62.4815V68H80.1894V66.8654H80.1254C79.9941 67.1211 79.8183 67.3466 79.5981 67.5419C79.3779 67.7337 79.1134 67.8846 78.8044 67.9947C78.4955 68.1012 78.1386 68.1545 77.7338 68.1545ZM78.3836 66.5884C78.7174 66.5884 79.0122 66.5227 79.2678 66.3913C79.5235 66.2564 79.7242 66.0753 79.8698 65.848C80.0154 65.6207 80.0882 65.3633 80.0882 65.0756V64.2074C80.0171 64.2536 79.9195 64.2962 79.7952 64.3352C79.6744 64.3707 79.5377 64.4045 79.385 64.4364C79.2323 64.4648 79.0796 64.4915 78.9269 64.5163C78.7742 64.5376 78.6357 64.5572 78.5115 64.5749C78.2451 64.614 78.0125 64.6761 77.8137 64.7614C77.6148 64.8466 77.4603 64.962 77.3502 65.1076C77.2401 65.2496 77.1851 65.4272 77.1851 65.6403C77.1851 65.9492 77.297 66.1854 77.5207 66.3487C77.748 66.5085 78.0356 66.5884 78.3836 66.5884ZM84.1444 68V57.0909H86.4136V61.1925H86.4829C86.5823 60.9723 86.7261 60.7486 86.9143 60.5213C87.1061 60.2905 87.3547 60.0987 87.6601 59.946C87.969 59.7898 88.3525 59.7116 88.8106 59.7116C89.4072 59.7116 89.9577 59.8679 90.4619 60.1804C90.9662 60.4893 91.3692 60.9563 91.6711 61.5813C91.9729 62.2028 92.1238 62.9822 92.1238 63.9197C92.1238 64.8324 91.9765 65.603 91.6817 66.2315C91.3905 66.8565 90.9928 67.3306 90.4885 67.6538C89.9878 67.9734 89.4268 68.1332 88.8053 68.1332C88.365 68.1332 87.9903 68.0604 87.6814 67.9148C87.376 67.7692 87.1256 67.5863 86.9303 67.3661C86.735 67.1424 86.5858 66.9169 86.4829 66.6896H86.3817V68H84.1444ZM86.3657 63.9091C86.3657 64.3956 86.4331 64.82 86.5681 65.1822C86.703 65.5444 86.8983 65.8267 87.154 66.0291C87.4097 66.228 87.7204 66.3274 88.0862 66.3274C88.4555 66.3274 88.768 66.2262 89.0237 66.0238C89.2794 65.8178 89.4729 65.5337 89.6043 65.1715C89.7393 64.8058 89.8067 64.3849 89.8067 63.9091C89.8067 63.4368 89.741 63.0213 89.6096 62.6626C89.4782 62.304 89.2847 62.0234 89.029 61.821C88.7733 61.6186 88.4591 61.5174 88.0862 61.5174C87.7169 61.5174 87.4044 61.6151 87.1487 61.8104C86.8966 62.0057 86.703 62.2827 86.5681 62.6413C86.4331 63 86.3657 63.4226 86.3657 63.9091ZM95.9071 57.0909V68H93.638V57.0909H95.9071ZM101.454 68.1598C100.612 68.1598 99.8875 67.9893 99.2803 67.6484C98.6766 67.304 98.2114 66.8175 97.8847 66.1889C97.558 65.5568 97.3946 64.8093 97.3946 63.9464C97.3946 63.1048 97.558 62.3661 97.8847 61.7305C98.2114 61.0948 98.6713 60.5994 99.2643 60.2443C99.8609 59.8892 100.56 59.7116 101.363 59.7116C101.903 59.7116 102.405 59.7987 102.87 59.9727C103.339 60.1431 103.748 60.4006 104.096 60.745C104.447 61.0895 104.721 61.5227 104.916 62.0447C105.111 62.5632 105.209 63.1705 105.209 63.8665V64.4897H98.3002V63.0835H103.073C103.073 62.7567 103.002 62.4673 102.86 62.2152C102.718 61.9631 102.521 61.766 102.269 61.6239C102.02 61.4783 101.731 61.4055 101.4 61.4055C101.056 61.4055 100.75 61.4854 100.484 61.6452C100.221 61.8015 100.015 62.0128 99.8662 62.2791C99.7171 62.5419 99.6407 62.8349 99.6372 63.158V64.495C99.6372 64.8999 99.7117 65.2496 99.8609 65.5444C100.014 65.8391 100.228 66.0664 100.505 66.2262C100.782 66.386 101.111 66.4659 101.491 66.4659C101.743 66.4659 101.974 66.4304 102.183 66.3594C102.393 66.2884 102.572 66.1818 102.721 66.0398C102.87 65.8977 102.984 65.7237 103.062 65.5178L105.161 65.6562C105.054 66.1605 104.836 66.6009 104.506 66.9773C104.179 67.3501 103.756 67.6413 103.238 67.8509C102.723 68.0568 102.128 68.1598 101.454 68.1598Z" fill="white"/>
<g id="capTop">
<path d="M123 34H98V9L123 34Z" fill="#E57C4F"/>
<path d="M148 34H123L148 9V34Z" fill="#E57C4F"/>
</g>
<circle id="anchor:prev" opacity="0.01" cx="123" cy="34" r="1" fill="#D9D9D9"/>
<path id="stripe" d="M148 14L123 39L98 14V9L123 34L148 9V14Z" fill="white"/>
<path id="Polygon 2" d="M111.5 67L106.737 61.75H116.263L111.5 67Z" fill="#AD4B21"/>
</g>
</svg>
