<svg width="250" height="149" viewBox="0 0 250 149" fill="none" xmlns="http://www.w3.org/2000/svg">
<g id="set_variable">
<g id="block_shape">
<path id="next_block_arrowbody" d="M136 93H114V115H136V93Z" fill="#E57C4F"/>
<path id="next_block_arrowhead" d="M124.5 149L150.048 114.5H98.9523L124.5 149Z" fill="#E57C4F"/>
<g id="prev_block_connector">
<path id="Vector" d="M124.5 34H99V0H99.3223L124.5 34Z" fill="#E57C4F"/>
<path id="Vector_2" d="M150 34H124.5L149.678 0H150V34Z" fill="#E57C4F"/>
</g>
<path id="block_body" d="M0 50.5421C0 41.4061 14.2889 34 31.9148 34H218.086C235.711 34 250 41.4061 250 50.5421V76.4579C250 85.5939 235.711 93 218.086 93H31.9148C14.2889 93 0 85.5939 0 76.4579V50.5421Z" fill="#E57C4F"/>
</g>
<g id="block_input">
<path id="value_input" d="M155 62C155 56.4772 159.477 52 165 52H222C227.523 52 232 56.4772 232 62V66C232 71.5228 227.523 76 222 76H165C159.477 76 155 71.5228 155 66V62Z" fill="white"/>
<path id="var_input" d="M43 62C43 56.4772 47.477 52 53 52H110C115.523 52 120 56.4772 120 62V66C120 71.5228 115.523 76 110 76H53C47.477 76 43 71.5228 43 66V62Z" fill="white"/>
<path id="to" d="M134.206 62.4545V63.8182H130.264V62.4545H134.206ZM131.159 60.8864H132.974V66.9886C132.974 67.1562 133 67.2869 133.051 67.3807C133.102 67.4716 133.173 67.5355 133.264 67.5724C133.358 67.6094 133.466 67.6278 133.588 67.6278C133.673 67.6278 133.759 67.6207 133.844 67.6065C133.929 67.5895 133.994 67.5767 134.04 67.5682L134.325 68.919C134.234 68.9474 134.107 68.9801 133.942 69.017C133.777 69.0568 133.577 69.081 133.341 69.0895C132.903 69.1065 132.52 69.0483 132.19 68.9148C131.864 68.7812 131.609 68.5739 131.428 68.2926C131.246 68.0114 131.156 67.6562 131.159 67.2273V60.8864ZM138.276 69.1278C137.614 69.1278 137.041 68.9872 136.558 68.706C136.078 68.4219 135.707 68.027 135.446 67.5213C135.185 67.0128 135.054 66.4233 135.054 65.7528C135.054 65.0767 135.185 64.4858 135.446 63.9801C135.707 63.4716 136.078 63.0767 136.558 62.7955C137.041 62.5114 137.614 62.3693 138.276 62.3693C138.938 62.3693 139.509 62.5114 139.989 62.7955C140.472 63.0767 140.844 63.4716 141.105 63.9801C141.366 64.4858 141.497 65.0767 141.497 65.7528C141.497 66.4233 141.366 67.0128 141.105 67.5213C140.844 68.027 140.472 68.4219 139.989 68.706C139.509 68.9872 138.938 69.1278 138.276 69.1278ZM138.284 67.7216C138.585 67.7216 138.837 67.6364 139.038 67.4659C139.24 67.2926 139.392 67.0568 139.494 66.7585C139.599 66.4602 139.652 66.1207 139.652 65.7401C139.652 65.3594 139.599 65.0199 139.494 64.7216C139.392 64.4233 139.24 64.1875 139.038 64.0142C138.837 63.8409 138.585 63.7543 138.284 63.7543C137.98 63.7543 137.724 63.8409 137.517 64.0142C137.313 64.1875 137.158 64.4233 137.053 64.7216C136.95 65.0199 136.899 65.3594 136.899 65.7401C136.899 66.1207 136.95 66.4602 137.053 66.7585C137.158 67.0568 137.313 67.2926 137.517 67.4659C137.724 67.6364 137.98 67.7216 138.284 67.7216Z" fill="white"/>
<path id="set" d="M24.1705 64.321L22.5085 64.4233C22.4801 64.2812 22.419 64.1534 22.3253 64.0398C22.2315 63.9233 22.108 63.831 21.9545 63.7628C21.804 63.6918 21.6236 63.6562 21.4134 63.6562C21.1321 63.6562 20.8949 63.7159 20.7017 63.8352C20.5085 63.9517 20.4119 64.108 20.4119 64.304C20.4119 64.4602 20.4744 64.5923 20.5994 64.7003C20.7244 64.8082 20.9389 64.8949 21.2429 64.9602L22.4276 65.1989C23.0639 65.3295 23.5384 65.5398 23.8509 65.8295C24.1634 66.1193 24.3196 66.5 24.3196 66.9716C24.3196 67.4006 24.1932 67.777 23.9403 68.1009C23.6903 68.4247 23.3466 68.6776 22.9091 68.8594C22.4744 69.0384 21.973 69.1278 21.4048 69.1278C20.5384 69.1278 19.848 68.9474 19.3338 68.5866C18.8224 68.223 18.5227 67.7287 18.4347 67.1037L20.2202 67.0099C20.2741 67.2741 20.4048 67.4759 20.6122 67.6151C20.8196 67.7514 21.0852 67.8196 21.4091 67.8196C21.7273 67.8196 21.983 67.7585 22.1761 67.6364C22.3722 67.5114 22.4716 67.3509 22.4744 67.1548C22.4716 66.9901 22.402 66.8551 22.2656 66.75C22.1293 66.642 21.919 66.5597 21.6349 66.5028L20.5014 66.277C19.8622 66.1491 19.3864 65.9276 19.0739 65.6122C18.7642 65.2969 18.6094 64.8949 18.6094 64.4062C18.6094 63.9858 18.723 63.6236 18.9503 63.3196C19.1804 63.0156 19.5028 62.7812 19.9176 62.6165C20.3352 62.4517 20.8239 62.3693 21.3835 62.3693C22.2102 62.3693 22.8608 62.544 23.3352 62.8935C23.8125 63.2429 24.0909 63.7187 24.1705 64.321ZM28.4457 69.1278C27.7724 69.1278 27.1928 68.9915 26.707 68.7188C26.2241 68.4432 25.8519 68.054 25.5906 67.5511C25.3292 67.0455 25.1985 66.4474 25.1985 65.7571C25.1985 65.0838 25.3292 64.4929 25.5906 63.9844C25.8519 63.4759 26.2198 63.0795 26.6942 62.7955C27.1715 62.5114 27.7312 62.3693 28.3732 62.3693C28.805 62.3693 29.207 62.4389 29.5792 62.5781C29.9542 62.7145 30.2809 62.9205 30.5593 63.196C30.8406 63.4716 31.0593 63.8182 31.2156 64.2358C31.3718 64.6506 31.4499 65.1364 31.4499 65.6932V66.1918H25.9229V65.0668H29.7411C29.7411 64.8054 29.6843 64.5739 29.5707 64.3722C29.457 64.1705 29.2994 64.0128 29.0977 63.8991C28.8988 63.7827 28.6673 63.7244 28.4031 63.7244C28.1275 63.7244 27.8832 63.7884 27.6701 63.9162C27.4599 64.0412 27.2951 64.2102 27.1758 64.4233C27.0565 64.6335 26.9954 64.8679 26.9925 65.1264V66.196C26.9925 66.5199 27.0522 66.7997 27.1715 67.0355C27.2937 67.2713 27.4656 67.4531 27.6871 67.581C27.9087 67.7088 28.1715 67.7727 28.4755 67.7727C28.6772 67.7727 28.8619 67.7443 29.0295 67.6875C29.1971 67.6307 29.3406 67.5455 29.4599 67.4318C29.5792 67.3182 29.6701 67.179 29.7326 67.0142L31.4116 67.125C31.3263 67.5284 31.1516 67.8807 30.8874 68.1818C30.6261 68.4801 30.288 68.7131 29.8732 68.8807C29.4613 69.0455 28.9854 69.1278 28.4457 69.1278ZM36.1161 62.4545V63.8182H32.1744V62.4545H36.1161ZM33.0692 60.8864H34.8846V66.9886C34.8846 67.1562 34.9102 67.2869 34.9613 67.3807C35.0124 67.4716 35.0835 67.5355 35.1744 67.5724C35.2681 67.6094 35.3761 67.6278 35.4982 67.6278C35.5835 67.6278 35.6687 67.6207 35.7539 67.6065C35.8391 67.5895 35.9045 67.5767 35.9499 67.5682L36.2354 68.919C36.1445 68.9474 36.0167 68.9801 35.8519 69.017C35.6871 69.0568 35.4869 69.081 35.2511 69.0895C34.8136 69.1065 34.43 69.0483 34.1005 68.9148C33.7738 68.7812 33.5195 68.5739 33.3377 68.2926C33.1559 68.0114 33.0664 67.6562 33.0692 67.2273V60.8864Z" fill="white"/>
</g>
</g>
</svg>
