<svg width="75" height="86" viewBox="0 0 75 86" fill="none" xmlns="http://www.w3.org/2000/svg">
<g id="start">
<g id="block_shape">
<path id="next_block_arrowbody" d="M49.0477 30H27.0477V52H49.0477V30Z" fill="#CC5151"/>
<path id="next_block_arrowhead" d="M37.5477 86L63.0957 51.5H12L37.5477 86Z" fill="#CC5151"/>
<ellipse id="block_body" cx="37.5" cy="17.5" rx="37.5" ry="17.5" fill="#CC5151"/>
</g>
<path id="start_2" d="M29.1705 18.321L27.5085 18.4233C27.4801 18.2812 27.419 18.1534 27.3253 18.0398C27.2315 17.9233 27.108 17.831 26.9545 17.7628C26.804 17.6918 26.6236 17.6562 26.4134 17.6562C26.1321 17.6562 25.8949 17.7159 25.7017 17.8352C25.5085 17.9517 25.4119 18.108 25.4119 18.304C25.4119 18.4602 25.4744 18.5923 25.5994 18.7003C25.7244 18.8082 25.9389 18.8949 26.2429 18.9602L27.4276 19.1989C28.0639 19.3295 28.5384 19.5398 28.8509 19.8295C29.1634 20.1193 29.3196 20.5 29.3196 20.9716C29.3196 21.4006 29.1932 21.777 28.9403 22.1009C28.6903 22.4247 28.3466 22.6776 27.9091 22.8594C27.4744 23.0384 26.973 23.1278 26.4048 23.1278C25.5384 23.1278 24.848 22.9474 24.3338 22.5866C23.8224 22.223 23.5227 21.7287 23.4347 21.1037L25.2202 21.0099C25.2741 21.2741 25.4048 21.4759 25.6122 21.6151C25.8196 21.7514 26.0852 21.8196 26.4091 21.8196C26.7273 21.8196 26.983 21.7585 27.1761 21.6364C27.3722 21.5114 27.4716 21.3509 27.4744 21.1548C27.4716 20.9901 27.402 20.8551 27.2656 20.75C27.1293 20.642 26.919 20.5597 26.6349 20.5028L25.5014 20.277C24.8622 20.1491 24.3864 19.9276 24.0739 19.6122C23.7642 19.2969 23.6094 18.8949 23.6094 18.4062C23.6094 17.9858 23.723 17.6236 23.9503 17.3196C24.1804 17.0156 24.5028 16.7812 24.9176 16.6165C25.3352 16.4517 25.8239 16.3693 26.3835 16.3693C27.2102 16.3693 27.8608 16.544 28.3352 16.8935C28.8125 17.2429 29.0909 17.7187 29.1705 18.321ZM33.9442 16.4545V17.8182H30.0025V16.4545H33.9442ZM30.8974 14.8864H32.7127V20.9886C32.7127 21.1562 32.7383 21.2869 32.7894 21.3807C32.8406 21.4716 32.9116 21.5355 33.0025 21.5724C33.0962 21.6094 33.2042 21.6278 33.3263 21.6278C33.4116 21.6278 33.4968 21.6207 33.582 21.6065C33.6673 21.5895 33.7326 21.5767 33.7781 21.5682L34.0636 22.919C33.9727 22.9474 33.8448 22.9801 33.68 23.017C33.5153 23.0568 33.315 23.081 33.0792 23.0895C32.6417 23.1065 32.2582 23.0483 31.9286 22.9148C31.6019 22.7812 31.3477 22.5739 31.1658 22.2926C30.984 22.0114 30.8945 21.6562 30.8974 21.2273V14.8864ZM36.9933 23.1236C36.5756 23.1236 36.2035 23.0511 35.8768 22.9062C35.5501 22.7585 35.2915 22.5412 35.1012 22.2543C34.9137 21.9645 34.82 21.6037 34.82 21.1719C34.82 20.8082 34.8867 20.5028 35.0202 20.2557C35.1538 20.0085 35.3356 19.8097 35.5657 19.6591C35.7958 19.5085 36.0572 19.3949 36.3498 19.3182C36.6452 19.2415 36.9549 19.1875 37.2788 19.1562C37.6594 19.1165 37.9663 19.0795 38.1992 19.0455C38.4322 19.0085 38.6012 18.9545 38.7063 18.8835C38.8114 18.8125 38.864 18.7074 38.864 18.5682V18.5426C38.864 18.2727 38.7788 18.0639 38.6083 17.9162C38.4407 17.7685 38.2021 17.6946 37.8924 17.6946C37.5657 17.6946 37.3058 17.767 37.1126 17.9119C36.9194 18.054 36.7915 18.233 36.729 18.4489L35.0501 18.3125C35.1353 17.9148 35.3029 17.571 35.5529 17.2812C35.8029 16.9886 36.1254 16.7642 36.5202 16.608C36.918 16.4489 37.3782 16.3693 37.9009 16.3693C38.2646 16.3693 38.6126 16.4119 38.945 16.4972C39.2802 16.5824 39.5771 16.7145 39.8356 16.8935C40.0969 17.0724 40.3029 17.3026 40.4535 17.5838C40.604 17.8622 40.6793 18.196 40.6793 18.5852V23H38.9577V22.0923H38.9066C38.8015 22.2969 38.6609 22.4773 38.4847 22.6335C38.3086 22.7869 38.0969 22.9077 37.8498 22.9957C37.6026 23.081 37.3171 23.1236 36.9933 23.1236ZM37.5131 21.8707C37.7802 21.8707 38.016 21.8182 38.2205 21.7131C38.4251 21.6051 38.5856 21.4602 38.7021 21.2784C38.8185 21.0966 38.8768 20.8906 38.8768 20.6605V19.9659C38.82 20.0028 38.7418 20.0369 38.6424 20.0682C38.5458 20.0966 38.4364 20.1236 38.3143 20.1491C38.1921 20.1719 38.07 20.1932 37.9478 20.2131C37.8256 20.2301 37.7148 20.2457 37.6154 20.2599C37.4023 20.2912 37.2163 20.3409 37.0572 20.4091C36.8981 20.4773 36.7745 20.5696 36.6864 20.6861C36.5984 20.7997 36.5543 20.9418 36.5543 21.1122C36.5543 21.3594 36.6438 21.5483 36.8228 21.679C37.0046 21.8068 37.2347 21.8707 37.5131 21.8707ZM42.0877 23V16.4545H43.8477V17.5966H43.9158C44.0352 17.1903 44.2354 16.8835 44.5167 16.6761C44.7979 16.4659 45.1218 16.3608 45.4883 16.3608C45.5792 16.3608 45.6772 16.3665 45.7823 16.3778C45.8874 16.3892 45.9798 16.4048 46.0593 16.4247V18.0355C45.9741 18.0099 45.8562 17.9872 45.7056 17.9673C45.555 17.9474 45.4173 17.9375 45.2923 17.9375C45.0252 17.9375 44.7866 17.9957 44.5763 18.1122C44.369 18.2259 44.2042 18.3849 44.082 18.5895C43.9627 18.794 43.9031 19.0298 43.9031 19.2969V23H42.0877ZM50.8075 16.4545V17.8182H46.8658V16.4545H50.8075ZM47.7607 14.8864H49.576V20.9886C49.576 21.1562 49.6016 21.2869 49.6527 21.3807C49.7038 21.4716 49.7749 21.5355 49.8658 21.5724C49.9595 21.6094 50.0675 21.6278 50.1896 21.6278C50.2749 21.6278 50.3601 21.6207 50.4453 21.6065C50.5305 21.5895 50.5959 21.5767 50.6413 21.5682L50.9268 22.919C50.8359 22.9474 50.7081 22.9801 50.5433 23.017C50.3786 23.0568 50.1783 23.081 49.9425 23.0895C49.505 23.1065 49.1214 23.0483 48.7919 22.9148C48.4652 22.7812 48.2109 22.5739 48.0291 22.2926C47.8473 22.0114 47.7578 21.6562 47.7607 21.2273V14.8864Z" fill="white"/>
</g>
</svg>
