<svg width="75" height="67" viewBox="0 0 75 67" fill="none" xmlns="http://www.w3.org/2000/svg">
<g id="start" clip-path="url(#clip0_71_21)">
<g id="arrowHead">
<path id="anchor:next" opacity="0.01" d="M36 68C36.5523 68 37 67.5523 37 67C37 66.4477 36.5523 66 36 66C35.4477 66 35 66.4477 35 67C35 67.5523 35.4477 68 36 68Z" fill="#D9D9D9"/>
<g id="tip">
<path id="Vector" d="M35.9999 67L61 42H11L35.9999 67Z" fill="white"/>
<path id="Vector_2" d="M35.9999 62L56 42H16L35.9999 62Z" fill="#CC5151"/>
</g>
<path id="shaft" d="M48 31H26V42H48V31Z" fill="#CC5151"/>
</g>
<ellipse id="block_body" cx="37.5" cy="17.5" rx="37.5" ry="17.5" fill="#CC5151"/>
<path id="text" d="M29.1705 16.321L27.5085 16.4233C27.4801 16.2812 27.419 16.1534 27.3253 16.0398C27.2315 15.9233 27.108 15.831 26.9545 15.7628C26.804 15.6918 26.6236 15.6562 26.4134 15.6562C26.1321 15.6562 25.8949 15.7159 25.7017 15.8352C25.5085 15.9517 25.4119 16.108 25.4119 16.304C25.4119 16.4602 25.4744 16.5923 25.5994 16.7003C25.7244 16.8082 25.9389 16.8949 26.2429 16.9602L27.4276 17.1989C28.0639 17.3295 28.5384 17.5398 28.8509 17.8295C29.1634 18.1193 29.3196 18.5 29.3196 18.9716C29.3196 19.4006 29.1932 19.777 28.9403 20.1009C28.6903 20.4247 28.3466 20.6776 27.9091 20.8594C27.4744 21.0384 26.973 21.1278 26.4048 21.1278C25.5384 21.1278 24.848 20.9474 24.3338 20.5866C23.8224 20.223 23.5227 19.7287 23.4347 19.1037L25.2202 19.0099C25.2741 19.2741 25.4048 19.4759 25.6122 19.6151C25.8196 19.7514 26.0852 19.8196 26.4091 19.8196C26.7273 19.8196 26.983 19.7585 27.1761 19.6364C27.3722 19.5114 27.4716 19.3509 27.4744 19.1548C27.4716 18.9901 27.402 18.8551 27.2656 18.75C27.1293 18.642 26.919 18.5597 26.6349 18.5028L25.5014 18.277C24.8622 18.1491 24.3864 17.9276 24.0739 17.6122C23.7642 17.2969 23.6094 16.8949 23.6094 16.4062C23.6094 15.9858 23.723 15.6236 23.9503 15.3196C24.1804 15.0156 24.5028 14.7812 24.9176 14.6165C25.3352 14.4517 25.8239 14.3693 26.3835 14.3693C27.2102 14.3693 27.8608 14.544 28.3352 14.8935C28.8125 15.2429 29.0909 15.7187 29.1705 16.321ZM33.9442 14.4545V15.8182H30.0025V14.4545H33.9442ZM30.8974 12.8864H32.7127V18.9886C32.7127 19.1562 32.7383 19.2869 32.7894 19.3807C32.8406 19.4716 32.9116 19.5355 33.0025 19.5724C33.0962 19.6094 33.2042 19.6278 33.3263 19.6278C33.4116 19.6278 33.4968 19.6207 33.582 19.6065C33.6673 19.5895 33.7326 19.5767 33.7781 19.5682L34.0636 20.919C33.9727 20.9474 33.8448 20.9801 33.68 21.017C33.5153 21.0568 33.315 21.081 33.0792 21.0895C32.6417 21.1065 32.2582 21.0483 31.9286 20.9148C31.6019 20.7812 31.3477 20.5739 31.1658 20.2926C30.984 20.0114 30.8945 19.6562 30.8974 19.2273V12.8864ZM36.9933 21.1236C36.5756 21.1236 36.2035 21.0511 35.8768 20.9062C35.5501 20.7585 35.2915 20.5412 35.1012 20.2543C34.9137 19.9645 34.82 19.6037 34.82 19.1719C34.82 18.8082 34.8867 18.5028 35.0202 18.2557C35.1538 18.0085 35.3356 17.8097 35.5657 17.6591C35.7958 17.5085 36.0572 17.3949 36.3498 17.3182C36.6452 17.2415 36.9549 17.1875 37.2788 17.1562C37.6594 17.1165 37.9663 17.0795 38.1992 17.0455C38.4322 17.0085 38.6012 16.9545 38.7063 16.8835C38.8114 16.8125 38.864 16.7074 38.864 16.5682V16.5426C38.864 16.2727 38.7788 16.0639 38.6083 15.9162C38.4407 15.7685 38.2021 15.6946 37.8924 15.6946C37.5657 15.6946 37.3058 15.767 37.1126 15.9119C36.9194 16.054 36.7915 16.233 36.729 16.4489L35.0501 16.3125C35.1353 15.9148 35.3029 15.571 35.5529 15.2812C35.8029 14.9886 36.1254 14.7642 36.5202 14.608C36.918 14.4489 37.3782 14.3693 37.9009 14.3693C38.2646 14.3693 38.6126 14.4119 38.945 14.4972C39.2802 14.5824 39.5771 14.7145 39.8356 14.8935C40.0969 15.0724 40.3029 15.3026 40.4535 15.5838C40.604 15.8622 40.6793 16.196 40.6793 16.5852V21H38.9577V20.0923H38.9066C38.8015 20.2969 38.6609 20.4773 38.4847 20.6335C38.3086 20.7869 38.0969 20.9077 37.8498 20.9957C37.6026 21.081 37.3171 21.1236 36.9933 21.1236ZM37.5131 19.8707C37.7802 19.8707 38.016 19.8182 38.2205 19.7131C38.4251 19.6051 38.5856 19.4602 38.7021 19.2784C38.8185 19.0966 38.8768 18.8906 38.8768 18.6605V17.9659C38.82 18.0028 38.7418 18.0369 38.6424 18.0682C38.5458 18.0966 38.4364 18.1236 38.3143 18.1491C38.1921 18.1719 38.07 18.1932 37.9478 18.2131C37.8256 18.2301 37.7148 18.2457 37.6154 18.2599C37.4023 18.2912 37.2163 18.3409 37.0572 18.4091C36.8981 18.4773 36.7745 18.5696 36.6864 18.6861C36.5984 18.7997 36.5543 18.9418 36.5543 19.1122C36.5543 19.3594 36.6438 19.5483 36.8228 19.679C37.0046 19.8068 37.2347 19.8707 37.5131 19.8707ZM42.0877 21V14.4545H43.8477V15.5966H43.9158C44.0352 15.1903 44.2354 14.8835 44.5167 14.6761C44.7979 14.4659 45.1218 14.3608 45.4883 14.3608C45.5792 14.3608 45.6772 14.3665 45.7823 14.3778C45.8874 14.3892 45.9798 14.4048 46.0593 14.4247V16.0355C45.9741 16.0099 45.8562 15.9872 45.7056 15.9673C45.555 15.9474 45.4173 15.9375 45.2923 15.9375C45.0252 15.9375 44.7866 15.9957 44.5763 16.1122C44.369 16.2259 44.2042 16.3849 44.082 16.5895C43.9627 16.794 43.9031 17.0298 43.9031 17.2969V21H42.0877ZM50.8075 14.4545V15.8182H46.8658V14.4545H50.8075ZM47.7607 12.8864H49.576V18.9886C49.576 19.1562 49.6016 19.2869 49.6527 19.3807C49.7038 19.4716 49.7749 19.5355 49.8658 19.5724C49.9595 19.6094 50.0675 19.6278 50.1896 19.6278C50.2749 19.6278 50.3601 19.6207 50.4453 19.6065C50.5305 19.5895 50.5959 19.5767 50.6413 19.5682L50.9268 20.919C50.8359 20.9474 50.7081 20.9801 50.5433 21.017C50.3786 21.0568 50.1783 21.081 49.9425 21.0895C49.505 21.1065 49.1214 21.0483 48.7919 20.9148C48.4652 20.7812 48.2109 20.5739 48.0291 20.2926C47.8473 20.0114 47.7578 19.6562 47.7607 19.2273V12.8864Z" fill="white"/>
</g>
<defs>
<clipPath id="clip0_71_21">
<rect width="75" height="67" fill="white"/>
</clipPath>
</defs>
</svg>
