<svg width="248" height="174" viewBox="0 0 248 174" fill="none" xmlns="http://www.w3.org/2000/svg">
<g id="stop">
<g id="block_shape">
<g id="prev_block_connector">
<path id="Vector" d="M120.5 34H95V0H95.3223L120.5 34Z" fill="#CC5151"/>
<path id="Vector_2" d="M146 34H120.5L145.678 0H146V34Z" fill="#CC5151"/>
</g>
<rect id="Rectangle 1" x="95" y="34" width="51" height="15" fill="#CC5151"/>
<ellipse id="block_body" cx="120.5" cy="57.5" rx="42.5" ry="22.5" fill="#CC5151"/>
</g>
<path id="stop_2" d="M113.17 57.321L111.509 57.4233C111.48 57.2812 111.419 57.1534 111.325 57.0398C111.232 56.9233 111.108 56.831 110.955 56.7628C110.804 56.6918 110.624 56.6562 110.413 56.6562C110.132 56.6562 109.895 56.7159 109.702 56.8352C109.509 56.9517 109.412 57.108 109.412 57.304C109.412 57.4602 109.474 57.5923 109.599 57.7003C109.724 57.8082 109.939 57.8949 110.243 57.9602L111.428 58.1989C112.064 58.3295 112.538 58.5398 112.851 58.8295C113.163 59.1193 113.32 59.5 113.32 59.9716C113.32 60.4006 113.193 60.777 112.94 61.1009C112.69 61.4247 112.347 61.6776 111.909 61.8594C111.474 62.0384 110.973 62.1278 110.405 62.1278C109.538 62.1278 108.848 61.9474 108.334 61.5866C107.822 61.223 107.523 60.7287 107.435 60.1037L109.22 60.0099C109.274 60.2741 109.405 60.4759 109.612 60.6151C109.82 60.7514 110.085 60.8196 110.409 60.8196C110.727 60.8196 110.983 60.7585 111.176 60.6364C111.372 60.5114 111.472 60.3509 111.474 60.1548C111.472 59.9901 111.402 59.8551 111.266 59.75C111.129 59.642 110.919 59.5597 110.635 59.5028L109.501 59.277C108.862 59.1491 108.386 58.9276 108.074 58.6122C107.764 58.2969 107.609 57.8949 107.609 57.4062C107.609 56.9858 107.723 56.6236 107.95 56.3196C108.18 56.0156 108.503 55.7812 108.918 55.6165C109.335 55.4517 109.824 55.3693 110.384 55.3693C111.21 55.3693 111.861 55.544 112.335 55.8935C112.813 56.2429 113.091 56.7187 113.17 57.321ZM117.944 55.4545V56.8182H114.002V55.4545H117.944ZM114.897 53.8864H116.713V59.9886C116.713 60.1562 116.738 60.2869 116.789 60.3807C116.841 60.4716 116.912 60.5355 117.002 60.5724C117.096 60.6094 117.204 60.6278 117.326 60.6278C117.412 60.6278 117.497 60.6207 117.582 60.6065C117.667 60.5895 117.733 60.5767 117.778 60.5682L118.064 61.919C117.973 61.9474 117.845 61.9801 117.68 62.017C117.515 62.0568 117.315 62.081 117.079 62.0895C116.642 62.1065 116.258 62.0483 115.929 61.9148C115.602 61.7812 115.348 61.5739 115.166 61.2926C114.984 61.0114 114.895 60.6562 114.897 60.2273V53.8864ZM122.014 62.1278C121.352 62.1278 120.779 61.9872 120.297 61.706C119.816 61.4219 119.446 61.027 119.184 60.5213C118.923 60.0128 118.792 59.4233 118.792 58.7528C118.792 58.0767 118.923 57.4858 119.184 56.9801C119.446 56.4716 119.816 56.0767 120.297 55.7955C120.779 55.5114 121.352 55.3693 122.014 55.3693C122.676 55.3693 123.247 55.5114 123.727 55.7955C124.21 56.0767 124.582 56.4716 124.843 56.9801C125.105 57.4858 125.235 58.0767 125.235 58.7528C125.235 59.4233 125.105 60.0128 124.843 60.5213C124.582 61.027 124.21 61.4219 123.727 61.706C123.247 61.9872 122.676 62.1278 122.014 62.1278ZM122.022 60.7216C122.324 60.7216 122.575 60.6364 122.777 60.4659C122.978 60.2926 123.13 60.0568 123.233 59.7585C123.338 59.4602 123.39 59.1207 123.39 58.7401C123.39 58.3594 123.338 58.0199 123.233 57.7216C123.13 57.4233 122.978 57.1875 122.777 57.0142C122.575 56.8409 122.324 56.7543 122.022 56.7543C121.718 56.7543 121.463 56.8409 121.255 57.0142C121.051 57.1875 120.896 57.4233 120.791 57.7216C120.689 58.0199 120.637 58.3594 120.637 58.7401C120.637 59.1207 120.689 59.4602 120.791 59.7585C120.896 60.0568 121.051 60.2926 121.255 60.4659C121.463 60.6364 121.718 60.7216 122.022 60.7216ZM126.416 64.4545V55.4545H128.206V56.554H128.287C128.366 56.3778 128.481 56.1989 128.632 56.017C128.785 55.8324 128.984 55.679 129.228 55.5568C129.475 55.4318 129.782 55.3693 130.149 55.3693C130.626 55.3693 131.066 55.4943 131.47 55.7443C131.873 55.9915 132.196 56.3651 132.437 56.8651C132.679 57.3622 132.799 57.9858 132.799 58.7358C132.799 59.4659 132.681 60.0824 132.446 60.5852C132.213 61.0852 131.895 61.4645 131.491 61.723C131.091 61.9787 130.642 62.1065 130.145 62.1065C129.792 62.1065 129.493 62.0483 129.245 61.9318C129.001 61.8153 128.801 61.669 128.645 61.4929C128.488 61.3139 128.369 61.1335 128.287 60.9517H128.231V64.4545H126.416ZM128.193 58.7273C128.193 59.1165 128.247 59.456 128.355 59.7457C128.463 60.0355 128.619 60.2614 128.824 60.4233C129.028 60.5824 129.277 60.6619 129.569 60.6619C129.865 60.6619 130.115 60.581 130.319 60.419C130.524 60.2543 130.679 60.027 130.784 59.7372C130.892 59.4446 130.946 59.108 130.946 58.7273C130.946 58.3494 130.893 58.017 130.788 57.7301C130.683 57.4432 130.528 57.2187 130.324 57.0568C130.119 56.8949 129.868 56.8139 129.569 56.8139C129.274 56.8139 129.024 56.892 128.819 57.0483C128.618 57.2045 128.463 57.4261 128.355 57.7131C128.247 58 128.193 58.3381 128.193 58.7273Z" fill="white"/>
</g>
</svg>
