<svg width="85" height="80" viewBox="0 0 85 80" fill="none" xmlns="http://www.w3.org/2000/svg">
<g id="stop">
<g id="block_shape">
<g id="prev_block_connector">
<path id="Vector" d="M42.5 34H17V0H17.3223L42.5 34Z" fill="#CC5151"/>
<path id="Vector_2" d="M68 34H42.5L67.678 0H68V34Z" fill="#CC5151"/>
</g>
<rect id="Rectangle 1" x="17" y="34" width="51" height="15" fill="#CC5151"/>
<ellipse id="block_body" cx="42.5" cy="57.5" rx="42.5" ry="22.5" fill="#CC5151"/>
</g>
<path id="stop_2" d="M35.1705 57.321L33.5085 57.4233C33.4801 57.2812 33.419 57.1534 33.3253 57.0398C33.2315 56.9233 33.108 56.831 32.9545 56.7628C32.804 56.6918 32.6236 56.6562 32.4134 56.6562C32.1321 56.6562 31.8949 56.7159 31.7017 56.8352C31.5085 56.9517 31.4119 57.108 31.4119 57.304C31.4119 57.4602 31.4744 57.5923 31.5994 57.7003C31.7244 57.8082 31.9389 57.8949 32.2429 57.9602L33.4276 58.1989C34.0639 58.3295 34.5384 58.5398 34.8509 58.8295C35.1634 59.1193 35.3196 59.5 35.3196 59.9716C35.3196 60.4006 35.1932 60.777 34.9403 61.1009C34.6903 61.4247 34.3466 61.6776 33.9091 61.8594C33.4744 62.0384 32.973 62.1278 32.4048 62.1278C31.5384 62.1278 30.848 61.9474 30.3338 61.5866C29.8224 61.223 29.5227 60.7287 29.4347 60.1037L31.2202 60.0099C31.2741 60.2741 31.4048 60.4759 31.6122 60.6151C31.8196 60.7514 32.0852 60.8196 32.4091 60.8196C32.7273 60.8196 32.983 60.7585 33.1761 60.6364C33.3722 60.5114 33.4716 60.3509 33.4744 60.1548C33.4716 59.9901 33.402 59.8551 33.2656 59.75C33.1293 59.642 32.919 59.5597 32.6349 59.5028L31.5014 59.277C30.8622 59.1491 30.3864 58.9276 30.0739 58.6122C29.7642 58.2969 29.6094 57.8949 29.6094 57.4062C29.6094 56.9858 29.723 56.6236 29.9503 56.3196C30.1804 56.0156 30.5028 55.7812 30.9176 55.6165C31.3352 55.4517 31.8239 55.3693 32.3835 55.3693C33.2102 55.3693 33.8608 55.544 34.3352 55.8935C34.8125 56.2429 35.0909 56.7187 35.1705 57.321ZM39.9442 55.4545V56.8182H36.0025V55.4545H39.9442ZM36.8974 53.8864H38.7127V59.9886C38.7127 60.1562 38.7383 60.2869 38.7894 60.3807C38.8406 60.4716 38.9116 60.5355 39.0025 60.5724C39.0962 60.6094 39.2042 60.6278 39.3263 60.6278C39.4116 60.6278 39.4968 60.6207 39.582 60.6065C39.6673 60.5895 39.7326 60.5767 39.7781 60.5682L40.0636 61.919C39.9727 61.9474 39.8448 61.9801 39.68 62.017C39.5153 62.0568 39.315 62.081 39.0792 62.0895C38.6417 62.1065 38.2582 62.0483 37.9286 61.9148C37.6019 61.7812 37.3477 61.5739 37.1658 61.2926C36.984 61.0114 36.8945 60.6562 36.8974 60.2273V53.8864ZM44.0138 62.1278C43.3519 62.1278 42.7795 61.9872 42.2965 61.706C41.8164 61.4219 41.4457 61.027 41.1843 60.5213C40.9229 60.0128 40.7923 59.4233 40.7923 58.7528C40.7923 58.0767 40.9229 57.4858 41.1843 56.9801C41.4457 56.4716 41.8164 56.0767 42.2965 55.7955C42.7795 55.5114 43.3519 55.3693 44.0138 55.3693C44.6758 55.3693 45.2468 55.5114 45.7269 55.7955C46.2099 56.0767 46.582 56.4716 46.8434 56.9801C47.1048 57.4858 47.2354 58.0767 47.2354 58.7528C47.2354 59.4233 47.1048 60.0128 46.8434 60.5213C46.582 61.027 46.2099 61.4219 45.7269 61.706C45.2468 61.9872 44.6758 62.1278 44.0138 62.1278ZM44.0224 60.7216C44.3235 60.7216 44.5749 60.6364 44.7766 60.4659C44.9783 60.2926 45.1303 60.0568 45.2326 59.7585C45.3377 59.4602 45.3903 59.1207 45.3903 58.7401C45.3903 58.3594 45.3377 58.0199 45.2326 57.7216C45.1303 57.4233 44.9783 57.1875 44.7766 57.0142C44.5749 56.8409 44.3235 56.7543 44.0224 56.7543C43.7184 56.7543 43.4627 56.8409 43.2553 57.0142C43.0508 57.1875 42.896 57.4233 42.7908 57.7216C42.6886 58.0199 42.6374 58.3594 42.6374 58.7401C42.6374 59.1207 42.6886 59.4602 42.7908 59.7585C42.896 60.0568 43.0508 60.2926 43.2553 60.4659C43.4627 60.6364 43.7184 60.7216 44.0224 60.7216ZM48.4158 64.4545V55.4545H50.2056V56.554H50.2866C50.3661 56.3778 50.4812 56.1989 50.6317 56.017C50.7852 55.8324 50.984 55.679 51.2283 55.5568C51.4755 55.4318 51.7823 55.3693 52.1488 55.3693C52.6261 55.3693 53.0664 55.4943 53.4698 55.7443C53.8732 55.9915 54.1957 56.3651 54.4371 56.8651C54.6786 57.3622 54.7994 57.9858 54.7994 58.7358C54.7994 59.4659 54.6815 60.0824 54.4457 60.5852C54.2127 61.0852 53.8945 61.4645 53.4911 61.723C53.0906 61.9787 52.6417 62.1065 52.1445 62.1065C51.7923 62.1065 51.4925 62.0483 51.2454 61.9318C51.0011 61.8153 50.8008 61.669 50.6445 61.4929C50.4883 61.3139 50.369 61.1335 50.2866 60.9517H50.2312V64.4545H48.4158ZM50.1928 58.7273C50.1928 59.1165 50.2468 59.456 50.3548 59.7457C50.4627 60.0355 50.619 60.2614 50.8235 60.4233C51.0281 60.5824 51.2766 60.6619 51.5692 60.6619C51.8647 60.6619 52.1147 60.581 52.3192 60.419C52.5238 60.2543 52.6786 60.027 52.7837 59.7372C52.8917 59.4446 52.9457 59.108 52.9457 58.7273C52.9457 58.3494 52.8931 58.017 52.788 57.7301C52.6829 57.4432 52.5281 57.2187 52.3235 57.0568C52.119 56.8949 51.8675 56.8139 51.5692 56.8139C51.2738 56.8139 51.0238 56.892 50.8192 57.0483C50.6175 57.2045 50.4627 57.4261 50.3548 57.7131C50.2468 58 50.1928 58.3381 50.1928 58.7273Z" fill="white"/>
</g>
</svg>
