<svg width="77" height="61" viewBox="0 0 77 61" fill="none" xmlns="http://www.w3.org/2000/svg">
<g id="stop">
<ellipse id="block_body" cx="39.5" cy="43.5" rx="37.5" ry="17.5" fill="#CC5151"/>
<g id="capTop">
<path id="Vector" d="M40 25H15V0L40 25Z" fill="#CC5151"/>
<path id="Vector_2" d="M65 25H40L65 0V25Z" fill="#CC5151"/>
</g>
<path id="anchor:prev" opacity="0.01" d="M40 26C40.5523 26 41 25.5523 41 25C41 24.4477 40.5523 24 40 24C39.4477 24 39 24.4477 39 25C39 25.5523 39.4477 26 40 26Z" fill="#D9D9D9"/>
<rect id="connector_block" x="15" y="25" width="50" height="16" fill="#CC5151"/>
<path id="stripe" d="M65 5L40 30L15 5V0L40 25L65 0V5Z" fill="white"/>
<path id="text" d="M32.1705 42.321L30.5085 42.4233C30.4801 42.2812 30.419 42.1534 30.3253 42.0398C30.2315 41.9233 30.108 41.831 29.9545 41.7628C29.804 41.6918 29.6236 41.6562 29.4134 41.6562C29.1321 41.6562 28.8949 41.7159 28.7017 41.8352C28.5085 41.9517 28.4119 42.108 28.4119 42.304C28.4119 42.4602 28.4744 42.5923 28.5994 42.7003C28.7244 42.8082 28.9389 42.8949 29.2429 42.9602L30.4276 43.1989C31.0639 43.3295 31.5384 43.5398 31.8509 43.8295C32.1634 44.1193 32.3196 44.5 32.3196 44.9716C32.3196 45.4006 32.1932 45.777 31.9403 46.1009C31.6903 46.4247 31.3466 46.6776 30.9091 46.8594C30.4744 47.0384 29.973 47.1278 29.4048 47.1278C28.5384 47.1278 27.848 46.9474 27.3338 46.5866C26.8224 46.223 26.5227 45.7287 26.4347 45.1037L28.2202 45.0099C28.2741 45.2741 28.4048 45.4759 28.6122 45.6151C28.8196 45.7514 29.0852 45.8196 29.4091 45.8196C29.7273 45.8196 29.983 45.7585 30.1761 45.6364C30.3722 45.5114 30.4716 45.3509 30.4744 45.1548C30.4716 44.9901 30.402 44.8551 30.2656 44.75C30.1293 44.642 29.919 44.5597 29.6349 44.5028L28.5014 44.277C27.8622 44.1491 27.3864 43.9276 27.0739 43.6122C26.7642 43.2969 26.6094 42.8949 26.6094 42.4062C26.6094 41.9858 26.723 41.6236 26.9503 41.3196C27.1804 41.0156 27.5028 40.7812 27.9176 40.6165C28.3352 40.4517 28.8239 40.3693 29.3835 40.3693C30.2102 40.3693 30.8608 40.544 31.3352 40.8935C31.8125 41.2429 32.0909 41.7187 32.1705 42.321ZM36.9442 40.4545V41.8182H33.0025V40.4545H36.9442ZM33.8974 38.8864H35.7127V44.9886C35.7127 45.1562 35.7383 45.2869 35.7894 45.3807C35.8406 45.4716 35.9116 45.5355 36.0025 45.5724C36.0962 45.6094 36.2042 45.6278 36.3263 45.6278C36.4116 45.6278 36.4968 45.6207 36.582 45.6065C36.6673 45.5895 36.7326 45.5767 36.7781 45.5682L37.0636 46.919C36.9727 46.9474 36.8448 46.9801 36.68 47.017C36.5153 47.0568 36.315 47.081 36.0792 47.0895C35.6417 47.1065 35.2582 47.0483 34.9286 46.9148C34.6019 46.7812 34.3477 46.5739 34.1658 46.2926C33.984 46.0114 33.8945 45.6562 33.8974 45.2273V38.8864ZM41.0138 47.1278C40.3519 47.1278 39.7795 46.9872 39.2965 46.706C38.8164 46.4219 38.4457 46.027 38.1843 45.5213C37.9229 45.0128 37.7923 44.4233 37.7923 43.7528C37.7923 43.0767 37.9229 42.4858 38.1843 41.9801C38.4457 41.4716 38.8164 41.0767 39.2965 40.7955C39.7795 40.5114 40.3519 40.3693 41.0138 40.3693C41.6758 40.3693 42.2468 40.5114 42.7269 40.7955C43.2099 41.0767 43.582 41.4716 43.8434 41.9801C44.1048 42.4858 44.2354 43.0767 44.2354 43.7528C44.2354 44.4233 44.1048 45.0128 43.8434 45.5213C43.582 46.027 43.2099 46.4219 42.7269 46.706C42.2468 46.9872 41.6758 47.1278 41.0138 47.1278ZM41.0224 45.7216C41.3235 45.7216 41.5749 45.6364 41.7766 45.4659C41.9783 45.2926 42.1303 45.0568 42.2326 44.7585C42.3377 44.4602 42.3903 44.1207 42.3903 43.7401C42.3903 43.3594 42.3377 43.0199 42.2326 42.7216C42.1303 42.4233 41.9783 42.1875 41.7766 42.0142C41.5749 41.8409 41.3235 41.7543 41.0224 41.7543C40.7184 41.7543 40.4627 41.8409 40.2553 42.0142C40.0508 42.1875 39.896 42.4233 39.7908 42.7216C39.6886 43.0199 39.6374 43.3594 39.6374 43.7401C39.6374 44.1207 39.6886 44.4602 39.7908 44.7585C39.896 45.0568 40.0508 45.2926 40.2553 45.4659C40.4627 45.6364 40.7184 45.7216 41.0224 45.7216ZM45.4158 49.4545V40.4545H47.2056V41.554H47.2866C47.3661 41.3778 47.4812 41.1989 47.6317 41.017C47.7852 40.8324 47.984 40.679 48.2283 40.5568C48.4755 40.4318 48.7823 40.3693 49.1488 40.3693C49.6261 40.3693 50.0664 40.4943 50.4698 40.7443C50.8732 40.9915 51.1957 41.3651 51.4371 41.8651C51.6786 42.3622 51.7994 42.9858 51.7994 43.7358C51.7994 44.4659 51.6815 45.0824 51.4457 45.5852C51.2127 46.0852 50.8945 46.4645 50.4911 46.723C50.0906 46.9787 49.6417 47.1065 49.1445 47.1065C48.7923 47.1065 48.4925 47.0483 48.2454 46.9318C48.0011 46.8153 47.8008 46.669 47.6445 46.4929C47.4883 46.3139 47.369 46.1335 47.2866 45.9517H47.2312V49.4545H45.4158ZM47.1928 43.7273C47.1928 44.1165 47.2468 44.456 47.3548 44.7457C47.4627 45.0355 47.619 45.2614 47.8235 45.4233C48.0281 45.5824 48.2766 45.6619 48.5692 45.6619C48.8647 45.6619 49.1147 45.581 49.3192 45.419C49.5238 45.2543 49.6786 45.027 49.7837 44.7372C49.8917 44.4446 49.9457 44.108 49.9457 43.7273C49.9457 43.3494 49.8931 43.017 49.788 42.7301C49.6829 42.4432 49.5281 42.2187 49.3235 42.0568C49.119 41.8949 48.8675 41.8139 48.5692 41.8139C48.2738 41.8139 48.0238 41.892 47.8192 42.0483C47.6175 42.2045 47.4627 42.4261 47.3548 42.7131C47.2468 43 47.1928 43.3381 47.1928 43.7273Z" fill="white"/>
</g>
</svg>
