<svg width="128" height="149" viewBox="0 0 128 149" fill="none" xmlns="http://www.w3.org/2000/svg">
<g id="think">
<circle id="anchor:next" opacity="0.01" cx="64" cy="140" r="1" fill="#D9D9D9"/>
<g id="arrowHead">
<g id="tip">
<path d="M63.9999 140L89 115H39L63.9999 140Z" fill="white"/>
<path d="M63.9999 135L84 115H44L63.9999 135Z" fill="#BF69F1"/>
</g>
<path id="shaft" d="M76.0477 93H54.0477V115H76.0477V93Z" fill="#BF69F1"/>
</g>
<path id="bodyStretch" d="M0 50.5421C0 41.4061 7.31587 34 16.3404 34H111.66C120.684 34 128 41.4061 128 50.5421V76.4579C128 85.5939 120.684 93 111.66 93H16.3404C7.31587 93 0 85.5939 0 76.4579V50.5421Z" fill="#BF69F1"/>
<g id="Subtract">
<path d="M64 34H39V9L64 34Z" fill="#BF69F1"/>
<path d="M89 34H64L89 9V34Z" fill="#BF69F1"/>
</g>
<circle id="anchor:prev" opacity="0.01" cx="64" cy="34" r="1" fill="#D9D9D9"/>
<g id="input:value">
<rect id="box" opacity="0.01" x="44" y="50" width="75" height="25" rx="10" fill="#D9D9D9"/>
<circle id="anchor-input:value-right" opacity="0.01" cx="119" cy="63" r="1" fill="#D9D9D9"/>
<circle id="anchor-input:value-left" opacity="0.01" cx="44" cy="63" r="1" fill="white"/>
</g>
<path id="text" d="M13.206 62.4545V63.8182H9.2642V62.4545H13.206ZM10.1591 60.8864H11.9744V66.9886C11.9744 67.1562 12 67.2869 12.0511 67.3807C12.1023 67.4716 12.1733 67.5355 12.2642 67.5724C12.358 67.6094 12.4659 67.6278 12.5881 67.6278C12.6733 67.6278 12.7585 67.6207 12.8438 67.6065C12.929 67.5895 12.9943 67.5767 13.0398 67.5682L13.3253 68.919C13.2344 68.9474 13.1065 68.9801 12.9418 69.017C12.777 69.0568 12.5767 69.081 12.3409 69.0895C11.9034 69.1065 11.5199 69.0483 11.1903 68.9148C10.8636 68.7812 10.6094 68.5739 10.4276 68.2926C10.2457 68.0114 10.1563 67.6562 10.1591 67.2273V60.8864ZM16.3445 65.2159V69H14.5291V60.2727H16.2933V63.6094H16.37C16.5178 63.223 16.7564 62.9205 17.0859 62.7017C17.4155 62.4801 17.8288 62.3693 18.326 62.3693C18.7805 62.3693 19.1768 62.4688 19.5149 62.6676C19.8558 62.8636 20.12 63.1463 20.3075 63.5156C20.4979 63.8821 20.5916 64.321 20.5888 64.8324V69H18.7734V65.1562C18.7763 64.7528 18.674 64.4389 18.4666 64.2145C18.2621 63.9901 17.9751 63.8778 17.6058 63.8778C17.3587 63.8778 17.1399 63.9304 16.9496 64.0355C16.7621 64.1406 16.6143 64.294 16.5064 64.4957C16.4013 64.6946 16.3473 64.9347 16.3445 65.2159ZM22.0174 69V62.4545H23.8327V69H22.0174ZM22.9293 61.6108C22.6594 61.6108 22.4279 61.5213 22.2347 61.3423C22.0444 61.1605 21.9492 60.9432 21.9492 60.6903C21.9492 60.4403 22.0444 60.2259 22.2347 60.0469C22.4279 59.8651 22.6594 59.7741 22.9293 59.7741C23.1992 59.7741 23.4293 59.8651 23.6197 60.0469C23.8129 60.2259 23.9094 60.4403 23.9094 60.6903C23.9094 60.9432 23.8129 61.1605 23.6197 61.3423C23.4293 61.5213 23.1992 61.6108 22.9293 61.6108ZM27.1023 65.2159V69H25.2869V62.4545H27.017V63.6094H27.0938C27.2386 63.2287 27.4815 62.9276 27.8224 62.706C28.1634 62.4815 28.5767 62.3693 29.0625 62.3693C29.517 62.3693 29.9134 62.4688 30.2514 62.6676C30.5895 62.8665 30.8523 63.1506 31.0398 63.5199C31.2273 63.8864 31.321 64.3239 31.321 64.8324V69H29.5057V65.1562C29.5085 64.7557 29.4063 64.4432 29.1989 64.2188C28.9915 63.9915 28.706 63.8778 28.3423 63.8778C28.098 63.8778 27.8821 63.9304 27.6946 64.0355C27.5099 64.1406 27.3651 64.294 27.2599 64.4957C27.1577 64.6946 27.1051 64.9347 27.1023 65.2159ZM34.3967 67.1165L34.4009 64.9389H34.6651L36.7617 62.4545H38.8455L36.0288 65.7443H35.5984L34.3967 67.1165ZM32.7518 69V60.2727H34.5671V69H32.7518ZM36.8427 69L34.9165 66.1491L36.1268 64.8665L38.9691 69H36.8427Z" fill="white"/>
</g>
</svg>
