<svg width="248" height="174" viewBox="0 0 248 174" fill="none" xmlns="http://www.w3.org/2000/svg">
<g id="think">
<g id="block_shape">
<path id="next_block_arrowbody" d="M133 103H111V125H133V103Z" fill="#BF69F1"/>
<path id="next_block_arrowhead" d="M121.5 159L147.048 124.5H95.9523L121.5 159Z" fill="#BF69F1"/>
<g id="prev_block_connector">
<path d="M121.5 44H96V10H96.3223L121.5 44Z" fill="#BF69F1"/>
<path d="M147 44H121.5L146.678 10H147V44Z" fill="#BF69F1"/>
</g>
<path id="block_body" d="M58 60.5421C58 51.4061 65.3159 44 74.3404 44H169.66C178.684 44 186 51.4061 186 60.5421V86.4579C186 95.5939 178.684 103 169.66 103H74.3404C65.3159 103 58 95.5939 58 86.4579V60.5421Z" fill="#BF69F1"/>
</g>
<g id="block_input">
<path id="input_constant" d="M100 72C100 66.4772 104.477 62 110 62H167C172.523 62 177 66.4772 177 72V76C177 81.5228 172.523 86 167 86H110C104.477 86 100 81.5228 100 76V72Z" fill="white"/>
<path id="think_text" d="M71.206 72.4545V73.8182H67.2642V72.4545H71.206ZM68.1591 70.8864H69.9744V76.9886C69.9744 77.1562 70 77.2869 70.0511 77.3807C70.1023 77.4716 70.1733 77.5355 70.2642 77.5724C70.358 77.6094 70.4659 77.6278 70.5881 77.6278C70.6733 77.6278 70.7585 77.6207 70.8438 77.6065C70.929 77.5895 70.9943 77.5767 71.0398 77.5682L71.3253 78.919C71.2344 78.9474 71.1065 78.9801 70.9418 79.017C70.777 79.0568 70.5767 79.081 70.3409 79.0895C69.9034 79.1065 69.5199 79.0483 69.1903 78.9148C68.8636 78.7812 68.6094 78.5739 68.4276 78.2926C68.2457 78.0114 68.1563 77.6562 68.1591 77.2273V70.8864ZM74.3445 75.2159V79H72.5291V70.2727H74.2933V73.6094H74.37C74.5178 73.223 74.7564 72.9205 75.0859 72.7017C75.4155 72.4801 75.8288 72.3693 76.326 72.3693C76.7805 72.3693 77.1768 72.4688 77.5149 72.6676C77.8558 72.8636 78.12 73.1463 78.3075 73.5156C78.4979 73.8821 78.5916 74.321 78.5888 74.8324V79H76.7734V75.1562C76.7763 74.7528 76.674 74.4389 76.4666 74.2145C76.2621 73.9901 75.9751 73.8778 75.6058 73.8778C75.3587 73.8778 75.1399 73.9304 74.9496 74.0355C74.7621 74.1406 74.6143 74.294 74.5064 74.4957C74.4013 74.6946 74.3473 74.9347 74.3445 75.2159ZM80.0174 79V72.4545H81.8327V79H80.0174ZM80.9293 71.6108C80.6594 71.6108 80.4279 71.5213 80.2347 71.3423C80.0444 71.1605 79.9492 70.9432 79.9492 70.6903C79.9492 70.4403 80.0444 70.2259 80.2347 70.0469C80.4279 69.8651 80.6594 69.7741 80.9293 69.7741C81.1992 69.7741 81.4293 69.8651 81.6197 70.0469C81.8129 70.2259 81.9094 70.4403 81.9094 70.6903C81.9094 70.9432 81.8129 71.1605 81.6197 71.3423C81.4293 71.5213 81.1992 71.6108 80.9293 71.6108ZM85.1023 75.2159V79H83.2869V72.4545H85.017V73.6094H85.0938C85.2386 73.2287 85.4815 72.9276 85.8224 72.706C86.1634 72.4815 86.5767 72.3693 87.0625 72.3693C87.517 72.3693 87.9134 72.4688 88.2514 72.6676C88.5895 72.8665 88.8523 73.1506 89.0398 73.5199C89.2273 73.8864 89.321 74.3239 89.321 74.8324V79H87.5057V75.1562C87.5085 74.7557 87.4063 74.4432 87.1989 74.2188C86.9915 73.9915 86.706 73.8778 86.3423 73.8778C86.098 73.8778 85.8821 73.9304 85.6946 74.0355C85.5099 74.1406 85.3651 74.294 85.2599 74.4957C85.1577 74.6946 85.1051 74.9347 85.1023 75.2159ZM92.3967 77.1165L92.4009 74.9389H92.6651L94.7617 72.4545H96.8455L94.0288 75.7443H93.5984L92.3967 77.1165ZM90.7518 79V70.2727H92.5671V79H90.7518ZM94.8427 79L92.9165 76.1491L94.1268 74.8665L96.9691 79H94.8427Z" fill="white"/>
</g>
</g>
</svg>
