<svg width="128" height="149" viewBox="0 0 128 149" fill="none" xmlns="http://www.w3.org/2000/svg">
<g id="think_menu">
<circle id="anchor:next" opacity="0.01" cx="64" cy="140" r="1" fill="#D9D9D9"/>
<g id="arrowHead">
<g id="tip">
<path d="M63.9999 140L89 115H39L63.9999 140Z" fill="white"/>
<path d="M63.9999 135L84 115H44L63.9999 135Z" fill="#BF69F1"/>
</g>
<path id="shaft" d="M76.0477 93H54.0477V115H76.0477V93Z" fill="#BF69F1"/>
</g>
<path id="bodyStretch" d="M0 50.5421C0 41.4061 7.31587 34 16.3404 34H111.66C120.684 34 128 41.4061 128 50.5421V76.4579C128 85.5939 120.684 93 111.66 93H16.3404C7.31587 93 0 85.5939 0 76.4579V50.5421Z" fill="#BF69F1"/>
<g id="capTop">
<path d="M64 34H39V9L64 34Z" fill="#BF69F1"/>
<path d="M89 34H64L89 9V34Z" fill="#BF69F1"/>
</g>
<path id="stripe" d="M89 14L64 39L39 14V9L64 34L89 9V14Z" fill="white"/>
<circle id="anchor:prev" opacity="0.01" cx="64" cy="34" r="1" fill="#D9D9D9"/>
<g id="input:value">
<rect id="box" opacity="0.01" x="44" y="50" width="75" height="25" rx="10" fill="#D9D9D9"/>
<rect id="box_2" x="49" y="52" width="75" height="25" rx="10" fill="white"/>
<circle id="anchor-input:value-right" opacity="0.01" cx="119" cy="63" r="1" fill="#D9D9D9"/>
<circle id="anchor-input:value-left" opacity="0.01" cx="44" cy="63" r="1" fill="white"/>
</g>
<path id="text" d="M14.2575 62.8182V64.5227H9.33026V62.8182H14.2575ZM10.4489 60.858H12.718V68.4858C12.718 68.6953 12.75 68.8587 12.8139 68.9759C12.8778 69.0895 12.9666 69.1694 13.0803 69.2156C13.1974 69.2617 13.3324 69.2848 13.4851 69.2848C13.5916 69.2848 13.6982 69.2759 13.8047 69.2582C13.9112 69.2369 13.9929 69.2209 14.0497 69.2102L14.4066 70.8988C14.293 70.9343 14.1332 70.9751 13.9272 71.0213C13.7212 71.071 13.4709 71.1012 13.1761 71.1119C12.6293 71.1332 12.1499 71.0604 11.7379 70.8935C11.3295 70.7266 11.0117 70.4673 10.7844 70.1158C10.5572 69.7642 10.4453 69.3203 10.4489 68.7841V60.858ZM18.1806 66.2699V71H15.9114V60.0909H18.1167V64.2617H18.2125C18.3972 63.7788 18.6955 63.4006 19.1074 63.1271C19.5194 62.8501 20.036 62.7116 20.6575 62.7116C21.2257 62.7116 21.7211 62.8359 22.1436 63.0845C22.5698 63.3295 22.9 63.6829 23.1344 64.1445C23.3723 64.6026 23.4895 65.1513 23.486 65.7905V71H21.2168V66.1953C21.2203 65.6911 21.0925 65.2987 20.8333 65.0181C20.5776 64.7376 20.2189 64.5973 19.7573 64.5973C19.4483 64.5973 19.1749 64.663 18.937 64.7944C18.7026 64.9258 18.5179 65.1175 18.383 65.3697C18.2516 65.6183 18.1841 65.9183 18.1806 66.2699ZM25.2718 71V62.8182H27.5409V71H25.2718ZM26.4117 61.7635C26.0743 61.7635 25.7849 61.6516 25.5434 61.4279C25.3055 61.2006 25.1865 60.929 25.1865 60.6129C25.1865 60.3004 25.3055 60.0323 25.5434 59.8086C25.7849 59.5813 26.0743 59.4677 26.4117 59.4677C26.749 59.4677 27.0367 59.5813 27.2746 59.8086C27.5161 60.0323 27.6368 60.3004 27.6368 60.6129C27.6368 60.929 27.5161 61.2006 27.2746 61.4279C27.0367 61.6516 26.749 61.7635 26.4117 61.7635ZM31.6278 66.2699V71H29.3587V62.8182H31.5213V64.2617H31.6172C31.7983 63.7859 32.1019 63.4094 32.5281 63.1325C32.9542 62.8519 33.4709 62.7116 34.0781 62.7116C34.6463 62.7116 35.1417 62.8359 35.5643 63.0845C35.9869 63.3331 36.3153 63.6882 36.5497 64.1499C36.7841 64.608 36.9013 65.1548 36.9013 65.7905V71H34.6321V66.1953C34.6357 65.6946 34.5078 65.304 34.2486 65.0234C33.9893 64.7393 33.6325 64.5973 33.1779 64.5973C32.8725 64.5973 32.6026 64.663 32.3683 64.7944C32.1374 64.9258 31.9563 65.1175 31.8249 65.3697C31.6971 65.6183 31.6314 65.9183 31.6278 66.2699ZM40.7458 68.6456L40.7512 65.9237H41.0814L43.7021 62.8182H46.3069L42.786 66.9304H42.248L40.7458 68.6456ZM38.6897 71V60.0909H40.9589V71H38.6897ZM43.8034 71L41.3957 67.4364L42.9085 65.8331L46.4614 71H43.8034Z" fill="white"/>
</g>
</svg>
