<svg width="248" height="149" viewBox="0 0 248 149" fill="none" xmlns="http://www.w3.org/2000/svg">
<g id="turn_anticlockwise">
<path id="anchor:next" opacity="0.01" d="M123 141C123.552 141 124 140.552 124 140C124 139.448 123.552 139 123 139C122.448 139 122 139.448 122 140C122 140.552 122.448 141 123 141Z" fill="#D9D9D9"/>
<g id="arrowHead">
<g id="border">
<path id="Vector" d="M123 140L148 115H98L123 140Z" fill="white"/>
<path id="Vector_2" d="M123 135L143 115H103L123 135Z" fill="white"/>
</g>
<g id="tip">
<path id="Vector_3" d="M123 135L143 115H103L123 135Z" fill="#42A5F5"/>
<path id="Vector_4" d="M123 131L139 115H107L123 131Z" fill="#42A5F5"/>
</g>
<path id="shaft" d="M135.048 93H113.048V115H135.048V93Z" fill="#42A5F5"/>
</g>
<path id="bodyStretch" d="M0 50.5421C0 41.4061 14.1745 34 31.6596 34H216.341C233.826 34 248 41.4061 248 50.5421V76.4579C248 85.5939 233.826 93 216.341 93H31.6596C14.1745 93 0 85.5939 0 76.4579V50.5421Z" fill="#42A5F5"/>
<path id="text" d="M37.206 62.4545V63.8182H33.2642V62.4545H37.206ZM34.1591 60.8864H35.9744V66.9886C35.9744 67.1562 36 67.2869 36.0511 67.3807C36.1023 67.4716 36.1733 67.5355 36.2642 67.5724C36.358 67.6094 36.4659 67.6278 36.5881 67.6278C36.6733 67.6278 36.7585 67.6207 36.8438 67.6065C36.929 67.5895 36.9943 67.5767 37.0398 67.5682L37.3253 68.919C37.2344 68.9474 37.1065 68.9801 36.9418 69.017C36.777 69.0568 36.5767 69.081 36.3409 69.0895C35.9034 69.1065 35.5199 69.0483 35.1903 68.9148C34.8636 68.7812 34.6094 68.5739 34.4276 68.2926C34.2457 68.0114 34.1563 67.6562 34.1591 67.2273V60.8864ZM42.5859 66.2131V62.4545H44.4013V69H42.6584V67.8111H42.5902C42.4425 68.1946 42.1967 68.5028 41.853 68.7358C41.5121 68.9687 41.0959 69.0852 40.6044 69.0852C40.1669 69.0852 39.782 68.9858 39.4496 68.7869C39.1172 68.5881 38.8572 68.3054 38.6697 67.9389C38.4851 67.5724 38.3913 67.1335 38.3885 66.6222V62.4545H40.2038V66.2983C40.2067 66.6847 40.3104 66.9901 40.5149 67.2145C40.7195 67.4389 40.9936 67.5511 41.3374 67.5511C41.5561 67.5511 41.7607 67.5014 41.951 67.402C42.1413 67.2997 42.2947 67.1491 42.4112 66.9503C42.5305 66.7514 42.5888 66.5057 42.5859 66.2131ZM45.8533 69V62.4545H47.6133V63.5966H47.6815C47.8008 63.1903 48.0011 62.8835 48.2823 62.6761C48.5636 62.4659 48.8874 62.3608 49.2539 62.3608C49.3448 62.3608 49.4428 62.3665 49.5479 62.3778C49.6531 62.3892 49.7454 62.4048 49.8249 62.4247V64.0355C49.7397 64.0099 49.6218 63.9872 49.4712 63.9673C49.3207 63.9474 49.1829 63.9375 49.0579 63.9375C48.7908 63.9375 48.5522 63.9957 48.342 64.1122C48.1346 64.2259 47.9698 64.3849 47.8477 64.5895C47.7283 64.794 47.6687 65.0298 47.6687 65.2969V69H45.8533ZM52.5788 65.2159V69H50.7635V62.4545H52.4936V63.6094H52.5703C52.7152 63.2287 52.9581 62.9276 53.299 62.706C53.6399 62.4815 54.0533 62.3693 54.5391 62.3693C54.9936 62.3693 55.3899 62.4688 55.728 62.6676C56.0661 62.8665 56.3288 63.1506 56.5163 63.5199C56.7038 63.8864 56.7976 64.3239 56.7976 64.8324V69H54.9822V65.1562C54.9851 64.7557 54.8828 64.4432 54.6754 64.2188C54.468 63.9915 54.1825 63.8778 53.8189 63.8778C53.5746 63.8778 53.3587 63.9304 53.1712 64.0355C52.9865 64.1406 52.8416 64.294 52.7365 64.4957C52.6342 64.6946 52.5817 64.9347 52.5788 65.2159ZM66.0085 61.7131V60.2727C66.6136 60.2727 67.179 60.3864 67.7045 60.6136C68.233 60.8381 68.696 61.1506 69.0938 61.5511C69.4943 61.9517 69.8068 62.4162 70.0312 62.9446C70.2585 63.4702 70.3722 64.0341 70.3722 64.6364C70.3722 65.2386 70.2599 65.804 70.0355 66.3324C69.8111 66.858 69.4986 67.321 69.098 67.7216C68.6974 68.1222 68.233 68.4361 67.7045 68.6634C67.179 68.8878 66.6136 69 66.0085 69C65.4063 69 64.8409 68.8878 64.3125 68.6634C63.7869 68.4361 63.3239 68.1222 62.9233 67.7216C62.5227 67.321 62.2088 66.858 61.9815 66.3324C61.7571 65.804 61.6449 65.2386 61.6449 64.6364L63.0852 64.6406C63.0852 65.044 63.1591 65.4219 63.3068 65.7741C63.4574 66.1264 63.6676 66.4375 63.9375 66.7074C64.2074 66.9744 64.5185 67.1832 64.8707 67.3338C65.2259 67.4844 65.6051 67.5597 66.0085 67.5597C66.4119 67.5597 66.7912 67.4844 67.1463 67.3338C67.5014 67.1832 67.8125 66.9744 68.0795 66.7074C68.3494 66.4375 68.5582 66.1264 68.706 65.7741C68.8565 65.4219 68.9318 65.044 68.9318 64.6406C68.9318 64.2344 68.8551 63.8551 68.7017 63.5028C68.5511 63.1477 68.3423 62.8366 68.0753 62.5696C67.8082 62.2997 67.4972 62.0895 67.142 61.9389C66.7898 61.7884 66.4119 61.7131 66.0085 61.7131ZM66.2003 63.946L63.2599 61.0568L66.2003 58.1676V63.946Z" fill="white"/>
<g id="input:value">
<path id="box" opacity="0.01" d="M144 52H89C83.4772 52 79 56.4772 79 62V66C79 71.5228 83.4772 76 89 76H144C149.523 76 154 71.5228 154 66V62C154 56.4772 149.523 52 144 52Z" fill="#D9D9D9"/>
<path id="anchor-input:value-right" opacity="0.01" d="M154 64C154.552 64 155 63.5523 155 63C155 62.4477 154.552 62 154 62C153.448 62 153 62.4477 153 63C153 63.5523 153.448 64 154 64Z" fill="#D9D9D9"/>
<path id="anchor-input:value-left" opacity="0.01" d="M79 64C79.5523 64 80 63.5523 80 63C80 62.4477 79.5523 62 79 62C78.4477 62 78 62.4477 78 63C78 63.5523 78.4477 64 79 64Z" fill="white"/>
</g>
<path id="text_2" d="M165.136 69.1065C164.639 69.1065 164.189 68.9787 163.786 68.723C163.385 68.4645 163.067 68.0852 162.831 67.5852C162.598 67.0824 162.482 66.4659 162.482 65.7358C162.482 64.9858 162.602 64.3622 162.844 63.8651C163.085 63.3651 163.406 62.9915 163.807 62.7443C164.21 62.4943 164.652 62.3693 165.132 62.3693C165.499 62.3693 165.804 62.4318 166.048 62.5568C166.295 62.679 166.494 62.8324 166.645 63.017C166.798 63.1989 166.915 63.3778 166.994 63.554H167.05V60.2727H168.861V69H167.071V67.9517H166.994C166.909 68.1335 166.788 68.3139 166.632 68.4929C166.479 68.669 166.278 68.8153 166.031 68.9318C165.787 69.0483 165.489 69.1065 165.136 69.1065ZM165.712 67.6619C166.004 67.6619 166.251 67.5824 166.453 67.4233C166.658 67.2614 166.814 67.0355 166.922 66.7457C167.033 66.456 167.088 66.1165 167.088 65.7273C167.088 65.3381 167.034 65 166.926 64.7131C166.818 64.4261 166.662 64.2045 166.457 64.0483C166.253 63.892 166.004 63.8139 165.712 63.8139C165.413 63.8139 165.162 63.8949 164.957 64.0568C164.753 64.2187 164.598 64.4432 164.493 64.7301C164.388 65.017 164.335 65.3494 164.335 65.7273C164.335 66.108 164.388 66.4446 164.493 66.7372C164.601 67.027 164.756 67.2543 164.957 67.419C165.162 67.581 165.413 67.6619 165.712 67.6619ZM173.336 69.1278C172.663 69.1278 172.083 68.9915 171.598 68.7188C171.115 68.4432 170.743 68.054 170.481 67.5511C170.22 67.0455 170.089 66.4474 170.089 65.7571C170.089 65.0838 170.22 64.4929 170.481 63.9844C170.743 63.4759 171.11 63.0795 171.585 62.7955C172.062 62.5114 172.622 62.3693 173.264 62.3693C173.696 62.3693 174.098 62.4389 174.47 62.5781C174.845 62.7145 175.172 62.9205 175.45 63.196C175.731 63.4716 175.95 63.8182 176.106 64.2358C176.262 64.6506 176.341 65.1364 176.341 65.6932V66.1918H170.814V65.0668H174.632C174.632 64.8054 174.575 64.5739 174.461 64.3722C174.348 64.1705 174.19 64.0128 173.988 63.8991C173.789 63.7827 173.558 63.7244 173.294 63.7244C173.018 63.7244 172.774 63.7884 172.561 63.9162C172.35 64.0412 172.186 64.2102 172.066 64.4233C171.947 64.6335 171.886 64.8679 171.883 65.1264V66.196C171.883 66.5199 171.943 66.7997 172.062 67.0355C172.184 67.2713 172.356 67.4531 172.578 67.581C172.799 67.7088 173.062 67.7727 173.366 67.7727C173.568 67.7727 173.752 67.7443 173.92 67.6875C174.088 67.6307 174.231 67.5455 174.35 67.4318C174.47 67.3182 174.561 67.179 174.623 67.0142L176.302 67.125C176.217 67.5284 176.042 67.8807 175.778 68.1818C175.517 68.4801 175.179 68.7131 174.764 68.8807C174.352 69.0455 173.876 69.1278 173.336 69.1278ZM180.474 71.5909C179.886 71.5909 179.382 71.5099 178.961 71.348C178.544 71.1889 178.211 70.9716 177.964 70.696C177.717 70.4205 177.556 70.1108 177.483 69.767L179.162 69.5412C179.213 69.6719 179.294 69.794 179.404 69.9077C179.515 70.0213 179.662 70.1122 179.843 70.1804C180.028 70.2514 180.252 70.2869 180.517 70.2869C180.912 70.2869 181.237 70.1903 181.493 69.9972C181.751 69.8068 181.88 69.4872 181.88 69.0384V67.8409H181.804C181.724 68.0227 181.605 68.1946 181.446 68.3565C181.287 68.5185 181.082 68.6506 180.832 68.7528C180.582 68.8551 180.284 68.9062 179.937 68.9062C179.446 68.9062 178.998 68.7926 178.595 68.5653C178.194 68.3352 177.875 67.9844 177.636 67.5128C177.4 67.0384 177.282 66.4389 177.282 65.7145C177.282 64.973 177.403 64.3537 177.645 63.8565C177.886 63.3594 178.207 62.9872 178.608 62.7401C179.011 62.4929 179.453 62.3693 179.933 62.3693C180.299 62.3693 180.606 62.4318 180.853 62.5568C181.1 62.679 181.299 62.8324 181.45 63.017C181.603 63.1989 181.721 63.3778 181.804 63.554H181.872V62.4545H183.674V69.0639C183.674 69.6207 183.538 70.0866 183.265 70.4616C182.993 70.8366 182.615 71.1179 182.132 71.3054C181.652 71.4957 181.099 71.5909 180.474 71.5909ZM180.512 67.5426C180.805 67.5426 181.052 67.4702 181.254 67.3253C181.458 67.1776 181.615 66.9673 181.723 66.6946C181.833 66.419 181.889 66.0895 181.889 65.706C181.889 65.3224 181.835 64.9901 181.727 64.7088C181.619 64.4247 181.463 64.2045 181.258 64.0483C181.054 63.892 180.805 63.8139 180.512 63.8139C180.214 63.8139 179.963 63.8949 179.758 64.0568C179.554 64.2159 179.399 64.4375 179.294 64.7216C179.189 65.0057 179.136 65.3338 179.136 65.706C179.136 66.0838 179.189 66.4105 179.294 66.6861C179.402 66.9588 179.556 67.1705 179.758 67.321C179.963 67.4687 180.214 67.5426 180.512 67.5426ZM185.119 69V62.4545H186.879V63.5966H186.947C187.066 63.1903 187.267 62.8835 187.548 62.6761C187.829 62.4659 188.153 62.3608 188.52 62.3608C188.61 62.3608 188.708 62.3665 188.814 62.3778C188.919 62.3892 189.011 62.4048 189.091 62.4247V64.0355C189.005 64.0099 188.887 63.9872 188.737 63.9673C188.586 63.9474 188.449 63.9375 188.324 63.9375C188.056 63.9375 187.818 63.9957 187.608 64.1122C187.4 64.2259 187.235 64.3849 187.113 64.5895C186.994 64.794 186.934 65.0298 186.934 65.2969V69H185.119ZM192.707 69.1278C192.034 69.1278 191.455 68.9915 190.969 68.7188C190.486 68.4432 190.114 68.054 189.852 67.5511C189.591 67.0455 189.46 66.4474 189.46 65.7571C189.46 65.0838 189.591 64.4929 189.852 63.9844C190.114 63.4759 190.482 63.0795 190.956 62.7955C191.433 62.5114 191.993 62.3693 192.635 62.3693C193.067 62.3693 193.469 62.4389 193.841 62.5781C194.216 62.7145 194.543 62.9205 194.821 63.196C195.102 63.4716 195.321 63.8182 195.477 64.2358C195.634 64.6506 195.712 65.1364 195.712 65.6932V66.1918H190.185V65.0668H194.003C194.003 64.8054 193.946 64.5739 193.832 64.3722C193.719 64.1705 193.561 64.0128 193.359 63.8991C193.161 63.7827 192.929 63.7244 192.665 63.7244C192.389 63.7244 192.145 63.7884 191.932 63.9162C191.722 64.0412 191.557 64.2102 191.438 64.4233C191.318 64.6335 191.257 64.8679 191.254 65.1264V66.196C191.254 66.5199 191.314 66.7997 191.433 67.0355C191.555 67.2713 191.727 67.4531 191.949 67.581C192.17 67.7088 192.433 67.7727 192.737 67.7727C192.939 67.7727 193.124 67.7443 193.291 67.6875C193.459 67.6307 193.602 67.5455 193.722 67.4318C193.841 67.3182 193.932 67.179 193.994 67.0142L195.673 67.125C195.588 67.5284 195.413 67.8807 195.149 68.1818C194.888 68.4801 194.55 68.7131 194.135 68.8807C193.723 69.0455 193.247 69.1278 192.707 69.1278ZM199.879 69.1278C199.206 69.1278 198.626 68.9915 198.141 68.7188C197.658 68.4432 197.286 68.054 197.024 67.5511C196.763 67.0455 196.632 66.4474 196.632 65.7571C196.632 65.0838 196.763 64.4929 197.024 63.9844C197.286 63.4759 197.653 63.0795 198.128 62.7955C198.605 62.5114 199.165 62.3693 199.807 62.3693C200.239 62.3693 200.641 62.4389 201.013 62.5781C201.388 62.7145 201.714 62.9205 201.993 63.196C202.274 63.4716 202.493 63.8182 202.649 64.2358C202.805 64.6506 202.884 65.1364 202.884 65.6932V66.1918H197.357V65.0668H201.175C201.175 64.8054 201.118 64.5739 201.004 64.3722C200.891 64.1705 200.733 64.0128 200.531 63.8991C200.332 63.7827 200.101 63.7244 199.837 63.7244C199.561 63.7244 199.317 63.7884 199.104 63.9162C198.893 64.0412 198.729 64.2102 198.609 64.4233C198.49 64.6335 198.429 64.8679 198.426 65.1264V66.196C198.426 66.5199 198.486 66.7997 198.605 67.0355C198.727 67.2713 198.899 67.4531 199.121 67.581C199.342 67.7088 199.605 67.7727 199.909 67.7727C200.111 67.7727 200.295 67.7443 200.463 67.6875C200.631 67.6307 200.774 67.5455 200.893 67.4318C201.013 67.3182 201.104 67.179 201.166 67.0142L202.845 67.125C202.76 67.5284 202.585 67.8807 202.321 68.1818C202.06 68.4801 201.722 68.7131 201.307 68.8807C200.895 69.0455 200.419 69.1278 199.879 69.1278ZM209.514 64.321L207.852 64.4233C207.824 64.2812 207.763 64.1534 207.669 64.0398C207.575 63.9233 207.452 63.831 207.298 63.7628C207.148 63.6918 206.967 63.6562 206.757 63.6562C206.476 63.6562 206.239 63.7159 206.045 63.8352C205.852 63.9517 205.756 64.108 205.756 64.304C205.756 64.4602 205.818 64.5923 205.943 64.7003C206.068 64.8082 206.283 64.8949 206.587 64.9602L207.771 65.1989C208.408 65.3295 208.882 65.5398 209.195 65.8295C209.507 66.1193 209.663 66.5 209.663 66.9716C209.663 67.4006 209.537 67.777 209.284 68.1009C209.034 68.4247 208.69 68.6776 208.253 68.8594C207.818 69.0384 207.317 69.1278 206.749 69.1278C205.882 69.1278 205.192 68.9474 204.678 68.5866C204.166 68.223 203.866 67.7287 203.778 67.1037L205.564 67.0099C205.618 67.2741 205.749 67.4759 205.956 67.6151C206.163 67.7514 206.429 67.8196 206.753 67.8196C207.071 67.8196 207.327 67.7585 207.52 67.6364C207.716 67.5114 207.815 67.3509 207.818 67.1548C207.815 66.9901 207.746 66.8551 207.609 66.75C207.473 66.642 207.263 66.5597 206.979 66.5028L205.845 66.277C205.206 66.1491 204.73 65.9276 204.418 65.6122C204.108 65.2969 203.953 64.8949 203.953 64.4062C203.953 63.9858 204.067 63.6236 204.294 63.3196C204.524 63.0156 204.847 62.7812 205.261 62.6165C205.679 62.4517 206.168 62.3693 206.727 62.3693C207.554 62.3693 208.205 62.544 208.679 62.8935C209.156 63.2429 209.435 63.7187 209.514 64.321Z" fill="white"/>
<g id="capTop">
<path id="anchor:prev" opacity="0.01" d="M123 35C123.552 35 124 34.5523 124 34C124 33.4477 123.552 33 123 33C122.448 33 122 33.4477 122 34C122 34.5523 122.448 35 123 35Z" fill="#D9D9D9"/>
<path id="Vector_5" d="M123 34H98V9L123 34Z" fill="#42A5F5"/>
<path id="Vector_6" d="M148 34H123L148 9V34Z" fill="#42A5F5"/>
<path id="stripe" d="M148 14L123 39L98 14V9L123 34L148 9V14Z" fill="white"/>
</g>
</g>
</svg>
