<svg width="248" height="149" viewBox="0 0 248 149" fill="none" xmlns="http://www.w3.org/2000/svg">
<g id="turn_clockwise_menu">
<path id="anchor:next" opacity="0.01" d="M123 141C123.552 141 124 140.552 124 140C124 139.448 123.552 139 123 139C122.448 139 122 139.448 122 140C122 140.552 122.448 141 123 141Z" fill="#D9D9D9"/>
<g id="arrowHead">
<g id="border">
<path id="Vector" d="M123 140L148 115H98L123 140Z" fill="white"/>
<path id="Vector_2" d="M123 135L143 115H103L123 135Z" fill="white"/>
</g>
<g id="tip">
<path id="Vector_3" d="M123 135L143 115H103L123 135Z" fill="#42A5F5"/>
<path id="Vector_4" d="M123 131L139 115H107L123 131Z" fill="#42A5F5"/>
</g>
<path id="shaft" d="M135.048 93H113.048V115H135.048V93Z" fill="#42A5F5"/>
</g>
<path id="bodyStretch" d="M0 50.5421C0 41.4061 14.1745 34 31.6596 34H216.341C233.826 34 248 41.4061 248 50.5421V76.4579C248 85.5939 233.826 93 216.341 93H31.6596C14.1745 93 0 85.5939 0 76.4579V50.5421Z" fill="#42A5F5"/>
<path id="text" d="M34.2575 62.8182V64.5227H29.3303V62.8182H34.2575ZM30.4489 60.858H32.718V68.4858C32.718 68.6953 32.75 68.8587 32.8139 68.9759C32.8778 69.0895 32.9666 69.1694 33.0803 69.2156C33.1974 69.2617 33.3324 69.2848 33.4851 69.2848C33.5916 69.2848 33.6982 69.2759 33.8047 69.2582C33.9112 69.2369 33.9929 69.2209 34.0497 69.2102L34.4066 70.8988C34.293 70.9343 34.1332 70.9751 33.9272 71.0213C33.7212 71.071 33.4709 71.1012 33.1761 71.1119C32.6293 71.1332 32.1499 71.0604 31.7379 70.8935C31.3295 70.7266 31.0117 70.4673 30.7844 70.1158C30.5572 69.7642 30.4453 69.3203 30.4489 68.7841V60.858ZM40.9824 67.5163V62.8182H43.2516V71H41.073V69.5138H40.9877C40.8031 69.9933 40.4959 70.3786 40.0662 70.6697C39.6401 70.9609 39.1199 71.1065 38.5055 71.1065C37.9586 71.1065 37.4775 70.9822 37.062 70.7337C36.6465 70.4851 36.3216 70.1317 36.0872 69.6737C35.8564 69.2156 35.7392 68.6669 35.7356 68.0277V62.8182H38.0048V67.6229C38.0083 68.1058 38.138 68.4876 38.3936 68.7681C38.6493 69.0487 38.992 69.1889 39.4217 69.1889C39.6951 69.1889 39.9508 69.1268 40.1887 69.0025C40.4267 68.8746 40.6184 68.6864 40.764 68.4379C40.9132 68.1893 40.986 67.8821 40.9824 67.5163ZM45.0667 71V62.8182H47.2666V64.2457H47.3518C47.501 63.7379 47.7513 63.3544 48.1029 63.0952C48.4545 62.8324 48.8593 62.701 49.3174 62.701C49.431 62.701 49.5535 62.7081 49.6849 62.7223C49.8163 62.7365 49.9317 62.756 50.0312 62.7809V64.7944C49.9246 64.7624 49.7773 64.734 49.589 64.7092C49.4008 64.6843 49.2286 64.6719 49.0724 64.6719C48.7385 64.6719 48.4403 64.7447 48.1775 64.8903C47.9182 65.0323 47.7123 65.2312 47.5596 65.4869C47.4104 65.7425 47.3358 66.0373 47.3358 66.3711V71H45.0667ZM53.4735 66.2699V71H51.2044V62.8182H53.367V64.2617H53.4629C53.644 63.7859 53.9476 63.4094 54.3738 63.1325C54.7999 62.8519 55.3166 62.7116 55.9238 62.7116C56.492 62.7116 56.9874 62.8359 57.41 63.0845C57.8326 63.3331 58.161 63.6882 58.3954 64.1499C58.6298 64.608 58.747 65.1548 58.747 65.7905V71H56.4778V66.1953C56.4814 65.6946 56.3535 65.304 56.0943 65.0234C55.835 64.7393 55.4782 64.5973 55.0236 64.5973C54.7182 64.5973 54.4483 64.663 54.214 64.7944C53.9831 64.9258 53.802 65.1175 53.6706 65.3697C53.5428 65.6183 53.4771 65.9183 53.4735 66.2699ZM70.2607 71C69.5043 71 68.7958 70.8597 68.1353 70.5792C67.4783 70.2951 66.8995 69.9027 66.3988 69.402C65.8981 68.9013 65.5075 68.3224 65.2269 67.6655C64.9464 67.005 64.8061 66.2983 64.8061 65.5455C64.8061 64.7926 64.9464 64.0877 65.2269 63.4308C65.511 62.7702 65.9016 62.1896 66.3988 61.6889C66.8995 61.1882 67.4783 60.7976 68.1353 60.517C68.7958 60.233 69.5043 60.0909 70.2607 60.0909V61.8913C69.7564 61.8913 69.2823 61.9854 68.8384 62.1737C68.3981 62.3619 68.011 62.6246 67.6772 62.962C67.3434 63.2958 67.0806 63.6847 66.8888 64.1286C66.7006 64.5689 66.6065 65.0412 66.6065 65.5455C66.6065 66.0533 66.6989 66.5273 66.8835 66.9677C67.0717 67.408 67.3327 67.7969 67.6665 68.1342C68.0039 68.468 68.3928 68.729 68.8331 68.9173C69.277 69.1055 69.7528 69.1996 70.2607 69.1996C70.7649 69.1996 71.2372 69.1055 71.6776 68.9173C72.1214 68.729 72.5103 68.468 72.8441 68.1342C73.1815 67.7969 73.4442 67.408 73.6325 66.9677C73.8207 66.5238 73.9148 66.0497 73.9148 65.5455H75.7152C75.7152 66.2983 75.5732 67.005 75.2891 67.6655C75.0085 68.3224 74.6179 68.9013 74.1172 69.402C73.6165 69.9027 73.0359 70.2951 72.3754 70.5792C71.7184 70.8597 71.0135 71 70.2607 71ZM70.021 64.6825V57.4595L73.6964 61.071L70.021 64.6825Z" fill="white"/>
<g id="input:value">
<rect id="box" x="83" y="52" width="75" height="24" rx="10" fill="white"/>
<path id="anchor-input:value-right" opacity="0.01" d="M158 64C158.552 64 159 63.5523 159 63C159 62.4477 158.552 62 158 62C157.448 62 157 62.4477 157 63C157 63.5523 157.448 64 158 64Z" fill="#D9D9D9"/>
<path id="anchor-input:value-left" opacity="0.01" d="M83 64C83.5523 64 84 63.5523 84 63C84 62.4477 83.5523 62 83 62C82.4477 62 82 62.4477 82 63C82 63.5523 82.4477 64 83 64Z" fill="white"/>
</g>
<path id="text_2" d="M169.92 71.1332C169.299 71.1332 168.736 70.9734 168.232 70.6538C167.731 70.3306 167.333 69.8565 167.039 69.2315C166.748 68.603 166.602 67.8324 166.602 66.9197C166.602 65.9822 166.753 65.2028 167.055 64.5813C167.357 63.9563 167.758 63.4893 168.259 63.1804C168.763 62.8679 169.315 62.7116 169.915 62.7116C170.373 62.7116 170.755 62.7898 171.06 62.946C171.369 63.0987 171.618 63.2905 171.806 63.5213C171.998 63.7486 172.143 63.9723 172.243 64.1925H172.312V60.0909H174.576V71H172.339V69.6896H172.243C172.136 69.9169 171.985 70.1424 171.79 70.3661C171.598 70.5863 171.348 70.7692 171.039 70.9148C170.734 71.0604 170.361 71.1332 169.92 71.1332ZM170.64 69.3274C171.005 69.3274 171.314 69.228 171.566 69.0291C171.822 68.8267 172.017 68.5444 172.152 68.1822C172.291 67.82 172.36 67.3956 172.36 66.9091C172.36 66.4226 172.293 66 172.158 65.6413C172.023 65.2827 171.827 65.0057 171.572 64.8104C171.316 64.6151 171.005 64.5174 170.64 64.5174C170.267 64.5174 169.952 64.6186 169.697 64.821C169.441 65.0234 169.248 65.304 169.116 65.6626C168.985 66.0213 168.919 66.4368 168.919 66.9091C168.919 67.3849 168.985 67.8058 169.116 68.1715C169.251 68.5337 169.445 68.8178 169.697 69.0238C169.952 69.2262 170.267 69.3274 170.64 69.3274ZM180.17 71.1598C179.329 71.1598 178.604 70.9893 177.997 70.6484C177.393 70.304 176.928 69.8175 176.601 69.1889C176.275 68.5568 176.111 67.8093 176.111 66.9464C176.111 66.1048 176.275 65.3661 176.601 64.7305C176.928 64.0948 177.388 63.5994 177.981 63.2443C178.578 62.8892 179.277 62.7116 180.08 62.7116C180.62 62.7116 181.122 62.7987 181.587 62.9727C182.056 63.1431 182.464 63.4006 182.812 63.745C183.164 64.0895 183.437 64.5227 183.633 65.0447C183.828 65.5632 183.926 66.1705 183.926 66.8665V67.4897H177.017V66.0835H181.79C181.79 65.7567 181.719 65.4673 181.577 65.2152C181.435 64.9631 181.237 64.766 180.985 64.6239C180.737 64.4783 180.447 64.4055 180.117 64.4055C179.773 64.4055 179.467 64.4854 179.201 64.6452C178.938 64.8015 178.732 65.0128 178.583 65.2791C178.434 65.5419 178.358 65.8349 178.354 66.158V67.495C178.354 67.8999 178.429 68.2496 178.578 68.5444C178.73 68.8391 178.945 69.0664 179.222 69.2262C179.499 69.386 179.828 69.4659 180.208 69.4659C180.46 69.4659 180.691 69.4304 180.9 69.3594C181.11 69.2884 181.289 69.1818 181.438 69.0398C181.587 68.8977 181.701 68.7237 181.779 68.5178L183.878 68.6562C183.771 69.1605 183.553 69.6009 183.223 69.9773C182.896 70.3501 182.473 70.6413 181.955 70.8509C181.44 71.0568 180.845 71.1598 180.17 71.1598ZM189.093 74.2386C188.358 74.2386 187.727 74.1374 187.202 73.935C186.68 73.7362 186.264 73.4645 185.955 73.12C185.646 72.7756 185.446 72.3885 185.353 71.9588L187.452 71.6765C187.516 71.8398 187.617 71.9925 187.756 72.1346C187.894 72.2766 188.077 72.3903 188.304 72.4755C188.535 72.5643 188.816 72.6087 189.146 72.6087C189.639 72.6087 190.046 72.4879 190.366 72.2464C190.689 72.0085 190.85 71.609 190.85 71.0479V69.5511H190.755C190.655 69.7784 190.506 69.9933 190.307 70.1957C190.108 70.3981 189.853 70.5632 189.54 70.6911C189.228 70.8189 188.855 70.8828 188.421 70.8828C187.807 70.8828 187.248 70.7408 186.744 70.4567C186.243 70.169 185.843 69.7305 185.545 69.141C185.25 68.5479 185.103 67.7987 185.103 66.8931C185.103 65.9663 185.254 65.1921 185.556 64.5707C185.858 63.9492 186.259 63.484 186.759 63.1751C187.264 62.8661 187.816 62.7116 188.416 62.7116C188.874 62.7116 189.258 62.7898 189.567 62.946C189.876 63.0987 190.124 63.2905 190.312 63.5213C190.504 63.7486 190.652 63.9723 190.755 64.1925H190.84V62.8182H193.093V71.0799C193.093 71.7759 192.922 72.3583 192.582 72.8271C192.241 73.2958 191.768 73.6474 191.165 73.8817C190.565 74.1197 189.874 74.2386 189.093 74.2386ZM189.141 69.1783C189.506 69.1783 189.815 69.0877 190.067 68.9066C190.323 68.7219 190.518 68.4592 190.653 68.1183C190.792 67.7738 190.861 67.3619 190.861 66.8825C190.861 66.4031 190.794 65.9876 190.659 65.636C190.524 65.2809 190.328 65.0057 190.073 64.8104C189.817 64.6151 189.506 64.5174 189.141 64.5174C188.768 64.5174 188.453 64.6186 188.198 64.821C187.942 65.0199 187.748 65.2969 187.617 65.652C187.486 66.0071 187.42 66.4173 187.42 66.8825C187.42 67.3548 187.486 67.7631 187.617 68.1076C187.752 68.4485 187.946 68.7131 188.198 68.9013C188.453 69.0859 188.768 69.1783 189.141 69.1783ZM194.899 71V62.8182H197.099V64.2457H197.184C197.333 63.7379 197.583 63.3544 197.935 63.0952C198.286 62.8324 198.691 62.701 199.149 62.701C199.263 62.701 199.386 62.7081 199.517 62.7223C199.648 62.7365 199.764 62.756 199.863 62.7809V64.7944C199.757 64.7624 199.609 64.734 199.421 64.7092C199.233 64.6843 199.061 64.6719 198.904 64.6719C198.571 64.6719 198.272 64.7447 198.009 64.8903C197.75 65.0323 197.544 65.2312 197.392 65.4869C197.242 65.7425 197.168 66.0373 197.168 66.3711V71H194.899ZM204.384 71.1598C203.543 71.1598 202.818 70.9893 202.211 70.6484C201.607 70.304 201.142 69.8175 200.815 69.1889C200.489 68.5568 200.325 67.8093 200.325 66.9464C200.325 66.1048 200.489 65.3661 200.815 64.7305C201.142 64.0948 201.602 63.5994 202.195 63.2443C202.792 62.8892 203.491 62.7116 204.294 62.7116C204.833 62.7116 205.336 62.7987 205.801 62.9727C206.27 63.1431 206.678 63.4006 207.026 63.745C207.378 64.0895 207.651 64.5227 207.847 65.0447C208.042 65.5632 208.14 66.1705 208.14 66.8665V67.4897H201.231V66.0835H206.004C206.004 65.7567 205.933 65.4673 205.79 65.2152C205.648 64.9631 205.451 64.766 205.199 64.6239C204.951 64.4783 204.661 64.4055 204.331 64.4055C203.987 64.4055 203.681 64.4854 203.415 64.6452C203.152 64.8015 202.946 65.0128 202.797 65.2791C202.648 65.5419 202.571 65.8349 202.568 66.158V67.495C202.568 67.8999 202.642 68.2496 202.792 68.5444C202.944 68.8391 203.159 69.0664 203.436 69.2262C203.713 69.386 204.042 69.4659 204.422 69.4659C204.674 69.4659 204.904 69.4304 205.114 69.3594C205.324 69.2884 205.503 69.1818 205.652 69.0398C205.801 68.8977 205.915 68.7237 205.993 68.5178L208.092 68.6562C207.985 69.1605 207.767 69.6009 207.436 69.9773C207.11 70.3501 206.687 70.6413 206.169 70.8509C205.654 71.0568 205.059 71.1598 204.384 71.1598ZM213.349 71.1598C212.507 71.1598 211.783 70.9893 211.176 70.6484C210.572 70.304 210.107 69.8175 209.78 69.1889C209.453 68.5568 209.29 67.8093 209.29 66.9464C209.29 66.1048 209.453 65.3661 209.78 64.7305C210.107 64.0948 210.567 63.5994 211.16 63.2443C211.756 62.8892 212.456 62.7116 213.259 62.7116C213.798 62.7116 214.301 62.7987 214.766 62.9727C215.235 63.1431 215.643 63.4006 215.991 63.745C216.343 64.0895 216.616 64.5227 216.811 65.0447C217.007 65.5632 217.104 66.1705 217.104 66.8665V67.4897H210.196V66.0835H214.968C214.968 65.7567 214.897 65.4673 214.755 65.2152C214.613 64.9631 214.416 64.766 214.164 64.6239C213.915 64.4783 213.626 64.4055 213.296 64.4055C212.951 64.4055 212.646 64.4854 212.38 64.6452C212.117 64.8015 211.911 65.0128 211.762 65.2791C211.613 65.5419 211.536 65.8349 211.533 66.158V67.495C211.533 67.8999 211.607 68.2496 211.756 68.5444C211.909 68.8391 212.124 69.0664 212.401 69.2262C212.678 69.386 213.006 69.4659 213.386 69.4659C213.638 69.4659 213.869 69.4304 214.079 69.3594C214.288 69.2884 214.468 69.1818 214.617 69.0398C214.766 68.8977 214.88 68.7237 214.958 68.5178L217.056 68.6562C216.95 69.1605 216.732 69.6009 216.401 69.9773C216.075 70.3501 215.652 70.6413 215.134 70.8509C214.619 71.0568 214.024 71.1598 213.349 71.1598ZM225.393 65.1513L223.315 65.2791C223.28 65.1016 223.203 64.9418 223.086 64.7997C222.969 64.6541 222.815 64.5387 222.623 64.4535C222.435 64.3647 222.209 64.3203 221.946 64.3203C221.595 64.3203 221.298 64.3949 221.057 64.544C220.815 64.6896 220.695 64.8849 220.695 65.13C220.695 65.3253 220.773 65.4904 220.929 65.6254C221.085 65.7603 221.353 65.8686 221.733 65.9503L223.214 66.2486C224.01 66.4119 224.603 66.6747 224.993 67.0369C225.384 67.3991 225.579 67.875 225.579 68.4645C225.579 69.0007 225.421 69.4712 225.105 69.8761C224.793 70.2809 224.363 70.5969 223.816 70.8242C223.273 71.0479 222.646 71.1598 221.936 71.1598C220.853 71.1598 219.99 70.9343 219.347 70.4833C218.708 70.0288 218.333 69.4109 218.223 68.6296L220.455 68.5124C220.522 68.8427 220.686 69.0948 220.945 69.2688C221.204 69.4393 221.536 69.5245 221.941 69.5245C222.339 69.5245 222.658 69.4482 222.9 69.2955C223.145 69.1392 223.269 68.9386 223.273 68.6935C223.269 68.4876 223.182 68.3189 223.012 68.1875C222.841 68.0526 222.578 67.9496 222.223 67.8786L220.806 67.5962C220.007 67.4364 219.413 67.1594 219.022 66.7653C218.635 66.3711 218.441 65.8686 218.441 65.2578C218.441 64.7322 218.583 64.2795 218.868 63.8995C219.155 63.5195 219.558 63.2266 220.077 63.0206C220.599 62.8146 221.21 62.7116 221.909 62.7116C222.942 62.7116 223.756 62.93 224.349 63.3668C224.945 63.8036 225.293 64.3984 225.393 65.1513Z" fill="white"/>
<g id="capTop">
<path id="anchor:prev" opacity="0.01" d="M123 35C123.552 35 124 34.5523 124 34C124 33.4477 123.552 33 123 33C122.448 33 122 33.4477 122 34C122 34.5523 122.448 35 123 35Z" fill="#D9D9D9"/>
<path id="Vector_5" d="M123 34H98V9L123 34Z" fill="#42A5F5"/>
<path id="Vector_6" d="M148 34H123L148 9V34Z" fill="#42A5F5"/>
<path id="stripe" d="M148 14L123 39L98 14V9L123 34L148 9V14Z" fill="white"/>
</g>
</g>
</svg>
