<svg width="241" height="166" viewBox="0 0 241 166" fill="none" xmlns="http://www.w3.org/2000/svg">
<g id="turn_anticlockwise">
<g id="block_shape">
<rect id="next_block_arrowbody" x="108" y="101" width="22" height="22" fill="#42A5F5"/>
<path id="next_block_arrowhead" d="M118.5 157L144.048 122.5H92.9523L118.5 157Z" fill="#42A5F5"/>
<g id="prev_block_connector">
<path d="M118.5 42H93V8H93.3223L118.5 42Z" fill="#42A5F5"/>
<path d="M144 42H118.5L143.678 8H144V42Z" fill="#42A5F5"/>
</g>
<path id="block_body" d="M5 58.5421C5 49.4061 18.0314 42 34.1064 42H203.894C219.969 42 233 49.4061 233 58.5421V84.4579C233 93.5939 219.969 101 203.894 101H34.1064C18.0314 101 5 93.5939 5 84.4579V58.5421Z" fill="#42A5F5"/>
</g>
<g id="block_input">
<rect id="input_constant" x="79" y="60" width="77" height="24" rx="10" fill="white"/>
<path id="turn_text" d="M36.206 70.4545V71.8182H32.2642V70.4545H36.206ZM33.1591 68.8864H34.9744V74.9886C34.9744 75.1562 35 75.2869 35.0511 75.3807C35.1023 75.4716 35.1733 75.5355 35.2642 75.5724C35.358 75.6094 35.4659 75.6278 35.5881 75.6278C35.6733 75.6278 35.7585 75.6207 35.8438 75.6065C35.929 75.5895 35.9943 75.5767 36.0398 75.5682L36.3253 76.919C36.2344 76.9474 36.1065 76.9801 35.9418 77.017C35.777 77.0568 35.5767 77.081 35.3409 77.0895C34.9034 77.1065 34.5199 77.0483 34.1903 76.9148C33.8636 76.7812 33.6094 76.5739 33.4276 76.2926C33.2457 76.0114 33.1563 75.6562 33.1591 75.2273V68.8864ZM41.5859 74.2131V70.4545H43.4013V77H41.6584V75.8111H41.5902C41.4425 76.1946 41.1967 76.5028 40.853 76.7358C40.5121 76.9687 40.0959 77.0852 39.6044 77.0852C39.1669 77.0852 38.782 76.9858 38.4496 76.7869C38.1172 76.5881 37.8572 76.3054 37.6697 75.9389C37.4851 75.5724 37.3913 75.1335 37.3885 74.6222V70.4545H39.2038V74.2983C39.2067 74.6847 39.3104 74.9901 39.5149 75.2145C39.7195 75.4389 39.9936 75.5511 40.3374 75.5511C40.5561 75.5511 40.7607 75.5014 40.951 75.402C41.1413 75.2997 41.2947 75.1491 41.4112 74.9503C41.5305 74.7514 41.5888 74.5057 41.5859 74.2131ZM44.8533 77V70.4545H46.6133V71.5966H46.6815C46.8008 71.1903 47.0011 70.8835 47.2823 70.6761C47.5636 70.4659 47.8874 70.3608 48.2539 70.3608C48.3448 70.3608 48.4428 70.3665 48.5479 70.3778C48.6531 70.3892 48.7454 70.4048 48.8249 70.4247V72.0355C48.7397 72.0099 48.6218 71.9872 48.4712 71.9673C48.3207 71.9474 48.1829 71.9375 48.0579 71.9375C47.7908 71.9375 47.5522 71.9957 47.342 72.1122C47.1346 72.2259 46.9698 72.3849 46.8477 72.5895C46.7283 72.794 46.6687 73.0298 46.6687 73.2969V77H44.8533ZM51.5788 73.2159V77H49.7635V70.4545H51.4936V71.6094H51.5703C51.7152 71.2287 51.9581 70.9276 52.299 70.706C52.6399 70.4815 53.0533 70.3693 53.5391 70.3693C53.9936 70.3693 54.3899 70.4688 54.728 70.6676C55.0661 70.8665 55.3288 71.1506 55.5163 71.5199C55.7038 71.8864 55.7976 72.3239 55.7976 72.8324V77H53.9822V73.1562C53.9851 72.7557 53.8828 72.4432 53.6754 72.2188C53.468 71.9915 53.1825 71.8778 52.8189 71.8778C52.5746 71.8778 52.3587 71.9304 52.1712 72.0355C51.9865 72.1406 51.8416 72.294 51.7365 72.4957C51.6342 72.6946 51.5817 72.9347 51.5788 73.2159ZM65.0085 69.7131V68.2727C65.6136 68.2727 66.179 68.3864 66.7045 68.6136C67.233 68.8381 67.696 69.1506 68.0938 69.5511C68.4943 69.9517 68.8068 70.4162 69.0312 70.9446C69.2585 71.4702 69.3722 72.0341 69.3722 72.6364C69.3722 73.2386 69.2599 73.804 69.0355 74.3324C68.8111 74.858 68.4986 75.321 68.098 75.7216C67.6974 76.1222 67.233 76.4361 66.7045 76.6634C66.179 76.8878 65.6136 77 65.0085 77C64.4063 77 63.8409 76.8878 63.3125 76.6634C62.7869 76.4361 62.3239 76.1222 61.9233 75.7216C61.5227 75.321 61.2088 74.858 60.9815 74.3324C60.7571 73.804 60.6449 73.2386 60.6449 72.6364L62.0852 72.6406C62.0852 73.044 62.1591 73.4219 62.3068 73.7741C62.4574 74.1264 62.6676 74.4375 62.9375 74.7074C63.2074 74.9744 63.5185 75.1832 63.8707 75.3338C64.2259 75.4844 64.6051 75.5597 65.0085 75.5597C65.4119 75.5597 65.7912 75.4844 66.1463 75.3338C66.5014 75.1832 66.8125 74.9744 67.0795 74.7074C67.3494 74.4375 67.5582 74.1264 67.706 73.7741C67.8565 73.4219 67.9318 73.044 67.9318 72.6406C67.9318 72.2344 67.8551 71.8551 67.7017 71.5028C67.5511 71.1477 67.3423 70.8366 67.0753 70.5696C66.8082 70.2997 66.4972 70.0895 66.142 69.9389C65.7898 69.7884 65.4119 69.7131 65.0085 69.7131ZM65.2003 71.946L62.2599 69.0568L65.2003 66.1676V71.946Z" fill="white"/>
<path id="degrees_text" d="M164.136 77.1065C163.639 77.1065 163.189 76.9787 162.786 76.723C162.385 76.4645 162.067 76.0852 161.831 75.5852C161.598 75.0824 161.482 74.4659 161.482 73.7358C161.482 72.9858 161.602 72.3622 161.844 71.8651C162.085 71.3651 162.406 70.9915 162.807 70.7443C163.21 70.4943 163.652 70.3693 164.132 70.3693C164.499 70.3693 164.804 70.4318 165.048 70.5568C165.295 70.679 165.494 70.8324 165.645 71.017C165.798 71.1989 165.915 71.3778 165.994 71.554H166.05V68.2727H167.861V77H166.071V75.9517H165.994C165.909 76.1335 165.788 76.3139 165.632 76.4929C165.479 76.669 165.278 76.8153 165.031 76.9318C164.787 77.0483 164.489 77.1065 164.136 77.1065ZM164.712 75.6619C165.004 75.6619 165.251 75.5824 165.453 75.4233C165.658 75.2614 165.814 75.0355 165.922 74.7457C166.033 74.456 166.088 74.1165 166.088 73.7273C166.088 73.3381 166.034 73 165.926 72.7131C165.818 72.4261 165.662 72.2045 165.457 72.0483C165.253 71.892 165.004 71.8139 164.712 71.8139C164.413 71.8139 164.162 71.8949 163.957 72.0568C163.753 72.2187 163.598 72.4432 163.493 72.7301C163.388 73.017 163.335 73.3494 163.335 73.7273C163.335 74.108 163.388 74.4446 163.493 74.7372C163.601 75.027 163.756 75.2543 163.957 75.419C164.162 75.581 164.413 75.6619 164.712 75.6619ZM172.336 77.1278C171.663 77.1278 171.083 76.9915 170.598 76.7188C170.115 76.4432 169.743 76.054 169.481 75.5511C169.22 75.0455 169.089 74.4474 169.089 73.7571C169.089 73.0838 169.22 72.4929 169.481 71.9844C169.743 71.4759 170.11 71.0795 170.585 70.7955C171.062 70.5114 171.622 70.3693 172.264 70.3693C172.696 70.3693 173.098 70.4389 173.47 70.5781C173.845 70.7145 174.172 70.9205 174.45 71.196C174.731 71.4716 174.95 71.8182 175.106 72.2358C175.262 72.6506 175.341 73.1364 175.341 73.6932V74.1918H169.814V73.0668H173.632C173.632 72.8054 173.575 72.5739 173.461 72.3722C173.348 72.1705 173.19 72.0128 172.988 71.8991C172.789 71.7827 172.558 71.7244 172.294 71.7244C172.018 71.7244 171.774 71.7884 171.561 71.9162C171.35 72.0412 171.186 72.2102 171.066 72.4233C170.947 72.6335 170.886 72.8679 170.883 73.1264V74.196C170.883 74.5199 170.943 74.7997 171.062 75.0355C171.184 75.2713 171.356 75.4531 171.578 75.581C171.799 75.7088 172.062 75.7727 172.366 75.7727C172.568 75.7727 172.752 75.7443 172.92 75.6875C173.088 75.6307 173.231 75.5455 173.35 75.4318C173.47 75.3182 173.561 75.179 173.623 75.0142L175.302 75.125C175.217 75.5284 175.042 75.8807 174.778 76.1818C174.517 76.4801 174.179 76.7131 173.764 76.8807C173.352 77.0455 172.876 77.1278 172.336 77.1278ZM179.474 79.5909C178.886 79.5909 178.382 79.5099 177.961 79.348C177.544 79.1889 177.211 78.9716 176.964 78.696C176.717 78.4205 176.556 78.1108 176.483 77.767L178.162 77.5412C178.213 77.6719 178.294 77.794 178.404 77.9077C178.515 78.0213 178.662 78.1122 178.843 78.1804C179.028 78.2514 179.252 78.2869 179.517 78.2869C179.912 78.2869 180.237 78.1903 180.493 77.9972C180.751 77.8068 180.88 77.4872 180.88 77.0384V75.8409H180.804C180.724 76.0227 180.605 76.1946 180.446 76.3565C180.287 76.5185 180.082 76.6506 179.832 76.7528C179.582 76.8551 179.284 76.9062 178.937 76.9062C178.446 76.9062 177.998 76.7926 177.595 76.5653C177.194 76.3352 176.875 75.9844 176.636 75.5128C176.4 75.0384 176.282 74.4389 176.282 73.7145C176.282 72.973 176.403 72.3537 176.645 71.8565C176.886 71.3594 177.207 70.9872 177.608 70.7401C178.011 70.4929 178.453 70.3693 178.933 70.3693C179.299 70.3693 179.606 70.4318 179.853 70.5568C180.1 70.679 180.299 70.8324 180.45 71.017C180.603 71.1989 180.721 71.3778 180.804 71.554H180.872V70.4545H182.674V77.0639C182.674 77.6207 182.538 78.0866 182.265 78.4616C181.993 78.8366 181.615 79.1179 181.132 79.3054C180.652 79.4957 180.099 79.5909 179.474 79.5909ZM179.512 75.5426C179.805 75.5426 180.052 75.4702 180.254 75.3253C180.458 75.1776 180.615 74.9673 180.723 74.6946C180.833 74.419 180.889 74.0895 180.889 73.706C180.889 73.3224 180.835 72.9901 180.727 72.7088C180.619 72.4247 180.463 72.2045 180.258 72.0483C180.054 71.892 179.805 71.8139 179.512 71.8139C179.214 71.8139 178.963 71.8949 178.758 72.0568C178.554 72.2159 178.399 72.4375 178.294 72.7216C178.189 73.0057 178.136 73.3338 178.136 73.706C178.136 74.0838 178.189 74.4105 178.294 74.6861C178.402 74.9588 178.556 75.1705 178.758 75.321C178.963 75.4687 179.214 75.5426 179.512 75.5426ZM184.119 77V70.4545H185.879V71.5966H185.947C186.066 71.1903 186.267 70.8835 186.548 70.6761C186.829 70.4659 187.153 70.3608 187.52 70.3608C187.61 70.3608 187.708 70.3665 187.814 70.3778C187.919 70.3892 188.011 70.4048 188.091 70.4247V72.0355C188.005 72.0099 187.887 71.9872 187.737 71.9673C187.586 71.9474 187.449 71.9375 187.324 71.9375C187.056 71.9375 186.818 71.9957 186.608 72.1122C186.4 72.2259 186.235 72.3849 186.113 72.5895C185.994 72.794 185.934 73.0298 185.934 73.2969V77H184.119ZM191.707 77.1278C191.034 77.1278 190.455 76.9915 189.969 76.7188C189.486 76.4432 189.114 76.054 188.852 75.5511C188.591 75.0455 188.46 74.4474 188.46 73.7571C188.46 73.0838 188.591 72.4929 188.852 71.9844C189.114 71.4759 189.482 71.0795 189.956 70.7955C190.433 70.5114 190.993 70.3693 191.635 70.3693C192.067 70.3693 192.469 70.4389 192.841 70.5781C193.216 70.7145 193.543 70.9205 193.821 71.196C194.102 71.4716 194.321 71.8182 194.477 72.2358C194.634 72.6506 194.712 73.1364 194.712 73.6932V74.1918H189.185V73.0668H193.003C193.003 72.8054 192.946 72.5739 192.832 72.3722C192.719 72.1705 192.561 72.0128 192.359 71.8991C192.161 71.7827 191.929 71.7244 191.665 71.7244C191.389 71.7244 191.145 71.7884 190.932 71.9162C190.722 72.0412 190.557 72.2102 190.438 72.4233C190.318 72.6335 190.257 72.8679 190.254 73.1264V74.196C190.254 74.5199 190.314 74.7997 190.433 75.0355C190.555 75.2713 190.727 75.4531 190.949 75.581C191.17 75.7088 191.433 75.7727 191.737 75.7727C191.939 75.7727 192.124 75.7443 192.291 75.6875C192.459 75.6307 192.602 75.5455 192.722 75.4318C192.841 75.3182 192.932 75.179 192.994 75.0142L194.673 75.125C194.588 75.5284 194.413 75.8807 194.149 76.1818C193.888 76.4801 193.55 76.7131 193.135 76.8807C192.723 77.0455 192.247 77.1278 191.707 77.1278ZM198.879 77.1278C198.206 77.1278 197.626 76.9915 197.141 76.7188C196.658 76.4432 196.286 76.054 196.024 75.5511C195.763 75.0455 195.632 74.4474 195.632 73.7571C195.632 73.0838 195.763 72.4929 196.024 71.9844C196.286 71.4759 196.653 71.0795 197.128 70.7955C197.605 70.5114 198.165 70.3693 198.807 70.3693C199.239 70.3693 199.641 70.4389 200.013 70.5781C200.388 70.7145 200.714 70.9205 200.993 71.196C201.274 71.4716 201.493 71.8182 201.649 72.2358C201.805 72.6506 201.884 73.1364 201.884 73.6932V74.1918H196.357V73.0668H200.175C200.175 72.8054 200.118 72.5739 200.004 72.3722C199.891 72.1705 199.733 72.0128 199.531 71.8991C199.332 71.7827 199.101 71.7244 198.837 71.7244C198.561 71.7244 198.317 71.7884 198.104 71.9162C197.893 72.0412 197.729 72.2102 197.609 72.4233C197.49 72.6335 197.429 72.8679 197.426 73.1264V74.196C197.426 74.5199 197.486 74.7997 197.605 75.0355C197.727 75.2713 197.899 75.4531 198.121 75.581C198.342 75.7088 198.605 75.7727 198.909 75.7727C199.111 75.7727 199.295 75.7443 199.463 75.6875C199.631 75.6307 199.774 75.5455 199.893 75.4318C200.013 75.3182 200.104 75.179 200.166 75.0142L201.845 75.125C201.76 75.5284 201.585 75.8807 201.321 76.1818C201.06 76.4801 200.722 76.7131 200.307 76.8807C199.895 77.0455 199.419 77.1278 198.879 77.1278ZM208.514 72.321L206.852 72.4233C206.824 72.2812 206.763 72.1534 206.669 72.0398C206.575 71.9233 206.452 71.831 206.298 71.7628C206.148 71.6918 205.967 71.6562 205.757 71.6562C205.476 71.6562 205.239 71.7159 205.045 71.8352C204.852 71.9517 204.756 72.108 204.756 72.304C204.756 72.4602 204.818 72.5923 204.943 72.7003C205.068 72.8082 205.283 72.8949 205.587 72.9602L206.771 73.1989C207.408 73.3295 207.882 73.5398 208.195 73.8295C208.507 74.1193 208.663 74.5 208.663 74.9716C208.663 75.4006 208.537 75.777 208.284 76.1009C208.034 76.4247 207.69 76.6776 207.253 76.8594C206.818 77.0384 206.317 77.1278 205.749 77.1278C204.882 77.1278 204.192 76.9474 203.678 76.5866C203.166 76.223 202.866 75.7287 202.778 75.1037L204.564 75.0099C204.618 75.2741 204.749 75.4759 204.956 75.6151C205.163 75.7514 205.429 75.8196 205.753 75.8196C206.071 75.8196 206.327 75.7585 206.52 75.6364C206.716 75.5114 206.815 75.3509 206.818 75.1548C206.815 74.9901 206.746 74.8551 206.609 74.75C206.473 74.642 206.263 74.5597 205.979 74.5028L204.845 74.277C204.206 74.1491 203.73 73.9276 203.418 73.6122C203.108 73.2969 202.953 72.8949 202.953 72.4062C202.953 71.9858 203.067 71.6236 203.294 71.3196C203.524 71.0156 203.847 70.7812 204.261 70.6165C204.679 70.4517 205.168 70.3693 205.727 70.3693C206.554 70.3693 207.205 70.544 207.679 70.8935C208.156 71.2429 208.435 71.7187 208.514 72.321Z" fill="white"/>
</g>
</g>
</svg>
