<svg width="87" height="30" viewBox="0 0 87 30" fill="none" xmlns="http://www.w3.org/2000/svg">
<g id="variable">
<path id="bbox" opacity="0.01" d="M85.3033 1H1.69678V29H85.3033V1Z" fill="black"/>
<path id="border" d="M76.85 0H10.15C4.54431 0 0 4.70101 0 10.5V19.5C0 25.299 4.54431 30 10.15 30H76.85C82.4557 30 87 25.299 87 19.5V10.5C87 4.70101 82.4557 0 76.85 0Z" fill="white"/>
<path id="bodyStretch" d="M75.3167 2H11.6833C6.33538 2 2 6.07421 2 11.1V18.9C2 23.9258 6.33538 28 11.6833 28H75.3167C80.6646 28 85 23.9258 85 18.9V11.1C85 6.07421 80.6646 2 75.3167 2Z" fill="#E57C4F"/>
<path id="anchor:input-left" opacity="0.01" d="M0.696721 15.7C1.08151 15.7 1.39344 15.3866 1.39344 15C1.39344 14.6134 1.08151 14.3 0.696721 14.3C0.311933 14.3 0 14.6134 0 15C0 15.3866 0.311933 15.7 0.696721 15.7Z" fill="#D9D9D9"/>
<path id="anchor:input-right" opacity="0.01" d="M86.3032 15.7C86.688 15.7 86.9999 15.3866 86.9999 15C86.9999 14.6134 86.688 14.3 86.3032 14.3C85.9184 14.3 85.6064 14.6134 85.6064 15C85.6064 15.3866 85.9184 15.7 86.3032 15.7Z" fill="#D9D9D9"/>
</g>
</svg>
