<svg width="87" height="30" viewBox="0 0 87 30" fill="none" xmlns="http://www.w3.org/2000/svg">
<g id="variable">
<path id="bbox" opacity="0.01" d="M85.3033 1H1.69672V29H85.3033V1Z" fill="black"/>
<path id="border" d="M76.85 0H10.15C4.54431 0 0 4.70101 0 10.5V19.5C0 25.299 4.54431 30 10.15 30H76.85C82.4557 30 87 25.299 87 19.5V10.5C87 4.70101 82.4557 0 76.85 0Z" fill="white"/>
<path id="bodyStretch" d="M75.5492 1H11.4509C6.06384 1 1.69678 5.38761 1.69678 10.8V19.2C1.69678 24.6124 6.06384 29 11.4509 29H75.5492C80.9363 29 85.3033 24.6124 85.3033 19.2V10.8C85.3033 5.38761 80.9363 1 75.5492 1Z" fill="#E57C4F"/>
<path id="anchor:input-left" opacity="0.01" d="M1.69672 15.7C2.08151 15.7 2.39344 15.3866 2.39344 15C2.39344 14.6134 2.08151 14.3 1.69672 14.3C1.31193 14.3 1 14.6134 1 15C1 15.3866 1.31193 15.7 1.69672 15.7Z" fill="#D9D9D9"/>
<path id="anchor:input-right" opacity="0.01" d="M85.3033 15.7C85.6881 15.7 86 15.3866 86 15C86 14.6134 85.6881 14.3 85.3033 14.3C84.9185 14.3 84.6066 14.6134 84.6066 15C84.6066 15.3866 84.9185 15.7 85.3033 15.7Z" fill="#D9D9D9"/>
</g>
</svg>
