<svg width="158" height="49" viewBox="0 0 158 49" fill="none" xmlns="http://www.w3.org/2000/svg">
<g id="variable">
<path id="block_shape" d="M0 20.4167C0 9.14095 9.14054 0 20.4167 0H136.792C148.068 0 157.208 9.14095 157.208 20.4167V28.5833C157.208 39.8591 148.068 49 136.792 49H20.4167C9.14054 49 0 39.8591 0 28.5833V20.4167Z" fill="#E57C4F"/>
<path id="var_name" d="M44.7244 27V20.4545H46.4545V21.6094H46.5312C46.6676 21.2259 46.8949 20.9233 47.2131 20.7017C47.5312 20.4801 47.9119 20.3693 48.3551 20.3693C48.804 20.3693 49.1861 20.4815 49.5014 20.706C49.8168 20.9276 50.027 21.2287 50.1321 21.6094H50.2003C50.3338 21.2344 50.5753 20.9347 50.9247 20.7102C51.277 20.483 51.6932 20.3693 52.1733 20.3693C52.7841 20.3693 53.2798 20.5639 53.6605 20.9531C54.044 21.3395 54.2358 21.8878 54.2358 22.598V27H52.4247V22.956C52.4247 22.5923 52.3281 22.3196 52.1349 22.1378C51.9418 21.956 51.7003 21.8651 51.4105 21.8651C51.081 21.8651 50.8239 21.9702 50.6392 22.1804C50.4545 22.3878 50.3622 22.6619 50.3622 23.0028V27H48.6023V22.9176C48.6023 22.5966 48.5099 22.3409 48.3253 22.1506C48.1435 21.9602 47.9034 21.8651 47.6051 21.8651C47.4034 21.8651 47.2216 21.9162 47.0597 22.0185C46.9006 22.1179 46.7741 22.2585 46.6804 22.4403C46.5866 22.6193 46.5398 22.8295 46.5398 23.071V27H44.7244ZM56.5561 29.4545C56.326 29.4545 56.1101 29.4361 55.9084 29.3991C55.7095 29.3651 55.5447 29.321 55.4141 29.267L55.8232 27.9119C56.0362 27.9773 56.228 28.0128 56.3984 28.0185C56.5717 28.0241 56.7209 27.9844 56.8459 27.8991C56.9737 27.8139 57.0774 27.669 57.157 27.4645L57.2635 27.1875L54.9155 20.4545H56.8246L58.1797 25.2614H58.2479L59.6158 20.4545H61.5376L58.9936 27.7074C58.8714 28.0597 58.7053 28.3665 58.495 28.6278C58.2876 28.892 58.0249 29.0952 57.7067 29.2372C57.3885 29.3821 57.005 29.4545 56.5561 29.4545ZM71.3462 20.4545L69.0579 27H67.0124L64.7241 20.4545H66.6417L68.0011 25.1378H68.0692L69.4244 20.4545H71.3462ZM73.9659 27.1236C73.5483 27.1236 73.1761 27.0511 72.8494 26.9062C72.5227 26.7585 72.2642 26.5412 72.0739 26.2543C71.8864 25.9645 71.7926 25.6037 71.7926 25.1719C71.7926 24.8082 71.8594 24.5028 71.9929 24.2557C72.1264 24.0085 72.3082 23.8097 72.5384 23.6591C72.7685 23.5085 73.0298 23.3949 73.3224 23.3182C73.6179 23.2415 73.9276 23.1875 74.2514 23.1562C74.6321 23.1165 74.9389 23.0795 75.1719 23.0455C75.4048 23.0085 75.5739 22.9545 75.679 22.8835C75.7841 22.8125 75.8366 22.7074 75.8366 22.5682V22.5426C75.8366 22.2727 75.7514 22.0639 75.581 21.9162C75.4134 21.7685 75.1747 21.6946 74.8651 21.6946C74.5384 21.6946 74.2784 21.767 74.0852 21.9119C73.892 22.054 73.7642 22.233 73.7017 22.4489L72.0227 22.3125C72.108 21.9148 72.2756 21.571 72.5256 21.2812C72.7756 20.9886 73.098 20.7642 73.4929 20.608C73.8906 20.4489 74.3509 20.3693 74.8736 20.3693C75.2372 20.3693 75.5852 20.4119 75.9176 20.4972C76.2528 20.5824 76.5497 20.7145 76.8082 20.8935C77.0696 21.0724 77.2756 21.3026 77.4261 21.5838C77.5767 21.8622 77.652 22.196 77.652 22.5852V27H75.9304V26.0923H75.8793C75.7741 26.2969 75.6335 26.4773 75.4574 26.6335C75.2812 26.7869 75.0696 26.9077 74.8224 26.9957C74.5753 27.081 74.2898 27.1236 73.9659 27.1236ZM74.4858 25.8707C74.7528 25.8707 74.9886 25.8182 75.1932 25.7131C75.3977 25.6051 75.5582 25.4602 75.6747 25.2784C75.7912 25.0966 75.8494 24.8906 75.8494 24.6605V23.9659C75.7926 24.0028 75.7145 24.0369 75.6151 24.0682C75.5185 24.0966 75.4091 24.1236 75.2869 24.1491C75.1648 24.1719 75.0426 24.1932 74.9205 24.2131C74.7983 24.2301 74.6875 24.2457 74.5881 24.2599C74.375 24.2912 74.1889 24.3409 74.0298 24.4091C73.8707 24.4773 73.7472 24.5696 73.6591 24.6861C73.571 24.7997 73.527 24.9418 73.527 25.1122C73.527 25.3594 73.6165 25.5483 73.7955 25.679C73.9773 25.8068 74.2074 25.8707 74.4858 25.8707ZM79.0604 27V20.4545H80.8203V21.5966H80.8885C81.0078 21.1903 81.2081 20.8835 81.4893 20.6761C81.7706 20.4659 82.0945 20.3608 82.4609 20.3608C82.5518 20.3608 82.6499 20.3665 82.755 20.3778C82.8601 20.3892 82.9524 20.4048 83.032 20.4247V22.0355C82.9467 22.0099 82.8288 21.9872 82.6783 21.9673C82.5277 21.9474 82.3899 21.9375 82.2649 21.9375C81.9979 21.9375 81.7592 21.9957 81.549 22.1122C81.3416 22.2259 81.1768 22.3849 81.0547 22.5895C80.9354 22.794 80.8757 23.0298 80.8757 23.2969V27H79.0604ZM83.9705 27V20.4545H85.7859V27H83.9705ZM84.8825 19.6108C84.6126 19.6108 84.381 19.5213 84.1879 19.3423C83.9975 19.1605 83.9023 18.9432 83.9023 18.6903C83.9023 18.4403 83.9975 18.2259 84.1879 18.0469C84.381 17.8651 84.6126 17.7741 84.8825 17.7741C85.1523 17.7741 85.3825 17.8651 85.5728 18.0469C85.766 18.2259 85.8626 18.4403 85.8626 18.6903C85.8626 18.9432 85.766 19.1605 85.5728 19.3423C85.3825 19.5213 85.1523 19.6108 84.8825 19.6108ZM89.1065 27.1236C88.6889 27.1236 88.3168 27.0511 87.9901 26.9062C87.6634 26.7585 87.4048 26.5412 87.2145 26.2543C87.027 25.9645 86.9332 25.6037 86.9332 25.1719C86.9332 24.8082 87 24.5028 87.1335 24.2557C87.267 24.0085 87.4489 23.8097 87.679 23.6591C87.9091 23.5085 88.1705 23.3949 88.4631 23.3182C88.7585 23.2415 89.0682 23.1875 89.392 23.1562C89.7727 23.1165 90.0795 23.0795 90.3125 23.0455C90.5455 23.0085 90.7145 22.9545 90.8196 22.8835C90.9247 22.8125 90.9773 22.7074 90.9773 22.5682V22.5426C90.9773 22.2727 90.892 22.0639 90.7216 21.9162C90.554 21.7685 90.3153 21.6946 90.0057 21.6946C89.679 21.6946 89.419 21.767 89.2259 21.9119C89.0327 22.054 88.9048 22.233 88.8423 22.4489L87.1634 22.3125C87.2486 21.9148 87.4162 21.571 87.6662 21.2812C87.9162 20.9886 88.2386 20.7642 88.6335 20.608C89.0313 20.4489 89.4915 20.3693 90.0142 20.3693C90.3778 20.3693 90.7259 20.4119 91.0582 20.4972C91.3935 20.5824 91.6903 20.7145 91.9489 20.8935C92.2102 21.0724 92.4162 21.3026 92.5668 21.5838C92.7173 21.8622 92.7926 22.196 92.7926 22.5852V27H91.071V26.0923H91.0199C90.9148 26.2969 90.7741 26.4773 90.598 26.6335C90.4219 26.7869 90.2102 26.9077 89.9631 26.9957C89.7159 27.081 89.4304 27.1236 89.1065 27.1236ZM89.6264 25.8707C89.8935 25.8707 90.1293 25.8182 90.3338 25.7131C90.5384 25.6051 90.6989 25.4602 90.8153 25.2784C90.9318 25.0966 90.9901 24.8906 90.9901 24.6605V23.9659C90.9332 24.0028 90.8551 24.0369 90.7557 24.0682C90.6591 24.0966 90.5497 24.1236 90.4276 24.1491C90.3054 24.1719 90.1832 24.1932 90.0611 24.2131C89.9389 24.2301 89.8281 24.2457 89.7287 24.2599C89.5156 24.2912 89.3295 24.3409 89.1705 24.4091C89.0114 24.4773 88.8878 24.5696 88.7997 24.6861C88.7116 24.7997 88.6676 24.9418 88.6676 25.1122C88.6676 25.3594 88.7571 25.5483 88.9361 25.679C89.1179 25.8068 89.348 25.8707 89.6264 25.8707ZM94.2351 27V18.2727H96.0504V21.554H96.1058C96.1854 21.3778 96.3004 21.1989 96.451 21.017C96.6044 20.8324 96.8033 20.679 97.0476 20.5568C97.2947 20.4318 97.6016 20.3693 97.968 20.3693C98.4453 20.3693 98.8857 20.4943 99.2891 20.7443C99.6925 20.9915 100.015 21.3651 100.256 21.8651C100.498 22.3622 100.619 22.9858 100.619 23.7358C100.619 24.4659 100.501 25.0824 100.265 25.5852C100.032 26.0852 99.7138 26.4645 99.3104 26.723C98.9098 26.9787 98.4609 27.1065 97.9638 27.1065C97.6115 27.1065 97.3118 27.0483 97.0646 26.9318C96.8203 26.8153 96.62 26.669 96.4638 26.4929C96.3075 26.3139 96.1882 26.1335 96.1058 25.9517H96.0249V27H94.2351ZM96.0121 23.7273C96.0121 24.1165 96.0661 24.456 96.174 24.7457C96.282 25.0355 96.4382 25.2614 96.6428 25.4233C96.8473 25.5824 97.0959 25.6619 97.3885 25.6619C97.6839 25.6619 97.9339 25.581 98.1385 25.419C98.343 25.2543 98.4979 25.027 98.603 24.7372C98.7109 24.4446 98.7649 24.108 98.7649 23.7273C98.7649 23.3494 98.7124 23.017 98.6072 22.7301C98.5021 22.4432 98.3473 22.2187 98.1428 22.0568C97.9382 21.8949 97.6868 21.8139 97.3885 21.8139C97.093 21.8139 96.843 21.892 96.6385 22.0483C96.4368 22.2045 96.282 22.4261 96.174 22.7131C96.0661 23 96.0121 23.3381 96.0121 23.7273ZM103.645 18.2727V27H101.83V18.2727H103.645ZM108.082 27.1278C107.409 27.1278 106.83 26.9915 106.344 26.7188C105.861 26.4432 105.489 26.054 105.227 25.5511C104.966 25.0455 104.835 24.4474 104.835 23.7571C104.835 23.0838 104.966 22.4929 105.227 21.9844C105.489 21.4759 105.857 21.0795 106.331 20.7955C106.808 20.5114 107.368 20.3693 108.01 20.3693C108.442 20.3693 108.844 20.4389 109.216 20.5781C109.591 20.7145 109.918 20.9205 110.196 21.196C110.477 21.4716 110.696 21.8182 110.852 22.2358C111.009 22.6506 111.087 23.1364 111.087 23.6932V24.1918H105.56V23.0668H109.378C109.378 22.8054 109.321 22.5739 109.207 22.3722C109.094 22.1705 108.936 22.0128 108.734 21.8991C108.536 21.7827 108.304 21.7244 108.04 21.7244C107.764 21.7244 107.52 21.7884 107.307 21.9162C107.097 22.0412 106.932 22.2102 106.812 22.4233C106.693 22.6335 106.632 22.8679 106.629 23.1264V24.196C106.629 24.5199 106.689 24.7997 106.808 25.0355C106.93 25.2713 107.102 25.4531 107.324 25.581C107.545 25.7088 107.808 25.7727 108.112 25.7727C108.314 25.7727 108.499 25.7443 108.666 25.6875C108.834 25.6307 108.977 25.5455 109.097 25.4318C109.216 25.3182 109.307 25.179 109.369 25.0142L111.048 25.125C110.963 25.5284 110.788 25.8807 110.524 26.1818C110.263 26.4801 109.925 26.7131 109.51 26.8807C109.098 27.0455 108.622 27.1278 108.082 27.1278Z" fill="white"/>
</g>
</svg>
