<svg width="248" height="149" viewBox="0 0 248 149" fill="none" xmlns="http://www.w3.org/2000/svg">
<g id="wait_menu">
<path id="anchor:next" opacity="0.01" d="M123 141C123.552 141 124 140.552 124 140C124 139.448 123.552 139 123 139C122.448 139 122 139.448 122 140C122 140.552 122.448 141 123 141Z" fill="#D9D9D9"/>
<g id="arrowHead">
<g id="border">
<path id="Vector" d="M123 140L148 115H98L123 140Z" fill="white"/>
<path id="Vector_2" d="M123 135L143 115H103L123 135Z" fill="white"/>
</g>
<g id="tip">
<path id="Vector_3" d="M123 135L143 115H103L123 135Z" fill="#F0B43B"/>
<path id="Vector_4" d="M123 131L139 115H107L123 131Z" fill="#F0B43B"/>
</g>
<path id="shaft" d="M135.048 93H113.048V115H135.048V93Z" fill="#F0B43B"/>
</g>
<path id="block_body" d="M238 34H10V93H238V34Z" fill="#F0B43B"/>
<path id="text" d="M24.5195 71L22.293 62.8182H24.5888L25.8565 68.3153H25.9311L27.2521 62.8182H29.5053L30.8477 68.2834H30.9169L32.1634 62.8182H34.4538L32.2326 71H29.8303L28.424 65.8544H28.3228L26.9165 71H24.5195ZM37.9974 71.1545C37.4754 71.1545 37.0102 71.0639 36.6018 70.8828C36.1934 70.6982 35.8703 70.4265 35.6324 70.0678C35.398 69.7056 35.2808 69.2546 35.2808 68.7148C35.2808 68.2603 35.3643 67.8786 35.5312 67.5696C35.6981 67.2607 35.9253 67.0121 36.213 66.8239C36.5006 66.6357 36.8273 66.4936 37.1931 66.3977C37.5624 66.3018 37.9495 66.2344 38.3543 66.1953C38.8302 66.1456 39.2137 66.0994 39.5049 66.0568C39.7961 66.0107 40.0074 65.9432 40.1388 65.8544C40.2702 65.7656 40.3358 65.6342 40.3358 65.4602V65.4283C40.3358 65.0909 40.2293 64.8299 40.0162 64.6452C39.8067 64.4606 39.5084 64.3683 39.1214 64.3683C38.713 64.3683 38.3881 64.4588 38.1466 64.6399C37.9051 64.8175 37.7453 65.0412 37.6672 65.3111L35.5684 65.1406C35.675 64.6435 35.8845 64.2138 36.197 63.8516C36.5095 63.4858 36.9126 63.2053 37.4062 63.0099C37.9033 62.8111 38.4786 62.7116 39.132 62.7116C39.5866 62.7116 40.0216 62.7649 40.4371 62.8714C40.8561 62.978 41.2272 63.1431 41.5503 63.3668C41.877 63.5906 42.1345 63.8782 42.3227 64.2298C42.5109 64.5778 42.605 64.995 42.605 65.4815V71H40.453V69.8654H40.3891C40.2577 70.1211 40.0819 70.3466 39.8618 70.5419C39.6416 70.7337 39.377 70.8846 39.0681 70.9947C38.7591 71.1012 38.4023 71.1545 37.9974 71.1545ZM38.6473 69.5884C38.9811 69.5884 39.2758 69.5227 39.5315 69.3913C39.7872 69.2564 39.9878 69.0753 40.1334 68.848C40.279 68.6207 40.3518 68.3633 40.3518 68.0756V67.2074C40.2808 67.2536 40.1832 67.2962 40.0589 67.3352C39.9381 67.3707 39.8014 67.4045 39.6487 67.4364C39.496 67.4648 39.3433 67.4915 39.1906 67.5163C39.0379 67.5376 38.8994 67.5572 38.7751 67.5749C38.5088 67.614 38.2762 67.6761 38.0773 67.7614C37.8785 67.8466 37.724 67.962 37.6139 68.1076C37.5038 68.2496 37.4488 68.4272 37.4488 68.6403C37.4488 68.9492 37.5606 69.1854 37.7844 69.3487C38.0116 69.5085 38.2993 69.5884 38.6473 69.5884ZM44.3655 71V62.8182H46.6347V71H44.3655ZM45.5054 61.7635C45.1681 61.7635 44.8786 61.6516 44.6372 61.4279C44.3992 61.2006 44.2803 60.929 44.2803 60.6129C44.2803 60.3004 44.3992 60.0323 44.6372 59.8086C44.8786 59.5813 45.1681 59.4677 45.5054 59.4677C45.8428 59.4677 46.1304 59.5813 46.3683 59.8086C46.6098 60.0323 46.7306 60.3004 46.7306 60.6129C46.7306 60.929 46.6098 61.2006 46.3683 61.4279C46.1304 61.6516 45.8428 61.7635 45.5054 61.7635ZM52.8043 62.8182V64.5227H47.8771V62.8182H52.8043ZM48.9957 60.858H51.2649V68.4858C51.2649 68.6953 51.2969 68.8587 51.3608 68.9759C51.4247 69.0895 51.5135 69.1694 51.6271 69.2156C51.7443 69.2617 51.8793 69.2848 52.032 69.2848C52.1385 69.2848 52.245 69.2759 52.3516 69.2582C52.4581 69.2369 52.5398 69.2209 52.5966 69.2102L52.9535 70.8988C52.8398 70.9343 52.68 70.9751 52.4741 71.0213C52.2681 71.071 52.0178 71.1012 51.723 71.1119C51.1761 71.1332 50.6967 71.0604 50.2848 70.8935C49.8764 70.7266 49.5586 70.4673 49.3313 70.1158C49.104 69.7642 48.9922 69.3203 48.9957 68.7841V60.858ZM62.154 62.8182V64.5227H57.1043V62.8182H62.154ZM58.2602 71V62.2269C58.2602 61.6339 58.3756 61.142 58.6064 60.7514C58.8408 60.3608 59.1604 60.0678 59.5653 59.8725C59.9701 59.6772 60.43 59.5795 60.9449 59.5795C61.2929 59.5795 61.6107 59.6062 61.8983 59.6594C62.1895 59.7127 62.4062 59.7607 62.5482 59.8033L62.1434 61.5078C62.0546 61.4794 61.9445 61.4528 61.8131 61.4279C61.6853 61.4031 61.5539 61.3906 61.4189 61.3906C61.0851 61.3906 60.8525 61.4688 60.7211 61.625C60.5898 61.7777 60.5241 61.9925 60.5241 62.2695V71H58.2602ZM66.9441 71.1598C66.1167 71.1598 65.4011 70.984 64.7974 70.6325C64.1973 70.2773 63.7338 69.7837 63.4071 69.1516C63.0804 68.516 62.9171 67.7791 62.9171 66.9411C62.9171 66.0959 63.0804 65.3572 63.4071 64.7251C63.7338 64.0895 64.1973 63.5959 64.7974 63.2443C65.4011 62.8892 66.1167 62.7116 66.9441 62.7116C67.7715 62.7116 68.4853 62.8892 69.0854 63.2443C69.6891 63.5959 70.1543 64.0895 70.481 64.7251C70.8077 65.3572 70.9711 66.0959 70.9711 66.9411C70.9711 67.7791 70.8077 68.516 70.481 69.1516C70.1543 69.7837 69.6891 70.2773 69.0854 70.6325C68.4853 70.984 67.7715 71.1598 66.9441 71.1598ZM66.9547 69.402C67.3311 69.402 67.6454 69.2955 67.8975 69.0824C68.1497 68.8658 68.3397 68.571 68.4675 68.1982C68.5989 67.8253 68.6646 67.4009 68.6646 66.9251C68.6646 66.4492 68.5989 66.0249 68.4675 65.652C68.3397 65.2791 68.1497 64.9844 67.8975 64.7678C67.6454 64.5511 67.3311 64.4428 66.9547 64.4428C66.5748 64.4428 66.2551 64.5511 65.9959 64.7678C65.7402 64.9844 65.5467 65.2791 65.4153 65.652C65.2875 66.0249 65.2235 66.4492 65.2235 66.9251C65.2235 67.4009 65.2875 67.8253 65.4153 68.1982C65.5467 68.571 65.7402 68.8658 65.9959 69.0824C66.2551 69.2955 66.5748 69.402 66.9547 69.402ZM72.4466 71V62.8182H74.6465V64.2457H74.7317C74.8809 63.7379 75.1312 63.3544 75.4828 63.0952C75.8343 62.8324 76.2392 62.701 76.6973 62.701C76.8109 62.701 76.9334 62.7081 77.0648 62.7223C77.1962 62.7365 77.3116 62.756 77.411 62.7809V64.7944C77.3045 64.7624 77.1571 64.734 76.9689 64.7092C76.7807 64.6843 76.6085 64.6719 76.4522 64.6719C76.1184 64.6719 75.8201 64.7447 75.5574 64.8903C75.2981 65.0323 75.0922 65.2312 74.9395 65.4869C74.7903 65.7425 74.7157 66.0373 74.7157 66.3711V71H72.4466Z" fill="white"/>
<g id="input:value">
<rect id="box" x="83" y="52" width="75" height="24" rx="10" fill="white"/>
<path id="anchor-input:value-right" opacity="0.01" d="M158 64C158.552 64 159 63.5523 159 63C159 62.4477 158.552 62 158 62C157.448 62 157 62.4477 157 63C157 63.5523 157.448 64 158 64Z" fill="#D9D9D9"/>
<path id="anchor-input:value-left" opacity="0.01" d="M83 64C83.5523 64 84 63.5523 84 63C84 62.4477 83.5523 62 83 62C82.4477 62 82 62.4477 82 63C82 63.5523 82.4477 64 83 64Z" fill="white"/>
</g>
<path id="text_2" d="M173.713 65.1513L171.636 65.2791C171.6 65.1016 171.524 64.9418 171.407 64.7997C171.289 64.6541 171.135 64.5387 170.943 64.4535C170.755 64.3647 170.529 64.3203 170.267 64.3203C169.915 64.3203 169.619 64.3949 169.377 64.544C169.136 64.6896 169.015 64.8849 169.015 65.13C169.015 65.3253 169.093 65.4904 169.249 65.6254C169.406 65.7603 169.674 65.8686 170.054 65.9503L171.534 66.2486C172.33 66.4119 172.923 66.6747 173.314 67.0369C173.704 67.3991 173.9 67.875 173.9 68.4645C173.9 69.0007 173.741 69.4712 173.425 69.8761C173.113 70.2809 172.683 70.5969 172.136 70.8242C171.593 71.0479 170.966 71.1598 170.256 71.1598C169.173 71.1598 168.31 70.9343 167.667 70.4833C167.028 70.0288 166.653 69.4109 166.543 68.6296L168.775 68.5124C168.843 68.8427 169.006 69.0948 169.265 69.2688C169.525 69.4393 169.857 69.5245 170.261 69.5245C170.659 69.5245 170.979 69.4482 171.22 69.2955C171.465 69.1392 171.589 68.9386 171.593 68.6935C171.589 68.4876 171.502 68.3189 171.332 68.1875C171.162 68.0526 170.899 67.9496 170.544 67.8786L169.127 67.5962C168.328 67.4364 167.733 67.1594 167.342 66.7653C166.955 66.3711 166.762 65.8686 166.762 65.2578C166.762 64.7322 166.904 64.2795 167.188 63.8995C167.475 63.5195 167.879 63.2266 168.397 63.0206C168.919 62.8146 169.53 62.7116 170.229 62.7116C171.263 62.7116 172.076 62.93 172.669 63.3668C173.266 63.8036 173.614 64.3984 173.713 65.1513ZM179.057 71.1598C178.215 71.1598 177.491 70.9893 176.884 70.6484C176.28 70.304 175.815 69.8175 175.488 69.1889C175.161 68.5568 174.998 67.8093 174.998 66.9464C174.998 66.1048 175.161 65.3661 175.488 64.7305C175.815 64.0948 176.275 63.5994 176.868 63.2443C177.464 62.8892 178.164 62.7116 178.967 62.7116C179.506 62.7116 180.009 62.7987 180.474 62.9727C180.943 63.1431 181.351 63.4006 181.699 63.745C182.051 64.0895 182.324 64.5227 182.519 65.0447C182.715 65.5632 182.812 66.1705 182.812 66.8665V67.4897H175.904V66.0835H180.676C180.676 65.7567 180.605 65.4673 180.463 65.2152C180.321 64.9631 180.124 64.766 179.872 64.6239C179.623 64.4783 179.334 64.4055 179.004 64.4055C178.659 64.4055 178.354 64.4854 178.088 64.6452C177.825 64.8015 177.619 65.0128 177.47 65.2791C177.321 65.5419 177.244 65.8349 177.241 66.158V67.495C177.241 67.8999 177.315 68.2496 177.464 68.5444C177.617 68.8391 177.832 69.0664 178.109 69.2262C178.386 69.386 178.714 69.4659 179.094 69.4659C179.347 69.4659 179.577 69.4304 179.787 69.3594C179.996 69.2884 180.176 69.1818 180.325 69.0398C180.474 68.8977 180.588 68.7237 180.666 68.5178L182.764 68.6562C182.658 69.1605 182.44 69.6009 182.109 69.9773C181.783 70.3501 181.36 70.6413 180.842 70.8509C180.327 71.0568 179.732 71.1598 179.057 71.1598ZM187.99 71.1598C187.152 71.1598 186.431 70.9822 185.827 70.6271C185.227 70.2685 184.766 69.7713 184.442 69.1357C184.123 68.5 183.963 67.7685 183.963 66.9411C183.963 66.103 184.125 65.3679 184.448 64.7358C184.774 64.1001 185.238 63.6048 185.838 63.2496C186.438 62.891 187.152 62.7116 187.979 62.7116C188.693 62.7116 189.318 62.8413 189.854 63.1005C190.391 63.3597 190.815 63.7237 191.127 64.1925C191.44 64.6612 191.612 65.2116 191.644 65.8438H189.503C189.442 65.4354 189.283 65.1069 189.023 64.8583C188.768 64.6062 188.432 64.4801 188.017 64.4801C187.665 64.4801 187.358 64.576 187.095 64.7678C186.836 64.956 186.633 65.2312 186.488 65.5934C186.342 65.9556 186.269 66.3942 186.269 66.9091C186.269 67.4311 186.34 67.875 186.483 68.2408C186.628 68.6065 186.832 68.8853 187.095 69.0771C187.358 69.2688 187.665 69.3647 188.017 69.3647C188.276 69.3647 188.508 69.3114 188.714 69.2049C188.924 69.0984 189.096 68.9439 189.231 68.7415C189.37 68.5355 189.46 68.2887 189.503 68.0011H191.644C191.609 68.6261 191.438 69.1765 191.133 69.6523C190.831 70.1246 190.414 70.494 189.881 70.7603C189.348 71.0266 188.718 71.1598 187.99 71.1598ZM196.794 71.1598C195.966 71.1598 195.251 70.984 194.647 70.6325C194.047 70.2773 193.583 69.7837 193.257 69.1516C192.93 68.516 192.767 67.7791 192.767 66.9411C192.767 66.0959 192.93 65.3572 193.257 64.7251C193.583 64.0895 194.047 63.5959 194.647 63.2443C195.251 62.8892 195.966 62.7116 196.794 62.7116C197.621 62.7116 198.335 62.8892 198.935 63.2443C199.539 63.5959 200.004 64.0895 200.331 64.7251C200.657 65.3572 200.821 66.0959 200.821 66.9411C200.821 67.7791 200.657 68.516 200.331 69.1516C200.004 69.7837 199.539 70.2773 198.935 70.6325C198.335 70.984 197.621 71.1598 196.794 71.1598ZM196.804 69.402C197.181 69.402 197.495 69.2955 197.747 69.0824C197.999 68.8658 198.189 68.571 198.317 68.1982C198.449 67.8253 198.514 67.4009 198.514 66.9251C198.514 66.4492 198.449 66.0249 198.317 65.652C198.189 65.2791 197.999 64.9844 197.747 64.7678C197.495 64.5511 197.181 64.4428 196.804 64.4428C196.424 64.4428 196.105 64.5511 195.846 64.7678C195.59 64.9844 195.396 65.2791 195.265 65.652C195.137 66.0249 195.073 66.4492 195.073 66.9251C195.073 67.4009 195.137 67.8253 195.265 68.1982C195.396 68.571 195.59 68.8658 195.846 69.0824C196.105 69.2955 196.424 69.402 196.804 69.402ZM204.565 66.2699V71H202.296V62.8182H204.459V64.2617H204.555C204.736 63.7859 205.039 63.4094 205.466 63.1325C205.892 62.8519 206.408 62.7116 207.016 62.7116C207.584 62.7116 208.079 62.8359 208.502 63.0845C208.924 63.3331 209.253 63.6882 209.487 64.1499C209.722 64.608 209.839 65.1548 209.839 65.7905V71H207.57V66.1953C207.573 65.6946 207.445 65.304 207.186 65.0234C206.927 64.7393 206.57 64.5973 206.115 64.5973C205.81 64.5973 205.54 64.663 205.306 64.7944C205.075 64.9258 204.894 65.1175 204.762 65.3697C204.635 65.6183 204.569 65.9183 204.565 66.2699ZM214.642 71.1332C214.021 71.1332 213.458 70.9734 212.954 70.6538C212.453 70.3306 212.055 69.8565 211.76 69.2315C211.469 68.603 211.324 67.8324 211.324 66.9197C211.324 65.9822 211.475 65.2028 211.776 64.5813C212.078 63.9563 212.479 63.4893 212.98 63.1804C213.484 62.8679 214.037 62.7116 214.637 62.7116C215.095 62.7116 215.477 62.7898 215.782 62.946C216.091 63.0987 216.34 63.2905 216.528 63.5213C216.72 63.7486 216.865 63.9723 216.965 64.1925H217.034V60.0909H219.298V71H217.06V69.6896H216.965C216.858 69.9169 216.707 70.1424 216.512 70.3661C216.32 70.5863 216.07 70.7692 215.761 70.9148C215.455 71.0604 215.082 71.1332 214.642 71.1332ZM215.361 69.3274C215.727 69.3274 216.036 69.228 216.288 69.0291C216.544 68.8267 216.739 68.5444 216.874 68.1822C217.013 67.82 217.082 67.3956 217.082 66.9091C217.082 66.4226 217.014 66 216.879 65.6413C216.744 65.2827 216.549 65.0057 216.293 64.8104C216.038 64.6151 215.727 64.5174 215.361 64.5174C214.988 64.5174 214.674 64.6186 214.418 64.821C214.163 65.0234 213.969 65.304 213.838 65.6626C213.706 66.0213 213.641 66.4368 213.641 66.9091C213.641 67.3849 213.706 67.8058 213.838 68.1715C213.973 68.5337 214.166 68.8178 214.418 69.0238C214.674 69.2262 214.988 69.3274 215.361 69.3274ZM227.971 65.1513L225.893 65.2791C225.858 65.1016 225.782 64.9418 225.664 64.7997C225.547 64.6541 225.393 64.5387 225.201 64.4535C225.013 64.3647 224.787 64.3203 224.525 64.3203C224.173 64.3203 223.876 64.3949 223.635 64.544C223.393 64.6896 223.273 64.8849 223.273 65.13C223.273 65.3253 223.351 65.4904 223.507 65.6254C223.663 65.7603 223.931 65.8686 224.311 65.9503L225.792 66.2486C226.588 66.4119 227.181 66.6747 227.571 67.0369C227.962 67.3991 228.157 67.875 228.157 68.4645C228.157 69.0007 227.999 69.4712 227.683 69.8761C227.371 70.2809 226.941 70.5969 226.394 70.8242C225.851 71.0479 225.224 71.1598 224.514 71.1598C223.431 71.1598 222.568 70.9343 221.925 70.4833C221.286 70.0288 220.911 69.4109 220.801 68.6296L223.033 68.5124C223.1 68.8427 223.264 69.0948 223.523 69.2688C223.782 69.4393 224.114 69.5245 224.519 69.5245C224.917 69.5245 225.237 69.4482 225.478 69.2955C225.723 69.1392 225.847 68.9386 225.851 68.6935C225.847 68.4876 225.76 68.3189 225.59 68.1875C225.419 68.0526 225.157 67.9496 224.801 67.8786L223.385 67.5962C222.586 67.4364 221.991 67.1594 221.6 66.7653C221.213 66.3711 221.02 65.8686 221.02 65.2578C221.02 64.7322 221.162 64.2795 221.446 63.8995C221.733 63.5195 222.136 63.2266 222.655 63.0206C223.177 62.8146 223.788 62.7116 224.487 62.7116C225.521 62.7116 226.334 62.93 226.927 63.3668C227.523 63.8036 227.871 64.3984 227.971 65.1513Z" fill="white"/>
<g id="capTop">
<path id="anchor:prev" opacity="0.01" d="M123 35C123.552 35 124 34.5523 124 34C124 33.4477 123.552 33 123 33C122.448 33 122 33.4477 122 34C122 34.5523 122.448 35 123 35Z" fill="#D9D9D9"/>
<path id="Vector_5" d="M123 34H98V9L123 34Z" fill="#F0B43B"/>
<path id="Vector_6" d="M148 34H123L148 9V34Z" fill="#F0B43B"/>
<path id="stripe" d="M148 14L123 39L98 14V9L123 34L148 9V14Z" fill="white"/>
</g>
</g>
</svg>
