<svg width="228" height="155" viewBox="0 0 228 155" fill="none" xmlns="http://www.w3.org/2000/svg">
<g id="wait">
<g id="block_shape">
<g id="false_block_arrow">
<path id="false_block_arrowbody" d="M125 93H103V120H125V93Z" fill="#F0B43B"/>
<path id="false_block_arrowhead" d="M113.548 154.5L139.096 120H88L113.548 154.5Z" fill="#F0B43B"/>
</g>
<g id="main_block">
<g id="prev_block_connector">
<path id="Vector" d="M113.5 34H88V0H88.3223L113.5 34Z" fill="#F0B43B"/>
<path id="Vector_2" d="M139 34H113.5L138.678 0H139V34Z" fill="#F0B43B"/>
</g>
<rect id="block_body" y="34" width="228" height="59" fill="#F0B43B"/>
</g>
</g>
<g id="block_input">
<path id="seconds" d="M138.17 64.321L136.509 64.4233C136.48 64.2812 136.419 64.1534 136.325 64.0398C136.232 63.9233 136.108 63.831 135.955 63.7628C135.804 63.6918 135.624 63.6562 135.413 63.6562C135.132 63.6562 134.895 63.7159 134.702 63.8352C134.509 63.9517 134.412 64.108 134.412 64.304C134.412 64.4602 134.474 64.5923 134.599 64.7003C134.724 64.8082 134.939 64.8949 135.243 64.9602L136.428 65.1989C137.064 65.3295 137.538 65.5398 137.851 65.8295C138.163 66.1193 138.32 66.5 138.32 66.9716C138.32 67.4006 138.193 67.777 137.94 68.1009C137.69 68.4247 137.347 68.6776 136.909 68.8594C136.474 69.0384 135.973 69.1278 135.405 69.1278C134.538 69.1278 133.848 68.9474 133.334 68.5866C132.822 68.223 132.523 67.7287 132.435 67.1037L134.22 67.0099C134.274 67.2741 134.405 67.4759 134.612 67.6151C134.82 67.7514 135.085 67.8196 135.409 67.8196C135.727 67.8196 135.983 67.7585 136.176 67.6364C136.372 67.5114 136.472 67.3509 136.474 67.1548C136.472 66.9901 136.402 66.8551 136.266 66.75C136.129 66.642 135.919 66.5597 135.635 66.5028L134.501 66.277C133.862 66.1491 133.386 65.9276 133.074 65.6122C132.764 65.2969 132.609 64.8949 132.609 64.4062C132.609 63.9858 132.723 63.6236 132.95 63.3196C133.18 63.0156 133.503 62.7812 133.918 62.6165C134.335 62.4517 134.824 62.3693 135.384 62.3693C136.21 62.3693 136.861 62.544 137.335 62.8935C137.813 63.2429 138.091 63.7187 138.17 64.321ZM142.446 69.1278C141.772 69.1278 141.193 68.9915 140.707 68.7188C140.224 68.4432 139.852 68.054 139.591 67.5511C139.329 67.0455 139.199 66.4474 139.199 65.7571C139.199 65.0838 139.329 64.4929 139.591 63.9844C139.852 63.4759 140.22 63.0795 140.694 62.7955C141.172 62.5114 141.731 62.3693 142.373 62.3693C142.805 62.3693 143.207 62.4389 143.579 62.5781C143.954 62.7145 144.281 62.9205 144.559 63.196C144.841 63.4716 145.059 63.8182 145.216 64.2358C145.372 64.6506 145.45 65.1364 145.45 65.6932V66.1918H139.923V65.0668H143.741C143.741 64.8054 143.684 64.5739 143.571 64.3722C143.457 64.1705 143.299 64.0128 143.098 63.8991C142.899 63.7827 142.667 63.7244 142.403 63.7244C142.127 63.7244 141.883 63.7884 141.67 63.9162C141.46 64.0412 141.295 64.2102 141.176 64.4233C141.056 64.6335 140.995 64.8679 140.993 65.1264V66.196C140.993 66.5199 141.052 66.7997 141.172 67.0355C141.294 67.2713 141.466 67.4531 141.687 67.581C141.909 67.7088 142.172 67.7727 142.475 67.7727C142.677 67.7727 142.862 67.7443 143.029 67.6875C143.197 67.6307 143.341 67.5455 143.46 67.4318C143.579 67.3182 143.67 67.179 143.733 67.0142L145.412 67.125C145.326 67.5284 145.152 67.8807 144.887 68.1818C144.626 68.4801 144.288 68.7131 143.873 68.8807C143.461 69.0455 142.985 69.1278 142.446 69.1278ZM149.592 69.1278C148.922 69.1278 148.345 68.9858 147.862 68.7017C147.382 68.4148 147.012 68.017 146.754 67.5085C146.498 67 146.37 66.4148 146.37 65.7528C146.37 65.0824 146.5 64.4943 146.758 63.9886C147.02 63.4801 147.39 63.0838 147.87 62.7997C148.35 62.5128 148.922 62.3693 149.583 62.3693C150.154 62.3693 150.654 62.473 151.083 62.6804C151.512 62.8878 151.852 63.179 152.102 63.554C152.352 63.929 152.49 64.3693 152.515 64.875H150.802C150.754 64.5483 150.626 64.2855 150.419 64.0866C150.214 63.8849 149.946 63.7841 149.613 63.7841C149.332 63.7841 149.086 63.8608 148.876 64.0142C148.669 64.1648 148.507 64.3849 148.39 64.6747C148.274 64.9645 148.216 65.3153 148.216 65.7273C148.216 66.1449 148.272 66.5 148.386 66.7926C148.502 67.0852 148.666 67.3082 148.876 67.4616C149.086 67.6151 149.332 67.6918 149.613 67.6918C149.821 67.6918 150.007 67.6491 150.172 67.5639C150.339 67.4787 150.477 67.3551 150.585 67.1932C150.696 67.0284 150.768 66.831 150.802 66.6009H152.515C152.487 67.1009 152.35 67.5412 152.106 67.9219C151.865 68.2997 151.531 68.5952 151.105 68.8082C150.679 69.0213 150.174 69.1278 149.592 69.1278ZM156.635 69.1278C155.973 69.1278 155.401 68.9872 154.918 68.706C154.438 68.4219 154.067 68.027 153.805 67.5213C153.544 67.0128 153.413 66.4233 153.413 65.7528C153.413 65.0767 153.544 64.4858 153.805 63.9801C154.067 63.4716 154.438 63.0767 154.918 62.7955C155.401 62.5114 155.973 62.3693 156.635 62.3693C157.297 62.3693 157.868 62.5114 158.348 62.7955C158.831 63.0767 159.203 63.4716 159.464 63.9801C159.726 64.4858 159.857 65.0767 159.857 65.7528C159.857 66.4233 159.726 67.0128 159.464 67.5213C159.203 68.027 158.831 68.4219 158.348 68.706C157.868 68.9872 157.297 69.1278 156.635 69.1278ZM156.643 67.7216C156.945 67.7216 157.196 67.6364 157.398 67.4659C157.599 67.2926 157.751 67.0568 157.854 66.7585C157.959 66.4602 158.011 66.1207 158.011 65.7401C158.011 65.3594 157.959 65.0199 157.854 64.7216C157.751 64.4233 157.599 64.1875 157.398 64.0142C157.196 63.8409 156.945 63.7543 156.643 63.7543C156.339 63.7543 156.084 63.8409 155.876 64.0142C155.672 64.1875 155.517 64.4233 155.412 64.7216C155.31 65.0199 155.259 65.3594 155.259 65.7401C155.259 66.1207 155.31 66.4602 155.412 66.7585C155.517 67.0568 155.672 67.2926 155.876 67.4659C156.084 67.6364 156.339 67.7216 156.643 67.7216ZM162.852 65.2159V69H161.037V62.4545H162.767V63.6094H162.844C162.989 63.2287 163.232 62.9276 163.572 62.706C163.913 62.4815 164.327 62.3693 164.812 62.3693C165.267 62.3693 165.663 62.4688 166.001 62.6676C166.339 62.8665 166.602 63.1506 166.79 63.5199C166.977 63.8864 167.071 64.3239 167.071 64.8324V69H165.256V65.1562C165.259 64.7557 165.156 64.4432 164.949 64.2188C164.741 63.9915 164.456 63.8778 164.092 63.8778C163.848 63.8778 163.632 63.9304 163.445 64.0355C163.26 64.1406 163.115 64.294 163.01 64.4957C162.908 64.6946 162.855 64.9347 162.852 65.2159ZM170.914 69.1065C170.417 69.1065 169.966 68.9787 169.563 68.723C169.162 68.4645 168.844 68.0852 168.608 67.5852C168.375 67.0824 168.259 66.4659 168.259 65.7358C168.259 64.9858 168.38 64.3622 168.621 63.8651C168.863 63.3651 169.184 62.9915 169.584 62.7443C169.988 62.4943 170.429 62.3693 170.909 62.3693C171.276 62.3693 171.581 62.4318 171.826 62.5568C172.073 62.679 172.272 62.8324 172.422 63.017C172.576 63.1989 172.692 63.3778 172.772 63.554H172.827V60.2727H174.638V69H172.848V67.9517H172.772C172.686 68.1335 172.566 68.3139 172.409 68.4929C172.256 68.669 172.056 68.8153 171.809 68.9318C171.564 69.0483 171.266 69.1065 170.914 69.1065ZM171.489 67.6619C171.782 67.6619 172.029 67.5824 172.23 67.4233C172.435 67.2614 172.591 67.0355 172.699 66.7457C172.81 66.456 172.865 66.1165 172.865 65.7273C172.865 65.3381 172.811 65 172.703 64.7131C172.596 64.4261 172.439 64.2045 172.235 64.0483C172.03 63.892 171.782 63.8139 171.489 63.8139C171.191 63.8139 170.939 63.8949 170.735 64.0568C170.53 64.2187 170.375 64.4432 170.27 64.7301C170.165 65.017 170.113 65.3494 170.113 65.7273C170.113 66.108 170.165 66.4446 170.27 66.7372C170.378 67.027 170.533 67.2543 170.735 67.419C170.939 67.581 171.191 67.6619 171.489 67.6619ZM181.577 64.321L179.915 64.4233C179.886 64.2812 179.825 64.1534 179.732 64.0398C179.638 63.9233 179.514 63.831 179.361 63.7628C179.21 63.6918 179.03 63.6562 178.82 63.6562C178.538 63.6562 178.301 63.7159 178.108 63.8352C177.915 63.9517 177.818 64.108 177.818 64.304C177.818 64.4602 177.881 64.5923 178.006 64.7003C178.131 64.8082 178.345 64.8949 178.649 64.9602L179.834 65.1989C180.47 65.3295 180.945 65.5398 181.257 65.8295C181.57 66.1193 181.726 66.5 181.726 66.9716C181.726 67.4006 181.599 67.777 181.347 68.1009C181.097 68.4247 180.753 68.6776 180.315 68.8594C179.881 69.0384 179.379 69.1278 178.811 69.1278C177.945 69.1278 177.254 68.9474 176.74 68.5866C176.229 68.223 175.929 67.7287 175.841 67.1037L177.626 67.0099C177.68 67.2741 177.811 67.4759 178.018 67.6151C178.226 67.7514 178.491 67.8196 178.815 67.8196C179.134 67.8196 179.389 67.7585 179.582 67.6364C179.778 67.5114 179.878 67.3509 179.881 67.1548C179.878 66.9901 179.808 66.8551 179.672 66.75C179.536 66.642 179.325 66.5597 179.041 66.5028L177.908 66.277C177.268 66.1491 176.793 65.9276 176.48 65.6122C176.17 65.2969 176.016 64.8949 176.016 64.4062C176.016 63.9858 176.129 63.6236 176.357 63.3196C176.587 63.0156 176.909 62.7812 177.324 62.6165C177.741 62.4517 178.23 62.3693 178.79 62.3693C179.616 62.3693 180.267 62.544 180.741 62.8935C181.219 63.2429 181.497 63.7187 181.577 64.321Z" fill="#FFFEFE"/>
<rect id="input_constant" x="99" y="52" width="29" height="24" rx="10" fill="white"/>
<path id="wait_for_text" d="M52.0156 69L50.2344 62.4545H52.071L53.0852 66.8523H53.1449L54.2017 62.4545H56.0043L57.0781 66.8267H57.1335L58.1307 62.4545H59.9631L58.1861 69H56.2642L55.1392 64.8835H55.0582L53.9332 69H52.0156ZM62.7979 69.1236C62.3803 69.1236 62.0082 69.0511 61.6815 68.9062C61.3548 68.7585 61.0962 68.5412 60.9059 68.2543C60.7184 67.9645 60.6246 67.6037 60.6246 67.1719C60.6246 66.8082 60.6914 66.5028 60.8249 66.2557C60.9585 66.0085 61.1403 65.8097 61.3704 65.6591C61.6005 65.5085 61.8619 65.3949 62.1545 65.3182C62.4499 65.2415 62.7596 65.1875 63.0835 65.1562C63.4641 65.1165 63.771 65.0795 64.0039 65.0455C64.2369 65.0085 64.4059 64.9545 64.511 64.8835C64.6161 64.8125 64.6687 64.7074 64.6687 64.5682V64.5426C64.6687 64.2727 64.5835 64.0639 64.413 63.9162C64.2454 63.7685 64.0067 63.6946 63.6971 63.6946C63.3704 63.6946 63.1104 63.767 62.9173 63.9119C62.7241 64.054 62.5962 64.233 62.5337 64.4489L60.8548 64.3125C60.94 63.9148 61.1076 63.571 61.3576 63.2812C61.6076 62.9886 61.93 62.7642 62.3249 62.608C62.7227 62.4489 63.1829 62.3693 63.7056 62.3693C64.0692 62.3693 64.4173 62.4119 64.7496 62.4972C65.0849 62.5824 65.3817 62.7145 65.6403 62.8935C65.9016 63.0724 66.1076 63.3026 66.2582 63.5838C66.4087 63.8622 66.484 64.196 66.484 64.5852V69H64.7624V68.0923H64.7113C64.6062 68.2969 64.4656 68.4773 64.2894 68.6335C64.1133 68.7869 63.9016 68.9077 63.6545 68.9957C63.4073 69.081 63.1218 69.1236 62.7979 69.1236ZM63.3178 67.8707C63.5849 67.8707 63.8207 67.8182 64.0252 67.7131C64.2298 67.6051 64.3903 67.4602 64.5067 67.2784C64.6232 67.0966 64.6815 66.8906 64.6815 66.6605V65.9659C64.6246 66.0028 64.5465 66.0369 64.4471 66.0682C64.3505 66.0966 64.2411 66.1236 64.119 66.1491C63.9968 66.1719 63.8746 66.1932 63.7525 66.2131C63.6303 66.2301 63.5195 66.2457 63.4201 66.2599C63.207 66.2912 63.021 66.3409 62.8619 66.4091C62.7028 66.4773 62.5792 66.5696 62.4911 66.6861C62.4031 66.7997 62.359 66.9418 62.359 67.1122C62.359 67.3594 62.4485 67.5483 62.6275 67.679C62.8093 67.8068 63.0394 67.8707 63.3178 67.8707ZM67.8924 69V62.4545H69.7077V69H67.8924ZM68.8043 61.6108C68.5344 61.6108 68.3029 61.5213 68.1097 61.3423C67.9194 61.1605 67.8242 60.9432 67.8242 60.6903C67.8242 60.4403 67.9194 60.2259 68.1097 60.0469C68.3029 59.8651 68.5344 59.7741 68.8043 59.7741C69.0742 59.7741 69.3043 59.8651 69.4947 60.0469C69.6879 60.2259 69.7844 60.4403 69.7844 60.6903C69.7844 60.9432 69.6879 61.1605 69.4947 61.3423C69.3043 61.5213 69.0742 61.6108 68.8043 61.6108ZM74.6435 62.4545V63.8182H70.7017V62.4545H74.6435ZM71.5966 60.8864H73.4119V66.9886C73.4119 67.1562 73.4375 67.2869 73.4886 67.3807C73.5398 67.4716 73.6108 67.5355 73.7017 67.5724C73.7955 67.6094 73.9034 67.6278 74.0256 67.6278C74.1108 67.6278 74.196 67.6207 74.2812 67.6065C74.3665 67.5895 74.4318 67.5767 74.4773 67.5682L74.7628 68.919C74.6719 68.9474 74.544 68.9801 74.3793 69.017C74.2145 69.0568 74.0142 69.081 73.7784 69.0895C73.3409 69.1065 72.9574 69.0483 72.6278 68.9148C72.3011 68.7812 72.0469 68.5739 71.8651 68.2926C71.6832 68.0114 71.5938 67.6562 71.5966 67.2273V60.8864ZM82.1232 62.4545V63.8182H78.0835V62.4545H82.1232ZM79.0082 69V61.9815C79.0082 61.5071 79.1005 61.1136 79.2852 60.8011C79.4727 60.4886 79.7283 60.2543 80.0522 60.098C80.3761 59.9418 80.744 59.8636 81.1559 59.8636C81.4343 59.8636 81.6886 59.8849 81.9187 59.9276C82.1516 59.9702 82.3249 60.0085 82.4386 60.0426L82.1147 61.4062C82.0437 61.3835 81.9556 61.3622 81.8505 61.3423C81.7482 61.3224 81.6431 61.3125 81.5352 61.3125C81.2681 61.3125 81.082 61.375 80.9769 61.5C80.8718 61.6222 80.8192 61.794 80.8192 62.0156V69H79.0082ZM85.9553 69.1278C85.2933 69.1278 84.7209 68.9872 84.2379 68.706C83.7578 68.4219 83.3871 68.027 83.1257 67.5213C82.8643 67.0128 82.7337 66.4233 82.7337 65.7528C82.7337 65.0767 82.8643 64.4858 83.1257 63.9801C83.3871 63.4716 83.7578 63.0767 84.2379 62.7955C84.7209 62.5114 85.2933 62.3693 85.9553 62.3693C86.6172 62.3693 87.1882 62.5114 87.6683 62.7955C88.1513 63.0767 88.5234 63.4716 88.7848 63.9801C89.0462 64.4858 89.1768 65.0767 89.1768 65.7528C89.1768 66.4233 89.0462 67.0128 88.7848 67.5213C88.5234 68.027 88.1513 68.4219 87.6683 68.706C87.1882 68.9872 86.6172 69.1278 85.9553 69.1278ZM85.9638 67.7216C86.2649 67.7216 86.5163 67.6364 86.718 67.4659C86.9197 67.2926 87.0717 67.0568 87.174 66.7585C87.2791 66.4602 87.3317 66.1207 87.3317 65.7401C87.3317 65.3594 87.2791 65.0199 87.174 64.7216C87.0717 64.4233 86.9197 64.1875 86.718 64.0142C86.5163 63.8409 86.2649 63.7543 85.9638 63.7543C85.6598 63.7543 85.4041 63.8409 85.1967 64.0142C84.9922 64.1875 84.8374 64.4233 84.7322 64.7216C84.63 65.0199 84.5788 65.3594 84.5788 65.7401C84.5788 66.1207 84.63 66.4602 84.7322 66.7585C84.8374 67.0568 84.9922 67.2926 85.1967 67.4659C85.4041 67.6364 85.6598 67.7216 85.9638 67.7216ZM90.3572 69V62.4545H92.1172V63.5966H92.1854C92.3047 63.1903 92.505 62.8835 92.7862 62.6761C93.0675 62.4659 93.3913 62.3608 93.7578 62.3608C93.8487 62.3608 93.9467 62.3665 94.0518 62.3778C94.157 62.3892 94.2493 62.4048 94.3288 62.4247V64.0355C94.2436 64.0099 94.1257 63.9872 93.9751 63.9673C93.8246 63.9474 93.6868 63.9375 93.5618 63.9375C93.2947 63.9375 93.0561 63.9957 92.8459 64.1122C92.6385 64.2259 92.4737 64.3849 92.3516 64.5895C92.2322 64.794 92.1726 65.0298 92.1726 65.2969V69H90.3572Z" fill="white"/>
</g>
</g>
</svg>
