<svg width="438" height="246" viewBox="0 0 438 246" fill="none" xmlns="http://www.w3.org/2000/svg">
<g id="wait">
<g id="block_shape">
<g id="false_block_arrow">
<path id="false_block_arrowbody" d="M133 131H111V158H133V131Z" fill="#F0B43B"/>
<path id="false_block_arrowhead" d="M121.548 192.5L147.096 158H96L121.548 192.5Z" fill="#F0B43B"/>
</g>
<g id="main_block">
<g id="prev_block_connector">
<path id="Vector" d="M121.5 72H96V38H96.3223L121.5 72Z" fill="#F0B43B"/>
<path id="Vector_2" d="M147 72H121.5L146.678 38H147V72Z" fill="#F0B43B"/>
</g>
<rect id="block_body" x="8" y="72" width="228" height="59" fill="#F0B43B"/>
</g>
</g>
<g id="block_input">
<path id="seconds" d="M146.17 102.321L144.509 102.423C144.48 102.281 144.419 102.153 144.325 102.04C144.232 101.923 144.108 101.831 143.955 101.763C143.804 101.692 143.624 101.656 143.413 101.656C143.132 101.656 142.895 101.716 142.702 101.835C142.509 101.952 142.412 102.108 142.412 102.304C142.412 102.46 142.474 102.592 142.599 102.7C142.724 102.808 142.939 102.895 143.243 102.96L144.428 103.199C145.064 103.33 145.538 103.54 145.851 103.83C146.163 104.119 146.32 104.5 146.32 104.972C146.32 105.401 146.193 105.777 145.94 106.101C145.69 106.425 145.347 106.678 144.909 106.859C144.474 107.038 143.973 107.128 143.405 107.128C142.538 107.128 141.848 106.947 141.334 106.587C140.822 106.223 140.523 105.729 140.435 105.104L142.22 105.01C142.274 105.274 142.405 105.476 142.612 105.615C142.82 105.751 143.085 105.82 143.409 105.82C143.727 105.82 143.983 105.759 144.176 105.636C144.372 105.511 144.472 105.351 144.474 105.155C144.472 104.99 144.402 104.855 144.266 104.75C144.129 104.642 143.919 104.56 143.635 104.503L142.501 104.277C141.862 104.149 141.386 103.928 141.074 103.612C140.764 103.297 140.609 102.895 140.609 102.406C140.609 101.986 140.723 101.624 140.95 101.32C141.18 101.016 141.503 100.781 141.918 100.616C142.335 100.452 142.824 100.369 143.384 100.369C144.21 100.369 144.861 100.544 145.335 100.893C145.813 101.243 146.091 101.719 146.17 102.321ZM150.446 107.128C149.772 107.128 149.193 106.991 148.707 106.719C148.224 106.443 147.852 106.054 147.591 105.551C147.329 105.045 147.199 104.447 147.199 103.757C147.199 103.084 147.329 102.493 147.591 101.984C147.852 101.476 148.22 101.08 148.694 100.795C149.172 100.511 149.731 100.369 150.373 100.369C150.805 100.369 151.207 100.439 151.579 100.578C151.954 100.714 152.281 100.92 152.559 101.196C152.841 101.472 153.059 101.818 153.216 102.236C153.372 102.651 153.45 103.136 153.45 103.693V104.192H147.923V103.067H151.741C151.741 102.805 151.684 102.574 151.571 102.372C151.457 102.17 151.299 102.013 151.098 101.899C150.899 101.783 150.667 101.724 150.403 101.724C150.127 101.724 149.883 101.788 149.67 101.916C149.46 102.041 149.295 102.21 149.176 102.423C149.056 102.634 148.995 102.868 148.993 103.126V104.196C148.993 104.52 149.052 104.8 149.172 105.036C149.294 105.271 149.466 105.453 149.687 105.581C149.909 105.709 150.172 105.773 150.475 105.773C150.677 105.773 150.862 105.744 151.029 105.688C151.197 105.631 151.341 105.545 151.46 105.432C151.579 105.318 151.67 105.179 151.733 105.014L153.412 105.125C153.326 105.528 153.152 105.881 152.887 106.182C152.626 106.48 152.288 106.713 151.873 106.881C151.461 107.045 150.985 107.128 150.446 107.128ZM157.592 107.128C156.922 107.128 156.345 106.986 155.862 106.702C155.382 106.415 155.012 106.017 154.754 105.509C154.498 105 154.37 104.415 154.37 103.753C154.37 103.082 154.5 102.494 154.758 101.989C155.02 101.48 155.39 101.084 155.87 100.8C156.35 100.513 156.922 100.369 157.583 100.369C158.154 100.369 158.654 100.473 159.083 100.68C159.512 100.888 159.852 101.179 160.102 101.554C160.352 101.929 160.49 102.369 160.515 102.875H158.802C158.754 102.548 158.626 102.286 158.419 102.087C158.214 101.885 157.946 101.784 157.613 101.784C157.332 101.784 157.086 101.861 156.876 102.014C156.669 102.165 156.507 102.385 156.39 102.675C156.274 102.964 156.216 103.315 156.216 103.727C156.216 104.145 156.272 104.5 156.386 104.793C156.502 105.085 156.666 105.308 156.876 105.462C157.086 105.615 157.332 105.692 157.613 105.692C157.821 105.692 158.007 105.649 158.172 105.564C158.339 105.479 158.477 105.355 158.585 105.193C158.696 105.028 158.768 104.831 158.802 104.601H160.515C160.487 105.101 160.35 105.541 160.106 105.922C159.865 106.3 159.531 106.595 159.105 106.808C158.679 107.021 158.174 107.128 157.592 107.128ZM164.635 107.128C163.973 107.128 163.401 106.987 162.918 106.706C162.438 106.422 162.067 106.027 161.805 105.521C161.544 105.013 161.413 104.423 161.413 103.753C161.413 103.077 161.544 102.486 161.805 101.98C162.067 101.472 162.438 101.077 162.918 100.795C163.401 100.511 163.973 100.369 164.635 100.369C165.297 100.369 165.868 100.511 166.348 100.795C166.831 101.077 167.203 101.472 167.464 101.98C167.726 102.486 167.857 103.077 167.857 103.753C167.857 104.423 167.726 105.013 167.464 105.521C167.203 106.027 166.831 106.422 166.348 106.706C165.868 106.987 165.297 107.128 164.635 107.128ZM164.643 105.722C164.945 105.722 165.196 105.636 165.398 105.466C165.599 105.293 165.751 105.057 165.854 104.759C165.959 104.46 166.011 104.121 166.011 103.74C166.011 103.359 165.959 103.02 165.854 102.722C165.751 102.423 165.599 102.187 165.398 102.014C165.196 101.841 164.945 101.754 164.643 101.754C164.339 101.754 164.084 101.841 163.876 102.014C163.672 102.187 163.517 102.423 163.412 102.722C163.31 103.02 163.259 103.359 163.259 103.74C163.259 104.121 163.31 104.46 163.412 104.759C163.517 105.057 163.672 105.293 163.876 105.466C164.084 105.636 164.339 105.722 164.643 105.722ZM170.852 103.216V107H169.037V100.455H170.767V101.609H170.844C170.989 101.229 171.232 100.928 171.572 100.706C171.913 100.482 172.327 100.369 172.812 100.369C173.267 100.369 173.663 100.469 174.001 100.668C174.339 100.866 174.602 101.151 174.79 101.52C174.977 101.886 175.071 102.324 175.071 102.832V107H173.256V103.156C173.259 102.756 173.156 102.443 172.949 102.219C172.741 101.991 172.456 101.878 172.092 101.878C171.848 101.878 171.632 101.93 171.445 102.036C171.26 102.141 171.115 102.294 171.01 102.496C170.908 102.695 170.855 102.935 170.852 103.216ZM178.914 107.107C178.417 107.107 177.966 106.979 177.563 106.723C177.162 106.464 176.844 106.085 176.608 105.585C176.375 105.082 176.259 104.466 176.259 103.736C176.259 102.986 176.38 102.362 176.621 101.865C176.863 101.365 177.184 100.991 177.584 100.744C177.988 100.494 178.429 100.369 178.909 100.369C179.276 100.369 179.581 100.432 179.826 100.557C180.073 100.679 180.272 100.832 180.422 101.017C180.576 101.199 180.692 101.378 180.772 101.554H180.827V98.2727H182.638V107H180.848V105.952H180.772C180.686 106.134 180.566 106.314 180.409 106.493C180.256 106.669 180.056 106.815 179.809 106.932C179.564 107.048 179.266 107.107 178.914 107.107ZM179.489 105.662C179.782 105.662 180.029 105.582 180.23 105.423C180.435 105.261 180.591 105.036 180.699 104.746C180.81 104.456 180.865 104.116 180.865 103.727C180.865 103.338 180.811 103 180.703 102.713C180.596 102.426 180.439 102.205 180.235 102.048C180.03 101.892 179.782 101.814 179.489 101.814C179.191 101.814 178.939 101.895 178.735 102.057C178.53 102.219 178.375 102.443 178.27 102.73C178.165 103.017 178.113 103.349 178.113 103.727C178.113 104.108 178.165 104.445 178.27 104.737C178.378 105.027 178.533 105.254 178.735 105.419C178.939 105.581 179.191 105.662 179.489 105.662ZM189.577 102.321L187.915 102.423C187.886 102.281 187.825 102.153 187.732 102.04C187.638 101.923 187.514 101.831 187.361 101.763C187.21 101.692 187.03 101.656 186.82 101.656C186.538 101.656 186.301 101.716 186.108 101.835C185.915 101.952 185.818 102.108 185.818 102.304C185.818 102.46 185.881 102.592 186.006 102.7C186.131 102.808 186.345 102.895 186.649 102.96L187.834 103.199C188.47 103.33 188.945 103.54 189.257 103.83C189.57 104.119 189.726 104.5 189.726 104.972C189.726 105.401 189.599 105.777 189.347 106.101C189.097 106.425 188.753 106.678 188.315 106.859C187.881 107.038 187.379 107.128 186.811 107.128C185.945 107.128 185.254 106.947 184.74 106.587C184.229 106.223 183.929 105.729 183.841 105.104L185.626 105.01C185.68 105.274 185.811 105.476 186.018 105.615C186.226 105.751 186.491 105.82 186.815 105.82C187.134 105.82 187.389 105.759 187.582 105.636C187.778 105.511 187.878 105.351 187.881 105.155C187.878 104.99 187.808 104.855 187.672 104.75C187.536 104.642 187.325 104.56 187.041 104.503L185.908 104.277C185.268 104.149 184.793 103.928 184.48 103.612C184.17 103.297 184.016 102.895 184.016 102.406C184.016 101.986 184.129 101.624 184.357 101.32C184.587 101.016 184.909 100.781 185.324 100.616C185.741 100.452 186.23 100.369 186.79 100.369C187.616 100.369 188.267 100.544 188.741 100.893C189.219 101.243 189.497 101.719 189.577 102.321Z" fill="#FFFEFE"/>
<rect id="input_constant" x="107" y="90" width="29" height="24" rx="10" fill="white"/>
<path id="wait_for_text" d="M60.0156 107L58.2344 100.455H60.071L61.0852 104.852H61.1449L62.2017 100.455H64.0043L65.0781 104.827H65.1335L66.1307 100.455H67.9631L66.1861 107H64.2642L63.1392 102.884H63.0582L61.9332 107H60.0156ZM70.7979 107.124C70.3803 107.124 70.0082 107.051 69.6815 106.906C69.3548 106.759 69.0962 106.541 68.9059 106.254C68.7184 105.964 68.6246 105.604 68.6246 105.172C68.6246 104.808 68.6914 104.503 68.8249 104.256C68.9585 104.009 69.1403 103.81 69.3704 103.659C69.6005 103.509 69.8619 103.395 70.1545 103.318C70.4499 103.241 70.7596 103.188 71.0835 103.156C71.4641 103.116 71.771 103.08 72.0039 103.045C72.2369 103.009 72.4059 102.955 72.511 102.884C72.6161 102.812 72.6687 102.707 72.6687 102.568V102.543C72.6687 102.273 72.5835 102.064 72.413 101.916C72.2454 101.768 72.0067 101.695 71.6971 101.695C71.3704 101.695 71.1104 101.767 70.9173 101.912C70.7241 102.054 70.5962 102.233 70.5337 102.449L68.8548 102.312C68.94 101.915 69.1076 101.571 69.3576 101.281C69.6076 100.989 69.93 100.764 70.3249 100.608C70.7227 100.449 71.1829 100.369 71.7056 100.369C72.0692 100.369 72.4173 100.412 72.7496 100.497C73.0849 100.582 73.3817 100.714 73.6403 100.893C73.9016 101.072 74.1076 101.303 74.2582 101.584C74.4087 101.862 74.484 102.196 74.484 102.585V107H72.7624V106.092H72.7113C72.6062 106.297 72.4656 106.477 72.2894 106.634C72.1133 106.787 71.9016 106.908 71.6545 106.996C71.4073 107.081 71.1218 107.124 70.7979 107.124ZM71.3178 105.871C71.5849 105.871 71.8207 105.818 72.0252 105.713C72.2298 105.605 72.3903 105.46 72.5067 105.278C72.6232 105.097 72.6815 104.891 72.6815 104.661V103.966C72.6246 104.003 72.5465 104.037 72.4471 104.068C72.3505 104.097 72.2411 104.124 72.119 104.149C71.9968 104.172 71.8746 104.193 71.7525 104.213C71.6303 104.23 71.5195 104.246 71.4201 104.26C71.207 104.291 71.021 104.341 70.8619 104.409C70.7028 104.477 70.5792 104.57 70.4911 104.686C70.4031 104.8 70.359 104.942 70.359 105.112C70.359 105.359 70.4485 105.548 70.6275 105.679C70.8093 105.807 71.0394 105.871 71.3178 105.871ZM75.8924 107V100.455H77.7077V107H75.8924ZM76.8043 99.6108C76.5344 99.6108 76.3029 99.5213 76.1097 99.3423C75.9194 99.1605 75.8242 98.9432 75.8242 98.6903C75.8242 98.4403 75.9194 98.2259 76.1097 98.0469C76.3029 97.8651 76.5344 97.7741 76.8043 97.7741C77.0742 97.7741 77.3043 97.8651 77.4947 98.0469C77.6879 98.2259 77.7844 98.4403 77.7844 98.6903C77.7844 98.9432 77.6879 99.1605 77.4947 99.3423C77.3043 99.5213 77.0742 99.6108 76.8043 99.6108ZM82.6435 100.455V101.818H78.7017V100.455H82.6435ZM79.5966 98.8864H81.4119V104.989C81.4119 105.156 81.4375 105.287 81.4886 105.381C81.5398 105.472 81.6108 105.536 81.7017 105.572C81.7955 105.609 81.9034 105.628 82.0256 105.628C82.1108 105.628 82.196 105.621 82.2812 105.607C82.3665 105.589 82.4318 105.577 82.4773 105.568L82.7628 106.919C82.6719 106.947 82.544 106.98 82.3793 107.017C82.2145 107.057 82.0142 107.081 81.7784 107.089C81.3409 107.107 80.9574 107.048 80.6278 106.915C80.3011 106.781 80.0469 106.574 79.8651 106.293C79.6832 106.011 79.5938 105.656 79.5966 105.227V98.8864ZM90.1232 100.455V101.818H86.0835V100.455H90.1232ZM87.0082 107V99.9815C87.0082 99.5071 87.1005 99.1136 87.2852 98.8011C87.4727 98.4886 87.7283 98.2543 88.0522 98.098C88.3761 97.9418 88.744 97.8636 89.1559 97.8636C89.4343 97.8636 89.6886 97.8849 89.9187 97.9276C90.1516 97.9702 90.3249 98.0085 90.4386 98.0426L90.1147 99.4062C90.0437 99.3835 89.9556 99.3622 89.8505 99.3423C89.7482 99.3224 89.6431 99.3125 89.5352 99.3125C89.2681 99.3125 89.082 99.375 88.9769 99.5C88.8718 99.6222 88.8192 99.794 88.8192 100.016V107H87.0082ZM93.9553 107.128C93.2933 107.128 92.7209 106.987 92.2379 106.706C91.7578 106.422 91.3871 106.027 91.1257 105.521C90.8643 105.013 90.7337 104.423 90.7337 103.753C90.7337 103.077 90.8643 102.486 91.1257 101.98C91.3871 101.472 91.7578 101.077 92.2379 100.795C92.7209 100.511 93.2933 100.369 93.9553 100.369C94.6172 100.369 95.1882 100.511 95.6683 100.795C96.1513 101.077 96.5234 101.472 96.7848 101.98C97.0462 102.486 97.1768 103.077 97.1768 103.753C97.1768 104.423 97.0462 105.013 96.7848 105.521C96.5234 106.027 96.1513 106.422 95.6683 106.706C95.1882 106.987 94.6172 107.128 93.9553 107.128ZM93.9638 105.722C94.2649 105.722 94.5163 105.636 94.718 105.466C94.9197 105.293 95.0717 105.057 95.174 104.759C95.2791 104.46 95.3317 104.121 95.3317 103.74C95.3317 103.359 95.2791 103.02 95.174 102.722C95.0717 102.423 94.9197 102.187 94.718 102.014C94.5163 101.841 94.2649 101.754 93.9638 101.754C93.6598 101.754 93.4041 101.841 93.1967 102.014C92.9922 102.187 92.8374 102.423 92.7322 102.722C92.63 103.02 92.5788 103.359 92.5788 103.74C92.5788 104.121 92.63 104.46 92.7322 104.759C92.8374 105.057 92.9922 105.293 93.1967 105.466C93.4041 105.636 93.6598 105.722 93.9638 105.722ZM98.3572 107V100.455H100.117V101.597H100.185C100.305 101.19 100.505 100.884 100.786 100.676C101.067 100.466 101.391 100.361 101.758 100.361C101.849 100.361 101.947 100.366 102.052 100.378C102.157 100.389 102.249 100.405 102.329 100.425V102.036C102.244 102.01 102.126 101.987 101.975 101.967C101.825 101.947 101.687 101.938 101.562 101.938C101.295 101.938 101.056 101.996 100.846 102.112C100.638 102.226 100.474 102.385 100.352 102.589C100.232 102.794 100.173 103.03 100.173 103.297V107H98.3572Z" fill="white"/>
</g>
</g>
</svg>
