<svg width="246" height="54" viewBox="0 0 246 54" fill="none" xmlns="http://www.w3.org/2000/svg">
<g id="and_operator">
<g id="block_shape">
<path d="M32 0H213V53H32V0Z" fill="#6BC161"/>
<path d="M0 27L33 0.153214V53.8468L0 27Z" fill="#6BC161"/>
<path d="M246 27L213 53.8468V0.153212L246 27Z" fill="#6BC161"/>
</g>
<g id="block_input">
<path id="text" d="M115.591 30.1236C115.173 30.1236 114.801 30.0511 114.474 29.9062C114.148 29.7585 113.889 29.5412 113.699 29.2543C113.511 28.9645 113.418 28.6037 113.418 28.1719C113.418 27.8082 113.484 27.5028 113.618 27.2557C113.751 27.0085 113.933 26.8097 114.163 26.6591C114.393 26.5085 114.655 26.3949 114.947 26.3182C115.243 26.2415 115.553 26.1875 115.876 26.1562C116.257 26.1165 116.564 26.0795 116.797 26.0455C117.03 26.0085 117.199 25.9545 117.304 25.8835C117.409 25.8125 117.462 25.7074 117.462 25.5682V25.5426C117.462 25.2727 117.376 25.0639 117.206 24.9162C117.038 24.7685 116.8 24.6946 116.49 24.6946C116.163 24.6946 115.903 24.767 115.71 24.9119C115.517 25.054 115.389 25.233 115.327 25.4489L113.648 25.3125C113.733 24.9148 113.901 24.571 114.151 24.2812C114.401 23.9886 114.723 23.7642 115.118 23.608C115.516 23.4489 115.976 23.3693 116.499 23.3693C116.862 23.3693 117.21 23.4119 117.543 23.4972C117.878 23.5824 118.175 23.7145 118.433 23.8935C118.695 24.0724 118.901 24.3026 119.051 24.5838C119.202 24.8622 119.277 25.196 119.277 25.5852V30H117.555V29.0923H117.504C117.399 29.2969 117.259 29.4773 117.082 29.6335C116.906 29.7869 116.695 29.9077 116.447 29.9957C116.2 30.081 115.915 30.1236 115.591 30.1236ZM116.111 28.8707C116.378 28.8707 116.614 28.8182 116.818 28.7131C117.023 28.6051 117.183 28.4602 117.3 28.2784C117.416 28.0966 117.474 27.8906 117.474 27.6605V26.9659C117.418 27.0028 117.339 27.0369 117.24 27.0682C117.143 27.0966 117.034 27.1236 116.912 27.1491C116.79 27.1719 116.668 27.1932 116.545 27.2131C116.423 27.2301 116.312 27.2457 116.213 27.2599C116 27.2912 115.814 27.3409 115.655 27.4091C115.496 27.4773 115.372 27.5696 115.284 27.6861C115.196 27.7997 115.152 27.9418 115.152 28.1122C115.152 28.3594 115.241 28.5483 115.42 28.679C115.602 28.8068 115.832 28.8707 116.111 28.8707ZM122.501 26.2159V30H120.685V23.4545H122.415V24.6094H122.492C122.637 24.2287 122.88 23.9276 123.221 23.706C123.562 23.4815 123.975 23.3693 124.461 23.3693C124.915 23.3693 125.312 23.4688 125.65 23.6676C125.988 23.8665 126.251 24.1506 126.438 24.5199C126.626 24.8864 126.719 25.3239 126.719 25.8324V30H124.904V26.1562C124.907 25.7557 124.805 25.4432 124.597 25.2188C124.39 24.9915 124.104 24.8778 123.741 24.8778C123.496 24.8778 123.281 24.9304 123.093 25.0355C122.908 25.1406 122.763 25.294 122.658 25.4957C122.556 25.6946 122.504 25.9347 122.501 26.2159ZM130.562 30.1065C130.065 30.1065 129.615 29.9787 129.211 29.723C128.811 29.4645 128.493 29.0852 128.257 28.5852C128.024 28.0824 127.907 27.4659 127.907 26.7358C127.907 25.9858 128.028 25.3622 128.27 24.8651C128.511 24.3651 128.832 23.9915 129.233 23.7443C129.636 23.4943 130.078 23.3693 130.558 23.3693C130.924 23.3693 131.23 23.4318 131.474 23.5568C131.721 23.679 131.92 23.8324 132.071 24.017C132.224 24.1989 132.341 24.3778 132.42 24.554H132.475V21.2727H134.287V30H132.497V28.9517H132.42C132.335 29.1335 132.214 29.3139 132.058 29.4929C131.904 29.669 131.704 29.8153 131.457 29.9318C131.213 30.0483 130.914 30.1065 130.562 30.1065ZM131.137 28.6619C131.43 28.6619 131.677 28.5824 131.879 28.4233C132.083 28.2614 132.24 28.0355 132.348 27.7457C132.458 27.456 132.514 27.1165 132.514 26.7273C132.514 26.3381 132.46 26 132.352 25.7131C132.244 25.4261 132.088 25.2045 131.883 25.0483C131.679 24.892 131.43 24.8139 131.137 24.8139C130.839 24.8139 130.588 24.8949 130.383 25.0568C130.179 25.2187 130.024 25.4432 129.919 25.7301C129.814 26.017 129.761 26.3494 129.761 26.7273C129.761 27.108 129.814 27.4446 129.919 27.7372C130.027 28.027 130.181 28.2543 130.383 28.419C130.588 28.581 130.839 28.6619 131.137 28.6619Z" fill="white"/>
<g id="input_2">
<path d="M155.837 17H222.793V36.6855H155.837V17Z" fill="white"/>
<path d="M144 27.0285L156.207 17.0569V37L144 27.0285Z" fill="white"/>
<path d="M235 27.0285L222.793 37V17.0569L235 27.0285Z" fill="white"/>
</g>
<g id="input_1">
<path d="M22.8374 17H89.7927V36.6855H22.8374V17Z" fill="white"/>
<path d="M11 27.0285L23.2073 17.0569V37L11 27.0285Z" fill="white"/>
<path d="M102 27.0285L89.7927 37V17.0569L102 27.0285Z" fill="white"/>
</g>
</g>
</g>
</svg>
