<svg width="246" height="54" viewBox="0 0 246 54" fill="none" xmlns="http://www.w3.org/2000/svg">
<g id="gt_operator">
<g id="block_shape">
<path d="M32 0H213V53H32V0Z" fill="#6BC161"/>
<path d="M0 27L33 0.153214V53.8468L0 27Z" fill="#6BC161"/>
<path d="M246 27L213 53.8468V0.153212L246 27Z" fill="#6BC161"/>
</g>
<g id="block_input">
<path id="input_2" d="M135 25.3333C135 20.731 138.721 17 143.312 17H190.688C195.279 17 199 20.731 199 25.3333V28.6667C199 33.269 195.279 37 190.688 37H143.312C138.721 37 135 33.269 135 28.6667V25.3333Z" fill="white"/>
<path id="text" d="M125.848 27.5749L118.348 30.8775V28.7202L123.483 26.6587L123.413 26.7706V26.5043L123.483 26.6161L118.348 24.5547V22.3974L125.848 25.6999V27.5749Z" fill="white"/>
<path id="input_1" d="M49 25.3333C49 20.731 52.7211 17 57.3117 17H104.688C109.279 17 113 20.731 113 25.3333V28.6667C113 33.269 109.279 37 104.688 37H57.3117C52.7211 37 49 33.269 49 28.6667V25.3333Z" fill="white"/>
</g>
</g>
</svg>
