<svg width="246" height="54" viewBox="0 0 246 54" fill="none" xmlns="http://www.w3.org/2000/svg">
<g id="not_operator">
<g id="block_shape">
<path d="M32 0H213V53H32V0Z" fill="#6BC161"/>
<path d="M0 27L33 0.153214V53.8468L0 27Z" fill="#6BC161"/>
<path d="M246 27L213 53.8468V0.153212L246 27Z" fill="#6BC161"/>
</g>
<g id="block_input">
<g id="input_2">
<path d="M102.837 16H169.793V35.6855H102.837V16Z" fill="white"/>
<path d="M91 26.0285L103.207 16.0569V36L91 26.0285Z" fill="white"/>
<path d="M182 26.0285L169.793 36V16.0569L182 26.0285Z" fill="white"/>
</g>
<path id="text" d="M65.5398 25.2159V29H63.7244V22.4545H65.4545V23.6094H65.5312C65.6761 23.2287 65.919 22.9276 66.2599 22.706C66.6009 22.4815 67.0142 22.3693 67.5 22.3693C67.9545 22.3693 68.3509 22.4688 68.6889 22.6676C69.027 22.8665 69.2898 23.1506 69.4773 23.5199C69.6648 23.8864 69.7585 24.3239 69.7585 24.8324V29H67.9432V25.1562C67.946 24.7557 67.8438 24.4432 67.6364 24.2188C67.429 23.9915 67.1435 23.8778 66.7798 23.8778C66.5355 23.8778 66.3196 23.9304 66.1321 24.0355C65.9474 24.1406 65.8026 24.294 65.6974 24.4957C65.5952 24.6946 65.5426 24.9347 65.5398 25.2159ZM74.1467 29.1278C73.4847 29.1278 72.9123 28.9872 72.4293 28.706C71.9492 28.4219 71.5785 28.027 71.3171 27.5213C71.0558 27.0128 70.9251 26.4233 70.9251 25.7528C70.9251 25.0767 71.0558 24.4858 71.3171 23.9801C71.5785 23.4716 71.9492 23.0767 72.4293 22.7955C72.9123 22.5114 73.4847 22.3693 74.1467 22.3693C74.8086 22.3693 75.3796 22.5114 75.8597 22.7955C76.3427 23.0767 76.7148 23.4716 76.9762 23.9801C77.2376 24.4858 77.3683 25.0767 77.3683 25.7528C77.3683 26.4233 77.2376 27.0128 76.9762 27.5213C76.7148 28.027 76.3427 28.4219 75.8597 28.706C75.3796 28.9872 74.8086 29.1278 74.1467 29.1278ZM74.1552 27.7216C74.4563 27.7216 74.7077 27.6364 74.9094 27.4659C75.1112 27.2926 75.2631 27.0568 75.3654 26.7585C75.4705 26.4602 75.5231 26.1207 75.5231 25.7401C75.5231 25.3594 75.4705 25.0199 75.3654 24.7216C75.2631 24.4233 75.1112 24.1875 74.9094 24.0142C74.7077 23.8409 74.4563 23.7543 74.1552 23.7543C73.8512 23.7543 73.5955 23.8409 73.3881 24.0142C73.1836 24.1875 73.0288 24.4233 72.9237 24.7216C72.8214 25.0199 72.7702 25.3594 72.7702 25.7401C72.7702 26.1207 72.8214 26.4602 72.9237 26.7585C73.0288 27.0568 73.1836 27.2926 73.3881 27.4659C73.5955 27.6364 73.8512 27.7216 74.1552 27.7216ZM82.0302 22.4545V23.8182H78.0884V22.4545H82.0302ZM78.9833 20.8864H80.7987V26.9886C80.7987 27.1562 80.8242 27.2869 80.8754 27.3807C80.9265 27.4716 80.9975 27.5355 81.0884 27.5724C81.1822 27.6094 81.2901 27.6278 81.4123 27.6278C81.4975 27.6278 81.5827 27.6207 81.668 27.6065C81.7532 27.5895 81.8185 27.5767 81.864 27.5682L82.1495 28.919C82.0586 28.9474 81.9308 28.9801 81.766 29.017C81.6012 29.0568 81.4009 29.081 81.1651 29.0895C80.7276 29.1065 80.3441 29.0483 80.0146 28.9148C79.6879 28.7812 79.4336 28.5739 79.2518 28.2926C79.07 28.0114 78.9805 27.6562 78.9833 27.2273V20.8864Z" fill="white"/>
</g>
</g>
</svg>
