<svg width="250" height="149" viewBox="0 0 250 149" fill="none" xmlns="http://www.w3.org/2000/svg">
<g id="change_variable">
<g id="block_shape">
<path id="next_block_arrowbody" d="M136 93H114V115H136V93Z" fill="#E57C4F"/>
<path id="next_block_arrowhead" d="M124.5 149L150.048 114.5H98.9523L124.5 149Z" fill="#E57C4F"/>
<g id="prev_block_connector">
<path id="Vector" d="M124.5 34H99V0H99.3223L124.5 34Z" fill="#E57C4F"/>
<path id="Vector_2" d="M150 34H124.5L149.678 0H150V34Z" fill="#E57C4F"/>
</g>
<path id="block_body" d="M0 50.5421C0 41.4061 14.2889 34 31.9148 34H218.086C235.711 34 250 41.4061 250 50.5421V76.4579C250 85.5939 235.711 93 218.086 93H31.9148C14.2889 93 0 85.5939 0 76.4579V50.5421Z" fill="#E57C4F"/>
</g>
<g id="block_input">
<path id="value_input" d="M161 62C161 56.4772 165.477 52 171 52H228C233.523 52 238 56.4772 238 62V66C238 71.5228 233.523 76 228 76H171C165.477 76 161 71.5228 161 66V62Z" fill="white"/>
<path id="var_input" d="M61 62C61 56.4772 65.477 52 71 52H128C133.523 52 138 56.4772 138 62V66C138 71.5228 133.523 76 128 76H71C65.477 76 61 71.5228 61 66V62Z" fill="white"/>
<path id="by" d="M142.759 69V60.2727H144.574V63.554H144.629C144.709 63.3778 144.824 63.1989 144.974 63.017C145.128 62.8324 145.327 62.679 145.571 62.5568C145.818 62.4318 146.125 62.3693 146.491 62.3693C146.969 62.3693 147.409 62.4943 147.812 62.7443C148.216 62.9915 148.538 63.3651 148.78 63.8651C149.021 64.3622 149.142 64.9858 149.142 65.7358C149.142 66.4659 149.024 67.0824 148.788 67.5852C148.555 68.0852 148.237 68.4645 147.834 68.723C147.433 68.9787 146.984 69.1065 146.487 69.1065C146.135 69.1065 145.835 69.0483 145.588 68.9318C145.344 68.8153 145.143 68.669 144.987 68.4929C144.831 68.3139 144.712 68.1335 144.629 67.9517H144.548V69H142.759ZM144.536 65.7273C144.536 66.1165 144.589 66.456 144.697 66.7457C144.805 67.0355 144.962 67.2614 145.166 67.4233C145.371 67.5824 145.619 67.6619 145.912 67.6619C146.207 67.6619 146.457 67.581 146.662 67.419C146.866 67.2543 147.021 67.027 147.126 66.7372C147.234 66.4446 147.288 66.108 147.288 65.7273C147.288 65.3494 147.236 65.017 147.131 64.7301C147.026 64.4432 146.871 64.2187 146.666 64.0568C146.462 63.8949 146.21 63.8139 145.912 63.8139C145.616 63.8139 145.366 63.892 145.162 64.0483C144.96 64.2045 144.805 64.4261 144.697 64.7131C144.589 65 144.536 65.3381 144.536 65.7273ZM151.263 71.4545C151.033 71.4545 150.817 71.4361 150.615 71.3991C150.417 71.3651 150.252 71.321 150.121 71.267L150.53 69.9119C150.743 69.9773 150.935 70.0128 151.105 70.0185C151.279 70.0241 151.428 69.9844 151.553 69.8991C151.681 69.8139 151.784 69.669 151.864 69.4645L151.971 69.1875L149.623 62.4545H151.532L152.887 67.2614H152.955L154.323 62.4545H156.245L153.701 69.7074C153.578 70.0597 153.412 70.3665 153.202 70.6278C152.995 70.892 152.732 71.0952 152.414 71.2372C152.096 71.3821 151.712 71.4545 151.263 71.4545Z" fill="white"/>
<path id="change_text" d="M16.6818 69.1278C16.0114 69.1278 15.4347 68.9858 14.9517 68.7017C14.4716 68.4148 14.1023 68.017 13.8438 67.5085C13.5881 67 13.4602 66.4148 13.4602 65.7528C13.4602 65.0824 13.5895 64.4943 13.848 63.9886C14.1094 63.4801 14.4801 63.0838 14.9602 62.7997C15.4403 62.5128 16.0114 62.3693 16.6733 62.3693C17.2443 62.3693 17.7443 62.473 18.1733 62.6804C18.6023 62.8878 18.9418 63.179 19.1918 63.554C19.4418 63.929 19.5795 64.3693 19.6051 64.875H17.892C17.8438 64.5483 17.7159 64.2855 17.5085 64.0866C17.304 63.8849 17.0355 63.7841 16.7031 63.7841C16.4219 63.7841 16.1761 63.8608 15.9659 64.0142C15.7585 64.1648 15.5966 64.3849 15.4801 64.6747C15.3636 64.9645 15.3054 65.3153 15.3054 65.7273C15.3054 66.1449 15.3622 66.5 15.4759 66.7926C15.5923 67.0852 15.7557 67.3082 15.9659 67.4616C16.1761 67.6151 16.4219 67.6918 16.7031 67.6918C16.9105 67.6918 17.0966 67.6491 17.2614 67.5639C17.429 67.4787 17.5668 67.3551 17.6747 67.1932C17.7855 67.0284 17.858 66.831 17.892 66.6009H19.6051C19.5767 67.1009 19.4403 67.5412 19.196 67.9219C18.9545 68.2997 18.6207 68.5952 18.1946 68.8082C17.7685 69.0213 17.2642 69.1278 16.6818 69.1278ZM22.5827 65.2159V69H20.7674V60.2727H22.5316V63.6094H22.6083C22.756 63.223 22.9947 62.9205 23.3242 62.7017C23.6538 62.4801 24.0671 62.3693 24.5643 62.3693C25.0188 62.3693 25.4151 62.4688 25.7532 62.6676C26.0941 62.8636 26.3583 63.1463 26.5458 63.5156C26.7362 63.8821 26.8299 64.321 26.8271 64.8324V69H25.0117V65.1562C25.0146 64.7528 24.9123 64.4389 24.7049 64.2145C24.5004 63.9901 24.2134 63.8778 23.8441 63.8778C23.5969 63.8778 23.3782 63.9304 23.1879 64.0355C23.0004 64.1406 22.8526 64.294 22.7447 64.4957C22.6396 64.6946 22.5856 64.9347 22.5827 65.2159ZM30.1222 69.1236C29.7045 69.1236 29.3324 69.0511 29.0057 68.9062C28.679 68.7585 28.4205 68.5412 28.2301 68.2543C28.0426 67.9645 27.9489 67.6037 27.9489 67.1719C27.9489 66.8082 28.0156 66.5028 28.1491 66.2557C28.2827 66.0085 28.4645 65.8097 28.6946 65.6591C28.9247 65.5085 29.1861 65.3949 29.4787 65.3182C29.7741 65.2415 30.0838 65.1875 30.4077 65.1562C30.7884 65.1165 31.0952 65.0795 31.3281 65.0455C31.5611 65.0085 31.7301 64.9545 31.8352 64.8835C31.9403 64.8125 31.9929 64.7074 31.9929 64.5682V64.5426C31.9929 64.2727 31.9077 64.0639 31.7372 63.9162C31.5696 63.7685 31.331 63.6946 31.0213 63.6946C30.6946 63.6946 30.4347 63.767 30.2415 63.9119C30.0483 64.054 29.9205 64.233 29.858 64.4489L28.179 64.3125C28.2642 63.9148 28.4318 63.571 28.6818 63.2812C28.9318 62.9886 29.2543 62.7642 29.6491 62.608C30.0469 62.4489 30.5071 62.3693 31.0298 62.3693C31.3935 62.3693 31.7415 62.4119 32.0739 62.4972C32.4091 62.5824 32.706 62.7145 32.9645 62.8935C33.2259 63.0724 33.4318 63.3026 33.5824 63.5838C33.733 63.8622 33.8082 64.196 33.8082 64.5852V69H32.0866V68.0923H32.0355C31.9304 68.2969 31.7898 68.4773 31.6136 68.6335C31.4375 68.7869 31.2259 68.9077 30.9787 68.9957C30.7315 69.081 30.446 69.1236 30.1222 69.1236ZM30.642 67.8707C30.9091 67.8707 31.1449 67.8182 31.3494 67.7131C31.554 67.6051 31.7145 67.4602 31.831 67.2784C31.9474 67.0966 32.0057 66.8906 32.0057 66.6605V65.9659C31.9489 66.0028 31.8707 66.0369 31.7713 66.0682C31.6747 66.0966 31.5653 66.1236 31.4432 66.1491C31.321 66.1719 31.1989 66.1932 31.0767 66.2131C30.9545 66.2301 30.8438 66.2457 30.7443 66.2599C30.5313 66.2912 30.3452 66.3409 30.1861 66.4091C30.027 66.4773 29.9034 66.5696 29.8153 66.6861C29.7273 66.7997 29.6832 66.9418 29.6832 67.1122C29.6832 67.3594 29.7727 67.5483 29.9517 67.679C30.1335 67.8068 30.3636 67.8707 30.642 67.8707ZM37.032 65.2159V69H35.2166V62.4545H36.9467V63.6094H37.0234C37.1683 63.2287 37.4112 62.9276 37.7521 62.706C38.093 62.4815 38.5064 62.3693 38.9922 62.3693C39.4467 62.3693 39.843 62.4688 40.1811 62.6676C40.5192 62.8665 40.782 63.1506 40.9695 63.5199C41.157 63.8864 41.2507 64.3239 41.2507 64.8324V69H39.4354V65.1562C39.4382 64.7557 39.3359 64.4432 39.1286 64.2188C38.9212 63.9915 38.6357 63.8778 38.272 63.8778C38.0277 63.8778 37.8118 63.9304 37.6243 64.0355C37.4396 64.1406 37.2947 64.294 37.1896 64.4957C37.0874 64.6946 37.0348 64.9347 37.032 65.2159ZM45.6303 71.5909C45.0423 71.5909 44.538 71.5099 44.1175 71.348C43.6999 71.1889 43.3675 70.9716 43.1204 70.696C42.8732 70.4205 42.7127 70.1108 42.6388 69.767L44.3178 69.5412C44.369 69.6719 44.4499 69.794 44.5607 69.9077C44.6715 70.0213 44.8178 70.1122 44.9996 70.1804C45.1843 70.2514 45.4087 70.2869 45.6729 70.2869C46.0678 70.2869 46.3931 70.1903 46.6488 69.9972C46.9073 69.8068 47.0366 69.4872 47.0366 69.0384V67.8409H46.9599C46.8803 68.0227 46.761 68.1946 46.6019 68.3565C46.4428 68.5185 46.2383 68.6506 45.9883 68.7528C45.7383 68.8551 45.44 68.9062 45.0934 68.9062C44.6019 68.9062 44.1545 68.7926 43.7511 68.5653C43.3505 68.3352 43.0309 67.9844 42.7923 67.5128C42.5565 67.0384 42.4386 66.4389 42.4386 65.7145C42.4386 64.973 42.5593 64.3537 42.8008 63.8565C43.0423 63.3594 43.3633 62.9872 43.7638 62.7401C44.1673 62.4929 44.609 62.3693 45.0891 62.3693C45.4556 62.3693 45.7624 62.4318 46.0096 62.5568C46.2567 62.679 46.4556 62.8324 46.6062 63.017C46.7596 63.1989 46.8775 63.3778 46.9599 63.554H47.0281V62.4545H48.8306V69.0639C48.8306 69.6207 48.6942 70.0866 48.4215 70.4616C48.1488 70.8366 47.771 71.1179 47.288 71.3054C46.8079 71.4957 46.2553 71.5909 45.6303 71.5909ZM45.6687 67.5426C45.9613 67.5426 46.2085 67.4702 46.4102 67.3253C46.6147 67.1776 46.771 66.9673 46.8789 66.6946C46.9897 66.419 47.0451 66.0895 47.0451 65.706C47.0451 65.3224 46.9911 64.9901 46.8832 64.7088C46.7752 64.4247 46.619 64.2045 46.4144 64.0483C46.2099 63.892 45.9613 63.8139 45.6687 63.8139C45.3704 63.8139 45.119 63.8949 44.9144 64.0568C44.7099 64.2159 44.555 64.4375 44.4499 64.7216C44.3448 65.0057 44.2923 65.3338 44.2923 65.706C44.2923 66.0838 44.3448 66.4105 44.4499 66.6861C44.5579 66.9588 44.7127 67.1705 44.9144 67.321C45.119 67.4687 45.3704 67.5426 45.6687 67.5426ZM53.2582 69.1278C52.5849 69.1278 52.0053 68.9915 51.5195 68.7188C51.0366 68.4432 50.6644 68.054 50.4031 67.5511C50.1417 67.0455 50.011 66.4474 50.011 65.7571C50.011 65.0838 50.1417 64.4929 50.4031 63.9844C50.6644 63.4759 51.0323 63.0795 51.5067 62.7955C51.984 62.5114 52.5437 62.3693 53.1857 62.3693C53.6175 62.3693 54.0195 62.4389 54.3917 62.5781C54.7667 62.7145 55.0934 62.9205 55.3718 63.196C55.6531 63.4716 55.8718 63.8182 56.0281 64.2358C56.1843 64.6506 56.2624 65.1364 56.2624 65.6932V66.1918H50.7354V65.0668H54.5536C54.5536 64.8054 54.4968 64.5739 54.3832 64.3722C54.2695 64.1705 54.1119 64.0128 53.9102 63.8991C53.7113 63.7827 53.4798 63.7244 53.2156 63.7244C52.94 63.7244 52.6957 63.7884 52.4826 63.9162C52.2724 64.0412 52.1076 64.2102 51.9883 64.4233C51.869 64.6335 51.8079 64.8679 51.805 65.1264V66.196C51.805 66.5199 51.8647 66.7997 51.984 67.0355C52.1062 67.2713 52.2781 67.4531 52.4996 67.581C52.7212 67.7088 52.984 67.7727 53.288 67.7727C53.4897 67.7727 53.6744 67.7443 53.842 67.6875C54.0096 67.6307 54.1531 67.5455 54.2724 67.4318C54.3917 67.3182 54.4826 67.179 54.5451 67.0142L56.2241 67.125C56.1388 67.5284 55.9641 67.8807 55.6999 68.1818C55.4386 68.4801 55.1005 68.7131 54.6857 68.8807C54.2738 69.0455 53.7979 69.1278 53.2582 69.1278Z" fill="white"/>
</g>
</g>
</svg>
