<svg width="248" height="174" viewBox="0 0 248 174" fill="none" xmlns="http://www.w3.org/2000/svg">
<g id="start">
<g id="block_shape">
<path id="next_block_arrowbody" d="M134.048 75H112.048V97H134.048V75Z" fill="#CC5151"/>
<path id="next_block_arrowhead" d="M122.548 131L148.096 96.5H97L122.548 131Z" fill="#CC5151"/>
<ellipse id="block_body" cx="122.5" cy="62.5" rx="37.5" ry="17.5" fill="#CC5151"/>
</g>
<path id="start_2" d="M114.17 63.321L112.509 63.4233C112.48 63.2812 112.419 63.1534 112.325 63.0398C112.232 62.9233 112.108 62.831 111.955 62.7628C111.804 62.6918 111.624 62.6562 111.413 62.6562C111.132 62.6562 110.895 62.7159 110.702 62.8352C110.509 62.9517 110.412 63.108 110.412 63.304C110.412 63.4602 110.474 63.5923 110.599 63.7003C110.724 63.8082 110.939 63.8949 111.243 63.9602L112.428 64.1989C113.064 64.3295 113.538 64.5398 113.851 64.8295C114.163 65.1193 114.32 65.5 114.32 65.9716C114.32 66.4006 114.193 66.777 113.94 67.1009C113.69 67.4247 113.347 67.6776 112.909 67.8594C112.474 68.0384 111.973 68.1278 111.405 68.1278C110.538 68.1278 109.848 67.9474 109.334 67.5866C108.822 67.223 108.523 66.7287 108.435 66.1037L110.22 66.0099C110.274 66.2741 110.405 66.4759 110.612 66.6151C110.82 66.7514 111.085 66.8196 111.409 66.8196C111.727 66.8196 111.983 66.7585 112.176 66.6364C112.372 66.5114 112.472 66.3509 112.474 66.1548C112.472 65.9901 112.402 65.8551 112.266 65.75C112.129 65.642 111.919 65.5597 111.635 65.5028L110.501 65.277C109.862 65.1491 109.386 64.9276 109.074 64.6122C108.764 64.2969 108.609 63.8949 108.609 63.4062C108.609 62.9858 108.723 62.6236 108.95 62.3196C109.18 62.0156 109.503 61.7812 109.918 61.6165C110.335 61.4517 110.824 61.3693 111.384 61.3693C112.21 61.3693 112.861 61.544 113.335 61.8935C113.813 62.2429 114.091 62.7187 114.17 63.321ZM118.944 61.4545V62.8182H115.002V61.4545H118.944ZM115.897 59.8864H117.713V65.9886C117.713 66.1562 117.738 66.2869 117.789 66.3807C117.841 66.4716 117.912 66.5355 118.002 66.5724C118.096 66.6094 118.204 66.6278 118.326 66.6278C118.412 66.6278 118.497 66.6207 118.582 66.6065C118.667 66.5895 118.733 66.5767 118.778 66.5682L119.064 67.919C118.973 67.9474 118.845 67.9801 118.68 68.017C118.515 68.0568 118.315 68.081 118.079 68.0895C117.642 68.1065 117.258 68.0483 116.929 67.9148C116.602 67.7812 116.348 67.5739 116.166 67.2926C115.984 67.0114 115.895 66.6562 115.897 66.2273V59.8864ZM121.993 68.1236C121.576 68.1236 121.203 68.0511 120.877 67.9062C120.55 67.7585 120.292 67.5412 120.101 67.2543C119.914 66.9645 119.82 66.6037 119.82 66.1719C119.82 65.8082 119.887 65.5028 120.02 65.2557C120.154 65.0085 120.336 64.8097 120.566 64.6591C120.796 64.5085 121.057 64.3949 121.35 64.3182C121.645 64.2415 121.955 64.1875 122.279 64.1562C122.659 64.1165 122.966 64.0795 123.199 64.0455C123.432 64.0085 123.601 63.9545 123.706 63.8835C123.811 63.8125 123.864 63.7074 123.864 63.5682V63.5426C123.864 63.2727 123.779 63.0639 123.608 62.9162C123.441 62.7685 123.202 62.6946 122.892 62.6946C122.566 62.6946 122.306 62.767 122.113 62.9119C121.919 63.054 121.792 63.233 121.729 63.4489L120.05 63.3125C120.135 62.9148 120.303 62.571 120.553 62.2812C120.803 61.9886 121.125 61.7642 121.52 61.608C121.918 61.4489 122.378 61.3693 122.901 61.3693C123.265 61.3693 123.613 61.4119 123.945 61.4972C124.28 61.5824 124.577 61.7145 124.836 61.8935C125.097 62.0724 125.303 62.3026 125.453 62.5838C125.604 62.8622 125.679 63.196 125.679 63.5852V68H123.958V67.0923H123.907C123.801 67.2969 123.661 67.4773 123.485 67.6335C123.309 67.7869 123.097 67.9077 122.85 67.9957C122.603 68.081 122.317 68.1236 121.993 68.1236ZM122.513 66.8707C122.78 66.8707 123.016 66.8182 123.221 66.7131C123.425 66.6051 123.586 66.4602 123.702 66.2784C123.819 66.0966 123.877 65.8906 123.877 65.6605V64.9659C123.82 65.0028 123.742 65.0369 123.642 65.0682C123.546 65.0966 123.436 65.1236 123.314 65.1491C123.192 65.1719 123.07 65.1932 122.948 65.2131C122.826 65.2301 122.715 65.2457 122.615 65.2599C122.402 65.2912 122.216 65.3409 122.057 65.4091C121.898 65.4773 121.775 65.5696 121.686 65.6861C121.598 65.7997 121.554 65.9418 121.554 66.1122C121.554 66.3594 121.644 66.5483 121.823 66.679C122.005 66.8068 122.235 66.8707 122.513 66.8707ZM127.088 68V61.4545H128.848V62.5966H128.916C129.035 62.1903 129.235 61.8835 129.517 61.6761C129.798 61.4659 130.122 61.3608 130.488 61.3608C130.579 61.3608 130.677 61.3665 130.782 61.3778C130.887 61.3892 130.98 61.4048 131.059 61.4247V63.0355C130.974 63.0099 130.856 62.9872 130.706 62.9673C130.555 62.9474 130.417 62.9375 130.292 62.9375C130.025 62.9375 129.787 62.9957 129.576 63.1122C129.369 63.2259 129.204 63.3849 129.082 63.5895C128.963 63.794 128.903 64.0298 128.903 64.2969V68H127.088ZM135.808 61.4545V62.8182H131.866V61.4545H135.808ZM132.761 59.8864H134.576V65.9886C134.576 66.1562 134.602 66.2869 134.653 66.3807C134.704 66.4716 134.775 66.5355 134.866 66.5724C134.96 66.6094 135.067 66.6278 135.19 66.6278C135.275 66.6278 135.36 66.6207 135.445 66.6065C135.531 66.5895 135.596 66.5767 135.641 66.5682L135.927 67.919C135.836 67.9474 135.708 67.9801 135.543 68.017C135.379 68.0568 135.178 68.081 134.942 68.0895C134.505 68.1065 134.121 68.0483 133.792 67.9148C133.465 67.7812 133.211 67.5739 133.029 67.2926C132.847 67.0114 132.758 66.6562 132.761 66.2273V59.8864Z" fill="white"/>
</g>
</svg>
